# ANM_P2_Crimson_Light_Rig — Crimson light rig
# SC_P2_SCHOOL · group D
# bounds 2.90 × 1.22 × 3.43 m · 156 tris · UV island 112 × 96 px
# 1 unit = 1 m · pivot at floor contact, X/Z centred
mtllib ANM_P2_Crimson_Light_Rig.mtl
o anchor_plate
usemtl SURF_Absence_Fog
v 0.15000000596046448 0.050000048056244896 0.10000000596046449
v 0.15000000596046448 0.050000048056244896 -0.20000000596046447
v 0.15000000596046448 4.731118683626301e-8 0.10000000596046449
v 0.15000000596046448 4.731118683626301e-8 -0.20000000596046447
v -0.15000000596046448 0.050000048056244896 -0.20000000596046447
v -0.15000000596046448 0.050000048056244896 0.10000000596046449
v -0.15000000596046448 4.731118683626301e-8 -0.20000000596046447
v -0.15000000596046448 4.731118683626301e-8 0.10000000596046449
v -0.15000000596046448 0.050000048056244896 -0.20000000596046447
v 0.15000000596046448 0.050000048056244896 -0.20000000596046447
v -0.15000000596046448 0.050000048056244896 0.10000000596046449
v 0.15000000596046448 0.050000048056244896 0.10000000596046449
v -0.15000000596046448 4.731118683626301e-8 0.10000000596046449
v 0.15000000596046448 4.731118683626301e-8 0.10000000596046449
v -0.15000000596046448 4.731118683626301e-8 -0.20000000596046447
v 0.15000000596046448 4.731118683626301e-8 -0.20000000596046447
v -0.15000000596046448 0.050000048056244896 0.10000000596046449
v 0.15000000596046448 0.050000048056244896 0.10000000596046449
v -0.15000000596046448 4.731118683626301e-8 0.10000000596046449
v 0.15000000596046448 4.731118683626301e-8 0.10000000596046449
v 0.15000000596046448 0.050000048056244896 -0.20000000596046447
v -0.15000000596046448 0.050000048056244896 -0.20000000596046447
v 0.15000000596046448 4.731118683626301e-8 -0.20000000596046447
v -0.15000000596046448 4.731118683626301e-8 -0.20000000596046447
vt 0 1
vt 1 1
vt 0 0
vt 1 0
vt 0 1
vt 1 1
vt 0 0
vt 1 0
vt 0 1
vt 1 1
vt 0 0
vt 1 0
vt 0 1
vt 1 1
vt 0 0
vt 1 0
vt 0 1
vt 1 1
vt 0 0
vt 1 0
vt 0 1
vt 1 1
vt 0 0
vt 1 0
vn 1 0 0
vn 1 0 0
vn 1 0 0
vn 1 0 0
vn -1 0 0
vn -1 0 0
vn -1 0 0
vn -1 0 0
vn 0 1 0
vn 0 1 0
vn 0 1 0
vn 0 1 0
vn 0 -1 0
vn 0 -1 0
vn 0 -1 0
vn 0 -1 0
vn 0 0 1
vn 0 0 1
vn 0 0 1
vn 0 0 1
vn 0 0 -1
vn 0 0 -1
vn 0 0 -1
vn 0 0 -1
f 1/1/1 3/3/3 2/2/2
f 3/3/3 4/4/4 2/2/2
f 5/5/5 7/7/7 6/6/6
f 7/7/7 8/8/8 6/6/6
f 9/9/9 11/11/11 10/10/10
f 11/11/11 12/12/12 10/10/10
f 13/13/13 15/15/15 14/14/14
f 15/15/15 16/16/16 14/14/14
f 17/17/17 19/19/19 18/18/18
f 19/19/19 20/20/20 18/18/18
f 21/21/21 23/23/23 22/22/22
f 23/23/23 24/24/24 22/22/22
o light_gizmo_0
usemtl SURF_Crimson_Core
v 0 2.2300000470131636 0.009999998658895504
v 0.05196152254939079 2.2300000470131636 -0.020000000670552243
v 0.05196152254939079 2.2300000470131636 -0.07999999932944774
v 7.347880950074885e-18 2.2300000470131636 -0.10999999865889548
v -0.05196152254939079 2.2300000470131636 -0.07999999932944774
v -0.05196152254939079 2.2300000470131636 -0.020000000670552243
v -1.469576190014977e-17 2.2300000470131636 0.009999998658895504
v 0 2.170000048354268 0.009999998658895504
v 0.05196152254939079 2.170000048354268 -0.020000000670552243
v 0.05196152254939079 2.170000048354268 -0.07999999932944774
v 7.347880950074885e-18 2.170000048354268 -0.10999999865889548
v -0.05196152254939079 2.170000048354268 -0.07999999932944774
v -0.05196152254939079 2.170000048354268 -0.020000000670552243
v -1.469576190014977e-17 2.170000048354268 0.009999998658895504
v 0 2.2300000470131636 -0.04999999999999999
v 0 2.2300000470131636 -0.04999999999999999
v 0 2.2300000470131636 -0.04999999999999999
v 0 2.2300000470131636 -0.04999999999999999
v 0 2.2300000470131636 -0.04999999999999999
v 0 2.2300000470131636 -0.04999999999999999
v 0 2.2300000470131636 0.009999998658895504
v 0.05196152254939079 2.2300000470131636 -0.020000000670552243
v 0.05196152254939079 2.2300000470131636 -0.07999999932944774
v 7.347880950074885e-18 2.2300000470131636 -0.10999999865889548
v -0.05196152254939079 2.2300000470131636 -0.07999999932944774
v -0.05196152254939079 2.2300000470131636 -0.020000000670552243
v -1.469576190014977e-17 2.2300000470131636 0.009999998658895504
v 0 2.170000048354268 -0.04999999999999999
v 0 2.170000048354268 -0.04999999999999999
v 0 2.170000048354268 -0.04999999999999999
v 0 2.170000048354268 -0.04999999999999999
v 0 2.170000048354268 -0.04999999999999999
v 0 2.170000048354268 -0.04999999999999999
v 0 2.170000048354268 0.009999998658895504
v 0.05196152254939079 2.170000048354268 -0.020000000670552243
v 0.05196152254939079 2.170000048354268 -0.07999999932944774
v 7.347880950074885e-18 2.170000048354268 -0.10999999865889548
v -0.05196152254939079 2.170000048354268 -0.07999999932944774
v -0.05196152254939079 2.170000048354268 -0.020000000670552243
v -1.469576190014977e-17 2.170000048354268 0.009999998658895504
vt 0 1
vt 0.1666666716337204 1
vt 0.3333333432674408 1
vt 0.5 1
vt 0.6666666865348816 1
vt 0.8333333134651184 1
vt 1 1
vt 0 0
vt 0.1666666716337204 0
vt 0.3333333432674408 0
vt 0.5 0
vt 0.6666666865348816 0
vt 0.8333333134651184 0
vt 1 0
vt 0.5 0.5
vt 0.5 0.5
vt 0.5 0.5
vt 0.5 0.5
vt 0.5 0.5
vt 0.5 0.5
vt 1 0.5
vt 0.75 0.9330127239227295
vt 0.25 0.9330127239227295
vt 0 0.5
vt 0.25 0.0669872984290123
vt 0.75 0.0669872984290123
vt 1 0.5
vt 0.5 0.5
vt 0.5 0.5
vt 0.5 0.5
vt 0.5 0.5
vt 0.5 0.5
vt 0.5 0.5
vt 1 0.5
vt 0.75 0.0669872984290123
vt 0.25 0.0669872984290123
vt 0 0.5
vt 0.25 0.9330127239227295
vt 0.75 0.9330127239227295
vt 1 0.5
vn 0 0 1
vn 0.8660253998985324 0 0.5000000067305869
vn 0.8660253998985324 0 -0.5000000067305869
vn 1.2246468525851679e-16 0 -1
vn -0.8660253998985324 0 -0.5000000067305869
vn -0.8660253998985324 0 0.5000000067305869
vn -2.4492937051703357e-16 0 1
vn 0 0 1
vn 0.8660253998985324 0 0.5000000067305869
vn 0.8660253998985324 0 -0.5000000067305869
vn 1.2246468525851679e-16 0 -1
vn -0.8660253998985324 0 -0.5000000067305869
vn -0.8660253998985324 0 0.5000000067305869
vn -2.4492937051703357e-16 0 1
vn 0 1 0
vn 0 1 0
vn 0 1 0
vn 0 1 0
vn 0 1 0
vn 0 1 0
vn 0 1 0
vn 0 1 0
vn 0 1 0
vn 0 1 0
vn 0 1 0
vn 0 1 0
vn 0 1 0
vn 0 -1 0
vn 0 -1 0
vn 0 -1 0
vn 0 -1 0
vn 0 -1 0
vn 0 -1 0
vn 0 -1 0
vn 0 -1 0
vn 0 -1 0
vn 0 -1 0
vn 0 -1 0
vn 0 -1 0
vn 0 -1 0
f 25/25/25 32/32/32 26/26/26
f 32/32/32 33/33/33 26/26/26
f 26/26/26 33/33/33 27/27/27
f 33/33/33 34/34/34 27/27/27
f 27/27/27 34/34/34 28/28/28
f 34/34/34 35/35/35 28/28/28
f 28/28/28 35/35/35 29/29/29
f 35/35/35 36/36/36 29/29/29
f 29/29/29 36/36/36 30/30/30
f 36/36/36 37/37/37 30/30/30
f 30/30/30 37/37/37 31/31/31
f 37/37/37 38/38/38 31/31/31
f 45/45/45 46/46/46 39/39/39
f 46/46/46 47/47/47 40/40/40
f 47/47/47 48/48/48 41/41/41
f 48/48/48 49/49/49 42/42/42
f 49/49/49 50/50/50 43/43/43
f 50/50/50 51/51/51 44/44/44
f 59/59/59 58/58/58 52/52/52
f 60/60/60 59/59/59 53/53/53
f 61/61/61 60/60/60 54/54/54
f 62/62/62 61/61/61 55/55/55
f 63/63/63 62/62/62 56/56/56
f 64/64/64 63/63/63 57/57/57
o light_stem_0
usemtl SURF_Absence_Fog
v 0.009999999776482582 2.200000071525574 -0.04000000022351741
v 0.009999999776482582 2.200000071525574 -0.05999999977648257
v 0.009999999776482582 2.3841858043383013e-8 -0.04000000022351741
v 0.009999999776482582 2.3841858043383013e-8 -0.05999999977648257
v -0.009999999776482582 2.200000071525574 -0.05999999977648257
v -0.009999999776482582 2.200000071525574 -0.04000000022351741
v -0.009999999776482582 2.3841858043383013e-8 -0.05999999977648257
v -0.009999999776482582 2.3841858043383013e-8 -0.04000000022351741
v -0.009999999776482582 2.200000071525574 -0.05999999977648257
v 0.009999999776482582 2.200000071525574 -0.05999999977648257
v -0.009999999776482582 2.200000071525574 -0.04000000022351741
v 0.009999999776482582 2.200000071525574 -0.04000000022351741
v -0.009999999776482582 2.3841858043383013e-8 -0.04000000022351741
v 0.009999999776482582 2.3841858043383013e-8 -0.04000000022351741
v -0.009999999776482582 2.3841858043383013e-8 -0.05999999977648257
v 0.009999999776482582 2.3841858043383013e-8 -0.05999999977648257
v -0.009999999776482582 2.200000071525574 -0.04000000022351741
v 0.009999999776482582 2.200000071525574 -0.04000000022351741
v -0.009999999776482582 2.3841858043383013e-8 -0.04000000022351741
v 0.009999999776482582 2.3841858043383013e-8 -0.04000000022351741
v 0.009999999776482582 2.200000071525574 -0.05999999977648257
v -0.009999999776482582 2.200000071525574 -0.05999999977648257
v 0.009999999776482582 2.3841858043383013e-8 -0.05999999977648257
v -0.009999999776482582 2.3841858043383013e-8 -0.05999999977648257
vt 0 1
vt 1 1
vt 0 0
vt 1 0
vt 0 1
vt 1 1
vt 0 0
vt 1 0
vt 0 1
vt 1 1
vt 0 0
vt 1 0
vt 0 1
vt 1 1
vt 0 0
vt 1 0
vt 0 1
vt 1 1
vt 0 0
vt 1 0
vt 0 1
vt 1 1
vt 0 0
vt 1 0
vn 1 0 0
vn 1 0 0
vn 1 0 0
vn 1 0 0
vn -1 0 0
vn -1 0 0
vn -1 0 0
vn -1 0 0
vn 0 1 0
vn 0 1 0
vn 0 1 0
vn 0 1 0
vn 0 -1 0
vn 0 -1 0
vn 0 -1 0
vn 0 -1 0
vn 0 0 1
vn 0 0 1
vn 0 0 1
vn 0 0 1
vn 0 0 -1
vn 0 0 -1
vn 0 0 -1
vn 0 0 -1
f 65/65/65 67/67/67 66/66/66
f 67/67/67 68/68/68 66/66/66
f 69/69/69 71/71/71 70/70/70
f 71/71/71 72/72/72 70/70/70
f 73/73/73 75/75/75 74/74/74
f 75/75/75 76/76/76 74/74/74
f 77/77/77 79/79/79 78/78/78
f 79/79/79 80/80/80 78/78/78
f 81/81/81 83/83/83 82/82/82
f 83/83/83 84/84/84 82/82/82
f 85/85/85 87/87/87 86/86/86
f 87/87/87 88/88/88 86/86/86
o light_gizmo_1
usemtl SURF_Crimson_Core
v -1.4 1.2300000470131636 0.6099999986588955
v -1.3480384774506091 1.2300000470131636 0.5799999993294478
v -1.3480384774506091 1.2300000470131636 0.5200000006705523
v -1.4 1.2300000470131636 0.49000000134110455
v -1.4519615225493907 1.2300000470131636 0.5200000006705523
v -1.4519615225493907 1.2300000470131636 0.5799999993294478
v -1.4 1.2300000470131636 0.6099999986588955
v -1.4 1.170000048354268 0.6099999986588955
v -1.3480384774506091 1.170000048354268 0.5799999993294478
v -1.3480384774506091 1.170000048354268 0.5200000006705523
v -1.4 1.170000048354268 0.49000000134110455
v -1.4519615225493907 1.170000048354268 0.5200000006705523
v -1.4519615225493907 1.170000048354268 0.5799999993294478
v -1.4 1.170000048354268 0.6099999986588955
v -1.4 1.2300000470131636 0.55
v -1.4 1.2300000470131636 0.55
v -1.4 1.2300000470131636 0.55
v -1.4 1.2300000470131636 0.55
v -1.4 1.2300000470131636 0.55
v -1.4 1.2300000470131636 0.55
v -1.4 1.2300000470131636 0.6099999986588955
v -1.3480384774506091 1.2300000470131636 0.5799999993294478
v -1.3480384774506091 1.2300000470131636 0.5200000006705523
v -1.4 1.2300000470131636 0.49000000134110455
v -1.4519615225493907 1.2300000470131636 0.5200000006705523
v -1.4519615225493907 1.2300000470131636 0.5799999993294478
v -1.4 1.2300000470131636 0.6099999986588955
v -1.4 1.170000048354268 0.55
v -1.4 1.170000048354268 0.55
v -1.4 1.170000048354268 0.55
v -1.4 1.170000048354268 0.55
v -1.4 1.170000048354268 0.55
v -1.4 1.170000048354268 0.55
v -1.4 1.170000048354268 0.6099999986588955
v -1.3480384774506091 1.170000048354268 0.5799999993294478
v -1.3480384774506091 1.170000048354268 0.5200000006705523
v -1.4 1.170000048354268 0.49000000134110455
v -1.4519615225493907 1.170000048354268 0.5200000006705523
v -1.4519615225493907 1.170000048354268 0.5799999993294478
v -1.4 1.170000048354268 0.6099999986588955
vt 0 1
vt 0.1666666716337204 1
vt 0.3333333432674408 1
vt 0.5 1
vt 0.6666666865348816 1
vt 0.8333333134651184 1
vt 1 1
vt 0 0
vt 0.1666666716337204 0
vt 0.3333333432674408 0
vt 0.5 0
vt 0.6666666865348816 0
vt 0.8333333134651184 0
vt 1 0
vt 0.5 0.5
vt 0.5 0.5
vt 0.5 0.5
vt 0.5 0.5
vt 0.5 0.5
vt 0.5 0.5
vt 1 0.5
vt 0.75 0.9330127239227295
vt 0.25 0.9330127239227295
vt 0 0.5
vt 0.25 0.0669872984290123
vt 0.75 0.0669872984290123
vt 1 0.5
vt 0.5 0.5
vt 0.5 0.5
vt 0.5 0.5
vt 0.5 0.5
vt 0.5 0.5
vt 0.5 0.5
vt 1 0.5
vt 0.75 0.0669872984290123
vt 0.25 0.0669872984290123
vt 0 0.5
vt 0.25 0.9330127239227295
vt 0.75 0.9330127239227295
vt 1 0.5
vn 0 0 1
vn 0.8660253998985324 0 0.5000000067305869
vn 0.8660253998985324 0 -0.5000000067305869
vn 1.2246468525851679e-16 0 -1
vn -0.8660253998985324 0 -0.5000000067305869
vn -0.8660253998985324 0 0.5000000067305869
vn -2.4492937051703357e-16 0 1
vn 0 0 1
vn 0.8660253998985324 0 0.5000000067305869
vn 0.8660253998985324 0 -0.5000000067305869
vn 1.2246468525851679e-16 0 -1
vn -0.8660253998985324 0 -0.5000000067305869
vn -0.8660253998985324 0 0.5000000067305869
vn -2.4492937051703357e-16 0 1
vn 0 1 0
vn 0 1 0
vn 0 1 0
vn 0 1 0
vn 0 1 0
vn 0 1 0
vn 0 1 0
vn 0 1 0
vn 0 1 0
vn 0 1 0
vn 0 1 0
vn 0 1 0
vn 0 1 0
vn 0 -1 0
vn 0 -1 0
vn 0 -1 0
vn 0 -1 0
vn 0 -1 0
vn 0 -1 0
vn 0 -1 0
vn 0 -1 0
vn 0 -1 0
vn 0 -1 0
vn 0 -1 0
vn 0 -1 0
vn 0 -1 0
f 89/89/89 96/96/96 90/90/90
f 96/96/96 97/97/97 90/90/90
f 90/90/90 97/97/97 91/91/91
f 97/97/97 98/98/98 91/91/91
f 91/91/91 98/98/98 92/92/92
f 98/98/98 99/99/99 92/92/92
f 92/92/92 99/99/99 93/93/93
f 99/99/99 100/100/100 93/93/93
f 93/93/93 100/100/100 94/94/94
f 100/100/100 101/101/101 94/94/94
f 94/94/94 101/101/101 95/95/95
f 101/101/101 102/102/102 95/95/95
f 109/109/109 110/110/110 103/103/103
f 110/110/110 111/111/111 104/104/104
f 111/111/111 112/112/112 105/105/105
f 112/112/112 113/113/113 106/106/106
f 113/113/113 114/114/114 107/107/107
f 114/114/114 115/115/115 108/108/108
f 123/123/123 122/122/122 116/116/116
f 124/124/124 123/123/123 117/117/117
f 125/125/125 124/124/124 118/118/118
f 126/126/126 125/125/125 119/119/119
f 127/127/127 126/126/126 120/120/120
f 128/128/128 127/127/127 121/121/121
o light_stem_1
usemtl SURF_Absence_Fog
v -1.3900000002235173 1.2000000715255736 0.5599999997764826
v -1.3900000002235173 1.2000000715255736 0.5400000002235175
v -1.3900000002235173 2.384185793236071e-8 0.5599999997764826
v -1.3900000002235173 2.384185793236071e-8 0.5400000002235175
v -1.4099999997764825 1.2000000715255736 0.5400000002235175
v -1.4099999997764825 1.2000000715255736 0.5599999997764826
v -1.4099999997764825 2.384185793236071e-8 0.5400000002235175
v -1.4099999997764825 2.384185793236071e-8 0.5599999997764826
v -1.4099999997764825 1.2000000715255736 0.5400000002235175
v -1.3900000002235173 1.2000000715255736 0.5400000002235175
v -1.4099999997764825 1.2000000715255736 0.5599999997764826
v -1.3900000002235173 1.2000000715255736 0.5599999997764826
v -1.4099999997764825 2.384185793236071e-8 0.5599999997764826
v -1.3900000002235173 2.384185793236071e-8 0.5599999997764826
v -1.4099999997764825 2.384185793236071e-8 0.5400000002235175
v -1.3900000002235173 2.384185793236071e-8 0.5400000002235175
v -1.4099999997764825 1.2000000715255736 0.5599999997764826
v -1.3900000002235173 1.2000000715255736 0.5599999997764826
v -1.4099999997764825 2.384185793236071e-8 0.5599999997764826
v -1.3900000002235173 2.384185793236071e-8 0.5599999997764826
v -1.3900000002235173 1.2000000715255736 0.5400000002235175
v -1.4099999997764825 1.2000000715255736 0.5400000002235175
v -1.3900000002235173 2.384185793236071e-8 0.5400000002235175
v -1.4099999997764825 2.384185793236071e-8 0.5400000002235175
vt 0 1
vt 1 1
vt 0 0
vt 1 0
vt 0 1
vt 1 1
vt 0 0
vt 1 0
vt 0 1
vt 1 1
vt 0 0
vt 1 0
vt 0 1
vt 1 1
vt 0 0
vt 1 0
vt 0 1
vt 1 1
vt 0 0
vt 1 0
vt 0 1
vt 1 1
vt 0 0
vt 1 0
vn 1 0 0
vn 1 0 0
vn 1 0 0
vn 1 0 0
vn -1 0 0
vn -1 0 0
vn -1 0 0
vn -1 0 0
vn 0 1 0
vn 0 1 0
vn 0 1 0
vn 0 1 0
vn 0 -1 0
vn 0 -1 0
vn 0 -1 0
vn 0 -1 0
vn 0 0 1
vn 0 0 1
vn 0 0 1
vn 0 0 1
vn 0 0 -1
vn 0 0 -1
vn 0 0 -1
vn 0 0 -1
f 129/129/129 131/131/131 130/130/130
f 131/131/131 132/132/132 130/130/130
f 133/133/133 135/135/135 134/134/134
f 135/135/135 136/136/136 134/134/134
f 137/137/137 139/139/139 138/138/138
f 139/139/139 140/140/140 138/138/138
f 141/141/141 143/143/143 142/142/142
f 143/143/143 144/144/144 142/142/142
f 145/145/145 147/147/147 146/146/146
f 147/147/147 148/148/148 146/146/146
f 149/149/149 151/151/151 150/150/150
f 151/151/151 152/152/152 150/150/150
o light_gizmo_2
usemtl SURF_Crimson_Core
v 1.4 1.6300000470131637 -0.49000000134110455
v 1.4519615225493907 1.6300000470131637 -0.5200000006705523
v 1.4519615225493907 1.6300000470131637 -0.5799999993294478
v 1.4 1.6300000470131637 -0.6099999986588955
v 1.3480384774506091 1.6300000470131637 -0.5799999993294478
v 1.3480384774506091 1.6300000470131637 -0.5200000006705523
v 1.4 1.6300000470131637 -0.49000000134110455
v 1.4 1.5700000483542682 -0.49000000134110455
v 1.4519615225493907 1.5700000483542682 -0.5200000006705523
v 1.4519615225493907 1.5700000483542682 -0.5799999993294478
v 1.4 1.5700000483542682 -0.6099999986588955
v 1.3480384774506091 1.5700000483542682 -0.5799999993294478
v 1.3480384774506091 1.5700000483542682 -0.5200000006705523
v 1.4 1.5700000483542682 -0.49000000134110455
v 1.4 1.6300000470131637 -0.55
v 1.4 1.6300000470131637 -0.55
v 1.4 1.6300000470131637 -0.55
v 1.4 1.6300000470131637 -0.55
v 1.4 1.6300000470131637 -0.55
v 1.4 1.6300000470131637 -0.55
v 1.4 1.6300000470131637 -0.49000000134110455
v 1.4519615225493907 1.6300000470131637 -0.5200000006705523
v 1.4519615225493907 1.6300000470131637 -0.5799999993294478
v 1.4 1.6300000470131637 -0.6099999986588955
v 1.3480384774506091 1.6300000470131637 -0.5799999993294478
v 1.3480384774506091 1.6300000470131637 -0.5200000006705523
v 1.4 1.6300000470131637 -0.49000000134110455
v 1.4 1.5700000483542682 -0.55
v 1.4 1.5700000483542682 -0.55
v 1.4 1.5700000483542682 -0.55
v 1.4 1.5700000483542682 -0.55
v 1.4 1.5700000483542682 -0.55
v 1.4 1.5700000483542682 -0.55
v 1.4 1.5700000483542682 -0.49000000134110455
v 1.4519615225493907 1.5700000483542682 -0.5200000006705523
v 1.4519615225493907 1.5700000483542682 -0.5799999993294478
v 1.4 1.5700000483542682 -0.6099999986588955
v 1.3480384774506091 1.5700000483542682 -0.5799999993294478
v 1.3480384774506091 1.5700000483542682 -0.5200000006705523
v 1.4 1.5700000483542682 -0.49000000134110455
vt 0 1
vt 0.1666666716337204 1
vt 0.3333333432674408 1
vt 0.5 1
vt 0.6666666865348816 1
vt 0.8333333134651184 1
vt 1 1
vt 0 0
vt 0.1666666716337204 0
vt 0.3333333432674408 0
vt 0.5 0
vt 0.6666666865348816 0
vt 0.8333333134651184 0
vt 1 0
vt 0.5 0.5
vt 0.5 0.5
vt 0.5 0.5
vt 0.5 0.5
vt 0.5 0.5
vt 0.5 0.5
vt 1 0.5
vt 0.75 0.9330127239227295
vt 0.25 0.9330127239227295
vt 0 0.5
vt 0.25 0.0669872984290123
vt 0.75 0.0669872984290123
vt 1 0.5
vt 0.5 0.5
vt 0.5 0.5
vt 0.5 0.5
vt 0.5 0.5
vt 0.5 0.5
vt 0.5 0.5
vt 1 0.5
vt 0.75 0.0669872984290123
vt 0.25 0.0669872984290123
vt 0 0.5
vt 0.25 0.9330127239227295
vt 0.75 0.9330127239227295
vt 1 0.5
vn 0 0 1
vn 0.8660253998985324 0 0.5000000067305869
vn 0.8660253998985324 0 -0.5000000067305869
vn 1.2246468525851679e-16 0 -1
vn -0.8660253998985324 0 -0.5000000067305869
vn -0.8660253998985324 0 0.5000000067305869
vn -2.4492937051703357e-16 0 1
vn 0 0 1
vn 0.8660253998985324 0 0.5000000067305869
vn 0.8660253998985324 0 -0.5000000067305869
vn 1.2246468525851679e-16 0 -1
vn -0.8660253998985324 0 -0.5000000067305869
vn -0.8660253998985324 0 0.5000000067305869
vn -2.4492937051703357e-16 0 1
vn 0 1 0
vn 0 1 0
vn 0 1 0
vn 0 1 0
vn 0 1 0
vn 0 1 0
vn 0 1 0
vn 0 1 0
vn 0 1 0
vn 0 1 0
vn 0 1 0
vn 0 1 0
vn 0 1 0
vn 0 -1 0
vn 0 -1 0
vn 0 -1 0
vn 0 -1 0
vn 0 -1 0
vn 0 -1 0
vn 0 -1 0
vn 0 -1 0
vn 0 -1 0
vn 0 -1 0
vn 0 -1 0
vn 0 -1 0
vn 0 -1 0
f 153/153/153 160/160/160 154/154/154
f 160/160/160 161/161/161 154/154/154
f 154/154/154 161/161/161 155/155/155
f 161/161/161 162/162/162 155/155/155
f 155/155/155 162/162/162 156/156/156
f 162/162/162 163/163/163 156/156/156
f 156/156/156 163/163/163 157/157/157
f 163/163/163 164/164/164 157/157/157
f 157/157/157 164/164/164 158/158/158
f 164/164/164 165/165/165 158/158/158
f 158/158/158 165/165/165 159/159/159
f 165/165/165 166/166/166 159/159/159
f 173/173/173 174/174/174 167/167/167
f 174/174/174 175/175/175 168/168/168
f 175/175/175 176/176/176 169/169/169
f 176/176/176 177/177/177 170/170/170
f 177/177/177 178/178/178 171/171/171
f 178/178/178 179/179/179 172/172/172
f 187/187/187 186/186/186 180/180/180
f 188/188/188 187/187/187 181/181/181
f 189/189/189 188/188/188 182/182/182
f 190/190/190 189/189/189 183/183/183
f 191/191/191 190/190/190 184/184/184
f 192/192/192 191/191/191 185/185/185
o light_stem_2
usemtl SURF_Absence_Fog
v 1.4099999997764825 1.6000000596046449 -0.5400000002235175
v 1.4099999997764825 1.6000000596046449 -0.5599999997764826
v 1.4099999997764825 3.576278695405222e-8 -0.5400000002235175
v 1.4099999997764825 3.576278695405222e-8 -0.5599999997764826
v 1.3900000002235173 1.6000000596046449 -0.5599999997764826
v 1.3900000002235173 1.6000000596046449 -0.5400000002235175
v 1.3900000002235173 3.576278695405222e-8 -0.5599999997764826
v 1.3900000002235173 3.576278695405222e-8 -0.5400000002235175
v 1.3900000002235173 1.6000000596046449 -0.5599999997764826
v 1.4099999997764825 1.6000000596046449 -0.5599999997764826
v 1.3900000002235173 1.6000000596046449 -0.5400000002235175
v 1.4099999997764825 1.6000000596046449 -0.5400000002235175
v 1.3900000002235173 3.576278695405222e-8 -0.5400000002235175
v 1.4099999997764825 3.576278695405222e-8 -0.5400000002235175
v 1.3900000002235173 3.576278695405222e-8 -0.5599999997764826
v 1.4099999997764825 3.576278695405222e-8 -0.5599999997764826
v 1.3900000002235173 1.6000000596046449 -0.5400000002235175
v 1.4099999997764825 1.6000000596046449 -0.5400000002235175
v 1.3900000002235173 3.576278695405222e-8 -0.5400000002235175
v 1.4099999997764825 3.576278695405222e-8 -0.5400000002235175
v 1.4099999997764825 1.6000000596046449 -0.5599999997764826
v 1.3900000002235173 1.6000000596046449 -0.5599999997764826
v 1.4099999997764825 3.576278695405222e-8 -0.5599999997764826
v 1.3900000002235173 3.576278695405222e-8 -0.5599999997764826
vt 0 1
vt 1 1
vt 0 0
vt 1 0
vt 0 1
vt 1 1
vt 0 0
vt 1 0
vt 0 1
vt 1 1
vt 0 0
vt 1 0
vt 0 1
vt 1 1
vt 0 0
vt 1 0
vt 0 1
vt 1 1
vt 0 0
vt 1 0
vt 0 1
vt 1 1
vt 0 0
vt 1 0
vn 1 0 0
vn 1 0 0
vn 1 0 0
vn 1 0 0
vn -1 0 0
vn -1 0 0
vn -1 0 0
vn -1 0 0
vn 0 1 0
vn 0 1 0
vn 0 1 0
vn 0 1 0
vn 0 -1 0
vn 0 -1 0
vn 0 -1 0
vn 0 -1 0
vn 0 0 1
vn 0 0 1
vn 0 0 1
vn 0 0 1
vn 0 0 -1
vn 0 0 -1
vn 0 0 -1
vn 0 0 -1
f 193/193/193 195/195/195 194/194/194
f 195/195/195 196/196/196 194/194/194
f 197/197/197 199/199/199 198/198/198
f 199/199/199 200/200/200 198/198/198
f 201/201/201 203/203/203 202/202/202
f 203/203/203 204/204/204 202/202/202
f 205/205/205 207/207/207 206/206/206
f 207/207/207 208/208/208 206/206/206
f 209/209/209 211/211/211 210/210/210
f 211/211/211 212/212/212 210/210/210
f 213/213/213 215/215/215 214/214/214
f 215/215/215 216/216/216 214/214/214
o light_gizmo_3
usemtl SURF_Crimson_Core
v 0 3.4300000470131637 0.3099999986588955
v 0.05196152254939079 3.4300000470131637 0.27999999932944775
v 0.05196152254939079 3.4300000470131637 0.22000000067055225
v 7.347880950074885e-18 3.4300000470131637 0.1900000013411045
v -0.05196152254939079 3.4300000470131637 0.22000000067055225
v -0.05196152254939079 3.4300000470131637 0.27999999932944775
v -1.469576190014977e-17 3.4300000470131637 0.3099999986588955
v 0 3.3700000483542683 0.3099999986588955
v 0.05196152254939079 3.3700000483542683 0.27999999932944775
v 0.05196152254939079 3.3700000483542683 0.22000000067055225
v 7.347880950074885e-18 3.3700000483542683 0.1900000013411045
v -0.05196152254939079 3.3700000483542683 0.22000000067055225
v -0.05196152254939079 3.3700000483542683 0.27999999932944775
v -1.469576190014977e-17 3.3700000483542683 0.3099999986588955
v 0 3.4300000470131637 0.25
v 0 3.4300000470131637 0.25
v 0 3.4300000470131637 0.25
v 0 3.4300000470131637 0.25
v 0 3.4300000470131637 0.25
v 0 3.4300000470131637 0.25
v 0 3.4300000470131637 0.3099999986588955
v 0.05196152254939079 3.4300000470131637 0.27999999932944775
v 0.05196152254939079 3.4300000470131637 0.22000000067055225
v 7.347880950074885e-18 3.4300000470131637 0.1900000013411045
v -0.05196152254939079 3.4300000470131637 0.22000000067055225
v -0.05196152254939079 3.4300000470131637 0.27999999932944775
v -1.469576190014977e-17 3.4300000470131637 0.3099999986588955
v 0 3.3700000483542683 0.25
v 0 3.3700000483542683 0.25
v 0 3.3700000483542683 0.25
v 0 3.3700000483542683 0.25
v 0 3.3700000483542683 0.25
v 0 3.3700000483542683 0.25
v 0 3.3700000483542683 0.3099999986588955
v 0.05196152254939079 3.3700000483542683 0.27999999932944775
v 0.05196152254939079 3.3700000483542683 0.22000000067055225
v 7.347880950074885e-18 3.3700000483542683 0.1900000013411045
v -0.05196152254939079 3.3700000483542683 0.22000000067055225
v -0.05196152254939079 3.3700000483542683 0.27999999932944775
v -1.469576190014977e-17 3.3700000483542683 0.3099999986588955
vt 0 1
vt 0.1666666716337204 1
vt 0.3333333432674408 1
vt 0.5 1
vt 0.6666666865348816 1
vt 0.8333333134651184 1
vt 1 1
vt 0 0
vt 0.1666666716337204 0
vt 0.3333333432674408 0
vt 0.5 0
vt 0.6666666865348816 0
vt 0.8333333134651184 0
vt 1 0
vt 0.5 0.5
vt 0.5 0.5
vt 0.5 0.5
vt 0.5 0.5
vt 0.5 0.5
vt 0.5 0.5
vt 1 0.5
vt 0.75 0.9330127239227295
vt 0.25 0.9330127239227295
vt 0 0.5
vt 0.25 0.0669872984290123
vt 0.75 0.0669872984290123
vt 1 0.5
vt 0.5 0.5
vt 0.5 0.5
vt 0.5 0.5
vt 0.5 0.5
vt 0.5 0.5
vt 0.5 0.5
vt 1 0.5
vt 0.75 0.0669872984290123
vt 0.25 0.0669872984290123
vt 0 0.5
vt 0.25 0.9330127239227295
vt 0.75 0.9330127239227295
vt 1 0.5
vn 0 0 1
vn 0.8660253998985324 0 0.5000000067305869
vn 0.8660253998985324 0 -0.5000000067305869
vn 1.2246468525851679e-16 0 -1
vn -0.8660253998985324 0 -0.5000000067305869
vn -0.8660253998985324 0 0.5000000067305869
vn -2.4492937051703357e-16 0 1
vn 0 0 1
vn 0.8660253998985324 0 0.5000000067305869
vn 0.8660253998985324 0 -0.5000000067305869
vn 1.2246468525851679e-16 0 -1
vn -0.8660253998985324 0 -0.5000000067305869
vn -0.8660253998985324 0 0.5000000067305869
vn -2.4492937051703357e-16 0 1
vn 0 1 0
vn 0 1 0
vn 0 1 0
vn 0 1 0
vn 0 1 0
vn 0 1 0
vn 0 1 0
vn 0 1 0
vn 0 1 0
vn 0 1 0
vn 0 1 0
vn 0 1 0
vn 0 1 0
vn 0 -1 0
vn 0 -1 0
vn 0 -1 0
vn 0 -1 0
vn 0 -1 0
vn 0 -1 0
vn 0 -1 0
vn 0 -1 0
vn 0 -1 0
vn 0 -1 0
vn 0 -1 0
vn 0 -1 0
vn 0 -1 0
f 217/217/217 224/224/224 218/218/218
f 224/224/224 225/225/225 218/218/218
f 218/218/218 225/225/225 219/219/219
f 225/225/225 226/226/226 219/219/219
f 219/219/219 226/226/226 220/220/220
f 226/226/226 227/227/227 220/220/220
f 220/220/220 227/227/227 221/221/221
f 227/227/227 228/228/228 221/221/221
f 221/221/221 228/228/228 222/222/222
f 228/228/228 229/229/229 222/222/222
f 222/222/222 229/229/229 223/223/223
f 229/229/229 230/230/230 223/223/223
f 237/237/237 238/238/238 231/231/231
f 238/238/238 239/239/239 232/232/232
f 239/239/239 240/240/240 233/233/233
f 240/240/240 241/241/241 234/234/234
f 241/241/241 242/242/242 235/235/235
f 242/242/242 243/243/243 236/236/236
f 251/251/251 250/250/250 244/244/244
f 252/252/252 251/251/251 245/245/245
f 253/253/253 252/252/252 246/246/246
f 254/254/254 253/253/253 247/247/247
f 255/255/255 254/254/254 248/248/248
f 256/256/256 255/255/255 249/249/249
o light_stem_3
usemtl SURF_Absence_Fog
v 0.009999999776482582 3.4000000953674316 0.2599999997764826
v 0.009999999776482582 3.4000000953674316 0.24000000022351742
v 0.009999999776482582 0 0.2599999997764826
v 0.009999999776482582 0 0.24000000022351742
v -0.009999999776482582 3.4000000953674316 0.24000000022351742
v -0.009999999776482582 3.4000000953674316 0.2599999997764826
v -0.009999999776482582 0 0.24000000022351742
v -0.009999999776482582 0 0.2599999997764826
v -0.009999999776482582 3.4000000953674316 0.24000000022351742
v 0.009999999776482582 3.4000000953674316 0.24000000022351742
v -0.009999999776482582 3.4000000953674316 0.2599999997764826
v 0.009999999776482582 3.4000000953674316 0.2599999997764826
v -0.009999999776482582 0 0.2599999997764826
v 0.009999999776482582 0 0.2599999997764826
v -0.009999999776482582 0 0.24000000022351742
v 0.009999999776482582 0 0.24000000022351742
v -0.009999999776482582 3.4000000953674316 0.2599999997764826
v 0.009999999776482582 3.4000000953674316 0.2599999997764826
v -0.009999999776482582 0 0.2599999997764826
v 0.009999999776482582 0 0.2599999997764826
v 0.009999999776482582 3.4000000953674316 0.24000000022351742
v -0.009999999776482582 3.4000000953674316 0.24000000022351742
v 0.009999999776482582 0 0.24000000022351742
v -0.009999999776482582 0 0.24000000022351742
vt 0 1
vt 1 1
vt 0 0
vt 1 0
vt 0 1
vt 1 1
vt 0 0
vt 1 0
vt 0 1
vt 1 1
vt 0 0
vt 1 0
vt 0 1
vt 1 1
vt 0 0
vt 1 0
vt 0 1
vt 1 1
vt 0 0
vt 1 0
vt 0 1
vt 1 1
vt 0 0
vt 1 0
vn 1 0 0
vn 1 0 0
vn 1 0 0
vn 1 0 0
vn -1 0 0
vn -1 0 0
vn -1 0 0
vn -1 0 0
vn 0 1 0
vn 0 1 0
vn 0 1 0
vn 0 1 0
vn 0 -1 0
vn 0 -1 0
vn 0 -1 0
vn 0 -1 0
vn 0 0 1
vn 0 0 1
vn 0 0 1
vn 0 0 1
vn 0 0 -1
vn 0 0 -1
vn 0 0 -1
vn 0 0 -1
f 257/257/257 259/259/259 258/258/258
f 259/259/259 260/260/260 258/258/258
f 261/261/261 263/263/263 262/262/262
f 263/263/263 264/264/264 262/262/262
f 265/265/265 267/267/267 266/266/266
f 267/267/267 268/268/268 266/266/266
f 269/269/269 271/271/271 270/270/270
f 271/271/271 272/272/272 270/270/270
f 273/273/273 275/275/275 274/274/274
f 275/275/275 276/276/276 274/274/274
f 277/277/277 279/279/279 278/278/278
f 279/279/279 280/280/280 278/278/278
