# ANM_P2_Rift_Shard_A — Rift shard
# SC_P2_SCHOOL · group D
# bounds 0.23 × 0.12 × 1.09 m · 24 tris · UV island 40 × 16 px
# 1 unit = 1 m · pivot at floor contact, X/Z centred
mtllib ANM_P2_Rift_Shard_A.mtl
o shard_body
usemtl SURF_Crimson_Core
v 0.005698024966838841 0.9078932131516543 0.05999999865889549
v 0.005698024966838841 0.9078932131516543 -0.05999999865889549
v 0.11343900867270483 0.014365464553577123 0.05999999865889549
v 0.11343900867270483 0.014365464553577123 -0.05999999865889549
v -0.11343900867270483 0.8935277485980772 -0.05999999865889549
v -0.11343900867270483 0.8935277485980772 0.05999999865889549
v -0.005698024966838841 0 -0.05999999865889549
v -0.005698024966838841 0 0.05999999865889549
v -0.11343900867270483 0.8935277485980772 -0.05999999865889549
v 0.005698024966838841 0.9078932131516543 -0.05999999865889549
v -0.11343900867270483 0.8935277485980772 0.05999999865889549
v 0.005698024966838841 0.9078932131516543 0.05999999865889549
v -0.005698024966838841 0 0.05999999865889549
v 0.11343900867270483 0.014365464553577123 0.05999999865889549
v -0.005698024966838841 0 -0.05999999865889549
v 0.11343900867270483 0.014365464553577123 -0.05999999865889549
v -0.11343900867270483 0.8935277485980772 0.05999999865889549
v 0.005698024966838841 0.9078932131516543 0.05999999865889549
v -0.005698024966838841 0 0.05999999865889549
v 0.11343900867270483 0.014365464553577123 0.05999999865889549
v 0.005698024966838841 0.9078932131516543 -0.05999999865889549
v -0.11343900867270483 0.8935277485980772 -0.05999999865889549
v 0.11343900867270483 0.014365464553577123 -0.05999999865889549
v -0.005698024966838841 0 -0.05999999865889549
vt 0 1
vt 1 1
vt 0 0
vt 1 0
vt 0 1
vt 1 1
vt 0 0
vt 1 0
vt 0 1
vt 1 1
vt 0 0
vt 1 0
vt 0 1
vt 1 1
vt 0 0
vt 1 0
vt 0 1
vt 1 1
vt 0 0
vt 1 0
vt 0 1
vt 1 1
vt 0 0
vt 1 0
vn 0.9928086358538663 0.11971220728891936 0
vn 0.9928086358538663 0.11971220728891936 0
vn 0.9928086358538663 0.11971220728891936 0
vn 0.9928086358538663 0.11971220728891936 0
vn -0.9928086358538663 -0.11971220728891936 0
vn -0.9928086358538663 -0.11971220728891936 0
vn -0.9928086358538663 -0.11971220728891936 0
vn -0.9928086358538663 -0.11971220728891936 0
vn -0.11971220728891936 0.9928086358538663 0
vn -0.11971220728891936 0.9928086358538663 0
vn -0.11971220728891936 0.9928086358538663 0
vn -0.11971220728891936 0.9928086358538663 0
vn 0.11971220728891936 -0.9928086358538663 0
vn 0.11971220728891936 -0.9928086358538663 0
vn 0.11971220728891936 -0.9928086358538663 0
vn 0.11971220728891936 -0.9928086358538663 0
vn 0 0 1
vn 0 0 1
vn 0 0 1
vn 0 0 1
vn 0 0 -1
vn 0 0 -1
vn 0 0 -1
vn 0 0 -1
f 1/1/1 3/3/3 2/2/2
f 3/3/3 4/4/4 2/2/2
f 5/5/5 7/7/7 6/6/6
f 7/7/7 8/8/8 6/6/6
f 9/9/9 11/11/11 10/10/10
f 11/11/11 12/12/12 10/10/10
f 13/13/13 15/15/15 14/14/14
f 15/15/15 16/16/16 14/14/14
f 17/17/17 19/19/19 18/18/18
f 19/19/19 20/20/20 18/18/18
f 21/21/21 23/23/23 22/22/22
f 23/23/23 24/24/24 22/22/22
o shard_tip
usemtl SURF_Energy_Shift
v 0.04556167751551672 1.0875146730786662 0.029999999329447746
v 0.04556167751551672 1.0875146730786662 -0.029999999329447746
v 0.09324231584058607 0.8522986996542552 0.029999999329447746
v 0.09324231584058607 0.8522986996542552 -0.029999999329447746
v -0.01324231584058607 1.075594513497399 -0.029999999329447746
v -0.01324231584058607 1.075594513497399 0.029999999329447746
v 0.03443832248448328 0.8403785400729878 -0.029999999329447746
v 0.03443832248448328 0.8403785400729878 0.029999999329447746
v -0.01324231584058607 1.075594513497399 -0.029999999329447746
v 0.04556167751551672 1.0875146730786662 -0.029999999329447746
v -0.01324231584058607 1.075594513497399 0.029999999329447746
v 0.04556167751551672 1.0875146730786662 0.029999999329447746
v 0.03443832248448328 0.8403785400729878 0.029999999329447746
v 0.09324231584058607 0.8522986996542552 0.029999999329447746
v 0.03443832248448328 0.8403785400729878 -0.029999999329447746
v 0.09324231584058607 0.8522986996542552 -0.029999999329447746
v -0.01324231584058607 1.075594513497399 0.029999999329447746
v 0.04556167751551672 1.0875146730786662 0.029999999329447746
v 0.03443832248448328 0.8403785400729878 0.029999999329447746
v 0.09324231584058607 0.8522986996542552 0.029999999329447746
v 0.04556167751551672 1.0875146730786662 -0.029999999329447746
v -0.01324231584058607 1.075594513497399 -0.029999999329447746
v 0.09324231584058607 0.8522986996542552 -0.029999999329447746
v 0.03443832248448328 0.8403785400729878 -0.029999999329447746
vt 0 1
vt 1 1
vt 0 0
vt 1 0
vt 0 1
vt 1 1
vt 0 0
vt 1 0
vt 0 1
vt 1 1
vt 0 0
vt 1 0
vt 0 1
vt 1 1
vt 0 0
vt 1 0
vt 0 1
vt 1 1
vt 0 0
vt 1 0
vt 0 1
vt 1 1
vt 0 0
vt 1 0
vn 0.9800665778412416 0.19866933079506124 0
vn 0.9800665778412416 0.19866933079506124 0
vn 0.9800665778412416 0.19866933079506124 0
vn 0.9800665778412416 0.19866933079506124 0
vn -0.9800665778412416 -0.19866933079506124 0
vn -0.9800665778412416 -0.19866933079506124 0
vn -0.9800665778412416 -0.19866933079506124 0
vn -0.9800665778412416 -0.19866933079506124 0
vn -0.19866933079506124 0.9800665778412416 0
vn -0.19866933079506124 0.9800665778412416 0
vn -0.19866933079506124 0.9800665778412416 0
vn -0.19866933079506124 0.9800665778412416 0
vn 0.19866933079506124 -0.9800665778412416 0
vn 0.19866933079506124 -0.9800665778412416 0
vn 0.19866933079506124 -0.9800665778412416 0
vn 0.19866933079506124 -0.9800665778412416 0
vn 0 0 1
vn 0 0 1
vn 0 0 1
vn 0 0 1
vn 0 0 -1
vn 0 0 -1
vn 0 0 -1
vn 0 0 -1
f 25/25/25 27/27/27 26/26/26
f 27/27/27 28/28/28 26/26/26
f 29/29/29 31/31/31 30/30/30
f 31/31/31 32/32/32 30/30/30
f 33/33/33 35/35/35 34/34/34
f 35/35/35 36/36/36 34/34/34
f 37/37/37 39/39/39 38/38/38
f 39/39/39 40/40/40 38/38/38
f 41/41/41 43/43/43 42/42/42
f 43/43/43 44/44/44 42/42/42
f 45/45/45 47/47/47 46/46/46
f 47/47/47 48/48/48 46/46/46
