# ANM_P2_Residue_Decal_A — Residue decal
# SC_P2_SCHOOL · group D
# bounds 1.51 × 1.12 × 0.01 m · 6 tris · UV island 56 × 56 px
# 1 unit = 1 m · pivot at floor contact, X/Z centred
mtllib ANM_P2_Residue_Decal_A.mtl
o stain_core
usemtl SURF_Crimson_Core
v -0.7539443820068368 0 -0.5586800032052452
v 0.6460555941513053 0 -0.5586800032052452
v -0.7539443820068368 2.220446049250313e-16 0.44131999679475503
v 0.6460555941513053 2.220446049250313e-16 0.44131999679475503
vt 0 1
vt 1 1
vt 0 0
vt 1 0
vn 0 1 -2.2204460492503126e-16
vn 0 1 -2.2204460492503126e-16
vn 0 1 -2.2204460492503126e-16
vn 0 1 -2.2204460492503126e-16
f 1/1/1 3/3/3 2/2/2
f 3/3/3 4/4/4 2/2/2
o stain_run
usemtl SURF_Crimson_Core
v 0.13816683013763192 0.003000000000000111 -0.09888088458972469
v 0.5139159208756812 0.003000000000000111 -0.23604000961573537
v 0.3781952912687875 0.003000000000000111 0.5586800032052452
v 0.7539443820068368 0.003000000000000111 0.42152087817923456
vt 0 1
vt 1 1
vt 0 0
vt 1 0
vn 0 1 0
vn 0 1 0
vn 0 1 0
vn 0 1 0
f 5/5/5 7/7/7 6/6/6
f 7/7/7 8/8/8 6/6/6
o stain_spatter
usemtl SURF_Crimson_Core
v -0.6639443933317193 0.006000000000000086 -0.4686800026091986
v -0.4439443945238122 0.006000000000000086 -0.4686800026091986
v -0.6639443933317193 0.0060000000000001346 -0.2486800038012915
v -0.4439443945238122 0.0060000000000001346 -0.2486800038012915
vt 0 1
vt 1 1
vt 0 0
vt 1 0
vn 0 1 -2.2204460492503126e-16
vn 0 1 -2.2204460492503126e-16
vn 0 1 -2.2204460492503126e-16
vn 0 1 -2.2204460492503126e-16
f 9/9/9 11/11/11 10/10/10
f 11/11/11 12/12/12 10/10/10
