# ANM_P2_Crack_Core_A — The Crack — core ★
# SC_P2_SCHOOL · group D
# bounds 3.08 × 0.33 × 4.00 m · 84 tris · UV island 128 × 128 px
# 1 unit = 1 m · pivot at floor contact, X/Z centred
mtllib ANM_P2_Crack_Core_A.mtl
o core_spine
usemtl SURF_Crimson_Core
v 0.2100306418944431 4 0.16500000230967998
v 0.2100306418944431 4 -0.13500000961124897
v 0.2100306418944431 0 0.16500000230967998
v 0.2100306418944431 0 -0.13500000961124897
v -0.08996937002648586 4 -0.13500000961124897
v -0.08996937002648586 4 0.16500000230967998
v -0.08996937002648586 0 -0.13500000961124897
v -0.08996937002648586 0 0.16500000230967998
v -0.08996937002648586 4 -0.13500000961124897
v 0.2100306418944431 4 -0.13500000961124897
v -0.08996937002648586 4 0.16500000230967998
v 0.2100306418944431 4 0.16500000230967998
v -0.08996937002648586 0 0.16500000230967998
v 0.2100306418944431 0 0.16500000230967998
v -0.08996937002648586 0 -0.13500000961124897
v 0.2100306418944431 0 -0.13500000961124897
v -0.08996937002648586 4 0.16500000230967998
v 0.2100306418944431 4 0.16500000230967998
v -0.08996937002648586 0 0.16500000230967998
v 0.2100306418944431 0 0.16500000230967998
v 0.2100306418944431 4 -0.13500000961124897
v -0.08996937002648586 4 -0.13500000961124897
v 0.2100306418944431 0 -0.13500000961124897
v -0.08996937002648586 0 -0.13500000961124897
vt 0 1
vt 1 1
vt 0 0
vt 1 0
vt 0 1
vt 1 1
vt 0 0
vt 1 0
vt 0 1
vt 1 1
vt 0 0
vt 1 0
vt 0 1
vt 1 1
vt 0 0
vt 1 0
vt 0 1
vt 1 1
vt 0 0
vt 1 0
vt 0 1
vt 1 1
vt 0 0
vt 1 0
vn 1 0 0
vn 1 0 0
vn 1 0 0
vn 1 0 0
vn -1 0 0
vn -1 0 0
vn -1 0 0
vn -1 0 0
vn 0 1 0
vn 0 1 0
vn 0 1 0
vn 0 1 0
vn 0 -1 0
vn 0 -1 0
vn 0 -1 0
vn 0 -1 0
vn 0 0 1
vn 0 0 1
vn 0 0 1
vn 0 0 1
vn 0 0 -1
vn 0 0 -1
vn 0 0 -1
vn 0 0 -1
f 1/1/1 3/3/3 2/2/2
f 3/3/3 4/4/4 2/2/2
f 5/5/5 7/7/7 6/6/6
f 7/7/7 8/8/8 6/6/6
f 9/9/9 11/11/11 10/10/10
f 11/11/11 12/12/12 10/10/10
f 13/13/13 15/15/15 14/14/14
f 15/15/15 16/16/16 14/14/14
f 17/17/17 19/19/19 18/18/18
f 19/19/19 20/20/20 18/18/18
f 21/21/21 23/23/23 22/22/22
f 23/23/23 24/24/24 22/22/22
o branch_upper_l
usemtl SURF_Crimson_Core
v -0.07839839016506223 3.6321319525926055 0.12499999575316906
v -0.07839839016506223 3.6321319525926055 -0.09500000305473805
v 0.027075227756342635 3.4390637900228835 0.12499999575316906
v 0.027075227756342635 3.4390637900228835 -0.09500000305473805
v -1.3070139558883853 2.960936209977117 -0.09500000305473805
v -1.3070139558883853 2.960936209977117 0.12499999575316906
v -1.2015403379669805 2.767868047407395 -0.09500000305473805
v -1.2015403379669805 2.767868047407395 0.12499999575316906
v -1.3070139558883853 2.960936209977117 -0.09500000305473805
v -0.07839839016506223 3.6321319525926055 -0.09500000305473805
v -1.3070139558883853 2.960936209977117 0.12499999575316906
v -0.07839839016506223 3.6321319525926055 0.12499999575316906
v -1.2015403379669805 2.767868047407395 0.12499999575316906
v 0.027075227756342635 3.4390637900228835 0.12499999575316906
v -1.2015403379669805 2.767868047407395 -0.09500000305473805
v 0.027075227756342635 3.4390637900228835 -0.09500000305473805
v -1.3070139558883853 2.960936209977117 0.12499999575316906
v -0.07839839016506223 3.6321319525926055 0.12499999575316906
v -1.2015403379669805 2.767868047407395 0.12499999575316906
v 0.027075227756342635 3.4390637900228835 0.12499999575316906
v -0.07839839016506223 3.6321319525926055 -0.09500000305473805
v -1.3070139558883853 2.960936209977117 -0.09500000305473805
v 0.027075227756342635 3.4390637900228835 -0.09500000305473805
v -1.2015403379669805 2.767868047407395 -0.09500000305473805
vt 0 1
vt 1 1
vt 0 0
vt 1 0
vt 0 1
vt 1 1
vt 0 0
vt 1 0
vt 0 1
vt 1 1
vt 0 0
vt 1 0
vt 0 1
vt 1 1
vt 0 0
vt 1 0
vt 0 1
vt 1 1
vt 0 0
vt 1 0
vt 0 1
vt 1 1
vt 0 0
vt 1 0
vn 0.8775825618903728 0.479425538604203 0
vn 0.8775825618903728 0.479425538604203 0
vn 0.8775825618903728 0.479425538604203 0
vn 0.8775825618903728 0.479425538604203 0
vn -0.8775825618903728 -0.479425538604203 0
vn -0.8775825618903728 -0.479425538604203 0
vn -0.8775825618903728 -0.479425538604203 0
vn -0.8775825618903728 -0.479425538604203 0
vn -0.479425538604203 0.8775825618903728 0
vn -0.479425538604203 0.8775825618903728 0
vn -0.479425538604203 0.8775825618903728 0
vn -0.479425538604203 0.8775825618903728 0
vn 0.479425538604203 -0.8775825618903728 0
vn 0.479425538604203 -0.8775825618903728 0
vn 0.479425538604203 -0.8775825618903728 0
vn 0.479425538604203 -0.8775825618903728 0
vn 0 0 1
vn 0 0 1
vn 0 0 1
vn 0 0 1
vn 0 0 -1
vn 0 0 -1
vn 0 0 -1
vn 0 0 -1
f 25/25/25 27/27/27 26/26/26
f 27/27/27 28/28/28 26/26/26
f 29/29/29 31/31/31 30/30/30
f 31/31/31 32/32/32 30/30/30
f 33/33/33 35/35/35 34/34/34
f 35/35/35 36/36/36 34/34/34
f 37/37/37 39/39/39 38/38/38
f 39/39/39 40/40/40 38/38/38
f 41/41/41 43/43/43 42/42/42
f 43/43/43 44/44/44 42/42/42
f 45/45/45 47/47/47 46/46/46
f 47/47/47 48/48/48 46/46/46
o branch_upper_r
usemtl SURF_Crimson_Core
v 1.2616962727382064 2.443748065221667 0.1649999978393316
v 1.2616962727382064 2.443748065221667 -0.03500000514090061
v 1.1487677763764337 2.2786809397800396 0.1649999978393316
v 1.1487677763764337 2.2786809397800396 -0.03500000514090061
v 0.27129349549152354 3.1213190602199608 -0.03500000514090061
v 0.27129349549152354 3.1213190602199608 0.1649999978393316
v 0.15836499912975077 2.9562519347783334 -0.03500000514090061
v 0.15836499912975077 2.9562519347783334 0.1649999978393316
v 0.27129349549152354 3.1213190602199608 -0.03500000514090061
v 1.2616962727382064 2.443748065221667 -0.03500000514090061
v 0.27129349549152354 3.1213190602199608 0.1649999978393316
v 1.2616962727382064 2.443748065221667 0.1649999978393316
v 0.15836499912975077 2.9562519347783334 0.1649999978393316
v 1.1487677763764337 2.2786809397800396 0.1649999978393316
v 0.15836499912975077 2.9562519347783334 -0.03500000514090061
v 1.1487677763764337 2.2786809397800396 -0.03500000514090061
v 0.27129349549152354 3.1213190602199608 0.1649999978393316
v 1.2616962727382064 2.443748065221667 0.1649999978393316
v 0.15836499912975077 2.9562519347783334 0.1649999978393316
v 1.1487677763764337 2.2786809397800396 0.1649999978393316
v 1.2616962727382064 2.443748065221667 -0.03500000514090061
v 0.27129349549152354 3.1213190602199608 -0.03500000514090061
v 1.1487677763764337 2.2786809397800396 -0.03500000514090061
v 0.15836499912975077 2.9562519347783334 -0.03500000514090061
vt 0 1
vt 1 1
vt 0 0
vt 1 0
vt 0 1
vt 1 1
vt 0 0
vt 1 0
vt 0 1
vt 1 1
vt 0 0
vt 1 0
vt 0 1
vt 1 1
vt 0 0
vt 1 0
vt 0 1
vt 1 1
vt 0 0
vt 1 0
vt 0 1
vt 1 1
vt 0 0
vt 1 0
vn 0.8253356149096783 -0.5646424733950353 0
vn 0.8253356149096783 -0.5646424733950353 0
vn 0.8253356149096783 -0.5646424733950353 0
vn 0.8253356149096783 -0.5646424733950353 0
vn -0.8253356149096783 0.5646424733950353 0
vn -0.8253356149096783 0.5646424733950353 0
vn -0.8253356149096783 0.5646424733950353 0
vn -0.8253356149096783 0.5646424733950353 0
vn 0.5646424733950353 0.8253356149096783 0
vn 0.5646424733950353 0.8253356149096783 0
vn 0.5646424733950353 0.8253356149096783 0
vn 0.5646424733950353 0.8253356149096783 0
vn -0.5646424733950353 -0.8253356149096783 0
vn -0.5646424733950353 -0.8253356149096783 0
vn -0.5646424733950353 -0.8253356149096783 0
vn -0.5646424733950353 -0.8253356149096783 0
vn 0 0 1
vn 0 0 1
vn 0 0 1
vn 0 0 1
vn 0 0 -1
vn 0 0 -1
vn 0 0 -1
vn 0 0 -1
f 49/49/49 51/51/51 50/50/50
f 51/51/51 52/52/52 50/50/50
f 53/53/53 55/55/55 54/54/54
f 55/55/55 56/56/56 54/54/54
f 57/57/57 59/59/59 58/58/58
f 59/59/59 60/60/60 58/58/58
f 61/61/61 63/63/63 62/62/62
f 63/63/63 64/64/64 62/62/62
f 65/65/65 67/67/67 66/66/66
f 67/67/67 68/68/68 66/66/66
f 69/69/69 71/71/71 70/70/70
f 71/71/71 72/72/72 70/70/70
o branch_mid_l
usemtl SURF_Crimson_Core
v 0.059762262629675544 1.7782242072807135 0.08499999366700649
v 0.059762262629675544 1.7782242072807135 -0.15500000096857547
v -0.011162585383751922 1.5489434550153924 0.08499999366700649
v -0.011162585383751922 1.5489434550153924 -0.15500000096857547
v -1.468776142748291 2.2510565449846074 -0.15500000096857547
v -1.468776142748291 2.2510565449846074 0.08499999366700649
v -1.5397009907617183 2.0217757927192865 -0.15500000096857547
v -1.5397009907617183 2.0217757927192865 0.08499999366700649
v -1.468776142748291 2.2510565449846074 -0.15500000096857547
v 0.059762262629675544 1.7782242072807135 -0.15500000096857547
v -1.468776142748291 2.2510565449846074 0.08499999366700649
v 0.059762262629675544 1.7782242072807135 0.08499999366700649
v -1.5397009907617183 2.0217757927192865 0.08499999366700649
v -0.011162585383751922 1.5489434550153924 0.08499999366700649
v -1.5397009907617183 2.0217757927192865 -0.15500000096857547
v -0.011162585383751922 1.5489434550153924 -0.15500000096857547
v -1.468776142748291 2.2510565449846074 0.08499999366700649
v 0.059762262629675544 1.7782242072807135 0.08499999366700649
v -1.5397009907617183 2.0217757927192865 0.08499999366700649
v -0.011162585383751922 1.5489434550153924 0.08499999366700649
v 0.059762262629675544 1.7782242072807135 -0.15500000096857547
v -1.468776142748291 2.2510565449846074 -0.15500000096857547
v -0.011162585383751922 1.5489434550153924 -0.15500000096857547
v -1.5397009907617183 2.0217757927192865 -0.15500000096857547
vt 0 1
vt 1 1
vt 0 0
vt 1 0
vt 0 1
vt 1 1
vt 0 0
vt 1 0
vt 0 1
vt 1 1
vt 0 0
vt 1 0
vt 0 1
vt 1 1
vt 0 0
vt 1 0
vt 0 1
vt 1 1
vt 0 0
vt 1 0
vt 0 1
vt 1 1
vt 0 0
vt 1 0
vn 0.955336489125606 -0.29552020666133955 0
vn 0.955336489125606 -0.29552020666133955 0
vn 0.955336489125606 -0.29552020666133955 0
vn 0.955336489125606 -0.29552020666133955 0
vn -0.955336489125606 0.29552020666133955 0
vn -0.955336489125606 0.29552020666133955 0
vn -0.955336489125606 0.29552020666133955 0
vn -0.955336489125606 0.29552020666133955 0
vn 0.29552020666133955 0.955336489125606 0
vn 0.29552020666133955 0.955336489125606 0
vn 0.29552020666133955 0.955336489125606 0
vn 0.29552020666133955 0.955336489125606 0
vn -0.29552020666133955 -0.955336489125606 0
vn -0.29552020666133955 -0.955336489125606 0
vn -0.29552020666133955 -0.955336489125606 0
vn -0.29552020666133955 -0.955336489125606 0
vn 0 0 1
vn 0 0 1
vn 0 0 1
vn 0 0 1
vn 0 0 -1
vn 0 0 -1
vn 0 0 -1
vn 0 0 -1
f 73/73/73 75/75/75 74/74/74
f 75/75/75 76/76/76 74/74/74
f 77/77/77 79/79/79 78/78/78
f 79/79/79 80/80/80 78/78/78
f 81/81/81 83/83/83 82/82/82
f 83/83/83 84/84/84 82/82/82
f 85/85/85 87/87/87 86/86/86
f 87/87/87 88/88/88 86/86/86
f 89/89/89 91/91/91 90/90/90
f 91/91/91 92/92/92 90/90/90
f 93/93/93 95/95/95 94/94/94
f 95/95/95 96/96/96 94/94/94
o branch_mid_r
usemtl SURF_Crimson_Core
v 1.4499936915747011 1.806260122684788 0.16499999575316907
v 1.4499936915747011 1.806260122684788 -0.055000003054738046
v 1.5397009907617183 1.605380556904567 0.16499999575316907
v 1.5397009907617183 1.605380556904567 -0.055000003054738046
v 0.08036028110623883 1.1946194430954329 -0.055000003054738046
v 0.08036028110623883 1.1946194430954329 0.16499999575316907
v 0.17006758029325597 0.9937398773152119 -0.055000003054738046
v 0.17006758029325597 0.9937398773152119 0.16499999575316907
v 0.08036028110623883 1.1946194430954329 -0.055000003054738046
v 1.4499936915747011 1.806260122684788 -0.055000003054738046
v 0.08036028110623883 1.1946194430954329 0.16499999575316907
v 1.4499936915747011 1.806260122684788 0.16499999575316907
v 0.17006758029325597 0.9937398773152119 0.16499999575316907
v 1.5397009907617183 1.605380556904567 0.16499999575316907
v 0.17006758029325597 0.9937398773152119 -0.055000003054738046
v 1.5397009907617183 1.605380556904567 -0.055000003054738046
v 0.08036028110623883 1.1946194430954329 0.16499999575316907
v 1.4499936915747011 1.806260122684788 0.16499999575316907
v 0.17006758029325597 0.9937398773152119 0.16499999575316907
v 1.5397009907617183 1.605380556904567 0.16499999575316907
v 1.4499936915747011 1.806260122684788 -0.055000003054738046
v 0.08036028110623883 1.1946194430954329 -0.055000003054738046
v 1.5397009907617183 1.605380556904567 -0.055000003054738046
v 0.17006758029325597 0.9937398773152119 -0.055000003054738046
vt 0 1
vt 1 1
vt 0 0
vt 1 0
vt 0 1
vt 1 1
vt 0 0
vt 1 0
vt 0 1
vt 1 1
vt 0 0
vt 1 0
vt 0 1
vt 1 1
vt 0 0
vt 1 0
vt 0 1
vt 1 1
vt 0 0
vt 1 0
vt 0 1
vt 1 1
vt 0 0
vt 1 0
vn 0.9130889403123083 0.40776045305957015 0
vn 0.9130889403123083 0.40776045305957015 0
vn 0.9130889403123083 0.40776045305957015 0
vn 0.9130889403123083 0.40776045305957015 0
vn -0.9130889403123083 -0.40776045305957015 0
vn -0.9130889403123083 -0.40776045305957015 0
vn -0.9130889403123083 -0.40776045305957015 0
vn -0.9130889403123083 -0.40776045305957015 0
vn -0.40776045305957015 0.9130889403123083 0
vn -0.40776045305957015 0.9130889403123083 0
vn -0.40776045305957015 0.9130889403123083 0
vn -0.40776045305957015 0.9130889403123083 0
vn 0.40776045305957015 -0.9130889403123083 0
vn 0.40776045305957015 -0.9130889403123083 0
vn 0.40776045305957015 -0.9130889403123083 0
vn 0.40776045305957015 -0.9130889403123083 0
vn 0 0 1
vn 0 0 1
vn 0 0 1
vn 0 0 1
vn 0 0 -1
vn 0 0 -1
vn 0 0 -1
vn 0 0 -1
f 97/97/97 99/99/99 98/98/98
f 99/99/99 100/100/100 98/98/98
f 101/101/101 103/103/103 102/102/102
f 103/103/103 104/104/104 102/102/102
f 105/105/105 107/107/107 106/106/106
f 107/107/107 108/108/108 106/106/106
f 109/109/109 111/111/111 110/110/110
f 111/111/111 112/112/112 110/110/110
f 113/113/113 115/115/115 114/114/114
f 115/115/115 116/116/116 114/114/114
f 117/117/117 119/119/119 118/118/118
f 119/119/119 120/120/120 118/118/118
o branch_low
usemtl SURF_Crimson_Core
v -0.07728574609721761 1.0231555352512962 0.10499999992549419
v -0.07728574609721761 1.0231555352512962 -0.07500000722706318
v 0.03867344221337077 0.8854839360695106 0.10499999992549419
v 0.03867344221337077 0.8854839360695106 -0.07500000722706318
v -0.9186121703454135 0.31451606393048936 -0.07500000722706318
v -0.9186121703454135 0.31451606393048936 0.10499999992549419
v -0.8026529820348252 0.17684446474870386 -0.07500000722706318
v -0.8026529820348252 0.17684446474870386 0.10499999992549419
v -0.9186121703454135 0.31451606393048936 -0.07500000722706318
v -0.07728574609721761 1.0231555352512962 -0.07500000722706318
v -0.9186121703454135 0.31451606393048936 0.10499999992549419
v -0.07728574609721761 1.0231555352512962 0.10499999992549419
v -0.8026529820348252 0.17684446474870386 0.10499999992549419
v 0.03867344221337077 0.8854839360695106 0.10499999992549419
v -0.8026529820348252 0.17684446474870386 -0.07500000722706318
v 0.03867344221337077 0.8854839360695106 -0.07500000722706318
v -0.9186121703454135 0.31451606393048936 0.10499999992549419
v -0.07728574609721761 1.0231555352512962 0.10499999992549419
v -0.8026529820348252 0.17684446474870386 0.10499999992549419
v 0.03867344221337077 0.8854839360695106 0.10499999992549419
v -0.07728574609721761 1.0231555352512962 -0.07500000722706318
v -0.9186121703454135 0.31451606393048936 -0.07500000722706318
v 0.03867344221337077 0.8854839360695106 -0.07500000722706318
v -0.8026529820348252 0.17684446474870386 -0.07500000722706318
vt 0 1
vt 1 1
vt 0 0
vt 1 0
vt 0 1
vt 1 1
vt 0 0
vt 1 0
vt 0 1
vt 1 1
vt 0 0
vt 1 0
vt 0 1
vt 1 1
vt 0 0
vt 1 0
vt 0 1
vt 1 1
vt 0 0
vt 1 0
vt 0 1
vt 1 1
vt 0 0
vt 1 0
vn 0.7648421872844884 0.644217687237691 0
vn 0.7648421872844884 0.644217687237691 0
vn 0.7648421872844884 0.644217687237691 0
vn 0.7648421872844884 0.644217687237691 0
vn -0.7648421872844884 -0.644217687237691 0
vn -0.7648421872844884 -0.644217687237691 0
vn -0.7648421872844884 -0.644217687237691 0
vn -0.7648421872844884 -0.644217687237691 0
vn -0.644217687237691 0.7648421872844884 0
vn -0.644217687237691 0.7648421872844884 0
vn -0.644217687237691 0.7648421872844884 0
vn -0.644217687237691 0.7648421872844884 0
vn 0.644217687237691 -0.7648421872844884 0
vn 0.644217687237691 -0.7648421872844884 0
vn 0.644217687237691 -0.7648421872844884 0
vn 0.644217687237691 -0.7648421872844884 0
vn 0 0 1
vn 0 0 1
vn 0 0 1
vn 0 0 1
vn 0 0 -1
vn 0 0 -1
vn 0 0 -1
vn 0 0 -1
f 121/121/121 123/123/123 122/122/122
f 123/123/123 124/124/124 122/122/122
f 125/125/125 127/127/127 126/126/126
f 127/127/127 128/128/128 126/126/126
f 129/129/129 131/131/131 130/130/130
f 131/131/131 132/132/132 130/130/130
f 133/133/133 135/135/135 134/134/134
f 135/135/135 136/136/136 134/134/134
f 137/137/137 139/139/139 138/138/138
f 139/139/139 140/140/140 138/138/138
f 141/141/141 143/143/143 142/142/142
f 143/143/143 144/144/144 142/142/142
o mouth_void
usemtl SURF_Absence_Fog
v 0.5100306240130497 2.6000000119209288 -0.045000004991889
v 0.5100306240130497 2.6000000119209288 -0.16500000230967998
v 0.5100306240130497 0.9999999880790711 -0.045000004991889
v 0.5100306240130497 0.9999999880790711 -0.16500000230967998
v -0.38996935214509243 2.6000000119209288 -0.16500000230967998
v -0.38996935214509243 2.6000000119209288 -0.045000004991889
v -0.38996935214509243 0.9999999880790711 -0.16500000230967998
v -0.38996935214509243 0.9999999880790711 -0.045000004991889
v -0.38996935214509243 2.6000000119209288 -0.16500000230967998
v 0.5100306240130497 2.6000000119209288 -0.16500000230967998
v -0.38996935214509243 2.6000000119209288 -0.045000004991889
v 0.5100306240130497 2.6000000119209288 -0.045000004991889
v -0.38996935214509243 0.9999999880790711 -0.045000004991889
v 0.5100306240130497 0.9999999880790711 -0.045000004991889
v -0.38996935214509243 0.9999999880790711 -0.16500000230967998
v 0.5100306240130497 0.9999999880790711 -0.16500000230967998
v -0.38996935214509243 2.6000000119209288 -0.045000004991889
v 0.5100306240130497 2.6000000119209288 -0.045000004991889
v -0.38996935214509243 0.9999999880790711 -0.045000004991889
v 0.5100306240130497 0.9999999880790711 -0.045000004991889
v 0.5100306240130497 2.6000000119209288 -0.16500000230967998
v -0.38996935214509243 2.6000000119209288 -0.16500000230967998
v 0.5100306240130497 0.9999999880790711 -0.16500000230967998
v -0.38996935214509243 0.9999999880790711 -0.16500000230967998
vt 0 1
vt 1 1
vt 0 0
vt 1 0
vt 0 1
vt 1 1
vt 0 0
vt 1 0
vt 0 1
vt 1 1
vt 0 0
vt 1 0
vt 0 1
vt 1 1
vt 0 0
vt 1 0
vt 0 1
vt 1 1
vt 0 0
vt 1 0
vt 0 1
vt 1 1
vt 0 0
vt 1 0
vn 1 0 0
vn 1 0 0
vn 1 0 0
vn 1 0 0
vn -1 0 0
vn -1 0 0
vn -1 0 0
vn -1 0 0
vn 0 1 0
vn 0 1 0
vn 0 1 0
vn 0 1 0
vn 0 -1 0
vn 0 -1 0
vn 0 -1 0
vn 0 -1 0
vn 0 0 1
vn 0 0 1
vn 0 0 1
vn 0 0 1
vn 0 0 -1
vn 0 0 -1
vn 0 0 -1
vn 0 0 -1
f 145/145/145 147/147/147 146/146/146
f 147/147/147 148/148/148 146/146/146
f 149/149/149 151/151/151 150/150/150
f 151/151/151 152/152/152 150/150/150
f 153/153/153 155/155/155 154/154/154
f 155/155/155 156/156/156 154/154/154
f 157/157/157 159/159/159 158/158/158
f 159/159/159 160/160/160 158/158/158
f 161/161/161 163/163/163 162/162/162
f 163/163/163 164/164/164 162/162/162
f 165/165/165 167/167/167 166/166/166
f 167/167/167 168/168/168 166/166/166
