# PRP_P2_Flyer_Scrap_A — Flyer scrap
# SC_P2_SCHOOL · group B
# bounds 0.22 × 0.31 × 0.00 m · 4 tris · UV island 16 × 8 px
# 1 unit = 1 m · pivot at floor contact, X/Z centred
mtllib PRP_P2_Flyer_Scrap_A.mtl
o sheet
usemtl SURF_Paper_Worn
v -0.10865118999258772 8.673485030986027e-20 -0.15450165363540624
v 0.10134880345090136 8.673485030986027e-20 -0.15450165363540624
v -0.10865118999258772 6.670011897479721e-17 0.14549835828552277
v 0.10134880345090136 6.670011897479721e-17 0.14549835828552277
vt 0 1
vt 1 1
vt 0 0
vt 1 0
vn 0 1 -2.2204460492503126e-16
vn 0 1 -2.2204460492503126e-16
vn 0 1 -2.2204460492503126e-16
vn 0 1 -2.2204460492503126e-16
f 1/1/1 3/3/3 2/2/2
f 3/3/3 4/4/4 2/2/2
o torn_corner
usemtl SURF_Paper_Worn
v 0.02404642346572594 0.0030000000000000335 0.09718146556907595
v 0.09091997798923082 0.0030000000000000335 0.0764950510147103
v 0.041777635469082836 0.0030000000000000335 0.15450165363540624
v 0.10865118999258772 0.0030000000000000335 0.1338152390810406
vt 0 1
vt 1 1
vt 0 0
vt 1 0
vn 0 1 0
vn 0 1 0
vn 0 1 0
vn 0 1 0
f 5/5/5 7/7/7 6/6/6
f 7/7/7 8/8/8 6/6/6
