# PRP_P2_Umbrella_Stand_A — Umbrella stand
# SC_P2_SCHOOL · group B
# bounds 0.36 × 0.36 × 0.90 m · 112 tris · UV island 40 × 40 px
# 1 unit = 1 m · pivot at floor contact, X/Z centred
mtllib PRP_P2_Umbrella_Stand_A.mtl
o body
usemtl SURF_Pipe_Matte
v 0 0.6600000262260437 0.17000000178813934
v 0.12020815163850784 0.6600000262260437 0.12020815163850784
v 0.17000000178813934 0.6600000262260437 1.0409498081537804e-17
v 0.12020815163850784 0.6600000262260437 -0.12020815163850784
v 2.081899616307561e-17 0.6600000262260437 -0.17000000178813934
v -0.12020815163850784 0.6600000262260437 -0.12020815163850784
v -0.17000000178813934 0.6600000262260437 -3.12284934174328e-17
v -0.12020815163850784 0.6600000262260437 0.12020815163850784
v -4.163799232615122e-17 0.6600000262260437 0.17000000178813934
v 0 0 0.17000000178813934
v 0.12020815163850784 0 0.12020815163850784
v 0.17000000178813934 0 1.0409498081537804e-17
v 0.12020815163850784 0 -0.12020815163850784
v 2.081899616307561e-17 0 -0.17000000178813934
v -0.12020815163850784 0 -0.12020815163850784
v -0.17000000178813934 0 -3.12284934174328e-17
v -0.12020815163850784 0 0.12020815163850784
v -4.163799232615122e-17 0 0.17000000178813934
v 0 0.6600000262260437 0
v 0 0.6600000262260437 0
v 0 0.6600000262260437 0
v 0 0.6600000262260437 0
v 0 0.6600000262260437 0
v 0 0.6600000262260437 0
v 0 0.6600000262260437 0
v 0 0.6600000262260437 0
v 0 0.6600000262260437 0.17000000178813934
v 0.12020815163850784 0.6600000262260437 0.12020815163850784
v 0.17000000178813934 0.6600000262260437 1.0409498081537804e-17
v 0.12020815163850784 0.6600000262260437 -0.12020815163850784
v 2.081899616307561e-17 0.6600000262260437 -0.17000000178813934
v -0.12020815163850784 0.6600000262260437 -0.12020815163850784
v -0.17000000178813934 0.6600000262260437 -3.12284934174328e-17
v -0.12020815163850784 0.6600000262260437 0.12020815163850784
v -4.163799232615122e-17 0.6600000262260437 0.17000000178813934
v 0 0 0
v 0 0 0
v 0 0 0
v 0 0 0
v 0 0 0
v 0 0 0
v 0 0 0
v 0 0 0
v 0 0 0.17000000178813934
v 0.12020815163850784 0 0.12020815163850784
v 0.17000000178813934 0 1.0409498081537804e-17
v 0.12020815163850784 0 -0.12020815163850784
v 2.081899616307561e-17 0 -0.17000000178813934
v -0.12020815163850784 0 -0.12020815163850784
v -0.17000000178813934 0 -3.12284934174328e-17
v -0.12020815163850784 0 0.12020815163850784
v -4.163799232615122e-17 0 0.17000000178813934
vt 0 1
vt 0.125 1
vt 0.25 1
vt 0.375 1
vt 0.5 1
vt 0.625 1
vt 0.75 1
vt 0.875 1
vt 1 1
vt 0 0
vt 0.125 0
vt 0.25 0
vt 0.375 0
vt 0.5 0
vt 0.625 0
vt 0.75 0
vt 0.875 0
vt 1 0
vt 0.5 0.5
vt 0.5 0.5
vt 0.5 0.5
vt 0.5 0.5
vt 0.5 0.5
vt 0.5 0.5
vt 0.5 0.5
vt 0.5 0.5
vt 1 0.5
vt 0.8535534143447876 0.8535534143447876
vt 0.5 1
vt 0.1464466154575348 0.8535534143447876
vt 0 0.5
vt 0.1464466154575348 0.1464466154575348
vt 0.5 0
vt 0.8535534143447876 0.1464466154575348
vt 1 0.5
vt 0.5 0.5
vt 0.5 0.5
vt 0.5 0.5
vt 0.5 0.5
vt 0.5 0.5
vt 0.5 0.5
vt 0.5 0.5
vt 0.5 0.5
vt 1 0.5
vt 0.8535534143447876 0.1464466154575348
vt 0.5 0
vt 0.1464466154575348 0.1464466154575348
vt 0 0.5
vt 0.1464466154575348 0.8535534143447876
vt 0.5 1
vt 0.8535534143447876 0.8535534143447876
vt 1 0.5
vn 0 0 1
vn 0.7071067811865476 0 0.7071067811865476
vn 1 0 6.123234262925839e-17
vn 0.7071067811865476 0 -0.7071067811865476
vn 1.2246468525851679e-16 0 -1
vn -0.7071067811865476 0 -0.7071067811865476
vn -1 0 -1.8369701465288538e-16
vn -0.7071067811865476 0 0.7071067811865476
vn -2.4492937051703357e-16 0 1
vn 0 0 1
vn 0.7071067811865476 0 0.7071067811865476
vn 1 0 6.123234262925839e-17
vn 0.7071067811865476 0 -0.7071067811865476
vn 1.2246468525851679e-16 0 -1
vn -0.7071067811865476 0 -0.7071067811865476
vn -1 0 -1.8369701465288538e-16
vn -0.7071067811865476 0 0.7071067811865476
vn -2.4492937051703357e-16 0 1
vn 0 1 0
vn 0 1 0
vn 0 1 0
vn 0 1 0
vn 0 1 0
vn 0 1 0
vn 0 1 0
vn 0 1 0
vn 0 1 0
vn 0 1 0
vn 0 1 0
vn 0 1 0
vn 0 1 0
vn 0 1 0
vn 0 1 0
vn 0 1 0
vn 0 1 0
vn 0 -1 0
vn 0 -1 0
vn 0 -1 0
vn 0 -1 0
vn 0 -1 0
vn 0 -1 0
vn 0 -1 0
vn 0 -1 0
vn 0 -1 0
vn 0 -1 0
vn 0 -1 0
vn 0 -1 0
vn 0 -1 0
vn 0 -1 0
vn 0 -1 0
vn 0 -1 0
vn 0 -1 0
f 1/1/1 10/10/10 2/2/2
f 10/10/10 11/11/11 2/2/2
f 2/2/2 11/11/11 3/3/3
f 11/11/11 12/12/12 3/3/3
f 3/3/3 12/12/12 4/4/4
f 12/12/12 13/13/13 4/4/4
f 4/4/4 13/13/13 5/5/5
f 13/13/13 14/14/14 5/5/5
f 5/5/5 14/14/14 6/6/6
f 14/14/14 15/15/15 6/6/6
f 6/6/6 15/15/15 7/7/7
f 15/15/15 16/16/16 7/7/7
f 7/7/7 16/16/16 8/8/8
f 16/16/16 17/17/17 8/8/8
f 8/8/8 17/17/17 9/9/9
f 17/17/17 18/18/18 9/9/9
f 27/27/27 28/28/28 19/19/19
f 28/28/28 29/29/29 20/20/20
f 29/29/29 30/30/30 21/21/21
f 30/30/30 31/31/31 22/22/22
f 31/31/31 32/32/32 23/23/23
f 32/32/32 33/33/33 24/24/24
f 33/33/33 34/34/34 25/25/25
f 34/34/34 35/35/35 26/26/26
f 45/45/45 44/44/44 36/36/36
f 46/46/46 45/45/45 37/37/37
f 47/47/47 46/46/46 38/38/38
f 48/48/48 47/47/47 39/39/39
f 49/49/49 48/48/48 40/40/40
f 50/50/50 49/49/49 41/41/41
f 51/51/51 50/50/50 42/42/42
f 52/52/52 51/51/51 43/43/43
o rim
usemtl SURF_Pipe_Matte
v 0 0.6700000127777457 0.18000000715255737
v 0.12727922201156616 0.6700000127777457 0.12727922201156616
v 0.18000000715255737 0.6700000127777457 1.102182101152202e-17
v 0.12727922201156616 0.6700000127777457 -0.12727922201156616
v 2.204364202304404e-17 0.6700000127777457 -0.18000000715255737
v -0.12727922201156616 0.6700000127777457 -0.12727922201156616
v -0.18000000715255737 0.6700000127777457 -3.306546303456606e-17
v -0.12727922201156616 0.6700000127777457 0.12727922201156616
v -4.408728404608808e-17 0.6700000127777457 0.18000000715255737
v 0 0.6400000134482979 0.18000000715255737
v 0.12727922201156616 0.6400000134482979 0.12727922201156616
v 0.18000000715255737 0.6400000134482979 1.102182101152202e-17
v 0.12727922201156616 0.6400000134482979 -0.12727922201156616
v 2.204364202304404e-17 0.6400000134482979 -0.18000000715255737
v -0.12727922201156616 0.6400000134482979 -0.12727922201156616
v -0.18000000715255737 0.6400000134482979 -3.306546303456606e-17
v -0.12727922201156616 0.6400000134482979 0.12727922201156616
v -4.408728404608808e-17 0.6400000134482979 0.18000000715255737
v 0 0.6700000127777457 0
v 0 0.6700000127777457 0
v 0 0.6700000127777457 0
v 0 0.6700000127777457 0
v 0 0.6700000127777457 0
v 0 0.6700000127777457 0
v 0 0.6700000127777457 0
v 0 0.6700000127777457 0
v 0 0.6700000127777457 0.18000000715255737
v 0.12727922201156616 0.6700000127777457 0.12727922201156616
v 0.18000000715255737 0.6700000127777457 1.102182101152202e-17
v 0.12727922201156616 0.6700000127777457 -0.12727922201156616
v 2.204364202304404e-17 0.6700000127777457 -0.18000000715255737
v -0.12727922201156616 0.6700000127777457 -0.12727922201156616
v -0.18000000715255737 0.6700000127777457 -3.306546303456606e-17
v -0.12727922201156616 0.6700000127777457 0.12727922201156616
v -4.408728404608808e-17 0.6700000127777457 0.18000000715255737
v 0 0.6400000134482979 0
v 0 0.6400000134482979 0
v 0 0.6400000134482979 0
v 0 0.6400000134482979 0
v 0 0.6400000134482979 0
v 0 0.6400000134482979 0
v 0 0.6400000134482979 0
v 0 0.6400000134482979 0
v 0 0.6400000134482979 0.18000000715255737
v 0.12727922201156616 0.6400000134482979 0.12727922201156616
v 0.18000000715255737 0.6400000134482979 1.102182101152202e-17
v 0.12727922201156616 0.6400000134482979 -0.12727922201156616
v 2.204364202304404e-17 0.6400000134482979 -0.18000000715255737
v -0.12727922201156616 0.6400000134482979 -0.12727922201156616
v -0.18000000715255737 0.6400000134482979 -3.306546303456606e-17
v -0.12727922201156616 0.6400000134482979 0.12727922201156616
v -4.408728404608808e-17 0.6400000134482979 0.18000000715255737
vt 0 1
vt 0.125 1
vt 0.25 1
vt 0.375 1
vt 0.5 1
vt 0.625 1
vt 0.75 1
vt 0.875 1
vt 1 1
vt 0 0
vt 0.125 0
vt 0.25 0
vt 0.375 0
vt 0.5 0
vt 0.625 0
vt 0.75 0
vt 0.875 0
vt 1 0
vt 0.5 0.5
vt 0.5 0.5
vt 0.5 0.5
vt 0.5 0.5
vt 0.5 0.5
vt 0.5 0.5
vt 0.5 0.5
vt 0.5 0.5
vt 1 0.5
vt 0.8535534143447876 0.8535534143447876
vt 0.5 1
vt 0.1464466154575348 0.8535534143447876
vt 0 0.5
vt 0.1464466154575348 0.1464466154575348
vt 0.5 0
vt 0.8535534143447876 0.1464466154575348
vt 1 0.5
vt 0.5 0.5
vt 0.5 0.5
vt 0.5 0.5
vt 0.5 0.5
vt 0.5 0.5
vt 0.5 0.5
vt 0.5 0.5
vt 0.5 0.5
vt 1 0.5
vt 0.8535534143447876 0.1464466154575348
vt 0.5 0
vt 0.1464466154575348 0.1464466154575348
vt 0 0.5
vt 0.1464466154575348 0.8535534143447876
vt 0.5 1
vt 0.8535534143447876 0.8535534143447876
vt 1 0.5
vn 0 0 1
vn 0.7071067811865476 0 0.7071067811865476
vn 1 0 6.123234262925839e-17
vn 0.7071067811865476 0 -0.7071067811865476
vn 1.2246468525851679e-16 0 -1
vn -0.7071067811865476 0 -0.7071067811865476
vn -1 0 -1.8369701465288538e-16
vn -0.7071067811865476 0 0.7071067811865476
vn -2.4492937051703357e-16 0 1
vn 0 0 1
vn 0.7071067811865476 0 0.7071067811865476
vn 1 0 6.123234262925839e-17
vn 0.7071067811865476 0 -0.7071067811865476
vn 1.2246468525851679e-16 0 -1
vn -0.7071067811865476 0 -0.7071067811865476
vn -1 0 -1.8369701465288538e-16
vn -0.7071067811865476 0 0.7071067811865476
vn -2.4492937051703357e-16 0 1
vn 0 1 0
vn 0 1 0
vn 0 1 0
vn 0 1 0
vn 0 1 0
vn 0 1 0
vn 0 1 0
vn 0 1 0
vn 0 1 0
vn 0 1 0
vn 0 1 0
vn 0 1 0
vn 0 1 0
vn 0 1 0
vn 0 1 0
vn 0 1 0
vn 0 1 0
vn 0 -1 0
vn 0 -1 0
vn 0 -1 0
vn 0 -1 0
vn 0 -1 0
vn 0 -1 0
vn 0 -1 0
vn 0 -1 0
vn 0 -1 0
vn 0 -1 0
vn 0 -1 0
vn 0 -1 0
vn 0 -1 0
vn 0 -1 0
vn 0 -1 0
vn 0 -1 0
vn 0 -1 0
f 53/53/53 62/62/62 54/54/54
f 62/62/62 63/63/63 54/54/54
f 54/54/54 63/63/63 55/55/55
f 63/63/63 64/64/64 55/55/55
f 55/55/55 64/64/64 56/56/56
f 64/64/64 65/65/65 56/56/56
f 56/56/56 65/65/65 57/57/57
f 65/65/65 66/66/66 57/57/57
f 57/57/57 66/66/66 58/58/58
f 66/66/66 67/67/67 58/58/58
f 58/58/58 67/67/67 59/59/59
f 67/67/67 68/68/68 59/59/59
f 59/59/59 68/68/68 60/60/60
f 68/68/68 69/69/69 60/60/60
f 60/60/60 69/69/69 61/61/61
f 69/69/69 70/70/70 61/61/61
f 79/79/79 80/80/80 71/71/71
f 80/80/80 81/81/81 72/72/72
f 81/81/81 82/82/82 73/73/73
f 82/82/82 83/83/83 74/74/74
f 83/83/83 84/84/84 75/75/75
f 84/84/84 85/85/85 76/76/76
f 85/85/85 86/86/86 77/77/77
f 86/86/86 87/87/87 78/78/78
f 97/97/97 96/96/96 88/88/88
f 98/98/98 97/97/97 89/89/89
f 99/99/99 98/98/98 90/90/90
f 100/100/100 99/99/99 91/91/91
f 101/101/101 100/100/100 92/92/92
f 102/102/102 101/101/101 93/93/93
f 103/103/103 102/102/102 94/94/94
f 104/104/104 103/103/103 95/95/95
o umbrella_a
usemtl SURF_Wood_Dark
v 0.02601439705080883 0.8992802350368423 0.04999999955296516
v 0.04330373762545902 0.9003188420990174 0.03999999977648258
v 0.04330373762545902 0.9003188420990174 0.020000000223517417
v 0.026014397050808834 0.8992802350368423 0.010000000447034835
v 0.008725056476158642 0.8982416279746672 0.020000000223517417
v 0.008725056476158642 0.8982416279746672 0.03999999977648258
v 0.026014397050808827 0.8992802350368423 0.04999999955296516
v 0.07398560294919118 0.10071979118920127 0.04999999955296516
v 0.09127494352384136 0.10175839825137634 0.03999999977648258
v 0.09127494352384136 0.10175839825137634 0.020000000223517417
v 0.07398560294919118 0.10071979118920127 0.010000000447034835
v 0.056696262374540986 0.0996811841270262 0.020000000223517417
v 0.056696262374540986 0.0996811841270262 0.03999999977648258
v 0.07398560294919117 0.10071979118920127 0.04999999955296516
v 0.02601439705080883 0.8992802350368423 0.03
v 0.02601439705080883 0.8992802350368423 0.03
v 0.02601439705080883 0.8992802350368423 0.03
v 0.02601439705080883 0.8992802350368423 0.03
v 0.02601439705080883 0.8992802350368423 0.03
v 0.02601439705080883 0.8992802350368423 0.03
v 0.02601439705080883 0.8992802350368423 0.04999999955296516
v 0.04330373762545902 0.9003188420990174 0.03999999977648258
v 0.04330373762545902 0.9003188420990174 0.020000000223517417
v 0.026014397050808834 0.8992802350368423 0.010000000447034835
v 0.008725056476158642 0.8982416279746672 0.020000000223517417
v 0.008725056476158642 0.8982416279746672 0.03999999977648258
v 0.026014397050808827 0.8992802350368423 0.04999999955296516
v 0.07398560294919118 0.10071979118920127 0.03
v 0.07398560294919118 0.10071979118920127 0.03
v 0.07398560294919118 0.10071979118920127 0.03
v 0.07398560294919118 0.10071979118920127 0.03
v 0.07398560294919118 0.10071979118920127 0.03
v 0.07398560294919118 0.10071979118920127 0.03
v 0.07398560294919118 0.10071979118920127 0.04999999955296516
v 0.09127494352384136 0.10175839825137634 0.03999999977648258
v 0.09127494352384136 0.10175839825137634 0.020000000223517417
v 0.07398560294919118 0.10071979118920127 0.010000000447034835
v 0.056696262374540986 0.0996811841270262 0.020000000223517417
v 0.056696262374540986 0.0996811841270262 0.03999999977648258
v 0.07398560294919117 0.10071979118920127 0.04999999955296516
vt 0 1
vt 0.1666666716337204 1
vt 0.3333333432674408 1
vt 0.5 1
vt 0.6666666865348816 1
vt 0.8333333134651184 1
vt 1 1
vt 0 0
vt 0.1666666716337204 0
vt 0.3333333432674408 0
vt 0.5 0
vt 0.6666666865348816 0
vt 0.8333333134651184 0
vt 1 0
vt 0.5 0.5
vt 0.5 0.5
vt 0.5 0.5
vt 0.5 0.5
vt 0.5 0.5
vt 0.5 0.5
vt 1 0.5
vt 0.75 0.9330127239227295
vt 0.25 0.9330127239227295
vt 0 0.5
vt 0.25 0.0669872984290123
vt 0.75 0.0669872984290123
vt 1 0.5
vt 0.5 0.5
vt 0.5 0.5
vt 0.5 0.5
vt 0.5 0.5
vt 0.5 0.5
vt 0.5 0.5
vt 1 0.5
vt 0.75 0.0669872984290123
vt 0.25 0.0669872984290123
vt 0 0.5
vt 0.25 0.9330127239227295
vt 0.75 0.9330127239227295
vt 1 0.5
vn 0 0 1
vn 0.8644670217763162 0.0519303526908792 0.5000000067305869
vn 0.8644670217763162 0.0519303526908792 -0.5000000067305869
vn 1.222443149480463e-16 7.343473180344845e-18 -1
vn -0.8644670217763162 -0.0519303526908792 -0.5000000067305869
vn -0.8644670217763162 -0.0519303526908792 0.5000000067305869
vn -2.444886298960926e-16 -1.468694636068969e-17 1
vn 0 0 1
vn 0.8644670217763162 0.0519303526908792 0.5000000067305869
vn 0.8644670217763162 0.0519303526908792 -0.5000000067305869
vn 1.222443149480463e-16 7.343473180344845e-18 -1
vn -0.8644670217763162 -0.0519303526908792 -0.5000000067305869
vn -0.8644670217763162 -0.0519303526908792 0.5000000067305869
vn -2.444886298960926e-16 -1.468694636068969e-17 1
vn -0.0599640064794446 0.9982005399352042 0
vn -0.0599640064794446 0.9982005399352042 0
vn -0.0599640064794446 0.9982005399352042 0
vn -0.0599640064794446 0.9982005399352042 0
vn -0.0599640064794446 0.9982005399352042 0
vn -0.0599640064794446 0.9982005399352042 0
vn -0.0599640064794446 0.9982005399352042 0
vn -0.0599640064794446 0.9982005399352042 0
vn -0.0599640064794446 0.9982005399352042 0
vn -0.0599640064794446 0.9982005399352042 0
vn -0.0599640064794446 0.9982005399352042 0
vn -0.0599640064794446 0.9982005399352042 0
vn -0.0599640064794446 0.9982005399352042 0
vn 0.0599640064794446 -0.9982005399352042 0
vn 0.0599640064794446 -0.9982005399352042 0
vn 0.0599640064794446 -0.9982005399352042 0
vn 0.0599640064794446 -0.9982005399352042 0
vn 0.0599640064794446 -0.9982005399352042 0
vn 0.0599640064794446 -0.9982005399352042 0
vn 0.0599640064794446 -0.9982005399352042 0
vn 0.0599640064794446 -0.9982005399352042 0
vn 0.0599640064794446 -0.9982005399352042 0
vn 0.0599640064794446 -0.9982005399352042 0
vn 0.0599640064794446 -0.9982005399352042 0
vn 0.0599640064794446 -0.9982005399352042 0
vn 0.0599640064794446 -0.9982005399352042 0
f 105/105/105 112/112/112 106/106/106
f 112/112/112 113/113/113 106/106/106
f 106/106/106 113/113/113 107/107/107
f 113/113/113 114/114/114 107/107/107
f 107/107/107 114/114/114 108/108/108
f 114/114/114 115/115/115 108/108/108
f 108/108/108 115/115/115 109/109/109
f 115/115/115 116/116/116 109/109/109
f 109/109/109 116/116/116 110/110/110
f 116/116/116 117/117/117 110/110/110
f 110/110/110 117/117/117 111/111/111
f 117/117/117 118/118/118 111/111/111
f 125/125/125 126/126/126 119/119/119
f 126/126/126 127/127/127 120/120/120
f 127/127/127 128/128/128 121/121/121
f 128/128/128 129/129/129 122/122/122
f 129/129/129 130/130/130 123/123/123
f 130/130/130 131/131/131 124/124/124
f 139/139/139 138/138/138 132/132/132
f 140/140/140 139/139/139 133/133/133
f 141/141/141 140/140/140 134/134/134
f 142/142/142 141/141/141 135/135/135
f 143/143/143 142/142/142 136/136/136
f 144/144/144 143/143/143 137/137/137
o umbrella_b
usemtl SURF_Absence_Fog
v -0.020508124699393202 0.8795126003798216 -0.020000000447034837
v -0.003209262687046438 0.878646935771771 -0.03000000022351742
v -0.003209262687046438 0.878646935771771 -0.04999999977648258
v -0.0205081246993932 0.8795126003798216 -0.059999999552965165
v -0.037806986711739966 0.8803782649878722 -0.04999999977648258
v -0.037806986711739966 0.8803782649878722 -0.03000000022351742
v -0.020508124699393206 0.8795126003798216 -0.020000000447034837
v -0.0594918753006068 0.10048742584622206 -0.020000000447034837
v -0.042193013288260035 0.09962176123817151 -0.03000000022351742
v -0.042193013288260035 0.09962176123817151 -0.04999999977648258
v -0.059491875300606796 0.10048742584622206 -0.059999999552965165
v -0.07679073731295356 0.1013530904542726 -0.04999999977648258
v -0.07679073731295356 0.1013530904542726 -0.03000000022351742
v -0.0594918753006068 0.10048742584622206 -0.020000000447034837
v -0.020508124699393202 0.8795126003798216 -0.04
v -0.020508124699393202 0.8795126003798216 -0.04
v -0.020508124699393202 0.8795126003798216 -0.04
v -0.020508124699393202 0.8795126003798216 -0.04
v -0.020508124699393202 0.8795126003798216 -0.04
v -0.020508124699393202 0.8795126003798216 -0.04
v -0.020508124699393202 0.8795126003798216 -0.020000000447034837
v -0.003209262687046438 0.878646935771771 -0.03000000022351742
v -0.003209262687046438 0.878646935771771 -0.04999999977648258
v -0.0205081246993932 0.8795126003798216 -0.059999999552965165
v -0.037806986711739966 0.8803782649878722 -0.04999999977648258
v -0.037806986711739966 0.8803782649878722 -0.03000000022351742
v -0.020508124699393206 0.8795126003798216 -0.020000000447034837
v -0.0594918753006068 0.10048742584622206 -0.04
v -0.0594918753006068 0.10048742584622206 -0.04
v -0.0594918753006068 0.10048742584622206 -0.04
v -0.0594918753006068 0.10048742584622206 -0.04
v -0.0594918753006068 0.10048742584622206 -0.04
v -0.0594918753006068 0.10048742584622206 -0.04
v -0.0594918753006068 0.10048742584622206 -0.020000000447034837
v -0.042193013288260035 0.09962176123817151 -0.03000000022351742
v -0.042193013288260035 0.09962176123817151 -0.04999999977648258
v -0.059491875300606796 0.10048742584622206 -0.059999999552965165
v -0.07679073731295356 0.1013530904542726 -0.04999999977648258
v -0.07679073731295356 0.1013530904542726 -0.03000000022351742
v -0.0594918753006068 0.10048742584622206 -0.020000000447034837
vt 0 1
vt 0.1666666716337204 1
vt 0.3333333432674408 1
vt 0.5 1
vt 0.6666666865348816 1
vt 0.8333333134651184 1
vt 1 1
vt 0 0
vt 0.1666666716337204 0
vt 0.3333333432674408 0
vt 0.5 0
vt 0.6666666865348816 0
vt 0.8333333134651184 0
vt 1 0
vt 0.5 0.5
vt 0.5 0.5
vt 0.5 0.5
vt 0.5 0.5
vt 0.5 0.5
vt 0.5 0.5
vt 1 0.5
vt 0.75 0.9330127239227295
vt 0.25 0.9330127239227295
vt 0 0.5
vt 0.25 0.0669872984290123
vt 0.75 0.0669872984290123
vt 1 0.5
vt 0.5 0.5
vt 0.5 0.5
vt 0.5 0.5
vt 0.5 0.5
vt 0.5 0.5
vt 0.5 0.5
vt 1 0.5
vt 0.75 0.0669872984290123
vt 0.25 0.0669872984290123
vt 0 0.5
vt 0.25 0.9330127239227295
vt 0.75 0.9330127239227295
vt 1 0.5
vn 0 0 1
vn 0.864943093657314 -0.04328323005423564 0.5000000067305869
vn 0.864943093657314 -0.04328323005423564 -0.5000000067305869
vn 1.2231163629113122e-16 -6.1206832342157555e-18 -1
vn -0.864943093657314 0.04328323005423564 -0.5000000067305869
vn -0.864943093657314 0.04328323005423564 0.5000000067305869
vn -2.4462327258226244e-16 1.2241366468431511e-17 1
vn 0 0 1
vn 0.864943093657314 -0.04328323005423564 0.5000000067305869
vn 0.864943093657314 -0.04328323005423564 -0.5000000067305869
vn 1.2231163629113122e-16 -6.1206832342157555e-18 -1
vn -0.864943093657314 0.04328323005423564 -0.5000000067305869
vn -0.864943093657314 0.04328323005423564 0.5000000067305869
vn -2.4462327258226244e-16 1.2241366468431511e-17 1
vn 0.04997916927067833 0.9987502603949663 0
vn 0.04997916927067833 0.9987502603949663 0
vn 0.04997916927067833 0.9987502603949663 0
vn 0.04997916927067833 0.9987502603949663 0
vn 0.04997916927067833 0.9987502603949663 0
vn 0.04997916927067833 0.9987502603949663 0
vn 0.04997916927067833 0.9987502603949663 0
vn 0.04997916927067833 0.9987502603949663 0
vn 0.04997916927067833 0.9987502603949663 0
vn 0.04997916927067833 0.9987502603949663 0
vn 0.04997916927067833 0.9987502603949663 0
vn 0.04997916927067833 0.9987502603949663 0
vn 0.04997916927067833 0.9987502603949663 0
vn -0.04997916927067833 -0.9987502603949663 0
vn -0.04997916927067833 -0.9987502603949663 0
vn -0.04997916927067833 -0.9987502603949663 0
vn -0.04997916927067833 -0.9987502603949663 0
vn -0.04997916927067833 -0.9987502603949663 0
vn -0.04997916927067833 -0.9987502603949663 0
vn -0.04997916927067833 -0.9987502603949663 0
vn -0.04997916927067833 -0.9987502603949663 0
vn -0.04997916927067833 -0.9987502603949663 0
vn -0.04997916927067833 -0.9987502603949663 0
vn -0.04997916927067833 -0.9987502603949663 0
vn -0.04997916927067833 -0.9987502603949663 0
vn -0.04997916927067833 -0.9987502603949663 0
f 145/145/145 152/152/152 146/146/146
f 152/152/152 153/153/153 146/146/146
f 146/146/146 153/153/153 147/147/147
f 153/153/153 154/154/154 147/147/147
f 147/147/147 154/154/154 148/148/148
f 154/154/154 155/155/155 148/148/148
f 148/148/148 155/155/155 149/149/149
f 155/155/155 156/156/156 149/149/149
f 149/149/149 156/156/156 150/150/150
f 156/156/156 157/157/157 150/150/150
f 150/150/150 157/157/157 151/151/151
f 157/157/157 158/158/158 151/151/151
f 165/165/165 166/166/166 159/159/159
f 166/166/166 167/167/167 160/160/160
f 167/167/167 168/168/168 161/161/161
f 168/168/168 169/169/169 162/162/162
f 169/169/169 170/170/170 163/163/163
f 170/170/170 171/171/171 164/164/164
f 179/179/179 178/178/178 172/172/172
f 180/180/180 179/179/179 173/173/173
f 181/181/181 180/180/180 174/174/174
f 182/182/182 181/181/181 175/175/175
f 183/183/183 182/182/182 176/176/176
f 184/184/184 183/183/183 177/177/177
