# PRP_P2_Floor_Decal_Scuff_A — Floor scuff decal
# SC_P2_SCHOOL · group B
# bounds 1.20 × 0.90 × 0.00 m · 4 tris · UV island 48 × 48 px
# 1 unit = 1 m · pivot at floor contact, X/Z centred
mtllib PRP_P2_Floor_Decal_Scuff_A.mtl
o scuff_core
usemtl SURF_School_Floor
v -0.6000000238418579 -1.7346970061972054e-19 -0.44999998807907116
v 0.6000000238418579 -1.7346970061972054e-19 -0.44999998807907116
v -0.6000000238418579 1.9966666943795254e-16 0.44999998807907116
v 0.6000000238418579 1.9966666943795254e-16 0.44999998807907116
vt 0 1
vt 1 1
vt 0 0
vt 1 0
vn 0 1 -2.2204460492503126e-16
vn 0 1 -2.2204460492503126e-16
vn 0 1 -2.2204460492503126e-16
vn 0 1 -2.2204460492503126e-16
f 1/1/1 3/3/3 2/2/2
f 3/3/3 4/4/4 2/2/2
o scuff_streak
usemtl SURF_School_Floor
v -0.07526014399191183 0.0030000000000000777 -0.17528059343795283
v 0.4773764743696246 0.0030000000000000777 -0.40893160810759993
v 0.0026235256303753784 0.003000000000000122 0.008931608107599909
v 0.5552601439919118 0.003000000000000122 -0.2247194065620472
vt 0 1
vt 1 1
vt 0 0
vt 1 0
vn -8.646824196848488e-17 1 -2.0451662452522716e-16
vn -8.646824196848488e-17 1 -2.0451662452522716e-16
vn -8.646824196848488e-17 1 -2.0451662452522716e-16
vn -8.646824196848488e-17 1 -2.0451662452522716e-16
f 5/5/5 7/7/7 6/6/6
f 7/7/7 8/8/8 6/6/6
