# PRP_P2_Warning_Tape_A — Warning tape
# SC_P2_SCHOOL · group B
# bounds 2.40 × 0.00 × 0.31 m · 4 tris · UV island 80 × 16 px
# 1 unit = 1 m · pivot at floor contact, X/Z centred
mtllib PRP_P2_Warning_Tape_A.mtl
o tape_run
usemtl SURF_Crimson_Core
v -1.2000000476837158 0.19495968544797604 -0.002
v 1.2000000476837158 0.19495968544797604 -0.002
v -1.2000000476837158 0.11495968723611538 -0.002
v 1.2000000476837158 0.11495968723611538 -0.002
vt 0 1
vt 1 1
vt 0 0
vt 1 0
vn 0 0 1
vn 0 0 1
vn 0 0 1
vn 0 0 1
f 1/1/1 3/3/3 2/2/2
f 3/3/3 4/4/4 2/2/2
o tape_twist
usemtl SURF_Crimson_Core
v 0.36142733841187846 0.07020660338198992 0.002
v 0.8002186193570648 0.3099193726840914 0.002
v 0.3997813806429351 0 0.002
v 0.8385726615881215 0.2397127693021015 0.002
vt 0 1
vt 1 1
vt 0 0
vt 1 0
vn 0 0 1
vn 0 0 1
vn 0 0 1
vn 0 0 1
f 5/5/5 7/7/7 6/6/6
f 7/7/7 8/8/8 6/6/6
