# PRP_P2_Fire_Extinguisher_A — Fire extinguisher
# SC_P2_SCHOOL · group B
# bounds 0.21 × 0.18 × 0.52 m · 120 tris · UV island 24 × 24 px
# 1 unit = 1 m · pivot at floor contact, X/Z centred
mtllib PRP_P2_Fire_Extinguisher_A.mtl
o cylinder
usemtl SURF_Metal_Rust
v -0.019204101242803688 0.41999998688697815 0.08975000539235771
v 0.03369657071611965 0.41999998688697815 0.07256153085641563
v 0.06639098497412288 0.41999998688697815 0.027561530930921438
v 0.06639098497412288 0.41999998688697815 -0.028061527298763392
v 0.03369657071611965 0.41999998688697815 -0.07306152722425759
v -0.019204101242803678 0.41999998688697815 -0.09025000176019966
v -0.07210477320172703 0.41999998688697815 -0.07306152722425759
v -0.10479918745973027 0.41999998688697815 -0.028061527298763392
v -0.10479918745973027 0.41999998688697815 0.027561530930921438
v -0.07210477320172703 0.41999998688697815 0.07256153085641563
v -0.01920410124280371 0.41999998688697815 0.08975000539235771
v -0.019204101242803688 0 0.08975000539235771
v 0.03369657071611965 0 0.07256153085641563
v 0.06639098497412288 0 0.027561530930921438
v 0.06639098497412288 0 -0.028061527298763392
v 0.03369657071611965 0 -0.07306152722425759
v -0.019204101242803678 0 -0.09025000176019966
v -0.07210477320172703 0 -0.07306152722425759
v -0.10479918745973027 0 -0.028061527298763392
v -0.10479918745973027 0 0.027561530930921438
v -0.07210477320172703 0 0.07256153085641563
v -0.01920410124280371 0 0.08975000539235771
v -0.019204101242803688 0.41999998688697815 -0.00024999818392097695
v -0.019204101242803688 0.41999998688697815 -0.00024999818392097695
v -0.019204101242803688 0.41999998688697815 -0.00024999818392097695
v -0.019204101242803688 0.41999998688697815 -0.00024999818392097695
v -0.019204101242803688 0.41999998688697815 -0.00024999818392097695
v -0.019204101242803688 0.41999998688697815 -0.00024999818392097695
v -0.019204101242803688 0.41999998688697815 -0.00024999818392097695
v -0.019204101242803688 0.41999998688697815 -0.00024999818392097695
v -0.019204101242803688 0.41999998688697815 -0.00024999818392097695
v -0.019204101242803688 0.41999998688697815 -0.00024999818392097695
v -0.019204101242803688 0.41999998688697815 0.08975000539235771
v 0.03369657071611965 0.41999998688697815 0.07256153085641563
v 0.06639098497412288 0.41999998688697815 0.027561530930921438
v 0.06639098497412288 0.41999998688697815 -0.028061527298763392
v 0.03369657071611965 0.41999998688697815 -0.07306152722425759
v -0.019204101242803678 0.41999998688697815 -0.09025000176019966
v -0.07210477320172703 0.41999998688697815 -0.07306152722425759
v -0.10479918745973027 0.41999998688697815 -0.028061527298763392
v -0.10479918745973027 0.41999998688697815 0.027561530930921438
v -0.07210477320172703 0.41999998688697815 0.07256153085641563
v -0.01920410124280371 0.41999998688697815 0.08975000539235771
v -0.019204101242803688 0 -0.00024999818392097695
v -0.019204101242803688 0 -0.00024999818392097695
v -0.019204101242803688 0 -0.00024999818392097695
v -0.019204101242803688 0 -0.00024999818392097695
v -0.019204101242803688 0 -0.00024999818392097695
v -0.019204101242803688 0 -0.00024999818392097695
v -0.019204101242803688 0 -0.00024999818392097695
v -0.019204101242803688 0 -0.00024999818392097695
v -0.019204101242803688 0 -0.00024999818392097695
v -0.019204101242803688 0 -0.00024999818392097695
v -0.019204101242803688 0 0.08975000539235771
v 0.03369657071611965 0 0.07256153085641563
v 0.06639098497412288 0 0.027561530930921438
v 0.06639098497412288 0 -0.028061527298763392
v 0.03369657071611965 0 -0.07306152722425759
v -0.019204101242803678 0 -0.09025000176019966
v -0.07210477320172703 0 -0.07306152722425759
v -0.10479918745973027 0 -0.028061527298763392
v -0.10479918745973027 0 0.027561530930921438
v -0.07210477320172703 0 0.07256153085641563
v -0.01920410124280371 0 0.08975000539235771
vt 0 1
vt 0.10000000149011612 1
vt 0.20000000298023224 1
vt 0.30000001192092896 1
vt 0.4000000059604645 1
vt 0.5 1
vt 0.6000000238418579 1
vt 0.699999988079071 1
vt 0.800000011920929 1
vt 0.8999999761581421 1
vt 1 1
vt 0 0
vt 0.10000000149011612 0
vt 0.20000000298023224 0
vt 0.30000001192092896 0
vt 0.4000000059604645 0
vt 0.5 0
vt 0.6000000238418579 0
vt 0.699999988079071 0
vt 0.800000011920929 0
vt 0.8999999761581421 0
vt 1 0
vt 0.5 0.5
vt 0.5 0.5
vt 0.5 0.5
vt 0.5 0.5
vt 0.5 0.5
vt 0.5 0.5
vt 0.5 0.5
vt 0.5 0.5
vt 0.5 0.5
vt 0.5 0.5
vt 1 0.5
vt 0.9045084714889526 0.7938926219940186
vt 0.6545084714889526 0.9755282402038574
vt 0.345491498708725 0.9755282402038574
vt 0.09549150615930557 0.7938926219940186
vt 0 0.5
vt 0.09549150615930557 0.20610737800598145
vt 0.345491498708725 0.024471741169691086
vt 0.6545084714889526 0.024471741169691086
vt 0.9045084714889526 0.20610737800598145
vt 1 0.5
vt 0.5 0.5
vt 0.5 0.5
vt 0.5 0.5
vt 0.5 0.5
vt 0.5 0.5
vt 0.5 0.5
vt 0.5 0.5
vt 0.5 0.5
vt 0.5 0.5
vt 0.5 0.5
vt 1 0.5
vt 0.9045084714889526 0.20610737800598145
vt 0.6545084714889526 0.024471741169691086
vt 0.345491498708725 0.024471741169691086
vt 0.09549150615930557 0.20610737800598145
vt 0 0.5
vt 0.09549150615930557 0.7938926219940186
vt 0.345491498708725 0.9755282402038574
vt 0.6545084714889526 0.9755282402038574
vt 0.9045084714889526 0.7938926219940186
vt 1 0.5
vn 0 0 1
vn 0.5877852429542022 0 0.8090170011595983
vn 0.9510565161477913 0 0.3090169948284817
vn 0.9510565161477913 0 -0.3090169948284817
vn 0.5877852429542022 0 -0.8090170011595983
vn 1.2246468525851679e-16 0 -1
vn -0.5877852429542022 0 -0.8090170011595983
vn -0.9510565161477913 0 -0.3090169948284817
vn -0.9510565161477913 0 0.3090169948284817
vn -0.5877852429542022 0 0.8090170011595983
vn -2.4492937051703357e-16 0 1
vn 0 0 1
vn 0.5877852429542022 0 0.8090170011595983
vn 0.9510565161477913 0 0.3090169948284817
vn 0.9510565161477913 0 -0.3090169948284817
vn 0.5877852429542022 0 -0.8090170011595983
vn 1.2246468525851679e-16 0 -1
vn -0.5877852429542022 0 -0.8090170011595983
vn -0.9510565161477913 0 -0.3090169948284817
vn -0.9510565161477913 0 0.3090169948284817
vn -0.5877852429542022 0 0.8090170011595983
vn -2.4492937051703357e-16 0 1
vn 0 1 0
vn 0 1 0
vn 0 1 0
vn 0 1 0
vn 0 1 0
vn 0 1 0
vn 0 1 0
vn 0 1 0
vn 0 1 0
vn 0 1 0
vn 0 1 0
vn 0 1 0
vn 0 1 0
vn 0 1 0
vn 0 1 0
vn 0 1 0
vn 0 1 0
vn 0 1 0
vn 0 1 0
vn 0 1 0
vn 0 1 0
vn 0 -1 0
vn 0 -1 0
vn 0 -1 0
vn 0 -1 0
vn 0 -1 0
vn 0 -1 0
vn 0 -1 0
vn 0 -1 0
vn 0 -1 0
vn 0 -1 0
vn 0 -1 0
vn 0 -1 0
vn 0 -1 0
vn 0 -1 0
vn 0 -1 0
vn 0 -1 0
vn 0 -1 0
vn 0 -1 0
vn 0 -1 0
vn 0 -1 0
vn 0 -1 0
f 1/1/1 12/12/12 2/2/2
f 12/12/12 13/13/13 2/2/2
f 2/2/2 13/13/13 3/3/3
f 13/13/13 14/14/14 3/3/3
f 3/3/3 14/14/14 4/4/4
f 14/14/14 15/15/15 4/4/4
f 4/4/4 15/15/15 5/5/5
f 15/15/15 16/16/16 5/5/5
f 5/5/5 16/16/16 6/6/6
f 16/16/16 17/17/17 6/6/6
f 6/6/6 17/17/17 7/7/7
f 17/17/17 18/18/18 7/7/7
f 7/7/7 18/18/18 8/8/8
f 18/18/18 19/19/19 8/8/8
f 8/8/8 19/19/19 9/9/9
f 19/19/19 20/20/20 9/9/9
f 9/9/9 20/20/20 10/10/10
f 20/20/20 21/21/21 10/10/10
f 10/10/10 21/21/21 11/11/11
f 21/21/21 22/22/22 11/11/11
f 33/33/33 34/34/34 23/23/23
f 34/34/34 35/35/35 24/24/24
f 35/35/35 36/36/36 25/25/25
f 36/36/36 37/37/37 26/26/26
f 37/37/37 38/38/38 27/27/27
f 38/38/38 39/39/39 28/28/28
f 39/39/39 40/40/40 29/29/29
f 40/40/40 41/41/41 30/30/30
f 41/41/41 42/42/42 31/31/31
f 42/42/42 43/43/43 32/32/32
f 55/55/55 54/54/54 44/44/44
f 56/56/56 55/55/55 45/45/45
f 57/57/57 56/56/56 46/46/46
f 58/58/58 57/57/57 47/47/47
f 59/59/59 58/58/58 48/48/48
f 60/60/60 59/59/59 49/49/49
f 61/61/61 60/60/60 50/50/50
f 62/62/62 61/61/61 51/51/51
f 63/63/63 62/62/62 52/52/52
f 64/64/64 63/63/63 53/53/53
o neck
usemtl SURF_Pipe_Matte
v -0.019204101242803688 0.4799999927729368 0.034750001965090635
v 0.005544635749674683 0.4799999927729368 0.024498738808557394
v 0.015795898906207924 0.4799999927729368 -0.0002499981839209748
v 0.005544635749674683 0.4799999927729368 -0.024998735176399348
v -0.019204101242803685 0.4799999927729368 -0.03524999833293259
v -0.04395283823528206 0.4799999927729368 -0.024998735176399348
v -0.0542041013918153 0.4799999927729368 -0.0002499981839209834
v -0.04395283823528206 0.4799999927729368 0.024498738808557394
v -0.019204101242803695 0.4799999927729368 0.034750001965090635
v -0.019204101242803688 0.4199999941140413 0.04975000256113708
v 0.016151239446617012 0.4199999941140413 0.03510534250549972
v 0.03079589950225437 0.4199999941140413 -0.0002499981839209739
v 0.016151239446617012 0.4199999941140413 -0.03560533887334168
v -0.01920410124280368 0.4199999941140413 -0.05024999892897904
v -0.05455944193222439 0.4199999941140413 -0.03560533887334168
v -0.06920410198786175 0.4199999941140413 -0.0002499981839209861
v -0.05455944193222439 0.4199999941140413 0.03510534250549972
v -0.019204101242803702 0.4199999941140413 0.04975000256113708
v -0.019204101242803688 0.4799999927729368 -0.00024999818392097695
v -0.019204101242803688 0.4799999927729368 -0.00024999818392097695
v -0.019204101242803688 0.4799999927729368 -0.00024999818392097695
v -0.019204101242803688 0.4799999927729368 -0.00024999818392097695
v -0.019204101242803688 0.4799999927729368 -0.00024999818392097695
v -0.019204101242803688 0.4799999927729368 -0.00024999818392097695
v -0.019204101242803688 0.4799999927729368 -0.00024999818392097695
v -0.019204101242803688 0.4799999927729368 -0.00024999818392097695
v -0.019204101242803688 0.4799999927729368 0.034750001965090635
v 0.005544635749674683 0.4799999927729368 0.024498738808557394
v 0.015795898906207924 0.4799999927729368 -0.0002499981839209748
v 0.005544635749674683 0.4799999927729368 -0.024998735176399348
v -0.019204101242803685 0.4799999927729368 -0.03524999833293259
v -0.04395283823528206 0.4799999927729368 -0.024998735176399348
v -0.0542041013918153 0.4799999927729368 -0.0002499981839209834
v -0.04395283823528206 0.4799999927729368 0.024498738808557394
v -0.019204101242803695 0.4799999927729368 0.034750001965090635
v -0.019204101242803688 0.4199999941140413 -0.00024999818392097695
v -0.019204101242803688 0.4199999941140413 -0.00024999818392097695
v -0.019204101242803688 0.4199999941140413 -0.00024999818392097695
v -0.019204101242803688 0.4199999941140413 -0.00024999818392097695
v -0.019204101242803688 0.4199999941140413 -0.00024999818392097695
v -0.019204101242803688 0.4199999941140413 -0.00024999818392097695
v -0.019204101242803688 0.4199999941140413 -0.00024999818392097695
v -0.019204101242803688 0.4199999941140413 -0.00024999818392097695
v -0.019204101242803688 0.4199999941140413 0.04975000256113708
v 0.016151239446617012 0.4199999941140413 0.03510534250549972
v 0.03079589950225437 0.4199999941140413 -0.0002499981839209739
v 0.016151239446617012 0.4199999941140413 -0.03560533887334168
v -0.01920410124280368 0.4199999941140413 -0.05024999892897904
v -0.05455944193222439 0.4199999941140413 -0.03560533887334168
v -0.06920410198786175 0.4199999941140413 -0.0002499981839209861
v -0.05455944193222439 0.4199999941140413 0.03510534250549972
v -0.019204101242803702 0.4199999941140413 0.04975000256113708
vt 0 1
vt 0.125 1
vt 0.25 1
vt 0.375 1
vt 0.5 1
vt 0.625 1
vt 0.75 1
vt 0.875 1
vt 1 1
vt 0 0
vt 0.125 0
vt 0.25 0
vt 0.375 0
vt 0.5 0
vt 0.625 0
vt 0.75 0
vt 0.875 0
vt 1 0
vt 0.5 0.5
vt 0.5 0.5
vt 0.5 0.5
vt 0.5 0.5
vt 0.5 0.5
vt 0.5 0.5
vt 0.5 0.5
vt 0.5 0.5
vt 1 0.5
vt 0.8535534143447876 0.8535534143447876
vt 0.5 1
vt 0.1464466154575348 0.8535534143447876
vt 0 0.5
vt 0.1464466154575348 0.1464466154575348
vt 0.5 0
vt 0.8535534143447876 0.1464466154575348
vt 1 0.5
vt 0.5 0.5
vt 0.5 0.5
vt 0.5 0.5
vt 0.5 0.5
vt 0.5 0.5
vt 0.5 0.5
vt 0.5 0.5
vt 0.5 0.5
vt 1 0.5
vt 0.8535534143447876 0.1464466154575348
vt 0.5 0
vt 0.1464466154575348 0.1464466154575348
vt 0 0.5
vt 0.1464466154575348 0.8535534143447876
vt 0.5 1
vt 0.8535534143447876 0.8535534143447876
vt 1 0.5
vn 0 0.24253562503633297 0.9701425001453319
vn 0.6859943404593853 0.2425356256622641 0.6859943404593853
vn 0.9701425001453319 0.24253562503633297 5.940409581080163e-17
vn 0.6859943404593853 0.2425356256622641 -0.6859943404593853
vn 1.1880819162160327e-16 0.24253562503633297 -0.9701425001453319
vn -0.6859943404593853 0.2425356256622641 -0.6859943404593853
vn -0.9701425001453319 0.24253562503633297 -1.7821229404984992e-16
vn -0.6859943404593853 0.2425356256622641 0.6859943404593853
vn -2.3761638324320653e-16 0.24253562503633297 0.9701425001453319
vn 0 0.24253562503633297 0.9701425001453319
vn 0.6859943404593853 0.2425356256622641 0.6859943404593853
vn 0.9701425001453319 0.24253562503633297 5.940409581080163e-17
vn 0.6859943404593853 0.2425356256622641 -0.6859943404593853
vn 1.1880819162160327e-16 0.24253562503633297 -0.9701425001453319
vn -0.6859943404593853 0.2425356256622641 -0.6859943404593853
vn -0.9701425001453319 0.24253562503633297 -1.7821229404984992e-16
vn -0.6859943404593853 0.2425356256622641 0.6859943404593853
vn -2.3761638324320653e-16 0.24253562503633297 0.9701425001453319
vn 0 1 0
vn 0 1 0
vn 0 1 0
vn 0 1 0
vn 0 1 0
vn 0 1 0
vn 0 1 0
vn 0 1 0
vn 0 1 0
vn 0 1 0
vn 0 1 0
vn 0 1 0
vn 0 1 0
vn 0 1 0
vn 0 1 0
vn 0 1 0
vn 0 1 0
vn 0 -1 0
vn 0 -1 0
vn 0 -1 0
vn 0 -1 0
vn 0 -1 0
vn 0 -1 0
vn 0 -1 0
vn 0 -1 0
vn 0 -1 0
vn 0 -1 0
vn 0 -1 0
vn 0 -1 0
vn 0 -1 0
vn 0 -1 0
vn 0 -1 0
vn 0 -1 0
vn 0 -1 0
f 65/65/65 74/74/74 66/66/66
f 74/74/74 75/75/75 66/66/66
f 66/66/66 75/75/75 67/67/67
f 75/75/75 76/76/76 67/67/67
f 67/67/67 76/76/76 68/68/68
f 76/76/76 77/77/77 68/68/68
f 68/68/68 77/77/77 69/69/69
f 77/77/77 78/78/78 69/69/69
f 69/69/69 78/78/78 70/70/70
f 78/78/78 79/79/79 70/70/70
f 70/70/70 79/79/79 71/71/71
f 79/79/79 80/80/80 71/71/71
f 71/71/71 80/80/80 72/72/72
f 80/80/80 81/81/81 72/72/72
f 72/72/72 81/81/81 73/73/73
f 81/81/81 82/82/82 73/73/73
f 91/91/91 92/92/92 83/83/83
f 92/92/92 93/93/93 84/84/84
f 93/93/93 94/94/94 85/85/85
f 94/94/94 95/95/95 86/86/86
f 95/95/95 96/96/96 87/87/87
f 96/96/96 97/97/97 88/88/88
f 97/97/97 98/98/98 89/89/89
f 98/98/98 99/99/99 90/90/90
f 109/109/109 108/108/108 100/100/100
f 110/110/110 109/109/109 101/101/101
f 111/111/111 110/110/110 102/102/102
f 112/112/112 111/111/111 103/103/103
f 113/113/113 112/112/112 104/104/104
f 114/114/114 113/113/113 105/105/105
f 115/115/115 114/114/114 106/106/106
f 116/116/116 115/115/115 107/107/107
o handle
usemtl SURF_Pipe_Matte
v 0.07079589905521953 0.5199999929964543 0.024750002188608053
v 0.07079589905521953 0.5199999929964543 -0.025249998556450007
v 0.07079589905521953 0.47999999389052395 0.024750002188608053
v 0.07079589905521953 0.47999999389052395 -0.025249998556450007
v -0.06920410154082692 0.5199999929964543 -0.025249998556450007
v -0.06920410154082692 0.5199999929964543 0.024750002188608053
v -0.06920410154082692 0.47999999389052395 -0.025249998556450007
v -0.06920410154082692 0.47999999389052395 0.024750002188608053
v -0.06920410154082692 0.5199999929964543 -0.025249998556450007
v 0.07079589905521953 0.5199999929964543 -0.025249998556450007
v -0.06920410154082692 0.5199999929964543 0.024750002188608053
v 0.07079589905521953 0.5199999929964543 0.024750002188608053
v -0.06920410154082692 0.47999999389052395 0.024750002188608053
v 0.07079589905521953 0.47999999389052395 0.024750002188608053
v -0.06920410154082692 0.47999999389052395 -0.025249998556450007
v 0.07079589905521953 0.47999999389052395 -0.025249998556450007
v -0.06920410154082692 0.5199999929964543 0.024750002188608053
v 0.07079589905521953 0.5199999929964543 0.024750002188608053
v -0.06920410154082692 0.47999999389052395 0.024750002188608053
v 0.07079589905521953 0.47999999389052395 0.024750002188608053
v 0.07079589905521953 0.5199999929964543 -0.025249998556450007
v -0.06920410154082692 0.5199999929964543 -0.025249998556450007
v 0.07079589905521953 0.47999999389052395 -0.025249998556450007
v -0.06920410154082692 0.47999999389052395 -0.025249998556450007
vt 0 1
vt 1 1
vt 0 0
vt 1 0
vt 0 1
vt 1 1
vt 0 0
vt 1 0
vt 0 1
vt 1 1
vt 0 0
vt 1 0
vt 0 1
vt 1 1
vt 0 0
vt 1 0
vt 0 1
vt 1 1
vt 0 0
vt 1 0
vt 0 1
vt 1 1
vt 0 0
vt 1 0
vn 1 0 0
vn 1 0 0
vn 1 0 0
vn 1 0 0
vn -1 0 0
vn -1 0 0
vn -1 0 0
vn -1 0 0
vn 0 1 0
vn 0 1 0
vn 0 1 0
vn 0 1 0
vn 0 -1 0
vn 0 -1 0
vn 0 -1 0
vn 0 -1 0
vn 0 0 1
vn 0 0 1
vn 0 0 1
vn 0 0 1
vn 0 0 -1
vn 0 0 -1
vn 0 0 -1
vn 0 0 -1
f 117/117/117 119/119/119 118/118/118
f 119/119/119 120/120/120 118/118/118
f 121/121/121 123/123/123 122/122/122
f 123/123/123 124/124/124 122/122/122
f 125/125/125 127/127/127 126/126/126
f 127/127/127 128/128/128 126/126/126
f 129/129/129 131/131/131 130/130/130
f 131/131/131 132/132/132 130/130/130
f 133/133/133 135/135/135 134/134/134
f 135/135/135 136/136/136 134/134/134
f 137/137/137 139/139/139 138/138/138
f 139/139/139 140/140/140 138/138/138
o hose
usemtl SURF_Plastic_Matte
v 0.00795988133535619 0.40131670223481125 0.0537500022482127
v 0.019127152616050004 0.40603814880409805 0.04675000203214586
v 0.019127152616050004 0.40603814880409805 0.03275000160001219
v 0.00795988133535619 0.40131670223481125 0.02575000138394535
v -0.0032073899453376256 0.3965952556655245 0.03275000160001219
v -0.0032073899453376256 0.3965952556655245 0.04675000203214586
v 0.00795988133535619 0.40131670223481125 0.0537500022482127
v 0.09363191617903645 0.19868328465216684 0.0537500022482127
v 0.10479918745973027 0.20340473122145358 0.04675000203214586
v 0.10479918745973027 0.20340473122145358 0.03275000160001219
v 0.09363191617903645 0.19868328465216684 0.02575000138394535
v 0.08246464489834263 0.19396183808288003 0.03275000160001219
v 0.08246464489834263 0.19396183808288003 0.04675000203214586
v 0.09363191617903645 0.19868328465216684 0.0537500022482127
v 0.00795988133535619 0.40131670223481125 0.039750001816079024
v 0.00795988133535619 0.40131670223481125 0.039750001816079024
v 0.00795988133535619 0.40131670223481125 0.039750001816079024
v 0.00795988133535619 0.40131670223481125 0.039750001816079024
v 0.00795988133535619 0.40131670223481125 0.039750001816079024
v 0.00795988133535619 0.40131670223481125 0.039750001816079024
v 0.00795988133535619 0.40131670223481125 0.0537500022482127
v 0.019127152616050004 0.40603814880409805 0.04675000203214586
v 0.019127152616050004 0.40603814880409805 0.03275000160001219
v 0.00795988133535619 0.40131670223481125 0.02575000138394535
v -0.0032073899453376256 0.3965952556655245 0.03275000160001219
v -0.0032073899453376256 0.3965952556655245 0.04675000203214586
v 0.00795988133535619 0.40131670223481125 0.0537500022482127
v 0.09363191617903645 0.19868328465216684 0.039750001816079024
v 0.09363191617903645 0.19868328465216684 0.039750001816079024
v 0.09363191617903645 0.19868328465216684 0.039750001816079024
v 0.09363191617903645 0.19868328465216684 0.039750001816079024
v 0.09363191617903645 0.19868328465216684 0.039750001816079024
v 0.09363191617903645 0.19868328465216684 0.039750001816079024
v 0.09363191617903645 0.19868328465216684 0.0537500022482127
v 0.10479918745973027 0.20340473122145358 0.04675000203214586
v 0.10479918745973027 0.20340473122145358 0.03275000160001219
v 0.09363191617903645 0.19868328465216684 0.02575000138394535
v 0.08246464489834263 0.19396183808288003 0.03275000160001219
v 0.08246464489834263 0.19396183808288003 0.04675000203214586
v 0.09363191617903645 0.19868328465216684 0.0537500022482127
vt 0 1
vt 0.1666666716337204 1
vt 0.3333333432674408 1
vt 0.5 1
vt 0.6666666865348816 1
vt 0.8333333134651184 1
vt 1 1
vt 0 0
vt 0.1666666716337204 0
vt 0.3333333432674408 0
vt 0.5 0
vt 0.6666666865348816 0
vt 0.8333333134651184 0
vt 1 0
vt 0.5 0.5
vt 0.5 0.5
vt 0.5 0.5
vt 0.5 0.5
vt 0.5 0.5
vt 0.5 0.5
vt 1 0.5
vt 0.75 0.9330127239227295
vt 0.25 0.9330127239227295
vt 0 0.5
vt 0.25 0.0669872984290123
vt 0.75 0.0669872984290123
vt 1 0.5
vt 0.5 0.5
vt 0.5 0.5
vt 0.5 0.5
vt 0.5 0.5
vt 0.5 0.5
vt 0.5 0.5
vt 1 0.5
vt 0.75 0.0669872984290123
vt 0.25 0.0669872984290123
vt 0 0.5
vt 0.25 0.9330127239227295
vt 0.75 0.9330127239227295
vt 1 0.5
vn 0 0 1
vn 0.7976622156622883 0.3372461756256726 0.5000000067305869
vn 0.7976622156622883 0.3372461756256726 -0.5000000067305869
vn 1.1279744473445995e-16 4.768999472472223e-17 -1
vn -0.7976622156622883 -0.3372461756256726 -0.5000000067305869
vn -0.7976622156622883 -0.3372461756256726 0.5000000067305869
vn -2.255948894689199e-16 -9.537998944944446e-17 1
vn 0 0 1
vn 0.7976622156622883 0.3372461756256726 0.5000000067305869
vn 0.7976622156622883 0.3372461756256726 -0.5000000067305869
vn 1.1279744473445995e-16 4.768999472472223e-17 -1
vn -0.7976622156622883 -0.3372461756256726 -0.5000000067305869
vn -0.7976622156622883 -0.3372461756256726 0.5000000067305869
vn -2.255948894689199e-16 -9.537998944944446e-17 1
vn -0.38941834230865047 0.9210609940028851 0
vn -0.38941834230865047 0.9210609940028851 0
vn -0.38941834230865047 0.9210609940028851 0
vn -0.38941834230865047 0.9210609940028851 0
vn -0.38941834230865047 0.9210609940028851 0
vn -0.38941834230865047 0.9210609940028851 0
vn -0.38941834230865047 0.9210609940028851 0
vn -0.38941834230865047 0.9210609940028851 0
vn -0.38941834230865047 0.9210609940028851 0
vn -0.38941834230865047 0.9210609940028851 0
vn -0.38941834230865047 0.9210609940028851 0
vn -0.38941834230865047 0.9210609940028851 0
vn -0.38941834230865047 0.9210609940028851 0
vn 0.38941834230865047 -0.9210609940028851 0
vn 0.38941834230865047 -0.9210609940028851 0
vn 0.38941834230865047 -0.9210609940028851 0
vn 0.38941834230865047 -0.9210609940028851 0
vn 0.38941834230865047 -0.9210609940028851 0
vn 0.38941834230865047 -0.9210609940028851 0
vn 0.38941834230865047 -0.9210609940028851 0
vn 0.38941834230865047 -0.9210609940028851 0
vn 0.38941834230865047 -0.9210609940028851 0
vn 0.38941834230865047 -0.9210609940028851 0
vn 0.38941834230865047 -0.9210609940028851 0
vn 0.38941834230865047 -0.9210609940028851 0
vn 0.38941834230865047 -0.9210609940028851 0
f 141/141/141 148/148/148 142/142/142
f 148/148/148 149/149/149 142/142/142
f 142/142/142 149/149/149 143/143/143
f 149/149/149 150/150/150 143/143/143
f 143/143/143 150/150/150 144/144/144
f 150/150/150 151/151/151 144/144/144
f 144/144/144 151/151/151 145/145/145
f 151/151/151 152/152/152 145/145/145
f 145/145/145 152/152/152 146/146/146
f 152/152/152 153/153/153 146/146/146
f 146/146/146 153/153/153 147/147/147
f 153/153/153 154/154/154 147/147/147
f 161/161/161 162/162/162 155/155/155
f 162/162/162 163/163/163 156/156/156
f 163/163/163 164/164/164 157/157/157
f 164/164/164 165/165/165 158/158/158
f 165/165/165 166/166/166 159/159/159
f 166/166/166 167/167/167 160/160/160
f 175/175/175 174/174/174 168/168/168
f 176/176/176 175/175/175 169/169/169
f 177/177/177 176/176/176 170/170/170
f 178/178/178 177/177/177 171/171/171
f 179/179/179 178/178/178 172/172/172
f 180/180/180 179/179/179 173/173/173
o label
usemtl SURF_Paper_Worn
v 0.03579589845917309 0.3099999937415123 0.09025000176019966
v 0.03579589845917309 0.3099999937415123 0.08525000187195837
v 0.03579589845917309 0.16999999314546585 0.09025000176019966
v 0.03579589845917309 0.16999999314546585 0.08525000187195837
v -0.07420410094478047 0.3099999937415123 0.08525000187195837
v -0.07420410094478047 0.3099999937415123 0.09025000176019966
v -0.07420410094478047 0.16999999314546585 0.08525000187195837
v -0.07420410094478047 0.16999999314546585 0.09025000176019966
v -0.07420410094478047 0.3099999937415123 0.08525000187195837
v 0.03579589845917309 0.3099999937415123 0.08525000187195837
v -0.07420410094478047 0.3099999937415123 0.09025000176019966
v 0.03579589845917309 0.3099999937415123 0.09025000176019966
v -0.07420410094478047 0.16999999314546585 0.09025000176019966
v 0.03579589845917309 0.16999999314546585 0.09025000176019966
v -0.07420410094478047 0.16999999314546585 0.08525000187195837
v 0.03579589845917309 0.16999999314546585 0.08525000187195837
v -0.07420410094478047 0.3099999937415123 0.09025000176019966
v 0.03579589845917309 0.3099999937415123 0.09025000176019966
v -0.07420410094478047 0.16999999314546585 0.09025000176019966
v 0.03579589845917309 0.16999999314546585 0.09025000176019966
v 0.03579589845917309 0.3099999937415123 0.08525000187195837
v -0.07420410094478047 0.3099999937415123 0.08525000187195837
v 0.03579589845917309 0.16999999314546585 0.08525000187195837
v -0.07420410094478047 0.16999999314546585 0.08525000187195837
vt 0 1
vt 1 1
vt 0 0
vt 1 0
vt 0 1
vt 1 1
vt 0 0
vt 1 0
vt 0 1
vt 1 1
vt 0 0
vt 1 0
vt 0 1
vt 1 1
vt 0 0
vt 1 0
vt 0 1
vt 1 1
vt 0 0
vt 1 0
vt 0 1
vt 1 1
vt 0 0
vt 1 0
vn 1 0 0
vn 1 0 0
vn 1 0 0
vn 1 0 0
vn -1 0 0
vn -1 0 0
vn -1 0 0
vn -1 0 0
vn 0 1 0
vn 0 1 0
vn 0 1 0
vn 0 1 0
vn 0 -1 0
vn 0 -1 0
vn 0 -1 0
vn 0 -1 0
vn 0 0 1
vn 0 0 1
vn 0 0 1
vn 0 0 1
vn 0 0 -1
vn 0 0 -1
vn 0 0 -1
vn 0 0 -1
f 181/181/181 183/183/183 182/182/182
f 183/183/183 184/184/184 182/182/182
f 185/185/185 187/187/187 186/186/186
f 187/187/187 188/188/188 186/186/186
f 189/189/189 191/191/191 190/190/190
f 191/191/191 192/192/192 190/190/190
f 193/193/193 195/195/195 194/194/194
f 195/195/195 196/196/196 194/194/194
f 197/197/197 199/199/199 198/198/198
f 199/199/199 200/200/200 198/198/198
f 201/201/201 203/203/203 202/202/202
f 203/203/203 204/204/204 202/202/202
