# PRP_P2_Bucket_Mop_A — Bucket + mop
# SC_P2_SCHOOL · group B
# bounds 0.40 × 0.34 × 1.22 m · 112 tris · UV island 40 × 32 px
# 1 unit = 1 m · pivot at floor contact, X/Z centred
mtllib PRP_P2_Bucket_Mop_A.mtl
o bucket
usemtl SURF_Plastic_Matte
v -0.029999998211860654 0.25999999344348906 0.1599999964237213
v 0.08313708305358887 0.25999999344348906 0.11313708126544952
v 0.12999999821186065 0.25999999344348906 9.797174324372975e-18
v 0.08313708305358887 0.25999999344348906 -0.11313708126544952
v -0.029999998211860633 0.25999999344348906 -0.1599999964237213
v -0.1431370794773102 0.25999999344348906 -0.11313708126544952
v -0.18999999463558198 0.25999999344348906 -2.939152380029954e-17
v -0.1431370794773102 0.25999999344348906 0.11313708126544952
v -0.029999998211860692 0.25999999344348906 0.1599999964237213
v -0.029999998211860654 2.980232227667301e-9 0.12999999523162842
v 0.06192388683557511 2.980232227667301e-9 0.09192388504743576
v 0.09999999701976776 2.980232227667301e-9 7.960203880059101e-18
v 0.06192388683557511 2.980232227667301e-9 -0.09192388504743576
v -0.029999998211860637 2.980232227667301e-9 -0.12999999523162842
v -0.12192388325929641 2.980232227667301e-9 -0.09192388504743576
v -0.15999999344348909 2.980232227667301e-9 -2.3880613294538528e-17
v -0.12192388325929641 2.980232227667301e-9 0.09192388504743576
v -0.029999998211860685 2.980232227667301e-9 0.12999999523162842
v -0.029999998211860654 0.25999999344348906 0
v -0.029999998211860654 0.25999999344348906 0
v -0.029999998211860654 0.25999999344348906 0
v -0.029999998211860654 0.25999999344348906 0
v -0.029999998211860654 0.25999999344348906 0
v -0.029999998211860654 0.25999999344348906 0
v -0.029999998211860654 0.25999999344348906 0
v -0.029999998211860654 0.25999999344348906 0
v -0.029999998211860654 0.25999999344348906 0.1599999964237213
v 0.08313708305358887 0.25999999344348906 0.11313708126544952
v 0.12999999821186065 0.25999999344348906 9.797174324372975e-18
v 0.08313708305358887 0.25999999344348906 -0.11313708126544952
v -0.029999998211860633 0.25999999344348906 -0.1599999964237213
v -0.1431370794773102 0.25999999344348906 -0.11313708126544952
v -0.18999999463558198 0.25999999344348906 -2.939152380029954e-17
v -0.1431370794773102 0.25999999344348906 0.11313708126544952
v -0.029999998211860692 0.25999999344348906 0.1599999964237213
v -0.029999998211860654 2.980232227667301e-9 0
v -0.029999998211860654 2.980232227667301e-9 0
v -0.029999998211860654 2.980232227667301e-9 0
v -0.029999998211860654 2.980232227667301e-9 0
v -0.029999998211860654 2.980232227667301e-9 0
v -0.029999998211860654 2.980232227667301e-9 0
v -0.029999998211860654 2.980232227667301e-9 0
v -0.029999998211860654 2.980232227667301e-9 0
v -0.029999998211860654 2.980232227667301e-9 0.12999999523162842
v 0.06192388683557511 2.980232227667301e-9 0.09192388504743576
v 0.09999999701976776 2.980232227667301e-9 7.960203880059101e-18
v 0.06192388683557511 2.980232227667301e-9 -0.09192388504743576
v -0.029999998211860637 2.980232227667301e-9 -0.12999999523162842
v -0.12192388325929641 2.980232227667301e-9 -0.09192388504743576
v -0.15999999344348909 2.980232227667301e-9 -2.3880613294538528e-17
v -0.12192388325929641 2.980232227667301e-9 0.09192388504743576
v -0.029999998211860685 2.980232227667301e-9 0.12999999523162842
vt 0 1
vt 0.125 1
vt 0.25 1
vt 0.375 1
vt 0.5 1
vt 0.625 1
vt 0.75 1
vt 0.875 1
vt 1 1
vt 0 0
vt 0.125 0
vt 0.25 0
vt 0.375 0
vt 0.5 0
vt 0.625 0
vt 0.75 0
vt 0.875 0
vt 1 0
vt 0.5 0.5
vt 0.5 0.5
vt 0.5 0.5
vt 0.5 0.5
vt 0.5 0.5
vt 0.5 0.5
vt 0.5 0.5
vt 0.5 0.5
vt 1 0.5
vt 0.8535534143447876 0.8535534143447876
vt 0.5 1
vt 0.1464466154575348 0.8535534143447876
vt 0 0.5
vt 0.1464466154575348 0.1464466154575348
vt 0.5 0
vt 0.8535534143447876 0.1464466154575348
vt 1 0.5
vt 0.5 0.5
vt 0.5 0.5
vt 0.5 0.5
vt 0.5 0.5
vt 0.5 0.5
vt 0.5 0.5
vt 0.5 0.5
vt 0.5 0.5
vt 1 0.5
vt 0.8535534143447876 0.1464466154575348
vt 0.5 0
vt 0.1464466154575348 0.1464466154575348
vt 0 0.5
vt 0.1464466154575348 0.8535534143447876
vt 0.5 1
vt 0.8535534143447876 0.8535534143447876
vt 1 0.5
vn 0 -0.11462410741953899 0.9934089359363917
vn 0.7024461956125829 -0.11462410103820997 0.7024461956125829
vn 0.9934089359363917 -0.11462410741953899 6.08287523572002e-17
vn 0.7024461956125829 -0.11462410103820997 -0.7024461956125829
vn 1.216575047144004e-16 -0.11462410741953899 -0.9934089359363917
vn -0.7024461956125829 -0.11462410103820997 -0.7024461956125829
vn -0.9934089359363917 -0.11462410741953899 -1.824862636890456e-16
vn -0.7024461956125829 -0.11462410103820997 0.7024461956125829
vn -2.433150094288008e-16 -0.11462410741953899 0.9934089359363917
vn 0 -0.11462410741953899 0.9934089359363917
vn 0.7024461956125829 -0.11462410103820997 0.7024461956125829
vn 0.9934089359363917 -0.11462410741953899 6.08287523572002e-17
vn 0.7024461956125829 -0.11462410103820997 -0.7024461956125829
vn 1.216575047144004e-16 -0.11462410741953899 -0.9934089359363917
vn -0.7024461956125829 -0.11462410103820997 -0.7024461956125829
vn -0.9934089359363917 -0.11462410741953899 -1.824862636890456e-16
vn -0.7024461956125829 -0.11462410103820997 0.7024461956125829
vn -2.433150094288008e-16 -0.11462410741953899 0.9934089359363917
vn 0 1 0
vn 0 1 0
vn 0 1 0
vn 0 1 0
vn 0 1 0
vn 0 1 0
vn 0 1 0
vn 0 1 0
vn 0 1 0
vn 0 1 0
vn 0 1 0
vn 0 1 0
vn 0 1 0
vn 0 1 0
vn 0 1 0
vn 0 1 0
vn 0 1 0
vn 0 -1 0
vn 0 -1 0
vn 0 -1 0
vn 0 -1 0
vn 0 -1 0
vn 0 -1 0
vn 0 -1 0
vn 0 -1 0
vn 0 -1 0
vn 0 -1 0
vn 0 -1 0
vn 0 -1 0
vn 0 -1 0
vn 0 -1 0
vn 0 -1 0
vn 0 -1 0
vn 0 -1 0
f 1/1/1 10/10/10 2/2/2
f 10/10/10 11/11/11 2/2/2
f 2/2/2 11/11/11 3/3/3
f 11/11/11 12/12/12 3/3/3
f 3/3/3 12/12/12 4/4/4
f 12/12/12 13/13/13 4/4/4
f 4/4/4 13/13/13 5/5/5
f 13/13/13 14/14/14 5/5/5
f 5/5/5 14/14/14 6/6/6
f 14/14/14 15/15/15 6/6/6
f 6/6/6 15/15/15 7/7/7
f 15/15/15 16/16/16 7/7/7
f 7/7/7 16/16/16 8/8/8
f 16/16/16 17/17/17 8/8/8
f 8/8/8 17/17/17 9/9/9
f 17/17/17 18/18/18 9/9/9
f 27/27/27 28/28/28 19/19/19
f 28/28/28 29/29/29 20/20/20
f 29/29/29 30/30/30 21/21/21
f 30/30/30 31/31/31 22/22/22
f 31/31/31 32/32/32 23/23/23
f 32/32/32 33/33/33 24/24/24
f 33/33/33 34/34/34 25/25/25
f 34/34/34 35/35/35 26/26/26
f 45/45/45 44/44/44 36/36/36
f 46/46/46 45/45/45 37/37/37
f 47/47/47 46/46/46 38/38/38
f 48/48/48 47/47/47 39/39/39
f 49/49/49 48/48/48 40/40/40
f 50/50/50 49/49/49 41/41/41
f 51/51/51 50/50/50 42/42/42
f 52/52/52 51/51/51 43/43/43
o bucket_rim
usemtl SURF_Plastic_Matte
v -0.029999998211860654 0.2649999979883432 0.17000000178813934
v 0.09020815342664719 0.2649999979883432 0.12020815163850784
v 0.14000000357627868 0.2649999979883432 1.0409498081537804e-17
v 0.09020815342664719 0.2649999979883432 -0.12020815163850784
v -0.029999998211860633 0.2649999979883432 -0.17000000178813934
v -0.1502081498503685 0.2649999979883432 -0.12020815163850784
v -0.2 0.2649999979883432 -3.12284934174328e-17
v -0.1502081498503685 0.2649999979883432 0.12020815163850784
v -0.029999998211860696 0.2649999979883432 0.17000000178813934
v -0.029999998211860654 0.24499999843537806 0.17000000178813934
v 0.09020815342664719 0.24499999843537806 0.12020815163850784
v 0.14000000357627868 0.24499999843537806 1.0409498081537804e-17
v 0.09020815342664719 0.24499999843537806 -0.12020815163850784
v -0.029999998211860633 0.24499999843537806 -0.17000000178813934
v -0.1502081498503685 0.24499999843537806 -0.12020815163850784
v -0.2 0.24499999843537806 -3.12284934174328e-17
v -0.1502081498503685 0.24499999843537806 0.12020815163850784
v -0.029999998211860696 0.24499999843537806 0.17000000178813934
v -0.029999998211860654 0.2649999979883432 0
v -0.029999998211860654 0.2649999979883432 0
v -0.029999998211860654 0.2649999979883432 0
v -0.029999998211860654 0.2649999979883432 0
v -0.029999998211860654 0.2649999979883432 0
v -0.029999998211860654 0.2649999979883432 0
v -0.029999998211860654 0.2649999979883432 0
v -0.029999998211860654 0.2649999979883432 0
v -0.029999998211860654 0.2649999979883432 0.17000000178813934
v 0.09020815342664719 0.2649999979883432 0.12020815163850784
v 0.14000000357627868 0.2649999979883432 1.0409498081537804e-17
v 0.09020815342664719 0.2649999979883432 -0.12020815163850784
v -0.029999998211860633 0.2649999979883432 -0.17000000178813934
v -0.1502081498503685 0.2649999979883432 -0.12020815163850784
v -0.2 0.2649999979883432 -3.12284934174328e-17
v -0.1502081498503685 0.2649999979883432 0.12020815163850784
v -0.029999998211860696 0.2649999979883432 0.17000000178813934
v -0.029999998211860654 0.24499999843537806 0
v -0.029999998211860654 0.24499999843537806 0
v -0.029999998211860654 0.24499999843537806 0
v -0.029999998211860654 0.24499999843537806 0
v -0.029999998211860654 0.24499999843537806 0
v -0.029999998211860654 0.24499999843537806 0
v -0.029999998211860654 0.24499999843537806 0
v -0.029999998211860654 0.24499999843537806 0
v -0.029999998211860654 0.24499999843537806 0.17000000178813934
v 0.09020815342664719 0.24499999843537806 0.12020815163850784
v 0.14000000357627868 0.24499999843537806 1.0409498081537804e-17
v 0.09020815342664719 0.24499999843537806 -0.12020815163850784
v -0.029999998211860633 0.24499999843537806 -0.17000000178813934
v -0.1502081498503685 0.24499999843537806 -0.12020815163850784
v -0.2 0.24499999843537806 -3.12284934174328e-17
v -0.1502081498503685 0.24499999843537806 0.12020815163850784
v -0.029999998211860696 0.24499999843537806 0.17000000178813934
vt 0 1
vt 0.125 1
vt 0.25 1
vt 0.375 1
vt 0.5 1
vt 0.625 1
vt 0.75 1
vt 0.875 1
vt 1 1
vt 0 0
vt 0.125 0
vt 0.25 0
vt 0.375 0
vt 0.5 0
vt 0.625 0
vt 0.75 0
vt 0.875 0
vt 1 0
vt 0.5 0.5
vt 0.5 0.5
vt 0.5 0.5
vt 0.5 0.5
vt 0.5 0.5
vt 0.5 0.5
vt 0.5 0.5
vt 0.5 0.5
vt 1 0.5
vt 0.8535534143447876 0.8535534143447876
vt 0.5 1
vt 0.1464466154575348 0.8535534143447876
vt 0 0.5
vt 0.1464466154575348 0.1464466154575348
vt 0.5 0
vt 0.8535534143447876 0.1464466154575348
vt 1 0.5
vt 0.5 0.5
vt 0.5 0.5
vt 0.5 0.5
vt 0.5 0.5
vt 0.5 0.5
vt 0.5 0.5
vt 0.5 0.5
vt 0.5 0.5
vt 1 0.5
vt 0.8535534143447876 0.1464466154575348
vt 0.5 0
vt 0.1464466154575348 0.1464466154575348
vt 0 0.5
vt 0.1464466154575348 0.8535534143447876
vt 0.5 1
vt 0.8535534143447876 0.8535534143447876
vt 1 0.5
vn 0 0 1
vn 0.7071067811865476 0 0.7071067811865476
vn 1 0 6.123234262925839e-17
vn 0.7071067811865476 0 -0.7071067811865476
vn 1.2246468525851679e-16 0 -1
vn -0.7071067811865476 0 -0.7071067811865476
vn -1 0 -1.8369701465288538e-16
vn -0.7071067811865476 0 0.7071067811865476
vn -2.4492937051703357e-16 0 1
vn 0 0 1
vn 0.7071067811865476 0 0.7071067811865476
vn 1 0 6.123234262925839e-17
vn 0.7071067811865476 0 -0.7071067811865476
vn 1.2246468525851679e-16 0 -1
vn -0.7071067811865476 0 -0.7071067811865476
vn -1 0 -1.8369701465288538e-16
vn -0.7071067811865476 0 0.7071067811865476
vn -2.4492937051703357e-16 0 1
vn 0 1 0
vn 0 1 0
vn 0 1 0
vn 0 1 0
vn 0 1 0
vn 0 1 0
vn 0 1 0
vn 0 1 0
vn 0 1 0
vn 0 1 0
vn 0 1 0
vn 0 1 0
vn 0 1 0
vn 0 1 0
vn 0 1 0
vn 0 1 0
vn 0 1 0
vn 0 -1 0
vn 0 -1 0
vn 0 -1 0
vn 0 -1 0
vn 0 -1 0
vn 0 -1 0
vn 0 -1 0
vn 0 -1 0
vn 0 -1 0
vn 0 -1 0
vn 0 -1 0
vn 0 -1 0
vn 0 -1 0
vn 0 -1 0
vn 0 -1 0
vn 0 -1 0
vn 0 -1 0
f 53/53/53 62/62/62 54/54/54
f 62/62/62 63/63/63 54/54/54
f 54/54/54 63/63/63 55/55/55
f 63/63/63 64/64/64 55/55/55
f 55/55/55 64/64/64 56/56/56
f 64/64/64 65/65/65 56/56/56
f 56/56/56 65/65/65 57/57/57
f 65/65/65 66/66/66 57/57/57
f 57/57/57 66/66/66 58/58/58
f 66/66/66 67/67/67 58/58/58
f 58/58/58 67/67/67 59/59/59
f 67/67/67 68/68/68 59/59/59
f 59/59/59 68/68/68 60/60/60
f 68/68/68 69/69/69 60/60/60
f 60/60/60 69/69/69 61/61/61
f 69/69/69 70/70/70 61/61/61
f 79/79/79 80/80/80 71/71/71
f 80/80/80 81/81/81 72/72/72
f 81/81/81 82/82/82 73/73/73
f 82/82/82 83/83/83 74/74/74
f 83/83/83 84/84/84 75/75/75
f 84/84/84 85/85/85 76/76/76
f 85/85/85 86/86/86 77/77/77
f 86/86/86 87/87/87 78/78/78
f 97/97/97 96/96/96 88/88/88
f 98/98/98 97/97/97 89/89/89
f 99/99/99 98/98/98 90/90/90
f 100/100/100 99/99/99 91/91/91
f 101/101/101 100/100/100 92/92/92
f 102/102/102 101/101/101 93/93/93
f 103/103/103 102/102/102 94/94/94
f 104/104/104 103/103/103 95/95/95
o handle_bail
usemtl SURF_Pipe_Matte
v 0.14000000357627868 0.3099999979883432 0.009999999776482582
v 0.14000000357627868 0.3099999979883432 -0.009999999776482582
v 0.14000000357627868 0.28999999843537805 0.009999999776482582
v 0.14000000357627868 0.28999999843537805 -0.009999999776482582
v -0.2 0.3099999979883432 -0.009999999776482582
v -0.2 0.3099999979883432 0.009999999776482582
v -0.2 0.28999999843537805 -0.009999999776482582
v -0.2 0.28999999843537805 0.009999999776482582
v -0.2 0.3099999979883432 -0.009999999776482582
v 0.14000000357627868 0.3099999979883432 -0.009999999776482582
v -0.2 0.3099999979883432 0.009999999776482582
v 0.14000000357627868 0.3099999979883432 0.009999999776482582
v -0.2 0.28999999843537805 0.009999999776482582
v 0.14000000357627868 0.28999999843537805 0.009999999776482582
v -0.2 0.28999999843537805 -0.009999999776482582
v 0.14000000357627868 0.28999999843537805 -0.009999999776482582
v -0.2 0.3099999979883432 0.009999999776482582
v 0.14000000357627868 0.3099999979883432 0.009999999776482582
v -0.2 0.28999999843537805 0.009999999776482582
v 0.14000000357627868 0.28999999843537805 0.009999999776482582
v 0.14000000357627868 0.3099999979883432 -0.009999999776482582
v -0.2 0.3099999979883432 -0.009999999776482582
v 0.14000000357627868 0.28999999843537805 -0.009999999776482582
v -0.2 0.28999999843537805 -0.009999999776482582
vt 0 1
vt 1 1
vt 0 0
vt 1 0
vt 0 1
vt 1 1
vt 0 0
vt 1 0
vt 0 1
vt 1 1
vt 0 0
vt 1 0
vt 0 1
vt 1 1
vt 0 0
vt 1 0
vt 0 1
vt 1 1
vt 0 0
vt 1 0
vt 0 1
vt 1 1
vt 0 0
vt 1 0
vn 1 0 0
vn 1 0 0
vn 1 0 0
vn 1 0 0
vn -1 0 0
vn -1 0 0
vn -1 0 0
vn -1 0 0
vn 0 1 0
vn 0 1 0
vn 0 1 0
vn 0 1 0
vn 0 -1 0
vn 0 -1 0
vn 0 -1 0
vn 0 -1 0
vn 0 0 1
vn 0 0 1
vn 0 0 1
vn 0 0 1
vn 0 0 -1
vn 0 0 -1
vn 0 0 -1
vn 0 0 -1
f 105/105/105 107/107/107 106/106/106
f 107/107/107 108/108/108 106/106/106
f 109/109/109 111/111/111 110/110/110
f 111/111/111 112/112/112 110/110/110
f 113/113/113 115/115/115 114/114/114
f 115/115/115 116/116/116 114/114/114
f 117/117/117 119/119/119 118/118/118
f 119/119/119 120/120/120 118/118/118
f 121/121/121 123/123/123 122/122/122
f 123/123/123 124/124/124 122/122/122
f 125/125/125 127/127/127 126/126/126
f 127/127/127 128/128/128 126/126/126
o mop_shaft
usemtl SURF_Wood_Dark
v -0.023927129873538885 1.2175716617644208 0.05600000075995922
v -0.0101268041258131 1.2188170554618851 0.04800000037997961
v -0.0101268041258131 1.2188170554618851 0.03199999962002039
v -0.023927129873538885 1.2175716617644208 0.02399999924004078
v -0.03772745562126467 1.2163262680669564 0.03199999962002039
v -0.03772745562126467 1.2163262680669564 0.04800000037997961
v -0.023927129873538892 1.2175716617644208 0.05600000075995922
v 0.08392713344981757 0.02242833465930061 0.05600000075995922
v 0.09772745919754336 0.023673728356764956 0.04800000037997961
v 0.09772745919754336 0.023673728356764956 0.03199999962002039
v 0.08392713344981757 0.02242833465930061 0.02399999924004078
v 0.07012680770209179 0.02118294096183626 0.03199999962002039
v 0.07012680770209179 0.02118294096183626 0.04800000037997961
v 0.08392713344981756 0.02242833465930061 0.05600000075995922
v -0.023927129873538885 1.2175716617644208 0.04
v -0.023927129873538885 1.2175716617644208 0.04
v -0.023927129873538885 1.2175716617644208 0.04
v -0.023927129873538885 1.2175716617644208 0.04
v -0.023927129873538885 1.2175716617644208 0.04
v -0.023927129873538885 1.2175716617644208 0.04
v -0.023927129873538885 1.2175716617644208 0.05600000075995922
v -0.0101268041258131 1.2188170554618851 0.04800000037997961
v -0.0101268041258131 1.2188170554618851 0.03199999962002039
v -0.023927129873538885 1.2175716617644208 0.02399999924004078
v -0.03772745562126467 1.2163262680669564 0.03199999962002039
v -0.03772745562126467 1.2163262680669564 0.04800000037997961
v -0.023927129873538892 1.2175716617644208 0.05600000075995922
v 0.08392713344981757 0.02242833465930061 0.04
v 0.08392713344981757 0.02242833465930061 0.04
v 0.08392713344981757 0.02242833465930061 0.04
v 0.08392713344981757 0.02242833465930061 0.04
v 0.08392713344981757 0.02242833465930061 0.04
v 0.08392713344981757 0.02242833465930061 0.04
v 0.08392713344981757 0.02242833465930061 0.05600000075995922
v 0.09772745919754336 0.023673728356764956 0.04800000037997961
v 0.09772745919754336 0.023673728356764956 0.03199999962002039
v 0.08392713344981757 0.02242833465930061 0.02399999924004078
v 0.07012680770209179 0.02118294096183626 0.03199999962002039
v 0.07012680770209179 0.02118294096183626 0.04800000037997961
v 0.08392713344981756 0.02242833465930061 0.05600000075995922
vt 0 1
vt 0.1666666716337204 1
vt 0.3333333432674408 1
vt 0.5 1
vt 0.6666666865348816 1
vt 0.8333333134651184 1
vt 1 1
vt 0 0
vt 0.1666666716337204 0
vt 0.3333333432674408 0
vt 0.5 0
vt 0.6666666865348816 0
vt 0.8333333134651184 0
vt 1 0
vt 0.5 0.5
vt 0.5 0.5
vt 0.5 0.5
vt 0.5 0.5
vt 0.5 0.5
vt 0.5 0.5
vt 1 0.5
vt 0.75 0.9330127239227295
vt 0.25 0.9330127239227295
vt 0 0.5
vt 0.25 0.0669872984290123
vt 0.75 0.0669872984290123
vt 1 0.5
vt 0.5 0.5
vt 0.5 0.5
vt 0.5 0.5
vt 0.5 0.5
vt 0.5 0.5
vt 0.5 0.5
vt 1 0.5
vt 0.75 0.0669872984290123
vt 0.25 0.0669872984290123
vt 0 0.5
vt 0.25 0.9330127239227295
vt 0.75 0.9330127239227295
vt 1 0.5
vn 0 0 1
vn 0.8625203638867486 0.07783710651150744 0.5000000067305869
vn 0.8625203638867486 0.07783710651150744 -0.5000000067305869
vn 1.2196903798067347e-16 1.100694823902654e-17 -1
vn -0.8625203638867486 -0.07783710651150744 -0.5000000067305869
vn -0.8625203638867486 -0.07783710651150744 0.5000000067305869
vn -2.4393807596134695e-16 -2.201389647805308e-17 1
vn 0 0 1
vn 0.8625203638867486 0.07783710651150744 0.5000000067305869
vn 0.8625203638867486 0.07783710651150744 -0.5000000067305869
vn 1.2196903798067347e-16 1.100694823902654e-17 -1
vn -0.8625203638867486 -0.07783710651150744 -0.5000000067305869
vn -0.8625203638867486 -0.07783710651150744 0.5000000067305869
vn -2.4393807596134695e-16 -2.201389647805308e-17 1
vn -0.08987854919801105 0.9959527330119943 0
vn -0.08987854919801105 0.9959527330119943 0
vn -0.08987854919801105 0.9959527330119943 0
vn -0.08987854919801105 0.9959527330119943 0
vn -0.08987854919801105 0.9959527330119943 0
vn -0.08987854919801105 0.9959527330119943 0
vn -0.08987854919801105 0.9959527330119943 0
vn -0.08987854919801105 0.9959527330119943 0
vn -0.08987854919801105 0.9959527330119943 0
vn -0.08987854919801105 0.9959527330119943 0
vn -0.08987854919801105 0.9959527330119943 0
vn -0.08987854919801105 0.9959527330119943 0
vn -0.08987854919801105 0.9959527330119943 0
vn 0.08987854919801105 -0.9959527330119943 0
vn 0.08987854919801105 -0.9959527330119943 0
vn 0.08987854919801105 -0.9959527330119943 0
vn 0.08987854919801105 -0.9959527330119943 0
vn 0.08987854919801105 -0.9959527330119943 0
vn 0.08987854919801105 -0.9959527330119943 0
vn 0.08987854919801105 -0.9959527330119943 0
vn 0.08987854919801105 -0.9959527330119943 0
vn 0.08987854919801105 -0.9959527330119943 0
vn 0.08987854919801105 -0.9959527330119943 0
vn 0.08987854919801105 -0.9959527330119943 0
vn 0.08987854919801105 -0.9959527330119943 0
vn 0.08987854919801105 -0.9959527330119943 0
f 129/129/129 136/136/136 130/130/130
f 136/136/136 137/137/137 130/130/130
f 130/130/130 137/137/137 131/131/131
f 137/137/137 138/138/138 131/131/131
f 131/131/131 138/138/138 132/132/132
f 138/138/138 139/139/139 132/132/132
f 132/132/132 139/139/139 133/133/133
f 139/139/139 140/140/140 133/133/133
f 133/133/133 140/140/140 134/134/134
f 140/140/140 141/141/141 134/134/134
f 134/134/134 141/141/141 135/135/135
f 141/141/141 142/142/142 135/135/135
f 149/149/149 150/150/150 143/143/143
f 150/150/150 151/151/151 144/144/144
f 151/151/151 152/152/152 145/145/145
f 152/152/152 153/153/153 146/146/146
f 153/153/153 154/154/154 147/147/147
f 154/154/154 155/155/155 148/148/148
f 163/163/163 162/162/162 156/156/156
f 164/164/164 163/163/163 157/157/157
f 165/165/165 164/164/164 158/158/158
f 166/166/166 165/165/165 159/159/159
f 167/167/167 166/166/166 160/160/160
f 168/168/168 167/167/167 161/161/161
o mop_head
usemtl SURF_Paper_Worn
v 0.2 0.1599999964237213 0.10000000074505806
v 0.2 0.1599999964237213 -7.450580569168253e-10
v 0.2 0 0.10000000074505806
v 0.2 0 -7.450580569168253e-10
v 0.040000003576278684 0.1599999964237213 -7.450580569168253e-10
v 0.040000003576278684 0.1599999964237213 0.10000000074505806
v 0.040000003576278684 0 -7.450580569168253e-10
v 0.040000003576278684 0 0.10000000074505806
v 0.040000003576278684 0.1599999964237213 -7.450580569168253e-10
v 0.2 0.1599999964237213 -7.450580569168253e-10
v 0.040000003576278684 0.1599999964237213 0.10000000074505806
v 0.2 0.1599999964237213 0.10000000074505806
v 0.040000003576278684 0 0.10000000074505806
v 0.2 0 0.10000000074505806
v 0.040000003576278684 0 -7.450580569168253e-10
v 0.2 0 -7.450580569168253e-10
v 0.040000003576278684 0.1599999964237213 0.10000000074505806
v 0.2 0.1599999964237213 0.10000000074505806
v 0.040000003576278684 0 0.10000000074505806
v 0.2 0 0.10000000074505806
v 0.2 0.1599999964237213 -7.450580569168253e-10
v 0.040000003576278684 0.1599999964237213 -7.450580569168253e-10
v 0.2 0 -7.450580569168253e-10
v 0.040000003576278684 0 -7.450580569168253e-10
vt 0 1
vt 1 1
vt 0 0
vt 1 0
vt 0 1
vt 1 1
vt 0 0
vt 1 0
vt 0 1
vt 1 1
vt 0 0
vt 1 0
vt 0 1
vt 1 1
vt 0 0
vt 1 0
vt 0 1
vt 1 1
vt 0 0
vt 1 0
vt 0 1
vt 1 1
vt 0 0
vt 1 0
vn 1 0 0
vn 1 0 0
vn 1 0 0
vn 1 0 0
vn -1 0 0
vn -1 0 0
vn -1 0 0
vn -1 0 0
vn 0 1 0
vn 0 1 0
vn 0 1 0
vn 0 1 0
vn 0 -1 0
vn 0 -1 0
vn 0 -1 0
vn 0 -1 0
vn 0 0 1
vn 0 0 1
vn 0 0 1
vn 0 0 1
vn 0 0 -1
vn 0 0 -1
vn 0 0 -1
vn 0 0 -1
f 169/169/169 171/171/171 170/170/170
f 171/171/171 172/172/172 170/170/170
f 173/173/173 175/175/175 174/174/174
f 175/175/175 176/176/176 174/174/174
f 177/177/177 179/179/179 178/178/178
f 179/179/179 180/180/180 178/178/178
f 181/181/181 183/183/183 182/182/182
f 183/183/183 184/184/184 182/182/182
f 185/185/185 187/187/187 186/186/186
f 187/187/187 188/188/188 186/186/186
f 189/189/189 191/191/191 190/190/190
f 191/191/191 192/192/192 190/190/190
