# SM_P2_Door_Classroom_A — Classroom door
# SC_P2_SCHOOL · group A
# bounds 1.00 × 0.09 × 2.19 m · 60 tris · UV island 72 × 56 px
# 1 unit = 1 m · pivot at floor contact, X/Z centred
mtllib SM_P2_Door_Classroom_A.mtl
o leaf
usemtl SURF_School_Wall
v 0.44999998807907104 2.0999999046325684 0.014999999441206453
v 0.44999998807907104 2.0999999046325684 -0.04499999921768904
v 0.44999998807907104 0 0.014999999441206453
v 0.44999998807907104 0 -0.04499999921768904
v -0.44999998807907104 2.0999999046325684 -0.04499999921768904
v -0.44999998807907104 2.0999999046325684 0.014999999441206453
v -0.44999998807907104 0 -0.04499999921768904
v -0.44999998807907104 0 0.014999999441206453
v -0.44999998807907104 2.0999999046325684 -0.04499999921768904
v 0.44999998807907104 2.0999999046325684 -0.04499999921768904
v -0.44999998807907104 2.0999999046325684 0.014999999441206453
v 0.44999998807907104 2.0999999046325684 0.014999999441206453
v -0.44999998807907104 0 0.014999999441206453
v 0.44999998807907104 0 0.014999999441206453
v -0.44999998807907104 0 -0.04499999921768904
v 0.44999998807907104 0 -0.04499999921768904
v -0.44999998807907104 2.0999999046325684 0.014999999441206453
v 0.44999998807907104 2.0999999046325684 0.014999999441206453
v -0.44999998807907104 0 0.014999999441206453
v 0.44999998807907104 0 0.014999999441206453
v 0.44999998807907104 2.0999999046325684 -0.04499999921768904
v -0.44999998807907104 2.0999999046325684 -0.04499999921768904
v 0.44999998807907104 0 -0.04499999921768904
v -0.44999998807907104 0 -0.04499999921768904
vt 0 1
vt 1 1
vt 0 0
vt 1 0
vt 0 1
vt 1 1
vt 0 0
vt 1 0
vt 0 1
vt 1 1
vt 0 0
vt 1 0
vt 0 1
vt 1 1
vt 0 0
vt 1 0
vt 0 1
vt 1 1
vt 0 0
vt 1 0
vt 0 1
vt 1 1
vt 0 0
vt 1 0
vn 1 0 0
vn 1 0 0
vn 1 0 0
vn 1 0 0
vn -1 0 0
vn -1 0 0
vn -1 0 0
vn -1 0 0
vn 0 1 0
vn 0 1 0
vn 0 1 0
vn 0 1 0
vn 0 -1 0
vn 0 -1 0
vn 0 -1 0
vn 0 -1 0
vn 0 0 1
vn 0 0 1
vn 0 0 1
vn 0 0 1
vn 0 0 -1
vn 0 0 -1
vn 0 0 -1
vn 0 0 -1
f 1/1/1 3/3/3 2/2/2
f 3/3/3 4/4/4 2/2/2
f 5/5/5 7/7/7 6/6/6
f 7/7/7 8/8/8 6/6/6
f 9/9/9 11/11/11 10/10/10
f 11/11/11 12/12/12 10/10/10
f 13/13/13 15/15/15 14/14/14
f 15/15/15 16/16/16 14/14/14
f 17/17/17 19/19/19 18/18/18
f 19/19/19 20/20/20 18/18/18
f 21/21/21 23/23/23 22/22/22
f 23/23/23 24/24/24 22/22/22
o vision_panel
usemtl SURF_Glass_Std
v 0.33999999731779096 1.8499999642372131 0.029999999888241292
v 0.33999999731779096 1.8499999642372131 0.010000000335276128
v 0.33999999731779096 1.2499999403953552 0.029999999888241292
v 0.33999999731779096 1.2499999403953552 0.010000000335276128
v 0.10000000268220902 1.8499999642372131 0.010000000335276128
v 0.10000000268220902 1.8499999642372131 0.029999999888241292
v 0.10000000268220902 1.2499999403953552 0.010000000335276128
v 0.10000000268220902 1.2499999403953552 0.029999999888241292
v 0.10000000268220902 1.8499999642372131 0.010000000335276128
v 0.33999999731779096 1.8499999642372131 0.010000000335276128
v 0.10000000268220902 1.8499999642372131 0.029999999888241292
v 0.33999999731779096 1.8499999642372131 0.029999999888241292
v 0.10000000268220902 1.2499999403953552 0.029999999888241292
v 0.33999999731779096 1.2499999403953552 0.029999999888241292
v 0.10000000268220902 1.2499999403953552 0.010000000335276128
v 0.33999999731779096 1.2499999403953552 0.010000000335276128
v 0.10000000268220902 1.8499999642372131 0.029999999888241292
v 0.33999999731779096 1.8499999642372131 0.029999999888241292
v 0.10000000268220902 1.2499999403953552 0.029999999888241292
v 0.33999999731779096 1.2499999403953552 0.029999999888241292
v 0.33999999731779096 1.8499999642372131 0.010000000335276128
v 0.10000000268220902 1.8499999642372131 0.010000000335276128
v 0.33999999731779096 1.2499999403953552 0.010000000335276128
v 0.10000000268220902 1.2499999403953552 0.010000000335276128
vt 0 1
vt 1 1
vt 0 0
vt 1 0
vt 0 1
vt 1 1
vt 0 0
vt 1 0
vt 0 1
vt 1 1
vt 0 0
vt 1 0
vt 0 1
vt 1 1
vt 0 0
vt 1 0
vt 0 1
vt 1 1
vt 0 0
vt 1 0
vt 0 1
vt 1 1
vt 0 0
vt 1 0
vn 1 0 0
vn 1 0 0
vn 1 0 0
vn 1 0 0
vn -1 0 0
vn -1 0 0
vn -1 0 0
vn -1 0 0
vn 0 1 0
vn 0 1 0
vn 0 1 0
vn 0 1 0
vn 0 -1 0
vn 0 -1 0
vn 0 -1 0
vn 0 -1 0
vn 0 0 1
vn 0 0 1
vn 0 0 1
vn 0 0 1
vn 0 0 -1
vn 0 0 -1
vn 0 0 -1
vn 0 0 -1
f 25/25/25 27/27/27 26/26/26
f 27/27/27 28/28/28 26/26/26
f 29/29/29 31/31/31 30/30/30
f 31/31/31 32/32/32 30/30/30
f 33/33/33 35/35/35 34/34/34
f 35/35/35 36/36/36 34/34/34
f 37/37/37 39/39/39 38/38/38
f 39/39/39 40/40/40 38/38/38
f 41/41/41 43/43/43 42/42/42
f 43/43/43 44/44/44 42/42/42
f 45/45/45 47/47/47 46/46/46
f 47/47/47 48/48/48 46/46/46
o kickplate
usemtl SURF_Pipe_Matte
v 0.44999998807907104 0.25499995231628414 0.032499999944120644
v 0.44999998807907104 0.25499995231628414 0.01750000027939677
v 0.44999998807907104 0.00499995231628414 0.032499999944120644
v 0.44999998807907104 0.00499995231628414 0.01750000027939677
v -0.44999998807907104 0.25499995231628414 0.01750000027939677
v -0.44999998807907104 0.25499995231628414 0.032499999944120644
v -0.44999998807907104 0.00499995231628414 0.01750000027939677
v -0.44999998807907104 0.00499995231628414 0.032499999944120644
v -0.44999998807907104 0.25499995231628414 0.01750000027939677
v 0.44999998807907104 0.25499995231628414 0.01750000027939677
v -0.44999998807907104 0.25499995231628414 0.032499999944120644
v 0.44999998807907104 0.25499995231628414 0.032499999944120644
v -0.44999998807907104 0.00499995231628414 0.032499999944120644
v 0.44999998807907104 0.00499995231628414 0.032499999944120644
v -0.44999998807907104 0.00499995231628414 0.01750000027939677
v 0.44999998807907104 0.00499995231628414 0.01750000027939677
v -0.44999998807907104 0.25499995231628414 0.032499999944120644
v 0.44999998807907104 0.25499995231628414 0.032499999944120644
v -0.44999998807907104 0.00499995231628414 0.032499999944120644
v 0.44999998807907104 0.00499995231628414 0.032499999944120644
v 0.44999998807907104 0.25499995231628414 0.01750000027939677
v -0.44999998807907104 0.25499995231628414 0.01750000027939677
v 0.44999998807907104 0.00499995231628414 0.01750000027939677
v -0.44999998807907104 0.00499995231628414 0.01750000027939677
vt 0 1
vt 1 1
vt 0 0
vt 1 0
vt 0 1
vt 1 1
vt 0 0
vt 1 0
vt 0 1
vt 1 1
vt 0 0
vt 1 0
vt 0 1
vt 1 1
vt 0 0
vt 1 0
vt 0 1
vt 1 1
vt 0 0
vt 1 0
vt 0 1
vt 1 1
vt 0 0
vt 1 0
vn 1 0 0
vn 1 0 0
vn 1 0 0
vn 1 0 0
vn -1 0 0
vn -1 0 0
vn -1 0 0
vn -1 0 0
vn 0 1 0
vn 0 1 0
vn 0 1 0
vn 0 1 0
vn 0 -1 0
vn 0 -1 0
vn 0 -1 0
vn 0 -1 0
vn 0 0 1
vn 0 0 1
vn 0 0 1
vn 0 0 1
vn 0 0 -1
vn 0 0 -1
vn 0 0 -1
vn 0 0 -1
f 49/49/49 51/51/51 50/50/50
f 51/51/51 52/52/52 50/50/50
f 53/53/53 55/55/55 54/54/54
f 55/55/55 56/56/56 54/54/54
f 57/57/57 59/59/59 58/58/58
f 59/59/59 60/60/60 58/58/58
f 61/61/61 63/63/63 62/62/62
f 63/63/63 64/64/64 62/62/62
f 65/65/65 67/67/67 66/66/66
f 67/67/67 68/68/68 66/66/66
f 69/69/69 71/71/71 70/70/70
f 71/71/71 72/72/72 70/70/70
o slide_rail
usemtl SURF_Pipe_Matte
v 0.5 2.1899999516457322 0.04499999921768903
v 0.5 2.1899999516457322 -0.034999998994171624
v 0.5 2.1299999529868368 0.04499999921768903
v 0.5 2.1299999529868368 -0.034999998994171624
v -0.5 2.1899999516457322 -0.034999998994171624
v -0.5 2.1899999516457322 0.04499999921768903
v -0.5 2.1299999529868368 -0.034999998994171624
v -0.5 2.1299999529868368 0.04499999921768903
v -0.5 2.1899999516457322 -0.034999998994171624
v 0.5 2.1899999516457322 -0.034999998994171624
v -0.5 2.1899999516457322 0.04499999921768903
v 0.5 2.1899999516457322 0.04499999921768903
v -0.5 2.1299999529868368 0.04499999921768903
v 0.5 2.1299999529868368 0.04499999921768903
v -0.5 2.1299999529868368 -0.034999998994171624
v 0.5 2.1299999529868368 -0.034999998994171624
v -0.5 2.1899999516457322 0.04499999921768903
v 0.5 2.1899999516457322 0.04499999921768903
v -0.5 2.1299999529868368 0.04499999921768903
v 0.5 2.1299999529868368 0.04499999921768903
v 0.5 2.1899999516457322 -0.034999998994171624
v -0.5 2.1899999516457322 -0.034999998994171624
v 0.5 2.1299999529868368 -0.034999998994171624
v -0.5 2.1299999529868368 -0.034999998994171624
vt 0 1
vt 1 1
vt 0 0
vt 1 0
vt 0 1
vt 1 1
vt 0 0
vt 1 0
vt 0 1
vt 1 1
vt 0 0
vt 1 0
vt 0 1
vt 1 1
vt 0 0
vt 1 0
vt 0 1
vt 1 1
vt 0 0
vt 1 0
vt 0 1
vt 1 1
vt 0 0
vt 1 0
vn 1 0 0
vn 1 0 0
vn 1 0 0
vn 1 0 0
vn -1 0 0
vn -1 0 0
vn -1 0 0
vn -1 0 0
vn 0 1 0
vn 0 1 0
vn 0 1 0
vn 0 1 0
vn 0 -1 0
vn 0 -1 0
vn 0 -1 0
vn 0 -1 0
vn 0 0 1
vn 0 0 1
vn 0 0 1
vn 0 0 1
vn 0 0 -1
vn 0 0 -1
vn 0 0 -1
vn 0 0 -1
f 73/73/73 75/75/75 74/74/74
f 75/75/75 76/76/76 74/74/74
f 77/77/77 79/79/79 78/78/78
f 79/79/79 80/80/80 78/78/78
f 81/81/81 83/83/83 82/82/82
f 83/83/83 84/84/84 82/82/82
f 85/85/85 87/87/87 86/86/86
f 87/87/87 88/88/88 86/86/86
f 89/89/89 91/91/91 90/90/90
f 91/91/91 92/92/92 90/90/90
f 93/93/93 95/95/95 94/94/94
f 95/95/95 96/96/96 94/94/94
o pull_recess
usemtl SURF_Wood_Dark
v -0.24999999925494193 1.1399999558925629 0.029999999888241292
v -0.24999999925494193 1.1399999558925629 0.010000000335276128
v -0.24999999925494193 0.9599999487400055 0.029999999888241292
v -0.24999999925494193 0.9599999487400055 0.010000000335276128
v -0.35000000074505805 1.1399999558925629 0.010000000335276128
v -0.35000000074505805 1.1399999558925629 0.029999999888241292
v -0.35000000074505805 0.9599999487400055 0.010000000335276128
v -0.35000000074505805 0.9599999487400055 0.029999999888241292
v -0.35000000074505805 1.1399999558925629 0.010000000335276128
v -0.24999999925494193 1.1399999558925629 0.010000000335276128
v -0.35000000074505805 1.1399999558925629 0.029999999888241292
v -0.24999999925494193 1.1399999558925629 0.029999999888241292
v -0.35000000074505805 0.9599999487400055 0.029999999888241292
v -0.24999999925494193 0.9599999487400055 0.029999999888241292
v -0.35000000074505805 0.9599999487400055 0.010000000335276128
v -0.24999999925494193 0.9599999487400055 0.010000000335276128
v -0.35000000074505805 1.1399999558925629 0.029999999888241292
v -0.24999999925494193 1.1399999558925629 0.029999999888241292
v -0.35000000074505805 0.9599999487400055 0.029999999888241292
v -0.24999999925494193 0.9599999487400055 0.029999999888241292
v -0.24999999925494193 1.1399999558925629 0.010000000335276128
v -0.35000000074505805 1.1399999558925629 0.010000000335276128
v -0.24999999925494193 0.9599999487400055 0.010000000335276128
v -0.35000000074505805 0.9599999487400055 0.010000000335276128
vt 0 1
vt 1 1
vt 0 0
vt 1 0
vt 0 1
vt 1 1
vt 0 0
vt 1 0
vt 0 1
vt 1 1
vt 0 0
vt 1 0
vt 0 1
vt 1 1
vt 0 0
vt 1 0
vt 0 1
vt 1 1
vt 0 0
vt 1 0
vt 0 1
vt 1 1
vt 0 0
vt 1 0
vn 1 0 0
vn 1 0 0
vn 1 0 0
vn 1 0 0
vn -1 0 0
vn -1 0 0
vn -1 0 0
vn -1 0 0
vn 0 1 0
vn 0 1 0
vn 0 1 0
vn 0 1 0
vn 0 -1 0
vn 0 -1 0
vn 0 -1 0
vn 0 -1 0
vn 0 0 1
vn 0 0 1
vn 0 0 1
vn 0 0 1
vn 0 0 -1
vn 0 0 -1
vn 0 0 -1
vn 0 0 -1
f 97/97/97 99/99/99 98/98/98
f 99/99/99 100/100/100 98/98/98
f 101/101/101 103/103/103 102/102/102
f 103/103/103 104/104/104 102/102/102
f 105/105/105 107/107/107 106/106/106
f 107/107/107 108/108/108 106/106/106
f 109/109/109 111/111/111 110/110/110
f 111/111/111 112/112/112 110/110/110
f 113/113/113 115/115/115 114/114/114
f 115/115/115 116/116/116 114/114/114
f 117/117/117 119/119/119 118/118/118
f 119/119/119 120/120/120 118/118/118
