# SM_P2_Stair_Rail_A — Stair rail
# SC_P2_SCHOOL · group A
# bounds 0.06 × 3.36 × 2.30 m · 108 tris · UV island 112 × 80 px
# 1 unit = 1 m · pivot at floor contact, X/Z centred
mtllib SM_P2_Stair_Rail_A.mtl
o handrail
usemtl SURF_Metal_Rust
v 0.029999999329447746 1.7765340174988131 1.4858471253805603
v 0.029999999329447746 0.17640595283449345 -1.514084678039671
v 0.029999999329447746 1.7235940471655065 1.514084678039671
v 0.029999999329447746 0.12346598250118679 -1.4858471253805603
v -0.029999999329447746 0.17640595283449345 -1.514084678039671
v -0.029999999329447746 1.7765340174988131 1.4858471253805603
v -0.029999999329447746 0.12346598250118679 -1.4858471253805603
v -0.029999999329447746 1.7235940471655065 1.514084678039671
v -0.029999999329447746 0.17640595283449345 -1.514084678039671
v 0.029999999329447746 0.17640595283449345 -1.514084678039671
v -0.029999999329447746 1.7765340174988131 1.4858471253805603
v 0.029999999329447746 1.7765340174988131 1.4858471253805603
v -0.029999999329447746 1.7235940471655065 1.514084678039671
v 0.029999999329447746 1.7235940471655065 1.514084678039671
v -0.029999999329447746 0.12346598250118679 -1.4858471253805603
v 0.029999999329447746 0.12346598250118679 -1.4858471253805603
v -0.029999999329447746 1.7765340174988131 1.4858471253805603
v 0.029999999329447746 1.7765340174988131 1.4858471253805603
v -0.029999999329447746 1.7235940471655065 1.514084678039671
v 0.029999999329447746 1.7235940471655065 1.514084678039671
v 0.029999999329447746 0.17640595283449345 -1.514084678039671
v -0.029999999329447746 0.17640595283449345 -1.514084678039671
v 0.029999999329447746 0.12346598250118679 -1.4858471253805603
v -0.029999999329447746 0.12346598250118679 -1.4858471253805603
vt 0 1
vt 1 1
vt 0 0
vt 1 0
vt 0 1
vt 1 1
vt 0 0
vt 1 0
vt 0 1
vt 1 1
vt 0 0
vt 1 0
vt 0 1
vt 1 1
vt 0 0
vt 1 0
vt 0 1
vt 1 1
vt 0 0
vt 1 0
vt 0 1
vt 1 1
vt 0 0
vt 1 0
vn 1 0 0
vn 1 0 0
vn 1 0 0
vn 1 0 0
vn -1 0 0
vn -1 0 0
vn -1 0 0
vn -1 0 0
vn 0 0.8823328586101215 -0.4706258881711581
vn 0 0.8823328586101215 -0.4706258881711581
vn 0 0.8823328586101215 -0.4706258881711581
vn 0 0.8823328586101215 -0.4706258881711581
vn 0 -0.8823328586101215 0.4706258881711581
vn 0 -0.8823328586101215 0.4706258881711581
vn 0 -0.8823328586101215 0.4706258881711581
vn 0 -0.8823328586101215 0.4706258881711581
vn 0 0.4706258881711581 0.8823328586101215
vn 0 0.4706258881711581 0.8823328586101215
vn 0 0.4706258881711581 0.8823328586101215
vn 0 0.4706258881711581 0.8823328586101215
vn 0 -0.4706258881711581 -0.8823328586101215
vn 0 -0.4706258881711581 -0.8823328586101215
vn 0 -0.4706258881711581 -0.8823328586101215
vn 0 -0.4706258881711581 -0.8823328586101215
f 1/1/1 3/3/3 2/2/2
f 3/3/3 4/4/4 2/2/2
f 5/5/5 7/7/7 6/6/6
f 7/7/7 8/8/8 6/6/6
f 9/9/9 11/11/11 10/10/10
f 11/11/11 12/12/12 10/10/10
f 13/13/13 15/15/15 14/14/14
f 15/15/15 16/16/16 14/14/14
f 17/17/17 19/19/19 18/18/18
f 19/19/19 20/20/20 18/18/18
f 21/21/21 23/23/23 22/22/22
f 23/23/23 24/24/24 22/22/22
o baluster_0
usemtl SURF_Metal_Rust
v 0.014999999664723873 0.899999988079071 -1.385000000335276
v 0.014999999664723873 0.899999988079071 -1.4149999996647238
v 0.014999999664723873 1.1920928966180355e-8 -1.385000000335276
v 0.014999999664723873 1.1920928966180355e-8 -1.4149999996647238
v -0.014999999664723873 0.899999988079071 -1.4149999996647238
v -0.014999999664723873 0.899999988079071 -1.385000000335276
v -0.014999999664723873 1.1920928966180355e-8 -1.4149999996647238
v -0.014999999664723873 1.1920928966180355e-8 -1.385000000335276
v -0.014999999664723873 0.899999988079071 -1.4149999996647238
v 0.014999999664723873 0.899999988079071 -1.4149999996647238
v -0.014999999664723873 0.899999988079071 -1.385000000335276
v 0.014999999664723873 0.899999988079071 -1.385000000335276
v -0.014999999664723873 1.1920928966180355e-8 -1.385000000335276
v 0.014999999664723873 1.1920928966180355e-8 -1.385000000335276
v -0.014999999664723873 1.1920928966180355e-8 -1.4149999996647238
v 0.014999999664723873 1.1920928966180355e-8 -1.4149999996647238
v -0.014999999664723873 0.899999988079071 -1.385000000335276
v 0.014999999664723873 0.899999988079071 -1.385000000335276
v -0.014999999664723873 1.1920928966180355e-8 -1.385000000335276
v 0.014999999664723873 1.1920928966180355e-8 -1.385000000335276
v 0.014999999664723873 0.899999988079071 -1.4149999996647238
v -0.014999999664723873 0.899999988079071 -1.4149999996647238
v 0.014999999664723873 1.1920928966180355e-8 -1.4149999996647238
v -0.014999999664723873 1.1920928966180355e-8 -1.4149999996647238
vt 0 1
vt 1 1
vt 0 0
vt 1 0
vt 0 1
vt 1 1
vt 0 0
vt 1 0
vt 0 1
vt 1 1
vt 0 0
vt 1 0
vt 0 1
vt 1 1
vt 0 0
vt 1 0
vt 0 1
vt 1 1
vt 0 0
vt 1 0
vt 0 1
vt 1 1
vt 0 0
vt 1 0
vn 1 0 0
vn 1 0 0
vn 1 0 0
vn 1 0 0
vn -1 0 0
vn -1 0 0
vn -1 0 0
vn -1 0 0
vn 0 1 0
vn 0 1 0
vn 0 1 0
vn 0 1 0
vn 0 -1 0
vn 0 -1 0
vn 0 -1 0
vn 0 -1 0
vn 0 0 1
vn 0 0 1
vn 0 0 1
vn 0 0 1
vn 0 0 -1
vn 0 0 -1
vn 0 0 -1
vn 0 0 -1
f 25/25/25 27/27/27 26/26/26
f 27/27/27 28/28/28 26/26/26
f 29/29/29 31/31/31 30/30/30
f 31/31/31 32/32/32 30/30/30
f 33/33/33 35/35/35 34/34/34
f 35/35/35 36/36/36 34/34/34
f 37/37/37 39/39/39 38/38/38
f 39/39/39 40/40/40 38/38/38
f 41/41/41 43/43/43 42/42/42
f 43/43/43 44/44/44 42/42/42
f 45/45/45 47/47/47 46/46/46
f 47/47/47 48/48/48 46/46/46
o baluster_1
usemtl SURF_Metal_Rust
v 0.014999999664723873 1.179999988079071 -0.825000000335276
v 0.014999999664723873 1.179999988079071 -0.8549999996647237
v 0.014999999664723873 0.28000001192092894 -0.825000000335276
v 0.014999999664723873 0.28000001192092894 -0.8549999996647237
v -0.014999999664723873 1.179999988079071 -0.8549999996647237
v -0.014999999664723873 1.179999988079071 -0.825000000335276
v -0.014999999664723873 0.28000001192092894 -0.8549999996647237
v -0.014999999664723873 0.28000001192092894 -0.825000000335276
v -0.014999999664723873 1.179999988079071 -0.8549999996647237
v 0.014999999664723873 1.179999988079071 -0.8549999996647237
v -0.014999999664723873 1.179999988079071 -0.825000000335276
v 0.014999999664723873 1.179999988079071 -0.825000000335276
v -0.014999999664723873 0.28000001192092894 -0.825000000335276
v 0.014999999664723873 0.28000001192092894 -0.825000000335276
v -0.014999999664723873 0.28000001192092894 -0.8549999996647237
v 0.014999999664723873 0.28000001192092894 -0.8549999996647237
v -0.014999999664723873 1.179999988079071 -0.825000000335276
v 0.014999999664723873 1.179999988079071 -0.825000000335276
v -0.014999999664723873 0.28000001192092894 -0.825000000335276
v 0.014999999664723873 0.28000001192092894 -0.825000000335276
v 0.014999999664723873 1.179999988079071 -0.8549999996647237
v -0.014999999664723873 1.179999988079071 -0.8549999996647237
v 0.014999999664723873 0.28000001192092894 -0.8549999996647237
v -0.014999999664723873 0.28000001192092894 -0.8549999996647237
vt 0 1
vt 1 1
vt 0 0
vt 1 0
vt 0 1
vt 1 1
vt 0 0
vt 1 0
vt 0 1
vt 1 1
vt 0 0
vt 1 0
vt 0 1
vt 1 1
vt 0 0
vt 1 0
vt 0 1
vt 1 1
vt 0 0
vt 1 0
vt 0 1
vt 1 1
vt 0 0
vt 1 0
vn 1 0 0
vn 1 0 0
vn 1 0 0
vn 1 0 0
vn -1 0 0
vn -1 0 0
vn -1 0 0
vn -1 0 0
vn 0 1 0
vn 0 1 0
vn 0 1 0
vn 0 1 0
vn 0 -1 0
vn 0 -1 0
vn 0 -1 0
vn 0 -1 0
vn 0 0 1
vn 0 0 1
vn 0 0 1
vn 0 0 1
vn 0 0 -1
vn 0 0 -1
vn 0 0 -1
vn 0 0 -1
f 49/49/49 51/51/51 50/50/50
f 51/51/51 52/52/52 50/50/50
f 53/53/53 55/55/55 54/54/54
f 55/55/55 56/56/56 54/54/54
f 57/57/57 59/59/59 58/58/58
f 59/59/59 60/60/60 58/58/58
f 61/61/61 63/63/63 62/62/62
f 63/63/63 64/64/64 62/62/62
f 65/65/65 67/67/67 66/66/66
f 67/67/67 68/68/68 66/66/66
f 69/69/69 71/71/71 70/70/70
f 71/71/71 72/72/72 70/70/70
o baluster_2
usemtl SURF_Metal_Rust
v 0.014999999664723873 1.459999988079071 -0.26500000033527593
v 0.014999999664723873 1.459999988079071 -0.2949999996647237
v 0.014999999664723873 0.560000011920929 -0.26500000033527593
v 0.014999999664723873 0.560000011920929 -0.2949999996647237
v -0.014999999664723873 1.459999988079071 -0.2949999996647237
v -0.014999999664723873 1.459999988079071 -0.26500000033527593
v -0.014999999664723873 0.560000011920929 -0.2949999996647237
v -0.014999999664723873 0.560000011920929 -0.26500000033527593
v -0.014999999664723873 1.459999988079071 -0.2949999996647237
v 0.014999999664723873 1.459999988079071 -0.2949999996647237
v -0.014999999664723873 1.459999988079071 -0.26500000033527593
v 0.014999999664723873 1.459999988079071 -0.26500000033527593
v -0.014999999664723873 0.560000011920929 -0.26500000033527593
v 0.014999999664723873 0.560000011920929 -0.26500000033527593
v -0.014999999664723873 0.560000011920929 -0.2949999996647237
v 0.014999999664723873 0.560000011920929 -0.2949999996647237
v -0.014999999664723873 1.459999988079071 -0.26500000033527593
v 0.014999999664723873 1.459999988079071 -0.26500000033527593
v -0.014999999664723873 0.560000011920929 -0.26500000033527593
v 0.014999999664723873 0.560000011920929 -0.26500000033527593
v 0.014999999664723873 1.459999988079071 -0.2949999996647237
v -0.014999999664723873 1.459999988079071 -0.2949999996647237
v 0.014999999664723873 0.560000011920929 -0.2949999996647237
v -0.014999999664723873 0.560000011920929 -0.2949999996647237
vt 0 1
vt 1 1
vt 0 0
vt 1 0
vt 0 1
vt 1 1
vt 0 0
vt 1 0
vt 0 1
vt 1 1
vt 0 0
vt 1 0
vt 0 1
vt 1 1
vt 0 0
vt 1 0
vt 0 1
vt 1 1
vt 0 0
vt 1 0
vt 0 1
vt 1 1
vt 0 0
vt 1 0
vn 1 0 0
vn 1 0 0
vn 1 0 0
vn 1 0 0
vn -1 0 0
vn -1 0 0
vn -1 0 0
vn -1 0 0
vn 0 1 0
vn 0 1 0
vn 0 1 0
vn 0 1 0
vn 0 -1 0
vn 0 -1 0
vn 0 -1 0
vn 0 -1 0
vn 0 0 1
vn 0 0 1
vn 0 0 1
vn 0 0 1
vn 0 0 -1
vn 0 0 -1
vn 0 0 -1
vn 0 0 -1
f 73/73/73 75/75/75 74/74/74
f 75/75/75 76/76/76 74/74/74
f 77/77/77 79/79/79 78/78/78
f 79/79/79 80/80/80 78/78/78
f 81/81/81 83/83/83 82/82/82
f 83/83/83 84/84/84 82/82/82
f 85/85/85 87/87/87 86/86/86
f 87/87/87 88/88/88 86/86/86
f 89/89/89 91/91/91 90/90/90
f 91/91/91 92/92/92 90/90/90
f 93/93/93 95/95/95 94/94/94
f 95/95/95 96/96/96 94/94/94
o baluster_3
usemtl SURF_Metal_Rust
v 0.014999999664723873 1.739999988079071 0.2949999996647241
v 0.014999999664723873 1.739999988079071 0.2650000003352764
v 0.014999999664723873 0.840000011920929 0.2949999996647241
v 0.014999999664723873 0.840000011920929 0.2650000003352764
v -0.014999999664723873 1.739999988079071 0.2650000003352764
v -0.014999999664723873 1.739999988079071 0.2949999996647241
v -0.014999999664723873 0.840000011920929 0.2650000003352764
v -0.014999999664723873 0.840000011920929 0.2949999996647241
v -0.014999999664723873 1.739999988079071 0.2650000003352764
v 0.014999999664723873 1.739999988079071 0.2650000003352764
v -0.014999999664723873 1.739999988079071 0.2949999996647241
v 0.014999999664723873 1.739999988079071 0.2949999996647241
v -0.014999999664723873 0.840000011920929 0.2949999996647241
v 0.014999999664723873 0.840000011920929 0.2949999996647241
v -0.014999999664723873 0.840000011920929 0.2650000003352764
v 0.014999999664723873 0.840000011920929 0.2650000003352764
v -0.014999999664723873 1.739999988079071 0.2949999996647241
v 0.014999999664723873 1.739999988079071 0.2949999996647241
v -0.014999999664723873 0.840000011920929 0.2949999996647241
v 0.014999999664723873 0.840000011920929 0.2949999996647241
v 0.014999999664723873 1.739999988079071 0.2650000003352764
v -0.014999999664723873 1.739999988079071 0.2650000003352764
v 0.014999999664723873 0.840000011920929 0.2650000003352764
v -0.014999999664723873 0.840000011920929 0.2650000003352764
vt 0 1
vt 1 1
vt 0 0
vt 1 0
vt 0 1
vt 1 1
vt 0 0
vt 1 0
vt 0 1
vt 1 1
vt 0 0
vt 1 0
vt 0 1
vt 1 1
vt 0 0
vt 1 0
vt 0 1
vt 1 1
vt 0 0
vt 1 0
vt 0 1
vt 1 1
vt 0 0
vt 1 0
vn 1 0 0
vn 1 0 0
vn 1 0 0
vn 1 0 0
vn -1 0 0
vn -1 0 0
vn -1 0 0
vn -1 0 0
vn 0 1 0
vn 0 1 0
vn 0 1 0
vn 0 1 0
vn 0 -1 0
vn 0 -1 0
vn 0 -1 0
vn 0 -1 0
vn 0 0 1
vn 0 0 1
vn 0 0 1
vn 0 0 1
vn 0 0 -1
vn 0 0 -1
vn 0 0 -1
vn 0 0 -1
f 97/97/97 99/99/99 98/98/98
f 99/99/99 100/100/100 98/98/98
f 101/101/101 103/103/103 102/102/102
f 103/103/103 104/104/104 102/102/102
f 105/105/105 107/107/107 106/106/106
f 107/107/107 108/108/108 106/106/106
f 109/109/109 111/111/111 110/110/110
f 111/111/111 112/112/112 110/110/110
f 113/113/113 115/115/115 114/114/114
f 115/115/115 116/116/116 114/114/114
f 117/117/117 119/119/119 118/118/118
f 119/119/119 120/120/120 118/118/118
o baluster_4
usemtl SURF_Metal_Rust
v 0.014999999664723873 2.0199999880790713 0.8549999996647242
v 0.014999999664723873 2.0199999880790713 0.8250000003352764
v 0.014999999664723873 1.120000011920929 0.8549999996647242
v 0.014999999664723873 1.120000011920929 0.8250000003352764
v -0.014999999664723873 2.0199999880790713 0.8250000003352764
v -0.014999999664723873 2.0199999880790713 0.8549999996647242
v -0.014999999664723873 1.120000011920929 0.8250000003352764
v -0.014999999664723873 1.120000011920929 0.8549999996647242
v -0.014999999664723873 2.0199999880790713 0.8250000003352764
v 0.014999999664723873 2.0199999880790713 0.8250000003352764
v -0.014999999664723873 2.0199999880790713 0.8549999996647242
v 0.014999999664723873 2.0199999880790713 0.8549999996647242
v -0.014999999664723873 1.120000011920929 0.8549999996647242
v 0.014999999664723873 1.120000011920929 0.8549999996647242
v -0.014999999664723873 1.120000011920929 0.8250000003352764
v 0.014999999664723873 1.120000011920929 0.8250000003352764
v -0.014999999664723873 2.0199999880790713 0.8549999996647242
v 0.014999999664723873 2.0199999880790713 0.8549999996647242
v -0.014999999664723873 1.120000011920929 0.8549999996647242
v 0.014999999664723873 1.120000011920929 0.8549999996647242
v 0.014999999664723873 2.0199999880790713 0.8250000003352764
v -0.014999999664723873 2.0199999880790713 0.8250000003352764
v 0.014999999664723873 1.120000011920929 0.8250000003352764
v -0.014999999664723873 1.120000011920929 0.8250000003352764
vt 0 1
vt 1 1
vt 0 0
vt 1 0
vt 0 1
vt 1 1
vt 0 0
vt 1 0
vt 0 1
vt 1 1
vt 0 0
vt 1 0
vt 0 1
vt 1 1
vt 0 0
vt 1 0
vt 0 1
vt 1 1
vt 0 0
vt 1 0
vt 0 1
vt 1 1
vt 0 0
vt 1 0
vn 1 0 0
vn 1 0 0
vn 1 0 0
vn 1 0 0
vn -1 0 0
vn -1 0 0
vn -1 0 0
vn -1 0 0
vn 0 1 0
vn 0 1 0
vn 0 1 0
vn 0 1 0
vn 0 -1 0
vn 0 -1 0
vn 0 -1 0
vn 0 -1 0
vn 0 0 1
vn 0 0 1
vn 0 0 1
vn 0 0 1
vn 0 0 -1
vn 0 0 -1
vn 0 0 -1
vn 0 0 -1
f 121/121/121 123/123/123 122/122/122
f 123/123/123 124/124/124 122/122/122
f 125/125/125 127/127/127 126/126/126
f 127/127/127 128/128/128 126/126/126
f 129/129/129 131/131/131 130/130/130
f 131/131/131 132/132/132 130/130/130
f 133/133/133 135/135/135 134/134/134
f 135/135/135 136/136/136 134/134/134
f 137/137/137 139/139/139 138/138/138
f 139/139/139 140/140/140 138/138/138
f 141/141/141 143/143/143 142/142/142
f 143/143/143 144/144/144 142/142/142
o baluster_5
usemtl SURF_Metal_Rust
v 0.014999999664723873 2.299999988079071 1.4149999996647242
v 0.014999999664723873 2.299999988079071 1.3850000003352765
v 0.014999999664723873 1.400000011920929 1.4149999996647242
v 0.014999999664723873 1.400000011920929 1.3850000003352765
v -0.014999999664723873 2.299999988079071 1.3850000003352765
v -0.014999999664723873 2.299999988079071 1.4149999996647242
v -0.014999999664723873 1.400000011920929 1.3850000003352765
v -0.014999999664723873 1.400000011920929 1.4149999996647242
v -0.014999999664723873 2.299999988079071 1.3850000003352765
v 0.014999999664723873 2.299999988079071 1.3850000003352765
v -0.014999999664723873 2.299999988079071 1.4149999996647242
v 0.014999999664723873 2.299999988079071 1.4149999996647242
v -0.014999999664723873 1.400000011920929 1.4149999996647242
v 0.014999999664723873 1.400000011920929 1.4149999996647242
v -0.014999999664723873 1.400000011920929 1.3850000003352765
v 0.014999999664723873 1.400000011920929 1.3850000003352765
v -0.014999999664723873 2.299999988079071 1.4149999996647242
v 0.014999999664723873 2.299999988079071 1.4149999996647242
v -0.014999999664723873 1.400000011920929 1.4149999996647242
v 0.014999999664723873 1.400000011920929 1.4149999996647242
v 0.014999999664723873 2.299999988079071 1.3850000003352765
v -0.014999999664723873 2.299999988079071 1.3850000003352765
v 0.014999999664723873 1.400000011920929 1.3850000003352765
v -0.014999999664723873 1.400000011920929 1.3850000003352765
vt 0 1
vt 1 1
vt 0 0
vt 1 0
vt 0 1
vt 1 1
vt 0 0
vt 1 0
vt 0 1
vt 1 1
vt 0 0
vt 1 0
vt 0 1
vt 1 1
vt 0 0
vt 1 0
vt 0 1
vt 1 1
vt 0 0
vt 1 0
vt 0 1
vt 1 1
vt 0 0
vt 1 0
vn 1 0 0
vn 1 0 0
vn 1 0 0
vn 1 0 0
vn -1 0 0
vn -1 0 0
vn -1 0 0
vn -1 0 0
vn 0 1 0
vn 0 1 0
vn 0 1 0
vn 0 1 0
vn 0 -1 0
vn 0 -1 0
vn 0 -1 0
vn 0 -1 0
vn 0 0 1
vn 0 0 1
vn 0 0 1
vn 0 0 1
vn 0 0 -1
vn 0 0 -1
vn 0 0 -1
vn 0 0 -1
f 145/145/145 147/147/147 146/146/146
f 147/147/147 148/148/148 146/146/146
f 149/149/149 151/151/151 150/150/150
f 151/151/151 152/152/152 150/150/150
f 153/153/153 155/155/155 154/154/154
f 155/155/155 156/156/156 154/154/154
f 157/157/157 159/159/159 158/158/158
f 159/159/159 160/160/160 158/158/158
f 161/161/161 163/163/163 162/162/162
f 163/163/163 164/164/164 162/162/162
f 165/165/165 167/167/167 166/166/166
f 167/167/167 168/168/168 166/166/166
o newel_low
usemtl SURF_Metal_Rust
v 0.029999999329447746 1 -1.6200000006705522
v 0.029999999329447746 1 -1.6799999993294477
v 0.029999999329447746 0 -1.6200000006705522
v 0.029999999329447746 0 -1.6799999993294477
v -0.029999999329447746 1 -1.6799999993294477
v -0.029999999329447746 1 -1.6200000006705522
v -0.029999999329447746 0 -1.6799999993294477
v -0.029999999329447746 0 -1.6200000006705522
v -0.029999999329447746 1 -1.6799999993294477
v 0.029999999329447746 1 -1.6799999993294477
v -0.029999999329447746 1 -1.6200000006705522
v 0.029999999329447746 1 -1.6200000006705522
v -0.029999999329447746 0 -1.6200000006705522
v 0.029999999329447746 0 -1.6200000006705522
v -0.029999999329447746 0 -1.6799999993294477
v 0.029999999329447746 0 -1.6799999993294477
v -0.029999999329447746 1 -1.6200000006705522
v 0.029999999329447746 1 -1.6200000006705522
v -0.029999999329447746 0 -1.6200000006705522
v 0.029999999329447746 0 -1.6200000006705522
v 0.029999999329447746 1 -1.6799999993294477
v -0.029999999329447746 1 -1.6799999993294477
v 0.029999999329447746 0 -1.6799999993294477
v -0.029999999329447746 0 -1.6799999993294477
vt 0 1
vt 1 1
vt 0 0
vt 1 0
vt 0 1
vt 1 1
vt 0 0
vt 1 0
vt 0 1
vt 1 1
vt 0 0
vt 1 0
vt 0 1
vt 1 1
vt 0 0
vt 1 0
vt 0 1
vt 1 1
vt 0 0
vt 1 0
vt 0 1
vt 1 1
vt 0 0
vt 1 0
vn 1 0 0
vn 1 0 0
vn 1 0 0
vn 1 0 0
vn -1 0 0
vn -1 0 0
vn -1 0 0
vn -1 0 0
vn 0 1 0
vn 0 1 0
vn 0 1 0
vn 0 1 0
vn 0 -1 0
vn 0 -1 0
vn 0 -1 0
vn 0 -1 0
vn 0 0 1
vn 0 0 1
vn 0 0 1
vn 0 0 1
vn 0 0 -1
vn 0 0 -1
vn 0 0 -1
vn 0 0 -1
f 169/169/169 171/171/171 170/170/170
f 171/171/171 172/172/172 170/170/170
f 173/173/173 175/175/175 174/174/174
f 175/175/175 176/176/176 174/174/174
f 177/177/177 179/179/179 178/178/178
f 179/179/179 180/180/180 178/178/178
f 181/181/181 183/183/183 182/182/182
f 183/183/183 184/184/184 182/182/182
f 185/185/185 187/187/187 186/186/186
f 187/187/187 188/188/188 186/186/186
f 189/189/189 191/191/191 190/190/190
f 191/191/191 192/192/192 190/190/190
o newel_high
usemtl SURF_Metal_Rust
v 0.029999999329447746 2 1.6799999993294477
v 0.029999999329447746 2 1.6200000006705522
v 0.029999999329447746 1 1.6799999993294477
v 0.029999999329447746 1 1.6200000006705522
v -0.029999999329447746 2 1.6200000006705522
v -0.029999999329447746 2 1.6799999993294477
v -0.029999999329447746 1 1.6200000006705522
v -0.029999999329447746 1 1.6799999993294477
v -0.029999999329447746 2 1.6200000006705522
v 0.029999999329447746 2 1.6200000006705522
v -0.029999999329447746 2 1.6799999993294477
v 0.029999999329447746 2 1.6799999993294477
v -0.029999999329447746 1 1.6799999993294477
v 0.029999999329447746 1 1.6799999993294477
v -0.029999999329447746 1 1.6200000006705522
v 0.029999999329447746 1 1.6200000006705522
v -0.029999999329447746 2 1.6799999993294477
v 0.029999999329447746 2 1.6799999993294477
v -0.029999999329447746 1 1.6799999993294477
v 0.029999999329447746 1 1.6799999993294477
v 0.029999999329447746 2 1.6200000006705522
v -0.029999999329447746 2 1.6200000006705522
v 0.029999999329447746 1 1.6200000006705522
v -0.029999999329447746 1 1.6200000006705522
vt 0 1
vt 1 1
vt 0 0
vt 1 0
vt 0 1
vt 1 1
vt 0 0
vt 1 0
vt 0 1
vt 1 1
vt 0 0
vt 1 0
vt 0 1
vt 1 1
vt 0 0
vt 1 0
vt 0 1
vt 1 1
vt 0 0
vt 1 0
vt 0 1
vt 1 1
vt 0 0
vt 1 0
vn 1 0 0
vn 1 0 0
vn 1 0 0
vn 1 0 0
vn -1 0 0
vn -1 0 0
vn -1 0 0
vn -1 0 0
vn 0 1 0
vn 0 1 0
vn 0 1 0
vn 0 1 0
vn 0 -1 0
vn 0 -1 0
vn 0 -1 0
vn 0 -1 0
vn 0 0 1
vn 0 0 1
vn 0 0 1
vn 0 0 1
vn 0 0 -1
vn 0 0 -1
vn 0 0 -1
vn 0 0 -1
f 193/193/193 195/195/195 194/194/194
f 195/195/195 196/196/196 194/194/194
f 197/197/197 199/199/199 198/198/198
f 199/199/199 200/200/200 198/198/198
f 201/201/201 203/203/203 202/202/202
f 203/203/203 204/204/204 202/202/202
f 205/205/205 207/207/207 206/206/206
f 207/207/207 208/208/208 206/206/206
f 209/209/209 211/211/211 210/210/210
f 211/211/211 212/212/212 210/210/210
f 213/213/213 215/215/215 214/214/214
f 215/215/215 216/216/216 214/214/214
