# SM_P2_Door_Clinic_A — Clinic door
# SC_P2_SCHOOL · group A
# bounds 0.90 × 0.12 × 2.10 m · 80 tris · UV island 72 × 56 px
# 1 unit = 1 m · pivot at floor contact, X/Z centred
mtllib SM_P2_Door_Clinic_A.mtl
o leaf
usemtl SURF_School_Wall
v 0.44999998807907104 2.0999999046325684 0.0009999993816018071
v 0.44999998807907104 2.0999999046325684 -0.058999999277293685
v 0.44999998807907104 0 0.0009999993816018071
v 0.44999998807907104 0 -0.058999999277293685
v -0.44999998807907104 2.0999999046325684 -0.058999999277293685
v -0.44999998807907104 2.0999999046325684 0.0009999993816018071
v -0.44999998807907104 0 -0.058999999277293685
v -0.44999998807907104 0 0.0009999993816018071
v -0.44999998807907104 2.0999999046325684 -0.058999999277293685
v 0.44999998807907104 2.0999999046325684 -0.058999999277293685
v -0.44999998807907104 2.0999999046325684 0.0009999993816018071
v 0.44999998807907104 2.0999999046325684 0.0009999993816018071
v -0.44999998807907104 0 0.0009999993816018071
v 0.44999998807907104 0 0.0009999993816018071
v -0.44999998807907104 0 -0.058999999277293685
v 0.44999998807907104 0 -0.058999999277293685
v -0.44999998807907104 2.0999999046325684 0.0009999993816018071
v 0.44999998807907104 2.0999999046325684 0.0009999993816018071
v -0.44999998807907104 0 0.0009999993816018071
v 0.44999998807907104 0 0.0009999993816018071
v 0.44999998807907104 2.0999999046325684 -0.058999999277293685
v -0.44999998807907104 2.0999999046325684 -0.058999999277293685
v 0.44999998807907104 0 -0.058999999277293685
v -0.44999998807907104 0 -0.058999999277293685
vt 0 1
vt 1 1
vt 0 0
vt 1 0
vt 0 1
vt 1 1
vt 0 0
vt 1 0
vt 0 1
vt 1 1
vt 0 0
vt 1 0
vt 0 1
vt 1 1
vt 0 0
vt 1 0
vt 0 1
vt 1 1
vt 0 0
vt 1 0
vt 0 1
vt 1 1
vt 0 0
vt 1 0
vn 1 0 0
vn 1 0 0
vn 1 0 0
vn 1 0 0
vn -1 0 0
vn -1 0 0
vn -1 0 0
vn -1 0 0
vn 0 1 0
vn 0 1 0
vn 0 1 0
vn 0 1 0
vn 0 -1 0
vn 0 -1 0
vn 0 -1 0
vn 0 -1 0
vn 0 0 1
vn 0 0 1
vn 0 0 1
vn 0 0 1
vn 0 0 -1
vn 0 0 -1
vn 0 0 -1
vn 0 0 -1
f 1/1/1 3/3/3 2/2/2
f 3/3/3 4/4/4 2/2/2
f 5/5/5 7/7/7 6/6/6
f 7/7/7 8/8/8 6/6/6
f 9/9/9 11/11/11 10/10/10
f 11/11/11 12/12/12 10/10/10
f 13/13/13 15/15/15 14/14/14
f 15/15/15 16/16/16 14/14/14
f 17/17/17 19/19/19 18/18/18
f 19/19/19 20/20/20 18/18/18
f 21/21/21 23/23/23 22/22/22
f 23/23/23 24/24/24 22/22/22
o vision_panel
usemtl SURF_Glass_Std
v 0.25 1.8999999552965163 0.015999999828636646
v 0.25 1.8999999552965163 -0.003999999724328518
v 0.25 1.4999999493360519 0.015999999828636646
v 0.25 1.4999999493360519 -0.003999999724328518
v -0.25 1.8999999552965163 -0.003999999724328518
v -0.25 1.8999999552965163 0.015999999828636646
v -0.25 1.4999999493360519 -0.003999999724328518
v -0.25 1.4999999493360519 0.015999999828636646
v -0.25 1.8999999552965163 -0.003999999724328518
v 0.25 1.8999999552965163 -0.003999999724328518
v -0.25 1.8999999552965163 0.015999999828636646
v 0.25 1.8999999552965163 0.015999999828636646
v -0.25 1.4999999493360519 0.015999999828636646
v 0.25 1.4999999493360519 0.015999999828636646
v -0.25 1.4999999493360519 -0.003999999724328518
v 0.25 1.4999999493360519 -0.003999999724328518
v -0.25 1.8999999552965163 0.015999999828636646
v 0.25 1.8999999552965163 0.015999999828636646
v -0.25 1.4999999493360519 0.015999999828636646
v 0.25 1.4999999493360519 0.015999999828636646
v 0.25 1.8999999552965163 -0.003999999724328518
v -0.25 1.8999999552965163 -0.003999999724328518
v 0.25 1.4999999493360519 -0.003999999724328518
v -0.25 1.4999999493360519 -0.003999999724328518
vt 0 1
vt 1 1
vt 0 0
vt 1 0
vt 0 1
vt 1 1
vt 0 0
vt 1 0
vt 0 1
vt 1 1
vt 0 0
vt 1 0
vt 0 1
vt 1 1
vt 0 0
vt 1 0
vt 0 1
vt 1 1
vt 0 0
vt 1 0
vt 0 1
vt 1 1
vt 0 0
vt 1 0
vn 1 0 0
vn 1 0 0
vn 1 0 0
vn 1 0 0
vn -1 0 0
vn -1 0 0
vn -1 0 0
vn -1 0 0
vn 0 1 0
vn 0 1 0
vn 0 1 0
vn 0 1 0
vn 0 -1 0
vn 0 -1 0
vn 0 -1 0
vn 0 -1 0
vn 0 0 1
vn 0 0 1
vn 0 0 1
vn 0 0 1
vn 0 0 -1
vn 0 0 -1
vn 0 0 -1
vn 0 0 -1
f 25/25/25 27/27/27 26/26/26
f 27/27/27 28/28/28 26/26/26
f 29/29/29 31/31/31 30/30/30
f 31/31/31 32/32/32 30/30/30
f 33/33/33 35/35/35 34/34/34
f 35/35/35 36/36/36 34/34/34
f 37/37/37 39/39/39 38/38/38
f 39/39/39 40/40/40 38/38/38
f 41/41/41 43/43/43 42/42/42
f 43/43/43 44/44/44 42/42/42
f 45/45/45 47/47/47 46/46/46
f 47/47/47 48/48/48 46/46/46
o sign_plate
usemtl SURF_Paper_Worn
v 0.15000000596046448 1.4099999509751797 0.018499999884515998
v 0.15000000596046448 1.4099999509751797 0.003500000219792125
v 0.15000000596046448 1.2899999536573887 0.018499999884515998
v 0.15000000596046448 1.2899999536573887 0.003500000219792125
v -0.15000000596046448 1.4099999509751797 0.003500000219792125
v -0.15000000596046448 1.4099999509751797 0.018499999884515998
v -0.15000000596046448 1.2899999536573887 0.003500000219792125
v -0.15000000596046448 1.2899999536573887 0.018499999884515998
v -0.15000000596046448 1.4099999509751797 0.003500000219792125
v 0.15000000596046448 1.4099999509751797 0.003500000219792125
v -0.15000000596046448 1.4099999509751797 0.018499999884515998
v 0.15000000596046448 1.4099999509751797 0.018499999884515998
v -0.15000000596046448 1.2899999536573887 0.018499999884515998
v 0.15000000596046448 1.2899999536573887 0.018499999884515998
v -0.15000000596046448 1.2899999536573887 0.003500000219792125
v 0.15000000596046448 1.2899999536573887 0.003500000219792125
v -0.15000000596046448 1.4099999509751797 0.018499999884515998
v 0.15000000596046448 1.4099999509751797 0.018499999884515998
v -0.15000000596046448 1.2899999536573887 0.018499999884515998
v 0.15000000596046448 1.2899999536573887 0.018499999884515998
v 0.15000000596046448 1.4099999509751797 0.003500000219792125
v -0.15000000596046448 1.4099999509751797 0.003500000219792125
v 0.15000000596046448 1.2899999536573887 0.003500000219792125
v -0.15000000596046448 1.2899999536573887 0.003500000219792125
vt 0 1
vt 1 1
vt 0 0
vt 1 0
vt 0 1
vt 1 1
vt 0 0
vt 1 0
vt 0 1
vt 1 1
vt 0 0
vt 1 0
vt 0 1
vt 1 1
vt 0 0
vt 1 0
vt 0 1
vt 1 1
vt 0 0
vt 1 0
vt 0 1
vt 1 1
vt 0 0
vt 1 0
vn 1 0 0
vn 1 0 0
vn 1 0 0
vn 1 0 0
vn -1 0 0
vn -1 0 0
vn -1 0 0
vn -1 0 0
vn 0 1 0
vn 0 1 0
vn 0 1 0
vn 0 1 0
vn 0 -1 0
vn 0 -1 0
vn 0 -1 0
vn 0 -1 0
vn 0 0 1
vn 0 0 1
vn 0 0 1
vn 0 0 1
vn 0 0 -1
vn 0 0 -1
vn 0 0 -1
vn 0 0 -1
f 49/49/49 51/51/51 50/50/50
f 51/51/51 52/52/52 50/50/50
f 53/53/53 55/55/55 54/54/54
f 55/55/55 56/56/56 54/54/54
f 57/57/57 59/59/59 58/58/58
f 59/59/59 60/60/60 58/58/58
f 61/61/61 63/63/63 62/62/62
f 63/63/63 64/64/64 62/62/62
f 65/65/65 67/67/67 66/66/66
f 67/67/67 68/68/68 66/66/66
f 69/69/69 71/71/71 70/70/70
f 71/71/71 72/72/72 70/70/70
o kickplate
usemtl SURF_Pipe_Matte
v 0.44999998807907104 0.25499995231628414 0.018499999884515998
v 0.44999998807907104 0.25499995231628414 0.003500000219792125
v 0.44999998807907104 0.00499995231628414 0.018499999884515998
v 0.44999998807907104 0.00499995231628414 0.003500000219792125
v -0.44999998807907104 0.25499995231628414 0.003500000219792125
v -0.44999998807907104 0.25499995231628414 0.018499999884515998
v -0.44999998807907104 0.00499995231628414 0.003500000219792125
v -0.44999998807907104 0.00499995231628414 0.018499999884515998
v -0.44999998807907104 0.25499995231628414 0.003500000219792125
v 0.44999998807907104 0.25499995231628414 0.003500000219792125
v -0.44999998807907104 0.25499995231628414 0.018499999884515998
v 0.44999998807907104 0.25499995231628414 0.018499999884515998
v -0.44999998807907104 0.00499995231628414 0.018499999884515998
v 0.44999998807907104 0.00499995231628414 0.018499999884515998
v -0.44999998807907104 0.00499995231628414 0.003500000219792125
v 0.44999998807907104 0.00499995231628414 0.003500000219792125
v -0.44999998807907104 0.25499995231628414 0.018499999884515998
v 0.44999998807907104 0.25499995231628414 0.018499999884515998
v -0.44999998807907104 0.00499995231628414 0.018499999884515998
v 0.44999998807907104 0.00499995231628414 0.018499999884515998
v 0.44999998807907104 0.25499995231628414 0.003500000219792125
v -0.44999998807907104 0.25499995231628414 0.003500000219792125
v 0.44999998807907104 0.00499995231628414 0.003500000219792125
v -0.44999998807907104 0.00499995231628414 0.003500000219792125
vt 0 1
vt 1 1
vt 0 0
vt 1 0
vt 0 1
vt 1 1
vt 0 0
vt 1 0
vt 0 1
vt 1 1
vt 0 0
vt 1 0
vt 0 1
vt 1 1
vt 0 0
vt 1 0
vt 0 1
vt 1 1
vt 0 0
vt 1 0
vt 0 1
vt 1 1
vt 0 0
vt 1 0
vn 1 0 0
vn 1 0 0
vn 1 0 0
vn 1 0 0
vn -1 0 0
vn -1 0 0
vn -1 0 0
vn -1 0 0
vn 0 1 0
vn 0 1 0
vn 0 1 0
vn 0 1 0
vn 0 -1 0
vn 0 -1 0
vn 0 -1 0
vn 0 -1 0
vn 0 0 1
vn 0 0 1
vn 0 0 1
vn 0 0 1
vn 0 0 -1
vn 0 0 -1
vn 0 0 -1
vn 0 0 -1
f 73/73/73 75/75/75 74/74/74
f 75/75/75 76/76/76 74/74/74
f 77/77/77 79/79/79 78/78/78
f 79/79/79 80/80/80 78/78/78
f 81/81/81 83/83/83 82/82/82
f 83/83/83 84/84/84 82/82/82
f 85/85/85 87/87/87 86/86/86
f 87/87/87 88/88/88 86/86/86
f 89/89/89 91/91/91 90/90/90
f 91/91/91 92/92/92 90/90/90
f 93/93/93 95/95/95 94/94/94
f 95/95/95 96/96/96 94/94/94
o lever_handle
usemtl SURF_Pipe_Matte
v 0.2550000023841858 1.0199999523162842 0.058999999277293685
v 0.2550000023841858 1.0327278741449117 0.053727921880781654
v 0.2550000023841858 1.0379999515414238 0.04100000005215407
v 0.2550000023841858 1.0327278741449117 0.02827207822352648
v 0.2550000023841858 1.0199999523162842 0.02300000082701445
v 0.2550000023841858 1.0072720304876566 0.02827207822352648
v 0.2550000023841858 1.0019999530911445 0.04100000005215407
v 0.2550000023841858 1.0072720304876566 0.053727921880781654
v 0.2550000023841858 1.0199999523162842 0.058999999277293685
v 0.3849999976158142 1.0199999523162842 0.058999999277293685
v 0.3849999976158142 1.0327278741449117 0.053727921880781654
v 0.3849999976158142 1.0379999515414238 0.04100000005215407
v 0.3849999976158142 1.0327278741449117 0.02827207822352648
v 0.3849999976158142 1.0199999523162842 0.02300000082701445
v 0.3849999976158142 1.0072720304876566 0.02827207822352648
v 0.3849999976158142 1.0019999530911445 0.04100000005215407
v 0.3849999976158142 1.0072720304876566 0.053727921880781654
v 0.3849999976158142 1.0199999523162842 0.058999999277293685
v 0.2550000023841858 1.0199999523162842 0.04100000005215407
v 0.2550000023841858 1.0199999523162842 0.04100000005215407
v 0.2550000023841858 1.0199999523162842 0.04100000005215407
v 0.2550000023841858 1.0199999523162842 0.04100000005215407
v 0.2550000023841858 1.0199999523162842 0.04100000005215407
v 0.2550000023841858 1.0199999523162842 0.04100000005215407
v 0.2550000023841858 1.0199999523162842 0.04100000005215407
v 0.2550000023841858 1.0199999523162842 0.04100000005215407
v 0.2550000023841858 1.0199999523162842 0.058999999277293685
v 0.2550000023841858 1.0327278741449117 0.053727921880781654
v 0.2550000023841858 1.0379999515414238 0.04100000005215407
v 0.2550000023841858 1.0327278741449117 0.02827207822352648
v 0.2550000023841858 1.0199999523162842 0.02300000082701445
v 0.2550000023841858 1.0072720304876566 0.02827207822352648
v 0.2550000023841858 1.0019999530911445 0.04100000005215407
v 0.2550000023841858 1.0072720304876566 0.053727921880781654
v 0.2550000023841858 1.0199999523162842 0.058999999277293685
v 0.3849999976158142 1.0199999523162842 0.04100000005215407
v 0.3849999976158142 1.0199999523162842 0.04100000005215407
v 0.3849999976158142 1.0199999523162842 0.04100000005215407
v 0.3849999976158142 1.0199999523162842 0.04100000005215407
v 0.3849999976158142 1.0199999523162842 0.04100000005215407
v 0.3849999976158142 1.0199999523162842 0.04100000005215407
v 0.3849999976158142 1.0199999523162842 0.04100000005215407
v 0.3849999976158142 1.0199999523162842 0.04100000005215407
v 0.3849999976158142 1.0199999523162842 0.058999999277293685
v 0.3849999976158142 1.0327278741449117 0.053727921880781654
v 0.3849999976158142 1.0379999515414238 0.04100000005215407
v 0.3849999976158142 1.0327278741449117 0.02827207822352648
v 0.3849999976158142 1.0199999523162842 0.02300000082701445
v 0.3849999976158142 1.0072720304876566 0.02827207822352648
v 0.3849999976158142 1.0019999530911445 0.04100000005215407
v 0.3849999976158142 1.0072720304876566 0.053727921880781654
v 0.3849999976158142 1.0199999523162842 0.058999999277293685
vt 0 1
vt 0.125 1
vt 0.25 1
vt 0.375 1
vt 0.5 1
vt 0.625 1
vt 0.75 1
vt 0.875 1
vt 1 1
vt 0 0
vt 0.125 0
vt 0.25 0
vt 0.375 0
vt 0.5 0
vt 0.625 0
vt 0.75 0
vt 0.875 0
vt 1 0
vt 0.5 0.5
vt 0.5 0.5
vt 0.5 0.5
vt 0.5 0.5
vt 0.5 0.5
vt 0.5 0.5
vt 0.5 0.5
vt 0.5 0.5
vt 1 0.5
vt 0.8535534143447876 0.8535534143447876
vt 0.5 1
vt 0.1464466154575348 0.8535534143447876
vt 0 0.5
vt 0.1464466154575348 0.1464466154575348
vt 0.5 0
vt 0.8535534143447876 0.1464466154575348
vt 1 0.5
vt 0.5 0.5
vt 0.5 0.5
vt 0.5 0.5
vt 0.5 0.5
vt 0.5 0.5
vt 0.5 0.5
vt 0.5 0.5
vt 0.5 0.5
vt 1 0.5
vt 0.8535534143447876 0.1464466154575348
vt 0.5 0
vt 0.1464466154575348 0.1464466154575348
vt 0 0.5
vt 0.1464466154575348 0.8535534143447876
vt 0.5 1
vt 0.8535534143447876 0.8535534143447876
vt 1 0.5
vn 0 0 1
vn -1.5700924586837744e-16 0.7071067811865475 0.7071067811865476
vn -2.2204460492503126e-16 1 6.12323426292584e-17
vn -1.5700924586837744e-16 0.7071067811865475 -0.7071067811865476
vn -2.7192622655495654e-32 1.2246468525851676e-16 -1
vn 1.5700924586837744e-16 -0.7071067811865475 -0.7071067811865476
vn 2.2204460492503126e-16 -1 -1.8369701465288543e-16
vn 1.5700924586837744e-16 -0.7071067811865475 0.7071067811865476
vn 5.438524531099131e-32 -2.449293705170335e-16 1
vn 0 0 1
vn -1.5700924586837744e-16 0.7071067811865475 0.7071067811865476
vn -2.2204460492503126e-16 1 6.12323426292584e-17
vn -1.5700924586837744e-16 0.7071067811865475 -0.7071067811865476
vn -2.7192622655495654e-32 1.2246468525851676e-16 -1
vn 1.5700924586837744e-16 -0.7071067811865475 -0.7071067811865476
vn 2.2204460492503126e-16 -1 -1.8369701465288543e-16
vn 1.5700924586837744e-16 -0.7071067811865475 0.7071067811865476
vn 5.438524531099131e-32 -2.449293705170335e-16 1
vn -1 -2.2204460492503126e-16 0
vn -1 -2.2204460492503126e-16 0
vn -1 -2.2204460492503126e-16 0
vn -1 -2.2204460492503126e-16 0
vn -1 -2.2204460492503126e-16 0
vn -1 -2.2204460492503126e-16 0
vn -1 -2.2204460492503126e-16 0
vn -1 -2.2204460492503126e-16 0
vn -1 -2.2204460492503126e-16 0
vn -1 -2.2204460492503126e-16 0
vn -1 -2.2204460492503126e-16 0
vn -1 -2.2204460492503126e-16 0
vn -1 -2.2204460492503126e-16 0
vn -1 -2.2204460492503126e-16 0
vn -1 -2.2204460492503126e-16 0
vn -1 -2.2204460492503126e-16 0
vn -1 -2.2204460492503126e-16 0
vn 1 2.2204460492503126e-16 0
vn 1 2.2204460492503126e-16 0
vn 1 2.2204460492503126e-16 0
vn 1 2.2204460492503126e-16 0
vn 1 2.2204460492503126e-16 0
vn 1 2.2204460492503126e-16 0
vn 1 2.2204460492503126e-16 0
vn 1 2.2204460492503126e-16 0
vn 1 2.2204460492503126e-16 0
vn 1 2.2204460492503126e-16 0
vn 1 2.2204460492503126e-16 0
vn 1 2.2204460492503126e-16 0
vn 1 2.2204460492503126e-16 0
vn 1 2.2204460492503126e-16 0
vn 1 2.2204460492503126e-16 0
vn 1 2.2204460492503126e-16 0
vn 1 2.2204460492503126e-16 0
f 97/97/97 106/106/106 98/98/98
f 106/106/106 107/107/107 98/98/98
f 98/98/98 107/107/107 99/99/99
f 107/107/107 108/108/108 99/99/99
f 99/99/99 108/108/108 100/100/100
f 108/108/108 109/109/109 100/100/100
f 100/100/100 109/109/109 101/101/101
f 109/109/109 110/110/110 101/101/101
f 101/101/101 110/110/110 102/102/102
f 110/110/110 111/111/111 102/102/102
f 102/102/102 111/111/111 103/103/103
f 111/111/111 112/112/112 103/103/103
f 103/103/103 112/112/112 104/104/104
f 112/112/112 113/113/113 104/104/104
f 104/104/104 113/113/113 105/105/105
f 113/113/113 114/114/114 105/105/105
f 123/123/123 124/124/124 115/115/115
f 124/124/124 125/125/125 116/116/116
f 125/125/125 126/126/126 117/117/117
f 126/126/126 127/127/127 118/118/118
f 127/127/127 128/128/128 119/119/119
f 128/128/128 129/129/129 120/120/120
f 129/129/129 130/130/130 121/121/121
f 130/130/130 131/131/131 122/122/122
f 141/141/141 140/140/140 132/132/132
f 142/142/142 141/141/141 133/133/133
f 143/143/143 142/142/142 134/134/134
f 144/144/144 143/143/143 135/135/135
f 145/145/145 144/144/144 136/136/136
f 146/146/146 145/145/145 137/137/137
f 147/147/147 146/146/146 138/138/138
f 148/148/148 147/147/147 139/139/139
