# Blender 5.2.0 LTS
# www.blender.org
mtllib SM_K_HouseF_Shrine.mtl
o SM_K_HouseF_Shrine
v -2.300000 0.000000 0.300000
v -2.300000 0.600000 0.300000
v -2.300000 0.000000 -4.300000
v -2.300000 0.600000 -4.300000
v 2.300000 0.000000 0.300000
v 2.300000 0.600000 0.300000
v 2.300000 0.000000 -4.300000
v 2.300000 0.600000 -4.300000
v -2.000000 0.600000 0.000000
v -2.000000 2.400000 0.000000
v -2.000000 0.600000 -4.000000
v -2.000000 2.400000 -4.000000
v -0.600000 2.350000 -0.600000
v 2.000000 0.600000 0.000000
v 2.000000 2.400000 0.000000
v 2.000000 0.600000 -4.000000
v 2.000000 2.400000 -4.000000
v 0.600000 2.350000 -0.600000
v -0.600000 2.350000 0.000000
v 0.600000 2.350000 0.000000
v -0.600000 0.600000 0.000000
v 0.600000 0.600000 0.000000
v -0.600000 0.600000 -0.600000
v 0.600000 0.600000 -0.600000
v -0.620000 1.665000 0.050000
v -0.620000 1.735000 0.050000
v -0.620000 1.665000 -0.090000
v -0.620000 1.735000 -0.090000
v 0.620000 1.665000 0.050000
v 0.620000 1.735000 0.050000
v 0.620000 1.665000 -0.090000
v 0.620000 1.735000 -0.090000
v -0.585000 0.000000 0.050000
v -0.585000 1.700000 0.050000
v -0.585000 0.000000 -0.090000
v -0.585000 1.700000 -0.090000
v -0.515000 0.000000 0.050000
v -0.515000 1.700000 0.050000
v -0.515000 0.000000 -0.090000
v -0.515000 1.700000 -0.090000
v 0.515000 0.000000 0.050000
v 0.515000 1.700000 0.050000
v 0.515000 0.000000 -0.090000
v 0.515000 1.700000 -0.090000
v 0.585000 0.000000 0.050000
v 0.585000 1.700000 0.050000
v 0.585000 0.000000 -0.090000
v 0.585000 1.700000 -0.090000
v -0.530000 0.020000 -0.070000
v -0.530000 1.680000 -0.070000
v -0.530000 0.020000 -0.130000
v -0.530000 1.680000 -0.130000
v 0.530000 0.020000 -0.070000
v 0.530000 1.680000 -0.070000
v 0.530000 0.020000 -0.130000
v 0.530000 1.680000 -0.130000
v 0.385000 0.780000 -0.135000
v 0.385000 0.920000 -0.135000
v 0.385000 0.780000 -0.185000
v 0.385000 0.920000 -0.185000
v 0.435000 0.780000 -0.135000
v 0.435000 0.920000 -0.135000
v 0.435000 0.780000 -0.185000
v 0.435000 0.920000 -0.185000
v -0.700000 0.000000 0.430000
v -0.700000 0.120000 0.430000
v -0.700000 0.000000 -0.070000
v -0.700000 0.120000 -0.070000
v 0.700000 0.000000 0.430000
v 0.700000 0.120000 0.430000
v 0.700000 0.000000 -0.070000
v 0.700000 0.120000 -0.070000
v -2.080000 0.550000 -0.020000
v -2.080000 2.450000 -0.020000
v -2.080000 0.550000 -0.180000
v -2.080000 2.450000 -0.180000
v -1.920000 0.550000 -0.020000
v -1.920000 2.450000 -0.020000
v -1.920000 0.550000 -0.180000
v -1.920000 2.450000 -0.180000
v -2.080000 0.550000 -3.820000
v -2.080000 2.450000 -3.820000
v -2.080000 0.550000 -3.980000
v -2.080000 2.450000 -3.980000
v -1.920000 0.550000 -3.820000
v -1.920000 2.450000 -3.820000
v -1.920000 0.550000 -3.980000
v -1.920000 2.450000 -3.980000
v 1.920000 0.550000 -0.020000
v 1.920000 2.450000 -0.020000
v 1.920000 0.550000 -0.180000
v 1.920000 2.450000 -0.180000
v 2.080000 0.550000 -0.020000
v 2.080000 2.450000 -0.020000
v 2.080000 0.550000 -0.180000
v 2.080000 2.450000 -0.180000
v 1.920000 0.550000 -3.820000
v 1.920000 2.450000 -3.820000
v 1.920000 0.550000 -3.980000
v 1.920000 2.450000 -3.980000
v 2.080000 0.550000 -3.820000
v 2.080000 2.450000 -3.820000
v 2.080000 0.550000 -3.980000
v 2.080000 2.450000 -3.980000
v -3.100000 2.500000 1.100000
v 3.100000 2.500000 1.100000
v 3.100000 2.500000 -5.100000
v -3.100000 2.500000 -5.100000
v -0.600000 4.400000 -1.400000
v 0.600000 4.400000 -2.600000
v -0.250000 4.325000 0.500000
v -0.250000 4.575000 0.500000
v -0.250000 4.325000 -4.500000
v -0.250000 4.575000 -4.500000
v 0.250000 4.325000 0.500000
v 0.250000 4.575000 0.500000
v 0.250000 4.325000 -4.500000
v 0.250000 4.575000 -4.500000
v -1.390000 0.000000 1.690000
v -1.390000 2.400000 1.690000
v -1.390000 0.000000 1.510000
v -1.390000 2.400000 1.510000
v -1.210000 0.000000 1.690000
v -1.210000 2.400000 1.690000
v -1.210000 0.000000 1.510000
v -1.210000 2.400000 1.510000
v 1.210000 0.000000 1.690000
v 1.210000 2.400000 1.690000
v 1.210000 0.000000 1.510000
v 1.210000 2.400000 1.510000
v 1.390000 0.000000 1.690000
v 1.390000 2.400000 1.690000
v 1.390000 0.000000 1.510000
v 1.390000 2.400000 1.510000
v -1.600000 2.390000 1.710000
v -1.600000 2.610000 1.710000
v -1.600000 2.390000 1.490000
v -1.600000 2.610000 1.490000
v 1.600000 2.390000 1.710000
v 1.600000 2.610000 1.710000
v 1.600000 2.390000 1.490000
v 1.600000 2.610000 1.490000
v -1.800000 2.660000 1.740000
v -1.800000 2.840000 1.740000
v -1.800000 2.660000 1.460000
v -1.800000 2.840000 1.460000
v 1.800000 2.660000 1.740000
v 1.800000 2.840000 1.740000
v 1.800000 2.660000 1.460000
v 1.800000 2.840000 1.460000
v -1.650000 0.200000 1.050000
v -1.650000 1.200000 1.050000
v -1.650000 0.200000 0.750000
v -1.650000 1.200000 0.750000
v -1.350000 0.200000 1.050000
v -1.350000 1.200000 1.050000
v -1.350000 0.200000 0.750000
v -1.350000 1.200000 0.750000
v 1.350000 0.200000 1.050000
v 1.350000 1.200000 1.050000
v 1.350000 0.200000 0.750000
v 1.350000 1.200000 0.750000
v 1.650000 0.200000 1.050000
v 1.650000 1.200000 1.050000
v 1.650000 0.200000 0.750000
v 1.650000 1.200000 0.750000
vn -1.0000 -0.0000 -0.0000
vn -0.0000 -0.0000 -1.0000
vn 1.0000 -0.0000 -0.0000
vn -0.0000 -0.0000 1.0000
vn -0.0000 -1.0000 -0.0000
vn -0.0000 1.0000 -0.0000
vn -0.0000 0.7962 0.6051
vn 0.5207 0.8496 0.0844
vn -0.0000 0.7962 -0.6051
vn -0.5207 0.8496 -0.0844
vt 0.375000 0.000000
vt 0.625000 0.000000
vt 0.625000 0.250000
vt 0.375000 0.250000
vt 0.625000 0.500000
vt 0.375000 0.500000
vt 0.625000 0.750000
vt 0.375000 0.750000
vt 0.625000 1.000000
vt 0.375000 1.000000
vt 0.125000 0.500000
vt 0.125000 0.750000
vt 0.875000 0.500000
vt 0.875000 0.750000
vt 0.375000 0.912500
vt 0.618056 0.912500
vt 0.618056 0.837500
vt 0.375000 0.837500
vt 0.212500 0.750000
vt 0.287500 0.750000
vt 0.287500 0.712500
vt 0.212500 0.712500
vt 0.394737 0.250000
vt 0.625000 0.125000
vt 0.394737 0.125000
vt 0.394737 0.500000
vt 0.394737 0.625000
vt 0.625000 0.625000
vt 0.875000 0.625000
vt 0.000000 0.000000
s 0
usemtl SURF_Concrete_Struct
f 1/1/1 2/2/1 4/3/1 3/4/1
f 3/4/2 4/3/2 8/5/2 7/6/2
f 7/6/3 8/5/3 6/7/3 5/8/3
f 5/8/4 6/7/4 2/9/4 1/10/4
f 3/11/5 7/6/5 5/8/5 1/12/5
f 8/5/6 4/13/6 2/14/6 6/7/6
f 65/1/1 66/2/1 68/3/1 67/4/1
f 67/4/2 68/3/2 72/5/2 71/6/2
f 71/6/3 72/5/3 70/7/3 69/8/3
f 69/8/4 70/7/4 66/9/4 65/10/4
f 67/11/5 71/6/5 69/8/5 65/12/5
f 72/5/6 68/13/6 66/14/6 70/7/6
f 151/1/1 152/2/1 154/3/1 153/4/1
f 153/4/2 154/3/2 158/5/2 157/6/2
f 157/6/3 158/5/3 156/7/3 155/8/3
f 155/8/4 156/7/4 152/9/4 151/10/4
f 153/11/5 157/6/5 155/8/5 151/12/5
f 158/5/6 154/13/6 152/14/6 156/7/6
f 159/1/1 160/2/1 162/3/1 161/4/1
f 161/4/2 162/3/2 166/5/2 165/6/2
f 165/6/3 166/5/3 164/7/3 163/8/3
f 163/8/4 164/7/4 160/9/4 159/10/4
f 161/11/5 165/6/5 163/8/5 159/12/5
f 166/5/6 162/13/6 160/14/6 164/7/6
usemtl SURF_Wood_Furniture
f 9/1/1 10/2/1 12/3/1 11/4/1
f 11/4/2 12/3/2 17/5/2 16/6/2
f 16/6/3 17/5/3 15/7/3 14/8/3
f 14/8/4 15/7/4 10/9/4 9/10/4 21/15/4 19/16/4 20/17/4 22/18/4
f 21/19/5 9/12/5 11/11/5 16/6/5 14/8/5 22/20/5 24/21/5 23/22/5
f 17/5/6 12/13/6 10/14/6 15/7/6
f 23/23/3 13/3/3 19/24/3 21/25/3
f 24/26/4 18/5/4 13/3/4 23/23/4
f 22/27/1 20/28/1 18/5/1 24/26/1
f 19/29/5 13/13/5 18/5/5 20/28/5
usemtl SURF_Wood_Dark
f 25/1/1 26/2/1 28/3/1 27/4/1
f 27/4/2 28/3/2 32/5/2 31/6/2
f 31/6/3 32/5/3 30/7/3 29/8/3
f 29/8/4 30/7/4 26/9/4 25/10/4
f 27/11/5 31/6/5 29/8/5 25/12/5
f 32/5/6 28/13/6 26/14/6 30/7/6
f 33/1/1 34/2/1 36/3/1 35/4/1
f 35/4/2 36/3/2 40/5/2 39/6/2
f 39/6/3 40/5/3 38/7/3 37/8/3
f 37/8/4 38/7/4 34/9/4 33/10/4
f 35/11/5 39/6/5 37/8/5 33/12/5
f 40/5/6 36/13/6 34/14/6 38/7/6
f 41/1/1 42/2/1 44/3/1 43/4/1
f 43/4/2 44/3/2 48/5/2 47/6/2
f 47/6/3 48/5/3 46/7/3 45/8/3
f 45/8/4 46/7/4 42/9/4 41/10/4
f 43/11/5 47/6/5 45/8/5 41/12/5
f 48/5/6 44/13/6 42/14/6 46/7/6
f 49/1/1 50/2/1 52/3/1 51/4/1
f 51/4/2 52/3/2 56/5/2 55/6/2
f 55/6/3 56/5/3 54/7/3 53/8/3
f 53/8/4 54/7/4 50/9/4 49/10/4
f 51/11/5 55/6/5 53/8/5 49/12/5
f 56/5/6 52/13/6 50/14/6 54/7/6
f 111/1/1 112/2/1 114/3/1 113/4/1
f 113/4/2 114/3/2 118/5/2 117/6/2
f 117/6/3 118/5/3 116/7/3 115/8/3
f 115/8/4 116/7/4 112/9/4 111/10/4
f 113/11/5 117/6/5 115/8/5 111/12/5
f 118/5/6 114/13/6 112/14/6 116/7/6
f 143/1/1 144/2/1 146/3/1 145/4/1
f 145/4/2 146/3/2 150/5/2 149/6/2
f 149/6/3 150/5/3 148/7/3 147/8/3
f 147/8/4 148/7/4 144/9/4 143/10/4
f 145/11/5 149/6/5 147/8/5 143/12/5
f 150/5/6 146/13/6 144/14/6 148/7/6
usemtl SURF_Metal_Fence
f 57/1/1 58/2/1 60/3/1 59/4/1
f 59/4/2 60/3/2 64/5/2 63/6/2
f 63/6/3 64/5/3 62/7/3 61/8/3
f 61/8/4 62/7/4 58/9/4 57/10/4
f 59/11/5 63/6/5 61/8/5 57/12/5
f 64/5/6 60/13/6 58/14/6 62/7/6
usemtl SURF_Crimson_Core
f 73/1/1 74/2/1 76/3/1 75/4/1
f 75/4/2 76/3/2 80/5/2 79/6/2
f 79/6/3 80/5/3 78/7/3 77/8/3
f 77/8/4 78/7/4 74/9/4 73/10/4
f 75/11/5 79/6/5 77/8/5 73/12/5
f 80/5/6 76/13/6 74/14/6 78/7/6
f 81/1/1 82/2/1 84/3/1 83/4/1
f 83/4/2 84/3/2 88/5/2 87/6/2
f 87/6/3 88/5/3 86/7/3 85/8/3
f 85/8/4 86/7/4 82/9/4 81/10/4
f 83/11/5 87/6/5 85/8/5 81/12/5
f 88/5/6 84/13/6 82/14/6 86/7/6
f 89/1/1 90/2/1 92/3/1 91/4/1
f 91/4/2 92/3/2 96/5/2 95/6/2
f 95/6/3 96/5/3 94/7/3 93/8/3
f 93/8/4 94/7/4 90/9/4 89/10/4
f 91/11/5 95/6/5 93/8/5 89/12/5
f 96/5/6 92/13/6 90/14/6 94/7/6
f 97/1/1 98/2/1 100/3/1 99/4/1
f 99/4/2 100/3/2 104/5/2 103/6/2
f 103/6/3 104/5/3 102/7/3 101/8/3
f 101/8/4 102/7/4 98/9/4 97/10/4
f 99/11/5 103/6/5 101/8/5 97/12/5
f 104/5/6 100/13/6 98/14/6 102/7/6
f 119/1/1 120/2/1 122/3/1 121/4/1
f 121/4/2 122/3/2 126/5/2 125/6/2
f 125/6/3 126/5/3 124/7/3 123/8/3
f 123/8/4 124/7/4 120/9/4 119/10/4
f 121/11/5 125/6/5 123/8/5 119/12/5
f 126/5/6 122/13/6 120/14/6 124/7/6
f 127/1/1 128/2/1 130/3/1 129/4/1
f 129/4/2 130/3/2 134/5/2 133/6/2
f 133/6/3 134/5/3 132/7/3 131/8/3
f 131/8/4 132/7/4 128/9/4 127/10/4
f 129/11/5 133/6/5 131/8/5 127/12/5
f 134/5/6 130/13/6 128/14/6 132/7/6
f 135/1/1 136/2/1 138/3/1 137/4/1
f 137/4/2 138/3/2 142/5/2 141/6/2
f 141/6/3 142/5/3 140/7/3 139/8/3
f 139/8/4 140/7/4 136/9/4 135/10/4
f 137/11/5 141/6/5 139/8/5 135/12/5
f 142/5/6 138/13/6 136/14/6 140/7/6
usemtl SURF_Roof_Tile
f 105/30/7 106/30/7 109/30/7
f 106/30/8 107/30/8 110/30/8 109/30/8
f 107/30/9 108/30/9 110/30/9
f 108/30/10 105/30/10 109/30/10 110/30/10
f 108/30/5 107/30/5 106/30/5 105/30/5
