# Blender 5.2.0 LTS
# www.blender.org
mtllib SM_K_HouseA_Machiya.mtl
o SM_K_HouseA_Machiya
v -1.970000 0.000000 -0.030000
v -1.970000 0.030000 0.000000
v -2.000000 0.030000 -0.030000
v -1.970000 2.469185 0.000000
v -1.970000 2.500000 -0.030000
v -2.000000 2.470000 -0.030000
v -1.970000 0.000000 -4.970000
v -2.000000 0.030000 -4.970000
v -1.970000 0.030000 -5.000000
v 0.130000 0.650000 -0.570000
v 0.130000 0.680000 -0.600000
v 0.100000 0.680000 -0.570000
v -1.670000 0.030000 -0.600000
v -1.700000 0.030000 -0.570000
v -1.730000 0.000000 -0.630000
v 0.130000 1.920000 -0.600000
v 0.130000 1.950000 -0.570000
v 0.100000 1.920000 -0.570000
v -1.970000 2.500000 -4.970000
v -1.970000 2.470000 -5.000000
v -2.000000 2.470000 -4.970000
v -1.670000 2.070000 -0.600000
v -1.670000 2.100000 -0.570000
v -1.700000 2.070000 -0.570000
v 1.970000 0.000000 -0.030000
v 2.000000 0.030000 -0.030000
v 1.983579 0.035578 0.000000
v 1.670000 0.650000 -0.570000
v 1.700000 0.680000 -0.570000
v 1.670000 0.680000 -0.600000
v 1.970000 2.500000 -0.030000
v 1.983174 2.469153 0.000000
v 2.000000 2.470000 -0.030000
v 1.700000 1.920000 -0.570000
v 1.670000 1.950000 -0.570000
v 1.670000 1.920000 -0.600000
v 1.970000 0.000000 -4.970000
v 1.970000 0.030000 -5.000000
v 2.000000 0.030000 -4.970000
v -0.730000 0.030000 -0.600000
v -0.670000 0.000000 -0.630000
v -0.700000 0.030000 -0.570000
v 1.970000 2.500000 -4.970000
v 2.000000 2.470000 -4.970000
v 1.970000 2.470000 -5.000000
v -0.730000 2.100000 -0.570000
v -0.730000 2.070000 -0.600000
v -0.700000 2.070000 -0.570000
v -0.730000 2.100000 -0.030000
v -0.700000 2.070000 -0.030000
v -0.670000 2.130000 0.000000
v -1.730000 0.000000 -0.030000
v -1.700000 0.030000 -0.030000
v -1.730000 0.030000 0.000000
v -1.700000 2.070000 -0.030000
v -1.670000 2.100000 -0.030000
v -1.730000 2.130000 0.000000
v -0.700000 0.030000 -0.030000
v -0.670000 0.000000 -0.030000
v -0.670000 0.035364 0.000000
v 0.130000 0.650000 -0.030000
v 0.100000 0.680000 -0.030000
v 0.070000 0.614636 0.000000
v 1.700000 0.680000 -0.030000
v 1.670000 0.650000 -0.030000
v 1.716421 0.614422 0.000000
v 1.700000 1.920000 -0.030000
v 1.716826 1.980847 0.000000
v 1.670000 1.950000 -0.030000
v 0.130000 1.950000 -0.030000
v 0.070000 1.980815 0.000000
v 0.100000 1.920000 -0.030000
v -1.870000 2.500000 -0.230000
v -1.879692 2.535538 -0.200000
v -1.900000 2.530000 -0.230000
v -1.879692 4.664461 -0.200000
v -1.870000 4.700000 -0.230000
v -1.900000 4.670000 -0.230000
v -1.870000 2.500000 -4.970000
v -1.900000 2.530000 -4.970000
v -1.870000 2.530000 -5.000000
v 0.430000 3.025000 -0.570000
v 0.430000 3.055000 -0.600000
v 0.400000 3.055000 -0.570000
v -1.570000 3.025000 -0.570000
v -1.570000 3.055000 -0.600000
v -1.600000 3.055000 -0.570000
v 0.430000 4.145000 -0.600000
v 0.430000 4.175000 -0.570000
v 0.400000 4.145000 -0.570000
v -1.870000 4.700000 -4.970000
v -1.870000 4.670000 -5.000000
v -1.900000 4.670000 -4.970000
v -1.570000 4.145000 -0.600000
v -1.570000 4.175000 -0.570000
v -1.600000 4.145000 -0.570000
v 1.870000 2.500000 -0.230000
v 1.900000 2.530000 -0.230000
v 1.879692 2.535538 -0.200000
v 1.570000 3.025000 -0.570000
v 1.600000 3.055000 -0.570000
v 1.570000 3.055000 -0.600000
v 1.870000 4.700000 -0.230000
v 1.879692 4.664461 -0.200000
v 1.900000 4.670000 -0.230000
v 1.600000 4.145000 -0.570000
v 1.570000 4.175000 -0.570000
v 1.570000 4.145000 -0.600000
v 1.870000 2.500000 -4.970000
v 1.870000 2.530000 -5.000000
v 1.900000 2.530000 -4.970000
v -0.430000 3.025000 -0.570000
v -0.400000 3.055000 -0.570000
v -0.430000 3.055000 -0.600000
v 1.870000 4.700000 -4.970000
v 1.900000 4.670000 -4.970000
v 1.870000 4.670000 -5.000000
v -0.400000 4.145000 -0.570000
v -0.430000 4.175000 -0.570000
v -0.430000 4.145000 -0.600000
v -0.430000 4.175000 -0.230000
v -0.400000 4.145000 -0.230000
v -0.370000 4.208087 -0.200000
v -1.600000 3.055000 -0.230000
v -1.618978 2.991789 -0.200000
v -1.570000 3.025000 -0.230000
v -1.600000 4.145000 -0.230000
v -1.570000 4.175000 -0.230000
v -1.618978 4.208210 -0.200000
v -0.400000 3.055000 -0.230000
v -0.430000 3.025000 -0.230000
v -0.370000 2.991912 -0.200000
v 0.430000 4.175000 -0.230000
v 0.370000 4.208087 -0.200000
v 0.400000 4.145000 -0.230000
v 0.430000 3.025000 -0.230000
v 0.400000 3.055000 -0.230000
v 0.370000 2.991912 -0.200000
v 1.600000 3.055000 -0.230000
v 1.570000 3.025000 -0.230000
v 1.618978 2.991789 -0.200000
v 1.600000 4.145000 -0.230000
v 1.618978 4.208210 -0.200000
v 1.570000 4.175000 -0.230000
v -1.720000 1.965000 0.050000
v -1.720000 2.035000 0.050000
v -1.720000 1.965000 -0.090000
v -1.720000 2.035000 -0.090000
v -0.680000 1.965000 0.050000
v -0.680000 2.035000 0.050000
v -0.680000 1.965000 -0.090000
v -0.680000 2.035000 -0.090000
v -1.685000 0.000000 0.050000
v -1.685000 2.000000 0.050000
v -1.685000 0.000000 -0.090000
v -1.685000 2.000000 -0.090000
v -1.615000 0.000000 0.050000
v -1.615000 2.000000 0.050000
v -1.615000 0.000000 -0.090000
v -1.615000 2.000000 -0.090000
v -0.785000 0.000000 0.050000
v -0.785000 2.000000 0.050000
v -0.785000 0.000000 -0.090000
v -0.785000 2.000000 -0.090000
v -0.715000 0.000000 0.050000
v -0.715000 2.000000 0.050000
v -0.715000 0.000000 -0.090000
v -0.715000 2.000000 -0.090000
v -1.630000 0.020000 -0.070000
v -1.630000 1.980000 -0.070000
v -1.630000 0.020000 -0.130000
v -1.630000 1.980000 -0.130000
v -0.770000 0.020000 -0.070000
v -0.770000 1.980000 -0.070000
v -0.770000 0.020000 -0.130000
v -0.770000 1.980000 -0.130000
v -0.915000 0.930000 -0.135000
v -0.915000 1.070000 -0.135000
v -0.915000 0.930000 -0.185000
v -0.915000 1.070000 -0.185000
v -0.865000 0.930000 -0.135000
v -0.865000 1.070000 -0.135000
v -0.865000 0.930000 -0.185000
v -0.865000 1.070000 -0.185000
v -1.800000 0.000000 0.430000
v -1.800000 0.120000 0.430000
v -1.800000 0.000000 -0.070000
v -1.800000 0.120000 -0.070000
v -0.600000 0.000000 0.430000
v -0.600000 0.120000 0.430000
v -0.600000 0.000000 -0.070000
v -0.600000 0.120000 -0.070000
v 0.090000 1.870000 0.040000
v 0.090000 1.930000 0.040000
v 0.090000 1.870000 -0.080000
v 0.090000 1.930000 -0.080000
v 1.710000 1.870000 0.040000
v 1.710000 1.930000 0.040000
v 1.710000 1.870000 -0.080000
v 1.710000 1.930000 -0.080000
v 0.090000 0.670000 0.040000
v 0.090000 0.730000 0.040000
v 0.090000 0.670000 -0.080000
v 0.090000 0.730000 -0.080000
v 1.710000 0.670000 0.040000
v 1.710000 0.730000 0.040000
v 1.710000 0.670000 -0.080000
v 1.710000 0.730000 -0.080000
v 0.120000 0.700000 0.040000
v 0.120000 1.900000 0.040000
v 0.120000 0.700000 -0.080000
v 0.120000 1.900000 -0.080000
v 0.180000 0.700000 0.040000
v 0.180000 1.900000 0.040000
v 0.180000 0.700000 -0.080000
v 0.180000 1.900000 -0.080000
v 1.620000 0.700000 0.040000
v 1.620000 1.900000 0.040000
v 1.620000 0.700000 -0.080000
v 1.620000 1.900000 -0.080000
v 1.680000 0.700000 0.040000
v 1.680000 1.900000 0.040000
v 1.680000 0.700000 -0.080000
v 1.680000 1.900000 -0.080000
v 0.880000 0.700000 -0.015000
v 0.880000 1.900000 -0.015000
v 0.880000 0.700000 -0.065000
v 0.880000 1.900000 -0.065000
v 0.920000 0.700000 -0.015000
v 0.920000 1.900000 -0.015000
v 0.920000 0.700000 -0.065000
v 0.920000 1.900000 -0.065000
v 0.150000 1.280000 -0.015000
v 0.150000 1.320000 -0.015000
v 0.150000 1.280000 -0.065000
v 0.150000 1.320000 -0.065000
v 1.650000 1.280000 -0.015000
v 1.650000 1.320000 -0.015000
v 1.650000 1.280000 -0.065000
v 1.650000 1.320000 -0.065000
v 0.150000 0.700000 -0.105000
v 0.150000 1.900000 -0.105000
v 0.150000 0.700000 -0.135000
v 0.150000 1.900000 -0.135000
v 1.650000 0.700000 -0.105000
v 1.650000 1.900000 -0.105000
v 1.650000 0.700000 -0.135000
v 1.650000 1.900000 -0.135000
v 0.060000 0.625000 0.180000
v 0.060000 0.695000 0.180000
v 0.060000 0.625000 -0.060000
v 0.060000 0.695000 -0.060000
v 1.740000 0.625000 0.180000
v 1.740000 0.695000 0.180000
v 1.740000 0.625000 -0.060000
v 1.740000 0.695000 -0.060000
v -1.610000 4.095000 0.040000
v -1.610000 4.155000 0.040000
v -1.610000 4.095000 -0.080000
v -1.610000 4.155000 -0.080000
v -0.390000 4.095000 0.040000
v -0.390000 4.155000 0.040000
v -0.390000 4.095000 -0.080000
v -0.390000 4.155000 -0.080000
v -1.610000 3.045000 0.040000
v -1.610000 3.105000 0.040000
v -1.610000 3.045000 -0.080000
v -1.610000 3.105000 -0.080000
v -0.390000 3.045000 0.040000
v -0.390000 3.105000 0.040000
v -0.390000 3.045000 -0.080000
v -0.390000 3.105000 -0.080000
v -1.580000 3.075000 0.040000
v -1.580000 4.125000 0.040000
v -1.580000 3.075000 -0.080000
v -1.580000 4.125000 -0.080000
v -1.520000 3.075000 0.040000
v -1.520000 4.125000 0.040000
v -1.520000 3.075000 -0.080000
v -1.520000 4.125000 -0.080000
v -0.480000 3.075000 0.040000
v -0.480000 4.125000 0.040000
v -0.480000 3.075000 -0.080000
v -0.480000 4.125000 -0.080000
v -0.420000 3.075000 0.040000
v -0.420000 4.125000 0.040000
v -0.420000 3.075000 -0.080000
v -0.420000 4.125000 -0.080000
v -1.020000 3.075000 -0.015000
v -1.020000 4.125000 -0.015000
v -1.020000 3.075000 -0.065000
v -1.020000 4.125000 -0.065000
v -0.980000 3.075000 -0.015000
v -0.980000 4.125000 -0.015000
v -0.980000 3.075000 -0.065000
v -0.980000 4.125000 -0.065000
v -1.550000 3.580000 -0.015000
v -1.550000 3.620000 -0.015000
v -1.550000 3.580000 -0.065000
v -1.550000 3.620000 -0.065000
v -0.450000 3.580000 -0.015000
v -0.450000 3.620000 -0.015000
v -0.450000 3.580000 -0.065000
v -0.450000 3.620000 -0.065000
v -1.550000 3.075000 -0.105000
v -1.550000 4.125000 -0.105000
v -1.550000 3.075000 -0.135000
v -1.550000 4.125000 -0.135000
v -0.450000 3.075000 -0.105000
v -0.450000 4.125000 -0.105000
v -0.450000 3.075000 -0.135000
v -0.450000 4.125000 -0.135000
v -1.640000 3.000000 0.180000
v -1.640000 3.070000 0.180000
v -1.640000 3.000000 -0.060000
v -1.640000 3.070000 -0.060000
v -0.360000 3.000000 0.180000
v -0.360000 3.070000 0.180000
v -0.360000 3.000000 -0.060000
v -0.360000 3.070000 -0.060000
v 0.390000 4.095000 0.040000
v 0.390000 4.155000 0.040000
v 0.390000 4.095000 -0.080000
v 0.390000 4.155000 -0.080000
v 1.610000 4.095000 0.040000
v 1.610000 4.155000 0.040000
v 1.610000 4.095000 -0.080000
v 1.610000 4.155000 -0.080000
v 0.390000 3.045000 0.040000
v 0.390000 3.105000 0.040000
v 0.390000 3.045000 -0.080000
v 0.390000 3.105000 -0.080000
v 1.610000 3.045000 0.040000
v 1.610000 3.105000 0.040000
v 1.610000 3.045000 -0.080000
v 1.610000 3.105000 -0.080000
v 0.420000 3.075000 0.040000
v 0.420000 4.125000 0.040000
v 0.420000 3.075000 -0.080000
v 0.420000 4.125000 -0.080000
v 0.480000 3.075000 0.040000
v 0.480000 4.125000 0.040000
v 0.480000 3.075000 -0.080000
v 0.480000 4.125000 -0.080000
v 1.520000 3.075000 0.040000
v 1.520000 4.125000 0.040000
v 1.520000 3.075000 -0.080000
v 1.520000 4.125000 -0.080000
v 1.580000 3.075000 0.040000
v 1.580000 4.125000 0.040000
v 1.580000 3.075000 -0.080000
v 1.580000 4.125000 -0.080000
v 0.980000 3.075000 -0.015000
v 0.980000 4.125000 -0.015000
v 0.980000 3.075000 -0.065000
v 0.980000 4.125000 -0.065000
v 1.020000 3.075000 -0.015000
v 1.020000 4.125000 -0.015000
v 1.020000 3.075000 -0.065000
v 1.020000 4.125000 -0.065000
v 0.450000 3.580000 -0.015000
v 0.450000 3.620000 -0.015000
v 0.450000 3.580000 -0.065000
v 0.450000 3.620000 -0.065000
v 1.550000 3.580000 -0.015000
v 1.550000 3.620000 -0.015000
v 1.550000 3.580000 -0.065000
v 1.550000 3.620000 -0.065000
v 0.450000 3.075000 -0.105000
v 0.450000 4.125000 -0.105000
v 0.450000 3.075000 -0.135000
v 0.450000 4.125000 -0.135000
v 1.550000 3.075000 -0.105000
v 1.550000 4.125000 -0.105000
v 1.550000 3.075000 -0.135000
v 1.550000 4.125000 -0.135000
v 0.360000 3.000000 0.180000
v 0.360000 3.070000 0.180000
v 0.360000 3.000000 -0.060000
v 0.360000 3.070000 -0.060000
v 1.640000 3.000000 0.180000
v 1.640000 3.070000 0.180000
v 1.640000 3.000000 -0.060000
v 1.640000 3.070000 -0.060000
v -1.750000 1.825000 0.070000
v -1.750000 2.275000 0.070000
v -1.750000 1.825000 0.030000
v -1.750000 2.275000 0.030000
v -0.650000 1.825000 0.070000
v -0.650000 2.275000 0.070000
v -0.650000 1.825000 0.030000
v -0.650000 2.275000 0.030000
v -2.050000 2.420000 0.090000
v -2.050000 2.580000 0.090000
v -2.050000 2.420000 -0.130000
v -2.050000 2.580000 -0.130000
v 2.050000 2.420000 0.090000
v 2.050000 2.580000 0.090000
v 2.050000 2.420000 -0.130000
v 2.050000 2.580000 -0.130000
v -2.550000 4.700000 0.550000
v 2.550000 4.700000 0.550000
v 0.000000 6.000000 0.550000
v -2.550000 4.700000 -5.550000
v 2.550000 4.700000 -5.550000
v 0.000000 6.000000 -5.550000
v 1.850000 0.000000 0.000000
v 1.850000 4.700000 0.000000
v 1.850000 0.000000 -0.100000
v 1.850000 4.700000 -0.100000
v 1.950000 0.000000 0.000000
v 1.950000 4.700000 0.000000
v 1.950000 0.000000 -0.100000
v 1.950000 4.700000 -0.100000
vn -0.5774 -0.5773 0.5774
vn -0.5721 0.5721 0.5877
vn -0.5774 -0.5773 -0.5774
vn 0.5773 0.5773 0.5774
vn 0.3015 -0.9045 0.3015
vn 0.5774 -0.5773 0.5774
vn -0.5774 0.5773 -0.5774
vn 0.5774 -0.5773 0.5773
vn 0.6277 -0.6277 0.4603
vn -0.5773 0.5773 0.5774
vn 0.6527 0.6527 0.3845
vn 0.5774 -0.5773 -0.5774
vn -0.3015 -0.9045 0.3015
vn 0.5774 0.5773 -0.5774
vn -0.5774 -0.5773 0.5773
vn -0.3015 -0.3015 0.9045
vn 0.3015 -0.3015 0.9045
vn -0.5432 -0.5432 0.6403
vn 0.2874 0.2874 0.9137
vn -0.3249 0.3249 0.8882
vn -0.3390 -0.3390 0.8776
vn 0.2993 -0.2993 0.9060
vn -0.7071 -0.7071 -0.0000
vn -0.7071 -0.0000 0.7071
vn -0.7071 0.7071 -0.0000
vn -0.7071 -0.0000 -0.7071
vn -0.0000 -0.7071 -0.7071
vn -0.0000 0.7071 -0.7071
vn 0.7071 -0.0000 -0.7071
vn 0.7071 -0.7071 -0.0000
vn 0.7071 0.7071 -0.0000
vn 0.8747 0.0001 0.4847
vn -0.8747 0.0001 0.4847
vn -0.0000 -0.6974 0.7167
vn -0.0000 0.6974 0.7167
vn -0.0000 -0.7071 0.7071
vn 0.7071 -0.0000 0.7071
vn -0.0000 -0.6458 0.7635
vn -0.0000 0.6458 0.7635
vn -0.0000 0.7071 0.7071
vn -0.0000 -1.0000 -0.0000
vn -1.0000 -0.0000 -0.0000
vn -0.0000 -0.0000 1.0000
vn -0.0000 1.0000 -0.0000
vn -0.0000 -0.0000 -1.0000
vn 1.0000 -0.0000 -0.0000
vn -0.6039 -0.6039 0.5203
vn -0.6039 0.6039 0.5203
vn 0.5773 0.5774 0.5774
vn 0.6039 -0.6039 0.5203
vn -0.5773 0.5774 0.5774
vn 0.6039 0.6039 0.5203
vn -0.2933 -0.2933 0.9099
vn 0.3243 0.3243 0.8886
vn 0.3243 -0.3243 0.8886
vn -0.2933 0.2933 0.9099
vn 0.2933 -0.2933 0.9099
vn 0.2933 0.2933 0.9099
vn -0.3243 0.3243 0.8886
vn -0.3243 -0.3243 0.8886
vn -0.8281 -0.0000 0.5606
vn 0.8281 -0.0000 0.5606
vn 0.8451 -0.0000 0.5346
vn -0.8451 -0.0000 0.5346
vn -0.0000 -0.6710 0.7414
vn -0.0000 0.6450 0.7641
vn -0.0000 0.6710 0.7415
vn -0.0000 -0.6451 0.7641
vn -0.4542 0.8909 -0.0000
vn 0.4542 0.8909 -0.0000
vt -1.970000 -2.500000
vt -2.000000 -2.470000
vt -1.970000 -2.470000
vt -1.470000 -0.030815
vt -1.470000 0.000000
vt -1.500000 -0.030000
vt 2.970000 -2.500000
vt 2.970000 -2.470000
vt 3.000000 -2.470000
vt 0.630000 -1.430000
vt 0.630000 -1.400000
vt 0.600000 -1.430000
vt -1.170000 -1.400000
vt -1.200000 -1.430000
vt -1.230000 -1.370000
vt -1.470000 2.970000
vt -1.470000 3.000000
vt -1.500000 2.970000
vt -1.170000 -1.430000
vt -2.000000 -2.464422
vt 2.170000 -1.430000
vt 2.200000 -1.430000
vt 2.170000 -1.400000
vt -1.970000 0.000000
vt -2.000000 -0.030847
vt -1.970000 -0.030000
vt -0.230000 -1.400000
vt -0.170000 -1.370000
vt -0.200000 -1.430000
vt 2.470000 2.970000
vt 2.500000 2.970000
vt 2.470000 3.000000
vt -0.230000 -1.430000
vt -0.230000 -0.400000
vt -0.200000 -0.430000
vt -0.170000 -0.370000
vt -1.200000 -0.430000
vt -1.170000 -0.400000
vt -1.230000 -0.370000
vt -0.200000 -2.470000
vt -0.170000 -2.500000
vt -0.170000 -2.464637
vt 0.630000 -1.850000
vt 0.600000 -1.820000
vt 0.570000 -1.885364
vt 2.200000 -1.820000
vt 2.170000 -1.850000
vt 2.216421 -1.885578
vt 2.200000 -0.580000
vt 2.216826 -0.519153
vt 2.170000 -0.550000
vt 0.630000 -0.550000
vt 0.570000 -0.519185
vt 0.600000 -0.580000
vt -2.000000 -0.030815
vt -1.470000 -1.970000
vt -1.500000 -1.970000
vt 2.970000 -0.030000
vt 3.000000 -0.030000
vt 2.500000 -1.970000
vt 2.470000 -1.970000
vt -2.000000 -1.885578
vt -2.000000 -0.519153
vt -1.970000 -0.580000
vt -1.970000 -1.820000
vt 2.483174 -0.030847
vt 2.470000 0.000000
vt -1.230000 -1.970000
vt -1.230000 -2.000000
vt -1.470000 -2.000000
vt -1.970000 -0.430000
vt -2.000000 -0.370000
vt -0.170000 -2.000000
vt -1.170000 -1.970000
vt -0.230000 -1.970000
vt -2.000000 -2.464637
vt 2.483579 -2.464422
vt 2.470000 -2.500000
vt -1.230000 -2.500000
vt -0.230000 -2.470000
vt -1.170000 -2.470000
vt -1.430000 -2.470000
vt -1.370000 -2.500000
vt -1.170000 -0.430000
vt -1.200000 -2.470000
vt -1.200000 -1.970000
vt -0.230000 -0.430000
vt -0.200000 -1.970000
vt 0.600000 -1.970000
vt 0.630000 -1.970000
vt 0.630000 -1.820000
vt 0.630000 -0.580000
vt 2.170000 -0.580000
vt 2.170000 -1.820000
vt 2.200000 -1.970000
vt 2.170000 -1.970000
vt -0.170000 -1.970000
vt -1.470000 -2.470000
vt -1.230000 -2.470000
vt -1.470000 -0.030000
vt 2.470000 -0.030000
vt 2.470000 -2.470000
vt -1.430000 -1.820000
vt -1.430000 -0.580000
vt -1.430000 -0.430000
vt -1.370000 -1.770000
vt -1.379692 -1.800000
vt -1.400000 -1.770000
vt -1.800000 2.164461
vt -1.770000 2.200000
vt -1.770000 2.170000
vt -1.370000 2.970000
vt -1.400000 2.970000
vt -1.370000 3.000000
vt 0.930000 -1.430000
vt 0.930000 -1.400000
vt 0.900000 -1.430000
vt -1.070000 -1.430000
vt -1.070000 -1.400000
vt -1.100000 -1.430000
vt 0.930000 1.645000
vt 0.930000 1.675000
vt 0.900000 1.645000
vt 2.970000 2.200000
vt 3.000000 2.170000
vt 2.970000 2.170000
vt -1.070000 1.645000
vt -1.070000 1.675000
vt -1.100000 1.645000
vt 2.370000 -1.770000
vt 2.400000 -1.770000
vt 2.379692 -1.800000
vt 2.070000 -1.430000
vt 2.100000 -1.430000
vt 2.070000 -1.400000
vt 2.100000 1.645000
vt 2.070000 1.675000
vt 2.070000 1.645000
vt 2.370000 2.970000
vt 2.370000 3.000000
vt 2.400000 2.970000
vt 0.070000 -1.430000
vt 0.100000 -1.430000
vt 0.070000 -1.400000
vt 0.100000 1.645000
vt 0.070000 1.675000
vt 0.070000 1.645000
vt 0.130000 1.708087
vt -1.100000 0.555000
vt -1.118978 0.491789
vt -1.070000 0.525000
vt -1.118978 1.708210
vt 0.100000 0.555000
vt 0.070000 0.525000
vt 0.130000 0.491912
vt 0.870000 1.708087
vt 0.930000 0.525000
vt 0.900000 0.555000
vt 0.870000 0.491912
vt 2.100000 0.555000
vt 2.070000 0.525000
vt 2.118978 0.491789
vt 2.118978 1.708210
vt -1.800000 0.035538
vt -1.770000 0.030000
vt 2.970000 0.030000
vt 3.000000 0.030000
vt -1.770000 0.555000
vt -1.770000 1.645000
vt -1.800000 1.708210
vt -1.800000 0.491789
vt -1.379692 2.164461
vt 2.379692 2.164461
vt 2.370000 2.200000
vt -1.370000 2.200000
vt -1.370000 0.000000
vt 2.370000 0.000000
vt 2.379692 0.035538
vt -1.379692 0.035538
vt -1.100000 -1.770000
vt -1.070000 -1.770000
vt -1.070000 0.555000
vt -1.430000 1.675000
vt -1.770000 1.675000
vt -1.430000 1.645000
vt 0.070000 0.555000
vt 0.070000 -1.770000
vt 0.100000 -1.770000
vt 0.900000 -1.770000
vt 0.930000 -1.770000
vt 0.930000 0.555000
vt 2.070000 0.555000
vt 2.070000 -1.770000
vt 2.100000 -1.770000
vt -1.370000 0.030000
vt -1.370000 2.170000
vt 2.370000 2.170000
vt 2.370000 0.030000
vt -1.430000 0.555000
vt -2.050000 -0.535000
vt -2.050000 -0.465000
vt -1.910000 -0.465000
vt -1.910000 -0.535000
vt -1.220000 -0.535000
vt -1.220000 -0.465000
vt -0.180000 -0.465000
vt -0.180000 -0.535000
vt -1.220000 -1.910000
vt -0.180000 -1.910000
vt -0.180000 -2.050000
vt -1.220000 -2.050000
vt -2.050000 -2.500000
vt -2.050000 -0.500000
vt -1.910000 -0.500000
vt -1.910000 -2.500000
vt -1.185000 -2.500000
vt -1.185000 -0.500000
vt -1.115000 -0.500000
vt -1.115000 -2.500000
vt -1.185000 -1.910000
vt -1.115000 -1.910000
vt -1.115000 -2.050000
vt -1.185000 -2.050000
vt -0.285000 -2.500000
vt -0.285000 -0.500000
vt -0.215000 -0.500000
vt -0.215000 -2.500000
vt -0.285000 -1.910000
vt -0.215000 -1.910000
vt -0.215000 -2.050000
vt -0.285000 -2.050000
vt -1.930000 -2.480000
vt -1.930000 -0.520000
vt -1.870000 -0.520000
vt -1.870000 -2.480000
vt -1.130000 -2.480000
vt -1.130000 -0.520000
vt -0.270000 -0.520000
vt -0.270000 -2.480000
vt -1.130000 -1.870000
vt -0.270000 -1.870000
vt -0.270000 -1.930000
vt -1.130000 -1.930000
vt -1.865000 -1.570000
vt -1.865000 -1.430000
vt -1.815000 -1.430000
vt -1.815000 -1.570000
vt -0.415000 -1.570000
vt -0.415000 -1.430000
vt -0.365000 -1.430000
vt -0.365000 -1.570000
vt -0.415000 -1.815000
vt -0.365000 -1.815000
vt -0.365000 -1.865000
vt -0.415000 -1.865000
vt -2.430000 -2.500000
vt -2.430000 -2.380000
vt -1.930000 -2.380000
vt -1.930000 -2.500000
vt -1.300000 -2.500000
vt -1.300000 -2.380000
vt -0.100000 -2.380000
vt -0.100000 -2.500000
vt -1.300000 -1.930000
vt -0.100000 -1.930000
vt -0.100000 -2.430000
vt -1.300000 -2.430000
vt -2.040000 -0.630000
vt -2.040000 -0.570000
vt -1.920000 -0.570000
vt -1.920000 -0.630000
vt 0.590000 -0.630000
vt 0.590000 -0.570000
vt 2.210000 -0.570000
vt 2.210000 -0.630000
vt 0.590000 -1.920000
vt 2.210000 -1.920000
vt 2.210000 -2.040000
vt 0.590000 -2.040000
vt -2.040000 -1.830000
vt -2.040000 -1.770000
vt -1.920000 -1.770000
vt -1.920000 -1.830000
vt 0.590000 -1.830000
vt 0.590000 -1.770000
vt 2.210000 -1.770000
vt 2.210000 -1.830000
vt -2.040000 -1.800000
vt -2.040000 -0.600000
vt -1.920000 -0.600000
vt -1.920000 -1.800000
vt 0.620000 -1.800000
vt 0.620000 -0.600000
vt 0.680000 -0.600000
vt 0.680000 -1.800000
vt 0.620000 -1.920000
vt 0.680000 -1.920000
vt 0.680000 -2.040000
vt 0.620000 -2.040000
vt 2.120000 -1.800000
vt 2.120000 -0.600000
vt 2.180000 -0.600000
vt 2.180000 -1.800000
vt 2.120000 -1.920000
vt 2.180000 -1.920000
vt 2.180000 -2.040000
vt 2.120000 -2.040000
vt -1.985000 -1.800000
vt -1.985000 -0.600000
vt -1.935000 -0.600000
vt -1.935000 -1.800000
vt 1.380000 -1.800000
vt 1.380000 -0.600000
vt 1.420000 -0.600000
vt 1.420000 -1.800000
vt 1.380000 -1.935000
vt 1.420000 -1.935000
vt 1.420000 -1.985000
vt 1.380000 -1.985000
vt -1.985000 -1.220000
vt -1.985000 -1.180000
vt -1.935000 -1.180000
vt -1.935000 -1.220000
vt 0.650000 -1.220000
vt 0.650000 -1.180000
vt 2.150000 -1.180000
vt 2.150000 -1.220000
vt 0.650000 -1.935000
vt 2.150000 -1.935000
vt 2.150000 -1.985000
vt 0.650000 -1.985000
vt -1.895000 -1.800000
vt -1.895000 -0.600000
vt -1.865000 -0.600000
vt -1.865000 -1.800000
vt 0.650000 -1.800000
vt 0.650000 -0.600000
vt 2.150000 -0.600000
vt 2.150000 -1.800000
vt 0.650000 -1.865000
vt 2.150000 -1.865000
vt 2.150000 -1.895000
vt 0.650000 -1.895000
vt -2.180000 -1.875000
vt -2.180000 -1.805000
vt -1.940000 -1.805000
vt -1.940000 -1.875000
vt 0.560000 -1.875000
vt 0.560000 -1.805000
vt 2.240000 -1.805000
vt 2.240000 -1.875000
vt 0.560000 -1.940000
vt 2.240000 -1.940000
vt 2.240000 -2.180000
vt 0.560000 -2.180000
vt -2.040000 1.595000
vt -2.040000 1.655000
vt -1.920000 1.655000
vt -1.920000 1.595000
vt -1.110000 1.595000
vt -1.110000 1.655000
vt 0.110000 1.655000
vt 0.110000 1.595000
vt -1.110000 -1.920000
vt 0.110000 -1.920000
vt 0.110000 -2.040000
vt -1.110000 -2.040000
vt -2.040000 0.545000
vt -2.040000 0.605000
vt -1.920000 0.605000
vt -1.920000 0.545000
vt -1.110000 0.545000
vt -1.110000 0.605000
vt 0.110000 0.605000
vt 0.110000 0.545000
vt -2.040000 0.575000
vt -2.040000 1.625000
vt -1.920000 1.625000
vt -1.920000 0.575000
vt -1.080000 0.575000
vt -1.080000 1.625000
vt -1.020000 1.625000
vt -1.020000 0.575000
vt -1.080000 -1.920000
vt -1.020000 -1.920000
vt -1.020000 -2.040000
vt -1.080000 -2.040000
vt 0.020000 0.575000
vt 0.020000 1.625000
vt 0.080000 1.625000
vt 0.080000 0.575000
vt 0.020000 -1.920000
vt 0.080000 -1.920000
vt 0.080000 -2.040000
vt 0.020000 -2.040000
vt -1.985000 0.575000
vt -1.985000 1.625000
vt -1.935000 1.625000
vt -1.935000 0.575000
vt -0.520000 0.575000
vt -0.520000 1.625000
vt -0.480000 1.625000
vt -0.480000 0.575000
vt -0.520000 -1.935000
vt -0.480000 -1.935000
vt -0.480000 -1.985000
vt -0.520000 -1.985000
vt -1.985000 1.080000
vt -1.985000 1.120000
vt -1.935000 1.120000
vt -1.935000 1.080000
vt -1.050000 1.080000
vt -1.050000 1.120000
vt 0.050000 1.120000
vt 0.050000 1.080000
vt -1.050000 -1.935000
vt 0.050000 -1.935000
vt 0.050000 -1.985000
vt -1.050000 -1.985000
vt -1.895000 0.575000
vt -1.895000 1.625000
vt -1.865000 1.625000
vt -1.865000 0.575000
vt -1.050000 0.575000
vt -1.050000 1.625000
vt 0.050000 1.625000
vt 0.050000 0.575000
vt -1.050000 -1.865000
vt 0.050000 -1.865000
vt 0.050000 -1.895000
vt -1.050000 -1.895000
vt -2.180000 0.500000
vt -2.180000 0.570000
vt -1.940000 0.570000
vt -1.940000 0.500000
vt -1.140000 0.500000
vt -1.140000 0.570000
vt 0.140000 0.570000
vt 0.140000 0.500000
vt -1.140000 -1.940000
vt 0.140000 -1.940000
vt 0.140000 -2.180000
vt -1.140000 -2.180000
vt 0.890000 1.595000
vt 0.890000 1.655000
vt 2.110000 1.655000
vt 2.110000 1.595000
vt 0.890000 -1.920000
vt 2.110000 -1.920000
vt 2.110000 -2.040000
vt 0.890000 -2.040000
vt 0.890000 0.545000
vt 0.890000 0.605000
vt 2.110000 0.605000
vt 2.110000 0.545000
vt 0.920000 0.575000
vt 0.920000 1.625000
vt 0.980000 1.625000
vt 0.980000 0.575000
vt 0.920000 -1.920000
vt 0.980000 -1.920000
vt 0.980000 -2.040000
vt 0.920000 -2.040000
vt 2.020000 0.575000
vt 2.020000 1.625000
vt 2.080000 1.625000
vt 2.080000 0.575000
vt 2.020000 -1.920000
vt 2.080000 -1.920000
vt 2.080000 -2.040000
vt 2.020000 -2.040000
vt 1.480000 0.575000
vt 1.480000 1.625000
vt 1.520000 1.625000
vt 1.520000 0.575000
vt 1.480000 -1.935000
vt 1.520000 -1.935000
vt 1.520000 -1.985000
vt 1.480000 -1.985000
vt 0.950000 1.080000
vt 0.950000 1.120000
vt 2.050000 1.120000
vt 2.050000 1.080000
vt 0.950000 -1.935000
vt 2.050000 -1.935000
vt 2.050000 -1.985000
vt 0.950000 -1.985000
vt 0.950000 0.575000
vt 0.950000 1.625000
vt 2.050000 1.625000
vt 2.050000 0.575000
vt 0.950000 -1.865000
vt 2.050000 -1.865000
vt 2.050000 -1.895000
vt 0.950000 -1.895000
vt 0.860000 0.500000
vt 0.860000 0.570000
vt 2.140000 0.570000
vt 2.140000 0.500000
vt 0.860000 -1.940000
vt 2.140000 -1.940000
vt 2.140000 -2.180000
vt 0.860000 -2.180000
vt -2.070000 -0.675000
vt -2.070000 -0.225000
vt -2.030000 -0.225000
vt -2.030000 -0.675000
vt -1.250000 -0.675000
vt -1.250000 -0.225000
vt -0.150000 -0.225000
vt -0.150000 -0.675000
vt -1.250000 -2.030000
vt -0.150000 -2.030000
vt -0.150000 -2.070000
vt -1.250000 -2.070000
vt -2.090000 -0.080000
vt -2.090000 0.080000
vt -1.870000 0.080000
vt -1.870000 -0.080000
vt -1.550000 -0.080000
vt -1.550000 0.080000
vt 2.550000 0.080000
vt 2.550000 -0.080000
vt -1.550000 -1.870000
vt 2.550000 -1.870000
vt 2.550000 -2.090000
vt -1.550000 -2.090000
vt -2.050000 2.200000
vt 3.050000 2.200000
vt 0.500000 3.500000
vt -2.050000 -2.550000
vt 0.500000 -2.550000
vt 0.500000 3.550000
vt -2.050000 3.550000
vt 3.050000 -2.550000
vt 3.050000 3.550000
vt -2.000000 -2.500000
vt -2.000000 2.200000
vt -1.900000 2.200000
vt -1.900000 -2.500000
vt 2.350000 -2.500000
vt 2.350000 2.200000
vt 2.450000 2.200000
vt 2.450000 -2.500000
vt 2.350000 -1.900000
vt 2.450000 -1.900000
vt 2.450000 -2.000000
vt 2.350000 -2.000000
s 0
usemtl SURF_Wood_Dark
f 1/1/1 2/2/1 3/3/1
f 4/4/2 5/5/2 6/6/2
f 7/7/3 8/8/3 9/9/3
f 10/10/4 11/11/4 12/12/4
f 13/13/5 14/14/5 15/15/5
f 16/11/6 17/10/6 18/12/6
f 19/16/7 20/17/7 21/18/7
f 22/13/8 23/19/8 24/14/8
f 25/1/9 26/3/9 27/20/9
f 28/21/10 29/22/10 30/23/10
f 31/24/11 32/25/11 33/26/11
f 34/22/1 35/21/1 36/23/1
f 37/7/12 38/9/12 39/8/12
f 40/27/13 41/28/13 42/29/13
f 43/30/14 44/31/14 45/32/14
f 46/33/15 47/27/15 48/29/15
f 49/34/16 50/35/16 51/36/16
f 52/1/6 53/3/6 54/2/6
f 55/37/17 56/38/17 57/39/17
f 58/40/18 59/41/18 60/42/18
f 61/43/19 62/44/19 63/45/19
f 64/46/20 65/47/20 66/48/20
f 67/49/21 68/50/21 69/51/21
f 70/52/22 71/53/22 72/54/22
f 3/3/23 8/8/23 7/7/23 1/1/23
f 2/2/24 4/55/24 6/26/24 3/3/24
f 5/56/25 19/16/25 21/18/25 6/57/25
f 8/8/26 21/58/26 20/59/26 9/9/26
f 9/17/27 38/32/27 37/30/27 7/16/27
f 19/16/28 43/30/28 45/32/28 20/17/28
f 38/9/29 45/59/29 44/58/29 39/8/29
f 25/1/30 37/7/30 39/8/30 26/3/30
f 33/60/31 44/31/31 43/30/31 31/61/31
f 26/3/32 33/26/32 32/25/32 27/20/32
f 66/62/33 68/63/33 67/64/33 64/65/33
f 68/50/34 71/53/34 70/52/34 69/51/34
f 4/4/35 32/66/35 31/67/35 5/5/35
f 1/56/36 52/68/36 54/69/36 2/70/36
f 53/3/37 55/71/37 57/72/37 54/2/37
f 51/73/36 57/69/36 56/74/36 49/75/36
f 50/71/24 58/3/24 60/76/24 51/72/24
f 27/77/38 60/42/38 59/41/38 25/78/38
f 63/45/39 66/48/39 65/47/39 61/43/39
f 62/44/37 72/54/37 71/53/37 63/45/37
f 15/79/36 41/41/36 40/80/36 13/81/36
f 14/82/30 53/3/30 52/1/30 15/83/30
f 41/83/23 59/1/23 58/3/23 42/82/23
f 13/81/37 22/84/37 24/37/37 14/85/37
f 23/19/30 56/74/30 55/86/30 24/14/30
f 22/13/36 47/27/36 46/33/36 23/19/36
f 42/40/24 48/35/24 47/87/24 40/80/24
f 48/29/23 50/88/23 49/75/23 46/33/23
f 12/12/31 62/89/31 61/90/31 10/10/31
f 11/91/37 16/92/37 18/54/37 12/44/37
f 17/10/30 70/90/30 72/89/30 18/12/30
f 10/10/40 28/21/40 30/23/40 11/11/40
f 29/46/24 34/49/24 36/93/24 30/94/24
f 16/11/36 36/23/36 35/21/36 17/10/36
f 34/22/23 67/95/23 69/96/23 35/21/23
f 28/21/25 65/96/25 64/95/25 29/22/25
f 15/15/41 52/68/41 1/56/41 7/16/41 37/30/41 25/61/41 59/97/41 41/28/41
f 3/3/42 6/26/42 21/58/42 8/8/42
f 68/50/43 32/66/43 4/4/43 2/98/43 54/99/43 57/39/43 51/36/43 60/42/43 27/77/43 66/48/43 63/45/43 71/53/43
f 43/30/44 19/16/44 5/56/44 31/61/44
f 9/98/45 20/100/45 45/101/45 38/102/45
f 65/96/44 28/21/44 10/10/44 61/90/44
f 62/65/46 12/103/46 18/104/46 72/64/46
f 11/91/43 30/94/43 36/93/43 16/92/43
f 22/84/43 13/81/43 40/80/43 47/87/43
f 14/82/46 24/105/46 55/71/46 53/3/46
f 70/90/41 17/10/41 35/21/41 69/96/41
f 23/19/41 46/33/41 49/75/41 56/74/41
f 39/8/46 44/58/46 33/26/46 26/3/46
f 66/48/43 27/77/43 32/66/43 68/50/43
f 34/104/42 29/103/42 64/65/42 67/64/42
f 48/105/42 42/82/42 58/3/42 50/71/42
f 145/200/42 146/201/42 148/202/42 147/203/42
f 147/204/45 148/205/45 152/206/45 151/207/45
f 151/203/46 152/202/46 150/201/46 149/200/46
f 149/207/43 150/206/43 146/205/43 145/204/43
f 147/208/41 151/209/41 149/210/41 145/211/41
f 152/209/44 148/208/44 146/211/44 150/210/44
f 153/212/42 154/213/42 156/214/42 155/215/42
f 155/216/45 156/217/45 160/218/45 159/219/45
f 159/215/46 160/214/46 158/213/46 157/212/46
f 157/219/43 158/218/43 154/217/43 153/216/43
f 155/220/41 159/221/41 157/222/41 153/223/41
f 160/221/44 156/220/44 154/223/44 158/222/44
f 161/212/42 162/213/42 164/214/42 163/215/42
f 163/224/45 164/225/45 168/226/45 167/227/45
f 167/215/46 168/214/46 166/213/46 165/212/46
f 165/227/43 166/226/43 162/225/43 161/224/43
f 163/228/41 167/229/41 165/230/41 161/231/41
f 168/229/44 164/228/44 162/231/44 166/230/44
f 193/268/42 194/269/42 196/270/42 195/271/42
f 195/272/45 196/273/45 200/274/45 199/275/45
f 199/271/46 200/270/46 198/269/46 197/268/46
f 197/275/43 198/274/43 194/273/43 193/272/43
f 195/276/41 199/277/41 197/278/41 193/279/41
f 200/277/44 196/276/44 194/279/44 198/278/44
f 201/280/42 202/281/42 204/282/42 203/283/42
f 203/284/45 204/285/45 208/286/45 207/287/45
f 207/283/46 208/282/46 206/281/46 205/280/46
f 205/287/43 206/286/43 202/285/43 201/284/43
f 203/276/41 207/277/41 205/278/41 201/279/41
f 208/277/44 204/276/44 202/279/44 206/278/44
f 209/288/42 210/289/42 212/290/42 211/291/42
f 211/292/45 212/293/45 216/294/45 215/295/45
f 215/291/46 216/290/46 214/289/46 213/288/46
f 213/295/43 214/294/43 210/293/43 209/292/43
f 211/296/41 215/297/41 213/298/41 209/299/41
f 216/297/44 212/296/44 210/299/44 214/298/44
f 217/288/42 218/289/42 220/290/42 219/291/42
f 219/300/45 220/301/45 224/302/45 223/303/45
f 223/291/46 224/290/46 222/289/46 221/288/46
f 221/303/43 222/302/43 218/301/43 217/300/43
f 219/304/41 223/305/41 221/306/41 217/307/41
f 224/305/44 220/304/44 218/307/44 222/306/44
f 225/308/42 226/309/42 228/310/42 227/311/42
f 227/312/45 228/313/45 232/314/45 231/315/45
f 231/311/46 232/310/46 230/309/46 229/308/46
f 229/315/43 230/314/43 226/313/43 225/312/43
f 227/316/41 231/317/41 229/318/41 225/319/41
f 232/317/44 228/316/44 226/319/44 230/318/44
f 233/320/42 234/321/42 236/322/42 235/323/42
f 235/324/45 236/325/45 240/326/45 239/327/45
f 239/323/46 240/322/46 238/321/46 237/320/46
f 237/327/43 238/326/43 234/325/43 233/324/43
f 235/328/41 239/329/41 237/330/41 233/331/41
f 240/329/44 236/328/44 234/331/44 238/330/44
f 257/356/42 258/357/42 260/358/42 259/359/42
f 259/360/45 260/361/45 264/362/45 263/363/45
f 263/359/46 264/358/46 262/357/46 261/356/46
f 261/363/43 262/362/43 258/361/43 257/360/43
f 259/364/41 263/365/41 261/366/41 257/367/41
f 264/365/44 260/364/44 258/367/44 262/366/44
f 265/368/42 266/369/42 268/370/42 267/371/42
f 267/372/45 268/373/45 272/374/45 271/375/45
f 271/371/46 272/370/46 270/369/46 269/368/46
f 269/375/43 270/374/43 266/373/43 265/372/43
f 267/364/41 271/365/41 269/366/41 265/367/41
f 272/365/44 268/364/44 266/367/44 270/366/44
f 273/376/42 274/377/42 276/378/42 275/379/42
f 275/380/45 276/381/45 280/382/45 279/383/45
f 279/379/46 280/378/46 278/377/46 277/376/46
f 277/383/43 278/382/43 274/381/43 273/380/43
f 275/384/41 279/385/41 277/386/41 273/387/41
f 280/385/44 276/384/44 274/387/44 278/386/44
f 281/376/42 282/377/42 284/378/42 283/379/42
f 283/388/45 284/389/45 288/390/45 287/391/45
f 287/379/46 288/378/46 286/377/46 285/376/46
f 285/391/43 286/390/43 282/389/43 281/388/43
f 283/392/41 287/393/41 285/394/41 281/395/41
f 288/393/44 284/392/44 282/395/44 286/394/44
f 289/396/42 290/397/42 292/398/42 291/399/42
f 291/400/45 292/401/45 296/402/45 295/403/45
f 295/399/46 296/398/46 294/397/46 293/396/46
f 293/403/43 294/402/43 290/401/43 289/400/43
f 291/404/41 295/405/41 293/406/41 289/407/41
f 296/405/44 292/404/44 290/407/44 294/406/44
f 297/408/42 298/409/42 300/410/42 299/411/42
f 299/412/45 300/413/45 304/414/45 303/415/45
f 303/411/46 304/410/46 302/409/46 301/408/46
f 301/415/43 302/414/43 298/413/43 297/412/43
f 299/416/41 303/417/41 301/418/41 297/419/41
f 304/417/44 300/416/44 298/419/44 302/418/44
f 321/356/42 322/357/42 324/358/42 323/359/42
f 323/444/45 324/445/45 328/446/45 327/447/45
f 327/359/46 328/358/46 326/357/46 325/356/46
f 325/447/43 326/446/43 322/445/43 321/444/43
f 323/448/41 327/449/41 325/450/41 321/451/41
f 328/449/44 324/448/44 322/451/44 326/450/44
f 329/368/42 330/369/42 332/370/42 331/371/42
f 331/452/45 332/453/45 336/454/45 335/455/45
f 335/371/46 336/370/46 334/369/46 333/368/46
f 333/455/43 334/454/43 330/453/43 329/452/43
f 331/448/41 335/449/41 333/450/41 329/451/41
f 336/449/44 332/448/44 330/451/44 334/450/44
f 337/376/42 338/377/42 340/378/42 339/379/42
f 339/456/45 340/457/45 344/458/45 343/459/45
f 343/379/46 344/378/46 342/377/46 341/376/46
f 341/459/43 342/458/43 338/457/43 337/456/43
f 339/460/41 343/461/41 341/462/41 337/463/41
f 344/461/44 340/460/44 338/463/44 342/462/44
f 345/376/42 346/377/42 348/378/42 347/379/42
f 347/464/45 348/465/45 352/466/45 351/467/45
f 351/379/46 352/378/46 350/377/46 349/376/46
f 349/467/43 350/466/43 346/465/43 345/464/43
f 347/468/41 351/469/41 349/470/41 345/471/41
f 352/469/44 348/468/44 346/471/44 350/470/44
f 353/396/42 354/397/42 356/398/42 355/399/42
f 355/472/45 356/473/45 360/474/45 359/475/45
f 359/399/46 360/398/46 358/397/46 357/396/46
f 357/475/43 358/474/43 354/473/43 353/472/43
f 355/476/41 359/477/41 357/478/41 353/479/41
f 360/477/44 356/476/44 354/479/44 358/478/44
f 361/408/42 362/409/42 364/410/42 363/411/42
f 363/480/45 364/481/45 368/482/45 367/483/45
f 367/411/46 368/410/46 366/409/46 365/408/46
f 365/483/43 366/482/43 362/481/43 361/480/43
f 363/484/41 367/485/41 365/486/41 361/487/41
f 368/485/44 364/484/44 362/487/44 366/486/44
f 393/516/42 394/517/42 396/518/42 395/519/42
f 395/520/45 396/521/45 400/522/45 399/523/45
f 399/519/46 400/518/46 398/517/46 397/516/46
f 397/523/43 398/522/43 394/521/43 393/520/43
f 395/524/41 399/525/41 397/526/41 393/527/41
f 400/525/44 396/524/44 394/527/44 398/526/44
f 407/537/42 408/538/42 410/539/42 409/540/42
f 409/541/45 410/542/45 414/543/45 413/544/45
f 413/540/46 414/539/46 412/538/46 411/537/46
f 411/544/43 412/543/43 408/542/43 407/541/43
f 409/545/41 413/546/41 411/547/41 407/548/41
f 414/546/44 410/545/44 408/548/44 412/547/44
usemtl SURF_Plaster_Wall
f 73/106/47 74/107/47 75/108/47
f 76/109/48 77/110/48 78/111/48
f 79/112/3 80/113/3 81/114/3
f 82/115/49 83/116/49 84/117/49
f 85/118/49 86/119/49 87/120/49
f 88/121/6 89/122/6 90/123/6
f 91/124/7 92/125/7 93/126/7
f 94/127/6 95/128/6 96/129/6
f 97/130/50 98/131/50 99/132/50
f 100/133/51 101/134/51 102/135/51
f 103/110/52 104/109/52 105/111/52
f 106/136/1 107/137/1 108/138/1
f 109/139/12 110/140/12 111/141/12
f 112/142/51 113/143/51 114/144/51
f 115/124/14 116/126/14 117/125/14
f 118/145/1 119/146/1 120/147/1
f 121/146/53 122/145/53 123/148/53
f 124/149/54 125/150/54 126/151/54
f 127/129/55 128/128/55 129/152/55
f 130/153/56 131/154/56 132/155/56
f 133/122/57 134/156/57 135/123/57
f 136/157/58 137/158/58 138/159/58
f 139/160/59 140/161/59 141/162/59
f 142/136/60 143/163/60 144/137/60
f 75/108/23 80/113/23 79/112/23 73/106/23
f 74/164/61 76/109/61 78/111/61 75/165/61
f 77/110/25 91/124/25 93/126/25 78/111/25
f 80/166/26 93/126/26 92/125/26 81/167/26
f 81/114/27 110/140/27 109/139/27 79/112/27
f 91/112/28 115/139/28 117/140/28 92/114/28
f 110/167/29 117/125/29 116/126/29 111/166/29
f 97/130/30 109/139/30 111/141/30 98/131/30
f 105/111/31 116/126/31 115/124/31 103/110/31
f 98/165/62 105/111/62 104/109/62 99/164/62
f 124/168/63 127/169/63 129/170/63 125/171/63
f 141/171/64 143/170/64 142/169/64 139/168/64
f 133/122/65 144/137/65 143/163/65 134/156/65
f 76/172/66 104/173/66 103/174/66 77/175/66
f 123/148/65 129/152/65 128/128/65 121/146/65
f 122/145/24 130/153/24 132/155/24 123/148/24
f 125/150/67 132/155/67 131/154/67 126/151/67
f 73/176/68 97/177/68 99/178/68 74/179/68
f 138/159/67 141/162/67 140/161/67 136/157/67
f 134/156/37 138/159/37 137/158/37 135/123/37
f 87/120/31 124/180/31 126/181/31 85/118/31
f 86/182/37 94/127/37 96/129/37 87/149/37
f 95/183/30 128/184/30 127/169/30 96/185/30
f 85/118/40 112/142/40 114/144/40 86/119/40
f 113/153/24 118/145/24 120/147/24 114/186/24
f 94/127/36 120/147/36 119/146/36 95/128/36
f 118/185/23 122/169/23 121/184/23 119/183/23
f 112/142/25 131/187/25 130/188/25 113/143/25
f 84/117/31 137/189/31 136/190/31 82/115/31
f 83/191/37 88/121/37 90/123/37 84/158/37
f 89/183/30 133/184/30 135/169/30 90/185/30
f 82/115/40 100/133/40 102/135/40 83/116/40
f 101/160/24 106/136/24 108/138/24 102/192/24
f 88/121/36 108/138/36 107/137/36 89/122/36
f 106/185/23 142/169/23 144/184/23 107/183/23
f 100/133/25 140/193/25 139/194/25 101/134/25
f 79/112/41 109/139/41 97/130/41 73/106/41
f 75/165/42 78/111/42 93/126/42 80/166/42
f 129/152/43 76/172/43 74/179/43 125/150/43
f 143/163/43 104/173/43 76/172/43 129/152/43 123/148/43 132/155/43 125/150/43 74/179/43 99/178/43 141/162/43 138/159/43 134/156/43
f 115/139/44 91/112/44 77/106/44 103/130/44
f 81/195/45 92/196/45 117/197/45 110/198/45
f 140/193/44 100/133/44 82/115/44 136/190/44
f 137/168/46 84/199/46 90/185/46 135/169/46
f 83/191/43 102/192/43 108/138/43 88/121/43
f 131/187/44 112/142/44 85/118/44 126/181/44
f 87/199/46 96/185/46 127/169/46 124/168/46
f 86/182/43 114/186/43 120/147/43 94/127/43
f 89/115/41 107/133/41 144/193/41 133/190/41
f 95/118/41 119/142/41 121/187/41 128/181/41
f 111/166/46 116/126/46 105/111/46 98/165/46
f 141/162/43 99/178/43 104/173/43 143/163/43
f 106/185/42 101/199/42 139/168/42 142/169/42
f 118/185/42 113/199/42 130/168/42 122/169/42
usemtl SURF_Wood_Furniture
f 169/232/42 170/233/42 172/234/42 171/235/42
f 171/236/45 172/237/45 176/238/45 175/239/45
f 175/235/46 176/234/46 174/233/46 173/232/46
f 173/239/43 174/238/43 170/237/43 169/236/43
f 171/240/41 175/241/41 173/242/41 169/243/41
f 176/241/44 172/240/44 170/243/44 174/242/44
usemtl SURF_Metal_Fence
f 177/244/42 178/245/42 180/246/42 179/247/42
f 179/248/45 180/249/45 184/250/45 183/251/45
f 183/247/46 184/246/46 182/245/46 181/244/46
f 181/251/43 182/250/43 178/249/43 177/248/43
f 179/252/41 183/253/41 181/254/41 177/255/41
f 184/253/44 180/252/44 178/255/44 182/254/44
usemtl SURF_Concrete_Struct
f 185/256/42 186/257/42 188/258/42 187/259/42
f 187/260/45 188/261/45 192/262/45 191/263/45
f 191/259/46 192/258/46 190/257/46 189/256/46
f 189/263/43 190/262/43 186/261/43 185/260/43
f 187/264/41 191/265/41 189/266/41 185/267/41
f 192/265/44 188/264/44 186/267/44 190/266/44
f 249/344/42 250/345/42 252/346/42 251/347/42
f 251/348/45 252/349/45 256/350/45 255/351/45
f 255/347/46 256/346/46 254/345/46 253/344/46
f 253/351/43 254/350/43 250/349/43 249/348/43
f 251/352/41 255/353/41 253/354/41 249/355/41
f 256/353/44 252/352/44 250/355/44 254/354/44
f 313/432/42 314/433/42 316/434/42 315/435/42
f 315/436/45 316/437/45 320/438/45 319/439/45
f 319/435/46 320/434/46 318/433/46 317/432/46
f 317/439/43 318/438/43 314/437/43 313/436/43
f 315/440/41 319/441/41 317/442/41 313/443/41
f 320/441/44 316/440/44 314/443/44 318/442/44
f 377/432/42 378/433/42 380/434/42 379/435/42
f 379/496/45 380/497/45 384/498/45 383/499/45
f 383/435/46 384/434/46 382/433/46 381/432/46
f 381/499/43 382/498/43 378/497/43 377/496/43
f 379/500/41 383/501/41 381/502/41 377/503/41
f 384/501/44 380/500/44 378/503/44 382/502/44
usemtl SURF_Glass_Window
f 241/332/42 242/333/42 244/334/42 243/335/42
f 243/336/45 244/337/45 248/338/45 247/339/45
f 247/335/46 248/334/46 246/333/46 245/332/46
f 245/339/43 246/338/43 242/337/43 241/336/43
f 243/340/41 247/341/41 245/342/41 241/343/41
f 248/341/44 244/340/44 242/343/44 246/342/44
f 305/420/42 306/421/42 308/422/42 307/423/42
f 307/424/45 308/425/45 312/426/45 311/427/45
f 311/423/46 312/422/46 310/421/46 309/420/46
f 309/427/43 310/426/43 306/425/43 305/424/43
f 307/428/41 311/429/41 309/430/41 305/431/41
f 312/429/44 308/428/44 306/431/44 310/430/44
f 369/420/42 370/421/42 372/422/42 371/423/42
f 371/488/45 372/489/45 376/490/45 375/491/45
f 375/423/46 376/422/46 374/421/46 373/420/46
f 373/491/43 374/490/43 370/489/43 369/488/43
f 371/492/41 375/493/41 373/494/41 369/495/41
f 376/493/44 372/492/44 370/495/44 374/494/44
usemtl SURF_Crimson_Core
f 385/504/42 386/505/42 388/506/42 387/507/42
f 387/508/45 388/509/45 392/510/45 391/511/45
f 391/507/46 392/506/46 390/505/46 389/504/46
f 389/511/43 390/510/43 386/509/43 385/508/43
f 387/512/41 391/513/41 389/514/41 385/515/41
f 392/513/44 388/512/44 386/515/44 390/514/44
usemtl SURF_Roof_Tile
f 401/528/43 402/529/43 403/530/43
f 405/529/45 404/528/45 406/530/45
f 401/531/69 403/532/69 406/533/69 404/534/69
f 403/532/70 402/535/70 405/536/70 406/533/70
f 402/535/41 401/531/41 404/534/41 405/536/41
