# Blender 5.2.0 LTS
# www.blender.org
mtllib SM_K_HouseD_Apt.mtl
o SM_K_HouseD_Apt
v -2.480000 0.000000 -0.020000
v -2.483962 0.024057 0.000000
v -2.500000 0.020000 -0.020000
v -2.483643 2.482008 0.000000
v -2.480000 2.500000 -0.020000
v -2.500000 2.480000 -0.020000
v -2.480000 0.000000 -4.180000
v -2.500000 0.020000 -4.180000
v -2.480000 0.020000 -4.200000
v 1.020000 0.750000 -0.580000
v 1.020000 0.770000 -0.600000
v 1.000000 0.770000 -0.580000
v -0.480000 0.750000 -0.580000
v -0.480000 0.770000 -0.600000
v -0.500000 0.770000 -0.580000
v 1.020000 1.930000 -0.600000
v 1.020000 1.950000 -0.580000
v 1.000000 1.930000 -0.580000
v -1.980000 0.750000 -0.580000
v -1.980000 0.770000 -0.600000
v -2.000000 0.770000 -0.580000
v -0.480000 1.930000 -0.600000
v -0.480000 1.950000 -0.580000
v -0.500000 1.930000 -0.580000
v -2.480000 2.500000 -4.180000
v -2.480000 2.480000 -4.200000
v -2.500000 2.480000 -4.180000
v 1.980000 0.750000 -0.580000
v 2.000000 0.770000 -0.580000
v 1.980000 0.770000 -0.600000
v -1.980000 1.930000 -0.600000
v -1.980000 1.950000 -0.580000
v -2.000000 1.930000 -0.580000
v 2.000000 1.930000 -0.580000
v 1.980000 1.950000 -0.580000
v 1.980000 1.930000 -0.600000
v 2.480000 0.000000 -0.020000
v 2.500000 0.020000 -0.020000
v 2.480000 0.023901 0.000000
v 0.480000 0.750000 -0.580000
v 0.500000 0.770000 -0.580000
v 0.480000 0.770000 -0.600000
v 2.480000 2.500000 -0.020000
v 2.480000 2.481930 0.000000
v 2.500000 2.480000 -0.020000
v 0.500000 1.930000 -0.580000
v 0.480000 1.950000 -0.580000
v 0.480000 1.930000 -0.600000
v 2.480000 0.000000 -4.180000
v 2.480000 0.020000 -4.200000
v 2.500000 0.020000 -4.180000
v -1.020000 0.750000 -0.580000
v -1.000000 0.770000 -0.580000
v -1.020000 0.770000 -0.600000
v 2.480000 2.500000 -4.180000
v 2.500000 2.480000 -4.180000
v 2.480000 2.480000 -4.200000
v -1.000000 1.930000 -0.580000
v -1.020000 1.950000 -0.580000
v -1.020000 1.930000 -0.600000
v -1.020000 1.950000 -0.020000
v -1.000000 1.930000 -0.020000
v -0.980000 1.968070 0.000000
v -1.980000 0.750000 -0.020000
v -2.000000 0.770000 -0.020000
v -2.016038 0.725943 0.000000
v -1.980000 1.950000 -0.020000
v -2.016357 1.967993 0.000000
v -2.000000 1.930000 -0.020000
v -1.020000 0.750000 -0.020000
v -0.980000 0.726099 0.000000
v -1.000000 0.770000 -0.020000
v 0.480000 1.950000 -0.020000
v 0.500000 1.930000 -0.020000
v 0.520000 1.970000 0.000000
v -0.480000 1.950000 -0.020000
v -0.520000 1.970000 0.000000
v -0.500000 1.930000 -0.020000
v -0.480000 0.750000 -0.020000
v -0.500000 0.770000 -0.020000
v -0.520000 0.730000 0.000000
v 0.480000 0.750000 -0.020000
v 0.520000 0.730000 0.000000
v 0.500000 0.770000 -0.020000
v 1.020000 1.950000 -0.020000
v 0.980000 1.970000 0.000000
v 1.000000 1.930000 -0.020000
v 1.020000 0.750000 -0.020000
v 1.000000 0.770000 -0.020000
v 0.980000 0.730000 0.000000
v 2.000000 0.770000 -0.020000
v 1.980000 0.750000 -0.020000
v 2.020000 0.730000 0.000000
v 1.980000 1.950000 -0.020000
v 2.000000 1.930000 -0.020000
v 2.020000 1.970000 0.000000
v -2.010000 1.870000 0.040000
v -2.010000 1.930000 0.040000
v -2.010000 1.870000 -0.080000
v -2.010000 1.930000 -0.080000
v -0.990000 1.870000 0.040000
v -0.990000 1.930000 0.040000
v -0.990000 1.870000 -0.080000
v -0.990000 1.930000 -0.080000
v -2.010000 0.770000 0.040000
v -2.010000 0.830000 0.040000
v -2.010000 0.770000 -0.080000
v -2.010000 0.830000 -0.080000
v -0.990000 0.770000 0.040000
v -0.990000 0.830000 0.040000
v -0.990000 0.770000 -0.080000
v -0.990000 0.830000 -0.080000
v -1.980000 0.800000 0.040000
v -1.980000 1.900000 0.040000
v -1.980000 0.800000 -0.080000
v -1.980000 1.900000 -0.080000
v -1.920000 0.800000 0.040000
v -1.920000 1.900000 0.040000
v -1.920000 0.800000 -0.080000
v -1.920000 1.900000 -0.080000
v -1.080000 0.800000 0.040000
v -1.080000 1.900000 0.040000
v -1.080000 0.800000 -0.080000
v -1.080000 1.900000 -0.080000
v -1.020000 0.800000 0.040000
v -1.020000 1.900000 0.040000
v -1.020000 0.800000 -0.080000
v -1.020000 1.900000 -0.080000
v -1.950000 0.800000 -0.105000
v -1.950000 1.900000 -0.105000
v -1.950000 0.800000 -0.135000
v -1.950000 1.900000 -0.135000
v -1.050000 0.800000 -0.105000
v -1.050000 1.900000 -0.105000
v -1.050000 0.800000 -0.135000
v -1.050000 1.900000 -0.135000
v -2.040000 0.725000 0.180000
v -2.040000 0.795000 0.180000
v -2.040000 0.725000 -0.060000
v -2.040000 0.795000 -0.060000
v -0.960000 0.725000 0.180000
v -0.960000 0.795000 0.180000
v -0.960000 0.725000 -0.060000
v -0.960000 0.795000 -0.060000
v -0.510000 1.870000 0.040000
v -0.510000 1.930000 0.040000
v -0.510000 1.870000 -0.080000
v -0.510000 1.930000 -0.080000
v 0.510000 1.870000 0.040000
v 0.510000 1.930000 0.040000
v 0.510000 1.870000 -0.080000
v 0.510000 1.930000 -0.080000
v -0.510000 0.770000 0.040000
v -0.510000 0.830000 0.040000
v -0.510000 0.770000 -0.080000
v -0.510000 0.830000 -0.080000
v 0.510000 0.770000 0.040000
v 0.510000 0.830000 0.040000
v 0.510000 0.770000 -0.080000
v 0.510000 0.830000 -0.080000
v -0.480000 0.800000 0.040000
v -0.480000 1.900000 0.040000
v -0.480000 0.800000 -0.080000
v -0.480000 1.900000 -0.080000
v -0.420000 0.800000 0.040000
v -0.420000 1.900000 0.040000
v -0.420000 0.800000 -0.080000
v -0.420000 1.900000 -0.080000
v 0.420000 0.800000 0.040000
v 0.420000 1.900000 0.040000
v 0.420000 0.800000 -0.080000
v 0.420000 1.900000 -0.080000
v 0.480000 0.800000 0.040000
v 0.480000 1.900000 0.040000
v 0.480000 0.800000 -0.080000
v 0.480000 1.900000 -0.080000
v -0.450000 0.800000 -0.105000
v -0.450000 1.900000 -0.105000
v -0.450000 0.800000 -0.135000
v -0.450000 1.900000 -0.135000
v 0.450000 0.800000 -0.105000
v 0.450000 1.900000 -0.105000
v 0.450000 0.800000 -0.135000
v 0.450000 1.900000 -0.135000
v -0.540000 0.725000 0.180000
v -0.540000 0.795000 0.180000
v -0.540000 0.725000 -0.060000
v -0.540000 0.795000 -0.060000
v 0.540000 0.725000 0.180000
v 0.540000 0.795000 0.180000
v 0.540000 0.725000 -0.060000
v 0.540000 0.795000 -0.060000
v 0.990000 1.870000 0.040000
v 0.990000 1.930000 0.040000
v 0.990000 1.870000 -0.080000
v 0.990000 1.930000 -0.080000
v 2.010000 1.870000 0.040000
v 2.010000 1.930000 0.040000
v 2.010000 1.870000 -0.080000
v 2.010000 1.930000 -0.080000
v 0.990000 0.770000 0.040000
v 0.990000 0.830000 0.040000
v 0.990000 0.770000 -0.080000
v 0.990000 0.830000 -0.080000
v 2.010000 0.770000 0.040000
v 2.010000 0.830000 0.040000
v 2.010000 0.770000 -0.080000
v 2.010000 0.830000 -0.080000
v 1.020000 0.800000 0.040000
v 1.020000 1.900000 0.040000
v 1.020000 0.800000 -0.080000
v 1.020000 1.900000 -0.080000
v 1.080000 0.800000 0.040000
v 1.080000 1.900000 0.040000
v 1.080000 0.800000 -0.080000
v 1.080000 1.900000 -0.080000
v 1.920000 0.800000 0.040000
v 1.920000 1.900000 0.040000
v 1.920000 0.800000 -0.080000
v 1.920000 1.900000 -0.080000
v 1.980000 0.800000 0.040000
v 1.980000 1.900000 0.040000
v 1.980000 0.800000 -0.080000
v 1.980000 1.900000 -0.080000
v 1.050000 0.800000 -0.105000
v 1.050000 1.900000 -0.105000
v 1.050000 0.800000 -0.135000
v 1.050000 1.900000 -0.135000
v 1.950000 0.800000 -0.105000
v 1.950000 1.900000 -0.105000
v 1.950000 0.800000 -0.135000
v 1.950000 1.900000 -0.135000
v 0.960000 0.725000 0.180000
v 0.960000 0.795000 0.180000
v 0.960000 0.725000 -0.060000
v 0.960000 0.795000 -0.060000
v 2.040000 0.725000 0.180000
v 2.040000 0.795000 0.180000
v 2.040000 0.725000 -0.060000
v 2.040000 0.795000 -0.060000
v -2.500000 -0.040000 0.700000
v -2.500000 0.080000 0.700000
v -2.500000 -0.040000 0.000000
v -2.500000 0.080000 0.000000
v 2.500000 -0.040000 0.700000
v 2.500000 0.080000 0.700000
v 2.500000 -0.040000 0.000000
v 2.500000 0.080000 0.000000
v -2.500000 0.100000 0.725000
v -2.500000 0.800000 0.725000
v -2.500000 0.100000 0.675000
v -2.500000 0.800000 0.675000
v 2.500000 0.100000 0.725000
v 2.500000 0.800000 0.725000
v 2.500000 0.100000 0.675000
v 2.500000 0.800000 0.675000
v -2.480000 2.500000 -0.020000
v -2.483962 2.524057 0.000000
v -2.500000 2.520000 -0.020000
v -2.483643 4.982008 0.000000
v -2.480000 5.000000 -0.020000
v -2.500000 4.980000 -0.020000
v -2.480000 2.500000 -4.180000
v -2.500000 2.520000 -4.180000
v -2.480000 2.520000 -4.200000
v 1.020000 3.250000 -0.580000
v 1.020000 3.270000 -0.600000
v 1.000000 3.270000 -0.580000
v -0.480000 3.250000 -0.580000
v -0.480000 3.270000 -0.600000
v -0.500000 3.270000 -0.580000
v 1.020000 4.430000 -0.600000
v 1.020000 4.450000 -0.580000
v 1.000000 4.430000 -0.580000
v -1.980000 3.250000 -0.580000
v -1.980000 3.270000 -0.600000
v -2.000000 3.270000 -0.580000
v -0.480000 4.430000 -0.600000
v -0.480000 4.450000 -0.580000
v -0.500000 4.430000 -0.580000
v -2.480000 5.000000 -4.180000
v -2.480000 4.980000 -4.200000
v -2.500000 4.980000 -4.180000
v 1.980000 3.250000 -0.580000
v 2.000000 3.270000 -0.580000
v 1.980000 3.270000 -0.600000
v -1.980000 4.430000 -0.600000
v -1.980000 4.450000 -0.580000
v -2.000000 4.430000 -0.580000
v 2.000000 4.430000 -0.580000
v 1.980000 4.450000 -0.580000
v 1.980000 4.430000 -0.600000
v 2.480000 2.500000 -0.020000
v 2.500000 2.520000 -0.020000
v 2.480000 2.523901 0.000000
v 0.480000 3.250000 -0.580000
v 0.500000 3.270000 -0.580000
v 0.480000 3.270000 -0.600000
v 2.480000 5.000000 -0.020000
v 2.480000 4.981930 0.000000
v 2.500000 4.980000 -0.020000
v 0.500000 4.430000 -0.580000
v 0.480000 4.450000 -0.580000
v 0.480000 4.430000 -0.600000
v 2.480000 2.500000 -4.180000
v 2.480000 2.520000 -4.200000
v 2.500000 2.520000 -4.180000
v -1.020000 3.250000 -0.580000
v -1.000000 3.270000 -0.580000
v -1.020000 3.270000 -0.600000
v 2.480000 5.000000 -4.180000
v 2.500000 4.980000 -4.180000
v 2.480000 4.980000 -4.200000
v -1.000000 4.430000 -0.580000
v -1.020000 4.450000 -0.580000
v -1.020000 4.430000 -0.600000
v -1.020000 4.450000 -0.020000
v -1.000000 4.430000 -0.020000
v -0.980000 4.468070 0.000000
v -1.980000 3.250000 -0.020000
v -2.000000 3.270000 -0.020000
v -2.016038 3.225943 0.000000
v -1.980000 4.450000 -0.020000
v -2.016357 4.467992 0.000000
v -2.000000 4.430000 -0.020000
v -1.020000 3.250000 -0.020000
v -0.980000 3.226099 0.000000
v -1.000000 3.270000 -0.020000
v 0.480000 4.450000 -0.020000
v 0.500000 4.430000 -0.020000
v 0.520000 4.470000 0.000000
v -0.480000 4.450000 -0.020000
v -0.520000 4.470000 0.000000
v -0.500000 4.430000 -0.020000
v -0.480000 3.250000 -0.020000
v -0.500000 3.270000 -0.020000
v -0.520000 3.230000 0.000000
v 0.480000 3.250000 -0.020000
v 0.520000 3.230000 0.000000
v 0.500000 3.270000 -0.020000
v 1.020000 4.450000 -0.020000
v 0.980000 4.470000 0.000000
v 1.000000 4.430000 -0.020000
v 1.020000 3.250000 -0.020000
v 1.000000 3.270000 -0.020000
v 0.980000 3.230000 0.000000
v 2.000000 3.270000 -0.020000
v 1.980000 3.250000 -0.020000
v 2.020000 3.230000 0.000000
v 1.980000 4.450000 -0.020000
v 2.000000 4.430000 -0.020000
v 2.020000 4.470000 0.000000
v -2.010000 4.370000 0.040000
v -2.010000 4.430000 0.040000
v -2.010000 4.370000 -0.080000
v -2.010000 4.430000 -0.080000
v -0.990000 4.370000 0.040000
v -0.990000 4.430000 0.040000
v -0.990000 4.370000 -0.080000
v -0.990000 4.430000 -0.080000
v -2.010000 3.270000 0.040000
v -2.010000 3.330000 0.040000
v -2.010000 3.270000 -0.080000
v -2.010000 3.330000 -0.080000
v -0.990000 3.270000 0.040000
v -0.990000 3.330000 0.040000
v -0.990000 3.270000 -0.080000
v -0.990000 3.330000 -0.080000
v -1.980000 3.300000 0.040000
v -1.980000 4.400000 0.040000
v -1.980000 3.300000 -0.080000
v -1.980000 4.400000 -0.080000
v -1.920000 3.300000 0.040000
v -1.920000 4.400000 0.040000
v -1.920000 3.300000 -0.080000
v -1.920000 4.400000 -0.080000
v -1.080000 3.300000 0.040000
v -1.080000 4.400000 0.040000
v -1.080000 3.300000 -0.080000
v -1.080000 4.400000 -0.080000
v -1.020000 3.300000 0.040000
v -1.020000 4.400000 0.040000
v -1.020000 3.300000 -0.080000
v -1.020000 4.400000 -0.080000
v -1.950000 3.300000 -0.105000
v -1.950000 4.400000 -0.105000
v -1.950000 3.300000 -0.135000
v -1.950000 4.400000 -0.135000
v -1.050000 3.300000 -0.105000
v -1.050000 4.400000 -0.105000
v -1.050000 3.300000 -0.135000
v -1.050000 4.400000 -0.135000
v -2.040000 3.225000 0.180000
v -2.040000 3.295000 0.180000
v -2.040000 3.225000 -0.060000
v -2.040000 3.295000 -0.060000
v -0.960000 3.225000 0.180000
v -0.960000 3.295000 0.180000
v -0.960000 3.225000 -0.060000
v -0.960000 3.295000 -0.060000
v -0.510000 4.370000 0.040000
v -0.510000 4.430000 0.040000
v -0.510000 4.370000 -0.080000
v -0.510000 4.430000 -0.080000
v 0.510000 4.370000 0.040000
v 0.510000 4.430000 0.040000
v 0.510000 4.370000 -0.080000
v 0.510000 4.430000 -0.080000
v -0.510000 3.270000 0.040000
v -0.510000 3.330000 0.040000
v -0.510000 3.270000 -0.080000
v -0.510000 3.330000 -0.080000
v 0.510000 3.270000 0.040000
v 0.510000 3.330000 0.040000
v 0.510000 3.270000 -0.080000
v 0.510000 3.330000 -0.080000
v -0.480000 3.300000 0.040000
v -0.480000 4.400000 0.040000
v -0.480000 3.300000 -0.080000
v -0.480000 4.400000 -0.080000
v -0.420000 3.300000 0.040000
v -0.420000 4.400000 0.040000
v -0.420000 3.300000 -0.080000
v -0.420000 4.400000 -0.080000
v 0.420000 3.300000 0.040000
v 0.420000 4.400000 0.040000
v 0.420000 3.300000 -0.080000
v 0.420000 4.400000 -0.080000
v 0.480000 3.300000 0.040000
v 0.480000 4.400000 0.040000
v 0.480000 3.300000 -0.080000
v 0.480000 4.400000 -0.080000
v -0.450000 3.300000 -0.105000
v -0.450000 4.400000 -0.105000
v -0.450000 3.300000 -0.135000
v -0.450000 4.400000 -0.135000
v 0.450000 3.300000 -0.105000
v 0.450000 4.400000 -0.105000
v 0.450000 3.300000 -0.135000
v 0.450000 4.400000 -0.135000
v -0.540000 3.225000 0.180000
v -0.540000 3.295000 0.180000
v -0.540000 3.225000 -0.060000
v -0.540000 3.295000 -0.060000
v 0.540000 3.225000 0.180000
v 0.540000 3.295000 0.180000
v 0.540000 3.225000 -0.060000
v 0.540000 3.295000 -0.060000
v 0.990000 4.370000 0.040000
v 0.990000 4.430000 0.040000
v 0.990000 4.370000 -0.080000
v 0.990000 4.430000 -0.080000
v 2.010000 4.370000 0.040000
v 2.010000 4.430000 0.040000
v 2.010000 4.370000 -0.080000
v 2.010000 4.430000 -0.080000
v 0.990000 3.270000 0.040000
v 0.990000 3.330000 0.040000
v 0.990000 3.270000 -0.080000
v 0.990000 3.330000 -0.080000
v 2.010000 3.270000 0.040000
v 2.010000 3.330000 0.040000
v 2.010000 3.270000 -0.080000
v 2.010000 3.330000 -0.080000
v 1.020000 3.300000 0.040000
v 1.020000 4.400000 0.040000
v 1.020000 3.300000 -0.080000
v 1.020000 4.400000 -0.080000
v 1.080000 3.300000 0.040000
v 1.080000 4.400000 0.040000
v 1.080000 3.300000 -0.080000
v 1.080000 4.400000 -0.080000
v 1.920000 3.300000 0.040000
v 1.920000 4.400000 0.040000
v 1.920000 3.300000 -0.080000
v 1.920000 4.400000 -0.080000
v 1.980000 3.300000 0.040000
v 1.980000 4.400000 0.040000
v 1.980000 3.300000 -0.080000
v 1.980000 4.400000 -0.080000
v 1.050000 3.300000 -0.105000
v 1.050000 4.400000 -0.105000
v 1.050000 3.300000 -0.135000
v 1.050000 4.400000 -0.135000
v 1.950000 3.300000 -0.105000
v 1.950000 4.400000 -0.105000
v 1.950000 3.300000 -0.135000
v 1.950000 4.400000 -0.135000
v 0.960000 3.225000 0.180000
v 0.960000 3.295000 0.180000
v 0.960000 3.225000 -0.060000
v 0.960000 3.295000 -0.060000
v 2.040000 3.225000 0.180000
v 2.040000 3.295000 0.180000
v 2.040000 3.225000 -0.060000
v 2.040000 3.295000 -0.060000
v -2.500000 2.460000 0.700000
v -2.500000 2.580000 0.700000
v -2.500000 2.460000 0.000000
v -2.500000 2.580000 0.000000
v 2.500000 2.460000 0.700000
v 2.500000 2.580000 0.700000
v 2.500000 2.460000 0.000000
v 2.500000 2.580000 0.000000
v -2.500000 2.600000 0.725000
v -2.500000 3.300000 0.725000
v -2.500000 2.600000 0.675000
v -2.500000 3.300000 0.675000
v 2.500000 2.600000 0.725000
v 2.500000 3.300000 0.725000
v 2.500000 2.600000 0.675000
v 2.500000 3.300000 0.675000
v -2.480000 5.000000 -0.020000
v -2.483962 5.024057 0.000000
v -2.500000 5.020000 -0.020000
v -2.483643 7.482008 0.000000
v -2.480000 7.500000 -0.020000
v -2.500000 7.480000 -0.020000
v -2.480000 5.000000 -4.180000
v -2.500000 5.020000 -4.180000
v -2.480000 5.020000 -4.200000
v 1.020000 5.750000 -0.580000
v 1.020000 5.770000 -0.600000
v 1.000000 5.770000 -0.580000
v -0.480000 5.750000 -0.580000
v -0.480000 5.770000 -0.600000
v -0.500000 5.770000 -0.580000
v 1.020000 6.930000 -0.600000
v 1.020000 6.950000 -0.580000
v 1.000000 6.930000 -0.580000
v -1.980000 5.750000 -0.580000
v -1.980000 5.770000 -0.600000
v -2.000000 5.770000 -0.580000
v -0.480000 6.930000 -0.600000
v -0.480000 6.950000 -0.580000
v -0.500000 6.930000 -0.580000
v -2.480000 7.500000 -4.180000
v -2.480000 7.480000 -4.200000
v -2.500000 7.480000 -4.180000
v 1.980000 5.750000 -0.580000
v 2.000000 5.770000 -0.580000
v 1.980000 5.770000 -0.600000
v -1.980000 6.930000 -0.600000
v -1.980000 6.950000 -0.580000
v -2.000000 6.930000 -0.580000
v 2.000000 6.930000 -0.580000
v 1.980000 6.950000 -0.580000
v 1.980000 6.930000 -0.600000
v 2.480000 5.000000 -0.020000
v 2.500000 5.020000 -0.020000
v 2.480000 5.023901 0.000000
v 0.480000 5.750000 -0.580000
v 0.500000 5.770000 -0.580000
v 0.480000 5.770000 -0.600000
v 2.480000 7.500000 -0.020000
v 2.480000 7.481930 0.000000
v 2.500000 7.480000 -0.020000
v 0.500000 6.930000 -0.580000
v 0.480000 6.950000 -0.580000
v 0.480000 6.930000 -0.600000
v 2.480000 5.000000 -4.180000
v 2.480000 5.020000 -4.200000
v 2.500000 5.020000 -4.180000
v -1.020000 5.750000 -0.580000
v -1.000000 5.770000 -0.580000
v -1.020000 5.770000 -0.600000
v 2.480000 7.500000 -4.180000
v 2.500000 7.480000 -4.180000
v 2.480000 7.480000 -4.200000
v -1.000000 6.930000 -0.580000
v -1.020000 6.950000 -0.580000
v -1.020000 6.930000 -0.600000
v -1.000000 6.930000 -0.020000
v -0.980000 6.968070 0.000000
v -1.020000 6.950000 -0.020000
v -1.980000 5.750000 -0.020000
v -2.000000 5.770000 -0.020000
v -2.016038 5.725943 0.000000
v -1.980000 6.950000 -0.020000
v -2.016357 6.967992 0.000000
v -2.000000 6.930000 -0.020000
v -1.000000 5.770000 -0.020000
v -1.020000 5.750000 -0.020000
v -0.980000 5.726099 0.000000
v -0.500000 5.770000 -0.020000
v -0.520000 5.730000 0.000000
v -0.480000 5.750000 -0.020000
v 0.480000 5.750000 -0.020000
v 0.520000 5.730000 0.000000
v 0.500000 5.770000 -0.020000
v 0.480000 6.950000 -0.020000
v 0.500000 6.930000 -0.020000
v 0.520000 6.970000 0.000000
v -0.500000 6.930000 -0.020000
v -0.480000 6.950000 -0.020000
v -0.520000 6.970000 0.000000
v 1.020000 6.950000 -0.020000
v 0.980000 6.970000 0.000000
v 1.000000 6.930000 -0.020000
v 1.020000 5.750000 -0.020000
v 1.000000 5.770000 -0.020000
v 0.980000 5.730000 0.000000
v 2.000000 5.770000 -0.020000
v 1.980000 5.750000 -0.020000
v 2.020000 5.730000 0.000000
v 1.980000 6.950000 -0.020000
v 2.000000 6.930000 -0.020000
v 2.020000 6.970000 0.000000
v -2.010000 6.870000 0.040000
v -2.010000 6.930000 0.040000
v -2.010000 6.870000 -0.080000
v -2.010000 6.930000 -0.080000
v -0.990000 6.870000 0.040000
v -0.990000 6.930000 0.040000
v -0.990000 6.870000 -0.080000
v -0.990000 6.930000 -0.080000
v -2.010000 5.770000 0.040000
v -2.010000 5.830000 0.040000
v -2.010000 5.770000 -0.080000
v -2.010000 5.830000 -0.080000
v -0.990000 5.770000 0.040000
v -0.990000 5.830000 0.040000
v -0.990000 5.770000 -0.080000
v -0.990000 5.830000 -0.080000
v -1.980000 5.800000 0.040000
v -1.980000 6.900000 0.040000
v -1.980000 5.800000 -0.080000
v -1.980000 6.900000 -0.080000
v -1.920000 5.800000 0.040000
v -1.920000 6.900000 0.040000
v -1.920000 5.800000 -0.080000
v -1.920000 6.900000 -0.080000
v -1.080000 5.800000 0.040000
v -1.080000 6.900000 0.040000
v -1.080000 5.800000 -0.080000
v -1.080000 6.900000 -0.080000
v -1.020000 5.800000 0.040000
v -1.020000 6.900000 0.040000
v -1.020000 5.800000 -0.080000
v -1.020000 6.900000 -0.080000
v -1.950000 5.800000 -0.105000
v -1.950000 6.900000 -0.105000
v -1.950000 5.800000 -0.135000
v -1.950000 6.900000 -0.135000
v -1.050000 5.800000 -0.105000
v -1.050000 6.900000 -0.105000
v -1.050000 5.800000 -0.135000
v -1.050000 6.900000 -0.135000
v -2.040000 5.725000 0.180000
v -2.040000 5.795000 0.180000
v -2.040000 5.725000 -0.060000
v -2.040000 5.795000 -0.060000
v -0.960000 5.725000 0.180000
v -0.960000 5.795000 0.180000
v -0.960000 5.725000 -0.060000
v -0.960000 5.795000 -0.060000
v -0.510000 6.870000 0.040000
v -0.510000 6.930000 0.040000
v -0.510000 6.870000 -0.080000
v -0.510000 6.930000 -0.080000
v 0.510000 6.870000 0.040000
v 0.510000 6.930000 0.040000
v 0.510000 6.870000 -0.080000
v 0.510000 6.930000 -0.080000
v -0.510000 5.770000 0.040000
v -0.510000 5.830000 0.040000
v -0.510000 5.770000 -0.080000
v -0.510000 5.830000 -0.080000
v 0.510000 5.770000 0.040000
v 0.510000 5.830000 0.040000
v 0.510000 5.770000 -0.080000
v 0.510000 5.830000 -0.080000
v -0.480000 5.800000 0.040000
v -0.480000 6.900000 0.040000
v -0.480000 5.800000 -0.080000
v -0.480000 6.900000 -0.080000
v -0.420000 5.800000 0.040000
v -0.420000 6.900000 0.040000
v -0.420000 5.800000 -0.080000
v -0.420000 6.900000 -0.080000
v 0.420000 5.800000 0.040000
v 0.420000 6.900000 0.040000
v 0.420000 5.800000 -0.080000
v 0.420000 6.900000 -0.080000
v 0.480000 5.800000 0.040000
v 0.480000 6.900000 0.040000
v 0.480000 5.800000 -0.080000
v 0.480000 6.900000 -0.080000
v -0.450000 5.800000 -0.105000
v -0.450000 6.900000 -0.105000
v -0.450000 5.800000 -0.135000
v -0.450000 6.900000 -0.135000
v 0.450000 5.800000 -0.105000
v 0.450000 6.900000 -0.105000
v 0.450000 5.800000 -0.135000
v 0.450000 6.900000 -0.135000
v -0.540000 5.725000 0.180000
v -0.540000 5.795000 0.180000
v -0.540000 5.725000 -0.060000
v -0.540000 5.795000 -0.060000
v 0.540000 5.725000 0.180000
v 0.540000 5.795000 0.180000
v 0.540000 5.725000 -0.060000
v 0.540000 5.795000 -0.060000
v 0.990000 6.870000 0.040000
v 0.990000 6.930000 0.040000
v 0.990000 6.870000 -0.080000
v 0.990000 6.930000 -0.080000
v 2.010000 6.870000 0.040000
v 2.010000 6.930000 0.040000
v 2.010000 6.870000 -0.080000
v 2.010000 6.930000 -0.080000
v 0.990000 5.770000 0.040000
v 0.990000 5.830000 0.040000
v 0.990000 5.770000 -0.080000
v 0.990000 5.830000 -0.080000
v 2.010000 5.770000 0.040000
v 2.010000 5.830000 0.040000
v 2.010000 5.770000 -0.080000
v 2.010000 5.830000 -0.080000
v 1.020000 5.800000 0.040000
v 1.020000 6.900000 0.040000
v 1.020000 5.800000 -0.080000
v 1.020000 6.900000 -0.080000
v 1.080000 5.800000 0.040000
v 1.080000 6.900000 0.040000
v 1.080000 5.800000 -0.080000
v 1.080000 6.900000 -0.080000
v 1.920000 5.800000 0.040000
v 1.920000 6.900000 0.040000
v 1.920000 5.800000 -0.080000
v 1.920000 6.900000 -0.080000
v 1.980000 5.800000 0.040000
v 1.980000 6.900000 0.040000
v 1.980000 5.800000 -0.080000
v 1.980000 6.900000 -0.080000
v 1.050000 5.800000 -0.105000
v 1.050000 6.900000 -0.105000
v 1.050000 5.800000 -0.135000
v 1.050000 6.900000 -0.135000
v 1.950000 5.800000 -0.105000
v 1.950000 6.900000 -0.105000
v 1.950000 5.800000 -0.135000
v 1.950000 6.900000 -0.135000
v 0.960000 5.725000 0.180000
v 0.960000 5.795000 0.180000
v 0.960000 5.725000 -0.060000
v 0.960000 5.795000 -0.060000
v 2.040000 5.725000 0.180000
v 2.040000 5.795000 0.180000
v 2.040000 5.725000 -0.060000
v 2.040000 5.795000 -0.060000
v -2.500000 4.960000 0.700000
v -2.500000 5.080000 0.700000
v -2.500000 4.960000 0.000000
v -2.500000 5.080000 0.000000
v 2.500000 4.960000 0.700000
v 2.500000 5.080000 0.700000
v 2.500000 4.960000 0.000000
v 2.500000 5.080000 0.000000
v -2.500000 5.100000 0.725000
v -2.500000 5.800000 0.725000
v -2.500000 5.100000 0.675000
v -2.500000 5.800000 0.675000
v 2.500000 5.100000 0.725000
v 2.500000 5.800000 0.725000
v 2.500000 5.100000 0.675000
v 2.500000 5.800000 0.675000
v -2.600000 7.500000 0.100000
v -2.600000 7.660000 0.100000
v -2.600000 7.500000 -4.300000
v -2.600000 7.660000 -4.300000
v 2.600000 7.500000 0.100000
v 2.600000 7.660000 0.100000
v 2.600000 7.500000 -4.300000
v 2.600000 7.660000 -4.300000
v -2.650000 7.630000 0.060000
v -2.650000 7.930000 0.060000
v -2.650000 7.630000 -0.060000
v -2.650000 7.930000 -0.060000
v 2.650000 7.630000 0.060000
v 2.650000 7.930000 0.060000
v 2.650000 7.630000 -0.060000
v 2.650000 7.930000 -0.060000
v -2.650000 7.630000 -4.140000
v -2.650000 7.930000 -4.140000
v -2.650000 7.630000 -4.260000
v -2.650000 7.930000 -4.260000
v 2.650000 7.630000 -4.140000
v 2.650000 7.930000 -4.140000
v 2.650000 7.630000 -4.260000
v 2.650000 7.930000 -4.260000
v -2.560000 7.630000 0.150000
v -2.560000 7.930000 0.150000
v -2.560000 7.630000 -4.350000
v -2.560000 7.930000 -4.350000
v -2.440000 7.630000 0.150000
v -2.440000 7.930000 0.150000
v -2.440000 7.630000 -4.350000
v -2.440000 7.930000 -4.350000
v 2.440000 7.630000 0.150000
v 2.440000 7.930000 0.150000
v 2.440000 7.630000 -4.350000
v 2.440000 7.930000 -4.350000
v 2.560000 7.630000 0.150000
v 2.560000 7.930000 0.150000
v 2.560000 7.630000 -4.350000
v 2.560000 7.930000 -4.350000
v 0.850000 7.900000 -1.450000
v 0.850000 8.900000 -1.450000
v 0.850000 7.900000 -2.750000
v 0.850000 8.900000 -2.750000
v 2.150000 7.900000 -1.450000
v 2.150000 8.900000 -1.450000
v 2.150000 7.900000 -2.750000
v 2.150000 8.900000 -2.750000
v 1.450000 7.600000 -2.050000
v 1.450000 8.200000 -2.050000
v 1.450000 7.600000 -2.150000
v 1.450000 8.200000 -2.150000
v 1.550000 7.600000 -2.050000
v 1.550000 8.200000 -2.050000
v 1.550000 7.600000 -2.150000
v 1.550000 8.200000 -2.150000
v -3.200000 0.639975 3.326099
v -3.200000 0.773801 3.474728
v -3.200000 4.727272 -0.354120
v -3.200000 4.861098 -0.205491
v -2.400000 0.639975 3.326099
v -2.400000 0.773801 3.474728
v -2.400000 4.727272 -0.354120
v -2.400000 4.861098 -0.205491
v -1.700000 0.150000 0.700000
v -1.700000 0.850000 0.700000
v -1.700000 0.150000 0.300000
v -1.700000 0.850000 0.300000
v -0.300000 0.150000 0.700000
v -0.300000 0.850000 0.700000
v -0.300000 0.150000 0.300000
v -0.300000 0.850000 0.300000
vn -0.5764 -0.5764 0.5792
vn -0.6306 0.6306 0.4524
vn -0.5774 -0.5773 -0.5774
vn 0.5774 0.5774 0.5774
vn 0.5773 0.5773 0.5774
vn 0.5774 -0.5774 0.5774
vn 0.5773 -0.5773 0.5774
vn -0.5774 0.5773 -0.5774
vn -0.5774 0.5774 0.5774
vn -0.5774 -0.5774 0.5774
vn 0.5401 -0.5401 0.6454
vn -0.5773 0.5773 0.5774
vn 0.5959 0.5959 0.5384
vn -0.5773 -0.5773 0.5774
vn 0.5774 -0.5773 -0.5774
vn 0.5774 0.5773 -0.5774
vn -0.3096 -0.3096 0.8990
vn 0.3011 0.3011 0.9048
vn 0.3264 -0.3264 0.8871
vn -0.2862 0.2862 0.9144
vn -0.3015 -0.3015 0.9045
vn 0.3015 -0.3015 0.9045
vn 0.3015 0.3015 0.9045
vn -0.3015 0.3015 0.9045
vn -0.7071 -0.7071 -0.0000
vn -0.7771 0.0001 0.6294
vn -0.7071 0.7071 -0.0000
vn -0.7071 -0.0000 -0.7071
vn -0.0000 -0.7071 -0.7071
vn -0.0000 0.7071 -0.7071
vn 0.7071 -0.0000 -0.7071
vn 0.7071 -0.7071 -0.0000
vn 0.7071 0.7071 -0.0000
vn 0.7071 -0.0000 0.7071
vn -0.0001 0.6405 0.7679
vn -0.0000 -0.6405 0.7679
vn -0.0000 0.7427 0.6696
vn -0.0000 -0.7427 0.6696
vn -0.0000 -0.7071 0.7071
vn -0.7071 -0.0000 0.7071
vn -0.0000 0.7071 0.7071
vn 0.7771 0.0001 0.6294
vn -0.0000 -1.0000 -0.0000
vn -1.0000 -0.0000 -0.0000
vn -0.0000 -0.0000 1.0000
vn -0.0000 1.0000 -0.0000
vn -0.0000 -0.0000 -1.0000
vn 1.0000 -0.0000 -0.0000
vn 0.5774 0.5773 0.5773
vn 0.5773 -0.5774 0.5774
vn -0.5773 0.5773 -0.5774
vn -0.5774 0.5773 0.5773
vn -0.5773 -0.5774 0.5774
vn 0.5773 0.5773 -0.5774
vn -0.5773 -0.5773 -0.5774
vn 0.5773 0.5774 0.5774
vn 0.5774 -0.5773 0.5773
vn -0.5773 0.5774 -0.5774
vn -0.5773 0.5774 0.5774
vn -0.5774 -0.5773 0.5773
vn 0.5773 -0.5773 -0.5774
vn 0.5773 0.5774 -0.5774
vn -0.0000 0.7431 -0.6691
vn -0.0000 -0.7431 0.6691
vn -0.0000 -0.6691 -0.7431
vn -0.0000 0.6691 0.7431
vt 0.126000 0.748810
vt 0.125802 0.750000
vt 0.125000 0.748810
vt 0.623201 0.000000
vt 0.625000 0.001190
vt 0.623000 0.001190
vt 0.126000 0.501190
vt 0.125000 0.501190
vt 0.126000 0.500000
vt 0.130000 0.504167
vt 0.130000 0.500000
vt 0.125000 0.504167
vt 0.620833 0.253750
vt 0.625000 0.248889
vt 0.620833 0.245833
vt 0.620833 0.253750
vt 0.625000 0.249540
vt 0.623000 0.250750
vt 0.623000 0.248810
vt 0.370000 0.504167
vt 0.378125 0.504167
vt 0.374583 0.497500
vt 0.620833 0.503125
vt 0.627500 0.499583
vt 0.620833 0.495000
vt 0.374000 0.748810
vt 0.376500 0.748810
vt 0.375695 0.750500
vt 0.370000 0.504167
vt 0.625500 0.749905
vt 0.623193 0.751000
vt 0.623000 0.749107
vt 0.627500 0.499583
vt 0.374000 0.501190
vt 0.375500 0.499500
vt 0.376500 0.501191
vt 0.625500 0.500095
vt 0.623000 0.500893
vt 0.623000 0.499000
vt 0.620833 0.503125
vt 0.570000 0.926000
vt 0.569000 0.925000
vt 0.571807 0.924000
vt 0.450000 0.974500
vt 0.452000 0.975000
vt 0.447594 0.975802
vt 0.570000 0.974500
vt 0.571799 0.975818
vt 0.568000 0.975000
vt 0.450000 0.926000
vt 0.447610 0.924000
vt 0.451000 0.925000
vt 0.570000 0.851000
vt 0.569000 0.850000
vt 0.572000 0.849000
vt 0.570000 0.899000
vt 0.572000 0.901000
vt 0.569000 0.900000
vt 0.450000 0.899000
vt 0.451000 0.900000
vt 0.448000 0.901000
vt 0.450000 0.851000
vt 0.448000 0.849000
vt 0.451000 0.850000
vt 0.570000 0.824000
vt 0.572000 0.826000
vt 0.569000 0.825000
vt 0.450000 0.824000
vt 0.451000 0.825000
vt 0.448000 0.826000
vt 0.452000 0.775000
vt 0.450000 0.776000
vt 0.448000 0.774000
vt 0.570000 0.776000
vt 0.568000 0.775000
vt 0.572000 0.774000
vt 0.377406 0.000000
vt 0.377000 0.001190
vt 0.377000 0.248810
vt 0.377000 0.251000
vt 0.623201 0.999182
vt 0.625000 0.999000
vt 0.125000 0.620833
vt 0.130000 0.620833
vt 0.379167 0.255000
vt 0.379167 0.245833
vt 0.625000 0.129167
vt 0.620833 0.129167
vt 0.620833 0.620833
vt 0.630000 0.620833
vt 0.370000 0.620833
vt 0.379167 0.620833
vt 0.130000 0.620833
vt 0.379167 0.255000
vt 0.620833 0.129167
vt 0.377406 0.999198
vt 0.874000 0.501190
vt 0.874000 0.748810
vt 0.379167 0.129167
vt 0.870000 0.620833
vt 0.870000 0.504167
vt 0.870000 0.504167
vt 0.375000 0.000000
vt 0.625000 0.000000
vt 0.625000 0.250000
vt 0.375000 0.250000
vt 0.625000 0.500000
vt 0.375000 0.500000
vt 0.625000 0.750000
vt 0.375000 0.750000
vt 0.625000 1.000000
vt 0.375000 1.000000
vt 0.125000 0.500000
vt 0.125000 0.750000
vt 0.875000 0.500000
vt 0.875000 0.750000
vt 0.627500 0.499583
vt 0.620833 0.495000
vt 0.374583 0.497500
vt 0.376500 0.501191
vt 0.570000 0.926000
vt 0.569000 0.925000
vt 0.571807 0.924000
vt 0.571799 0.975818
vt 0.568000 0.975000
vt 0.570000 0.851000
vt 0.569000 0.850000
vt 0.572000 0.849000
vt 0.570000 0.899000
vt 0.572000 0.901000
vt 0.569000 0.900000
vt 0.450000 0.899000
vt 0.451000 0.900000
vt 0.448000 0.901000
vt 0.450000 0.851000
vt 0.448000 0.849000
vt 0.451000 0.850000
vt 0.570000 0.824000
vt 0.572000 0.826000
vt 0.569000 0.825000
vt 0.450000 0.824000
vt 0.451000 0.825000
vt 0.448000 0.826000
vt 0.570000 0.776000
vt 0.568000 0.775000
vt 0.572000 0.774000
vt 0.623201 0.999182
vt 0.379167 0.255000
vt 0.623000 0.250750
vt 0.375695 0.750500
vt 0.374583 0.497500
vt 0.623000 0.500893
vt 0.447610 0.924000
vt 0.451000 0.900000
vt 0.450000 0.899000
vt 0.450000 0.851000
vt 0.448000 0.849000
vt 0.451000 0.850000
vt 0.570000 0.851000
vt 0.569000 0.850000
vt 0.572000 0.901000
vt 0.450000 0.824000
vt 0.451000 0.825000
vt 0.570000 0.776000
s 0
usemtl SURF_Plaster_Wall
f 1/1/1 2/2/1 3/3/1
f 4/4/2 5/5/2 6/6/2
f 7/7/3 8/8/3 9/9/3
f 10/10/4 11/11/4 12/12/4
f 13/10/5 14/11/5 15/12/5
f 16/13/6 17/14/6 18/15/6
f 19/10/4 20/11/4 21/12/4
f 22/16/7 23/14/7 24/15/7
f 25/17/8 26/18/8 27/19/8
f 28/20/9 29/21/9 30/22/9
f 31/13/6 32/14/6 33/15/6
f 34/23/10 35/24/10 36/25/10
f 37/26/11 38/27/11 39/28/11
f 40/29/12 41/21/12 42/22/12
f 43/30/13 44/31/13 45/32/13
f 46/23/14 47/33/14 48/25/14
f 49/34/15 50/35/15 51/36/15
f 52/20/9 53/21/9 54/22/9
f 55/37/16 56/38/16 57/39/16
f 58/40/10 59/24/10 60/25/10
f 61/41/17 62/42/17 63/43/17
f 64/44/18 65/45/18 66/46/18
f 67/47/19 68/48/19 69/49/19
f 70/50/20 71/51/20 72/52/20
f 73/53/21 74/54/21 75/55/21
f 76/56/22 77/57/22 78/58/22
f 79/59/23 80/60/23 81/61/23
f 82/62/24 83/63/24 84/64/24
f 85/65/22 86/66/22 87/67/22
f 88/68/23 89/69/23 90/70/23
f 91/71/24 92/72/24 93/73/24
f 94/74/21 95/75/21 96/76/21
f 3/3/25 8/8/25 7/7/25 1/1/25
f 2/77/26 4/4/26 6/6/26 3/78/26
f 5/5/27 25/17/27 27/19/27 6/6/27
f 8/79/28 27/19/28 26/18/28 9/80/28
f 9/9/29 50/35/29 49/34/29 7/7/29
f 25/17/30 55/37/30 57/39/30 26/18/30
f 50/35/31 57/39/31 56/38/31 51/36/31
f 37/26/32 49/34/32 51/36/32 38/27/32
f 45/32/33 56/38/33 55/37/33 43/30/33
f 38/27/34 45/32/34 44/31/34 39/28/34
f 66/46/35 71/51/35 70/50/35 64/44/35
f 1/1/36 37/26/36 39/28/36 2/2/36
f 4/81/37 44/31/37 43/30/37 5/82/37
f 63/43/38 68/48/38 67/47/38 61/41/38
f 75/55/39 77/57/39 76/56/39 73/53/39
f 85/65/39 94/74/39 96/76/39 86/66/39
f 93/73/40 96/76/40 95/75/40 91/71/40
f 90/70/41 93/73/41 92/72/41 88/68/41
f 81/61/41 83/63/41 82/62/41 79/59/41
f 74/54/40 84/64/40 83/63/40 75/55/40
f 86/66/34 90/70/34 89/69/34 87/67/34
f 62/42/40 72/52/40 71/51/40 63/43/40
f 77/57/34 81/61/34 80/60/34 78/58/34
f 65/45/42 69/49/42 68/48/42 66/46/42
f 21/12/33 65/83/33 64/84/33 19/10/33
f 20/85/34 31/13/34 33/15/34 21/86/34
f 32/14/32 67/87/32 69/88/32 33/15/32
f 19/10/41 52/20/41 54/22/41 20/11/41
f 53/21/40 58/40/40 60/25/40 54/22/40
f 31/13/39 60/25/39 59/24/39 32/14/39
f 58/40/25 62/89/25 61/90/25 59/24/25
f 52/20/27 70/91/27 72/92/27 53/21/27
f 15/12/33 80/83/33 79/93/33 13/10/33
f 14/94/34 22/16/34 24/15/34 15/86/34
f 23/14/32 76/87/32 78/95/32 24/15/32
f 13/10/41 40/29/41 42/22/41 14/11/41
f 41/21/40 46/23/40 48/25/40 42/22/40
f 22/16/39 48/25/39 47/33/39 23/14/39
f 46/23/25 74/89/25 73/90/25 47/33/25
f 40/29/27 82/91/27 84/92/27 41/21/27
f 12/12/33 89/83/33 88/84/33 10/10/33
f 11/85/34 16/13/34 18/15/34 12/86/34
f 17/14/32 85/87/32 87/95/32 18/15/32
f 10/10/41 28/20/41 30/22/41 11/11/41
f 29/21/40 34/23/40 36/25/40 30/22/40
f 16/13/39 36/25/39 35/24/39 17/14/39
f 34/23/25 95/89/25 94/90/25 35/24/25
f 28/20/27 92/91/27 91/92/27 29/21/27
f 7/7/43 49/34/43 37/26/43 1/1/43
f 3/78/44 6/6/44 27/19/44 8/79/44
f 68/48/45 4/81/45 2/96/45 66/46/45
f 71/51/45 66/46/45 2/96/45 39/28/45 44/31/45 4/81/45 68/48/45 63/43/45 77/57/45 75/55/45 86/66/45 96/76/45 93/73/45 90/70/45 83/63/45 81/61/45
f 55/37/46 25/97/46 5/98/46 43/30/46
f 9/80/47 26/18/47 57/39/47 50/35/47
f 92/91/46 28/20/46 10/10/46 88/84/46
f 89/99/48 12/86/48 18/15/48 87/95/48
f 11/85/45 30/22/45 36/25/45 16/13/45
f 82/91/46 40/29/46 13/10/46 79/93/46
f 80/99/48 15/86/48 24/15/48 78/95/48
f 14/94/45 42/22/45 48/25/45 22/16/45
f 85/100/43 17/101/43 35/24/43 94/90/43
f 70/91/46 52/20/46 19/10/46 64/84/46
f 21/86/48 33/15/48 69/88/48 65/99/48
f 20/85/45 54/22/45 60/25/45 31/13/45
f 76/100/43 23/102/43 47/33/43 73/90/43
f 34/23/44 29/21/44 91/92/44 95/89/44
f 67/100/43 32/101/43 59/24/43 61/90/43
f 51/36/48 56/38/48 45/32/48 38/27/48
f 46/23/44 41/21/44 84/92/44 74/89/44
f 58/40/44 53/21/44 72/92/44 62/89/44
f 63/43/45 71/51/45 81/61/45 77/57/45
f 75/55/45 83/63/45 90/70/45 86/66/45
f 513/1/1 514/2/1 515/3/1
f 516/4/2 517/5/2 518/6/2
f 519/7/55 520/8/55 521/9/55
f 522/10/56 523/11/56 524/12/56
f 525/10/56 526/11/56 527/12/56
f 528/13/57 529/14/57 530/15/57
f 531/10/56 532/11/56 533/12/56
f 534/16/57 535/14/57 536/15/57
f 537/17/58 538/149/58 539/19/58
f 540/20/59 541/21/59 542/22/59
f 543/13/57 544/14/57 545/15/57
f 546/40/60 547/117/60 548/118/60
f 549/26/11 550/27/11 551/150/11
f 552/29/59 553/21/59 554/151/59
f 555/30/13 556/31/13 557/32/13
f 558/40/60 559/33/60 560/118/60
f 561/34/61 562/35/61 563/36/61
f 564/20/59 565/21/59 566/22/59
f 567/37/62 568/152/62 569/39/62
f 570/23/60 571/117/60 572/118/60
f 573/122/17 574/123/17 575/121/17
f 576/44/18 577/45/18 578/46/18
f 579/47/19 580/124/19 581/125/19
f 582/52/20 583/50/20 584/153/20
f 585/154/23 586/61/23 587/155/23
f 588/156/24 589/157/24 590/158/24
f 591/159/21 592/160/21 593/128/21
f 594/131/22 595/129/22 596/161/22
f 597/138/22 598/139/22 599/140/22
f 600/162/23 601/163/23 602/143/23
f 603/71/24 604/72/24 605/73/24
f 606/164/21 607/145/21 608/146/21
f 515/3/25 520/8/25 519/7/25 513/1/25
f 514/77/26 516/4/26 518/6/26 515/78/26
f 517/5/27 537/17/27 539/19/27 518/6/27
f 520/79/28 539/19/28 538/149/28 521/80/28
f 521/9/29 562/35/29 561/34/29 519/7/29
f 537/17/30 567/37/30 569/39/30 538/149/30
f 562/35/31 569/39/31 568/152/31 563/36/31
f 549/26/32 561/34/32 563/36/32 550/27/32
f 557/32/33 568/152/33 567/37/33 555/30/33
f 550/27/34 557/32/34 556/31/34 551/150/34
f 573/122/40 582/52/40 584/153/40 574/123/40
f 585/154/34 594/131/34 596/161/34 586/61/34
f 578/46/35 584/153/35 583/50/35 576/44/35
f 513/1/36 549/26/36 551/150/36 514/2/36
f 516/147/37 556/31/37 555/30/37 517/82/37
f 574/123/38 580/124/38 579/47/38 575/121/38
f 593/128/39 596/161/39 595/129/39 591/159/39
f 597/138/39 606/164/39 608/146/39 598/139/39
f 605/73/40 608/146/40 607/145/40 603/71/40
f 602/143/41 605/73/41 604/72/41 600/162/41
f 586/61/41 589/157/41 588/156/41 587/155/41
f 589/157/40 593/128/40 592/160/40 590/158/40
f 598/139/34 602/143/34 601/163/34 599/140/34
f 577/45/42 581/125/42 580/124/42 578/46/42
f 533/12/33 577/83/33 576/84/33 531/10/33
f 532/148/34 543/13/34 545/15/34 533/86/34
f 544/14/32 579/87/32 581/88/32 545/15/32
f 531/10/41 564/20/41 566/22/41 532/11/41
f 565/21/40 570/23/40 572/118/40 566/22/40
f 543/13/39 572/118/39 571/117/39 544/14/39
f 570/23/25 573/89/25 575/90/25 571/117/25
f 564/20/27 583/91/27 582/92/27 565/21/27
f 527/12/33 585/83/33 587/93/33 525/10/33
f 526/94/34 534/16/34 536/15/34 527/86/34
f 535/14/32 595/87/32 594/95/32 536/15/32
f 525/10/41 552/29/41 554/151/41 526/11/41
f 553/21/40 558/40/40 560/118/40 554/151/40
f 534/16/39 560/118/39 559/33/39 535/14/39
f 558/40/25 592/89/25 591/90/25 559/33/25
f 552/29/27 588/91/27 590/92/27 553/21/27
f 524/12/33 601/83/33 600/84/33 522/10/33
f 523/148/34 528/13/34 530/15/34 524/86/34
f 529/14/32 597/87/32 599/95/32 530/15/32
f 522/10/41 540/20/41 542/22/41 523/11/41
f 541/21/40 546/40/40 548/118/40 542/22/40
f 528/13/39 548/118/39 547/117/39 529/14/39
f 546/40/25 607/89/25 606/90/25 547/117/25
f 540/20/27 604/91/27 603/92/27 541/21/27
f 519/7/43 561/34/43 549/26/43 513/1/43
f 515/78/44 518/6/44 539/19/44 520/79/44
f 580/124/45 516/147/45 514/96/45 578/46/45
f 584/153/45 578/46/45 514/96/45 551/150/45 556/31/45 516/147/45 580/124/45 574/123/45 596/161/45 593/128/45 598/139/45 608/146/45 605/73/45 602/143/45 589/157/45 586/61/45
f 567/37/46 537/97/46 517/98/46 555/30/46
f 521/80/47 538/149/47 569/39/47 562/35/47
f 604/91/46 540/20/46 522/10/46 600/84/46
f 601/99/48 524/86/48 530/15/48 599/95/48
f 523/148/45 542/22/45 548/118/45 528/13/45
f 588/91/46 552/29/46 525/10/46 587/93/46
f 585/99/48 527/86/48 536/15/48 594/95/48
f 526/94/45 554/151/45 560/118/45 534/16/45
f 597/100/43 529/101/43 547/117/43 606/90/43
f 583/91/46 564/20/46 531/10/46 576/84/46
f 533/86/48 545/15/48 581/88/48 577/99/48
f 532/148/45 566/22/45 572/118/45 543/13/45
f 595/100/43 535/102/43 559/33/43 591/90/43
f 546/40/44 541/21/44 603/92/44 607/89/44
f 579/100/43 544/101/43 571/117/43 575/90/43
f 563/36/48 568/152/48 557/32/48 550/27/48
f 558/40/44 553/21/44 590/92/44 592/89/44
f 570/23/44 565/21/44 582/92/44 573/89/44
f 574/123/45 584/153/45 586/61/45 596/161/45
f 593/128/45 589/157/45 602/143/45 598/139/45
usemtl SURF_Wood_Dark
f 97/103/44 98/104/44 100/105/44 99/106/44
f 99/106/47 100/105/47 104/107/47 103/108/47
f 103/108/48 104/107/48 102/109/48 101/110/48
f 101/110/45 102/109/45 98/111/45 97/112/45
f 99/113/43 103/108/43 101/110/43 97/114/43
f 104/107/46 100/115/46 98/116/46 102/109/46
f 105/103/44 106/104/44 108/105/44 107/106/44
f 107/106/47 108/105/47 112/107/47 111/108/47
f 111/108/48 112/107/48 110/109/48 109/110/48
f 109/110/45 110/109/45 106/111/45 105/112/45
f 107/113/43 111/108/43 109/110/43 105/114/43
f 112/107/46 108/115/46 106/116/46 110/109/46
f 113/103/44 114/104/44 116/105/44 115/106/44
f 115/106/47 116/105/47 120/107/47 119/108/47
f 119/108/48 120/107/48 118/109/48 117/110/48
f 117/110/45 118/109/45 114/111/45 113/112/45
f 115/113/43 119/108/43 117/110/43 113/114/43
f 120/107/46 116/115/46 114/116/46 118/109/46
f 121/103/44 122/104/44 124/105/44 123/106/44
f 123/106/47 124/105/47 128/107/47 127/108/47
f 127/108/48 128/107/48 126/109/48 125/110/48
f 125/110/45 126/109/45 122/111/45 121/112/45
f 123/113/43 127/108/43 125/110/43 121/114/43
f 128/107/46 124/115/46 122/116/46 126/109/46
f 145/103/44 146/104/44 148/105/44 147/106/44
f 147/106/47 148/105/47 152/107/47 151/108/47
f 151/108/48 152/107/48 150/109/48 149/110/48
f 149/110/45 150/109/45 146/111/45 145/112/45
f 147/113/43 151/108/43 149/110/43 145/114/43
f 152/107/46 148/115/46 146/116/46 150/109/46
f 153/103/44 154/104/44 156/105/44 155/106/44
f 155/106/47 156/105/47 160/107/47 159/108/47
f 159/108/48 160/107/48 158/109/48 157/110/48
f 157/110/45 158/109/45 154/111/45 153/112/45
f 155/113/43 159/108/43 157/110/43 153/114/43
f 160/107/46 156/115/46 154/116/46 158/109/46
f 161/103/44 162/104/44 164/105/44 163/106/44
f 163/106/47 164/105/47 168/107/47 167/108/47
f 167/108/48 168/107/48 166/109/48 165/110/48
f 165/110/45 166/109/45 162/111/45 161/112/45
f 163/113/43 167/108/43 165/110/43 161/114/43
f 168/107/46 164/115/46 162/116/46 166/109/46
f 169/103/44 170/104/44 172/105/44 171/106/44
f 171/106/47 172/105/47 176/107/47 175/108/47
f 175/108/48 176/107/48 174/109/48 173/110/48
f 173/110/45 174/109/45 170/111/45 169/112/45
f 171/113/43 175/108/43 173/110/43 169/114/43
f 176/107/46 172/115/46 170/116/46 174/109/46
f 193/103/44 194/104/44 196/105/44 195/106/44
f 195/106/47 196/105/47 200/107/47 199/108/47
f 199/108/48 200/107/48 198/109/48 197/110/48
f 197/110/45 198/109/45 194/111/45 193/112/45
f 195/113/43 199/108/43 197/110/43 193/114/43
f 200/107/46 196/115/46 194/116/46 198/109/46
f 201/103/44 202/104/44 204/105/44 203/106/44
f 203/106/47 204/105/47 208/107/47 207/108/47
f 207/108/48 208/107/48 206/109/48 205/110/48
f 205/110/45 206/109/45 202/111/45 201/112/45
f 203/113/43 207/108/43 205/110/43 201/114/43
f 208/107/46 204/115/46 202/116/46 206/109/46
f 209/103/44 210/104/44 212/105/44 211/106/44
f 211/106/47 212/105/47 216/107/47 215/108/47
f 215/108/48 216/107/48 214/109/48 213/110/48
f 213/110/45 214/109/45 210/111/45 209/112/45
f 211/113/43 215/108/43 213/110/43 209/114/43
f 216/107/46 212/115/46 210/116/46 214/109/46
f 217/103/44 218/104/44 220/105/44 219/106/44
f 219/106/47 220/105/47 224/107/47 223/108/47
f 223/108/48 224/107/48 222/109/48 221/110/48
f 221/110/45 222/109/45 218/111/45 217/112/45
f 219/113/43 223/108/43 221/110/43 217/114/43
f 224/107/46 220/115/46 218/116/46 222/109/46
f 353/103/44 354/104/44 356/105/44 355/106/44
f 355/106/47 356/105/47 360/107/47 359/108/47
f 359/108/48 360/107/48 358/109/48 357/110/48
f 357/110/45 358/109/45 354/111/45 353/112/45
f 355/113/43 359/108/43 357/110/43 353/114/43
f 360/107/46 356/115/46 354/116/46 358/109/46
f 361/103/44 362/104/44 364/105/44 363/106/44
f 363/106/47 364/105/47 368/107/47 367/108/47
f 367/108/48 368/107/48 366/109/48 365/110/48
f 365/110/45 366/109/45 362/111/45 361/112/45
f 363/113/43 367/108/43 365/110/43 361/114/43
f 368/107/46 364/115/46 362/116/46 366/109/46
f 369/103/44 370/104/44 372/105/44 371/106/44
f 371/106/47 372/105/47 376/107/47 375/108/47
f 375/108/48 376/107/48 374/109/48 373/110/48
f 373/110/45 374/109/45 370/111/45 369/112/45
f 371/113/43 375/108/43 373/110/43 369/114/43
f 376/107/46 372/115/46 370/116/46 374/109/46
f 377/103/44 378/104/44 380/105/44 379/106/44
f 379/106/47 380/105/47 384/107/47 383/108/47
f 383/108/48 384/107/48 382/109/48 381/110/48
f 381/110/45 382/109/45 378/111/45 377/112/45
f 379/113/43 383/108/43 381/110/43 377/114/43
f 384/107/46 380/115/46 378/116/46 382/109/46
f 401/103/44 402/104/44 404/105/44 403/106/44
f 403/106/47 404/105/47 408/107/47 407/108/47
f 407/108/48 408/107/48 406/109/48 405/110/48
f 405/110/45 406/109/45 402/111/45 401/112/45
f 403/113/43 407/108/43 405/110/43 401/114/43
f 408/107/46 404/115/46 402/116/46 406/109/46
f 409/103/44 410/104/44 412/105/44 411/106/44
f 411/106/47 412/105/47 416/107/47 415/108/47
f 415/108/48 416/107/48 414/109/48 413/110/48
f 413/110/45 414/109/45 410/111/45 409/112/45
f 411/113/43 415/108/43 413/110/43 409/114/43
f 416/107/46 412/115/46 410/116/46 414/109/46
f 417/103/44 418/104/44 420/105/44 419/106/44
f 419/106/47 420/105/47 424/107/47 423/108/47
f 423/108/48 424/107/48 422/109/48 421/110/48
f 421/110/45 422/109/45 418/111/45 417/112/45
f 419/113/43 423/108/43 421/110/43 417/114/43
f 424/107/46 420/115/46 418/116/46 422/109/46
f 425/103/44 426/104/44 428/105/44 427/106/44
f 427/106/47 428/105/47 432/107/47 431/108/47
f 431/108/48 432/107/48 430/109/48 429/110/48
f 429/110/45 430/109/45 426/111/45 425/112/45
f 427/113/43 431/108/43 429/110/43 425/114/43
f 432/107/46 428/115/46 426/116/46 430/109/46
f 449/103/44 450/104/44 452/105/44 451/106/44
f 451/106/47 452/105/47 456/107/47 455/108/47
f 455/108/48 456/107/48 454/109/48 453/110/48
f 453/110/45 454/109/45 450/111/45 449/112/45
f 451/113/43 455/108/43 453/110/43 449/114/43
f 456/107/46 452/115/46 450/116/46 454/109/46
f 457/103/44 458/104/44 460/105/44 459/106/44
f 459/106/47 460/105/47 464/107/47 463/108/47
f 463/108/48 464/107/48 462/109/48 461/110/48
f 461/110/45 462/109/45 458/111/45 457/112/45
f 459/113/43 463/108/43 461/110/43 457/114/43
f 464/107/46 460/115/46 458/116/46 462/109/46
f 465/103/44 466/104/44 468/105/44 467/106/44
f 467/106/47 468/105/47 472/107/47 471/108/47
f 471/108/48 472/107/48 470/109/48 469/110/48
f 469/110/45 470/109/45 466/111/45 465/112/45
f 467/113/43 471/108/43 469/110/43 465/114/43
f 472/107/46 468/115/46 466/116/46 470/109/46
f 473/103/44 474/104/44 476/105/44 475/106/44
f 475/106/47 476/105/47 480/107/47 479/108/47
f 479/108/48 480/107/48 478/109/48 477/110/48
f 477/110/45 478/109/45 474/111/45 473/112/45
f 475/113/43 479/108/43 477/110/43 473/114/43
f 480/107/46 476/115/46 474/116/46 478/109/46
f 609/103/44 610/104/44 612/105/44 611/106/44
f 611/106/47 612/105/47 616/107/47 615/108/47
f 615/108/48 616/107/48 614/109/48 613/110/48
f 613/110/45 614/109/45 610/111/45 609/112/45
f 611/113/43 615/108/43 613/110/43 609/114/43
f 616/107/46 612/115/46 610/116/46 614/109/46
f 617/103/44 618/104/44 620/105/44 619/106/44
f 619/106/47 620/105/47 624/107/47 623/108/47
f 623/108/48 624/107/48 622/109/48 621/110/48
f 621/110/45 622/109/45 618/111/45 617/112/45
f 619/113/43 623/108/43 621/110/43 617/114/43
f 624/107/46 620/115/46 618/116/46 622/109/46
f 625/103/44 626/104/44 628/105/44 627/106/44
f 627/106/47 628/105/47 632/107/47 631/108/47
f 631/108/48 632/107/48 630/109/48 629/110/48
f 629/110/45 630/109/45 626/111/45 625/112/45
f 627/113/43 631/108/43 629/110/43 625/114/43
f 632/107/46 628/115/46 626/116/46 630/109/46
f 633/103/44 634/104/44 636/105/44 635/106/44
f 635/106/47 636/105/47 640/107/47 639/108/47
f 639/108/48 640/107/48 638/109/48 637/110/48
f 637/110/45 638/109/45 634/111/45 633/112/45
f 635/113/43 639/108/43 637/110/43 633/114/43
f 640/107/46 636/115/46 634/116/46 638/109/46
f 657/103/44 658/104/44 660/105/44 659/106/44
f 659/106/47 660/105/47 664/107/47 663/108/47
f 663/108/48 664/107/48 662/109/48 661/110/48
f 661/110/45 662/109/45 658/111/45 657/112/45
f 659/113/43 663/108/43 661/110/43 657/114/43
f 664/107/46 660/115/46 658/116/46 662/109/46
f 665/103/44 666/104/44 668/105/44 667/106/44
f 667/106/47 668/105/47 672/107/47 671/108/47
f 671/108/48 672/107/48 670/109/48 669/110/48
f 669/110/45 670/109/45 666/111/45 665/112/45
f 667/113/43 671/108/43 669/110/43 665/114/43
f 672/107/46 668/115/46 666/116/46 670/109/46
f 673/103/44 674/104/44 676/105/44 675/106/44
f 675/106/47 676/105/47 680/107/47 679/108/47
f 679/108/48 680/107/48 678/109/48 677/110/48
f 677/110/45 678/109/45 674/111/45 673/112/45
f 675/113/43 679/108/43 677/110/43 673/114/43
f 680/107/46 676/115/46 674/116/46 678/109/46
f 681/103/44 682/104/44 684/105/44 683/106/44
f 683/106/47 684/105/47 688/107/47 687/108/47
f 687/108/48 688/107/48 686/109/48 685/110/48
f 685/110/45 686/109/45 682/111/45 681/112/45
f 683/113/43 687/108/43 685/110/43 681/114/43
f 688/107/46 684/115/46 682/116/46 686/109/46
f 705/103/44 706/104/44 708/105/44 707/106/44
f 707/106/47 708/105/47 712/107/47 711/108/47
f 711/108/48 712/107/48 710/109/48 709/110/48
f 709/110/45 710/109/45 706/111/45 705/112/45
f 707/113/43 711/108/43 709/110/43 705/114/43
f 712/107/46 708/115/46 706/116/46 710/109/46
f 713/103/44 714/104/44 716/105/44 715/106/44
f 715/106/47 716/105/47 720/107/47 719/108/47
f 719/108/48 720/107/48 718/109/48 717/110/48
f 717/110/45 718/109/45 714/111/45 713/112/45
f 715/113/43 719/108/43 717/110/43 713/114/43
f 720/107/46 716/115/46 714/116/46 718/109/46
f 721/103/44 722/104/44 724/105/44 723/106/44
f 723/106/47 724/105/47 728/107/47 727/108/47
f 727/108/48 728/107/48 726/109/48 725/110/48
f 725/110/45 726/109/45 722/111/45 721/112/45
f 723/113/43 727/108/43 725/110/43 721/114/43
f 728/107/46 724/115/46 722/116/46 726/109/46
f 729/103/44 730/104/44 732/105/44 731/106/44
f 731/106/47 732/105/47 736/107/47 735/108/47
f 735/108/48 736/107/48 734/109/48 733/110/48
f 733/110/45 734/109/45 730/111/45 729/112/45
f 731/113/43 735/108/43 733/110/43 729/114/43
f 736/107/46 732/115/46 730/116/46 734/109/46
usemtl SURF_Glass_Window
f 129/103/44 130/104/44 132/105/44 131/106/44
f 131/106/47 132/105/47 136/107/47 135/108/47
f 135/108/48 136/107/48 134/109/48 133/110/48
f 133/110/45 134/109/45 130/111/45 129/112/45
f 131/113/43 135/108/43 133/110/43 129/114/43
f 136/107/46 132/115/46 130/116/46 134/109/46
f 177/103/44 178/104/44 180/105/44 179/106/44
f 179/106/47 180/105/47 184/107/47 183/108/47
f 183/108/48 184/107/48 182/109/48 181/110/48
f 181/110/45 182/109/45 178/111/45 177/112/45
f 179/113/43 183/108/43 181/110/43 177/114/43
f 184/107/46 180/115/46 178/116/46 182/109/46
f 225/103/44 226/104/44 228/105/44 227/106/44
f 227/106/47 228/105/47 232/107/47 231/108/47
f 231/108/48 232/107/48 230/109/48 229/110/48
f 229/110/45 230/109/45 226/111/45 225/112/45
f 227/113/43 231/108/43 229/110/43 225/114/43
f 232/107/46 228/115/46 226/116/46 230/109/46
f 385/103/44 386/104/44 388/105/44 387/106/44
f 387/106/47 388/105/47 392/107/47 391/108/47
f 391/108/48 392/107/48 390/109/48 389/110/48
f 389/110/45 390/109/45 386/111/45 385/112/45
f 387/113/43 391/108/43 389/110/43 385/114/43
f 392/107/46 388/115/46 386/116/46 390/109/46
f 433/103/44 434/104/44 436/105/44 435/106/44
f 435/106/47 436/105/47 440/107/47 439/108/47
f 439/108/48 440/107/48 438/109/48 437/110/48
f 437/110/45 438/109/45 434/111/45 433/112/45
f 435/113/43 439/108/43 437/110/43 433/114/43
f 440/107/46 436/115/46 434/116/46 438/109/46
f 481/103/44 482/104/44 484/105/44 483/106/44
f 483/106/47 484/105/47 488/107/47 487/108/47
f 487/108/48 488/107/48 486/109/48 485/110/48
f 485/110/45 486/109/45 482/111/45 481/112/45
f 483/113/43 487/108/43 485/110/43 481/114/43
f 488/107/46 484/115/46 482/116/46 486/109/46
f 641/103/44 642/104/44 644/105/44 643/106/44
f 643/106/47 644/105/47 648/107/47 647/108/47
f 647/108/48 648/107/48 646/109/48 645/110/48
f 645/110/45 646/109/45 642/111/45 641/112/45
f 643/113/43 647/108/43 645/110/43 641/114/43
f 648/107/46 644/115/46 642/116/46 646/109/46
f 689/103/44 690/104/44 692/105/44 691/106/44
f 691/106/47 692/105/47 696/107/47 695/108/47
f 695/108/48 696/107/48 694/109/48 693/110/48
f 693/110/45 694/109/45 690/111/45 689/112/45
f 691/113/43 695/108/43 693/110/43 689/114/43
f 696/107/46 692/115/46 690/116/46 694/109/46
f 737/103/44 738/104/44 740/105/44 739/106/44
f 739/106/47 740/105/47 744/107/47 743/108/47
f 743/108/48 744/107/48 742/109/48 741/110/48
f 741/110/45 742/109/45 738/111/45 737/112/45
f 739/113/43 743/108/43 741/110/43 737/114/43
f 744/107/46 740/115/46 738/116/46 742/109/46
usemtl SURF_Concrete_Struct
f 137/103/44 138/104/44 140/105/44 139/106/44
f 139/106/47 140/105/47 144/107/47 143/108/47
f 143/108/48 144/107/48 142/109/48 141/110/48
f 141/110/45 142/109/45 138/111/45 137/112/45
f 139/113/43 143/108/43 141/110/43 137/114/43
f 144/107/46 140/115/46 138/116/46 142/109/46
f 185/103/44 186/104/44 188/105/44 187/106/44
f 187/106/47 188/105/47 192/107/47 191/108/47
f 191/108/48 192/107/48 190/109/48 189/110/48
f 189/110/45 190/109/45 186/111/45 185/112/45
f 187/113/43 191/108/43 189/110/43 185/114/43
f 192/107/46 188/115/46 186/116/46 190/109/46
f 233/103/44 234/104/44 236/105/44 235/106/44
f 235/106/47 236/105/47 240/107/47 239/108/47
f 239/108/48 240/107/48 238/109/48 237/110/48
f 237/110/45 238/109/45 234/111/45 233/112/45
f 235/113/43 239/108/43 237/110/43 233/114/43
f 240/107/46 236/115/46 234/116/46 238/109/46
f 241/103/44 242/104/44 244/105/44 243/106/44
f 243/106/47 244/105/47 248/107/47 247/108/47
f 247/108/48 248/107/48 246/109/48 245/110/48
f 245/110/45 246/109/45 242/111/45 241/112/45
f 243/113/43 247/108/43 245/110/43 241/114/43
f 248/107/46 244/115/46 242/116/46 246/109/46
f 257/1/1 258/2/1 259/3/1
f 260/4/2 261/5/2 262/6/2
f 263/7/3 264/8/3 265/9/3
f 266/10/49 267/11/49 268/12/49
f 269/10/49 270/11/49 271/12/49
f 272/13/50 273/14/50 274/15/50
f 275/10/49 276/11/49 277/12/49
f 278/16/50 279/14/50 280/15/50
f 281/17/51 282/18/51 283/19/51
f 284/20/52 285/21/52 286/22/52
f 287/13/50 288/14/50 289/15/50
f 290/23/53 291/117/53 292/118/53
f 293/26/11 294/27/11 295/28/11
f 296/29/52 297/21/52 298/119/52
f 299/30/13 300/31/13 301/32/13
f 302/40/53 303/33/53 304/118/53
f 305/34/15 306/35/15 307/120/15
f 308/20/52 309/21/52 310/22/52
f 311/37/54 312/38/54 313/39/54
f 314/40/53 315/24/53 316/118/53
f 317/121/17 318/122/17 319/123/17
f 320/44/18 321/45/18 322/46/18
f 323/47/19 324/124/19 325/125/19
f 326/50/20 327/51/20 328/52/20
f 329/126/21 330/127/21 331/128/21
f 332/129/22 333/130/22 334/131/22
f 335/132/23 336/133/23 337/134/23
f 338/135/24 339/136/24 340/137/24
f 341/138/22 342/139/22 343/140/22
f 344/141/23 345/142/23 346/143/23
f 347/71/24 348/72/24 349/73/24
f 350/144/21 351/145/21 352/146/21
f 259/3/25 264/8/25 263/7/25 257/1/25
f 258/77/26 260/4/26 262/6/26 259/78/26
f 261/5/27 281/17/27 283/19/27 262/6/27
f 264/79/28 283/19/28 282/18/28 265/80/28
f 265/9/29 306/35/29 305/34/29 263/7/29
f 281/17/30 311/37/30 313/39/30 282/18/30
f 306/35/31 313/39/31 312/38/31 307/120/31
f 293/26/32 305/34/32 307/120/32 294/27/32
f 301/32/33 312/38/33 311/37/33 299/30/33
f 294/27/34 301/32/34 300/31/34 295/28/34
f 322/46/35 327/51/35 326/50/35 320/44/35
f 257/1/36 293/26/36 295/28/36 258/2/36
f 260/147/37 300/31/37 299/30/37 261/82/37
f 319/123/38 324/124/38 323/47/38 317/121/38
f 331/128/39 333/130/39 332/129/39 329/126/39
f 341/138/39 350/144/39 352/146/39 342/139/39
f 349/73/40 352/146/40 351/145/40 347/71/40
f 346/143/41 349/73/41 348/72/41 344/141/41
f 337/134/41 339/136/41 338/135/41 335/132/41
f 330/127/40 340/137/40 339/136/40 331/128/40
f 342/139/34 346/143/34 345/142/34 343/140/34
f 318/122/40 328/52/40 327/51/40 319/123/40
f 333/130/34 337/134/34 336/133/34 334/131/34
f 321/45/42 325/125/42 324/124/42 322/46/42
f 277/12/33 321/83/33 320/84/33 275/10/33
f 276/148/34 287/13/34 289/15/34 277/86/34
f 288/14/32 323/87/32 325/88/32 289/15/32
f 275/10/41 308/20/41 310/22/41 276/11/41
f 309/21/40 314/40/40 316/118/40 310/22/40
f 287/13/39 316/118/39 315/24/39 288/14/39
f 314/40/25 318/89/25 317/90/25 315/24/25
f 308/20/27 326/91/27 328/92/27 309/21/27
f 271/12/33 336/83/33 335/93/33 269/10/33
f 270/94/34 278/16/34 280/15/34 271/86/34
f 279/14/32 332/87/32 334/95/32 280/15/32
f 269/10/41 296/29/41 298/119/41 270/11/41
f 297/21/40 302/40/40 304/118/40 298/119/40
f 278/16/39 304/118/39 303/33/39 279/14/39
f 302/40/25 330/89/25 329/90/25 303/33/25
f 296/29/27 338/91/27 340/92/27 297/21/27
f 268/12/33 345/83/33 344/84/33 266/10/33
f 267/148/34 272/13/34 274/15/34 268/86/34
f 273/14/32 341/87/32 343/95/32 274/15/32
f 266/10/41 284/20/41 286/22/41 267/11/41
f 285/21/40 290/23/40 292/118/40 286/22/40
f 272/13/39 292/118/39 291/117/39 273/14/39
f 290/23/25 351/89/25 350/90/25 291/117/25
f 284/20/27 348/91/27 347/92/27 285/21/27
f 263/7/43 305/34/43 293/26/43 257/1/43
f 259/78/44 262/6/44 283/19/44 264/79/44
f 324/124/45 260/147/45 258/96/45 322/46/45
f 327/51/45 322/46/45 258/96/45 295/28/45 300/31/45 260/147/45 324/124/45 319/123/45 333/130/45 331/128/45 342/139/45 352/146/45 349/73/45 346/143/45 339/136/45 337/134/45
f 311/37/46 281/97/46 261/98/46 299/30/46
f 265/80/47 282/18/47 313/39/47 306/35/47
f 348/91/46 284/20/46 266/10/46 344/84/46
f 345/99/48 268/86/48 274/15/48 343/95/48
f 267/148/45 286/22/45 292/118/45 272/13/45
f 338/91/46 296/29/46 269/10/46 335/93/46
f 336/99/48 271/86/48 280/15/48 334/95/48
f 270/94/45 298/119/45 304/118/45 278/16/45
f 341/100/43 273/101/43 291/117/43 350/90/43
f 326/91/46 308/20/46 275/10/46 320/84/46
f 277/86/48 289/15/48 325/88/48 321/99/48
f 276/148/45 310/22/45 316/118/45 287/13/45
f 332/100/43 279/102/43 303/33/43 329/90/43
f 290/23/44 285/21/44 347/92/44 351/89/44
f 323/100/43 288/101/43 315/24/43 317/90/43
f 307/120/48 312/38/48 301/32/48 294/27/48
f 302/40/44 297/21/44 340/92/44 330/89/44
f 314/40/44 309/21/44 328/92/44 318/89/44
f 319/123/45 327/51/45 337/134/45 333/130/45
f 331/128/45 339/136/45 346/143/45 342/139/45
f 393/103/44 394/104/44 396/105/44 395/106/44
f 395/106/47 396/105/47 400/107/47 399/108/47
f 399/108/48 400/107/48 398/109/48 397/110/48
f 397/110/45 398/109/45 394/111/45 393/112/45
f 395/113/43 399/108/43 397/110/43 393/114/43
f 400/107/46 396/115/46 394/116/46 398/109/46
f 441/103/44 442/104/44 444/105/44 443/106/44
f 443/106/47 444/105/47 448/107/47 447/108/47
f 447/108/48 448/107/48 446/109/48 445/110/48
f 445/110/45 446/109/45 442/111/45 441/112/45
f 443/113/43 447/108/43 445/110/43 441/114/43
f 448/107/46 444/115/46 442/116/46 446/109/46
f 489/103/44 490/104/44 492/105/44 491/106/44
f 491/106/47 492/105/47 496/107/47 495/108/47
f 495/108/48 496/107/48 494/109/48 493/110/48
f 493/110/45 494/109/45 490/111/45 489/112/45
f 491/113/43 495/108/43 493/110/43 489/114/43
f 496/107/46 492/115/46 490/116/46 494/109/46
f 497/103/44 498/104/44 500/105/44 499/106/44
f 499/106/47 500/105/47 504/107/47 503/108/47
f 503/108/48 504/107/48 502/109/48 501/110/48
f 501/110/45 502/109/45 498/111/45 497/112/45
f 499/113/43 503/108/43 501/110/43 497/114/43
f 504/107/46 500/115/46 498/116/46 502/109/46
f 649/103/44 650/104/44 652/105/44 651/106/44
f 651/106/47 652/105/47 656/107/47 655/108/47
f 655/108/48 656/107/48 654/109/48 653/110/48
f 653/110/45 654/109/45 650/111/45 649/112/45
f 651/113/43 655/108/43 653/110/43 649/114/43
f 656/107/46 652/115/46 650/116/46 654/109/46
f 697/103/44 698/104/44 700/105/44 699/106/44
f 699/106/47 700/105/47 704/107/47 703/108/47
f 703/108/48 704/107/48 702/109/48 701/110/48
f 701/110/45 702/109/45 698/111/45 697/112/45
f 699/113/43 703/108/43 701/110/43 697/114/43
f 704/107/46 700/115/46 698/116/46 702/109/46
f 745/103/44 746/104/44 748/105/44 747/106/44
f 747/106/47 748/105/47 752/107/47 751/108/47
f 751/108/48 752/107/48 750/109/48 749/110/48
f 749/110/45 750/109/45 746/111/45 745/112/45
f 747/113/43 751/108/43 749/110/43 745/114/43
f 752/107/46 748/115/46 746/116/46 750/109/46
f 753/103/44 754/104/44 756/105/44 755/106/44
f 755/106/47 756/105/47 760/107/47 759/108/47
f 759/108/48 760/107/48 758/109/48 757/110/48
f 757/110/45 758/109/45 754/111/45 753/112/45
f 755/113/43 759/108/43 757/110/43 753/114/43
f 760/107/46 756/115/46 754/116/46 758/109/46
f 769/103/44 770/104/44 772/105/44 771/106/44
f 771/106/47 772/105/47 776/107/47 775/108/47
f 775/108/48 776/107/48 774/109/48 773/110/48
f 773/110/45 774/109/45 770/111/45 769/112/45
f 771/113/43 775/108/43 773/110/43 769/114/43
f 776/107/46 772/115/46 770/116/46 774/109/46
f 777/103/44 778/104/44 780/105/44 779/106/44
f 779/106/47 780/105/47 784/107/47 783/108/47
f 783/108/48 784/107/48 782/109/48 781/110/48
f 781/110/45 782/109/45 778/111/45 777/112/45
f 779/113/43 783/108/43 781/110/43 777/114/43
f 784/107/46 780/115/46 778/116/46 782/109/46
f 785/103/44 786/104/44 788/105/44 787/106/44
f 787/106/47 788/105/47 792/107/47 791/108/47
f 791/108/48 792/107/48 790/109/48 789/110/48
f 789/110/45 790/109/45 786/111/45 785/112/45
f 787/113/43 791/108/43 789/110/43 785/114/43
f 792/107/46 788/115/46 786/116/46 790/109/46
f 793/103/44 794/104/44 796/105/44 795/106/44
f 795/106/47 796/105/47 800/107/47 799/108/47
f 799/108/48 800/107/48 798/109/48 797/110/48
f 797/110/45 798/109/45 794/111/45 793/112/45
f 795/113/43 799/108/43 797/110/43 793/114/43
f 800/107/46 796/115/46 794/116/46 798/109/46
f 801/103/44 802/104/44 804/105/44 803/106/44
f 803/106/47 804/105/47 808/107/47 807/108/47
f 807/108/48 808/107/48 806/109/48 805/110/48
f 805/110/45 806/109/45 802/111/45 801/112/45
f 803/113/43 807/108/43 805/110/43 801/114/43
f 808/107/46 804/115/46 802/116/46 806/109/46
f 825/103/44 826/104/44 828/105/44 827/106/44
f 827/106/63 828/105/63 832/107/63 831/108/63
f 831/108/48 832/107/48 830/109/48 829/110/48
f 829/110/64 830/109/64 826/111/64 825/112/64
f 827/113/65 831/108/65 829/110/65 825/114/65
f 832/107/66 828/115/66 826/116/66 830/109/66
usemtl SURF_Metal_Fence
f 249/103/44 250/104/44 252/105/44 251/106/44
f 251/106/47 252/105/47 256/107/47 255/108/47
f 255/108/48 256/107/48 254/109/48 253/110/48
f 253/110/45 254/109/45 250/111/45 249/112/45
f 251/113/43 255/108/43 253/110/43 249/114/43
f 256/107/46 252/115/46 250/116/46 254/109/46
f 505/103/44 506/104/44 508/105/44 507/106/44
f 507/106/47 508/105/47 512/107/47 511/108/47
f 511/108/48 512/107/48 510/109/48 509/110/48
f 509/110/45 510/109/45 506/111/45 505/112/45
f 507/113/43 511/108/43 509/110/43 505/114/43
f 512/107/46 508/115/46 506/116/46 510/109/46
f 761/103/44 762/104/44 764/105/44 763/106/44
f 763/106/47 764/105/47 768/107/47 767/108/47
f 767/108/48 768/107/48 766/109/48 765/110/48
f 765/110/45 766/109/45 762/111/45 761/112/45
f 763/113/43 767/108/43 765/110/43 761/114/43
f 768/107/46 764/115/46 762/116/46 766/109/46
f 809/103/44 810/104/44 812/105/44 811/106/44
f 811/106/47 812/105/47 816/107/47 815/108/47
f 815/108/48 816/107/48 814/109/48 813/110/48
f 813/110/45 814/109/45 810/111/45 809/112/45
f 811/113/43 815/108/43 813/110/43 809/114/43
f 816/107/46 812/115/46 810/116/46 814/109/46
f 817/103/44 818/104/44 820/105/44 819/106/44
f 819/106/47 820/105/47 824/107/47 823/108/47
f 823/108/48 824/107/48 822/109/48 821/110/48
f 821/110/45 822/109/45 818/111/45 817/112/45
f 819/113/43 823/108/43 821/110/43 817/114/43
f 824/107/46 820/115/46 818/116/46 822/109/46
f 833/103/44 834/104/44 836/105/44 835/106/44
f 835/106/47 836/105/47 840/107/47 839/108/47
f 839/108/48 840/107/48 838/109/48 837/110/48
f 837/110/45 838/109/45 834/111/45 833/112/45
f 835/113/43 839/108/43 837/110/43 833/114/43
f 840/107/46 836/115/46 834/116/46 838/109/46
