# Blender 5.2.0 LTS
# www.blender.org
mtllib SM_K_HouseE_Konbini.mtl
o SM_K_HouseE_Konbini
v -2.980000 0.000000 -0.020000
v -2.977856 0.007381 0.000000
v -3.000000 0.020000 -0.020000
v -2.977938 2.980000 0.000000
v -2.980000 3.000000 -0.020000
v -3.000000 2.980000 -0.020000
v -2.980000 0.000000 -4.980000
v -3.000000 0.020000 -4.980000
v -2.980000 0.020000 -5.000000
v -2.380000 0.200000 -0.580000
v -2.380000 0.220000 -0.600000
v -2.400000 0.220000 -0.580000
v -2.980000 3.000000 -4.980000
v -2.980000 2.980000 -5.000000
v -3.000000 2.980000 -4.980000
v -2.380000 2.380000 -0.600000
v -2.380000 2.400000 -0.580000
v -2.400000 2.380000 -0.580000
v 2.980000 0.000000 -0.020000
v 3.000000 0.020000 -0.020000
v 2.977856 0.007381 0.000000
v 2.980000 3.000000 -0.020000
v 2.977938 2.980000 0.000000
v 3.000000 2.980000 -0.020000
v 2.980000 0.000000 -4.980000
v 2.980000 0.020000 -5.000000
v 3.000000 0.020000 -4.980000
v 2.380000 0.200000 -0.580000
v 2.400000 0.220000 -0.580000
v 2.380000 0.220000 -0.600000
v 2.980000 3.000000 -4.980000
v 3.000000 2.980000 -4.980000
v 2.980000 2.980000 -5.000000
v 2.400000 2.380000 -0.580000
v 2.380000 2.400000 -0.580000
v 2.380000 2.380000 -0.600000
v 2.400000 2.380000 -0.020000
v 2.422062 2.420000 0.000000
v 2.380000 2.400000 -0.020000
v -2.400000 0.220000 -0.020000
v -2.422144 0.192618 0.000000
v -2.380000 0.200000 -0.020000
v -2.400000 2.380000 -0.020000
v -2.380000 2.400000 -0.020000
v -2.422062 2.420000 0.000000
v 2.400000 0.220000 -0.020000
v 2.380000 0.200000 -0.020000
v 2.422144 0.192618 0.000000
v -2.400000 0.200000 -0.025000
v -2.400000 2.400000 -0.025000
v -2.400000 0.200000 -0.075000
v -2.400000 2.400000 -0.075000
v 2.400000 0.200000 -0.025000
v 2.400000 2.400000 -0.025000
v 2.400000 0.200000 -0.075000
v 2.400000 2.400000 -0.075000
v -1.630000 0.200000 0.040000
v -1.630000 2.400000 0.040000
v -1.630000 0.200000 -0.080000
v -1.630000 2.400000 -0.080000
v -1.570000 0.200000 0.040000
v -1.570000 2.400000 0.040000
v -1.570000 0.200000 -0.080000
v -1.570000 2.400000 -0.080000
v -0.630000 0.200000 0.040000
v -0.630000 2.400000 0.040000
v -0.630000 0.200000 -0.080000
v -0.630000 2.400000 -0.080000
v -0.570000 0.200000 0.040000
v -0.570000 2.400000 0.040000
v -0.570000 0.200000 -0.080000
v -0.570000 2.400000 -0.080000
v 0.570000 0.200000 0.040000
v 0.570000 2.400000 0.040000
v 0.570000 0.200000 -0.080000
v 0.570000 2.400000 -0.080000
v 0.630000 0.200000 0.040000
v 0.630000 2.400000 0.040000
v 0.630000 0.200000 -0.080000
v 0.630000 2.400000 -0.080000
v 1.570000 0.200000 0.040000
v 1.570000 2.400000 0.040000
v 1.570000 0.200000 -0.080000
v 1.570000 2.400000 -0.080000
v 1.630000 0.200000 0.040000
v 1.630000 2.400000 0.040000
v 1.630000 0.200000 -0.080000
v 1.630000 2.400000 -0.080000
v 1.230000 2.015000 0.050000
v 1.230000 2.085000 0.050000
v 1.230000 2.015000 -0.090000
v 1.230000 2.085000 -0.090000
v 2.370000 2.015000 0.050000
v 2.370000 2.085000 0.050000
v 2.370000 2.015000 -0.090000
v 2.370000 2.085000 -0.090000
v 1.265000 0.000000 0.050000
v 1.265000 2.050000 0.050000
v 1.265000 0.000000 -0.090000
v 1.265000 2.050000 -0.090000
v 1.335000 0.000000 0.050000
v 1.335000 2.050000 0.050000
v 1.335000 0.000000 -0.090000
v 1.335000 2.050000 -0.090000
v 2.265000 0.000000 0.050000
v 2.265000 2.050000 0.050000
v 2.265000 0.000000 -0.090000
v 2.265000 2.050000 -0.090000
v 2.335000 0.000000 0.050000
v 2.335000 2.050000 0.050000
v 2.335000 0.000000 -0.090000
v 2.335000 2.050000 -0.090000
v 1.320000 0.020000 -0.070000
v 1.320000 2.030000 -0.070000
v 1.320000 0.020000 -0.130000
v 1.320000 2.030000 -0.130000
v 2.280000 0.020000 -0.070000
v 2.280000 2.030000 -0.070000
v 2.280000 0.020000 -0.130000
v 2.280000 2.030000 -0.130000
v 2.135000 0.955000 -0.135000
v 2.135000 1.095000 -0.135000
v 2.135000 0.955000 -0.185000
v 2.135000 1.095000 -0.185000
v 2.185000 0.955000 -0.135000
v 2.185000 1.095000 -0.135000
v 2.185000 0.955000 -0.185000
v 2.185000 1.095000 -0.185000
v 1.150000 0.000000 0.430000
v 1.150000 0.120000 0.430000
v 1.150000 0.000000 -0.070000
v 1.150000 0.120000 -0.070000
v 2.450000 0.000000 0.430000
v 2.450000 0.120000 0.430000
v 2.450000 0.000000 -0.070000
v 2.450000 0.120000 -0.070000
v -1.850000 0.200000 -0.950000
v -1.850000 1.600000 -0.950000
v -1.850000 0.200000 -1.450000
v -1.850000 1.600000 -1.450000
v -1.150000 0.200000 -0.950000
v -1.150000 1.600000 -0.950000
v -1.150000 0.200000 -1.450000
v -1.150000 1.600000 -1.450000
v -0.750000 0.200000 -0.950000
v -0.750000 1.600000 -0.950000
v -0.750000 0.200000 -1.450000
v -0.750000 1.600000 -1.450000
v -0.050000 0.200000 -0.950000
v -0.050000 1.600000 -0.950000
v -0.050000 0.200000 -1.450000
v -0.050000 1.600000 -1.450000
v 0.350000 0.200000 -0.950000
v 0.350000 1.600000 -0.950000
v 0.350000 0.200000 -1.450000
v 0.350000 1.600000 -1.450000
v 1.050000 0.200000 -0.950000
v 1.050000 1.600000 -0.950000
v 1.050000 0.200000 -1.450000
v 1.050000 1.600000 -1.450000
v -3.100000 2.900000 0.295000
v -3.100000 3.600000 0.295000
v -3.100000 2.900000 -0.055000
v -3.100000 3.600000 -0.055000
v 3.100000 2.900000 0.295000
v 3.100000 3.600000 0.295000
v 3.100000 2.900000 -0.055000
v 3.100000 3.600000 -0.055000
v -3.125000 2.890000 0.330000
v -3.125000 3.610000 0.330000
v -3.125000 2.890000 0.230000
v -3.125000 3.610000 0.230000
v 3.125000 2.890000 0.330000
v 3.125000 3.610000 0.330000
v 3.125000 2.890000 0.230000
v 3.125000 3.610000 0.230000
v -3.100000 3.000000 0.100000
v -3.100000 3.160000 0.100000
v -3.100000 3.000000 -5.100000
v -3.100000 3.160000 -5.100000
v 3.100000 3.000000 0.100000
v 3.100000 3.160000 0.100000
v 3.100000 3.000000 -5.100000
v 3.100000 3.160000 -5.100000
v -3.150000 3.130000 0.060000
v -3.150000 3.430000 0.060000
v -3.150000 3.130000 -0.060000
v -3.150000 3.430000 -0.060000
v 3.150000 3.130000 0.060000
v 3.150000 3.430000 0.060000
v 3.150000 3.130000 -0.060000
v 3.150000 3.430000 -0.060000
v -3.150000 3.130000 -4.940000
v -3.150000 3.430000 -4.940000
v -3.150000 3.130000 -5.060000
v -3.150000 3.430000 -5.060000
v 3.150000 3.130000 -4.940000
v 3.150000 3.430000 -4.940000
v 3.150000 3.130000 -5.060000
v 3.150000 3.430000 -5.060000
v -3.060000 3.130000 0.150000
v -3.060000 3.430000 0.150000
v -3.060000 3.130000 -5.150000
v -3.060000 3.430000 -5.150000
v -2.940000 3.130000 0.150000
v -2.940000 3.430000 0.150000
v -2.940000 3.130000 -5.150000
v -2.940000 3.430000 -5.150000
v 2.940000 3.130000 0.150000
v 2.940000 3.430000 0.150000
v 2.940000 3.130000 -5.150000
v 2.940000 3.430000 -5.150000
v 3.060000 3.130000 0.150000
v 3.060000 3.430000 0.150000
v 3.060000 3.130000 -5.150000
v 3.060000 3.430000 -5.150000
v 2.150000 0.000000 0.850000
v 2.150000 1.200000 0.850000
v 2.150000 0.000000 0.150000
v 2.150000 1.200000 0.150000
v 3.050000 0.000000 0.850000
v 3.050000 1.200000 0.850000
v 3.050000 0.000000 0.150000
v 3.050000 1.200000 0.150000
v -2.750000 0.000000 0.750000
v -2.750000 1.000000 0.750000
v -2.750000 0.000000 0.250000
v -2.750000 1.000000 0.250000
v -2.250000 0.000000 0.750000
v -2.250000 1.000000 0.750000
v -2.250000 0.000000 0.250000
v -2.250000 1.000000 0.250000
v -3.500000 0.000000 2.700000
v -3.500000 0.060000 2.700000
v -3.500000 0.000000 0.100000
v -3.500000 0.060000 0.100000
v 3.500000 0.000000 2.700000
v 3.500000 0.060000 2.700000
v 3.500000 0.000000 0.100000
v 3.500000 0.060000 0.100000
vn -0.6701 -0.6701 0.3192
vn -0.5576 0.5576 0.6150
vn -0.5774 -0.5773 -0.5774
vn 0.5774 0.5773 0.5773
vn -0.5774 0.5773 -0.5774
vn 0.5774 -0.5774 0.5774
vn 0.6701 -0.6701 0.3192
vn 0.5576 0.5576 0.6150
vn 0.5774 -0.5773 -0.5774
vn -0.5774 0.5773 0.5773
vn 0.5774 0.5773 -0.5774
vn -0.5774 -0.5774 0.5774
vn -0.2932 -0.2932 0.9100
vn 0.3507 0.3507 0.8684
vn 0.2932 -0.2932 0.9100
vn -0.3507 0.3507 0.8684
vn -0.7071 -0.7071 -0.0000
vn -0.6710 -0.0000 0.7415
vn -0.7071 0.7071 -0.0000
vn -0.7071 -0.0000 -0.7071
vn -0.0000 -0.7071 -0.7071
vn -0.0000 0.7071 -0.7071
vn 0.7071 -0.0000 -0.7071
vn 0.7071 -0.7071 -0.0000
vn 0.7071 0.7071 -0.0000
vn 0.6710 -0.0000 0.7415
vn -0.6709 -0.0000 0.7415
vn -0.0000 0.7071 0.7071
vn 0.6709 -0.0000 0.7415
vn -0.0000 -0.7071 0.7071
vn -0.0000 0.9381 0.3462
vn -0.0000 -0.9381 0.3462
vn 0.7071 -0.0000 0.7071
vn -0.7071 -0.0000 0.7071
vn -0.0000 -1.0000 -0.0000
vn -1.0000 -0.0000 -0.0000
vn -0.0000 -0.0000 1.0000
vn -0.0000 1.0000 -0.0000
vn -0.0000 -0.0000 -1.0000
vn 1.0000 -0.0000 -0.0000
vt 0.125833 0.749000
vt 0.125923 0.750000
vt 0.125000 0.749000
vt 0.623333 0.000000
vt 0.625000 0.001000
vt 0.623333 0.001000
vt 0.125833 0.501000
vt 0.125000 0.501000
vt 0.125833 0.500000
vt 0.126042 0.504167
vt 0.126042 0.500000
vt 0.125000 0.504167
vt 0.625000 0.249611
vt 0.623333 0.250625
vt 0.623333 0.249000
vt 0.622727 0.250781
vt 0.625000 0.247569
vt 0.622727 0.245833
vt 0.374167 0.749000
vt 0.376250 0.749000
vt 0.375000 0.750554
vt 0.625417 0.749917
vt 0.623333 0.750919
vt 0.623333 0.749250
vt 0.374167 0.501000
vt 0.375417 0.499583
vt 0.376250 0.501000
vt 0.373958 0.504167
vt 0.376705 0.504167
vt 0.375616 0.499479
vt 0.625417 0.500083
vt 0.623333 0.500750
vt 0.623333 0.499167
vt 0.622727 0.503125
vt 0.625521 0.501563
vt 0.622727 0.498958
vt 0.573333 0.775000
vt 0.576667 0.774081
vt 0.575000 0.775833
vt 0.393333 0.975000
vt 0.391052 0.975923
vt 0.391667 0.974583
vt 0.573333 0.975000
vt 0.575000 0.974167
vt 0.576667 0.975919
vt 0.393333 0.775000
vt 0.391667 0.775417
vt 0.391052 0.774077
vt 0.375615 0.000000
vt 0.376667 0.001000
vt 0.376667 0.249000
vt 0.376667 0.250833
vt 0.623333 0.999081
vt 0.625000 0.999167
vt 0.125000 0.620833
vt 0.126042 0.620833
vt 0.377273 0.251042
vt 0.377273 0.245833
vt 0.625000 0.129167
vt 0.622727 0.129167
vt 0.622727 0.620833
vt 0.626042 0.620833
vt 0.373958 0.620833
vt 0.377273 0.620833
vt 0.375615 0.999077
vt 0.874167 0.501000
vt 0.874167 0.749000
vt 0.377273 0.129167
vt 0.873958 0.504167
vt 0.873958 0.620833
vt 0.375000 0.000000
vt 0.625000 0.000000
vt 0.625000 0.250000
vt 0.375000 0.250000
vt 0.625000 0.500000
vt 0.375000 0.500000
vt 0.625000 0.750000
vt 0.375000 0.750000
vt 0.625000 1.000000
vt 0.375000 1.000000
vt 0.125000 0.500000
vt 0.125000 0.750000
vt 0.875000 0.500000
vt 0.875000 0.750000
s 0
usemtl SURF_Plaster_Wall
f 1/1/1 2/2/1 3/3/1
f 4/4/2 5/5/2 6/6/2
f 7/7/3 8/8/3 9/9/3
f 10/10/4 11/11/4 12/12/4
f 13/13/5 14/14/5 15/15/5
f 16/16/6 17/17/6 18/18/6
f 19/19/7 20/20/7 21/21/7
f 22/22/8 23/23/8 24/24/8
f 25/25/9 26/26/9 27/27/9
f 28/28/10 29/29/10 30/30/10
f 31/31/11 32/32/11 33/33/11
f 34/34/12 35/35/12 36/36/12
f 37/37/13 38/38/13 39/39/13
f 40/40/14 41/41/14 42/42/14
f 43/43/15 44/44/15 45/45/15
f 46/46/16 47/47/16 48/48/16
f 3/3/17 8/8/17 7/7/17 1/1/17
f 2/49/18 4/4/18 6/6/18 3/50/18
f 5/5/19 13/13/19 15/15/19 6/6/19
f 8/51/20 15/15/20 14/14/20 9/52/20
f 9/9/21 26/26/21 25/25/21 7/7/21
f 13/13/22 31/31/22 33/33/22 14/14/22
f 26/26/23 33/33/23 32/32/23 27/27/23
f 19/19/24 25/25/24 27/27/24 20/20/24
f 24/24/25 32/32/25 31/31/25 22/22/25
f 20/20/26 24/24/26 23/23/26 21/21/26
f 37/37/27 46/46/27 48/48/27 38/38/27
f 4/53/28 23/23/28 22/22/28 5/54/28
f 40/40/29 43/43/29 45/45/29 41/41/29
f 38/38/30 45/45/30 44/44/30 39/39/30
f 41/41/31 48/48/31 47/47/31 42/42/31
f 1/1/32 19/19/32 21/21/32 2/2/32
f 12/12/25 40/55/25 42/56/25 10/10/25
f 11/57/33 16/16/33 18/18/33 12/58/33
f 17/17/24 44/59/24 43/60/24 18/18/24
f 10/10/28 28/28/28 30/30/28 11/11/28
f 29/29/34 34/34/34 36/36/34 30/30/34
f 16/16/30 36/36/30 35/35/30 17/17/30
f 34/34/17 37/61/17 39/62/17 35/35/17
f 28/28/19 47/63/19 46/64/19 29/29/19
f 7/7/35 25/25/35 19/19/35 1/1/35
f 3/50/36 6/6/36 15/15/36 8/51/36
f 48/48/37 21/21/37 23/23/37 4/53/37 2/65/37 41/41/37 45/45/37 38/38/37
f 41/41/37 2/65/37 21/21/37 48/48/37
f 31/31/38 13/66/38 5/67/38 22/22/38
f 9/52/39 14/14/39 33/33/39 26/26/39
f 47/63/38 28/28/38 10/10/38 42/56/38
f 12/58/40 18/18/40 43/60/40 40/68/40
f 11/57/37 30/30/37 36/36/37 16/16/37
f 17/69/35 35/35/35 39/62/35 44/70/35
f 27/27/40 32/32/40 24/24/40 20/20/40
f 34/34/36 29/29/36 46/64/36 37/61/36
f 177/71/36 178/72/36 180/73/36 179/74/36
f 179/74/39 180/73/39 184/75/39 183/76/39
f 183/76/40 184/75/40 182/77/40 181/78/40
f 181/78/37 182/77/37 178/79/37 177/80/37
f 179/81/35 183/76/35 181/78/35 177/82/35
f 184/75/38 180/83/38 178/84/38 182/77/38
f 185/71/36 186/72/36 188/73/36 187/74/36
f 187/74/39 188/73/39 192/75/39 191/76/39
f 191/76/40 192/75/40 190/77/40 189/78/40
f 189/78/37 190/77/37 186/79/37 185/80/37
f 187/81/35 191/76/35 189/78/35 185/82/35
f 192/75/38 188/83/38 186/84/38 190/77/38
f 193/71/36 194/72/36 196/73/36 195/74/36
f 195/74/39 196/73/39 200/75/39 199/76/39
f 199/76/40 200/75/40 198/77/40 197/78/40
f 197/78/37 198/77/37 194/79/37 193/80/37
f 195/81/35 199/76/35 197/78/35 193/82/35
f 200/75/38 196/83/38 194/84/38 198/77/38
f 201/71/36 202/72/36 204/73/36 203/74/36
f 203/74/39 204/73/39 208/75/39 207/76/39
f 207/76/40 208/75/40 206/77/40 205/78/40
f 205/78/37 206/77/37 202/79/37 201/80/37
f 203/81/35 207/76/35 205/78/35 201/82/35
f 208/75/38 204/83/38 202/84/38 206/77/38
f 209/71/36 210/72/36 212/73/36 211/74/36
f 211/74/39 212/73/39 216/75/39 215/76/39
f 215/76/40 216/75/40 214/77/40 213/78/40
f 213/78/37 214/77/37 210/79/37 209/80/37
f 211/81/35 215/76/35 213/78/35 209/82/35
f 216/75/38 212/83/38 210/84/38 214/77/38
usemtl SURF_Glass_Std
f 49/71/36 50/72/36 52/73/36 51/74/36
f 51/74/39 52/73/39 56/75/39 55/76/39
f 55/76/40 56/75/40 54/77/40 53/78/40
f 53/78/37 54/77/37 50/79/37 49/80/37
f 51/81/35 55/76/35 53/78/35 49/82/35
f 56/75/38 52/83/38 50/84/38 54/77/38
f 113/71/36 114/72/36 116/73/36 115/74/36
f 115/74/39 116/73/39 120/75/39 119/76/39
f 119/76/40 120/75/40 118/77/40 117/78/40
f 117/78/37 118/77/37 114/79/37 113/80/37
f 115/81/35 119/76/35 117/78/35 113/82/35
f 120/75/38 116/83/38 114/84/38 118/77/38
usemtl SURF_Steel_Sign
f 57/71/36 58/72/36 60/73/36 59/74/36
f 59/74/39 60/73/39 64/75/39 63/76/39
f 63/76/40 64/75/40 62/77/40 61/78/40
f 61/78/37 62/77/37 58/79/37 57/80/37
f 59/81/35 63/76/35 61/78/35 57/82/35
f 64/75/38 60/83/38 58/84/38 62/77/38
f 65/71/36 66/72/36 68/73/36 67/74/36
f 67/74/39 68/73/39 72/75/39 71/76/39
f 71/76/40 72/75/40 70/77/40 69/78/40
f 69/78/37 70/77/37 66/79/37 65/80/37
f 67/81/35 71/76/35 69/78/35 65/82/35
f 72/75/38 68/83/38 66/84/38 70/77/38
f 73/71/36 74/72/36 76/73/36 75/74/36
f 75/74/39 76/73/39 80/75/39 79/76/39
f 79/76/40 80/75/40 78/77/40 77/78/40
f 77/78/37 78/77/37 74/79/37 73/80/37
f 75/81/35 79/76/35 77/78/35 73/82/35
f 80/75/38 76/83/38 74/84/38 78/77/38
f 81/71/36 82/72/36 84/73/36 83/74/36
f 83/74/39 84/73/39 88/75/39 87/76/39
f 87/76/40 88/75/40 86/77/40 85/78/40
f 85/78/37 86/77/37 82/79/37 81/80/37
f 83/81/35 87/76/35 85/78/35 81/82/35
f 88/75/38 84/83/38 82/84/38 86/77/38
f 217/71/36 218/72/36 220/73/36 219/74/36
f 219/74/39 220/73/39 224/75/39 223/76/39
f 223/76/40 224/75/40 222/77/40 221/78/40
f 221/78/37 222/77/37 218/79/37 217/80/37
f 219/81/35 223/76/35 221/78/35 217/82/35
f 224/75/38 220/83/38 218/84/38 222/77/38
usemtl SURF_Wood_Dark
f 89/71/36 90/72/36 92/73/36 91/74/36
f 91/74/39 92/73/39 96/75/39 95/76/39
f 95/76/40 96/75/40 94/77/40 93/78/40
f 93/78/37 94/77/37 90/79/37 89/80/37
f 91/81/35 95/76/35 93/78/35 89/82/35
f 96/75/38 92/83/38 90/84/38 94/77/38
f 97/71/36 98/72/36 100/73/36 99/74/36
f 99/74/39 100/73/39 104/75/39 103/76/39
f 103/76/40 104/75/40 102/77/40 101/78/40
f 101/78/37 102/77/37 98/79/37 97/80/37
f 99/81/35 103/76/35 101/78/35 97/82/35
f 104/75/38 100/83/38 98/84/38 102/77/38
f 105/71/36 106/72/36 108/73/36 107/74/36
f 107/74/39 108/73/39 112/75/39 111/76/39
f 111/76/40 112/75/40 110/77/40 109/78/40
f 109/78/37 110/77/37 106/79/37 105/80/37
f 107/81/35 111/76/35 109/78/35 105/82/35
f 112/75/38 108/83/38 106/84/38 110/77/38
f 137/71/36 138/72/36 140/73/36 139/74/36
f 139/74/39 140/73/39 144/75/39 143/76/39
f 143/76/40 144/75/40 142/77/40 141/78/40
f 141/78/37 142/77/37 138/79/37 137/80/37
f 139/81/35 143/76/35 141/78/35 137/82/35
f 144/75/38 140/83/38 138/84/38 142/77/38
f 145/71/36 146/72/36 148/73/36 147/74/36
f 147/74/39 148/73/39 152/75/39 151/76/39
f 151/76/40 152/75/40 150/77/40 149/78/40
f 149/78/37 150/77/37 146/79/37 145/80/37
f 147/81/35 151/76/35 149/78/35 145/82/35
f 152/75/38 148/83/38 146/84/38 150/77/38
f 153/71/36 154/72/36 156/73/36 155/74/36
f 155/74/39 156/73/39 160/75/39 159/76/39
f 159/76/40 160/75/40 158/77/40 157/78/40
f 157/78/37 158/77/37 154/79/37 153/80/37
f 155/81/35 159/76/35 157/78/35 153/82/35
f 160/75/38 156/83/38 154/84/38 158/77/38
usemtl SURF_Metal_Fence
f 121/71/36 122/72/36 124/73/36 123/74/36
f 123/74/39 124/73/39 128/75/39 127/76/39
f 127/76/40 128/75/40 126/77/40 125/78/40
f 125/78/37 126/77/37 122/79/37 121/80/37
f 123/81/35 127/76/35 125/78/35 121/82/35
f 128/75/38 124/83/38 122/84/38 126/77/38
f 225/71/36 226/72/36 228/73/36 227/74/36
f 227/74/39 228/73/39 232/75/39 231/76/39
f 231/76/40 232/75/40 230/77/40 229/78/40
f 229/78/37 230/77/37 226/79/37 225/80/37
f 227/81/35 231/76/35 229/78/35 225/82/35
f 232/75/38 228/83/38 226/84/38 230/77/38
usemtl SURF_Concrete_Struct
f 129/71/36 130/72/36 132/73/36 131/74/36
f 131/74/39 132/73/39 136/75/39 135/76/39
f 135/76/40 136/75/40 134/77/40 133/78/40
f 133/78/37 134/77/37 130/79/37 129/80/37
f 131/81/35 135/76/35 133/78/35 129/82/35
f 136/75/38 132/83/38 130/84/38 134/77/38
f 233/71/36 234/72/36 236/73/36 235/74/36
f 235/74/39 236/73/39 240/75/39 239/76/39
f 239/76/40 240/75/40 238/77/40 237/78/40
f 237/78/37 238/77/37 234/79/37 233/80/37
f 235/81/35 239/76/35 237/78/35 233/82/35
f 240/75/38 236/83/38 234/84/38 238/77/38
usemtl SURF_Emissive_Screen
f 161/71/36 162/72/36 164/73/36 163/74/36
f 163/74/39 164/73/39 168/75/39 167/76/39
f 167/76/40 168/75/40 166/77/40 165/78/40
f 165/78/37 166/77/37 162/79/37 161/80/37
f 163/81/35 167/76/35 165/78/35 161/82/35
f 168/75/38 164/83/38 162/84/38 166/77/38
usemtl SURF_Crimson_Core
f 169/71/36 170/72/36 172/73/36 171/74/36
f 171/74/39 172/73/39 176/75/39 175/76/39
f 175/76/40 176/75/40 174/77/40 173/78/40
f 173/78/37 174/77/37 170/79/37 169/80/37
f 171/81/35 175/76/35 173/78/35 169/82/35
f 176/75/38 172/83/38 170/84/38 174/77/38
