# Blender 5.2.0 LTS
# www.blender.org
mtllib SM_K_HouseB_Modern.mtl
o SM_K_HouseB_Modern
v -2.225000 0.000000 -0.025000
v -2.225000 0.025000 0.000000
v -2.250000 0.025000 -0.025000
v -2.225000 2.673912 0.000000
v -2.225000 2.700000 -0.025000
v -2.250000 2.675000 -0.025000
v -2.225000 0.000000 -4.975000
v -2.250000 0.025000 -4.975000
v -2.225000 0.025000 -5.000000
v -0.325000 0.550000 -0.575000
v -0.325000 0.575000 -0.600000
v -0.350000 0.575000 -0.575000
v -1.875000 0.025000 -0.600000
v -1.900000 0.025000 -0.575000
v -1.925000 0.000000 -0.625000
v -0.325000 2.125000 -0.600000
v -0.325000 2.150000 -0.575000
v -0.350000 2.125000 -0.575000
v -2.225000 2.700000 -4.975000
v -2.225000 2.675000 -5.000000
v -2.250000 2.675000 -4.975000
v -1.875000 2.075000 -0.600000
v -1.875000 2.100000 -0.575000
v -1.900000 2.075000 -0.575000
v 2.225000 0.000000 -0.025000
v 2.250000 0.025000 -0.025000
v 2.226196 0.025000 0.000000
v 1.725000 0.550000 -0.575000
v 1.750000 0.575000 -0.575000
v 1.725000 0.575000 -0.600000
v 2.225000 2.700000 -0.025000
v 2.226244 2.673869 0.000000
v 2.250000 2.675000 -0.025000
v 1.750000 2.125000 -0.575000
v 1.725000 2.150000 -0.575000
v 1.725000 2.125000 -0.600000
v 2.225000 0.000000 -4.975000
v 2.225000 0.025000 -5.000000
v 2.250000 0.025000 -4.975000
v -0.925000 0.025000 -0.600000
v -0.875000 0.000000 -0.625000
v -0.900000 0.025000 -0.575000
v 2.225000 2.700000 -4.975000
v 2.250000 2.675000 -4.975000
v 2.225000 2.675000 -5.000000
v -0.925000 2.100000 -0.575000
v -0.925000 2.075000 -0.600000
v -0.900000 2.075000 -0.575000
v -0.925000 2.100000 -0.025000
v -0.900000 2.075000 -0.025000
v -0.875000 2.125000 0.000000
v -1.925000 0.000000 -0.025000
v -1.900000 0.025000 -0.025000
v -1.925000 0.025000 0.000000
v -1.900000 2.075000 -0.025000
v -1.875000 2.100000 -0.025000
v -1.925000 2.125000 0.000000
v -0.900000 0.025000 -0.025000
v -0.875000 0.000000 -0.025000
v -0.875000 0.025000 0.000000
v 1.750000 0.575000 -0.025000
v 1.725000 0.550000 -0.025000
v 1.773804 0.525000 0.000000
v 1.725000 2.150000 -0.025000
v 1.750000 2.125000 -0.025000
v 1.773756 2.176131 0.000000
v -0.325000 0.550000 -0.025000
v -0.350000 0.575000 -0.025000
v -0.375000 0.525000 0.000000
v -0.325000 2.150000 -0.025000
v -0.375000 2.176088 0.000000
v -0.350000 2.125000 -0.025000
v -2.220000 2.700000 -0.030000
v -2.227569 2.728039 0.000000
v -2.250000 2.730000 -0.030000
v -2.227673 5.166509 0.000000
v -2.220000 5.200000 -0.030000
v -2.250000 5.170000 -0.030000
v -2.220000 2.700000 -4.970000
v -2.250000 2.730000 -4.970000
v -2.220000 2.730000 -5.000000
v 0.380000 3.200000 -0.570000
v 0.380000 3.230000 -0.600000
v 0.350000 3.230000 -0.570000
v -1.820000 3.200000 -0.570000
v -1.820000 3.230000 -0.600000
v -1.850000 3.230000 -0.570000
v 0.380000 4.570000 -0.600000
v 0.380000 4.600000 -0.570000
v 0.350000 4.570000 -0.570000
v -2.220000 5.200000 -4.970000
v -2.220000 5.170000 -5.000000
v -2.250000 5.170000 -4.970000
v -1.820000 4.570000 -0.600000
v -1.820000 4.600000 -0.570000
v -1.850000 4.570000 -0.570000
v 2.220000 2.700000 -0.030000
v 2.250000 2.730000 -0.030000
v 2.223880 2.732651 0.000000
v 1.820000 3.200000 -0.570000
v 1.850000 3.230000 -0.570000
v 1.820000 3.230000 -0.600000
v 2.220000 5.200000 -0.030000
v 2.220000 5.166644 0.000000
v 2.250000 5.170000 -0.030000
v 1.850000 4.570000 -0.570000
v 1.820000 4.600000 -0.570000
v 1.820000 4.570000 -0.600000
v 2.220000 2.700000 -4.970000
v 2.220000 2.730000 -5.000000
v 2.250000 2.730000 -4.970000
v -0.380000 3.200000 -0.570000
v -0.350000 3.230000 -0.570000
v -0.380000 3.230000 -0.600000
v 2.220000 5.200000 -4.970000
v 2.250000 5.170000 -4.970000
v 2.220000 5.170000 -5.000000
v -0.350000 4.570000 -0.570000
v -0.380000 4.600000 -0.570000
v -0.380000 4.570000 -0.600000
v -0.380000 4.600000 -0.030000
v -0.350000 4.570000 -0.030000
v -0.320000 4.634718 0.000000
v -1.850000 3.230000 -0.030000
v -1.873580 3.170526 0.000000
v -1.820000 3.200000 -0.030000
v -1.850000 4.570000 -0.030000
v -1.820000 4.600000 -0.030000
v -1.873271 4.634907 0.000000
v -0.380000 3.200000 -0.030000
v -0.320000 3.170505 0.000000
v -0.350000 3.230000 -0.030000
v 0.350000 4.570000 -0.030000
v 0.380000 4.600000 -0.030000
v 0.320000 4.630000 0.000000
v 0.380000 3.200000 -0.030000
v 0.350000 3.230000 -0.030000
v 0.320000 3.167186 0.000000
v 1.820000 3.200000 -0.030000
v 1.876341 3.167073 0.000000
v 1.850000 3.230000 -0.030000
v 1.850000 4.570000 -0.030000
v 1.876482 4.630000 0.000000
v 1.820000 4.600000 -0.030000
v -1.945000 1.965000 0.050000
v -1.945000 2.035000 0.050000
v -1.945000 1.965000 -0.090000
v -1.945000 2.035000 -0.090000
v -0.855000 1.965000 0.050000
v -0.855000 2.035000 0.050000
v -0.855000 1.965000 -0.090000
v -0.855000 2.035000 -0.090000
v -1.910000 0.000000 0.050000
v -1.910000 2.000000 0.050000
v -1.910000 0.000000 -0.090000
v -1.910000 2.000000 -0.090000
v -1.840000 0.000000 0.050000
v -1.840000 2.000000 0.050000
v -1.840000 0.000000 -0.090000
v -1.840000 2.000000 -0.090000
v -0.960000 0.000000 0.050000
v -0.960000 2.000000 0.050000
v -0.960000 0.000000 -0.090000
v -0.960000 2.000000 -0.090000
v -0.890000 0.000000 0.050000
v -0.890000 2.000000 0.050000
v -0.890000 0.000000 -0.090000
v -0.890000 2.000000 -0.090000
v -1.855000 0.020000 -0.070000
v -1.855000 1.980000 -0.070000
v -1.855000 0.020000 -0.130000
v -1.855000 1.980000 -0.130000
v -0.945000 0.020000 -0.070000
v -0.945000 1.980000 -0.070000
v -0.945000 0.020000 -0.130000
v -0.945000 1.980000 -0.130000
v -1.090000 0.930000 -0.135000
v -1.090000 1.070000 -0.135000
v -1.090000 0.930000 -0.185000
v -1.090000 1.070000 -0.185000
v -1.040000 0.930000 -0.135000
v -1.040000 1.070000 -0.135000
v -1.040000 0.930000 -0.185000
v -1.040000 1.070000 -0.185000
v -2.025000 0.000000 0.430000
v -2.025000 0.120000 0.430000
v -2.025000 0.000000 -0.070000
v -2.025000 0.120000 -0.070000
v -0.775000 0.000000 0.430000
v -0.775000 0.120000 0.430000
v -0.775000 0.000000 -0.070000
v -0.775000 0.120000 -0.070000
v -0.360000 2.070000 0.040000
v -0.360000 2.130000 0.040000
v -0.360000 2.070000 -0.080000
v -0.360000 2.130000 -0.080000
v 1.760000 2.070000 0.040000
v 1.760000 2.130000 0.040000
v 1.760000 2.070000 -0.080000
v 1.760000 2.130000 -0.080000
v -0.360000 0.570000 0.040000
v -0.360000 0.630000 0.040000
v -0.360000 0.570000 -0.080000
v -0.360000 0.630000 -0.080000
v 1.760000 0.570000 0.040000
v 1.760000 0.630000 0.040000
v 1.760000 0.570000 -0.080000
v 1.760000 0.630000 -0.080000
v -0.330000 0.600000 0.040000
v -0.330000 2.100000 0.040000
v -0.330000 0.600000 -0.080000
v -0.330000 2.100000 -0.080000
v -0.270000 0.600000 0.040000
v -0.270000 2.100000 0.040000
v -0.270000 0.600000 -0.080000
v -0.270000 2.100000 -0.080000
v 1.670000 0.600000 0.040000
v 1.670000 2.100000 0.040000
v 1.670000 0.600000 -0.080000
v 1.670000 2.100000 -0.080000
v 1.730000 0.600000 0.040000
v 1.730000 2.100000 0.040000
v 1.730000 0.600000 -0.080000
v 1.730000 2.100000 -0.080000
v -0.300000 0.600000 -0.105000
v -0.300000 2.100000 -0.105000
v -0.300000 0.600000 -0.135000
v -0.300000 2.100000 -0.135000
v 1.700000 0.600000 -0.105000
v 1.700000 2.100000 -0.105000
v 1.700000 0.600000 -0.135000
v 1.700000 2.100000 -0.135000
v -0.390000 0.525000 0.180000
v -0.390000 0.595000 0.180000
v -0.390000 0.525000 -0.060000
v -0.390000 0.595000 -0.060000
v 1.790000 0.525000 0.180000
v 1.790000 0.595000 0.180000
v 1.790000 0.525000 -0.060000
v 1.790000 0.595000 -0.060000
v -1.860000 4.520000 0.040000
v -1.860000 4.580000 0.040000
v -1.860000 4.520000 -0.080000
v -1.860000 4.580000 -0.080000
v -0.340000 4.520000 0.040000
v -0.340000 4.580000 0.040000
v -0.340000 4.520000 -0.080000
v -0.340000 4.580000 -0.080000
v -1.860000 3.220000 0.040000
v -1.860000 3.280000 0.040000
v -1.860000 3.220000 -0.080000
v -1.860000 3.280000 -0.080000
v -0.340000 3.220000 0.040000
v -0.340000 3.280000 0.040000
v -0.340000 3.220000 -0.080000
v -0.340000 3.280000 -0.080000
v -1.830000 3.250000 0.040000
v -1.830000 4.550000 0.040000
v -1.830000 3.250000 -0.080000
v -1.830000 4.550000 -0.080000
v -1.770000 3.250000 0.040000
v -1.770000 4.550000 0.040000
v -1.770000 3.250000 -0.080000
v -1.770000 4.550000 -0.080000
v -0.430000 3.250000 0.040000
v -0.430000 4.550000 0.040000
v -0.430000 3.250000 -0.080000
v -0.430000 4.550000 -0.080000
v -0.370000 3.250000 0.040000
v -0.370000 4.550000 0.040000
v -0.370000 3.250000 -0.080000
v -0.370000 4.550000 -0.080000
v -1.800000 3.250000 -0.105000
v -1.800000 4.550000 -0.105000
v -1.800000 3.250000 -0.135000
v -1.800000 4.550000 -0.135000
v -0.400000 3.250000 -0.105000
v -0.400000 4.550000 -0.105000
v -0.400000 3.250000 -0.135000
v -0.400000 4.550000 -0.135000
v -1.890000 3.175000 0.180000
v -1.890000 3.245000 0.180000
v -1.890000 3.175000 -0.060000
v -1.890000 3.245000 -0.060000
v -0.310000 3.175000 0.180000
v -0.310000 3.245000 0.180000
v -0.310000 3.175000 -0.060000
v -0.310000 3.245000 -0.060000
v 0.340000 4.520000 0.040000
v 0.340000 4.580000 0.040000
v 0.340000 4.520000 -0.080000
v 0.340000 4.580000 -0.080000
v 1.860000 4.520000 0.040000
v 1.860000 4.580000 0.040000
v 1.860000 4.520000 -0.080000
v 1.860000 4.580000 -0.080000
v 0.340000 3.220000 0.040000
v 0.340000 3.280000 0.040000
v 0.340000 3.220000 -0.080000
v 0.340000 3.280000 -0.080000
v 1.860000 3.220000 0.040000
v 1.860000 3.280000 0.040000
v 1.860000 3.220000 -0.080000
v 1.860000 3.280000 -0.080000
v 0.370000 3.250000 0.040000
v 0.370000 4.550000 0.040000
v 0.370000 3.250000 -0.080000
v 0.370000 4.550000 -0.080000
v 0.430000 3.250000 0.040000
v 0.430000 4.550000 0.040000
v 0.430000 3.250000 -0.080000
v 0.430000 4.550000 -0.080000
v 1.770000 3.250000 0.040000
v 1.770000 4.550000 0.040000
v 1.770000 3.250000 -0.080000
v 1.770000 4.550000 -0.080000
v 1.830000 3.250000 0.040000
v 1.830000 4.550000 0.040000
v 1.830000 3.250000 -0.080000
v 1.830000 4.550000 -0.080000
v 0.400000 3.250000 -0.105000
v 0.400000 4.550000 -0.105000
v 0.400000 3.250000 -0.135000
v 0.400000 4.550000 -0.135000
v 1.800000 3.250000 -0.105000
v 1.800000 4.550000 -0.105000
v 1.800000 3.250000 -0.135000
v 1.800000 4.550000 -0.135000
v 0.310000 3.175000 0.180000
v 0.310000 3.245000 0.180000
v 0.310000 3.175000 -0.060000
v 0.310000 3.245000 -0.060000
v 1.890000 3.175000 0.180000
v 1.890000 3.245000 0.180000
v 1.890000 3.175000 -0.060000
v 1.890000 3.245000 -0.060000
v -2.350000 5.200000 0.100000
v -2.350000 5.360000 0.100000
v -2.350000 5.200000 -5.100000
v -2.350000 5.360000 -5.100000
v 2.350000 5.200000 0.100000
v 2.350000 5.360000 0.100000
v 2.350000 5.200000 -5.100000
v 2.350000 5.360000 -5.100000
v -2.400000 5.330000 0.060000
v -2.400000 5.630000 0.060000
v -2.400000 5.330000 -0.060000
v -2.400000 5.630000 -0.060000
v 2.400000 5.330000 0.060000
v 2.400000 5.630000 0.060000
v 2.400000 5.330000 -0.060000
v 2.400000 5.630000 -0.060000
v -2.400000 5.330000 -4.940000
v -2.400000 5.630000 -4.940000
v -2.400000 5.330000 -5.060000
v -2.400000 5.630000 -5.060000
v 2.400000 5.330000 -4.940000
v 2.400000 5.630000 -4.940000
v 2.400000 5.330000 -5.060000
v 2.400000 5.630000 -5.060000
v -2.310000 5.330000 0.150000
v -2.310000 5.630000 0.150000
v -2.310000 5.330000 -5.150000
v -2.310000 5.630000 -5.150000
v -2.190000 5.330000 0.150000
v -2.190000 5.630000 0.150000
v -2.190000 5.330000 -5.150000
v -2.190000 5.630000 -5.150000
v 2.190000 5.330000 0.150000
v 2.190000 5.630000 0.150000
v 2.190000 5.330000 -5.150000
v 2.190000 5.630000 -5.150000
v 2.310000 5.330000 0.150000
v 2.310000 5.630000 0.150000
v 2.310000 5.330000 -5.150000
v 2.310000 5.630000 -5.150000
v -2.100000 2.290000 1.300000
v -2.100000 2.410000 1.300000
v -2.100000 2.290000 -0.100000
v -2.100000 2.410000 -0.100000
v -0.700000 2.290000 1.300000
v -0.700000 2.410000 1.300000
v -0.700000 2.290000 -0.100000
v -0.700000 2.410000 -0.100000
v -0.900000 2.690000 1.000000
v -0.900000 2.810000 1.000000
v -0.900000 2.690000 0.000000
v -0.900000 2.810000 0.000000
v 1.700000 2.690000 1.000000
v 1.700000 2.810000 1.000000
v 1.700000 2.690000 0.000000
v 1.700000 2.810000 0.000000
v -0.825000 2.750000 0.975000
v -0.825000 3.450000 0.975000
v -0.825000 2.750000 0.925000
v -0.825000 3.450000 0.925000
v -0.775000 2.750000 0.975000
v -0.775000 3.450000 0.975000
v -0.775000 2.750000 0.925000
v -0.775000 3.450000 0.925000
v -0.425000 2.750000 0.975000
v -0.425000 3.450000 0.975000
v -0.425000 2.750000 0.925000
v -0.425000 3.450000 0.925000
v -0.375000 2.750000 0.975000
v -0.375000 3.450000 0.975000
v -0.375000 2.750000 0.925000
v -0.375000 3.450000 0.925000
v -0.025000 2.750000 0.975000
v -0.025000 3.450000 0.975000
v -0.025000 2.750000 0.925000
v -0.025000 3.450000 0.925000
v 0.025000 2.750000 0.975000
v 0.025000 3.450000 0.975000
v 0.025000 2.750000 0.925000
v 0.025000 3.450000 0.925000
v 0.375000 2.750000 0.975000
v 0.375000 3.450000 0.975000
v 0.375000 2.750000 0.925000
v 0.375000 3.450000 0.925000
v 0.425000 2.750000 0.975000
v 0.425000 3.450000 0.975000
v 0.425000 2.750000 0.925000
v 0.425000 3.450000 0.925000
v 0.775000 2.750000 0.975000
v 0.775000 3.450000 0.975000
v 0.775000 2.750000 0.925000
v 0.775000 3.450000 0.925000
v 0.825000 2.750000 0.975000
v 0.825000 3.450000 0.975000
v 0.825000 2.750000 0.925000
v 0.825000 3.450000 0.925000
v 1.175000 2.750000 0.975000
v 1.175000 3.450000 0.975000
v 1.175000 2.750000 0.925000
v 1.175000 3.450000 0.925000
v 1.225000 2.750000 0.975000
v 1.225000 3.450000 0.975000
v 1.225000 2.750000 0.925000
v 1.225000 3.450000 0.925000
v 1.575000 2.750000 0.975000
v 1.575000 3.450000 0.975000
v 1.575000 2.750000 0.925000
v 1.575000 3.450000 0.925000
v 1.625000 2.750000 0.975000
v 1.625000 3.450000 0.975000
v 1.625000 2.750000 0.925000
v 1.625000 3.450000 0.925000
v -0.950000 3.420000 0.980000
v -0.950000 3.480000 0.980000
v -0.950000 3.420000 0.920000
v -0.950000 3.480000 0.920000
v 1.750000 3.420000 0.980000
v 1.750000 3.480000 0.980000
v 1.750000 3.420000 0.920000
v 1.750000 3.480000 0.920000
v 1.250000 3.050000 0.550000
v 1.250000 3.550000 0.550000
v 1.250000 3.050000 0.150000
v 1.250000 3.550000 0.150000
v 1.950000 3.050000 0.550000
v 1.950000 3.550000 0.550000
v 1.950000 3.050000 0.150000
v 1.950000 3.550000 0.150000
vn -0.5773 -0.5773 0.5774
vn -0.5690 0.5690 0.5937
vn -0.5773 -0.5774 -0.5773
vn 0.5773 0.5774 0.5774
vn 0.3015 -0.9045 0.3015
vn 0.5774 -0.5773 0.5773
vn -0.5773 0.5774 -0.5773
vn 0.5774 -0.5773 0.5774
vn 0.5866 -0.5866 0.5585
vn -0.5774 0.5774 0.5773
vn 0.5782 0.5782 0.5756
vn -0.5774 -0.5774 0.5773
vn 0.5773 -0.5774 -0.5773
vn -0.3015 -0.9045 0.3015
vn 0.5773 0.5774 -0.5773
vn -0.3015 -0.3015 0.9045
vn 0.5773 -0.5773 0.5774
vn 0.3015 -0.3015 0.9045
vn -0.3055 0.3055 0.9019
vn -0.3019 -0.3019 0.9043
vn 0.3015 0.3015 0.9045
vn 0.2980 -0.2980 0.9069
vn -0.7071 -0.7071 -0.0000
vn -0.7071 -0.0000 0.7071
vn -0.7071 0.7071 -0.0000
vn -0.7071 -0.0000 -0.7071
vn -0.0000 -0.7071 -0.7071
vn -0.0000 0.7071 -0.7071
vn 0.7071 -0.0000 -0.7071
vn 0.7071 -0.7071 -0.0000
vn 0.7071 0.7071 -0.0000
vn 0.7246 -0.0000 0.6892
vn -0.0000 -0.6916 0.7223
vn -0.0000 0.6916 0.7223
vn -0.0000 -0.7071 0.7071
vn 0.7071 -0.0000 0.7071
vn -0.7246 -0.0000 0.6892
vn -0.0000 0.7071 0.7071
vn -0.0000 -1.0000 -0.0000
vn -1.0000 -0.0000 -0.0000
vn -0.0000 -0.0000 1.0000
vn -0.0000 1.0000 -0.0000
vn -0.0000 -0.0000 -1.0000
vn 1.0000 -0.0000 -0.0000
vn -0.6368 -0.6369 0.4346
vn -0.6040 0.6041 0.5198
vn -0.5774 -0.5773 -0.5774
vn 0.5774 0.5773 0.5774
vn -0.5774 0.5773 -0.5774
vn 0.5852 -0.5852 0.5613
vn -0.5774 0.5773 0.5774
vn 0.5559 0.5559 0.6181
vn -0.5774 -0.5773 0.5773
vn 0.5774 -0.5773 -0.5774
vn 0.5774 0.5773 -0.5774
vn -0.2891 -0.2891 0.9126
vn 0.3217 0.3217 0.8905
vn 0.3066 -0.3066 0.9011
vn -0.3029 0.3029 0.9036
vn 0.2940 0.2940 0.9095
vn -0.3035 0.3035 0.9032
vn -0.3114 -0.3114 0.8978
vn -0.8016 -0.0000 0.5979
vn 0.7303 0.0006 0.6831
vn 0.7882 -0.0001 0.6155
vn -0.0000 0.7132 0.7010
vn 0.0004 -0.7030 0.7111
vn -0.0000 0.6741 0.7386
vn -0.7506 -0.0000 0.6608
vn -0.0000 0.6680 0.7442
vn -0.0000 -0.6528 0.7575
vt -1.400000 -2.315000
vt -1.425000 -2.290000
vt -1.400000 -2.290000
vt -1.725000 0.358912
vt -1.725000 0.385000
vt -1.750000 0.360000
vt 3.550000 -2.315000
vt 3.550000 -2.290000
vt 3.575000 -2.290000
vt 0.175000 -0.850000
vt 0.175000 -0.825000
vt 0.150000 -0.850000
vt -1.375000 -0.825000
vt -1.400000 -0.850000
vt -1.425000 -0.800000
vt -1.725000 3.550000
vt -1.725000 3.575000
vt -1.750000 3.550000
vt -1.375000 -0.850000
vt 2.225000 -0.850000
vt 2.250000 -0.850000
vt 2.225000 -0.825000
vt 2.725000 -1.400000
vt 2.726244 -1.425000
vt 2.750000 -1.400000
vt 2.725000 -2.315000
vt 2.725000 -2.290000
vt 2.750000 -2.290000
vt -0.425000 -0.825000
vt -0.375000 -0.800000
vt -0.400000 -0.850000
vt 2.725000 3.550000
vt 2.750000 3.550000
vt 2.725000 3.575000
vt -0.425000 -0.850000
vt -0.425000 -0.215000
vt -0.400000 -0.240000
vt -0.375000 -0.190000
vt -1.400000 -0.240000
vt -1.375000 -0.215000
vt -1.425000 -0.190000
vt 2.250000 -1.740000
vt 2.225000 -1.765000
vt 2.273804 -1.790000
vt 2.225000 -0.165000
vt 2.250000 -0.190000
vt 2.273756 -0.138869
vt 0.175000 -1.765000
vt 0.150000 -1.740000
vt 0.125000 -1.790000
vt 0.175000 -0.165000
vt 0.125000 -0.138912
vt 0.150000 -0.190000
vt -1.425000 0.358912
vt -1.400000 0.360000
vt -1.725000 -1.400000
vt -1.750000 -1.400000
vt -1.750000 -2.290000
vt -1.725000 0.360000
vt -1.725000 -2.290000
vt -1.725000 -2.315000
vt 2.725000 0.360000
vt 2.750000 0.360000
vt -1.425000 0.358869
vt 2.726244 0.358869
vt 2.725000 0.385000
vt -1.425000 -1.400000
vt -1.425000 -1.425000
vt -1.725000 -1.425000
vt -0.375000 -1.425000
vt -1.375000 -1.400000
vt -0.425000 -1.400000
vt 2.726196 -1.425000
vt -0.375000 -1.400000
vt -1.425000 -1.790000
vt -1.425000 -0.138869
vt -1.400000 -0.190000
vt -1.400000 -1.740000
vt 2.225000 -1.400000
vt 0.175000 -1.400000
vt 0.125000 -1.425000
vt 2.273804 -1.425000
vt -1.425000 -0.138912
vt -1.425000 -2.315000
vt -0.375000 -2.315000
vt -0.425000 -2.290000
vt -1.375000 -2.290000
vt -0.850000 -2.290000
vt -0.800000 -2.315000
vt -1.375000 -0.240000
vt -1.400000 -1.400000
vt -0.400000 -2.290000
vt -0.425000 -0.240000
vt -0.400000 -1.400000
vt 0.150000 -1.400000
vt 0.175000 -1.740000
vt 0.175000 -0.190000
vt 2.225000 -0.190000
vt 2.225000 -1.740000
vt 2.250000 -1.400000
vt 3.550000 0.360000
vt -0.850000 -1.740000
vt -0.850000 -0.190000
vt -0.850000 -0.240000
vt -0.375000 -2.290000
vt 2.726196 -2.290000
vt -1.395000 0.385000
vt -1.425000 0.413038
vt -1.395000 0.415000
vt -1.425000 2.851509
vt -1.395000 2.885000
vt -1.395000 2.855000
vt -1.720000 3.545000
vt -1.750000 3.545000
vt -1.720000 3.575000
vt 0.880000 -0.855000
vt 0.880000 -0.825000
vt 0.850000 -0.855000
vt -1.320000 -0.855000
vt -1.320000 -0.825000
vt -1.350000 -0.855000
vt 0.880000 2.255000
vt 0.880000 2.285000
vt 0.850000 2.255000
vt 3.545000 2.885000
vt 3.575000 2.855000
vt 3.545000 2.855000
vt -1.320000 2.255000
vt -1.320000 2.285000
vt -1.350000 2.255000
vt 2.720000 -1.395000
vt 2.750000 -1.395000
vt 2.723880 -1.425000
vt 2.320000 -0.855000
vt 2.350000 -0.855000
vt 2.320000 -0.825000
vt 2.720000 2.885000
vt 2.720000 2.851644
vt 2.750000 2.855000
vt 2.350000 2.255000
vt 2.320000 2.285000
vt 2.320000 2.255000
vt 2.720000 3.545000
vt 2.720000 3.575000
vt 2.750000 3.545000
vt 0.120000 -0.855000
vt 0.150000 -0.855000
vt 0.120000 -0.825000
vt 0.150000 2.255000
vt 0.120000 2.285000
vt 0.120000 2.255000
vt 0.180000 2.319718
vt -1.350000 0.915000
vt -1.373580 0.855525
vt -1.320000 0.885000
vt -1.373271 2.319907
vt 0.120000 0.885000
vt 0.180000 0.855505
vt 0.150000 0.915000
vt 0.820000 2.315000
vt 0.880000 0.885000
vt 0.850000 0.915000
vt 0.820000 0.852186
vt 2.320000 0.885000
vt 2.376341 0.852073
vt 2.350000 0.915000
vt 2.376482 2.315000
vt -1.750000 -1.395000
vt -1.720000 -1.395000
vt 3.545000 0.415000
vt 3.575000 0.415000
vt -1.425000 2.851644
vt -1.425000 0.417650
vt -1.395000 0.915000
vt -1.395000 2.255000
vt -1.425000 2.319907
vt -1.425000 0.855525
vt -1.373580 -1.425000
vt 0.180000 -1.425000
vt 0.120000 -1.395000
vt -1.320000 -1.395000
vt -1.720000 0.385000
vt 2.720000 0.385000
vt 2.723880 0.417650
vt -1.727569 0.413038
vt -1.425000 0.852073
vt -1.425000 2.315000
vt -1.727673 2.851509
vt -1.720000 2.885000
vt -1.350000 -1.395000
vt -1.320000 0.915000
vt -0.855000 2.285000
vt -1.395000 2.285000
vt -0.855000 2.255000
vt 0.120000 0.915000
vt 0.150000 -1.395000
vt 0.850000 -1.395000
vt 0.880000 -1.395000
vt 0.880000 0.915000
vt 2.320000 0.915000
vt 2.320000 -1.395000
vt 2.350000 -1.395000
vt -1.720000 0.415000
vt -1.720000 2.855000
vt 2.720000 2.855000
vt 2.720000 0.415000
vt -0.855000 0.915000
vt -1.475000 -0.350000
vt -1.475000 -0.280000
vt -1.335000 -0.280000
vt -1.335000 -0.350000
vt -1.445000 -0.350000
vt -1.445000 -0.280000
vt -0.355000 -0.280000
vt -0.355000 -0.350000
vt -1.445000 -1.335000
vt -0.355000 -1.335000
vt -0.355000 -1.475000
vt -1.445000 -1.475000
vt -1.475000 -2.315000
vt -1.475000 -0.315000
vt -1.335000 -0.315000
vt -1.335000 -2.315000
vt -1.410000 -2.315000
vt -1.410000 -0.315000
vt -1.340000 -0.315000
vt -1.340000 -2.315000
vt -1.410000 -1.335000
vt -1.340000 -1.335000
vt -1.340000 -1.475000
vt -1.410000 -1.475000
vt -0.460000 -2.315000
vt -0.460000 -0.315000
vt -0.390000 -0.315000
vt -0.390000 -2.315000
vt -0.460000 -1.335000
vt -0.390000 -1.335000
vt -0.390000 -1.475000
vt -0.460000 -1.475000
vt -1.355000 -2.295000
vt -1.355000 -0.335000
vt -1.295000 -0.335000
vt -1.295000 -2.295000
vt -0.445000 -0.335000
vt -0.445000 -2.295000
vt -1.355000 -1.295000
vt -0.445000 -1.295000
vt -0.445000 -1.355000
vt -1.355000 -1.355000
vt -1.290000 -1.385000
vt -1.290000 -1.245000
vt -1.240000 -1.245000
vt -1.240000 -1.385000
vt -0.590000 -1.385000
vt -0.590000 -1.245000
vt -0.540000 -1.245000
vt -0.540000 -1.385000
vt -0.590000 -1.240000
vt -0.540000 -1.240000
vt -0.540000 -1.290000
vt -0.590000 -1.290000
vt -1.855000 -2.315000
vt -1.855000 -2.195000
vt -1.355000 -2.195000
vt -1.355000 -2.315000
vt -1.525000 -2.315000
vt -1.525000 -2.195000
vt -0.275000 -2.195000
vt -0.275000 -2.315000
vt -1.525000 -1.355000
vt -0.275000 -1.355000
vt -0.275000 -1.855000
vt -1.525000 -1.855000
vt -1.465000 -0.245000
vt -1.465000 -0.185000
vt -1.345000 -0.185000
vt -1.345000 -0.245000
vt 0.140000 -0.245000
vt 0.140000 -0.185000
vt 2.260000 -0.185000
vt 2.260000 -0.245000
vt 0.140000 -1.345000
vt 2.260000 -1.345000
vt 2.260000 -1.465000
vt 0.140000 -1.465000
vt -1.465000 -1.745000
vt -1.465000 -1.685000
vt -1.345000 -1.685000
vt -1.345000 -1.745000
vt 0.140000 -1.745000
vt 0.140000 -1.685000
vt 2.260000 -1.685000
vt 2.260000 -1.745000
vt -1.465000 -1.715000
vt -1.465000 -0.215000
vt -1.345000 -0.215000
vt -1.345000 -1.715000
vt 0.170000 -1.715000
vt 0.170000 -0.215000
vt 0.230000 -0.215000
vt 0.230000 -1.715000
vt 0.170000 -1.345000
vt 0.230000 -1.345000
vt 0.230000 -1.465000
vt 0.170000 -1.465000
vt 2.170000 -1.715000
vt 2.170000 -0.215000
vt 2.230000 -0.215000
vt 2.230000 -1.715000
vt 2.170000 -1.345000
vt 2.230000 -1.345000
vt 2.230000 -1.465000
vt 2.170000 -1.465000
vt -1.320000 -1.715000
vt -1.320000 -0.215000
vt -1.290000 -0.215000
vt -1.290000 -1.715000
vt 0.200000 -1.715000
vt 0.200000 -0.215000
vt 2.200000 -0.215000
vt 2.200000 -1.715000
vt 0.200000 -1.290000
vt 2.200000 -1.290000
vt 2.200000 -1.320000
vt 0.200000 -1.320000
vt -1.605000 -1.790000
vt -1.605000 -1.720000
vt -1.365000 -1.720000
vt -1.365000 -1.790000
vt 0.110000 -1.790000
vt 0.110000 -1.720000
vt 2.290000 -1.720000
vt 2.290000 -1.790000
vt 0.110000 -1.365000
vt 2.290000 -1.365000
vt 2.290000 -1.605000
vt 0.110000 -1.605000
vt -1.465000 2.205000
vt -1.465000 2.265000
vt -1.345000 2.265000
vt -1.345000 2.205000
vt -1.360000 2.205000
vt -1.360000 2.265000
vt 0.160000 2.265000
vt 0.160000 2.205000
vt -1.360000 -1.345000
vt 0.160000 -1.345000
vt 0.160000 -1.465000
vt -1.360000 -1.465000
vt -1.465000 0.905000
vt -1.465000 0.965000
vt -1.345000 0.965000
vt -1.345000 0.905000
vt -1.360000 0.905000
vt -1.360000 0.965000
vt 0.160000 0.965000
vt 0.160000 0.905000
vt -1.465000 0.935000
vt -1.465000 2.235000
vt -1.345000 2.235000
vt -1.345000 0.935000
vt -1.330000 0.935000
vt -1.330000 2.235000
vt -1.270000 2.235000
vt -1.270000 0.935000
vt -1.330000 -1.345000
vt -1.270000 -1.345000
vt -1.270000 -1.465000
vt -1.330000 -1.465000
vt 0.070000 0.935000
vt 0.070000 2.235000
vt 0.130000 2.235000
vt 0.130000 0.935000
vt 0.070000 -1.345000
vt 0.130000 -1.345000
vt 0.130000 -1.465000
vt 0.070000 -1.465000
vt -1.320000 0.935000
vt -1.320000 2.235000
vt -1.290000 2.235000
vt -1.290000 0.935000
vt -1.300000 0.935000
vt -1.300000 2.235000
vt 0.100000 2.235000
vt 0.100000 0.935000
vt -1.300000 -1.290000
vt 0.100000 -1.290000
vt 0.100000 -1.320000
vt -1.300000 -1.320000
vt -1.605000 0.860000
vt -1.605000 0.930000
vt -1.365000 0.930000
vt -1.365000 0.860000
vt -1.390000 0.860000
vt -1.390000 0.930000
vt 0.190000 0.930000
vt 0.190000 0.860000
vt -1.390000 -1.365000
vt 0.190000 -1.365000
vt 0.190000 -1.605000
vt -1.390000 -1.605000
vt 0.840000 2.205000
vt 0.840000 2.265000
vt 2.360000 2.265000
vt 2.360000 2.205000
vt 0.840000 -1.345000
vt 2.360000 -1.345000
vt 2.360000 -1.465000
vt 0.840000 -1.465000
vt 0.840000 0.905000
vt 0.840000 0.965000
vt 2.360000 0.965000
vt 2.360000 0.905000
vt 0.870000 0.935000
vt 0.870000 2.235000
vt 0.930000 2.235000
vt 0.930000 0.935000
vt 0.870000 -1.345000
vt 0.930000 -1.345000
vt 0.930000 -1.465000
vt 0.870000 -1.465000
vt 2.270000 0.935000
vt 2.270000 2.235000
vt 2.330000 2.235000
vt 2.330000 0.935000
vt 2.270000 -1.345000
vt 2.330000 -1.345000
vt 2.330000 -1.465000
vt 2.270000 -1.465000
vt 0.900000 0.935000
vt 0.900000 2.235000
vt 2.300000 2.235000
vt 2.300000 0.935000
vt 0.900000 -1.290000
vt 2.300000 -1.290000
vt 2.300000 -1.320000
vt 0.900000 -1.320000
vt 0.810000 0.860000
vt 0.810000 0.930000
vt 2.390000 0.930000
vt 2.390000 0.860000
vt 0.810000 -1.365000
vt 2.390000 -1.365000
vt 2.390000 -1.605000
vt 0.810000 -1.605000
vt -1.525000 2.885000
vt -1.525000 3.045000
vt 3.675000 3.045000
vt 3.675000 2.885000
vt -1.850000 2.885000
vt -1.850000 3.045000
vt 2.850000 3.045000
vt 2.850000 2.885000
vt -1.850000 3.675000
vt 2.850000 3.675000
vt 2.850000 -1.525000
vt -1.850000 -1.525000
vt -1.485000 3.015000
vt -1.485000 3.315000
vt -1.365000 3.315000
vt -1.365000 3.015000
vt -1.900000 3.015000
vt -1.900000 3.315000
vt 2.900000 3.315000
vt 2.900000 3.015000
vt -1.900000 -1.365000
vt 2.900000 -1.365000
vt 2.900000 -1.485000
vt -1.900000 -1.485000
vt 3.515000 3.015000
vt 3.515000 3.315000
vt 3.635000 3.315000
vt 3.635000 3.015000
vt -1.900000 3.635000
vt 2.900000 3.635000
vt 2.900000 3.515000
vt -1.900000 3.515000
vt -1.575000 3.015000
vt -1.575000 3.315000
vt 3.725000 3.315000
vt 3.725000 3.015000
vt -1.810000 3.015000
vt -1.810000 3.315000
vt -1.690000 3.315000
vt -1.690000 3.015000
vt -1.810000 3.725000
vt -1.690000 3.725000
vt -1.690000 -1.575000
vt -1.810000 -1.575000
vt 2.690000 3.015000
vt 2.690000 3.315000
vt 2.810000 3.315000
vt 2.810000 3.015000
vt 2.690000 3.725000
vt 2.810000 3.725000
vt 2.810000 -1.575000
vt 2.690000 -1.575000
vt -2.725000 -0.025000
vt -2.725000 0.095000
vt -1.325000 0.095000
vt -1.325000 -0.025000
vt -1.600000 -0.025000
vt -1.600000 0.095000
vt -0.200000 0.095000
vt -0.200000 -0.025000
vt -1.600000 -1.325000
vt -0.200000 -1.325000
vt -0.200000 -2.725000
vt -1.600000 -2.725000
vt -2.425000 0.375000
vt -2.425000 0.495000
vt -1.425000 0.495000
vt -1.425000 0.375000
vt -0.400000 0.375000
vt -0.400000 0.495000
vt 2.200000 0.495000
vt 2.200000 0.375000
vt -0.400000 -1.425000
vt 2.200000 -1.425000
vt 2.200000 -2.425000
vt -0.400000 -2.425000
vt -2.400000 0.435000
vt -2.400000 1.135000
vt -2.350000 1.135000
vt -2.350000 0.435000
vt -0.325000 0.435000
vt -0.325000 1.135000
vt -0.275000 1.135000
vt -0.275000 0.435000
vt -0.325000 -2.350000
vt -0.275000 -2.350000
vt -0.275000 -2.400000
vt -0.325000 -2.400000
vt 0.075000 0.435000
vt 0.075000 1.135000
vt 0.125000 1.135000
vt 0.125000 0.435000
vt 0.075000 -2.350000
vt 0.125000 -2.350000
vt 0.125000 -2.400000
vt 0.075000 -2.400000
vt 0.475000 0.435000
vt 0.475000 1.135000
vt 0.525000 1.135000
vt 0.525000 0.435000
vt 0.475000 -2.350000
vt 0.525000 -2.350000
vt 0.525000 -2.400000
vt 0.475000 -2.400000
vt 0.875000 0.435000
vt 0.875000 1.135000
vt 0.925000 1.135000
vt 0.925000 0.435000
vt 0.875000 -2.350000
vt 0.925000 -2.350000
vt 0.925000 -2.400000
vt 0.875000 -2.400000
vt 1.275000 0.435000
vt 1.275000 1.135000
vt 1.325000 1.135000
vt 1.325000 0.435000
vt 1.275000 -2.350000
vt 1.325000 -2.350000
vt 1.325000 -2.400000
vt 1.275000 -2.400000
vt 1.675000 0.435000
vt 1.675000 1.135000
vt 1.725000 1.135000
vt 1.725000 0.435000
vt 1.675000 -2.350000
vt 1.725000 -2.350000
vt 1.725000 -2.400000
vt 1.675000 -2.400000
vt 2.075000 0.435000
vt 2.075000 1.135000
vt 2.125000 1.135000
vt 2.125000 0.435000
vt 2.075000 -2.350000
vt 2.125000 -2.350000
vt 2.125000 -2.400000
vt 2.075000 -2.400000
vt -2.405000 1.105000
vt -2.405000 1.165000
vt -2.345000 1.165000
vt -2.345000 1.105000
vt -0.450000 1.105000
vt -0.450000 1.165000
vt 2.250000 1.165000
vt 2.250000 1.105000
vt -0.450000 -2.345000
vt 2.250000 -2.345000
vt 2.250000 -2.405000
vt -0.450000 -2.405000
vt -1.975000 0.735000
vt -1.975000 1.235000
vt -1.575000 1.235000
vt -1.575000 0.735000
vt 1.750000 0.735000
vt 1.750000 1.235000
vt 2.450000 1.235000
vt 2.450000 0.735000
vt 1.750000 -1.575000
vt 2.450000 -1.575000
vt 2.450000 -1.975000
vt 1.750000 -1.975000
s 0
usemtl SURF_Plaster_Wall
f 1/1/1 2/2/1 3/3/1
f 4/4/2 5/5/2 6/6/2
f 7/7/3 8/8/3 9/9/3
f 10/10/4 11/11/4 12/12/4
f 13/13/5 14/14/5 15/15/5
f 16/11/6 17/10/6 18/12/6
f 19/16/7 20/17/7 21/18/7
f 22/13/8 23/19/8 24/14/8
f 25/1/9 26/3/9 27/2/9
f 28/20/10 29/21/10 30/22/10
f 31/23/11 32/24/11 33/25/11
f 34/21/12 35/20/12 36/22/12
f 37/26/13 38/27/13 39/28/13
f 40/29/14 41/30/14 42/31/14
f 43/32/15 44/33/15 45/34/15
f 46/35/12 47/29/12 48/31/12
f 49/36/16 50/37/16 51/38/16
f 52/1/17 53/3/17 54/2/17
f 55/39/18 56/40/18 57/41/18
f 58/3/1 59/1/1 60/2/1
f 61/42/19 62/43/19 63/44/19
f 64/45/20 65/46/20 66/47/20
f 67/48/21 68/49/21 69/50/21
f 70/51/22 71/52/22 72/53/22
f 3/3/23 8/8/23 7/7/23 1/1/23
f 2/2/24 4/54/24 6/55/24 3/3/24
f 5/56/25 19/16/25 21/18/25 6/57/25
f 8/58/26 21/6/26 20/59/26 9/60/26
f 9/60/27 38/27/27 37/26/27 7/61/27
f 19/16/28 43/32/28 45/34/28 20/17/28
f 38/27/29 45/62/29 44/63/29 39/28/29
f 25/1/30 37/7/30 39/8/30 26/3/30
f 33/25/31 44/33/31 43/32/31 31/23/31
f 26/3/32 33/55/32 32/64/32 27/2/32
f 66/47/33 71/52/33 70/51/33 64/45/33
f 4/4/34 32/65/34 31/66/34 5/5/34
f 1/56/35 52/67/35 54/68/35 2/69/35
f 53/3/36 55/39/36 57/41/36 54/2/36
f 51/70/35 57/68/35 56/71/35 49/72/35
f 50/39/24 58/3/24 60/2/24 51/41/24
f 27/73/35 60/70/35 59/74/35 25/23/35
f 63/75/37 66/76/37 65/77/37 61/78/37
f 62/79/38 67/80/38 69/81/38 63/82/38
f 68/78/36 72/77/36 71/83/36 69/75/36
f 15/84/35 41/85/35 40/86/35 13/87/35
f 14/88/30 53/3/30 52/1/30 15/89/30
f 41/89/23 59/1/23 58/3/23 42/88/23
f 13/87/36 22/90/36 24/39/36 14/3/36
f 23/19/30 56/71/30 55/91/30 24/14/30
f 22/13/35 47/29/35 46/35/35 23/19/35
f 42/92/24 48/37/24 47/93/24 40/86/24
f 48/31/23 50/94/23 49/72/23 46/35/23
f 12/12/31 68/95/31 67/80/31 10/10/31
f 11/96/36 16/97/36 18/53/36 12/49/36
f 17/10/30 70/80/30 72/95/30 18/12/30
f 10/10/38 28/20/38 30/22/38 11/11/38
f 29/42/24 34/46/24 36/98/24 30/99/24
f 16/11/35 36/22/35 35/20/35 17/10/35
f 34/21/23 65/100/23 64/79/23 35/20/23
f 28/20/25 62/79/25 61/100/25 29/21/25
f 15/15/39 52/67/39 1/56/39 7/16/39 37/32/39 25/23/39 59/74/39 41/30/39
f 3/3/40 6/55/40 21/101/40 8/8/40
f 66/47/41 32/65/41 4/4/41 2/60/41 54/2/41 57/41/41 51/38/41 71/52/41
f 43/32/42 19/16/42 5/56/42 31/23/42
f 9/60/43 20/59/43 45/62/43 38/27/43
f 62/79/42 28/20/42 10/10/42 67/80/42
f 12/102/44 18/103/44 72/77/44 68/78/44
f 11/96/41 30/99/41 36/98/41 16/97/41
f 22/90/41 13/87/41 40/86/41 47/93/41
f 14/88/44 24/104/44 55/39/44 53/3/44
f 70/80/39 17/10/39 35/20/39 64/79/39
f 56/71/39 23/19/39 46/35/39 49/72/39
f 39/8/44 44/101/44 33/55/44 26/3/44
f 51/38/41 60/105/41 27/106/41 32/65/41 66/47/41 63/44/41 69/50/41 71/52/41
f 34/103/40 29/102/40 61/78/40 65/77/40
f 48/104/40 42/88/40 58/3/40 50/39/40
f 73/107/45 74/108/45 75/109/45
f 76/110/46 77/111/46 78/112/46
f 79/113/47 80/114/47 81/115/47
f 82/116/48 83/117/48 84/118/48
f 85/119/48 86/120/48 87/121/48
f 88/122/6 89/123/6 90/124/6
f 91/125/49 92/126/49 93/127/49
f 94/128/6 95/129/6 96/130/6
f 97/131/50 98/132/50 99/133/50
f 100/134/51 101/135/51 102/136/51
f 103/137/52 104/138/52 105/139/52
f 106/140/53 107/141/53 108/142/53
f 109/143/54 110/144/54 111/145/54
f 112/146/51 113/147/51 114/148/51
f 115/125/55 116/127/55 117/126/55
f 118/149/53 119/150/53 120/151/53
f 121/150/56 122/149/56 123/152/56
f 124/153/57 125/154/57 126/155/57
f 127/130/58 128/129/58 129/156/58
f 130/157/59 131/158/59 132/159/59
f 133/124/18 134/123/18 135/160/18
f 136/161/60 137/162/60 138/163/60
f 139/164/61 140/165/61 141/166/61
f 142/140/62 143/167/62 144/141/62
f 75/168/23 80/114/23 79/113/23 73/169/23
f 74/108/63 76/110/63 78/112/63 75/109/63
f 77/111/25 91/125/25 93/127/25 78/112/25
f 80/170/26 93/127/26 92/126/26 81/171/26
f 81/115/27 110/144/27 109/143/27 79/113/27
f 91/113/28 115/143/28 117/144/28 92/115/28
f 110/171/29 117/126/29 116/127/29 111/170/29
f 97/131/30 109/143/30 111/145/30 98/132/30
f 105/112/31 116/127/31 115/125/31 103/111/31
f 98/109/64 105/112/64 104/172/64 99/173/64
f 124/174/65 127/175/65 129/176/65 125/177/65
f 125/178/66 131/179/66 130/180/66 126/181/66
f 73/182/67 97/183/67 99/184/67 74/185/67
f 138/163/68 140/165/68 139/164/68 136/161/68
f 140/186/69 143/187/69 142/175/69 141/174/69
f 76/188/70 104/138/70 103/137/70 77/189/70
f 123/152/71 129/156/71 128/129/71 121/150/71
f 122/149/24 132/159/24 131/158/24 123/152/24
f 135/160/36 138/163/36 137/162/36 133/124/36
f 134/123/35 144/141/35 143/167/35 135/160/35
f 87/121/31 124/190/31 126/181/31 85/119/31
f 86/191/36 94/128/36 96/130/36 87/153/36
f 95/192/30 128/193/30 127/175/30 96/194/30
f 85/119/38 112/146/38 114/148/38 86/120/38
f 113/159/24 118/149/24 120/151/24 114/195/24
f 94/128/35 120/151/35 119/150/35 95/129/35
f 118/194/23 122/175/23 121/193/23 119/192/23
f 112/146/25 130/180/25 132/196/25 113/147/25
f 84/118/31 137/197/31 136/198/31 82/116/31
f 83/199/36 88/122/36 90/124/36 84/162/36
f 89/192/30 134/193/30 133/175/30 90/194/30
f 82/116/38 100/134/38 102/136/38 83/117/38
f 101/166/24 106/140/24 108/142/24 102/200/24
f 88/122/35 108/142/35 107/141/35 89/123/35
f 106/194/23 142/175/23 144/193/23 107/192/23
f 100/134/25 139/201/25 141/202/25 101/135/25
f 79/113/39 109/143/39 97/131/39 73/169/39
f 75/109/40 78/112/40 93/127/40 80/170/40
f 129/156/41 76/188/41 74/185/41 125/154/41
f 131/158/41 125/154/41 74/185/41 99/184/41 140/165/41 138/163/41
f 140/165/41 99/184/41 104/138/41 76/188/41 129/156/41 123/152/41 131/158/41 138/163/41 135/160/41 143/167/41
f 115/143/42 91/113/42 77/169/42 103/131/42
f 81/203/43 92/204/43 117/205/43 110/206/43
f 139/201/42 100/134/42 82/116/42 136/198/42
f 137/174/44 84/207/44 90/194/44 133/175/44
f 83/199/41 102/200/41 108/142/41 88/122/41
f 130/180/42 112/146/42 85/119/42 126/181/42
f 87/207/44 96/194/44 127/175/44 124/174/44
f 86/191/41 114/195/41 120/151/41 94/128/41
f 134/198/39 89/116/39 107/134/39 144/201/39
f 95/119/39 119/146/39 121/180/39 128/181/39
f 111/170/44 116/127/44 105/112/44 98/109/44
f 106/194/40 101/207/40 141/174/40 142/175/40
f 118/194/40 113/207/40 132/174/40 122/175/40
f 337/446/40 338/447/40 340/448/40 339/449/40
f 339/450/43 340/451/43 344/452/43 343/453/43
f 343/449/44 344/448/44 342/447/44 341/446/44
f 341/453/41 342/452/41 338/451/41 337/450/41
f 339/454/39 343/455/39 341/456/39 337/457/39
f 344/455/42 340/454/42 338/457/42 342/456/42
f 345/458/40 346/459/40 348/460/40 347/461/40
f 347/462/43 348/463/43 352/464/43 351/465/43
f 351/461/44 352/460/44 350/459/44 349/458/44
f 349/465/41 350/464/41 346/463/41 345/462/41
f 347/466/39 351/467/39 349/468/39 345/469/39
f 352/467/42 348/466/42 346/469/42 350/468/42
f 353/470/40 354/471/40 356/472/40 355/473/40
f 355/462/43 356/463/43 360/464/43 359/465/43
f 359/473/44 360/472/44 358/471/44 357/470/44
f 357/465/41 358/464/41 354/463/41 353/462/41
f 355/474/39 359/475/39 357/476/39 353/477/39
f 360/475/42 356/474/42 354/477/42 358/476/42
f 361/478/40 362/479/40 364/480/40 363/481/40
f 363/482/43 364/483/43 368/484/43 367/485/43
f 367/481/44 368/480/44 366/479/44 365/478/44
f 365/485/41 366/484/41 362/483/41 361/482/41
f 363/486/39 367/487/39 365/488/39 361/489/39
f 368/487/42 364/486/42 362/489/42 366/488/42
f 369/478/40 370/479/40 372/480/40 371/481/40
f 371/490/43 372/491/43 376/492/43 375/493/43
f 375/481/44 376/480/44 374/479/44 373/478/44
f 373/493/41 374/492/41 370/491/41 369/490/41
f 371/494/39 375/495/39 373/496/39 369/497/39
f 376/495/42 372/494/42 370/497/42 374/496/42
usemtl SURF_Wood_Dark
f 145/208/40 146/209/40 148/210/40 147/211/40
f 147/212/43 148/213/43 152/214/43 151/215/43
f 151/211/44 152/210/44 150/209/44 149/208/44
f 149/215/41 150/214/41 146/213/41 145/212/41
f 147/216/39 151/217/39 149/218/39 145/219/39
f 152/217/42 148/216/42 146/219/42 150/218/42
f 153/220/40 154/221/40 156/222/40 155/223/40
f 155/224/43 156/225/43 160/226/43 159/227/43
f 159/223/44 160/222/44 158/221/44 157/220/44
f 157/227/41 158/226/41 154/225/41 153/224/41
f 155/228/39 159/229/39 157/230/39 153/231/39
f 160/229/42 156/228/42 154/231/42 158/230/42
f 161/220/40 162/221/40 164/222/40 163/223/40
f 163/232/43 164/233/43 168/234/43 167/235/43
f 167/223/44 168/222/44 166/221/44 165/220/44
f 165/235/41 166/234/41 162/233/41 161/232/41
f 163/236/39 167/237/39 165/238/39 161/239/39
f 168/237/42 164/236/42 162/239/42 166/238/42
f 193/274/40 194/275/40 196/276/40 195/277/40
f 195/278/43 196/279/43 200/280/43 199/281/43
f 199/277/44 200/276/44 198/275/44 197/274/44
f 197/281/41 198/280/41 194/279/41 193/278/41
f 195/282/39 199/283/39 197/284/39 193/285/39
f 200/283/42 196/282/42 194/285/42 198/284/42
f 201/286/40 202/287/40 204/288/40 203/289/40
f 203/290/43 204/291/43 208/292/43 207/293/43
f 207/289/44 208/288/44 206/287/44 205/286/44
f 205/293/41 206/292/41 202/291/41 201/290/41
f 203/282/39 207/283/39 205/284/39 201/285/39
f 208/283/42 204/282/42 202/285/42 206/284/42
f 209/294/40 210/295/40 212/296/40 211/297/40
f 211/298/43 212/299/43 216/300/43 215/301/43
f 215/297/44 216/296/44 214/295/44 213/294/44
f 213/301/41 214/300/41 210/299/41 209/298/41
f 211/302/39 215/303/39 213/304/39 209/305/39
f 216/303/42 212/302/42 210/305/42 214/304/42
f 217/294/40 218/295/40 220/296/40 219/297/40
f 219/306/43 220/307/43 224/308/43 223/309/43
f 223/297/44 224/296/44 222/295/44 221/294/44
f 221/309/41 222/308/41 218/307/41 217/306/41
f 219/310/39 223/311/39 221/312/39 217/313/39
f 224/311/42 220/310/42 218/313/42 222/312/42
f 241/338/40 242/339/40 244/340/40 243/341/40
f 243/342/43 244/343/43 248/344/43 247/345/43
f 247/341/44 248/340/44 246/339/44 245/338/44
f 245/345/41 246/344/41 242/343/41 241/342/41
f 243/346/39 247/347/39 245/348/39 241/349/39
f 248/347/42 244/346/42 242/349/42 246/348/42
f 249/350/40 250/351/40 252/352/40 251/353/40
f 251/354/43 252/355/43 256/356/43 255/357/43
f 255/353/44 256/352/44 254/351/44 253/350/44
f 253/357/41 254/356/41 250/355/41 249/354/41
f 251/346/39 255/347/39 253/348/39 249/349/39
f 256/347/42 252/346/42 250/349/42 254/348/42
f 257/358/40 258/359/40 260/360/40 259/361/40
f 259/362/43 260/363/43 264/364/43 263/365/43
f 263/361/44 264/360/44 262/359/44 261/358/44
f 261/365/41 262/364/41 258/363/41 257/362/41
f 259/366/39 263/367/39 261/368/39 257/369/39
f 264/367/42 260/366/42 258/369/42 262/368/42
f 265/358/40 266/359/40 268/360/40 267/361/40
f 267/370/43 268/371/43 272/372/43 271/373/43
f 271/361/44 272/360/44 270/359/44 269/358/44
f 269/373/41 270/372/41 266/371/41 265/370/41
f 267/374/39 271/375/39 269/376/39 265/377/39
f 272/375/42 268/374/42 266/377/42 270/376/42
f 289/338/40 290/339/40 292/340/40 291/341/40
f 291/402/43 292/403/43 296/404/43 295/405/43
f 295/341/44 296/340/44 294/339/44 293/338/44
f 293/405/41 294/404/41 290/403/41 289/402/41
f 291/406/39 295/407/39 293/408/39 289/409/39
f 296/407/42 292/406/42 290/409/42 294/408/42
f 297/350/40 298/351/40 300/352/40 299/353/40
f 299/410/43 300/411/43 304/412/43 303/413/43
f 303/353/44 304/352/44 302/351/44 301/350/44
f 301/413/41 302/412/41 298/411/41 297/410/41
f 299/406/39 303/407/39 301/408/39 297/409/39
f 304/407/42 300/406/42 298/409/42 302/408/42
f 305/358/40 306/359/40 308/360/40 307/361/40
f 307/414/43 308/415/43 312/416/43 311/417/43
f 311/361/44 312/360/44 310/359/44 309/358/44
f 309/417/41 310/416/41 306/415/41 305/414/41
f 307/418/39 311/419/39 309/420/39 305/421/39
f 312/419/42 308/418/42 306/421/42 310/420/42
f 313/358/40 314/359/40 316/360/40 315/361/40
f 315/422/43 316/423/43 320/424/43 319/425/43
f 319/361/44 320/360/44 318/359/44 317/358/44
f 317/425/41 318/424/41 314/423/41 313/422/41
f 315/426/39 319/427/39 317/428/39 313/429/39
f 320/427/42 316/426/42 314/429/42 318/428/42
usemtl SURF_Wood_Furniture
f 169/240/40 170/241/40 172/242/40 171/243/40
f 171/240/43 172/241/43 176/244/43 175/245/43
f 175/243/44 176/242/44 174/241/44 173/240/44
f 173/245/41 174/244/41 170/241/41 169/240/41
f 171/246/39 175/247/39 173/248/39 169/249/39
f 176/247/42 172/246/42 170/249/42 174/248/42
usemtl SURF_Metal_Fence
f 177/250/40 178/251/40 180/252/40 179/253/40
f 179/254/43 180/255/43 184/256/43 183/257/43
f 183/253/44 184/252/44 182/251/44 181/250/44
f 181/257/41 182/256/41 178/255/41 177/254/41
f 179/258/39 183/259/39 181/260/39 177/261/39
f 184/259/42 180/258/42 178/261/42 182/260/42
f 393/522/40 394/523/40 396/524/40 395/525/40
f 395/526/43 396/527/43 400/528/43 399/529/43
f 399/525/44 400/524/44 398/523/44 397/522/44
f 397/529/41 398/528/41 394/527/41 393/526/41
f 395/530/39 399/531/39 397/532/39 393/533/39
f 400/531/42 396/530/42 394/533/42 398/532/42
f 401/522/40 402/523/40 404/524/40 403/525/40
f 403/534/43 404/535/43 408/536/43 407/537/43
f 407/525/44 408/524/44 406/523/44 405/522/44
f 405/537/41 406/536/41 402/535/41 401/534/41
f 403/538/39 407/539/39 405/540/39 401/541/39
f 408/539/42 404/538/42 402/541/42 406/540/42
f 409/522/40 410/523/40 412/524/40 411/525/40
f 411/542/43 412/543/43 416/544/43 415/545/43
f 415/525/44 416/524/44 414/523/44 413/522/44
f 413/545/41 414/544/41 410/543/41 409/542/41
f 411/546/39 415/547/39 413/548/39 409/549/39
f 416/547/42 412/546/42 410/549/42 414/548/42
f 417/522/40 418/523/40 420/524/40 419/525/40
f 419/550/43 420/551/43 424/552/43 423/553/43
f 423/525/44 424/524/44 422/523/44 421/522/44
f 421/553/41 422/552/41 418/551/41 417/550/41
f 419/554/39 423/555/39 421/556/39 417/557/39
f 424/555/42 420/554/42 418/557/42 422/556/42
f 425/522/40 426/523/40 428/524/40 427/525/40
f 427/558/43 428/559/43 432/560/43 431/561/43
f 431/525/44 432/524/44 430/523/44 429/522/44
f 429/561/41 430/560/41 426/559/41 425/558/41
f 427/562/39 431/563/39 429/564/39 425/565/39
f 432/563/42 428/562/42 426/565/42 430/564/42
f 433/522/40 434/523/40 436/524/40 435/525/40
f 435/566/43 436/567/43 440/568/43 439/569/43
f 439/525/44 440/524/44 438/523/44 437/522/44
f 437/569/41 438/568/41 434/567/41 433/566/41
f 435/570/39 439/571/39 437/572/39 433/573/39
f 440/571/42 436/570/42 434/573/42 438/572/42
f 441/522/40 442/523/40 444/524/40 443/525/40
f 443/574/43 444/575/43 448/576/43 447/577/43
f 447/525/44 448/524/44 446/523/44 445/522/44
f 445/577/41 446/576/41 442/575/41 441/574/41
f 443/578/39 447/579/39 445/580/39 441/581/39
f 448/579/42 444/578/42 442/581/42 446/580/42
f 449/582/40 450/583/40 452/584/40 451/585/40
f 451/586/43 452/587/43 456/588/43 455/589/43
f 455/585/44 456/584/44 454/583/44 453/582/44
f 453/589/41 454/588/41 450/587/41 449/586/41
f 451/590/39 455/591/39 453/592/39 449/593/39
f 456/591/42 452/590/42 450/593/42 454/592/42
f 457/594/40 458/595/40 460/596/40 459/597/40
f 459/598/43 460/599/43 464/600/43 463/601/43
f 463/597/44 464/596/44 462/595/44 461/594/44
f 461/601/41 462/600/41 458/599/41 457/598/41
f 459/602/39 463/603/39 461/604/39 457/605/39
f 464/603/42 460/602/42 458/605/42 462/604/42
usemtl SURF_Concrete_Struct
f 185/262/40 186/263/40 188/264/40 187/265/40
f 187/266/43 188/267/43 192/268/43 191/269/43
f 191/265/44 192/264/44 190/263/44 189/262/44
f 189/269/41 190/268/41 186/267/41 185/266/41
f 187/270/39 191/271/39 189/272/39 185/273/39
f 192/271/42 188/270/42 186/273/42 190/272/42
f 233/326/40 234/327/40 236/328/40 235/329/40
f 235/330/43 236/331/43 240/332/43 239/333/43
f 239/329/44 240/328/44 238/327/44 237/326/44
f 237/333/41 238/332/41 234/331/41 233/330/41
f 235/334/39 239/335/39 237/336/39 233/337/39
f 240/335/42 236/334/42 234/337/42 238/336/42
f 281/390/40 282/391/40 284/392/40 283/393/40
f 283/394/43 284/395/43 288/396/43 287/397/43
f 287/393/44 288/392/44 286/391/44 285/390/44
f 285/397/41 286/396/41 282/395/41 281/394/41
f 283/398/39 287/399/39 285/400/39 281/401/39
f 288/399/42 284/398/42 282/401/42 286/400/42
f 329/390/40 330/391/40 332/392/40 331/393/40
f 331/438/43 332/439/43 336/440/43 335/441/43
f 335/393/44 336/392/44 334/391/44 333/390/44
f 333/441/41 334/440/41 330/439/41 329/438/41
f 331/442/39 335/443/39 333/444/39 329/445/39
f 336/443/42 332/442/42 330/445/42 334/444/42
f 377/498/40 378/499/40 380/500/40 379/501/40
f 379/502/43 380/503/43 384/504/43 383/505/43
f 383/501/44 384/500/44 382/499/44 381/498/44
f 381/505/41 382/504/41 378/503/41 377/502/41
f 379/506/39 383/507/39 381/508/39 377/509/39
f 384/507/42 380/506/42 378/509/42 382/508/42
f 385/510/40 386/511/40 388/512/40 387/513/40
f 387/514/43 388/515/43 392/516/43 391/517/43
f 391/513/44 392/512/44 390/511/44 389/510/44
f 389/517/41 390/516/41 386/515/41 385/514/41
f 387/518/39 391/519/39 389/520/39 385/521/39
f 392/519/42 388/518/42 386/521/42 390/520/42
usemtl SURF_Glass_Window
f 225/314/40 226/315/40 228/316/40 227/317/40
f 227/318/43 228/319/43 232/320/43 231/321/43
f 231/317/44 232/316/44 230/315/44 229/314/44
f 229/321/41 230/320/41 226/319/41 225/318/41
f 227/322/39 231/323/39 229/324/39 225/325/39
f 232/323/42 228/322/42 226/325/42 230/324/42
f 273/378/40 274/379/40 276/380/40 275/381/40
f 275/382/43 276/383/43 280/384/43 279/385/43
f 279/381/44 280/380/44 278/379/44 277/378/44
f 277/385/41 278/384/41 274/383/41 273/382/41
f 275/386/39 279/387/39 277/388/39 273/389/39
f 280/387/42 276/386/42 274/389/42 278/388/42
f 321/378/40 322/379/40 324/380/40 323/381/40
f 323/430/43 324/431/43 328/432/43 327/433/43
f 327/381/44 328/380/44 326/379/44 325/378/44
f 325/433/41 326/432/41 322/431/41 321/430/41
f 323/434/39 327/435/39 325/436/39 321/437/39
f 328/435/42 324/434/42 322/437/42 326/436/42
