# Blender 5.2.0 LTS
# www.blender.org
mtllib SM_K_HouseC_Shop.mtl
o SM_K_HouseC_Shop
v -2.400000 0.000000 0.000000
v -2.400000 2.600000 0.000000
v -2.400000 0.000000 -4.500000
v -1.400000 0.250000 -0.600000
v -2.400000 2.600000 -4.500000
v -1.400000 2.250000 -0.600000
v 2.400000 0.000000 0.000000
v 2.400000 2.600000 0.000000
v 2.400000 0.000000 -4.500000
v 2.000000 0.250000 -0.600000
v 2.400000 2.600000 -4.500000
v 2.000000 2.250000 -0.600000
v -1.400000 2.250000 0.000000
v 2.000000 0.250000 0.000000
v 2.000000 2.250000 0.000000
v -1.400000 0.250000 0.000000
v -2.270000 2.600000 -0.230000
v -2.270000 2.630000 -0.200000
v -2.300000 2.630000 -0.230000
v -2.270000 4.870000 -0.200000
v -2.270000 4.900000 -0.230000
v -2.300000 4.870000 -0.230000
v -2.270000 2.600000 -4.470000
v -2.300000 2.630000 -4.470000
v -2.270000 2.630000 -4.500000
v 0.480000 3.150000 -0.570000
v 0.480000 3.180000 -0.600000
v 0.450000 3.180000 -0.570000
v -1.720000 3.150000 -0.570000
v -1.720000 3.180000 -0.600000
v -1.750000 3.180000 -0.570000
v 0.480000 4.320000 -0.600000
v 0.480000 4.350000 -0.570000
v 0.450000 4.320000 -0.570000
v -2.270000 4.900000 -4.470000
v -2.270000 4.870000 -4.500000
v -2.300000 4.870000 -4.470000
v -1.720000 4.320000 -0.600000
v -1.720000 4.350000 -0.570000
v -1.750000 4.320000 -0.570000
v 2.270000 2.600000 -0.230000
v 2.300000 2.630000 -0.230000
v 2.270000 2.630000 -0.200000
v 1.720000 3.150000 -0.570000
v 1.750000 3.180000 -0.570000
v 1.720000 3.180000 -0.600000
v 2.270000 4.900000 -0.230000
v 2.270000 4.870000 -0.200000
v 2.300000 4.870000 -0.230000
v 1.750000 4.320000 -0.570000
v 1.720000 4.350000 -0.570000
v 1.720000 4.320000 -0.600000
v 2.270000 2.600000 -4.470000
v 2.270000 2.630000 -4.500000
v 2.300000 2.630000 -4.470000
v -0.480000 3.150000 -0.570000
v -0.450000 3.180000 -0.570000
v -0.480000 3.180000 -0.600000
v 2.270000 4.900000 -4.470000
v 2.300000 4.870000 -4.470000
v 2.270000 4.870000 -4.500000
v -0.450000 4.320000 -0.570000
v -0.480000 4.350000 -0.570000
v -0.480000 4.320000 -0.600000
v -0.480000 4.350000 -0.230000
v -0.450000 4.320000 -0.230000
v -0.420000 4.380000 -0.200000
v -1.750000 3.180000 -0.230000
v -1.780000 3.120000 -0.200000
v -1.720000 3.150000 -0.230000
v -1.750000 4.320000 -0.230000
v -1.720000 4.350000 -0.230000
v -1.780000 4.380000 -0.200000
v -0.450000 3.180000 -0.230000
v -0.480000 3.150000 -0.230000
v -0.420000 3.120000 -0.200000
v 0.480000 4.350000 -0.230000
v 0.420000 4.380000 -0.200000
v 0.450000 4.320000 -0.230000
v 0.480000 3.150000 -0.230000
v 0.450000 3.180000 -0.230000
v 0.420000 3.120000 -0.200000
v 1.750000 3.180000 -0.230000
v 1.720000 3.150000 -0.230000
v 1.780000 3.120000 -0.200000
v 1.750000 4.320000 -0.230000
v 1.780000 4.380000 -0.200000
v 1.720000 4.350000 -0.230000
v -1.400000 0.250000 -0.025000
v -1.400000 2.250000 -0.025000
v -1.400000 0.250000 -0.075000
v -1.400000 2.250000 -0.075000
v 2.000000 0.250000 -0.025000
v 2.000000 2.250000 -0.025000
v 2.000000 0.250000 -0.075000
v 2.000000 2.250000 -0.075000
v -1.225000 0.250000 0.040000
v -1.225000 2.250000 0.040000
v -1.225000 0.250000 -0.080000
v -1.225000 2.250000 -0.080000
v -1.175000 0.250000 0.040000
v -1.175000 2.250000 0.040000
v -1.175000 0.250000 -0.080000
v -1.175000 2.250000 -0.080000
v -0.325000 0.250000 0.040000
v -0.325000 2.250000 0.040000
v -0.325000 0.250000 -0.080000
v -0.325000 2.250000 -0.080000
v -0.275000 0.250000 0.040000
v -0.275000 2.250000 0.040000
v -0.275000 0.250000 -0.080000
v -0.275000 2.250000 -0.080000
v 0.575000 0.250000 0.040000
v 0.575000 2.250000 0.040000
v 0.575000 0.250000 -0.080000
v 0.575000 2.250000 -0.080000
v 0.625000 0.250000 0.040000
v 0.625000 2.250000 0.040000
v 0.625000 0.250000 -0.080000
v 0.625000 2.250000 -0.080000
v 1.475000 0.250000 0.040000
v 1.475000 2.250000 0.040000
v 1.475000 0.250000 -0.080000
v 1.475000 2.250000 -0.080000
v 1.525000 0.250000 0.040000
v 1.525000 2.250000 0.040000
v 1.525000 0.250000 -0.080000
v 1.525000 2.250000 -0.080000
v -1.450000 0.000000 0.050000
v -1.450000 0.600000 0.050000
v -1.450000 0.000000 -0.090000
v -1.450000 0.600000 -0.090000
v 2.050000 0.000000 0.050000
v 2.050000 0.600000 0.050000
v 2.050000 0.000000 -0.090000
v 2.050000 0.600000 -0.090000
v -1.700000 2.380000 1.350000
v -1.700000 2.520000 1.350000
v -1.700000 2.380000 0.050000
v -1.700000 2.520000 0.050000
v 2.300000 2.380000 1.350000
v 2.300000 2.520000 1.350000
v 2.300000 2.380000 0.050000
v 2.300000 2.520000 0.050000
v -2.450000 2.650000 0.140000
v -2.450000 3.150000 0.140000
v -2.450000 2.650000 -0.020000
v -2.450000 3.150000 -0.020000
v 2.450000 2.650000 0.140000
v 2.450000 3.150000 0.140000
v 2.450000 2.650000 -0.020000
v 2.450000 3.150000 -0.020000
v -2.640000 1.300000 0.290000
v -2.640000 3.100000 0.290000
v -2.640000 1.300000 0.010000
v -2.640000 3.100000 0.010000
v -2.360000 1.300000 0.290000
v -2.360000 3.100000 0.290000
v -2.360000 1.300000 0.010000
v -2.360000 3.100000 0.010000
v -1.760000 4.270000 0.040000
v -1.760000 4.330000 0.040000
v -1.760000 4.270000 -0.080000
v -1.760000 4.330000 -0.080000
v -0.440000 4.270000 0.040000
v -0.440000 4.330000 0.040000
v -0.440000 4.270000 -0.080000
v -0.440000 4.330000 -0.080000
v -1.760000 3.170000 0.040000
v -1.760000 3.230000 0.040000
v -1.760000 3.170000 -0.080000
v -1.760000 3.230000 -0.080000
v -0.440000 3.170000 0.040000
v -0.440000 3.230000 0.040000
v -0.440000 3.170000 -0.080000
v -0.440000 3.230000 -0.080000
v -1.730000 3.200000 0.040000
v -1.730000 4.300000 0.040000
v -1.730000 3.200000 -0.080000
v -1.730000 4.300000 -0.080000
v -1.670000 3.200000 0.040000
v -1.670000 4.300000 0.040000
v -1.670000 3.200000 -0.080000
v -1.670000 4.300000 -0.080000
v -0.530000 3.200000 0.040000
v -0.530000 4.300000 0.040000
v -0.530000 3.200000 -0.080000
v -0.530000 4.300000 -0.080000
v -0.470000 3.200000 0.040000
v -0.470000 4.300000 0.040000
v -0.470000 3.200000 -0.080000
v -0.470000 4.300000 -0.080000
v -1.120000 3.200000 -0.015000
v -1.120000 4.300000 -0.015000
v -1.120000 3.200000 -0.065000
v -1.120000 4.300000 -0.065000
v -1.080000 3.200000 -0.015000
v -1.080000 4.300000 -0.015000
v -1.080000 3.200000 -0.065000
v -1.080000 4.300000 -0.065000
v -1.700000 3.730000 -0.015000
v -1.700000 3.770000 -0.015000
v -1.700000 3.730000 -0.065000
v -1.700000 3.770000 -0.065000
v -0.500000 3.730000 -0.015000
v -0.500000 3.770000 -0.015000
v -0.500000 3.730000 -0.065000
v -0.500000 3.770000 -0.065000
v -1.700000 3.200000 -0.105000
v -1.700000 4.300000 -0.105000
v -1.700000 3.200000 -0.135000
v -1.700000 4.300000 -0.135000
v -0.500000 3.200000 -0.105000
v -0.500000 4.300000 -0.105000
v -0.500000 3.200000 -0.135000
v -0.500000 4.300000 -0.135000
v -1.790000 3.125000 0.180000
v -1.790000 3.195000 0.180000
v -1.790000 3.125000 -0.060000
v -1.790000 3.195000 -0.060000
v -0.410000 3.125000 0.180000
v -0.410000 3.195000 0.180000
v -0.410000 3.125000 -0.060000
v -0.410000 3.195000 -0.060000
v 0.440000 4.270000 0.040000
v 0.440000 4.330000 0.040000
v 0.440000 4.270000 -0.080000
v 0.440000 4.330000 -0.080000
v 1.760000 4.270000 0.040000
v 1.760000 4.330000 0.040000
v 1.760000 4.270000 -0.080000
v 1.760000 4.330000 -0.080000
v 0.440000 3.170000 0.040000
v 0.440000 3.230000 0.040000
v 0.440000 3.170000 -0.080000
v 0.440000 3.230000 -0.080000
v 1.760000 3.170000 0.040000
v 1.760000 3.230000 0.040000
v 1.760000 3.170000 -0.080000
v 1.760000 3.230000 -0.080000
v 0.470000 3.200000 0.040000
v 0.470000 4.300000 0.040000
v 0.470000 3.200000 -0.080000
v 0.470000 4.300000 -0.080000
v 0.530000 3.200000 0.040000
v 0.530000 4.300000 0.040000
v 0.530000 3.200000 -0.080000
v 0.530000 4.300000 -0.080000
v 1.670000 3.200000 0.040000
v 1.670000 4.300000 0.040000
v 1.670000 3.200000 -0.080000
v 1.670000 4.300000 -0.080000
v 1.730000 3.200000 0.040000
v 1.730000 4.300000 0.040000
v 1.730000 3.200000 -0.080000
v 1.730000 4.300000 -0.080000
v 1.080000 3.200000 -0.015000
v 1.080000 4.300000 -0.015000
v 1.080000 3.200000 -0.065000
v 1.080000 4.300000 -0.065000
v 1.120000 3.200000 -0.015000
v 1.120000 4.300000 -0.015000
v 1.120000 3.200000 -0.065000
v 1.120000 4.300000 -0.065000
v 0.500000 3.730000 -0.015000
v 0.500000 3.770000 -0.015000
v 0.500000 3.730000 -0.065000
v 0.500000 3.770000 -0.065000
v 1.700000 3.730000 -0.015000
v 1.700000 3.770000 -0.015000
v 1.700000 3.730000 -0.065000
v 1.700000 3.770000 -0.065000
v 0.500000 3.200000 -0.105000
v 0.500000 4.300000 -0.105000
v 0.500000 3.200000 -0.135000
v 0.500000 4.300000 -0.135000
v 1.700000 3.200000 -0.105000
v 1.700000 4.300000 -0.105000
v 1.700000 3.200000 -0.135000
v 1.700000 4.300000 -0.135000
v 0.410000 3.125000 0.180000
v 0.410000 3.195000 0.180000
v 0.410000 3.125000 -0.060000
v 0.410000 3.195000 -0.060000
v 1.790000 3.125000 0.180000
v 1.790000 3.195000 0.180000
v 1.790000 3.125000 -0.060000
v 1.790000 3.195000 -0.060000
v -2.500000 4.900000 0.100000
v -2.500000 5.060000 0.100000
v -2.500000 4.900000 -4.600000
v -2.500000 5.060000 -4.600000
v 2.500000 4.900000 0.100000
v 2.500000 5.060000 0.100000
v 2.500000 4.900000 -4.600000
v 2.500000 5.060000 -4.600000
v -2.550000 5.030000 0.060000
v -2.550000 5.330000 0.060000
v -2.550000 5.030000 -0.060000
v -2.550000 5.330000 -0.060000
v 2.550000 5.030000 0.060000
v 2.550000 5.330000 0.060000
v 2.550000 5.030000 -0.060000
v 2.550000 5.330000 -0.060000
v -2.550000 5.030000 -4.440000
v -2.550000 5.330000 -4.440000
v -2.550000 5.030000 -4.560000
v -2.550000 5.330000 -4.560000
v 2.550000 5.030000 -4.440000
v 2.550000 5.330000 -4.440000
v 2.550000 5.030000 -4.560000
v 2.550000 5.330000 -4.560000
v -2.460000 5.030000 0.150000
v -2.460000 5.330000 0.150000
v -2.460000 5.030000 -4.650000
v -2.460000 5.330000 -4.650000
v -2.340000 5.030000 0.150000
v -2.340000 5.330000 0.150000
v -2.340000 5.030000 -4.650000
v -2.340000 5.330000 -4.650000
v 2.340000 5.030000 0.150000
v 2.340000 5.330000 0.150000
v 2.340000 5.030000 -4.650000
v 2.340000 5.330000 -4.650000
v 2.460000 5.030000 0.150000
v 2.460000 5.330000 0.150000
v 2.460000 5.030000 -4.650000
v 2.460000 5.330000 -4.650000
v -1.500000 2.600000 0.700000
v -1.500000 2.700000 0.700000
v -1.500000 2.600000 0.000000
v -1.500000 2.700000 0.000000
v 1.500000 2.600000 0.700000
v 1.500000 2.700000 0.700000
v 1.500000 2.600000 0.000000
v 1.500000 2.700000 0.000000
vn -1.0000 -0.0000 -0.0000
vn -0.0000 -0.0000 -1.0000
vn 1.0000 -0.0000 -0.0000
vn -0.0000 -0.0000 1.0000
vn -0.0000 -1.0000 -0.0000
vn -0.0000 1.0000 -0.0000
vn -0.5774 -0.5773 0.5773
vn -0.5774 0.5773 0.5773
vn -0.5774 -0.5773 -0.5774
vn 0.5774 0.5773 0.5774
vn 0.5774 0.5774 0.5773
vn 0.5774 -0.5773 0.5773
vn -0.5774 0.5773 -0.5774
vn -0.5774 0.5774 0.5773
vn 0.5774 0.5773 0.5773
vn 0.5774 -0.5773 -0.5774
vn -0.5774 0.5773 0.5774
vn 0.5774 0.5773 -0.5774
vn -0.3015 -0.3015 0.9045
vn 0.3015 0.3015 0.9045
vn 0.3015 -0.3015 0.9045
vn -0.3015 0.3015 0.9045
vn -0.7071 -0.7071 -0.0000
vn -0.7071 -0.0000 0.7071
vn -0.7071 0.7071 -0.0000
vn -0.7071 -0.0000 -0.7071
vn -0.0000 -0.7071 -0.7071
vn -0.0000 0.7071 -0.7071
vn 0.7071 -0.0000 -0.7071
vn 0.7071 -0.7071 -0.0000
vn 0.7071 0.7071 -0.0000
vn 0.7071 -0.0000 0.7071
vn -0.0000 -0.7071 0.7071
vn -0.0000 0.7071 0.7071
vt 0.375000 0.000000
vt 0.625000 0.000000
vt 0.625000 0.250000
vt 0.375000 0.250000
vt 0.625000 0.500000
vt 0.375000 0.500000
vt 0.625000 0.750000
vt 0.375000 0.750000
vt 0.399039 0.770833
vt 0.591346 0.770833
vt 0.625000 1.000000
vt 0.375000 1.000000
vt 0.399038 0.947917
vt 0.591346 0.947917
vt 0.125000 0.500000
vt 0.125000 0.750000
vt 0.875000 0.500000
vt 0.875000 0.750000
vt 0.625000 0.125000
vt 0.375000 0.125000
vt 0.375000 0.625000
vt 0.625000 0.625000
vt 0.125000 0.625000
vt 0.875000 0.625000
vt 0.126630 0.748256
vt 0.126630 0.750000
vt 0.125000 0.748256
vt 0.621739 0.000000
vt 0.625000 0.001744
vt 0.621739 0.001744
vt 0.126630 0.501744
vt 0.125000 0.501744
vt 0.126630 0.500000
vt 0.130769 0.506250
vt 0.130769 0.500000
vt 0.125000 0.506250
vt 0.130769 0.506250
vt 0.618750 0.254327
vt 0.625000 0.247756
vt 0.618750 0.243750
vt 0.625000 0.249381
vt 0.621739 0.251223
vt 0.621739 0.248256
vt 0.618750 0.254327
vt 0.618750 0.243750
vt 0.373370 0.748256
vt 0.377446 0.748256
vt 0.376304 0.750978
vt 0.369231 0.506250
vt 0.379687 0.506250
vt 0.375240 0.497115
vt 0.625815 0.749943
vt 0.621739 0.751630
vt 0.622147 0.748896
vt 0.618750 0.504687
vt 0.627885 0.500240
vt 0.618750 0.494231
vt 0.373370 0.501744
vt 0.375815 0.499185
vt 0.377446 0.501744
vt 0.369231 0.506250
vt 0.379688 0.506250
vt 0.375240 0.497115
vt 0.625815 0.500057
vt 0.621739 0.501308
vt 0.621739 0.498370
vt 0.618750 0.504687
vt 0.627885 0.500240
vt 0.565217 0.901087
vt 0.561956 0.899457
vt 0.568478 0.897826
vt 0.438043 0.970109
vt 0.431522 0.971739
vt 0.434783 0.969293
vt 0.561957 0.970109
vt 0.565217 0.969294
vt 0.568478 0.971739
vt 0.438044 0.899457
vt 0.434783 0.901087
vt 0.431522 0.897826
vt 0.565217 0.848913
vt 0.568478 0.852174
vt 0.561956 0.850543
vt 0.434783 0.848913
vt 0.438044 0.850543
vt 0.431522 0.852174
vt 0.436413 0.779891
vt 0.434783 0.781522
vt 0.431522 0.778261
vt 0.563587 0.779891
vt 0.568478 0.778261
vt 0.565217 0.781522
vt 0.378261 0.000000
vt 0.378261 0.001744
vt 0.378261 0.248256
vt 0.378261 0.251630
vt 0.621739 0.998370
vt 0.625000 0.998370
vt 0.125000 0.577083
vt 0.130769 0.577083
vt 0.381250 0.255769
vt 0.381250 0.243750
vt 0.625000 0.172917
vt 0.618750 0.172917
vt 0.618750 0.577083
vt 0.630769 0.577083
vt 0.369231 0.577083
vt 0.381250 0.577083
vt 0.130769 0.577083
vt 0.381250 0.255769
vt 0.381250 0.243750
vt 0.630769 0.577083
vt 0.369231 0.577083
vt 0.378261 0.998370
vt 0.873370 0.501744
vt 0.873370 0.748256
vt 0.381250 0.172917
vt 0.381250 0.172917
vt 0.869231 0.577083
vt 0.869231 0.506250
s 0
usemtl SURF_Storefront_Wood
f 1/1/1 2/2/1 5/3/1 3/4/1
f 3/4/2 5/3/2 11/5/2 9/6/2
f 9/6/3 11/5/3 8/7/3 7/8/3
f 14/9/4 7/8/4 8/7/4 15/10/4
f 15/10/4 8/7/4 2/11/4 1/12/4 7/8/4 14/9/4 16/13/4 13/14/4
f 3/15/5 9/6/5 7/8/5 1/16/5
f 11/5/6 5/17/6 2/18/6 8/7/6
f 4/4/3 6/3/3 13/19/3 16/20/3
f 4/4/4 10/6/4 12/5/4 6/3/4
f 12/5/1 10/6/1 14/21/1 15/22/1
f 14/21/6 10/6/6 4/15/6 16/23/6
f 13/24/5 6/17/5 12/5/5 15/22/5
f 97/1/1 98/2/1 100/3/1 99/4/1
f 99/4/2 100/3/2 104/5/2 103/6/2
f 103/6/3 104/5/3 102/7/3 101/8/3
f 101/8/4 102/7/4 98/11/4 97/12/4
f 99/15/5 103/6/5 101/8/5 97/16/5
f 104/5/6 100/17/6 98/18/6 102/7/6
f 105/1/1 106/2/1 108/3/1 107/4/1
f 107/4/2 108/3/2 112/5/2 111/6/2
f 111/6/3 112/5/3 110/7/3 109/8/3
f 109/8/4 110/7/4 106/11/4 105/12/4
f 107/15/5 111/6/5 109/8/5 105/16/5
f 112/5/6 108/17/6 106/18/6 110/7/6
f 113/1/1 114/2/1 116/3/1 115/4/1
f 115/4/2 116/3/2 120/5/2 119/6/2
f 119/6/3 120/5/3 118/7/3 117/8/3
f 117/8/4 118/7/4 114/11/4 113/12/4
f 115/15/5 119/6/5 117/8/5 113/16/5
f 120/5/6 116/17/6 114/18/6 118/7/6
f 121/1/1 122/2/1 124/3/1 123/4/1
f 123/4/2 124/3/2 128/5/2 127/6/2
f 127/6/3 128/5/3 126/7/3 125/8/3
f 125/8/4 126/7/4 122/11/4 121/12/4
f 123/15/5 127/6/5 125/8/5 121/16/5
f 128/5/6 124/17/6 122/18/6 126/7/6
usemtl SURF_Plaster_Wall
f 17/25/7 18/26/7 19/27/7
f 20/28/8 21/29/8 22/30/8
f 23/31/9 24/32/9 25/33/9
f 26/34/10 27/35/10 28/36/10
f 29/37/11 30/35/11 31/36/11
f 32/38/12 33/39/12 34/40/12
f 35/41/13 36/42/13 37/43/13
f 38/44/12 39/39/12 40/45/12
f 41/46/12 42/47/12 43/48/12
f 44/49/14 45/50/14 46/51/14
f 47/52/15 48/53/15 49/54/15
f 50/55/7 51/56/7 52/57/7
f 53/58/16 54/59/16 55/60/16
f 56/61/17 57/62/17 58/63/17
f 59/64/18 60/65/18 61/66/18
f 62/67/7 63/68/7 64/57/7
f 65/69/19 66/70/19 67/71/19
f 68/72/20 69/73/20 70/74/20
f 71/75/21 72/76/21 73/77/21
f 74/78/22 75/79/22 76/80/22
f 77/81/21 78/82/21 79/83/21
f 80/84/20 81/85/20 82/86/20
f 83/87/22 84/88/22 85/89/22
f 86/90/19 87/91/19 88/92/19
f 19/27/23 24/32/23 23/31/23 17/25/23
f 18/93/24 20/28/24 22/30/24 19/94/24
f 21/29/25 35/41/25 37/43/25 22/30/25
f 24/95/26 37/43/26 36/42/26 25/96/26
f 25/33/27 54/59/27 53/58/27 23/31/27
f 35/41/28 59/64/28 61/66/28 36/42/28
f 54/59/29 61/66/29 60/65/29 55/60/29
f 41/46/30 53/58/30 55/60/30 42/47/30
f 49/54/31 60/65/31 59/64/31 47/52/31
f 42/47/32 49/54/32 48/53/32 43/48/32
f 68/72/32 71/75/32 73/77/32 69/73/32
f 85/89/24 87/91/24 86/90/24 83/87/24
f 77/81/33 88/92/33 87/91/33 78/82/33
f 20/97/34 48/53/34 47/52/34 21/98/34
f 67/71/33 73/77/33 72/76/33 65/69/33
f 66/70/24 74/78/24 76/80/24 67/71/24
f 69/73/34 76/80/34 75/79/34 70/74/34
f 17/25/33 41/46/33 43/48/33 18/26/33
f 82/86/34 85/89/34 84/88/34 80/84/34
f 78/82/32 82/86/32 81/85/32 79/83/32
f 31/36/31 68/99/31 70/100/31 29/37/31
f 30/101/32 38/44/32 40/45/32 31/102/32
f 39/39/30 72/103/30 71/104/30 40/45/30
f 29/37/34 56/61/34 58/63/34 30/35/34
f 57/62/24 62/67/24 64/57/24 58/63/24
f 38/44/33 64/57/33 63/68/33 39/39/33
f 62/67/23 66/105/23 65/106/23 63/68/23
f 56/61/25 75/107/25 74/108/25 57/62/25
f 28/36/31 81/99/31 80/109/31 26/34/31
f 27/110/32 32/38/32 34/40/32 28/111/32
f 33/39/30 77/103/30 79/104/30 34/40/30
f 26/34/34 44/49/34 46/51/34 27/35/34
f 45/50/24 50/55/24 52/57/24 46/51/24
f 32/38/33 52/57/33 51/56/33 33/39/33
f 50/55/23 86/105/23 88/112/23 51/56/23
f 44/49/25 84/113/25 83/108/25 45/50/25
f 23/31/5 53/58/5 41/46/5 17/25/5
f 19/94/1 22/30/1 37/43/1 24/95/1
f 73/77/4 20/97/4 18/114/4 69/73/4
f 87/91/4 48/53/4 20/97/4 73/77/4 67/71/4 76/80/4 69/73/4 18/114/4 43/48/4 85/89/4 82/86/4 78/82/4
f 59/64/6 35/115/6 21/116/6 47/52/6
f 25/96/2 36/42/2 61/66/2 54/59/2
f 84/113/6 44/49/6 26/34/6 80/109/6
f 81/117/3 28/111/3 34/40/3 79/104/3
f 27/110/4 46/51/4 52/57/4 32/38/4
f 75/107/6 56/61/6 29/37/6 70/100/6
f 31/102/3 40/45/3 71/104/3 68/118/3
f 30/101/4 58/63/4 64/57/4 38/44/4
f 77/119/5 33/120/5 51/56/5 88/112/5
f 39/120/5 63/68/5 65/106/5 72/119/5
f 55/60/3 60/65/3 49/54/3 42/47/3
f 85/89/4 43/48/4 48/53/4 87/91/4
f 50/55/1 45/50/1 83/108/1 86/105/1
f 62/67/1 57/62/1 74/108/1 66/105/1
f 289/1/1 290/2/1 292/3/1 291/4/1
f 291/4/2 292/3/2 296/5/2 295/6/2
f 295/6/3 296/5/3 294/7/3 293/8/3
f 293/8/4 294/7/4 290/11/4 289/12/4
f 291/15/5 295/6/5 293/8/5 289/16/5
f 296/5/6 292/17/6 290/18/6 294/7/6
f 297/1/1 298/2/1 300/3/1 299/4/1
f 299/4/2 300/3/2 304/5/2 303/6/2
f 303/6/3 304/5/3 302/7/3 301/8/3
f 301/8/4 302/7/4 298/11/4 297/12/4
f 299/15/5 303/6/5 301/8/5 297/16/5
f 304/5/6 300/17/6 298/18/6 302/7/6
f 305/1/1 306/2/1 308/3/1 307/4/1
f 307/4/2 308/3/2 312/5/2 311/6/2
f 311/6/3 312/5/3 310/7/3 309/8/3
f 309/8/4 310/7/4 306/11/4 305/12/4
f 307/15/5 311/6/5 309/8/5 305/16/5
f 312/5/6 308/17/6 306/18/6 310/7/6
f 313/1/1 314/2/1 316/3/1 315/4/1
f 315/4/2 316/3/2 320/5/2 319/6/2
f 319/6/3 320/5/3 318/7/3 317/8/3
f 317/8/4 318/7/4 314/11/4 313/12/4
f 315/15/5 319/6/5 317/8/5 313/16/5
f 320/5/6 316/17/6 314/18/6 318/7/6
f 321/1/1 322/2/1 324/3/1 323/4/1
f 323/4/2 324/3/2 328/5/2 327/6/2
f 327/6/3 328/5/3 326/7/3 325/8/3
f 325/8/4 326/7/4 322/11/4 321/12/4
f 323/15/5 327/6/5 325/8/5 321/16/5
f 328/5/6 324/17/6 322/18/6 326/7/6
usemtl SURF_Glass_Std
f 89/1/1 90/2/1 92/3/1 91/4/1
f 91/4/2 92/3/2 96/5/2 95/6/2
f 95/6/3 96/5/3 94/7/3 93/8/3
f 93/8/4 94/7/4 90/11/4 89/12/4
f 91/15/5 95/6/5 93/8/5 89/16/5
f 96/5/6 92/17/6 90/18/6 94/7/6
usemtl SURF_Wood_Dark
f 129/1/1 130/2/1 132/3/1 131/4/1
f 131/4/2 132/3/2 136/5/2 135/6/2
f 135/6/3 136/5/3 134/7/3 133/8/3
f 133/8/4 134/7/4 130/11/4 129/12/4
f 131/15/5 135/6/5 133/8/5 129/16/5
f 136/5/6 132/17/6 130/18/6 134/7/6
f 161/1/1 162/2/1 164/3/1 163/4/1
f 163/4/2 164/3/2 168/5/2 167/6/2
f 167/6/3 168/5/3 166/7/3 165/8/3
f 165/8/4 166/7/4 162/11/4 161/12/4
f 163/15/5 167/6/5 165/8/5 161/16/5
f 168/5/6 164/17/6 162/18/6 166/7/6
f 169/1/1 170/2/1 172/3/1 171/4/1
f 171/4/2 172/3/2 176/5/2 175/6/2
f 175/6/3 176/5/3 174/7/3 173/8/3
f 173/8/4 174/7/4 170/11/4 169/12/4
f 171/15/5 175/6/5 173/8/5 169/16/5
f 176/5/6 172/17/6 170/18/6 174/7/6
f 177/1/1 178/2/1 180/3/1 179/4/1
f 179/4/2 180/3/2 184/5/2 183/6/2
f 183/6/3 184/5/3 182/7/3 181/8/3
f 181/8/4 182/7/4 178/11/4 177/12/4
f 179/15/5 183/6/5 181/8/5 177/16/5
f 184/5/6 180/17/6 178/18/6 182/7/6
f 185/1/1 186/2/1 188/3/1 187/4/1
f 187/4/2 188/3/2 192/5/2 191/6/2
f 191/6/3 192/5/3 190/7/3 189/8/3
f 189/8/4 190/7/4 186/11/4 185/12/4
f 187/15/5 191/6/5 189/8/5 185/16/5
f 192/5/6 188/17/6 186/18/6 190/7/6
f 193/1/1 194/2/1 196/3/1 195/4/1
f 195/4/2 196/3/2 200/5/2 199/6/2
f 199/6/3 200/5/3 198/7/3 197/8/3
f 197/8/4 198/7/4 194/11/4 193/12/4
f 195/15/5 199/6/5 197/8/5 193/16/5
f 200/5/6 196/17/6 194/18/6 198/7/6
f 201/1/1 202/2/1 204/3/1 203/4/1
f 203/4/2 204/3/2 208/5/2 207/6/2
f 207/6/3 208/5/3 206/7/3 205/8/3
f 205/8/4 206/7/4 202/11/4 201/12/4
f 203/15/5 207/6/5 205/8/5 201/16/5
f 208/5/6 204/17/6 202/18/6 206/7/6
f 225/1/1 226/2/1 228/3/1 227/4/1
f 227/4/2 228/3/2 232/5/2 231/6/2
f 231/6/3 232/5/3 230/7/3 229/8/3
f 229/8/4 230/7/4 226/11/4 225/12/4
f 227/15/5 231/6/5 229/8/5 225/16/5
f 232/5/6 228/17/6 226/18/6 230/7/6
f 233/1/1 234/2/1 236/3/1 235/4/1
f 235/4/2 236/3/2 240/5/2 239/6/2
f 239/6/3 240/5/3 238/7/3 237/8/3
f 237/8/4 238/7/4 234/11/4 233/12/4
f 235/15/5 239/6/5 237/8/5 233/16/5
f 240/5/6 236/17/6 234/18/6 238/7/6
f 241/1/1 242/2/1 244/3/1 243/4/1
f 243/4/2 244/3/2 248/5/2 247/6/2
f 247/6/3 248/5/3 246/7/3 245/8/3
f 245/8/4 246/7/4 242/11/4 241/12/4
f 243/15/5 247/6/5 245/8/5 241/16/5
f 248/5/6 244/17/6 242/18/6 246/7/6
f 249/1/1 250/2/1 252/3/1 251/4/1
f 251/4/2 252/3/2 256/5/2 255/6/2
f 255/6/3 256/5/3 254/7/3 253/8/3
f 253/8/4 254/7/4 250/11/4 249/12/4
f 251/15/5 255/6/5 253/8/5 249/16/5
f 256/5/6 252/17/6 250/18/6 254/7/6
f 257/1/1 258/2/1 260/3/1 259/4/1
f 259/4/2 260/3/2 264/5/2 263/6/2
f 263/6/3 264/5/3 262/7/3 261/8/3
f 261/8/4 262/7/4 258/11/4 257/12/4
f 259/15/5 263/6/5 261/8/5 257/16/5
f 264/5/6 260/17/6 258/18/6 262/7/6
f 265/1/1 266/2/1 268/3/1 267/4/1
f 267/4/2 268/3/2 272/5/2 271/6/2
f 271/6/3 272/5/3 270/7/3 269/8/3
f 269/8/4 270/7/4 266/11/4 265/12/4
f 267/15/5 271/6/5 269/8/5 265/16/5
f 272/5/6 268/17/6 266/18/6 270/7/6
usemtl SURF_Crimson_Core
f 137/1/1 138/2/1 140/3/1 139/4/1
f 139/4/2 140/3/2 144/5/2 143/6/2
f 143/6/3 144/5/3 142/7/3 141/8/3
f 141/8/4 142/7/4 138/11/4 137/12/4
f 139/15/5 143/6/5 141/8/5 137/16/5
f 144/5/6 140/17/6 138/18/6 142/7/6
usemtl SURF_Emissive_Screen
f 145/1/1 146/2/1 148/3/1 147/4/1
f 147/4/2 148/3/2 152/5/2 151/6/2
f 151/6/3 152/5/3 150/7/3 149/8/3
f 149/8/4 150/7/4 146/11/4 145/12/4
f 147/15/5 151/6/5 149/8/5 145/16/5
f 152/5/6 148/17/6 146/18/6 150/7/6
f 153/1/1 154/2/1 156/3/1 155/4/1
f 155/4/2 156/3/2 160/5/2 159/6/2
f 159/6/3 160/5/3 158/7/3 157/8/3
f 157/8/4 158/7/4 154/11/4 153/12/4
f 155/15/5 159/6/5 157/8/5 153/16/5
f 160/5/6 156/17/6 154/18/6 158/7/6
usemtl SURF_Glass_Window
f 209/1/1 210/2/1 212/3/1 211/4/1
f 211/4/2 212/3/2 216/5/2 215/6/2
f 215/6/3 216/5/3 214/7/3 213/8/3
f 213/8/4 214/7/4 210/11/4 209/12/4
f 211/15/5 215/6/5 213/8/5 209/16/5
f 216/5/6 212/17/6 210/18/6 214/7/6
f 273/1/1 274/2/1 276/3/1 275/4/1
f 275/4/2 276/3/2 280/5/2 279/6/2
f 279/6/3 280/5/3 278/7/3 277/8/3
f 277/8/4 278/7/4 274/11/4 273/12/4
f 275/15/5 279/6/5 277/8/5 273/16/5
f 280/5/6 276/17/6 274/18/6 278/7/6
usemtl SURF_Concrete_Struct
f 217/1/1 218/2/1 220/3/1 219/4/1
f 219/4/2 220/3/2 224/5/2 223/6/2
f 223/6/3 224/5/3 222/7/3 221/8/3
f 221/8/4 222/7/4 218/11/4 217/12/4
f 219/15/5 223/6/5 221/8/5 217/16/5
f 224/5/6 220/17/6 218/18/6 222/7/6
f 281/1/1 282/2/1 284/3/1 283/4/1
f 283/4/2 284/3/2 288/5/2 287/6/2
f 287/6/3 288/5/3 286/7/3 285/8/3
f 285/8/4 286/7/4 282/11/4 281/12/4
f 283/15/5 287/6/5 285/8/5 281/16/5
f 288/5/6 284/17/6 282/18/6 286/7/6
f 329/1/1 330/2/1 332/3/1 331/4/1
f 331/4/2 332/3/2 336/5/2 335/6/2
f 335/6/3 336/5/3 334/7/3 333/8/3
f 333/8/4 334/7/4 330/11/4 329/12/4
f 331/15/5 335/6/5 333/8/5 329/16/5
f 336/5/6 332/17/6 330/18/6 334/7/6
