mtllib SM_Bench_Aged.mtl
o leg_front_0
usemtl SURF_Steel_Rust
v -0.6449999848008157 0.4400000059604645 0.2550000001490116
v -0.6449999848008157 0.4400000059604645 0.1849999998509884
v -0.6449999848008157 8.344650276326249e-9 0.2550000001490116
v -0.6449999848008157 8.344650276326249e-9 0.1849999998509884
v -0.7149999850988389 0.4400000059604645 0.1849999998509884
v -0.7149999850988389 0.4400000059604645 0.2550000001490116
v -0.7149999850988389 8.344650276326249e-9 0.1849999998509884
v -0.7149999850988389 8.344650276326249e-9 0.2550000001490116
v -0.7149999850988389 0.4400000059604645 0.1849999998509884
v -0.6449999848008157 0.4400000059604645 0.1849999998509884
v -0.7149999850988389 0.4400000059604645 0.2550000001490116
v -0.6449999848008157 0.4400000059604645 0.2550000001490116
v -0.7149999850988389 8.344650276326249e-9 0.2550000001490116
v -0.6449999848008157 8.344650276326249e-9 0.2550000001490116
v -0.7149999850988389 8.344650276326249e-9 0.1849999998509884
v -0.6449999848008157 8.344650276326249e-9 0.1849999998509884
v -0.7149999850988389 0.4400000059604645 0.2550000001490116
v -0.6449999848008157 0.4400000059604645 0.2550000001490116
v -0.7149999850988389 8.344650276326249e-9 0.2550000001490116
v -0.6449999848008157 8.344650276326249e-9 0.2550000001490116
v -0.6449999848008157 0.4400000059604645 0.1849999998509884
v -0.7149999850988389 0.4400000059604645 0.1849999998509884
v -0.6449999848008157 8.344650276326249e-9 0.1849999998509884
v -0.7149999850988389 8.344650276326249e-9 0.1849999998509884
vt 0 1
vt 1 1
vt 0 0
vt 1 0
vt 0 1
vt 1 1
vt 0 0
vt 1 0
vt 0 1
vt 1 1
vt 0 0
vt 1 0
vt 0 1
vt 1 1
vt 0 0
vt 1 0
vt 0 1
vt 1 1
vt 0 0
vt 1 0
vt 0 1
vt 1 1
vt 0 0
vt 1 0
vn 1 0 0
vn 1 0 0
vn 1 0 0
vn 1 0 0
vn -1 0 0
vn -1 0 0
vn -1 0 0
vn -1 0 0
vn 0 1 0
vn 0 1 0
vn 0 1 0
vn 0 1 0
vn 0 -1 0
vn 0 -1 0
vn 0 -1 0
vn 0 -1 0
vn 0 0 1
vn 0 0 1
vn 0 0 1
vn 0 0 1
vn 0 0 -1
vn 0 0 -1
vn 0 0 -1
vn 0 0 -1
f 1/1/1 3/3/3 2/2/2
f 3/3/3 4/4/4 2/2/2
f 5/5/5 7/7/7 6/6/6
f 7/7/7 8/8/8 6/6/6
f 9/9/9 11/11/11 10/10/10
f 11/11/11 12/12/12 10/10/10
f 13/13/13 15/15/15 14/14/14
f 15/15/15 16/16/16 14/14/14
f 17/17/17 19/19/19 18/18/18
f 19/19/19 20/20/20 18/18/18
f 21/21/21 23/23/23 22/22/22
f 23/23/23 24/24/24 22/22/22
o leg_back_0
usemtl SURF_Steel_Rust
v -0.6449999848008157 0.8600000143051147 -0.1849999998509884
v -0.6449999848008157 0.8600000143051147 -0.2550000001490116
v -0.6449999848008157 0 -0.1849999998509884
v -0.6449999848008157 0 -0.2550000001490116
v -0.7149999850988389 0.8600000143051147 -0.2550000001490116
v -0.7149999850988389 0.8600000143051147 -0.1849999998509884
v -0.7149999850988389 0 -0.2550000001490116
v -0.7149999850988389 0 -0.1849999998509884
v -0.7149999850988389 0.8600000143051147 -0.2550000001490116
v -0.6449999848008157 0.8600000143051147 -0.2550000001490116
v -0.7149999850988389 0.8600000143051147 -0.1849999998509884
v -0.6449999848008157 0.8600000143051147 -0.1849999998509884
v -0.7149999850988389 0 -0.1849999998509884
v -0.6449999848008157 0 -0.1849999998509884
v -0.7149999850988389 0 -0.2550000001490116
v -0.6449999848008157 0 -0.2550000001490116
v -0.7149999850988389 0.8600000143051147 -0.1849999998509884
v -0.6449999848008157 0.8600000143051147 -0.1849999998509884
v -0.7149999850988389 0 -0.1849999998509884
v -0.6449999848008157 0 -0.1849999998509884
v -0.6449999848008157 0.8600000143051147 -0.2550000001490116
v -0.7149999850988389 0.8600000143051147 -0.2550000001490116
v -0.6449999848008157 0 -0.2550000001490116
v -0.7149999850988389 0 -0.2550000001490116
vt 0 1
vt 1 1
vt 0 0
vt 1 0
vt 0 1
vt 1 1
vt 0 0
vt 1 0
vt 0 1
vt 1 1
vt 0 0
vt 1 0
vt 0 1
vt 1 1
vt 0 0
vt 1 0
vt 0 1
vt 1 1
vt 0 0
vt 1 0
vt 0 1
vt 1 1
vt 0 0
vt 1 0
vn 1 0 0
vn 1 0 0
vn 1 0 0
vn 1 0 0
vn -1 0 0
vn -1 0 0
vn -1 0 0
vn -1 0 0
vn 0 1 0
vn 0 1 0
vn 0 1 0
vn 0 1 0
vn 0 -1 0
vn 0 -1 0
vn 0 -1 0
vn 0 -1 0
vn 0 0 1
vn 0 0 1
vn 0 0 1
vn 0 0 1
vn 0 0 -1
vn 0 0 -1
vn 0 0 -1
vn 0 0 -1
f 25/25/25 27/27/27 26/26/26
f 27/27/27 28/28/28 26/26/26
f 29/29/29 31/31/31 30/30/30
f 31/31/31 32/32/32 30/30/30
f 33/33/33 35/35/35 34/34/34
f 35/35/35 36/36/36 34/34/34
f 37/37/37 39/39/39 38/38/38
f 39/39/39 40/40/40 38/38/38
f 41/41/41 43/43/43 42/42/42
f 43/43/43 44/44/44 42/42/42
f 45/45/45 47/47/47 46/46/46
f 47/47/47 48/48/48 46/46/46
o foot_0
usemtl SURF_Rubber_Black
v -0.6199999862909318 0.04000000670552255 0.2800000011920929
v -0.6199999862909318 0.04000000670552255 -0.2800000011920929
v -0.6199999862909318 7.599592215939976e-9 0.2800000011920929
v -0.6199999862909318 7.599592215939976e-9 -0.2800000011920929
v -0.7399999836087228 0.04000000670552255 -0.2800000011920929
v -0.7399999836087228 0.04000000670552255 0.2800000011920929
v -0.7399999836087228 7.599592215939976e-9 -0.2800000011920929
v -0.7399999836087228 7.599592215939976e-9 0.2800000011920929
v -0.7399999836087228 0.04000000670552255 -0.2800000011920929
v -0.6199999862909318 0.04000000670552255 -0.2800000011920929
v -0.7399999836087228 0.04000000670552255 0.2800000011920929
v -0.6199999862909318 0.04000000670552255 0.2800000011920929
v -0.7399999836087228 7.599592215939976e-9 0.2800000011920929
v -0.6199999862909318 7.599592215939976e-9 0.2800000011920929
v -0.7399999836087228 7.599592215939976e-9 -0.2800000011920929
v -0.6199999862909318 7.599592215939976e-9 -0.2800000011920929
v -0.7399999836087228 0.04000000670552255 0.2800000011920929
v -0.6199999862909318 0.04000000670552255 0.2800000011920929
v -0.7399999836087228 7.599592215939976e-9 0.2800000011920929
v -0.6199999862909318 7.599592215939976e-9 0.2800000011920929
v -0.6199999862909318 0.04000000670552255 -0.2800000011920929
v -0.7399999836087228 0.04000000670552255 -0.2800000011920929
v -0.6199999862909318 7.599592215939976e-9 -0.2800000011920929
v -0.7399999836087228 7.599592215939976e-9 -0.2800000011920929
vt 0 1
vt 1 1
vt 0 0
vt 1 0
vt 0 1
vt 1 1
vt 0 0
vt 1 0
vt 0 1
vt 1 1
vt 0 0
vt 1 0
vt 0 1
vt 1 1
vt 0 0
vt 1 0
vt 0 1
vt 1 1
vt 0 0
vt 1 0
vt 0 1
vt 1 1
vt 0 0
vt 1 0
vn 1 0 0
vn 1 0 0
vn 1 0 0
vn 1 0 0
vn -1 0 0
vn -1 0 0
vn -1 0 0
vn -1 0 0
vn 0 1 0
vn 0 1 0
vn 0 1 0
vn 0 1 0
vn 0 -1 0
vn 0 -1 0
vn 0 -1 0
vn 0 -1 0
vn 0 0 1
vn 0 0 1
vn 0 0 1
vn 0 0 1
vn 0 0 -1
vn 0 0 -1
vn 0 0 -1
vn 0 0 -1
f 49/49/49 51/51/51 50/50/50
f 51/51/51 52/52/52 50/50/50
f 53/53/53 55/55/55 54/54/54
f 55/55/55 56/56/56 54/54/54
f 57/57/57 59/59/59 58/58/58
f 59/59/59 60/60/60 58/58/58
f 61/61/61 63/63/63 62/62/62
f 63/63/63 64/64/64 62/62/62
f 65/65/65 67/67/67 66/66/66
f 67/67/67 68/68/68 66/66/66
f 69/69/69 71/71/71 70/70/70
f 71/71/71 72/72/72 70/70/70
o seat_rail_0
usemtl SURF_Steel_Rust
v -0.6499999856203795 0.47000000648200513 0.27000001072883606
v -0.6499999856203795 0.47000000648200513 -0.27000001072883606
v -0.6499999856203795 0.41000000782310964 0.27000001072883606
v -0.6499999856203795 0.41000000782310964 -0.27000001072883606
v -0.709999984279275 0.47000000648200513 -0.27000001072883606
v -0.709999984279275 0.47000000648200513 0.27000001072883606
v -0.709999984279275 0.41000000782310964 -0.27000001072883606
v -0.709999984279275 0.41000000782310964 0.27000001072883606
v -0.709999984279275 0.47000000648200513 -0.27000001072883606
v -0.6499999856203795 0.47000000648200513 -0.27000001072883606
v -0.709999984279275 0.47000000648200513 0.27000001072883606
v -0.6499999856203795 0.47000000648200513 0.27000001072883606
v -0.709999984279275 0.41000000782310964 0.27000001072883606
v -0.6499999856203795 0.41000000782310964 0.27000001072883606
v -0.709999984279275 0.41000000782310964 -0.27000001072883606
v -0.6499999856203795 0.41000000782310964 -0.27000001072883606
v -0.709999984279275 0.47000000648200513 0.27000001072883606
v -0.6499999856203795 0.47000000648200513 0.27000001072883606
v -0.709999984279275 0.41000000782310964 0.27000001072883606
v -0.6499999856203795 0.41000000782310964 0.27000001072883606
v -0.6499999856203795 0.47000000648200513 -0.27000001072883606
v -0.709999984279275 0.47000000648200513 -0.27000001072883606
v -0.6499999856203795 0.41000000782310964 -0.27000001072883606
v -0.709999984279275 0.41000000782310964 -0.27000001072883606
vt 0 1
vt 1 1
vt 0 0
vt 1 0
vt 0 1
vt 1 1
vt 0 0
vt 1 0
vt 0 1
vt 1 1
vt 0 0
vt 1 0
vt 0 1
vt 1 1
vt 0 0
vt 1 0
vt 0 1
vt 1 1
vt 0 0
vt 1 0
vt 0 1
vt 1 1
vt 0 0
vt 1 0
vn 1 0 0
vn 1 0 0
vn 1 0 0
vn 1 0 0
vn -1 0 0
vn -1 0 0
vn -1 0 0
vn -1 0 0
vn 0 1 0
vn 0 1 0
vn 0 1 0
vn 0 1 0
vn 0 -1 0
vn 0 -1 0
vn 0 -1 0
vn 0 -1 0
vn 0 0 1
vn 0 0 1
vn 0 0 1
vn 0 0 1
vn 0 0 -1
vn 0 0 -1
vn 0 0 -1
vn 0 0 -1
f 73/73/73 75/75/75 74/74/74
f 75/75/75 76/76/76 74/74/74
f 77/77/77 79/79/79 78/78/78
f 79/79/79 80/80/80 78/78/78
f 81/81/81 83/83/83 82/82/82
f 83/83/83 84/84/84 82/82/82
f 85/85/85 87/87/87 86/86/86
f 87/87/87 88/88/88 86/86/86
f 89/89/89 91/91/91 90/90/90
f 91/91/91 92/92/92 90/90/90
f 93/93/93 95/95/95 94/94/94
f 95/95/95 96/96/96 94/94/94
o leg_front_1
usemtl SURF_Steel_Rust
v 0.7150000151991844 0.4400000059604645 0.2550000001490116
v 0.7150000151991844 0.4400000059604645 0.1849999998509884
v 0.7150000151991844 8.344650276326249e-9 0.2550000001490116
v 0.7150000151991844 8.344650276326249e-9 0.1849999998509884
v 0.6450000149011612 0.4400000059604645 0.1849999998509884
v 0.6450000149011612 0.4400000059604645 0.2550000001490116
v 0.6450000149011612 8.344650276326249e-9 0.1849999998509884
v 0.6450000149011612 8.344650276326249e-9 0.2550000001490116
v 0.6450000149011612 0.4400000059604645 0.1849999998509884
v 0.7150000151991844 0.4400000059604645 0.1849999998509884
v 0.6450000149011612 0.4400000059604645 0.2550000001490116
v 0.7150000151991844 0.4400000059604645 0.2550000001490116
v 0.6450000149011612 8.344650276326249e-9 0.2550000001490116
v 0.7150000151991844 8.344650276326249e-9 0.2550000001490116
v 0.6450000149011612 8.344650276326249e-9 0.1849999998509884
v 0.7150000151991844 8.344650276326249e-9 0.1849999998509884
v 0.6450000149011612 0.4400000059604645 0.2550000001490116
v 0.7150000151991844 0.4400000059604645 0.2550000001490116
v 0.6450000149011612 8.344650276326249e-9 0.2550000001490116
v 0.7150000151991844 8.344650276326249e-9 0.2550000001490116
v 0.7150000151991844 0.4400000059604645 0.1849999998509884
v 0.6450000149011612 0.4400000059604645 0.1849999998509884
v 0.7150000151991844 8.344650276326249e-9 0.1849999998509884
v 0.6450000149011612 8.344650276326249e-9 0.1849999998509884
vt 0 1
vt 1 1
vt 0 0
vt 1 0
vt 0 1
vt 1 1
vt 0 0
vt 1 0
vt 0 1
vt 1 1
vt 0 0
vt 1 0
vt 0 1
vt 1 1
vt 0 0
vt 1 0
vt 0 1
vt 1 1
vt 0 0
vt 1 0
vt 0 1
vt 1 1
vt 0 0
vt 1 0
vn 1 0 0
vn 1 0 0
vn 1 0 0
vn 1 0 0
vn -1 0 0
vn -1 0 0
vn -1 0 0
vn -1 0 0
vn 0 1 0
vn 0 1 0
vn 0 1 0
vn 0 1 0
vn 0 -1 0
vn 0 -1 0
vn 0 -1 0
vn 0 -1 0
vn 0 0 1
vn 0 0 1
vn 0 0 1
vn 0 0 1
vn 0 0 -1
vn 0 0 -1
vn 0 0 -1
vn 0 0 -1
f 97/97/97 99/99/99 98/98/98
f 99/99/99 100/100/100 98/98/98
f 101/101/101 103/103/103 102/102/102
f 103/103/103 104/104/104 102/102/102
f 105/105/105 107/107/107 106/106/106
f 107/107/107 108/108/108 106/106/106
f 109/109/109 111/111/111 110/110/110
f 111/111/111 112/112/112 110/110/110
f 113/113/113 115/115/115 114/114/114
f 115/115/115 116/116/116 114/114/114
f 117/117/117 119/119/119 118/118/118
f 119/119/119 120/120/120 118/118/118
o leg_back_1
usemtl SURF_Steel_Rust
v 0.7150000151991844 0.8600000143051147 -0.1849999998509884
v 0.7150000151991844 0.8600000143051147 -0.2550000001490116
v 0.7150000151991844 0 -0.1849999998509884
v 0.7150000151991844 0 -0.2550000001490116
v 0.6450000149011612 0.8600000143051147 -0.2550000001490116
v 0.6450000149011612 0.8600000143051147 -0.1849999998509884
v 0.6450000149011612 0 -0.2550000001490116
v 0.6450000149011612 0 -0.1849999998509884
v 0.6450000149011612 0.8600000143051147 -0.2550000001490116
v 0.7150000151991844 0.8600000143051147 -0.2550000001490116
v 0.6450000149011612 0.8600000143051147 -0.1849999998509884
v 0.7150000151991844 0.8600000143051147 -0.1849999998509884
v 0.6450000149011612 0 -0.1849999998509884
v 0.7150000151991844 0 -0.1849999998509884
v 0.6450000149011612 0 -0.2550000001490116
v 0.7150000151991844 0 -0.2550000001490116
v 0.6450000149011612 0.8600000143051147 -0.1849999998509884
v 0.7150000151991844 0.8600000143051147 -0.1849999998509884
v 0.6450000149011612 0 -0.1849999998509884
v 0.7150000151991844 0 -0.1849999998509884
v 0.7150000151991844 0.8600000143051147 -0.2550000001490116
v 0.6450000149011612 0.8600000143051147 -0.2550000001490116
v 0.7150000151991844 0 -0.2550000001490116
v 0.6450000149011612 0 -0.2550000001490116
vt 0 1
vt 1 1
vt 0 0
vt 1 0
vt 0 1
vt 1 1
vt 0 0
vt 1 0
vt 0 1
vt 1 1
vt 0 0
vt 1 0
vt 0 1
vt 1 1
vt 0 0
vt 1 0
vt 0 1
vt 1 1
vt 0 0
vt 1 0
vt 0 1
vt 1 1
vt 0 0
vt 1 0
vn 1 0 0
vn 1 0 0
vn 1 0 0
vn 1 0 0
vn -1 0 0
vn -1 0 0
vn -1 0 0
vn -1 0 0
vn 0 1 0
vn 0 1 0
vn 0 1 0
vn 0 1 0
vn 0 -1 0
vn 0 -1 0
vn 0 -1 0
vn 0 -1 0
vn 0 0 1
vn 0 0 1
vn 0 0 1
vn 0 0 1
vn 0 0 -1
vn 0 0 -1
vn 0 0 -1
vn 0 0 -1
f 121/121/121 123/123/123 122/122/122
f 123/123/123 124/124/124 122/122/122
f 125/125/125 127/127/127 126/126/126
f 127/127/127 128/128/128 126/126/126
f 129/129/129 131/131/131 130/130/130
f 131/131/131 132/132/132 130/130/130
f 133/133/133 135/135/135 134/134/134
f 135/135/135 136/136/136 134/134/134
f 137/137/137 139/139/139 138/138/138
f 139/139/139 140/140/140 138/138/138
f 141/141/141 143/143/143 142/142/142
f 143/143/143 144/144/144 142/142/142
o foot_1
usemtl SURF_Rubber_Black
v 0.7400000137090683 0.04000000670552255 0.2800000011920929
v 0.7400000137090683 0.04000000670552255 -0.2800000011920929
v 0.7400000137090683 7.599592215939976e-9 0.2800000011920929
v 0.7400000137090683 7.599592215939976e-9 -0.2800000011920929
v 0.6200000163912773 0.04000000670552255 -0.2800000011920929
v 0.6200000163912773 0.04000000670552255 0.2800000011920929
v 0.6200000163912773 7.599592215939976e-9 -0.2800000011920929
v 0.6200000163912773 7.599592215939976e-9 0.2800000011920929
v 0.6200000163912773 0.04000000670552255 -0.2800000011920929
v 0.7400000137090683 0.04000000670552255 -0.2800000011920929
v 0.6200000163912773 0.04000000670552255 0.2800000011920929
v 0.7400000137090683 0.04000000670552255 0.2800000011920929
v 0.6200000163912773 7.599592215939976e-9 0.2800000011920929
v 0.7400000137090683 7.599592215939976e-9 0.2800000011920929
v 0.6200000163912773 7.599592215939976e-9 -0.2800000011920929
v 0.7400000137090683 7.599592215939976e-9 -0.2800000011920929
v 0.6200000163912773 0.04000000670552255 0.2800000011920929
v 0.7400000137090683 0.04000000670552255 0.2800000011920929
v 0.6200000163912773 7.599592215939976e-9 0.2800000011920929
v 0.7400000137090683 7.599592215939976e-9 0.2800000011920929
v 0.7400000137090683 0.04000000670552255 -0.2800000011920929
v 0.6200000163912773 0.04000000670552255 -0.2800000011920929
v 0.7400000137090683 7.599592215939976e-9 -0.2800000011920929
v 0.6200000163912773 7.599592215939976e-9 -0.2800000011920929
vt 0 1
vt 1 1
vt 0 0
vt 1 0
vt 0 1
vt 1 1
vt 0 0
vt 1 0
vt 0 1
vt 1 1
vt 0 0
vt 1 0
vt 0 1
vt 1 1
vt 0 0
vt 1 0
vt 0 1
vt 1 1
vt 0 0
vt 1 0
vt 0 1
vt 1 1
vt 0 0
vt 1 0
vn 1 0 0
vn 1 0 0
vn 1 0 0
vn 1 0 0
vn -1 0 0
vn -1 0 0
vn -1 0 0
vn -1 0 0
vn 0 1 0
vn 0 1 0
vn 0 1 0
vn 0 1 0
vn 0 -1 0
vn 0 -1 0
vn 0 -1 0
vn 0 -1 0
vn 0 0 1
vn 0 0 1
vn 0 0 1
vn 0 0 1
vn 0 0 -1
vn 0 0 -1
vn 0 0 -1
vn 0 0 -1
f 145/145/145 147/147/147 146/146/146
f 147/147/147 148/148/148 146/146/146
f 149/149/149 151/151/151 150/150/150
f 151/151/151 152/152/152 150/150/150
f 153/153/153 155/155/155 154/154/154
f 155/155/155 156/156/156 154/154/154
f 157/157/157 159/159/159 158/158/158
f 159/159/159 160/160/160 158/158/158
f 161/161/161 163/163/163 162/162/162
f 163/163/163 164/164/164 162/162/162
f 165/165/165 167/167/167 166/166/166
f 167/167/167 168/168/168 166/166/166
o seat_rail_1
usemtl SURF_Steel_Rust
v 0.7100000143796206 0.47000000648200513 0.27000001072883606
v 0.7100000143796206 0.47000000648200513 -0.27000001072883606
v 0.7100000143796206 0.41000000782310964 0.27000001072883606
v 0.7100000143796206 0.41000000782310964 -0.27000001072883606
v 0.6500000157207251 0.47000000648200513 -0.27000001072883606
v 0.6500000157207251 0.47000000648200513 0.27000001072883606
v 0.6500000157207251 0.41000000782310964 -0.27000001072883606
v 0.6500000157207251 0.41000000782310964 0.27000001072883606
v 0.6500000157207251 0.47000000648200513 -0.27000001072883606
v 0.7100000143796206 0.47000000648200513 -0.27000001072883606
v 0.6500000157207251 0.47000000648200513 0.27000001072883606
v 0.7100000143796206 0.47000000648200513 0.27000001072883606
v 0.6500000157207251 0.41000000782310964 0.27000001072883606
v 0.7100000143796206 0.41000000782310964 0.27000001072883606
v 0.6500000157207251 0.41000000782310964 -0.27000001072883606
v 0.7100000143796206 0.41000000782310964 -0.27000001072883606
v 0.6500000157207251 0.47000000648200513 0.27000001072883606
v 0.7100000143796206 0.47000000648200513 0.27000001072883606
v 0.6500000157207251 0.41000000782310964 0.27000001072883606
v 0.7100000143796206 0.41000000782310964 0.27000001072883606
v 0.7100000143796206 0.47000000648200513 -0.27000001072883606
v 0.6500000157207251 0.47000000648200513 -0.27000001072883606
v 0.7100000143796206 0.41000000782310964 -0.27000001072883606
v 0.6500000157207251 0.41000000782310964 -0.27000001072883606
vt 0 1
vt 1 1
vt 0 0
vt 1 0
vt 0 1
vt 1 1
vt 0 0
vt 1 0
vt 0 1
vt 1 1
vt 0 0
vt 1 0
vt 0 1
vt 1 1
vt 0 0
vt 1 0
vt 0 1
vt 1 1
vt 0 0
vt 1 0
vt 0 1
vt 1 1
vt 0 0
vt 1 0
vn 1 0 0
vn 1 0 0
vn 1 0 0
vn 1 0 0
vn -1 0 0
vn -1 0 0
vn -1 0 0
vn -1 0 0
vn 0 1 0
vn 0 1 0
vn 0 1 0
vn 0 1 0
vn 0 -1 0
vn 0 -1 0
vn 0 -1 0
vn 0 -1 0
vn 0 0 1
vn 0 0 1
vn 0 0 1
vn 0 0 1
vn 0 0 -1
vn 0 0 -1
vn 0 0 -1
vn 0 0 -1
f 169/169/169 171/171/171 170/170/170
f 171/171/171 172/172/172 170/170/170
f 173/173/173 175/175/175 174/174/174
f 175/175/175 176/176/176 174/174/174
f 177/177/177 179/179/179 178/178/178
f 179/179/179 180/180/180 178/178/178
f 181/181/181 183/183/183 182/182/182
f 183/183/183 184/184/184 182/182/182
f 185/185/185 187/187/187 186/186/186
f 187/187/187 188/188/188 186/186/186
f 189/189/189 191/191/191 190/190/190
f 191/191/191 192/192/192 190/190/190
o seat_slat_0
usemtl SURF_Wood_Pole
v 0.7799999864399434 0.5000000075250863 -0.15500000029802322
v 0.7799999864399434 0.5000000075250863 -0.26499999970197674
v 0.7799999864399434 0.4500000067800283 -0.15500000029802322
v 0.7799999864399434 0.4500000067800283 -0.26499999970197674
v -0.7799999563395976 0.5000000075250863 -0.26499999970197674
v -0.7799999563395976 0.5000000075250863 -0.15500000029802322
v -0.7799999563395976 0.4500000067800283 -0.26499999970197674
v -0.7799999563395976 0.4500000067800283 -0.15500000029802322
v -0.7799999563395976 0.5000000075250863 -0.26499999970197674
v 0.7799999864399434 0.5000000075250863 -0.26499999970197674
v -0.7799999563395976 0.5000000075250863 -0.15500000029802322
v 0.7799999864399434 0.5000000075250863 -0.15500000029802322
v -0.7799999563395976 0.4500000067800283 -0.15500000029802322
v 0.7799999864399434 0.4500000067800283 -0.15500000029802322
v -0.7799999563395976 0.4500000067800283 -0.26499999970197674
v 0.7799999864399434 0.4500000067800283 -0.26499999970197674
v -0.7799999563395976 0.5000000075250863 -0.15500000029802322
v 0.7799999864399434 0.5000000075250863 -0.15500000029802322
v -0.7799999563395976 0.4500000067800283 -0.15500000029802322
v 0.7799999864399434 0.4500000067800283 -0.15500000029802322
v 0.7799999864399434 0.5000000075250863 -0.26499999970197674
v -0.7799999563395976 0.5000000075250863 -0.26499999970197674
v 0.7799999864399434 0.4500000067800283 -0.26499999970197674
v -0.7799999563395976 0.4500000067800283 -0.26499999970197674
vt 0 1
vt 1 1
vt 0 0
vt 1 0
vt 0 1
vt 1 1
vt 0 0
vt 1 0
vt 0 1
vt 1 1
vt 0 0
vt 1 0
vt 0 1
vt 1 1
vt 0 0
vt 1 0
vt 0 1
vt 1 1
vt 0 0
vt 1 0
vt 0 1
vt 1 1
vt 0 0
vt 1 0
vn 1 0 0
vn 1 0 0
vn 1 0 0
vn 1 0 0
vn -1 0 0
vn -1 0 0
vn -1 0 0
vn -1 0 0
vn 0 1 0
vn 0 1 0
vn 0 1 0
vn 0 1 0
vn 0 -1 0
vn 0 -1 0
vn 0 -1 0
vn 0 -1 0
vn 0 0 1
vn 0 0 1
vn 0 0 1
vn 0 0 1
vn 0 0 -1
vn 0 0 -1
vn 0 0 -1
vn 0 0 -1
f 193/193/193 195/195/195 194/194/194
f 195/195/195 196/196/196 194/194/194
f 197/197/197 199/199/199 198/198/198
f 199/199/199 200/200/200 198/198/198
f 201/201/201 203/203/203 202/202/202
f 203/203/203 204/204/204 202/202/202
f 205/205/205 207/207/207 206/206/206
f 207/207/207 208/208/208 206/206/206
f 209/209/209 211/211/211 210/210/210
f 211/211/211 212/212/212 210/210/210
f 213/213/213 215/215/215 214/214/214
f 215/215/215 216/216/216 214/214/214
o seat_slat_1
usemtl SURF_Wood_Pole
v 0.7799999864399434 0.5000000075250863 -0.015000000298023203
v 0.7799999864399434 0.5000000075250863 -0.12499999970197676
v 0.7799999864399434 0.4500000067800283 -0.015000000298023203
v 0.7799999864399434 0.4500000067800283 -0.12499999970197676
v -0.7799999563395976 0.5000000075250863 -0.12499999970197676
v -0.7799999563395976 0.5000000075250863 -0.015000000298023203
v -0.7799999563395976 0.4500000067800283 -0.12499999970197676
v -0.7799999563395976 0.4500000067800283 -0.015000000298023203
v -0.7799999563395976 0.5000000075250863 -0.12499999970197676
v 0.7799999864399434 0.5000000075250863 -0.12499999970197676
v -0.7799999563395976 0.5000000075250863 -0.015000000298023203
v 0.7799999864399434 0.5000000075250863 -0.015000000298023203
v -0.7799999563395976 0.4500000067800283 -0.015000000298023203
v 0.7799999864399434 0.4500000067800283 -0.015000000298023203
v -0.7799999563395976 0.4500000067800283 -0.12499999970197676
v 0.7799999864399434 0.4500000067800283 -0.12499999970197676
v -0.7799999563395976 0.5000000075250863 -0.015000000298023203
v 0.7799999864399434 0.5000000075250863 -0.015000000298023203
v -0.7799999563395976 0.4500000067800283 -0.015000000298023203
v 0.7799999864399434 0.4500000067800283 -0.015000000298023203
v 0.7799999864399434 0.5000000075250863 -0.12499999970197676
v -0.7799999563395976 0.5000000075250863 -0.12499999970197676
v 0.7799999864399434 0.4500000067800283 -0.12499999970197676
v -0.7799999563395976 0.4500000067800283 -0.12499999970197676
vt 0 1
vt 1 1
vt 0 0
vt 1 0
vt 0 1
vt 1 1
vt 0 0
vt 1 0
vt 0 1
vt 1 1
vt 0 0
vt 1 0
vt 0 1
vt 1 1
vt 0 0
vt 1 0
vt 0 1
vt 1 1
vt 0 0
vt 1 0
vt 0 1
vt 1 1
vt 0 0
vt 1 0
vn 1 0 0
vn 1 0 0
vn 1 0 0
vn 1 0 0
vn -1 0 0
vn -1 0 0
vn -1 0 0
vn -1 0 0
vn 0 1 0
vn 0 1 0
vn 0 1 0
vn 0 1 0
vn 0 -1 0
vn 0 -1 0
vn 0 -1 0
vn 0 -1 0
vn 0 0 1
vn 0 0 1
vn 0 0 1
vn 0 0 1
vn 0 0 -1
vn 0 0 -1
vn 0 0 -1
vn 0 0 -1
f 217/217/217 219/219/219 218/218/218
f 219/219/219 220/220/220 218/218/218
f 221/221/221 223/223/223 222/222/222
f 223/223/223 224/224/224 222/222/222
f 225/225/225 227/227/227 226/226/226
f 227/227/227 228/228/228 226/226/226
f 229/229/229 231/231/231 230/230/230
f 231/231/231 232/232/232 230/230/230
f 233/233/233 235/235/235 234/234/234
f 235/235/235 236/236/236 234/234/234
f 237/237/237 239/239/239 238/238/238
f 239/239/239 240/240/240 238/238/238
o seat_slat_3
usemtl SURF_Wood_Pole
v 0.7799999864399434 0.5000000075250863 0.26499999970197685
v 0.7799999864399434 0.5000000075250863 0.15500000029802327
v 0.7799999864399434 0.4500000067800283 0.26499999970197685
v 0.7799999864399434 0.4500000067800283 0.15500000029802327
v -0.7799999563395976 0.5000000075250863 0.15500000029802327
v -0.7799999563395976 0.5000000075250863 0.26499999970197685
v -0.7799999563395976 0.4500000067800283 0.15500000029802327
v -0.7799999563395976 0.4500000067800283 0.26499999970197685
v -0.7799999563395976 0.5000000075250863 0.15500000029802327
v 0.7799999864399434 0.5000000075250863 0.15500000029802327
v -0.7799999563395976 0.5000000075250863 0.26499999970197685
v 0.7799999864399434 0.5000000075250863 0.26499999970197685
v -0.7799999563395976 0.4500000067800283 0.26499999970197685
v 0.7799999864399434 0.4500000067800283 0.26499999970197685
v -0.7799999563395976 0.4500000067800283 0.15500000029802327
v 0.7799999864399434 0.4500000067800283 0.15500000029802327
v -0.7799999563395976 0.5000000075250863 0.26499999970197685
v 0.7799999864399434 0.5000000075250863 0.26499999970197685
v -0.7799999563395976 0.4500000067800283 0.26499999970197685
v 0.7799999864399434 0.4500000067800283 0.26499999970197685
v 0.7799999864399434 0.5000000075250863 0.15500000029802327
v -0.7799999563395976 0.5000000075250863 0.15500000029802327
v 0.7799999864399434 0.4500000067800283 0.15500000029802327
v -0.7799999563395976 0.4500000067800283 0.15500000029802327
vt 0 1
vt 1 1
vt 0 0
vt 1 0
vt 0 1
vt 1 1
vt 0 0
vt 1 0
vt 0 1
vt 1 1
vt 0 0
vt 1 0
vt 0 1
vt 1 1
vt 0 0
vt 1 0
vt 0 1
vt 1 1
vt 0 0
vt 1 0
vt 0 1
vt 1 1
vt 0 0
vt 1 0
vn 1 0 0
vn 1 0 0
vn 1 0 0
vn 1 0 0
vn -1 0 0
vn -1 0 0
vn -1 0 0
vn -1 0 0
vn 0 1 0
vn 0 1 0
vn 0 1 0
vn 0 1 0
vn 0 -1 0
vn 0 -1 0
vn 0 -1 0
vn 0 -1 0
vn 0 0 1
vn 0 0 1
vn 0 0 1
vn 0 0 1
vn 0 0 -1
vn 0 0 -1
vn 0 0 -1
vn 0 0 -1
f 241/241/241 243/243/243 242/242/242
f 243/243/243 244/244/244 242/242/242
f 245/245/245 247/247/247 246/246/246
f 247/247/247 248/248/248 246/246/246
f 249/249/249 251/251/251 250/250/250
f 251/251/251 252/252/252 250/250/250
f 253/253/253 255/255/255 254/254/254
f 255/255/255 256/256/256 254/254/254
f 257/257/257 259/259/259 258/258/258
f 259/259/259 260/260/260 258/258/258
f 261/261/261 263/263/263 262/262/262
f 263/263/263 264/264/264 262/262/262
o back_slat_0
usemtl SURF_Wood_Pole
v 0.7799999864399434 0.6600000058114528 -0.22499999962747097
v 0.7799999864399434 0.6600000058114528 -0.27500000037252903
v 0.7799999864399434 0.5400000084936618 -0.22499999962747097
v 0.7799999864399434 0.5400000084936618 -0.27500000037252903
v -0.7799999563395976 0.6600000058114528 -0.27500000037252903
v -0.7799999563395976 0.6600000058114528 -0.22499999962747097
v -0.7799999563395976 0.5400000084936618 -0.27500000037252903
v -0.7799999563395976 0.5400000084936618 -0.22499999962747097
v -0.7799999563395976 0.6600000058114528 -0.27500000037252903
v 0.7799999864399434 0.6600000058114528 -0.27500000037252903
v -0.7799999563395976 0.6600000058114528 -0.22499999962747097
v 0.7799999864399434 0.6600000058114528 -0.22499999962747097
v -0.7799999563395976 0.5400000084936618 -0.22499999962747097
v 0.7799999864399434 0.5400000084936618 -0.22499999962747097
v -0.7799999563395976 0.5400000084936618 -0.27500000037252903
v 0.7799999864399434 0.5400000084936618 -0.27500000037252903
v -0.7799999563395976 0.6600000058114528 -0.22499999962747097
v 0.7799999864399434 0.6600000058114528 -0.22499999962747097
v -0.7799999563395976 0.5400000084936618 -0.22499999962747097
v 0.7799999864399434 0.5400000084936618 -0.22499999962747097
v 0.7799999864399434 0.6600000058114528 -0.27500000037252903
v -0.7799999563395976 0.6600000058114528 -0.27500000037252903
v 0.7799999864399434 0.5400000084936618 -0.27500000037252903
v -0.7799999563395976 0.5400000084936618 -0.27500000037252903
vt 0 1
vt 1 1
vt 0 0
vt 1 0
vt 0 1
vt 1 1
vt 0 0
vt 1 0
vt 0 1
vt 1 1
vt 0 0
vt 1 0
vt 0 1
vt 1 1
vt 0 0
vt 1 0
vt 0 1
vt 1 1
vt 0 0
vt 1 0
vt 0 1
vt 1 1
vt 0 0
vt 1 0
vn 1 0 0
vn 1 0 0
vn 1 0 0
vn 1 0 0
vn -1 0 0
vn -1 0 0
vn -1 0 0
vn -1 0 0
vn 0 1 0
vn 0 1 0
vn 0 1 0
vn 0 1 0
vn 0 -1 0
vn 0 -1 0
vn 0 -1 0
vn 0 -1 0
vn 0 0 1
vn 0 0 1
vn 0 0 1
vn 0 0 1
vn 0 0 -1
vn 0 0 -1
vn 0 0 -1
vn 0 0 -1
f 265/265/265 267/267/267 266/266/266
f 267/267/267 268/268/268 266/266/266
f 269/269/269 271/271/271 270/270/270
f 271/271/271 272/272/272 270/270/270
f 273/273/273 275/275/275 274/274/274
f 275/275/275 276/276/276 274/274/274
f 277/277/277 279/279/279 278/278/278
f 279/279/279 280/280/280 278/278/278
f 281/281/281 283/283/283 282/282/282
f 283/283/283 284/284/284 282/282/282
f 285/285/285 287/287/287 286/286/286
f 287/287/287 288/288/288 286/286/286
o back_slat_1
usemtl SURF_Wood_Pole
v 0.7799999864399434 0.8200000058114529 -0.22499999962747097
v 0.7799999864399434 0.8200000058114529 -0.27500000037252903
v 0.7799999864399434 0.700000008493662 -0.22499999962747097
v 0.7799999864399434 0.700000008493662 -0.27500000037252903
v -0.7799999563395976 0.8200000058114529 -0.27500000037252903
v -0.7799999563395976 0.8200000058114529 -0.22499999962747097
v -0.7799999563395976 0.700000008493662 -0.27500000037252903
v -0.7799999563395976 0.700000008493662 -0.22499999962747097
v -0.7799999563395976 0.8200000058114529 -0.27500000037252903
v 0.7799999864399434 0.8200000058114529 -0.27500000037252903
v -0.7799999563395976 0.8200000058114529 -0.22499999962747097
v 0.7799999864399434 0.8200000058114529 -0.22499999962747097
v -0.7799999563395976 0.700000008493662 -0.22499999962747097
v 0.7799999864399434 0.700000008493662 -0.22499999962747097
v -0.7799999563395976 0.700000008493662 -0.27500000037252903
v 0.7799999864399434 0.700000008493662 -0.27500000037252903
v -0.7799999563395976 0.8200000058114529 -0.22499999962747097
v 0.7799999864399434 0.8200000058114529 -0.22499999962747097
v -0.7799999563395976 0.700000008493662 -0.22499999962747097
v 0.7799999864399434 0.700000008493662 -0.22499999962747097
v 0.7799999864399434 0.8200000058114529 -0.27500000037252903
v -0.7799999563395976 0.8200000058114529 -0.27500000037252903
v 0.7799999864399434 0.700000008493662 -0.27500000037252903
v -0.7799999563395976 0.700000008493662 -0.27500000037252903
vt 0 1
vt 1 1
vt 0 0
vt 1 0
vt 0 1
vt 1 1
vt 0 0
vt 1 0
vt 0 1
vt 1 1
vt 0 0
vt 1 0
vt 0 1
vt 1 1
vt 0 0
vt 1 0
vt 0 1
vt 1 1
vt 0 0
vt 1 0
vt 0 1
vt 1 1
vt 0 0
vt 1 0
vn 1 0 0
vn 1 0 0
vn 1 0 0
vn 1 0 0
vn -1 0 0
vn -1 0 0
vn -1 0 0
vn -1 0 0
vn 0 1 0
vn 0 1 0
vn 0 1 0
vn 0 1 0
vn 0 -1 0
vn 0 -1 0
vn 0 -1 0
vn 0 -1 0
vn 0 0 1
vn 0 0 1
vn 0 0 1
vn 0 0 1
vn 0 0 -1
vn 0 0 -1
vn 0 0 -1
vn 0 0 -1
f 289/289/289 291/291/291 290/290/290
f 291/291/291 292/292/292 290/290/290
f 293/293/293 295/295/295 294/294/294
f 295/295/295 296/296/296 294/294/294
f 297/297/297 299/299/299 298/298/298
f 299/299/299 300/300/300 298/298/298
f 301/301/301 303/303/303 302/302/302
f 303/303/303 304/304/304 302/302/302
f 305/305/305 307/307/307 306/306/306
f 307/307/307 308/308/308 306/306/306
f 309/309/309 311/311/311 310/310/310
f 311/311/311 312/312/312 310/310/310
o back_slat_2
usemtl SURF_Wood_Pole
v 0.7799999864399434 0.9800000058114529 -0.22499999962747097
v 0.7799999864399434 0.9800000058114529 -0.27500000037252903
v 0.7799999864399434 0.8600000084936619 -0.22499999962747097
v 0.7799999864399434 0.8600000084936619 -0.27500000037252903
v -0.7799999563395976 0.9800000058114529 -0.27500000037252903
v -0.7799999563395976 0.9800000058114529 -0.22499999962747097
v -0.7799999563395976 0.8600000084936619 -0.27500000037252903
v -0.7799999563395976 0.8600000084936619 -0.22499999962747097
v -0.7799999563395976 0.9800000058114529 -0.27500000037252903
v 0.7799999864399434 0.9800000058114529 -0.27500000037252903
v -0.7799999563395976 0.9800000058114529 -0.22499999962747097
v 0.7799999864399434 0.9800000058114529 -0.22499999962747097
v -0.7799999563395976 0.8600000084936619 -0.22499999962747097
v 0.7799999864399434 0.8600000084936619 -0.22499999962747097
v -0.7799999563395976 0.8600000084936619 -0.27500000037252903
v 0.7799999864399434 0.8600000084936619 -0.27500000037252903
v -0.7799999563395976 0.9800000058114529 -0.22499999962747097
v 0.7799999864399434 0.9800000058114529 -0.22499999962747097
v -0.7799999563395976 0.8600000084936619 -0.22499999962747097
v 0.7799999864399434 0.8600000084936619 -0.22499999962747097
v 0.7799999864399434 0.9800000058114529 -0.27500000037252903
v -0.7799999563395976 0.9800000058114529 -0.27500000037252903
v 0.7799999864399434 0.8600000084936619 -0.27500000037252903
v -0.7799999563395976 0.8600000084936619 -0.27500000037252903
vt 0 1
vt 1 1
vt 0 0
vt 1 0
vt 0 1
vt 1 1
vt 0 0
vt 1 0
vt 0 1
vt 1 1
vt 0 0
vt 1 0
vt 0 1
vt 1 1
vt 0 0
vt 1 0
vt 0 1
vt 1 1
vt 0 0
vt 1 0
vt 0 1
vt 1 1
vt 0 0
vt 1 0
vn 1 0 0
vn 1 0 0
vn 1 0 0
vn 1 0 0
vn -1 0 0
vn -1 0 0
vn -1 0 0
vn -1 0 0
vn 0 1 0
vn 0 1 0
vn 0 1 0
vn 0 1 0
vn 0 -1 0
vn 0 -1 0
vn 0 -1 0
vn 0 -1 0
vn 0 0 1
vn 0 0 1
vn 0 0 1
vn 0 0 1
vn 0 0 -1
vn 0 0 -1
vn 0 0 -1
vn 0 0 -1
f 313/313/313 315/315/315 314/314/314
f 315/315/315 316/316/316 314/314/314
f 317/317/317 319/319/319 318/318/318
f 319/319/319 320/320/320 318/318/318
f 321/321/321 323/323/323 322/322/322
f 323/323/323 324/324/324 322/322/322
f 325/325/325 327/327/327 326/326/326
f 327/327/327 328/328/328 326/326/326
f 329/329/329 331/331/331 330/330/330
f 331/331/331 332/332/332 330/330/330
f 333/333/333 335/335/335 334/334/334
f 335/335/335 336/336/336 334/334/334
o arm_l
usemtl SURF_Steel_Rust
v -0.6499999856203795 0.6450000075250863 0.23
v -0.6499999856203795 0.6450000075250863 -0.27
v -0.6499999856203795 0.5950000067800283 0.23
v -0.6499999856203795 0.5950000067800283 -0.27
v -0.709999984279275 0.6450000075250863 -0.27
v -0.709999984279275 0.6450000075250863 0.23
v -0.709999984279275 0.5950000067800283 -0.27
v -0.709999984279275 0.5950000067800283 0.23
v -0.709999984279275 0.6450000075250863 -0.27
v -0.6499999856203795 0.6450000075250863 -0.27
v -0.709999984279275 0.6450000075250863 0.23
v -0.6499999856203795 0.6450000075250863 0.23
v -0.709999984279275 0.5950000067800283 0.23
v -0.6499999856203795 0.5950000067800283 0.23
v -0.709999984279275 0.5950000067800283 -0.27
v -0.6499999856203795 0.5950000067800283 -0.27
v -0.709999984279275 0.6450000075250863 0.23
v -0.6499999856203795 0.6450000075250863 0.23
v -0.709999984279275 0.5950000067800283 0.23
v -0.6499999856203795 0.5950000067800283 0.23
v -0.6499999856203795 0.6450000075250863 -0.27
v -0.709999984279275 0.6450000075250863 -0.27
v -0.6499999856203795 0.5950000067800283 -0.27
v -0.709999984279275 0.5950000067800283 -0.27
vt 0 1
vt 1 1
vt 0 0
vt 1 0
vt 0 1
vt 1 1
vt 0 0
vt 1 0
vt 0 1
vt 1 1
vt 0 0
vt 1 0
vt 0 1
vt 1 1
vt 0 0
vt 1 0
vt 0 1
vt 1 1
vt 0 0
vt 1 0
vt 0 1
vt 1 1
vt 0 0
vt 1 0
vn 1 0 0
vn 1 0 0
vn 1 0 0
vn 1 0 0
vn -1 0 0
vn -1 0 0
vn -1 0 0
vn -1 0 0
vn 0 1 0
vn 0 1 0
vn 0 1 0
vn 0 1 0
vn 0 -1 0
vn 0 -1 0
vn 0 -1 0
vn 0 -1 0
vn 0 0 1
vn 0 0 1
vn 0 0 1
vn 0 0 1
vn 0 0 -1
vn 0 0 -1
vn 0 0 -1
vn 0 0 -1
f 337/337/337 339/339/339 338/338/338
f 339/339/339 340/340/340 338/338/338
f 341/341/341 343/343/343 342/342/342
f 343/343/343 344/344/344 342/342/342
f 345/345/345 347/347/347 346/346/346
f 347/347/347 348/348/348 346/346/346
f 349/349/349 351/351/351 350/350/350
f 351/351/351 352/352/352 350/350/350
f 353/353/353 355/355/355 354/354/354
f 355/355/355 356/356/356 354/354/354
f 357/357/357 359/359/359 358/358/358
f 359/359/359 360/360/360 358/358/358
o arm_r
usemtl SURF_Steel_Rust
v 0.7100000143796206 0.6450000075250863 0.23
v 0.7100000143796206 0.6450000075250863 -0.27
v 0.7100000143796206 0.5950000067800283 0.23
v 0.7100000143796206 0.5950000067800283 -0.27
v 0.6500000157207251 0.6450000075250863 -0.27
v 0.6500000157207251 0.6450000075250863 0.23
v 0.6500000157207251 0.5950000067800283 -0.27
v 0.6500000157207251 0.5950000067800283 0.23
v 0.6500000157207251 0.6450000075250863 -0.27
v 0.7100000143796206 0.6450000075250863 -0.27
v 0.6500000157207251 0.6450000075250863 0.23
v 0.7100000143796206 0.6450000075250863 0.23
v 0.6500000157207251 0.5950000067800283 0.23
v 0.7100000143796206 0.5950000067800283 0.23
v 0.6500000157207251 0.5950000067800283 -0.27
v 0.7100000143796206 0.5950000067800283 -0.27
v 0.6500000157207251 0.6450000075250863 0.23
v 0.7100000143796206 0.6450000075250863 0.23
v 0.6500000157207251 0.5950000067800283 0.23
v 0.7100000143796206 0.5950000067800283 0.23
v 0.7100000143796206 0.6450000075250863 -0.27
v 0.6500000157207251 0.6450000075250863 -0.27
v 0.7100000143796206 0.5950000067800283 -0.27
v 0.6500000157207251 0.5950000067800283 -0.27
vt 0 1
vt 1 1
vt 0 0
vt 1 0
vt 0 1
vt 1 1
vt 0 0
vt 1 0
vt 0 1
vt 1 1
vt 0 0
vt 1 0
vt 0 1
vt 1 1
vt 0 0
vt 1 0
vt 0 1
vt 1 1
vt 0 0
vt 1 0
vt 0 1
vt 1 1
vt 0 0
vt 1 0
vn 1 0 0
vn 1 0 0
vn 1 0 0
vn 1 0 0
vn -1 0 0
vn -1 0 0
vn -1 0 0
vn -1 0 0
vn 0 1 0
vn 0 1 0
vn 0 1 0
vn 0 1 0
vn 0 -1 0
vn 0 -1 0
vn 0 -1 0
vn 0 -1 0
vn 0 0 1
vn 0 0 1
vn 0 0 1
vn 0 0 1
vn 0 0 -1
vn 0 0 -1
vn 0 0 -1
vn 0 0 -1
f 361/361/361 363/363/363 362/362/362
f 363/363/363 364/364/364 362/362/362
f 365/365/365 367/367/367 366/366/366
f 367/367/367 368/368/368 366/366/366
f 369/369/369 371/371/371 370/370/370
f 371/371/371 372/372/372 370/370/370
f 373/373/373 375/375/375 374/374/374
f 375/375/375 376/376/376 374/374/374
f 377/377/377 379/379/379 378/378/378
f 379/379/379 380/380/380 378/378/378
f 381/381/381 383/383/383 382/382/382
f 383/383/383 384/384/384 382/382/382
o rust_bloom
usemtl SURF_Steel_Rust
v -0.5799999834597112 0.4300000131130219 0.2650000017881393
v -0.5799999834597112 0.4300000131130219 0.17499999821186066
v -0.5799999834597112 0.13000000119209293 0.2650000017881393
v -0.5799999834597112 0.13000000119209293 0.17499999821186066
v -0.7799999864399434 0.4300000131130219 0.17499999821186066
v -0.7799999864399434 0.4300000131130219 0.2650000017881393
v -0.7799999864399434 0.13000000119209293 0.17499999821186066
v -0.7799999864399434 0.13000000119209293 0.2650000017881393
v -0.7799999864399434 0.4300000131130219 0.17499999821186066
v -0.5799999834597112 0.4300000131130219 0.17499999821186066
v -0.7799999864399434 0.4300000131130219 0.2650000017881393
v -0.5799999834597112 0.4300000131130219 0.2650000017881393
v -0.7799999864399434 0.13000000119209293 0.2650000017881393
v -0.5799999834597112 0.13000000119209293 0.2650000017881393
v -0.7799999864399434 0.13000000119209293 0.17499999821186066
v -0.5799999834597112 0.13000000119209293 0.17499999821186066
v -0.7799999864399434 0.4300000131130219 0.2650000017881393
v -0.5799999834597112 0.4300000131130219 0.2650000017881393
v -0.7799999864399434 0.13000000119209293 0.2650000017881393
v -0.5799999834597112 0.13000000119209293 0.2650000017881393
v -0.5799999834597112 0.4300000131130219 0.17499999821186066
v -0.7799999864399434 0.4300000131130219 0.17499999821186066
v -0.5799999834597112 0.13000000119209293 0.17499999821186066
v -0.7799999864399434 0.13000000119209293 0.17499999821186066
vt 0 1
vt 1 1
vt 0 0
vt 1 0
vt 0 1
vt 1 1
vt 0 0
vt 1 0
vt 0 1
vt 1 1
vt 0 0
vt 1 0
vt 0 1
vt 1 1
vt 0 0
vt 1 0
vt 0 1
vt 1 1
vt 0 0
vt 1 0
vt 0 1
vt 1 1
vt 0 0
vt 1 0
vn 1 0 0
vn 1 0 0
vn 1 0 0
vn 1 0 0
vn -1 0 0
vn -1 0 0
vn -1 0 0
vn -1 0 0
vn 0 1 0
vn 0 1 0
vn 0 1 0
vn 0 1 0
vn 0 -1 0
vn 0 -1 0
vn 0 -1 0
vn 0 -1 0
vn 0 0 1
vn 0 0 1
vn 0 0 1
vn 0 0 1
vn 0 0 -1
vn 0 0 -1
vn 0 0 -1
vn 0 0 -1
f 385/385/385 387/387/387 386/386/386
f 387/387/387 388/388/388 386/386/386
f 389/389/389 391/391/391 390/390/390
f 391/391/391 392/392/392 390/390/390
f 393/393/393 395/395/395 394/394/394
f 395/395/395 396/396/396 394/394/394
f 397/397/397 399/399/399 398/398/398
f 399/399/399 400/400/400 398/398/398
f 401/401/401 403/403/403 402/402/402
f 403/403/403 404/404/404 402/402/402
f 405/405/405 407/407/407 406/406/406
f 407/407/407 408/408/408 406/406/406
o missing_slat_scar
usemtl SURF_Laminate_Kiosk
v 0.7799999864399434 0.46200000692904 0.12499999970197678
v 0.7799999864399434 0.46200000692904 0.01500000029802323
v 0.7799999864399434 0.4420000073760748 0.12499999970197678
v 0.7799999864399434 0.4420000073760748 0.01500000029802323
v -0.7799999563395976 0.46200000692904 0.01500000029802323
v -0.7799999563395976 0.46200000692904 0.12499999970197678
v -0.7799999563395976 0.4420000073760748 0.01500000029802323
v -0.7799999563395976 0.4420000073760748 0.12499999970197678
v -0.7799999563395976 0.46200000692904 0.01500000029802323
v 0.7799999864399434 0.46200000692904 0.01500000029802323
v -0.7799999563395976 0.46200000692904 0.12499999970197678
v 0.7799999864399434 0.46200000692904 0.12499999970197678
v -0.7799999563395976 0.4420000073760748 0.12499999970197678
v 0.7799999864399434 0.4420000073760748 0.12499999970197678
v -0.7799999563395976 0.4420000073760748 0.01500000029802323
v 0.7799999864399434 0.4420000073760748 0.01500000029802323
v -0.7799999563395976 0.46200000692904 0.12499999970197678
v 0.7799999864399434 0.46200000692904 0.12499999970197678
v -0.7799999563395976 0.4420000073760748 0.12499999970197678
v 0.7799999864399434 0.4420000073760748 0.12499999970197678
v 0.7799999864399434 0.46200000692904 0.01500000029802323
v -0.7799999563395976 0.46200000692904 0.01500000029802323
v 0.7799999864399434 0.4420000073760748 0.01500000029802323
v -0.7799999563395976 0.4420000073760748 0.01500000029802323
vt 0 1
vt 1 1
vt 0 0
vt 1 0
vt 0 1
vt 1 1
vt 0 0
vt 1 0
vt 0 1
vt 1 1
vt 0 0
vt 1 0
vt 0 1
vt 1 1
vt 0 0
vt 1 0
vt 0 1
vt 1 1
vt 0 0
vt 1 0
vt 0 1
vt 1 1
vt 0 0
vt 1 0
vn 1 0 0
vn 1 0 0
vn 1 0 0
vn 1 0 0
vn -1 0 0
vn -1 0 0
vn -1 0 0
vn -1 0 0
vn 0 1 0
vn 0 1 0
vn 0 1 0
vn 0 1 0
vn 0 -1 0
vn 0 -1 0
vn 0 -1 0
vn 0 -1 0
vn 0 0 1
vn 0 0 1
vn 0 0 1
vn 0 0 1
vn 0 0 -1
vn 0 0 -1
vn 0 0 -1
vn 0 0 -1
f 409/409/409 411/411/411 410/410/410
f 411/411/411 412/412/412 410/410/410
f 413/413/413 415/415/415 414/414/414
f 415/415/415 416/416/416 414/414/414
f 417/417/417 419/419/419 418/418/418
f 419/419/419 420/420/420 418/418/418
f 421/421/421 423/423/423 422/422/422
f 423/423/423 424/424/424 422/422/422
f 425/425/425 427/427/427 426/426/426
f 427/427/427 428/428/428 426/426/426
f 429/429/429 431/431/431 430/430/430
f 431/431/431 432/432/432 430/430/430
