mtllib SM_Bollard_01.mtl
o base_ring
usemtl SURF_Concrete_Kerb
v 0 0.07000000029802322 0.12999999523162842
v 0.09192388504743576 0.07000000029802322 0.09192388504743576
v 0.12999999523162842 0.07000000029802322 7.960203880059101e-18
v 0.09192388504743576 0.07000000029802322 -0.09192388504743576
v 1.5920407760118202e-17 0.07000000029802322 -0.12999999523162842
v -0.09192388504743576 0.07000000029802322 -0.09192388504743576
v -0.12999999523162842 0.07000000029802322 -2.3880613294538528e-17
v -0.09192388504743576 0.07000000029802322 0.09192388504743576
v -3.1840815520236404e-17 0.07000000029802322 0.12999999523162842
v 0 0 0.15000000596046448
v 0.1060660183429718 0 0.1060660183429718
v 0.15000000596046448 0 9.184851394388759e-18
v 0.1060660183429718 0 -0.1060660183429718
v 1.8369702788777518e-17 0 -0.15000000596046448
v -0.1060660183429718 0 -0.1060660183429718
v -0.15000000596046448 0 -2.7554552528805052e-17
v -0.1060660183429718 0 0.1060660183429718
v -3.6739405577555036e-17 0 0.15000000596046448
v 0 0.07000000029802322 0
v 0 0.07000000029802322 0
v 0 0.07000000029802322 0
v 0 0.07000000029802322 0
v 0 0.07000000029802322 0
v 0 0.07000000029802322 0
v 0 0.07000000029802322 0
v 0 0.07000000029802322 0
v 0 0.07000000029802322 0.12999999523162842
v 0.09192388504743576 0.07000000029802322 0.09192388504743576
v 0.12999999523162842 0.07000000029802322 7.960203880059101e-18
v 0.09192388504743576 0.07000000029802322 -0.09192388504743576
v 1.5920407760118202e-17 0.07000000029802322 -0.12999999523162842
v -0.09192388504743576 0.07000000029802322 -0.09192388504743576
v -0.12999999523162842 0.07000000029802322 -2.3880613294538528e-17
v -0.09192388504743576 0.07000000029802322 0.09192388504743576
v -3.1840815520236404e-17 0.07000000029802322 0.12999999523162842
v 0 0 0
v 0 0 0
v 0 0 0
v 0 0 0
v 0 0 0
v 0 0 0
v 0 0 0
v 0 0 0
v 0 0 0.15000000596046448
v 0.1060660183429718 0 0.1060660183429718
v 0.15000000596046448 0 9.184851394388759e-18
v 0.1060660183429718 0 -0.1060660183429718
v 1.8369702788777518e-17 0 -0.15000000596046448
v -0.1060660183429718 0 -0.1060660183429718
v -0.15000000596046448 0 -2.7554552528805052e-17
v -0.1060660183429718 0 0.1060660183429718
v -3.6739405577555036e-17 0 0.15000000596046448
vt 0 1
vt 0.125 1
vt 0.25 1
vt 0.375 1
vt 0.5 1
vt 0.625 1
vt 0.75 1
vt 0.875 1
vt 1 1
vt 0 0
vt 0.125 0
vt 0.25 0
vt 0.375 0
vt 0.5 0
vt 0.625 0
vt 0.75 0
vt 0.875 0
vt 1 0
vt 0.5 0.5
vt 0.5 0.5
vt 0.5 0.5
vt 0.5 0.5
vt 0.5 0.5
vt 0.5 0.5
vt 0.5 0.5
vt 0.5 0.5
vt 1 0.5
vt 0.8535534143447876 0.8535534143447876
vt 0.5 1
vt 0.1464466154575348 0.8535534143447876
vt 0 0.5
vt 0.1464466154575348 0.1464466154575348
vt 0.5 0
vt 0.8535534143447876 0.1464466154575348
vt 1 0.5
vt 0.5 0.5
vt 0.5 0.5
vt 0.5 0.5
vt 0.5 0.5
vt 0.5 0.5
vt 0.5 0.5
vt 0.5 0.5
vt 0.5 0.5
vt 1 0.5
vt 0.8535534143447876 0.1464466154575348
vt 0.5 0
vt 0.1464466154575348 0.1464466154575348
vt 0 0.5
vt 0.1464466154575348 0.8535534143447876
vt 0.5 1
vt 0.8535534143447876 0.8535534143447876
vt 1 0.5
vn 0 0.27472111608891064 0.9615239510146709
vn 0.6799001063662435 0.2747211144530782 0.6799001063662435
vn 0.9615239510146709 0.27472111608891064 5.887636024715076e-17
vn 0.6799001063662435 0.2747211144530782 -0.6799001063662435
vn 1.1775272049430152e-16 0.27472111608891064 -0.9615239510146709
vn -0.6799001063662435 0.2747211144530782 -0.6799001063662435
vn -0.9615239510146709 0.27472111608891064 -1.7662908074145228e-16
vn -0.6799001063662435 0.2747211144530782 0.6799001063662435
vn -2.3550544098860304e-16 0.27472111608891064 0.9615239510146709
vn 0 0.27472111608891064 0.9615239510146709
vn 0.6799001063662435 0.2747211144530782 0.6799001063662435
vn 0.9615239510146709 0.27472111608891064 5.887636024715076e-17
vn 0.6799001063662435 0.2747211144530782 -0.6799001063662435
vn 1.1775272049430152e-16 0.27472111608891064 -0.9615239510146709
vn -0.6799001063662435 0.2747211144530782 -0.6799001063662435
vn -0.9615239510146709 0.27472111608891064 -1.7662908074145228e-16
vn -0.6799001063662435 0.2747211144530782 0.6799001063662435
vn -2.3550544098860304e-16 0.27472111608891064 0.9615239510146709
vn 0 1 0
vn 0 1 0
vn 0 1 0
vn 0 1 0
vn 0 1 0
vn 0 1 0
vn 0 1 0
vn 0 1 0
vn 0 1 0
vn 0 1 0
vn 0 1 0
vn 0 1 0
vn 0 1 0
vn 0 1 0
vn 0 1 0
vn 0 1 0
vn 0 1 0
vn 0 -1 0
vn 0 -1 0
vn 0 -1 0
vn 0 -1 0
vn 0 -1 0
vn 0 -1 0
vn 0 -1 0
vn 0 -1 0
vn 0 -1 0
vn 0 -1 0
vn 0 -1 0
vn 0 -1 0
vn 0 -1 0
vn 0 -1 0
vn 0 -1 0
vn 0 -1 0
vn 0 -1 0
f 1/1/1 10/10/10 2/2/2
f 10/10/10 11/11/11 2/2/2
f 2/2/2 11/11/11 3/3/3
f 11/11/11 12/12/12 3/3/3
f 3/3/3 12/12/12 4/4/4
f 12/12/12 13/13/13 4/4/4
f 4/4/4 13/13/13 5/5/5
f 13/13/13 14/14/14 5/5/5
f 5/5/5 14/14/14 6/6/6
f 14/14/14 15/15/15 6/6/6
f 6/6/6 15/15/15 7/7/7
f 15/15/15 16/16/16 7/7/7
f 7/7/7 16/16/16 8/8/8
f 16/16/16 17/17/17 8/8/8
f 8/8/8 17/17/17 9/9/9
f 17/17/17 18/18/18 9/9/9
f 27/27/27 28/28/28 19/19/19
f 28/28/28 29/29/29 20/20/20
f 29/29/29 30/30/30 21/21/21
f 30/30/30 31/31/31 22/22/22
f 31/31/31 32/32/32 23/23/23
f 32/32/32 33/33/33 24/24/24
f 33/33/33 34/34/34 25/25/25
f 34/34/34 35/35/35 26/26/26
f 45/45/45 44/44/44 36/36/36
f 46/46/46 45/45/45 37/37/37
f 47/47/47 46/46/46 38/38/38
f 48/48/48 47/47/47 39/39/39
f 49/49/49 48/48/48 40/40/40
f 50/50/50 49/49/49 41/41/41
f 51/51/51 50/50/50 42/42/42
f 52/52/52 51/51/51 43/43/43
o shaft
usemtl SURF_Steel_Painted
v 0 1.0199999941885471 0.09000000357627869
v 0.06363961100578308 1.0199999941885471 0.06363961100578308
v 0.09000000357627869 1.0199999941885471 5.51091050576101e-18
v 0.06363961100578308 1.0199999941885471 -0.06363961100578308
v 1.102182101152202e-17 1.0199999941885471 -0.09000000357627869
v -0.06363961100578308 1.0199999941885471 -0.06363961100578308
v -0.09000000357627869 1.0199999941885471 -1.653273151728303e-17
v -0.06363961100578308 1.0199999941885471 0.06363961100578308
v -2.204364202304404e-17 1.0199999941885471 0.09000000357627869
v 0 0.0700000061094761 0.10000000149011612
v 0.0707106813788414 0.0700000061094761 0.0707106813788414
v 0.10000000149011612 0.0700000061094761 6.123233849335533e-18
v 0.0707106813788414 0.0700000061094761 -0.0707106813788414
v 1.2246467698671066e-17 0.0700000061094761 -0.10000000149011612
v -0.0707106813788414 0.0700000061094761 -0.0707106813788414
v -0.10000000149011612 0.0700000061094761 -1.8369702788777518e-17
v -0.0707106813788414 0.0700000061094761 0.0707106813788414
v -2.4492935397342132e-17 0.0700000061094761 0.10000000149011612
v 0 1.0199999941885471 0
v 0 1.0199999941885471 0
v 0 1.0199999941885471 0
v 0 1.0199999941885471 0
v 0 1.0199999941885471 0
v 0 1.0199999941885471 0
v 0 1.0199999941885471 0
v 0 1.0199999941885471 0
v 0 1.0199999941885471 0.09000000357627869
v 0.06363961100578308 1.0199999941885471 0.06363961100578308
v 0.09000000357627869 1.0199999941885471 5.51091050576101e-18
v 0.06363961100578308 1.0199999941885471 -0.06363961100578308
v 1.102182101152202e-17 1.0199999941885471 -0.09000000357627869
v -0.06363961100578308 1.0199999941885471 -0.06363961100578308
v -0.09000000357627869 1.0199999941885471 -1.653273151728303e-17
v -0.06363961100578308 1.0199999941885471 0.06363961100578308
v -2.204364202304404e-17 1.0199999941885471 0.09000000357627869
v 0 0.0700000061094761 0
v 0 0.0700000061094761 0
v 0 0.0700000061094761 0
v 0 0.0700000061094761 0
v 0 0.0700000061094761 0
v 0 0.0700000061094761 0
v 0 0.0700000061094761 0
v 0 0.0700000061094761 0
v 0 0.0700000061094761 0.10000000149011612
v 0.0707106813788414 0.0700000061094761 0.0707106813788414
v 0.10000000149011612 0.0700000061094761 6.123233849335533e-18
v 0.0707106813788414 0.0700000061094761 -0.0707106813788414
v 1.2246467698671066e-17 0.0700000061094761 -0.10000000149011612
v -0.0707106813788414 0.0700000061094761 -0.0707106813788414
v -0.10000000149011612 0.0700000061094761 -1.8369702788777518e-17
v -0.0707106813788414 0.0700000061094761 0.0707106813788414
v -2.4492935397342132e-17 0.0700000061094761 0.10000000149011612
vt 0 1
vt 0.125 1
vt 0.25 1
vt 0.375 1
vt 0.5 1
vt 0.625 1
vt 0.75 1
vt 0.875 1
vt 1 1
vt 0 0
vt 0.125 0
vt 0.25 0
vt 0.375 0
vt 0.5 0
vt 0.625 0
vt 0.75 0
vt 0.875 0
vt 1 0
vt 0.5 0.5
vt 0.5 0.5
vt 0.5 0.5
vt 0.5 0.5
vt 0.5 0.5
vt 0.5 0.5
vt 0.5 0.5
vt 0.5 0.5
vt 1 0.5
vt 0.8535534143447876 0.8535534143447876
vt 0.5 1
vt 0.1464466154575348 0.8535534143447876
vt 0 0.5
vt 0.1464466154575348 0.1464466154575348
vt 0.5 0
vt 0.8535534143447876 0.1464466154575348
vt 1 0.5
vt 0.5 0.5
vt 0.5 0.5
vt 0.5 0.5
vt 0.5 0.5
vt 0.5 0.5
vt 0.5 0.5
vt 0.5 0.5
vt 0.5 0.5
vt 1 0.5
vt 0.8535534143447876 0.1464466154575348
vt 0.5 0
vt 0.1464466154575348 0.1464466154575348
vt 0 0.5
vt 0.1464466154575348 0.8535534143447876
vt 0.5 1
vt 0.8535534143447876 0.8535534143447876
vt 1 0.5
vn 0 0.010525732044997061 0.9999446029480417
vn 0.7070676095534635 0.010525732311896085 0.7070676095534635
vn 0.9999446029480417 0.010525732044997061 6.122894638981538e-17
vn 0.7070676095534635 0.010525732311896085 -0.7070676095534635
vn 1.2245789277963076e-16 0.010525732044997061 -0.9999446029480417
vn -0.7070676095534635 0.010525732311896085 -0.7070676095534635
vn -0.9999446029480417 0.010525732044997061 -1.836868325520014e-16
vn -0.7070676095534635 0.010525732311896085 0.7070676095534635
vn -2.449157855592615e-16 0.010525732044997061 0.9999446029480417
vn 0 0.010525732044997061 0.9999446029480417
vn 0.7070676095534635 0.010525732311896085 0.7070676095534635
vn 0.9999446029480417 0.010525732044997061 6.122894638981538e-17
vn 0.7070676095534635 0.010525732311896085 -0.7070676095534635
vn 1.2245789277963076e-16 0.010525732044997061 -0.9999446029480417
vn -0.7070676095534635 0.010525732311896085 -0.7070676095534635
vn -0.9999446029480417 0.010525732044997061 -1.836868325520014e-16
vn -0.7070676095534635 0.010525732311896085 0.7070676095534635
vn -2.449157855592615e-16 0.010525732044997061 0.9999446029480417
vn 0 1 0
vn 0 1 0
vn 0 1 0
vn 0 1 0
vn 0 1 0
vn 0 1 0
vn 0 1 0
vn 0 1 0
vn 0 1 0
vn 0 1 0
vn 0 1 0
vn 0 1 0
vn 0 1 0
vn 0 1 0
vn 0 1 0
vn 0 1 0
vn 0 1 0
vn 0 -1 0
vn 0 -1 0
vn 0 -1 0
vn 0 -1 0
vn 0 -1 0
vn 0 -1 0
vn 0 -1 0
vn 0 -1 0
vn 0 -1 0
vn 0 -1 0
vn 0 -1 0
vn 0 -1 0
vn 0 -1 0
vn 0 -1 0
vn 0 -1 0
vn 0 -1 0
vn 0 -1 0
f 53/53/53 62/62/62 54/54/54
f 62/62/62 63/63/63 54/54/54
f 54/54/54 63/63/63 55/55/55
f 63/63/63 64/64/64 55/55/55
f 55/55/55 64/64/64 56/56/56
f 64/64/64 65/65/65 56/56/56
f 56/56/56 65/65/65 57/57/57
f 65/65/65 66/66/66 57/57/57
f 57/57/57 66/66/66 58/58/58
f 66/66/66 67/67/67 58/58/58
f 58/58/58 67/67/67 59/59/59
f 67/67/67 68/68/68 59/59/59
f 59/59/59 68/68/68 60/60/60
f 68/68/68 69/69/69 60/60/60
f 60/60/60 69/69/69 61/61/61
f 69/69/69 70/70/70 61/61/61
f 79/79/79 80/80/80 71/71/71
f 80/80/80 81/81/81 72/72/72
f 81/81/81 82/82/82 73/73/73
f 82/82/82 83/83/83 74/74/74
f 83/83/83 84/84/84 75/75/75
f 84/84/84 85/85/85 76/76/76
f 85/85/85 86/86/86 77/77/77
f 86/86/86 87/87/87 78/78/78
f 97/97/97 96/96/96 88/88/88
f 98/98/98 97/97/97 89/89/89
f 99/99/99 98/98/98 90/90/90
f 100/100/100 99/99/99 91/91/91
f 101/101/101 100/100/100 92/92/92
f 102/102/102 101/101/101 93/93/93
f 103/103/103 102/102/102 94/94/94
f 104/104/104 103/103/103 95/95/95
o cap_dome
usemtl SURF_Steel_Painted
v 0 1.1200000008940698 0.04500000178813934
v 0.03181980550289154 1.1200000008940698 0.03181980550289154
v 0.04500000178813934 1.1200000008940698 2.755455252880505e-18
v 0.03181980550289154 1.1200000008940698 -0.03181980550289154
v 5.51091050576101e-18 1.1200000008940698 -0.04500000178813934
v -0.03181980550289154 1.1200000008940698 -0.03181980550289154
v -0.04500000178813934 1.1200000008940698 -8.266365758641515e-18
v -0.03181980550289154 1.1200000008940698 0.03181980550289154
v -1.102182101152202e-17 1.1200000008940698 0.04500000178813934
v 0 1.0199999994039537 0.09000000357627869
v 0.06363961100578308 1.0199999994039537 0.06363961100578308
v 0.09000000357627869 1.0199999994039537 5.51091050576101e-18
v 0.06363961100578308 1.0199999994039537 -0.06363961100578308
v 1.102182101152202e-17 1.0199999994039537 -0.09000000357627869
v -0.06363961100578308 1.0199999994039537 -0.06363961100578308
v -0.09000000357627869 1.0199999994039537 -1.653273151728303e-17
v -0.06363961100578308 1.0199999994039537 0.06363961100578308
v -2.204364202304404e-17 1.0199999994039537 0.09000000357627869
v 0 1.1200000008940698 0
v 0 1.1200000008940698 0
v 0 1.1200000008940698 0
v 0 1.1200000008940698 0
v 0 1.1200000008940698 0
v 0 1.1200000008940698 0
v 0 1.1200000008940698 0
v 0 1.1200000008940698 0
v 0 1.1200000008940698 0.04500000178813934
v 0.03181980550289154 1.1200000008940698 0.03181980550289154
v 0.04500000178813934 1.1200000008940698 2.755455252880505e-18
v 0.03181980550289154 1.1200000008940698 -0.03181980550289154
v 5.51091050576101e-18 1.1200000008940698 -0.04500000178813934
v -0.03181980550289154 1.1200000008940698 -0.03181980550289154
v -0.04500000178813934 1.1200000008940698 -8.266365758641515e-18
v -0.03181980550289154 1.1200000008940698 0.03181980550289154
v -1.102182101152202e-17 1.1200000008940698 0.04500000178813934
v 0 1.0199999994039537 0
v 0 1.0199999994039537 0
v 0 1.0199999994039537 0
v 0 1.0199999994039537 0
v 0 1.0199999994039537 0
v 0 1.0199999994039537 0
v 0 1.0199999994039537 0
v 0 1.0199999994039537 0
v 0 1.0199999994039537 0.09000000357627869
v 0.06363961100578308 1.0199999994039537 0.06363961100578308
v 0.09000000357627869 1.0199999994039537 5.51091050576101e-18
v 0.06363961100578308 1.0199999994039537 -0.06363961100578308
v 1.102182101152202e-17 1.0199999994039537 -0.09000000357627869
v -0.06363961100578308 1.0199999994039537 -0.06363961100578308
v -0.09000000357627869 1.0199999994039537 -1.653273151728303e-17
v -0.06363961100578308 1.0199999994039537 0.06363961100578308
v -2.204364202304404e-17 1.0199999994039537 0.09000000357627869
vt 0 1
vt 0.125 1
vt 0.25 1
vt 0.375 1
vt 0.5 1
vt 0.625 1
vt 0.75 1
vt 0.875 1
vt 1 1
vt 0 0
vt 0.125 0
vt 0.25 0
vt 0.375 0
vt 0.5 0
vt 0.625 0
vt 0.75 0
vt 0.875 0
vt 1 0
vt 0.5 0.5
vt 0.5 0.5
vt 0.5 0.5
vt 0.5 0.5
vt 0.5 0.5
vt 0.5 0.5
vt 0.5 0.5
vt 0.5 0.5
vt 1 0.5
vt 0.8535534143447876 0.8535534143447876
vt 0.5 1
vt 0.1464466154575348 0.8535534143447876
vt 0 0.5
vt 0.1464466154575348 0.1464466154575348
vt 0.5 0
vt 0.8535534143447876 0.1464466154575348
vt 1 0.5
vt 0.5 0.5
vt 0.5 0.5
vt 0.5 0.5
vt 0.5 0.5
vt 0.5 0.5
vt 0.5 0.5
vt 0.5 0.5
vt 0.5 0.5
vt 1 0.5
vt 0.8535534143447876 0.1464466154575348
vt 0.5 0
vt 0.1464466154575348 0.1464466154575348
vt 0 0.5
vt 0.1464466154575348 0.8535534143447876
vt 0.5 1
vt 0.8535534143447876 0.8535534143447876
vt 1 0.5
vn 0 0.4103646872422523 0.9119215007140519
vn 0.6448258767917958 0.4103646880999674 0.6448258767917958
vn 0.9119215007140519 0.4103646872422523 5.583908530345713e-17
vn 0.6448258767917958 0.4103646880999674 -0.6448258767917958
vn 1.1167817060691426e-16 0.4103646872422523 -0.9119215007140519
vn -0.6448258767917958 0.4103646880999674 -0.6448258767917958
vn -0.9119215007140519 0.4103646872422523 -1.675172691452612e-16
vn -0.6448258767917958 0.4103646880999674 0.6448258767917958
vn -2.233563412138285e-16 0.4103646872422523 0.9119215007140519
vn 0 0.4103646872422523 0.9119215007140519
vn 0.6448258767917958 0.4103646880999674 0.6448258767917958
vn 0.9119215007140519 0.4103646872422523 5.583908530345713e-17
vn 0.6448258767917958 0.4103646880999674 -0.6448258767917958
vn 1.1167817060691426e-16 0.4103646872422523 -0.9119215007140519
vn -0.6448258767917958 0.4103646880999674 -0.6448258767917958
vn -0.9119215007140519 0.4103646872422523 -1.675172691452612e-16
vn -0.6448258767917958 0.4103646880999674 0.6448258767917958
vn -2.233563412138285e-16 0.4103646872422523 0.9119215007140519
vn 0 1 0
vn 0 1 0
vn 0 1 0
vn 0 1 0
vn 0 1 0
vn 0 1 0
vn 0 1 0
vn 0 1 0
vn 0 1 0
vn 0 1 0
vn 0 1 0
vn 0 1 0
vn 0 1 0
vn 0 1 0
vn 0 1 0
vn 0 1 0
vn 0 1 0
vn 0 -1 0
vn 0 -1 0
vn 0 -1 0
vn 0 -1 0
vn 0 -1 0
vn 0 -1 0
vn 0 -1 0
vn 0 -1 0
vn 0 -1 0
vn 0 -1 0
vn 0 -1 0
vn 0 -1 0
vn 0 -1 0
vn 0 -1 0
vn 0 -1 0
vn 0 -1 0
vn 0 -1 0
f 105/105/105 114/114/114 106/106/106
f 114/114/114 115/115/115 106/106/106
f 106/106/106 115/115/115 107/107/107
f 115/115/115 116/116/116 107/107/107
f 107/107/107 116/116/116 108/108/108
f 116/116/116 117/117/117 108/108/108
f 108/108/108 117/117/117 109/109/109
f 117/117/117 118/118/118 109/109/109
f 109/109/109 118/118/118 110/110/110
f 118/118/118 119/119/119 110/110/110
f 110/110/110 119/119/119 111/111/111
f 119/119/119 120/120/120 111/111/111
f 111/111/111 120/120/120 112/112/112
f 120/120/120 121/121/121 112/112/112
f 112/112/112 121/121/121 113/113/113
f 121/121/121 122/122/122 113/113/113
f 131/131/131 132/132/132 123/123/123
f 132/132/132 133/133/133 124/124/124
f 133/133/133 134/134/134 125/125/125
f 134/134/134 135/135/135 126/126/126
f 135/135/135 136/136/136 127/127/127
f 136/136/136 137/137/137 128/128/128
f 137/137/137 138/138/138 129/129/129
f 138/138/138 139/139/139 130/130/130
f 149/149/149 148/148/148 140/140/140
f 150/150/150 149/149/149 141/141/141
f 151/151/151 150/150/150 142/142/142
f 152/152/152 151/151/151 143/143/143
f 153/153/153 152/152/152 144/144/144
f 154/154/154 153/153/153 145/145/145
f 155/155/155 154/154/154 146/146/146
f 156/156/156 155/155/155 147/147/147
o cap_button
usemtl SURF_Metal_Galvanised
v 0 1.1449999998137355 0.04500000178813934
v 0.03181980550289154 1.1449999998137355 0.03181980550289154
v 0.04500000178813934 1.1449999998137355 2.755455252880505e-18
v 0.03181980550289154 1.1449999998137355 -0.03181980550289154
v 5.51091050576101e-18 1.1449999998137355 -0.04500000178813934
v -0.03181980550289154 1.1449999998137355 -0.03181980550289154
v -0.04500000178813934 1.1449999998137355 -8.266365758641515e-18
v -0.03181980550289154 1.1449999998137355 0.03181980550289154
v -1.102182101152202e-17 1.1449999998137355 0.04500000178813934
v 0 1.1150000004842877 0.04500000178813934
v 0.03181980550289154 1.1150000004842877 0.03181980550289154
v 0.04500000178813934 1.1150000004842877 2.755455252880505e-18
v 0.03181980550289154 1.1150000004842877 -0.03181980550289154
v 5.51091050576101e-18 1.1150000004842877 -0.04500000178813934
v -0.03181980550289154 1.1150000004842877 -0.03181980550289154
v -0.04500000178813934 1.1150000004842877 -8.266365758641515e-18
v -0.03181980550289154 1.1150000004842877 0.03181980550289154
v -1.102182101152202e-17 1.1150000004842877 0.04500000178813934
v 0 1.1449999998137355 0
v 0 1.1449999998137355 0
v 0 1.1449999998137355 0
v 0 1.1449999998137355 0
v 0 1.1449999998137355 0
v 0 1.1449999998137355 0
v 0 1.1449999998137355 0
v 0 1.1449999998137355 0
v 0 1.1449999998137355 0.04500000178813934
v 0.03181980550289154 1.1449999998137355 0.03181980550289154
v 0.04500000178813934 1.1449999998137355 2.755455252880505e-18
v 0.03181980550289154 1.1449999998137355 -0.03181980550289154
v 5.51091050576101e-18 1.1449999998137355 -0.04500000178813934
v -0.03181980550289154 1.1449999998137355 -0.03181980550289154
v -0.04500000178813934 1.1449999998137355 -8.266365758641515e-18
v -0.03181980550289154 1.1449999998137355 0.03181980550289154
v -1.102182101152202e-17 1.1449999998137355 0.04500000178813934
v 0 1.1150000004842877 0
v 0 1.1150000004842877 0
v 0 1.1150000004842877 0
v 0 1.1150000004842877 0
v 0 1.1150000004842877 0
v 0 1.1150000004842877 0
v 0 1.1150000004842877 0
v 0 1.1150000004842877 0
v 0 1.1150000004842877 0.04500000178813934
v 0.03181980550289154 1.1150000004842877 0.03181980550289154
v 0.04500000178813934 1.1150000004842877 2.755455252880505e-18
v 0.03181980550289154 1.1150000004842877 -0.03181980550289154
v 5.51091050576101e-18 1.1150000004842877 -0.04500000178813934
v -0.03181980550289154 1.1150000004842877 -0.03181980550289154
v -0.04500000178813934 1.1150000004842877 -8.266365758641515e-18
v -0.03181980550289154 1.1150000004842877 0.03181980550289154
v -1.102182101152202e-17 1.1150000004842877 0.04500000178813934
vt 0 1
vt 0.125 1
vt 0.25 1
vt 0.375 1
vt 0.5 1
vt 0.625 1
vt 0.75 1
vt 0.875 1
vt 1 1
vt 0 0
vt 0.125 0
vt 0.25 0
vt 0.375 0
vt 0.5 0
vt 0.625 0
vt 0.75 0
vt 0.875 0
vt 1 0
vt 0.5 0.5
vt 0.5 0.5
vt 0.5 0.5
vt 0.5 0.5
vt 0.5 0.5
vt 0.5 0.5
vt 0.5 0.5
vt 0.5 0.5
vt 1 0.5
vt 0.8535534143447876 0.8535534143447876
vt 0.5 1
vt 0.1464466154575348 0.8535534143447876
vt 0 0.5
vt 0.1464466154575348 0.1464466154575348
vt 0.5 0
vt 0.8535534143447876 0.1464466154575348
vt 1 0.5
vt 0.5 0.5
vt 0.5 0.5
vt 0.5 0.5
vt 0.5 0.5
vt 0.5 0.5
vt 0.5 0.5
vt 0.5 0.5
vt 0.5 0.5
vt 1 0.5
vt 0.8535534143447876 0.1464466154575348
vt 0.5 0
vt 0.1464466154575348 0.1464466154575348
vt 0 0.5
vt 0.1464466154575348 0.8535534143447876
vt 0.5 1
vt 0.8535534143447876 0.8535534143447876
vt 1 0.5
vn 0 0 1
vn 0.7071067811865476 0 0.7071067811865476
vn 1 0 6.123234262925839e-17
vn 0.7071067811865476 0 -0.7071067811865476
vn 1.2246468525851679e-16 0 -1
vn -0.7071067811865476 0 -0.7071067811865476
vn -1 0 -1.8369701465288538e-16
vn -0.7071067811865476 0 0.7071067811865476
vn -2.4492937051703357e-16 0 1
vn 0 0 1
vn 0.7071067811865476 0 0.7071067811865476
vn 1 0 6.123234262925839e-17
vn 0.7071067811865476 0 -0.7071067811865476
vn 1.2246468525851679e-16 0 -1
vn -0.7071067811865476 0 -0.7071067811865476
vn -1 0 -1.8369701465288538e-16
vn -0.7071067811865476 0 0.7071067811865476
vn -2.4492937051703357e-16 0 1
vn 0 1 0
vn 0 1 0
vn 0 1 0
vn 0 1 0
vn 0 1 0
vn 0 1 0
vn 0 1 0
vn 0 1 0
vn 0 1 0
vn 0 1 0
vn 0 1 0
vn 0 1 0
vn 0 1 0
vn 0 1 0
vn 0 1 0
vn 0 1 0
vn 0 1 0
vn 0 -1 0
vn 0 -1 0
vn 0 -1 0
vn 0 -1 0
vn 0 -1 0
vn 0 -1 0
vn 0 -1 0
vn 0 -1 0
vn 0 -1 0
vn 0 -1 0
vn 0 -1 0
vn 0 -1 0
vn 0 -1 0
vn 0 -1 0
vn 0 -1 0
vn 0 -1 0
vn 0 -1 0
f 157/157/157 166/166/166 158/158/158
f 166/166/166 167/167/167 158/158/158
f 158/158/158 167/167/167 159/159/159
f 167/167/167 168/168/168 159/159/159
f 159/159/159 168/168/168 160/160/160
f 168/168/168 169/169/169 160/160/160
f 160/160/160 169/169/169 161/161/161
f 169/169/169 170/170/170 161/161/161
f 161/161/161 170/170/170 162/162/162
f 170/170/170 171/171/171 162/162/162
f 162/162/162 171/171/171 163/163/163
f 171/171/171 172/172/172 163/163/163
f 163/163/163 172/172/172 164/164/164
f 172/172/172 173/173/173 164/164/164
f 164/164/164 173/173/173 165/165/165
f 173/173/173 174/174/174 165/165/165
f 183/183/183 184/184/184 175/175/175
f 184/184/184 185/185/185 176/176/176
f 185/185/185 186/186/186 177/177/177
f 186/186/186 187/187/187 178/178/178
f 187/187/187 188/188/188 179/179/179
f 188/188/188 189/189/189 180/180/180
f 189/189/189 190/190/190 181/181/181
f 190/190/190 191/191/191 182/182/182
f 201/201/201 200/200/200 192/192/192
f 202/202/202 201/201/201 193/193/193
f 203/203/203 202/202/202 194/194/194
f 204/204/204 203/203/203 195/195/195
f 205/205/205 204/204/204 196/196/196
f 206/206/206 205/205/205 197/197/197
f 207/207/207 206/206/206 198/198/198
f 208/208/208 207/207/207 199/199/199
o band_reflective_hi
usemtl SURF_Emissive_Display
v 0 0.9650000002980232 0.10499999672174454
v 0.07424621284008026 0.9650000002980232 0.07424621284008026
v 0.10499999672174454 0.9650000002980232 6.4293957279179475e-18
v 0.07424621284008026 0.9650000002980232 -0.07424621284008026
v 1.2858791455835895e-17 0.9650000002980232 -0.10499999672174454
v -0.07424621284008026 0.9650000002980232 -0.07424621284008026
v -0.10499999672174454 0.9650000002980232 -1.928818759734415e-17
v -0.07424621284008026 0.9650000002980232 0.07424621284008026
v -2.571758291167179e-17 0.9650000002980232 0.10499999672174454
v 0 0.895 0.10499999672174454
v 0.07424621284008026 0.895 0.07424621284008026
v 0.10499999672174454 0.895 6.4293957279179475e-18
v 0.07424621284008026 0.895 -0.07424621284008026
v 1.2858791455835895e-17 0.895 -0.10499999672174454
v -0.07424621284008026 0.895 -0.07424621284008026
v -0.10499999672174454 0.895 -1.928818759734415e-17
v -0.07424621284008026 0.895 0.07424621284008026
v -2.571758291167179e-17 0.895 0.10499999672174454
v 0 0.9650000002980232 0
v 0 0.9650000002980232 0
v 0 0.9650000002980232 0
v 0 0.9650000002980232 0
v 0 0.9650000002980232 0
v 0 0.9650000002980232 0
v 0 0.9650000002980232 0
v 0 0.9650000002980232 0
v 0 0.9650000002980232 0.10499999672174454
v 0.07424621284008026 0.9650000002980232 0.07424621284008026
v 0.10499999672174454 0.9650000002980232 6.4293957279179475e-18
v 0.07424621284008026 0.9650000002980232 -0.07424621284008026
v 1.2858791455835895e-17 0.9650000002980232 -0.10499999672174454
v -0.07424621284008026 0.9650000002980232 -0.07424621284008026
v -0.10499999672174454 0.9650000002980232 -1.928818759734415e-17
v -0.07424621284008026 0.9650000002980232 0.07424621284008026
v -2.571758291167179e-17 0.9650000002980232 0.10499999672174454
v 0 0.895 0
v 0 0.895 0
v 0 0.895 0
v 0 0.895 0
v 0 0.895 0
v 0 0.895 0
v 0 0.895 0
v 0 0.895 0
v 0 0.895 0.10499999672174454
v 0.07424621284008026 0.895 0.07424621284008026
v 0.10499999672174454 0.895 6.4293957279179475e-18
v 0.07424621284008026 0.895 -0.07424621284008026
v 1.2858791455835895e-17 0.895 -0.10499999672174454
v -0.07424621284008026 0.895 -0.07424621284008026
v -0.10499999672174454 0.895 -1.928818759734415e-17
v -0.07424621284008026 0.895 0.07424621284008026
v -2.571758291167179e-17 0.895 0.10499999672174454
vt 0 1
vt 0.125 1
vt 0.25 1
vt 0.375 1
vt 0.5 1
vt 0.625 1
vt 0.75 1
vt 0.875 1
vt 1 1
vt 0 0
vt 0.125 0
vt 0.25 0
vt 0.375 0
vt 0.5 0
vt 0.625 0
vt 0.75 0
vt 0.875 0
vt 1 0
vt 0.5 0.5
vt 0.5 0.5
vt 0.5 0.5
vt 0.5 0.5
vt 0.5 0.5
vt 0.5 0.5
vt 0.5 0.5
vt 0.5 0.5
vt 1 0.5
vt 0.8535534143447876 0.8535534143447876
vt 0.5 1
vt 0.1464466154575348 0.8535534143447876
vt 0 0.5
vt 0.1464466154575348 0.1464466154575348
vt 0.5 0
vt 0.8535534143447876 0.1464466154575348
vt 1 0.5
vt 0.5 0.5
vt 0.5 0.5
vt 0.5 0.5
vt 0.5 0.5
vt 0.5 0.5
vt 0.5 0.5
vt 0.5 0.5
vt 0.5 0.5
vt 1 0.5
vt 0.8535534143447876 0.1464466154575348
vt 0.5 0
vt 0.1464466154575348 0.1464466154575348
vt 0 0.5
vt 0.1464466154575348 0.8535534143447876
vt 0.5 1
vt 0.8535534143447876 0.8535534143447876
vt 1 0.5
vn 0 0 1
vn 0.7071067811865476 0 0.7071067811865476
vn 1 0 6.123234262925839e-17
vn 0.7071067811865476 0 -0.7071067811865476
vn 1.2246468525851679e-16 0 -1
vn -0.7071067811865476 0 -0.7071067811865476
vn -1 0 -1.8369701465288538e-16
vn -0.7071067811865476 0 0.7071067811865476
vn -2.4492937051703357e-16 0 1
vn 0 0 1
vn 0.7071067811865476 0 0.7071067811865476
vn 1 0 6.123234262925839e-17
vn 0.7071067811865476 0 -0.7071067811865476
vn 1.2246468525851679e-16 0 -1
vn -0.7071067811865476 0 -0.7071067811865476
vn -1 0 -1.8369701465288538e-16
vn -0.7071067811865476 0 0.7071067811865476
vn -2.4492937051703357e-16 0 1
vn 0 1 0
vn 0 1 0
vn 0 1 0
vn 0 1 0
vn 0 1 0
vn 0 1 0
vn 0 1 0
vn 0 1 0
vn 0 1 0
vn 0 1 0
vn 0 1 0
vn 0 1 0
vn 0 1 0
vn 0 1 0
vn 0 1 0
vn 0 1 0
vn 0 1 0
vn 0 -1 0
vn 0 -1 0
vn 0 -1 0
vn 0 -1 0
vn 0 -1 0
vn 0 -1 0
vn 0 -1 0
vn 0 -1 0
vn 0 -1 0
vn 0 -1 0
vn 0 -1 0
vn 0 -1 0
vn 0 -1 0
vn 0 -1 0
vn 0 -1 0
vn 0 -1 0
vn 0 -1 0
f 209/209/209 218/218/218 210/210/210
f 218/218/218 219/219/219 210/210/210
f 210/210/210 219/219/219 211/211/211
f 219/219/219 220/220/220 211/211/211
f 211/211/211 220/220/220 212/212/212
f 220/220/220 221/221/221 212/212/212
f 212/212/212 221/221/221 213/213/213
f 221/221/221 222/222/222 213/213/213
f 213/213/213 222/222/222 214/214/214
f 222/222/222 223/223/223 214/214/214
f 214/214/214 223/223/223 215/215/215
f 223/223/223 224/224/224 215/215/215
f 215/215/215 224/224/224 216/216/216
f 224/224/224 225/225/225 216/216/216
f 216/216/216 225/225/225 217/217/217
f 225/225/225 226/226/226 217/217/217
f 235/235/235 236/236/236 227/227/227
f 236/236/236 237/237/237 228/228/228
f 237/237/237 238/238/238 229/229/229
f 238/238/238 239/239/239 230/230/230
f 239/239/239 240/240/240 231/231/231
f 240/240/240 241/241/241 232/232/232
f 241/241/241 242/242/242 233/233/233
f 242/242/242 243/243/243 234/234/234
f 253/253/253 252/252/252 244/244/244
f 254/254/254 253/253/253 245/245/245
f 255/255/255 254/254/254 246/246/246
f 256/256/256 255/255/255 247/247/247
f 257/257/257 256/256/256 248/248/248
f 258/258/258 257/257/257 249/249/249
f 259/259/259 258/258/258 250/250/250
f 260/260/260 259/259/259 251/251/251
o band_reflective_lo
usemtl SURF_Paper_Newsprint
v 0 0.6250000005215406 0.10599999874830246
v 0.07495331764221191 0.6250000005215406 0.07495331764221191
v 0.10599999874830246 0.6250000005215406 6.490628186352492e-18
v 0.07495331764221191 0.6250000005215406 -0.07495331764221191
v 1.2981256372704983e-17 0.6250000005215406 -0.10599999874830246
v -0.07495331764221191 0.6250000005215406 -0.07495331764221191
v -0.10599999874830246 0.6250000005215406 -1.9471884559057475e-17
v -0.07495331764221191 0.6250000005215406 0.07495331764221191
v -2.5962512745409966e-17 0.6250000005215406 0.10599999874830246
v 0 0.5749999997764825 0.10599999874830246
v 0.07495331764221191 0.5749999997764825 0.07495331764221191
v 0.10599999874830246 0.5749999997764825 6.490628186352492e-18
v 0.07495331764221191 0.5749999997764825 -0.07495331764221191
v 1.2981256372704983e-17 0.5749999997764825 -0.10599999874830246
v -0.07495331764221191 0.5749999997764825 -0.07495331764221191
v -0.10599999874830246 0.5749999997764825 -1.9471884559057475e-17
v -0.07495331764221191 0.5749999997764825 0.07495331764221191
v -2.5962512745409966e-17 0.5749999997764825 0.10599999874830246
v 0 0.6250000005215406 0
v 0 0.6250000005215406 0
v 0 0.6250000005215406 0
v 0 0.6250000005215406 0
v 0 0.6250000005215406 0
v 0 0.6250000005215406 0
v 0 0.6250000005215406 0
v 0 0.6250000005215406 0
v 0 0.6250000005215406 0.10599999874830246
v 0.07495331764221191 0.6250000005215406 0.07495331764221191
v 0.10599999874830246 0.6250000005215406 6.490628186352492e-18
v 0.07495331764221191 0.6250000005215406 -0.07495331764221191
v 1.2981256372704983e-17 0.6250000005215406 -0.10599999874830246
v -0.07495331764221191 0.6250000005215406 -0.07495331764221191
v -0.10599999874830246 0.6250000005215406 -1.9471884559057475e-17
v -0.07495331764221191 0.6250000005215406 0.07495331764221191
v -2.5962512745409966e-17 0.6250000005215406 0.10599999874830246
v 0 0.5749999997764825 0
v 0 0.5749999997764825 0
v 0 0.5749999997764825 0
v 0 0.5749999997764825 0
v 0 0.5749999997764825 0
v 0 0.5749999997764825 0
v 0 0.5749999997764825 0
v 0 0.5749999997764825 0
v 0 0.5749999997764825 0.10599999874830246
v 0.07495331764221191 0.5749999997764825 0.07495331764221191
v 0.10599999874830246 0.5749999997764825 6.490628186352492e-18
v 0.07495331764221191 0.5749999997764825 -0.07495331764221191
v 1.2981256372704983e-17 0.5749999997764825 -0.10599999874830246
v -0.07495331764221191 0.5749999997764825 -0.07495331764221191
v -0.10599999874830246 0.5749999997764825 -1.9471884559057475e-17
v -0.07495331764221191 0.5749999997764825 0.07495331764221191
v -2.5962512745409966e-17 0.5749999997764825 0.10599999874830246
vt 0 1
vt 0.125 1
vt 0.25 1
vt 0.375 1
vt 0.5 1
vt 0.625 1
vt 0.75 1
vt 0.875 1
vt 1 1
vt 0 0
vt 0.125 0
vt 0.25 0
vt 0.375 0
vt 0.5 0
vt 0.625 0
vt 0.75 0
vt 0.875 0
vt 1 0
vt 0.5 0.5
vt 0.5 0.5
vt 0.5 0.5
vt 0.5 0.5
vt 0.5 0.5
vt 0.5 0.5
vt 0.5 0.5
vt 0.5 0.5
vt 1 0.5
vt 0.8535534143447876 0.8535534143447876
vt 0.5 1
vt 0.1464466154575348 0.8535534143447876
vt 0 0.5
vt 0.1464466154575348 0.1464466154575348
vt 0.5 0
vt 0.8535534143447876 0.1464466154575348
vt 1 0.5
vt 0.5 0.5
vt 0.5 0.5
vt 0.5 0.5
vt 0.5 0.5
vt 0.5 0.5
vt 0.5 0.5
vt 0.5 0.5
vt 0.5 0.5
vt 1 0.5
vt 0.8535534143447876 0.1464466154575348
vt 0.5 0
vt 0.1464466154575348 0.1464466154575348
vt 0 0.5
vt 0.1464466154575348 0.8535534143447876
vt 0.5 1
vt 0.8535534143447876 0.8535534143447876
vt 1 0.5
vn 0 0 1
vn 0.7071067811865476 0 0.7071067811865476
vn 1 0 6.123234262925839e-17
vn 0.7071067811865476 0 -0.7071067811865476
vn 1.2246468525851679e-16 0 -1
vn -0.7071067811865476 0 -0.7071067811865476
vn -1 0 -1.8369701465288538e-16
vn -0.7071067811865476 0 0.7071067811865476
vn -2.4492937051703357e-16 0 1
vn 0 0 1
vn 0.7071067811865476 0 0.7071067811865476
vn 1 0 6.123234262925839e-17
vn 0.7071067811865476 0 -0.7071067811865476
vn 1.2246468525851679e-16 0 -1
vn -0.7071067811865476 0 -0.7071067811865476
vn -1 0 -1.8369701465288538e-16
vn -0.7071067811865476 0 0.7071067811865476
vn -2.4492937051703357e-16 0 1
vn 0 1 0
vn 0 1 0
vn 0 1 0
vn 0 1 0
vn 0 1 0
vn 0 1 0
vn 0 1 0
vn 0 1 0
vn 0 1 0
vn 0 1 0
vn 0 1 0
vn 0 1 0
vn 0 1 0
vn 0 1 0
vn 0 1 0
vn 0 1 0
vn 0 1 0
vn 0 -1 0
vn 0 -1 0
vn 0 -1 0
vn 0 -1 0
vn 0 -1 0
vn 0 -1 0
vn 0 -1 0
vn 0 -1 0
vn 0 -1 0
vn 0 -1 0
vn 0 -1 0
vn 0 -1 0
vn 0 -1 0
vn 0 -1 0
vn 0 -1 0
vn 0 -1 0
vn 0 -1 0
f 261/261/261 270/270/270 262/262/262
f 270/270/270 271/271/271 262/262/262
f 262/262/262 271/271/271 263/263/263
f 271/271/271 272/272/272 263/263/263
f 263/263/263 272/272/272 264/264/264
f 272/272/272 273/273/273 264/264/264
f 264/264/264 273/273/273 265/265/265
f 273/273/273 274/274/274 265/265/265
f 265/265/265 274/274/274 266/266/266
f 274/274/274 275/275/275 266/266/266
f 266/266/266 275/275/275 267/267/267
f 275/275/275 276/276/276 267/267/267
f 267/267/267 276/276/276 268/268/268
f 276/276/276 277/277/277 268/268/268
f 268/268/268 277/277/277 269/269/269
f 277/277/277 278/278/278 269/269/269
f 287/287/287 288/288/288 279/279/279
f 288/288/288 289/289/289 280/280/280
f 289/289/289 290/290/290 281/281/281
f 290/290/290 291/291/291 282/282/282
f 291/291/291 292/292/292 283/283/283
f 292/292/292 293/293/293 284/284/284
f 293/293/293 294/294/294 285/285/285
f 294/294/294 295/295/295 286/286/286
f 305/305/305 304/304/304 296/296/296
f 306/306/306 305/305/305 297/297/297
f 307/307/307 306/306/306 298/298/298
f 308/308/308 307/307/307 299/299/299
f 309/309/309 308/308/308 300/300/300
f 310/310/310 309/309/309 301/301/301
f 311/311/311 310/310/310 302/302/302
f 312/312/312 311/311/311 303/303/303
o scuff_band
usemtl SURF_Steel_Rust
v 0 0.2399999988079071 0.1120000034570694
v 0.07919596135616302 0.2399999988079071 0.07919596135616302
v 0.1120000034570694 0.2399999988079071 6.858022109779144e-18
v 0.07919596135616302 0.2399999988079071 -0.07919596135616302
v 1.3716044219558288e-17 0.2399999988079071 -0.1120000034570694
v -0.07919596135616302 0.2399999988079071 -0.07919596135616302
v -0.1120000034570694 0.2399999988079071 -2.0574066329337432e-17
v -0.07919596135616302 0.2399999988079071 0.07919596135616302
v -2.7432088439116576e-17 0.2399999988079071 0.1120000034570694
v 0 0.12000000149011611 0.11400000005960464
v 0.08061017096042633 0.12000000149011611 0.08061017096042633
v 0.11400000005960464 0.12000000149011611 6.980487026648232e-18
v 0.08061017096042633 0.12000000149011611 -0.08061017096042633
v 1.3960974053296465e-17 0.12000000149011611 -0.11400000005960464
v -0.08061017096042633 0.12000000149011611 -0.08061017096042633
v -0.11400000005960464 0.12000000149011611 -2.0941460252764084e-17
v -0.08061017096042633 0.12000000149011611 0.08061017096042633
v -2.792194810659293e-17 0.12000000149011611 0.11400000005960464
v 0 0.2399999988079071 0
v 0 0.2399999988079071 0
v 0 0.2399999988079071 0
v 0 0.2399999988079071 0
v 0 0.2399999988079071 0
v 0 0.2399999988079071 0
v 0 0.2399999988079071 0
v 0 0.2399999988079071 0
v 0 0.2399999988079071 0.1120000034570694
v 0.07919596135616302 0.2399999988079071 0.07919596135616302
v 0.1120000034570694 0.2399999988079071 6.858022109779144e-18
v 0.07919596135616302 0.2399999988079071 -0.07919596135616302
v 1.3716044219558288e-17 0.2399999988079071 -0.1120000034570694
v -0.07919596135616302 0.2399999988079071 -0.07919596135616302
v -0.1120000034570694 0.2399999988079071 -2.0574066329337432e-17
v -0.07919596135616302 0.2399999988079071 0.07919596135616302
v -2.7432088439116576e-17 0.2399999988079071 0.1120000034570694
v 0 0.12000000149011611 0
v 0 0.12000000149011611 0
v 0 0.12000000149011611 0
v 0 0.12000000149011611 0
v 0 0.12000000149011611 0
v 0 0.12000000149011611 0
v 0 0.12000000149011611 0
v 0 0.12000000149011611 0
v 0 0.12000000149011611 0.11400000005960464
v 0.08061017096042633 0.12000000149011611 0.08061017096042633
v 0.11400000005960464 0.12000000149011611 6.980487026648232e-18
v 0.08061017096042633 0.12000000149011611 -0.08061017096042633
v 1.3960974053296465e-17 0.12000000149011611 -0.11400000005960464
v -0.08061017096042633 0.12000000149011611 -0.08061017096042633
v -0.11400000005960464 0.12000000149011611 -2.0941460252764084e-17
v -0.08061017096042633 0.12000000149011611 0.08061017096042633
v -2.792194810659293e-17 0.12000000149011611 0.11400000005960464
vt 0 1
vt 0.125 1
vt 0.25 1
vt 0.375 1
vt 0.5 1
vt 0.625 1
vt 0.75 1
vt 0.875 1
vt 1 1
vt 0 0
vt 0.125 0
vt 0.25 0
vt 0.375 0
vt 0.5 0
vt 0.625 0
vt 0.75 0
vt 0.875 0
vt 1 0
vt 0.5 0.5
vt 0.5 0.5
vt 0.5 0.5
vt 0.5 0.5
vt 0.5 0.5
vt 0.5 0.5
vt 0.5 0.5
vt 0.5 0.5
vt 1 0.5
vt 0.8535534143447876 0.8535534143447876
vt 0.5 1
vt 0.1464466154575348 0.8535534143447876
vt 0 0.5
vt 0.1464466154575348 0.1464466154575348
vt 0.5 0
vt 0.8535534143447876 0.1464466154575348
vt 1 0.5
vt 0.5 0.5
vt 0.5 0.5
vt 0.5 0.5
vt 0.5 0.5
vt 0.5 0.5
vt 0.5 0.5
vt 0.5 0.5
vt 0.5 0.5
vt 1 0.5
vt 0.8535534143447876 0.1464466154575348
vt 0.5 0
vt 0.1464466154575348 0.1464466154575348
vt 0 0.5
vt 0.1464466154575348 0.8535534143447876
vt 0.5 1
vt 0.8535534143447876 0.8535534143447876
vt 1 0.5
vn 0 0.016664352582277057 0.9998611400354619
vn 0.7070085923698761 0.016664352082598175 0.7070085923698761
vn 0.9998611400354619 0.016664352582277057 6.122384036726792e-17
vn 0.7070085923698761 0.016664352082598175 -0.7070085923698761
vn 1.2244768073453585e-16 0.016664352582277057 -0.9998611400354619
vn -0.7070085923698761 0.016664352082598175 -0.7070085923698761
vn -0.9998611400354619 0.016664352582277057 -1.8367151448435876e-16
vn -0.7070085923698761 0.016664352082598175 0.7070085923698761
vn -2.448953614690717e-16 0.016664352582277057 0.9998611400354619
vn 0 0.016664352582277057 0.9998611400354619
vn 0.7070085923698761 0.016664352082598175 0.7070085923698761
vn 0.9998611400354619 0.016664352582277057 6.122384036726792e-17
vn 0.7070085923698761 0.016664352082598175 -0.7070085923698761
vn 1.2244768073453585e-16 0.016664352582277057 -0.9998611400354619
vn -0.7070085923698761 0.016664352082598175 -0.7070085923698761
vn -0.9998611400354619 0.016664352582277057 -1.8367151448435876e-16
vn -0.7070085923698761 0.016664352082598175 0.7070085923698761
vn -2.448953614690717e-16 0.016664352582277057 0.9998611400354619
vn 0 1 0
vn 0 1 0
vn 0 1 0
vn 0 1 0
vn 0 1 0
vn 0 1 0
vn 0 1 0
vn 0 1 0
vn 0 1 0
vn 0 1 0
vn 0 1 0
vn 0 1 0
vn 0 1 0
vn 0 1 0
vn 0 1 0
vn 0 1 0
vn 0 1 0
vn 0 -1 0
vn 0 -1 0
vn 0 -1 0
vn 0 -1 0
vn 0 -1 0
vn 0 -1 0
vn 0 -1 0
vn 0 -1 0
vn 0 -1 0
vn 0 -1 0
vn 0 -1 0
vn 0 -1 0
vn 0 -1 0
vn 0 -1 0
vn 0 -1 0
vn 0 -1 0
vn 0 -1 0
f 313/313/313 322/322/322 314/314/314
f 322/322/322 323/323/323 314/314/314
f 314/314/314 323/323/323 315/315/315
f 323/323/323 324/324/324 315/315/315
f 315/315/315 324/324/324 316/316/316
f 324/324/324 325/325/325 316/316/316
f 316/316/316 325/325/325 317/317/317
f 325/325/325 326/326/326 317/317/317
f 317/317/317 326/326/326 318/318/318
f 326/326/326 327/327/327 318/318/318
f 318/318/318 327/327/327 319/319/319
f 327/327/327 328/328/328 319/319/319
f 319/319/319 328/328/328 320/320/320
f 328/328/328 329/329/329 320/320/320
f 320/320/320 329/329/329 321/321/321
f 329/329/329 330/330/330 321/321/321
f 339/339/339 340/340/340 331/331/331
f 340/340/340 341/341/341 332/332/332
f 341/341/341 342/342/342 333/333/333
f 342/342/342 343/343/343 334/334/334
f 343/343/343 344/344/344 335/335/335
f 344/344/344 345/345/345 336/336/336
f 345/345/345 346/346/346 337/337/337
f 346/346/346 347/347/347 338/338/338
f 357/357/357 356/356/356 348/348/348
f 358/358/358 357/357/357 349/349/349
f 359/359/359 358/358/358 350/350/350
f 360/360/360 359/359/359 351/351/351
f 361/361/361 360/360/360 352/352/352
f 362/362/362 361/361/361 353/353/353
f 363/363/363 362/362/362 354/354/354
f 364/364/364 363/363/363 355/355/355
