mtllib SM_FacadeModule_A_Shop.mtl
o pier_left
usemtl SURF_Brick_Facade
v -1.5 4.5999999570846555 -0.024999994635582
v -1.5 4.5999999570846555 -0.4250000005960465
v -1.5 5.2452087118126656e-8 -0.024999994635582
v -1.5 5.2452087118126656e-8 -0.4250000005960465
v -2 4.5999999570846555 -0.4250000005960465
v -2 4.5999999570846555 -0.024999994635582
v -2 5.2452087118126656e-8 -0.4250000005960465
v -2 5.2452087118126656e-8 -0.024999994635582
v -2 4.5999999570846555 -0.4250000005960465
v -1.5 4.5999999570846555 -0.4250000005960465
v -2 4.5999999570846555 -0.024999994635582
v -1.5 4.5999999570846555 -0.024999994635582
v -2 5.2452087118126656e-8 -0.024999994635582
v -1.5 5.2452087118126656e-8 -0.024999994635582
v -2 5.2452087118126656e-8 -0.4250000005960465
v -1.5 5.2452087118126656e-8 -0.4250000005960465
v -2 4.5999999570846555 -0.024999994635582
v -1.5 4.5999999570846555 -0.024999994635582
v -2 5.2452087118126656e-8 -0.024999994635582
v -1.5 5.2452087118126656e-8 -0.024999994635582
v -1.5 4.5999999570846555 -0.4250000005960465
v -2 4.5999999570846555 -0.4250000005960465
v -1.5 5.2452087118126656e-8 -0.4250000005960465
v -2 5.2452087118126656e-8 -0.4250000005960465
vt 0 1
vt 1 1
vt 0 0
vt 1 0
vt 0 1
vt 1 1
vt 0 0
vt 1 0
vt 0 1
vt 1 1
vt 0 0
vt 1 0
vt 0 1
vt 1 1
vt 0 0
vt 1 0
vt 0 1
vt 1 1
vt 0 0
vt 1 0
vt 0 1
vt 1 1
vt 0 0
vt 1 0
vn 1 0 0
vn 1 0 0
vn 1 0 0
vn 1 0 0
vn -1 0 0
vn -1 0 0
vn -1 0 0
vn -1 0 0
vn 0 1 0
vn 0 1 0
vn 0 1 0
vn 0 1 0
vn 0 -1 0
vn 0 -1 0
vn 0 -1 0
vn 0 -1 0
vn 0 0 1
vn 0 0 1
vn 0 0 1
vn 0 0 1
vn 0 0 -1
vn 0 0 -1
vn 0 0 -1
vn 0 0 -1
f 1/1/1 3/3/3 2/2/2
f 3/3/3 4/4/4 2/2/2
f 5/5/5 7/7/7 6/6/6
f 7/7/7 8/8/8 6/6/6
f 9/9/9 11/11/11 10/10/10
f 11/11/11 12/12/12 10/10/10
f 13/13/13 15/15/15 14/14/14
f 15/15/15 16/16/16 14/14/14
f 17/17/17 19/19/19 18/18/18
f 19/19/19 20/20/20 18/18/18
f 21/21/21 23/23/23 22/22/22
f 23/23/23 24/24/24 22/22/22
o pier_right
usemtl SURF_Brick_Facade
v 2 4.5999999570846555 -0.024999994635582
v 2 4.5999999570846555 -0.4250000005960465
v 2 5.2452087118126656e-8 -0.024999994635582
v 2 5.2452087118126656e-8 -0.4250000005960465
v 1.5 4.5999999570846555 -0.4250000005960465
v 1.5 4.5999999570846555 -0.024999994635582
v 1.5 5.2452087118126656e-8 -0.4250000005960465
v 1.5 5.2452087118126656e-8 -0.024999994635582
v 1.5 4.5999999570846555 -0.4250000005960465
v 2 4.5999999570846555 -0.4250000005960465
v 1.5 4.5999999570846555 -0.024999994635582
v 2 4.5999999570846555 -0.024999994635582
v 1.5 5.2452087118126656e-8 -0.024999994635582
v 2 5.2452087118126656e-8 -0.024999994635582
v 1.5 5.2452087118126656e-8 -0.4250000005960465
v 2 5.2452087118126656e-8 -0.4250000005960465
v 1.5 4.5999999570846555 -0.024999994635582
v 2 4.5999999570846555 -0.024999994635582
v 1.5 5.2452087118126656e-8 -0.024999994635582
v 2 5.2452087118126656e-8 -0.024999994635582
v 2 4.5999999570846555 -0.4250000005960465
v 1.5 4.5999999570846555 -0.4250000005960465
v 2 5.2452087118126656e-8 -0.4250000005960465
v 1.5 5.2452087118126656e-8 -0.4250000005960465
vt 0 1
vt 1 1
vt 0 0
vt 1 0
vt 0 1
vt 1 1
vt 0 0
vt 1 0
vt 0 1
vt 1 1
vt 0 0
vt 1 0
vt 0 1
vt 1 1
vt 0 0
vt 1 0
vt 0 1
vt 1 1
vt 0 0
vt 1 0
vt 0 1
vt 1 1
vt 0 0
vt 1 0
vn 1 0 0
vn 1 0 0
vn 1 0 0
vn 1 0 0
vn -1 0 0
vn -1 0 0
vn -1 0 0
vn -1 0 0
vn 0 1 0
vn 0 1 0
vn 0 1 0
vn 0 1 0
vn 0 -1 0
vn 0 -1 0
vn 0 -1 0
vn 0 -1 0
vn 0 0 1
vn 0 0 1
vn 0 0 1
vn 0 0 1
vn 0 0 -1
vn 0 0 -1
vn 0 0 -1
vn 0 0 -1
f 25/25/25 27/27/27 26/26/26
f 27/27/27 28/28/28 26/26/26
f 29/29/29 31/31/31 30/30/30
f 31/31/31 32/32/32 30/30/30
f 33/33/33 35/35/35 34/34/34
f 35/35/35 36/36/36 34/34/34
f 37/37/37 39/39/39 38/38/38
f 39/39/39 40/40/40 38/38/38
f 41/41/41 43/43/43 42/42/42
f 43/43/43 44/44/44 42/42/42
f 45/45/45 47/47/47 46/46/46
f 47/47/47 48/48/48 46/46/46
o wall_header
usemtl SURF_Brick_Facade
v 2 4.600000028610229 -0.03500000000000003
v 2 4.600000028610229 -0.41499999523162845
v 2 2.8999999809265136 -0.03500000000000003
v 2 2.8999999809265136 -0.41499999523162845
v -2 4.600000028610229 -0.41499999523162845
v -2 4.600000028610229 -0.03500000000000003
v -2 2.8999999809265136 -0.41499999523162845
v -2 2.8999999809265136 -0.03500000000000003
v -2 4.600000028610229 -0.41499999523162845
v 2 4.600000028610229 -0.41499999523162845
v -2 4.600000028610229 -0.03500000000000003
v 2 4.600000028610229 -0.03500000000000003
v -2 2.8999999809265136 -0.03500000000000003
v 2 2.8999999809265136 -0.03500000000000003
v -2 2.8999999809265136 -0.41499999523162845
v 2 2.8999999809265136 -0.41499999523162845
v -2 4.600000028610229 -0.03500000000000003
v 2 4.600000028610229 -0.03500000000000003
v -2 2.8999999809265136 -0.03500000000000003
v 2 2.8999999809265136 -0.03500000000000003
v 2 4.600000028610229 -0.41499999523162845
v -2 4.600000028610229 -0.41499999523162845
v 2 2.8999999809265136 -0.41499999523162845
v -2 2.8999999809265136 -0.41499999523162845
vt 0 1
vt 1 1
vt 0 0
vt 1 0
vt 0 1
vt 1 1
vt 0 0
vt 1 0
vt 0 1
vt 1 1
vt 0 0
vt 1 0
vt 0 1
vt 1 1
vt 0 0
vt 1 0
vt 0 1
vt 1 1
vt 0 0
vt 1 0
vt 0 1
vt 1 1
vt 0 0
vt 1 0
vn 1 0 0
vn 1 0 0
vn 1 0 0
vn 1 0 0
vn -1 0 0
vn -1 0 0
vn -1 0 0
vn -1 0 0
vn 0 1 0
vn 0 1 0
vn 0 1 0
vn 0 1 0
vn 0 -1 0
vn 0 -1 0
vn 0 -1 0
vn 0 -1 0
vn 0 0 1
vn 0 0 1
vn 0 0 1
vn 0 0 1
vn 0 0 -1
vn 0 0 -1
vn 0 0 -1
vn 0 0 -1
f 49/49/49 51/51/51 50/50/50
f 51/51/51 52/52/52 50/50/50
f 53/53/53 55/55/55 54/54/54
f 55/55/55 56/56/56 54/54/54
f 57/57/57 59/59/59 58/58/58
f 59/59/59 60/60/60 58/58/58
f 61/61/61 63/63/63 62/62/62
f 63/63/63 64/64/64 62/62/62
f 65/65/65 67/67/67 66/66/66
f 67/67/67 68/68/68 66/66/66
f 69/69/69 71/71/71 70/70/70
f 71/71/71 72/72/72 70/70/70
o stallriser
usemtl SURF_Steel_Painted
v 0.5199999904632568 0.4199999982118605 0.014999998807907089
v 0.5199999904632568 0.4199999982118605 -0.30499999403953554
v 0.5199999904632568 1.1324882392971247e-8 0.014999998807907089
v 0.5199999904632568 1.1324882392971247e-8 -0.30499999403953554
v -1.4999999904632568 0.4199999982118605 -0.30499999403953554
v -1.4999999904632568 0.4199999982118605 0.014999998807907089
v -1.4999999904632568 1.1324882392971247e-8 -0.30499999403953554
v -1.4999999904632568 1.1324882392971247e-8 0.014999998807907089
v -1.4999999904632568 0.4199999982118605 -0.30499999403953554
v 0.5199999904632568 0.4199999982118605 -0.30499999403953554
v -1.4999999904632568 0.4199999982118605 0.014999998807907089
v 0.5199999904632568 0.4199999982118605 0.014999998807907089
v -1.4999999904632568 1.1324882392971247e-8 0.014999998807907089
v 0.5199999904632568 1.1324882392971247e-8 0.014999998807907089
v -1.4999999904632568 1.1324882392971247e-8 -0.30499999403953554
v 0.5199999904632568 1.1324882392971247e-8 -0.30499999403953554
v -1.4999999904632568 0.4199999982118605 0.014999998807907089
v 0.5199999904632568 0.4199999982118605 0.014999998807907089
v -1.4999999904632568 1.1324882392971247e-8 0.014999998807907089
v 0.5199999904632568 1.1324882392971247e-8 0.014999998807907089
v 0.5199999904632568 0.4199999982118605 -0.30499999403953554
v -1.4999999904632568 0.4199999982118605 -0.30499999403953554
v 0.5199999904632568 1.1324882392971247e-8 -0.30499999403953554
v -1.4999999904632568 1.1324882392971247e-8 -0.30499999403953554
vt 0 1
vt 1 1
vt 0 0
vt 1 0
vt 0 1
vt 1 1
vt 0 0
vt 1 0
vt 0 1
vt 1 1
vt 0 0
vt 1 0
vt 0 1
vt 1 1
vt 0 0
vt 1 0
vt 0 1
vt 1 1
vt 0 0
vt 1 0
vt 0 1
vt 1 1
vt 0 0
vt 1 0
vn 1 0 0
vn 1 0 0
vn 1 0 0
vn 1 0 0
vn -1 0 0
vn -1 0 0
vn -1 0 0
vn -1 0 0
vn 0 1 0
vn 0 1 0
vn 0 1 0
vn 0 1 0
vn 0 -1 0
vn 0 -1 0
vn 0 -1 0
vn 0 -1 0
vn 0 0 1
vn 0 0 1
vn 0 0 1
vn 0 0 1
vn 0 0 -1
vn 0 0 -1
vn 0 0 -1
vn 0 0 -1
f 73/73/73 75/75/75 74/74/74
f 75/75/75 76/76/76 74/74/74
f 77/77/77 79/79/79 78/78/78
f 79/79/79 80/80/80 78/78/78
f 81/81/81 83/83/83 82/82/82
f 83/83/83 84/84/84 82/82/82
f 85/85/85 87/87/87 86/86/86
f 87/87/87 88/88/88 86/86/86
f 89/89/89 91/91/91 90/90/90
f 91/91/91 92/92/92 90/90/90
f 93/93/93 95/95/95 94/94/94
f 95/95/95 96/96/96 94/94/94
o shop_glass
usemtl SURF_Glass_Tempered
v 0.49000001907348634 2.739999990463257 -0.049999997243285216
v 0.49000001907348634 2.739999990463257 -0.09999999798834328
v 0.49000001907348634 0.4600000190734863 -0.049999997243285216
v 0.49000001907348634 0.4600000190734863 -0.09999999798834328
v -1.4700000190734863 2.739999990463257 -0.09999999798834328
v -1.4700000190734863 2.739999990463257 -0.049999997243285216
v -1.4700000190734863 0.4600000190734863 -0.09999999798834328
v -1.4700000190734863 0.4600000190734863 -0.049999997243285216
v -1.4700000190734863 2.739999990463257 -0.09999999798834328
v 0.49000001907348634 2.739999990463257 -0.09999999798834328
v -1.4700000190734863 2.739999990463257 -0.049999997243285216
v 0.49000001907348634 2.739999990463257 -0.049999997243285216
v -1.4700000190734863 0.4600000190734863 -0.049999997243285216
v 0.49000001907348634 0.4600000190734863 -0.049999997243285216
v -1.4700000190734863 0.4600000190734863 -0.09999999798834328
v 0.49000001907348634 0.4600000190734863 -0.09999999798834328
v -1.4700000190734863 2.739999990463257 -0.049999997243285216
v 0.49000001907348634 2.739999990463257 -0.049999997243285216
v -1.4700000190734863 0.4600000190734863 -0.049999997243285216
v 0.49000001907348634 0.4600000190734863 -0.049999997243285216
v 0.49000001907348634 2.739999990463257 -0.09999999798834328
v -1.4700000190734863 2.739999990463257 -0.09999999798834328
v 0.49000001907348634 0.4600000190734863 -0.09999999798834328
v -1.4700000190734863 0.4600000190734863 -0.09999999798834328
vt 0 1
vt 1 1
vt 0 0
vt 1 0
vt 0 1
vt 1 1
vt 0 0
vt 1 0
vt 0 1
vt 1 1
vt 0 0
vt 1 0
vt 0 1
vt 1 1
vt 0 0
vt 1 0
vt 0 1
vt 1 1
vt 0 0
vt 1 0
vt 0 1
vt 1 1
vt 0 0
vt 1 0
vn 1 0 0
vn 1 0 0
vn 1 0 0
vn 1 0 0
vn -1 0 0
vn -1 0 0
vn -1 0 0
vn -1 0 0
vn 0 1 0
vn 0 1 0
vn 0 1 0
vn 0 1 0
vn 0 -1 0
vn 0 -1 0
vn 0 -1 0
vn 0 -1 0
vn 0 0 1
vn 0 0 1
vn 0 0 1
vn 0 0 1
vn 0 0 -1
vn 0 0 -1
vn 0 0 -1
vn 0 0 -1
f 97/97/97 99/99/99 98/98/98
f 99/99/99 100/100/100 98/98/98
f 101/101/101 103/103/103 102/102/102
f 103/103/103 104/104/104 102/102/102
f 105/105/105 107/107/107 106/106/106
f 107/107/107 108/108/108 106/106/106
f 109/109/109 111/111/111 110/110/110
f 111/111/111 112/112/112 110/110/110
f 113/113/113 115/115/115 114/114/114
f 115/115/115 116/116/116 114/114/114
f 117/117/117 119/119/119 118/118/118
f 119/119/119 120/120/120 118/118/118
o shop_mullion
usemtl SURF_Aluminium_Brushed
v -0.46000000067055224 2.779999952316284 0.0050000014901160905
v -0.46000000067055224 2.779999952316284 -0.07499999672174457
v -0.46000000067055224 0.42000005722045897 0.0050000014901160905
v -0.46000000067055224 0.42000005722045897 -0.07499999672174457
v -0.5199999993294477 2.779999952316284 -0.07499999672174457
v -0.5199999993294477 2.779999952316284 0.0050000014901160905
v -0.5199999993294477 0.42000005722045897 -0.07499999672174457
v -0.5199999993294477 0.42000005722045897 0.0050000014901160905
v -0.5199999993294477 2.779999952316284 -0.07499999672174457
v -0.46000000067055224 2.779999952316284 -0.07499999672174457
v -0.5199999993294477 2.779999952316284 0.0050000014901160905
v -0.46000000067055224 2.779999952316284 0.0050000014901160905
v -0.5199999993294477 0.42000005722045897 0.0050000014901160905
v -0.46000000067055224 0.42000005722045897 0.0050000014901160905
v -0.5199999993294477 0.42000005722045897 -0.07499999672174457
v -0.46000000067055224 0.42000005722045897 -0.07499999672174457
v -0.5199999993294477 2.779999952316284 0.0050000014901160905
v -0.46000000067055224 2.779999952316284 0.0050000014901160905
v -0.5199999993294477 0.42000005722045897 0.0050000014901160905
v -0.46000000067055224 0.42000005722045897 0.0050000014901160905
v -0.46000000067055224 2.779999952316284 -0.07499999672174457
v -0.5199999993294477 2.779999952316284 -0.07499999672174457
v -0.46000000067055224 0.42000005722045897 -0.07499999672174457
v -0.5199999993294477 0.42000005722045897 -0.07499999672174457
vt 0 1
vt 1 1
vt 0 0
vt 1 0
vt 0 1
vt 1 1
vt 0 0
vt 1 0
vt 0 1
vt 1 1
vt 0 0
vt 1 0
vt 0 1
vt 1 1
vt 0 0
vt 1 0
vt 0 1
vt 1 1
vt 0 0
vt 1 0
vt 0 1
vt 1 1
vt 0 0
vt 1 0
vn 1 0 0
vn 1 0 0
vn 1 0 0
vn 1 0 0
vn -1 0 0
vn -1 0 0
vn -1 0 0
vn -1 0 0
vn 0 1 0
vn 0 1 0
vn 0 1 0
vn 0 1 0
vn 0 -1 0
vn 0 -1 0
vn 0 -1 0
vn 0 -1 0
vn 0 0 1
vn 0 0 1
vn 0 0 1
vn 0 0 1
vn 0 0 -1
vn 0 0 -1
vn 0 0 -1
vn 0 0 -1
f 121/121/121 123/123/123 122/122/122
f 123/123/123 124/124/124 122/122/122
f 125/125/125 127/127/127 126/126/126
f 127/127/127 128/128/128 126/126/126
f 129/129/129 131/131/131 130/130/130
f 131/131/131 132/132/132 130/130/130
f 133/133/133 135/135/135 134/134/134
f 135/135/135 136/136/136 134/134/134
f 137/137/137 139/139/139 138/138/138
f 139/139/139 140/140/140 138/138/138
f 141/141/141 143/143/143 142/142/142
f 143/143/143 144/144/144 142/142/142
o shop_transom
usemtl SURF_Aluminium_Brushed
v 0.5199999904632568 2.3750000051409006 -0.00499999746680263
v 0.5199999904632568 2.3750000051409006 -0.07499999776482585
v 0.5199999904632568 2.3250000043958425 -0.00499999746680263
v 0.5199999904632568 2.3250000043958425 -0.07499999776482585
v -1.4999999904632568 2.3750000051409006 -0.07499999776482585
v -1.4999999904632568 2.3750000051409006 -0.00499999746680263
v -1.4999999904632568 2.3250000043958425 -0.07499999776482585
v -1.4999999904632568 2.3250000043958425 -0.00499999746680263
v -1.4999999904632568 2.3750000051409006 -0.07499999776482585
v 0.5199999904632568 2.3750000051409006 -0.07499999776482585
v -1.4999999904632568 2.3750000051409006 -0.00499999746680263
v 0.5199999904632568 2.3750000051409006 -0.00499999746680263
v -1.4999999904632568 2.3250000043958425 -0.00499999746680263
v 0.5199999904632568 2.3250000043958425 -0.00499999746680263
v -1.4999999904632568 2.3250000043958425 -0.07499999776482585
v 0.5199999904632568 2.3250000043958425 -0.07499999776482585
v -1.4999999904632568 2.3750000051409006 -0.00499999746680263
v 0.5199999904632568 2.3750000051409006 -0.00499999746680263
v -1.4999999904632568 2.3250000043958425 -0.00499999746680263
v 0.5199999904632568 2.3250000043958425 -0.00499999746680263
v 0.5199999904632568 2.3750000051409006 -0.07499999776482585
v -1.4999999904632568 2.3750000051409006 -0.07499999776482585
v 0.5199999904632568 2.3250000043958425 -0.07499999776482585
v -1.4999999904632568 2.3250000043958425 -0.07499999776482585
vt 0 1
vt 1 1
vt 0 0
vt 1 0
vt 0 1
vt 1 1
vt 0 0
vt 1 0
vt 0 1
vt 1 1
vt 0 0
vt 1 0
vt 0 1
vt 1 1
vt 0 0
vt 1 0
vt 0 1
vt 1 1
vt 0 0
vt 1 0
vt 0 1
vt 1 1
vt 0 0
vt 1 0
vn 1 0 0
vn 1 0 0
vn 1 0 0
vn 1 0 0
vn -1 0 0
vn -1 0 0
vn -1 0 0
vn -1 0 0
vn 0 1 0
vn 0 1 0
vn 0 1 0
vn 0 1 0
vn 0 -1 0
vn 0 -1 0
vn 0 -1 0
vn 0 -1 0
vn 0 0 1
vn 0 0 1
vn 0 0 1
vn 0 0 1
vn 0 0 -1
vn 0 0 -1
vn 0 0 -1
vn 0 0 -1
f 145/145/145 147/147/147 146/146/146
f 147/147/147 148/148/148 146/146/146
f 149/149/149 151/151/151 150/150/150
f 151/151/151 152/152/152 150/150/150
f 153/153/153 155/155/155 154/154/154
f 155/155/155 156/156/156 154/154/154
f 157/157/157 159/159/159 158/158/158
f 159/159/159 160/160/160 158/158/158
f 161/161/161 163/163/163 162/162/162
f 163/163/163 164/164/164 162/162/162
f 165/165/165 167/167/167 166/166/166
f 167/167/167 168/168/168 166/166/166
o door_frame
usemtl SURF_Aluminium_Brushed
v 1.4700000095367431 2.240000009536743 -0.07499999806284907
v 1.4700000095367431 2.240000009536743 -0.1149999971687794
v 1.4700000095367431 0 -0.07499999806284907
v 1.4700000095367431 0 -0.1149999971687794
v 0.4899999904632568 2.240000009536743 -0.1149999971687794
v 0.4899999904632568 2.240000009536743 -0.07499999806284907
v 0.4899999904632568 0 -0.1149999971687794
v 0.4899999904632568 0 -0.07499999806284907
v 0.4899999904632568 2.240000009536743 -0.1149999971687794
v 1.4700000095367431 2.240000009536743 -0.1149999971687794
v 0.4899999904632568 2.240000009536743 -0.07499999806284907
v 1.4700000095367431 2.240000009536743 -0.07499999806284907
v 0.4899999904632568 0 -0.07499999806284907
v 1.4700000095367431 0 -0.07499999806284907
v 0.4899999904632568 0 -0.1149999971687794
v 1.4700000095367431 0 -0.1149999971687794
v 0.4899999904632568 2.240000009536743 -0.07499999806284907
v 1.4700000095367431 2.240000009536743 -0.07499999806284907
v 0.4899999904632568 0 -0.07499999806284907
v 1.4700000095367431 0 -0.07499999806284907
v 1.4700000095367431 2.240000009536743 -0.1149999971687794
v 0.4899999904632568 2.240000009536743 -0.1149999971687794
v 1.4700000095367431 0 -0.1149999971687794
v 0.4899999904632568 0 -0.1149999971687794
vt 0 1
vt 1 1
vt 0 0
vt 1 0
vt 0 1
vt 1 1
vt 0 0
vt 1 0
vt 0 1
vt 1 1
vt 0 0
vt 1 0
vt 0 1
vt 1 1
vt 0 0
vt 1 0
vt 0 1
vt 1 1
vt 0 0
vt 1 0
vt 0 1
vt 1 1
vt 0 0
vt 1 0
vn 1 0 0
vn 1 0 0
vn 1 0 0
vn 1 0 0
vn -1 0 0
vn -1 0 0
vn -1 0 0
vn -1 0 0
vn 0 1 0
vn 0 1 0
vn 0 1 0
vn 0 1 0
vn 0 -1 0
vn 0 -1 0
vn 0 -1 0
vn 0 -1 0
vn 0 0 1
vn 0 0 1
vn 0 0 1
vn 0 0 1
vn 0 0 -1
vn 0 0 -1
vn 0 0 -1
vn 0 0 -1
f 169/169/169 171/171/171 170/170/170
f 171/171/171 172/172/172 170/170/170
f 173/173/173 175/175/175 174/174/174
f 175/175/175 176/176/176 174/174/174
f 177/177/177 179/179/179 178/178/178
f 179/179/179 180/180/180 178/178/178
f 181/181/181 183/183/183 182/182/182
f 183/183/183 184/184/184 182/182/182
f 185/185/185 187/187/187 186/186/186
f 187/187/187 188/188/188 186/186/186
f 189/189/189 191/191/191 190/190/190
f 191/191/191 192/192/192 190/190/190
o door_glass
usemtl SURF_Glass_Tempered
v 1.3800000059604645 2.1600000166893008 -0.04999999806284908
v 1.3800000059604645 2.1600000166893008 -0.0899999971687794
v 1.3800000059604645 0.5599999928474426 -0.04999999806284908
v 1.3800000059604645 0.5599999928474426 -0.0899999971687794
v 0.5799999940395355 2.1600000166893008 -0.0899999971687794
v 0.5799999940395355 2.1600000166893008 -0.04999999806284908
v 0.5799999940395355 0.5599999928474426 -0.0899999971687794
v 0.5799999940395355 0.5599999928474426 -0.04999999806284908
v 0.5799999940395355 2.1600000166893008 -0.0899999971687794
v 1.3800000059604645 2.1600000166893008 -0.0899999971687794
v 0.5799999940395355 2.1600000166893008 -0.04999999806284908
v 1.3800000059604645 2.1600000166893008 -0.04999999806284908
v 0.5799999940395355 0.5599999928474426 -0.04999999806284908
v 1.3800000059604645 0.5599999928474426 -0.04999999806284908
v 0.5799999940395355 0.5599999928474426 -0.0899999971687794
v 1.3800000059604645 0.5599999928474426 -0.0899999971687794
v 0.5799999940395355 2.1600000166893008 -0.04999999806284908
v 1.3800000059604645 2.1600000166893008 -0.04999999806284908
v 0.5799999940395355 0.5599999928474426 -0.04999999806284908
v 1.3800000059604645 0.5599999928474426 -0.04999999806284908
v 1.3800000059604645 2.1600000166893008 -0.0899999971687794
v 0.5799999940395355 2.1600000166893008 -0.0899999971687794
v 1.3800000059604645 0.5599999928474426 -0.0899999971687794
v 0.5799999940395355 0.5599999928474426 -0.0899999971687794
vt 0 1
vt 1 1
vt 0 0
vt 1 0
vt 0 1
vt 1 1
vt 0 0
vt 1 0
vt 0 1
vt 1 1
vt 0 0
vt 1 0
vt 0 1
vt 1 1
vt 0 0
vt 1 0
vt 0 1
vt 1 1
vt 0 0
vt 1 0
vt 0 1
vt 1 1
vt 0 0
vt 1 0
vn 1 0 0
vn 1 0 0
vn 1 0 0
vn 1 0 0
vn -1 0 0
vn -1 0 0
vn -1 0 0
vn -1 0 0
vn 0 1 0
vn 0 1 0
vn 0 1 0
vn 0 1 0
vn 0 -1 0
vn 0 -1 0
vn 0 -1 0
vn 0 -1 0
vn 0 0 1
vn 0 0 1
vn 0 0 1
vn 0 0 1
vn 0 0 -1
vn 0 0 -1
vn 0 0 -1
vn 0 0 -1
f 193/193/193 195/195/195 194/194/194
f 195/195/195 196/196/196 194/194/194
f 197/197/197 199/199/199 198/198/198
f 199/199/199 200/200/200 198/198/198
f 201/201/201 203/203/203 202/202/202
f 203/203/203 204/204/204 202/202/202
f 205/205/205 207/207/207 206/206/206
f 207/207/207 208/208/208 206/206/206
f 209/209/209 211/211/211 210/210/210
f 211/211/211 212/212/212 210/210/210
f 213/213/213 215/215/215 214/214/214
f 215/215/215 216/216/216 214/214/214
o door_kickplate
usemtl SURF_Steel_Painted
v 1.3800000059604645 0.5200000035762786 -0.04999999806284908
v 1.3800000059604645 0.5200000035762786 -0.0899999971687794
v 1.3800000059604645 0.08000000596046436 -0.04999999806284908
v 1.3800000059604645 0.08000000596046436 -0.0899999971687794
v 0.5799999940395355 0.5200000035762786 -0.0899999971687794
v 0.5799999940395355 0.5200000035762786 -0.04999999806284908
v 0.5799999940395355 0.08000000596046436 -0.0899999971687794
v 0.5799999940395355 0.08000000596046436 -0.04999999806284908
v 0.5799999940395355 0.5200000035762786 -0.0899999971687794
v 1.3800000059604645 0.5200000035762786 -0.0899999971687794
v 0.5799999940395355 0.5200000035762786 -0.04999999806284908
v 1.3800000059604645 0.5200000035762786 -0.04999999806284908
v 0.5799999940395355 0.08000000596046436 -0.04999999806284908
v 1.3800000059604645 0.08000000596046436 -0.04999999806284908
v 0.5799999940395355 0.08000000596046436 -0.0899999971687794
v 1.3800000059604645 0.08000000596046436 -0.0899999971687794
v 0.5799999940395355 0.5200000035762786 -0.04999999806284908
v 1.3800000059604645 0.5200000035762786 -0.04999999806284908
v 0.5799999940395355 0.08000000596046436 -0.04999999806284908
v 1.3800000059604645 0.08000000596046436 -0.04999999806284908
v 1.3800000059604645 0.5200000035762786 -0.0899999971687794
v 0.5799999940395355 0.5200000035762786 -0.0899999971687794
v 1.3800000059604645 0.08000000596046436 -0.0899999971687794
v 0.5799999940395355 0.08000000596046436 -0.0899999971687794
vt 0 1
vt 1 1
vt 0 0
vt 1 0
vt 0 1
vt 1 1
vt 0 0
vt 1 0
vt 0 1
vt 1 1
vt 0 0
vt 1 0
vt 0 1
vt 1 1
vt 0 0
vt 1 0
vt 0 1
vt 1 1
vt 0 0
vt 1 0
vt 0 1
vt 1 1
vt 0 0
vt 1 0
vn 1 0 0
vn 1 0 0
vn 1 0 0
vn 1 0 0
vn -1 0 0
vn -1 0 0
vn -1 0 0
vn -1 0 0
vn 0 1 0
vn 0 1 0
vn 0 1 0
vn 0 1 0
vn 0 -1 0
vn 0 -1 0
vn 0 -1 0
vn 0 -1 0
vn 0 0 1
vn 0 0 1
vn 0 0 1
vn 0 0 1
vn 0 0 -1
vn 0 0 -1
vn 0 0 -1
vn 0 0 -1
f 217/217/217 219/219/219 218/218/218
f 219/219/219 220/220/220 218/218/218
f 221/221/221 223/223/223 222/222/222
f 223/223/223 224/224/224 222/222/222
f 225/225/225 227/227/227 226/226/226
f 227/227/227 228/228/228 226/226/226
f 229/229/229 231/231/231 230/230/230
f 231/231/231 232/232/232 230/230/230
f 233/233/233 235/235/235 234/234/234
f 235/235/235 236/236/236 234/234/234
f 237/237/237 239/239/239 238/238/238
f 239/239/239 240/240/240 238/238/238
o door_handle
usemtl SURF_Metal_Galvanised
v 0.645000000372529 1.499999998807907 0.010000002533197383
v 0.645000000372529 1.499999998807907 -0.05999999776482584
v 0.645000000372529 0.8000000107288359 0.010000002533197383
v 0.645000000372529 0.8000000107288359 -0.05999999776482584
v 0.594999999627471 1.499999998807907 -0.05999999776482584
v 0.594999999627471 1.499999998807907 0.010000002533197383
v 0.594999999627471 0.8000000107288359 -0.05999999776482584
v 0.594999999627471 0.8000000107288359 0.010000002533197383
v 0.594999999627471 1.499999998807907 -0.05999999776482584
v 0.645000000372529 1.499999998807907 -0.05999999776482584
v 0.594999999627471 1.499999998807907 0.010000002533197383
v 0.645000000372529 1.499999998807907 0.010000002533197383
v 0.594999999627471 0.8000000107288359 0.010000002533197383
v 0.645000000372529 0.8000000107288359 0.010000002533197383
v 0.594999999627471 0.8000000107288359 -0.05999999776482584
v 0.645000000372529 0.8000000107288359 -0.05999999776482584
v 0.594999999627471 1.499999998807907 0.010000002533197383
v 0.645000000372529 1.499999998807907 0.010000002533197383
v 0.594999999627471 0.8000000107288359 0.010000002533197383
v 0.645000000372529 0.8000000107288359 0.010000002533197383
v 0.645000000372529 1.499999998807907 -0.05999999776482584
v 0.594999999627471 1.499999998807907 -0.05999999776482584
v 0.645000000372529 0.8000000107288359 -0.05999999776482584
v 0.594999999627471 0.8000000107288359 -0.05999999776482584
vt 0 1
vt 1 1
vt 0 0
vt 1 0
vt 0 1
vt 1 1
vt 0 0
vt 1 0
vt 0 1
vt 1 1
vt 0 0
vt 1 0
vt 0 1
vt 1 1
vt 0 0
vt 1 0
vt 0 1
vt 1 1
vt 0 0
vt 1 0
vt 0 1
vt 1 1
vt 0 0
vt 1 0
vn 1 0 0
vn 1 0 0
vn 1 0 0
vn 1 0 0
vn -1 0 0
vn -1 0 0
vn -1 0 0
vn -1 0 0
vn 0 1 0
vn 0 1 0
vn 0 1 0
vn 0 1 0
vn 0 -1 0
vn 0 -1 0
vn 0 -1 0
vn 0 -1 0
vn 0 0 1
vn 0 0 1
vn 0 0 1
vn 0 0 1
vn 0 0 -1
vn 0 0 -1
vn 0 0 -1
vn 0 0 -1
f 241/241/241 243/243/243 242/242/242
f 243/243/243 244/244/244 242/242/242
f 245/245/245 247/247/247 246/246/246
f 247/247/247 248/248/248 246/246/246
f 249/249/249 251/251/251 250/250/250
f 251/251/251 252/252/252 250/250/250
f 253/253/253 255/255/255 254/254/254
f 255/255/255 256/256/256 254/254/254
f 257/257/257 259/259/259 258/258/258
f 259/259/259 260/260/260 258/258/258
f 261/261/261 263/263/263 262/262/262
f 263/263/263 264/264/264 262/262/262
o door_fanlight
usemtl SURF_Glass_Tempered
v 1.3800000059604645 2.680000011920929 -0.04999999806284908
v 1.3800000059604645 2.680000011920929 -0.0899999971687794
v 1.3800000059604645 2.319999997615814 -0.04999999806284908
v 1.3800000059604645 2.319999997615814 -0.0899999971687794
v 0.5799999940395355 2.680000011920929 -0.0899999971687794
v 0.5799999940395355 2.680000011920929 -0.04999999806284908
v 0.5799999940395355 2.319999997615814 -0.0899999971687794
v 0.5799999940395355 2.319999997615814 -0.04999999806284908
v 0.5799999940395355 2.680000011920929 -0.0899999971687794
v 1.3800000059604645 2.680000011920929 -0.0899999971687794
v 0.5799999940395355 2.680000011920929 -0.04999999806284908
v 1.3800000059604645 2.680000011920929 -0.04999999806284908
v 0.5799999940395355 2.319999997615814 -0.04999999806284908
v 1.3800000059604645 2.319999997615814 -0.04999999806284908
v 0.5799999940395355 2.319999997615814 -0.0899999971687794
v 1.3800000059604645 2.319999997615814 -0.0899999971687794
v 0.5799999940395355 2.680000011920929 -0.04999999806284908
v 1.3800000059604645 2.680000011920929 -0.04999999806284908
v 0.5799999940395355 2.319999997615814 -0.04999999806284908
v 1.3800000059604645 2.319999997615814 -0.04999999806284908
v 1.3800000059604645 2.680000011920929 -0.0899999971687794
v 0.5799999940395355 2.680000011920929 -0.0899999971687794
v 1.3800000059604645 2.319999997615814 -0.0899999971687794
v 0.5799999940395355 2.319999997615814 -0.0899999971687794
vt 0 1
vt 1 1
vt 0 0
vt 1 0
vt 0 1
vt 1 1
vt 0 0
vt 1 0
vt 0 1
vt 1 1
vt 0 0
vt 1 0
vt 0 1
vt 1 1
vt 0 0
vt 1 0
vt 0 1
vt 1 1
vt 0 0
vt 1 0
vt 0 1
vt 1 1
vt 0 0
vt 1 0
vn 1 0 0
vn 1 0 0
vn 1 0 0
vn 1 0 0
vn -1 0 0
vn -1 0 0
vn -1 0 0
vn -1 0 0
vn 0 1 0
vn 0 1 0
vn 0 1 0
vn 0 1 0
vn 0 -1 0
vn 0 -1 0
vn 0 -1 0
vn 0 -1 0
vn 0 0 1
vn 0 0 1
vn 0 0 1
vn 0 0 1
vn 0 0 -1
vn 0 0 -1
vn 0 0 -1
vn 0 0 -1
f 265/265/265 267/267/267 266/266/266
f 267/267/267 268/268/268 266/266/266
f 269/269/269 271/271/271 270/270/270
f 271/271/271 272/272/272 270/270/270
f 273/273/273 275/275/275 274/274/274
f 275/275/275 276/276/276 274/274/274
f 277/277/277 279/279/279 278/278/278
f 279/279/279 280/280/280 278/278/278
f 281/281/281 283/283/283 282/282/282
f 283/283/283 284/284/284 282/282/282
f 285/285/285 287/287/287 286/286/286
f 287/287/287 288/288/288 286/286/286
o fascia_board
usemtl SURF_Plaster_Facade
v 1.9900000095367432 3.5200000035762784 0.01500000059604642
v 1.9900000095367432 3.5200000035762784 -0.1449999958276749
v 1.9900000095367432 3.080000005960464 0.01500000059604642
v 1.9900000095367432 3.080000005960464 -0.1449999958276749
v -1.9900000095367432 3.5200000035762784 -0.1449999958276749
v -1.9900000095367432 3.5200000035762784 0.01500000059604642
v -1.9900000095367432 3.080000005960464 -0.1449999958276749
v -1.9900000095367432 3.080000005960464 0.01500000059604642
v -1.9900000095367432 3.5200000035762784 -0.1449999958276749
v 1.9900000095367432 3.5200000035762784 -0.1449999958276749
v -1.9900000095367432 3.5200000035762784 0.01500000059604642
v 1.9900000095367432 3.5200000035762784 0.01500000059604642
v -1.9900000095367432 3.080000005960464 0.01500000059604642
v 1.9900000095367432 3.080000005960464 0.01500000059604642
v -1.9900000095367432 3.080000005960464 -0.1449999958276749
v 1.9900000095367432 3.080000005960464 -0.1449999958276749
v -1.9900000095367432 3.5200000035762784 0.01500000059604642
v 1.9900000095367432 3.5200000035762784 0.01500000059604642
v -1.9900000095367432 3.080000005960464 0.01500000059604642
v 1.9900000095367432 3.080000005960464 0.01500000059604642
v 1.9900000095367432 3.5200000035762784 -0.1449999958276749
v -1.9900000095367432 3.5200000035762784 -0.1449999958276749
v 1.9900000095367432 3.080000005960464 -0.1449999958276749
v -1.9900000095367432 3.080000005960464 -0.1449999958276749
vt 0 1
vt 1 1
vt 0 0
vt 1 0
vt 0 1
vt 1 1
vt 0 0
vt 1 0
vt 0 1
vt 1 1
vt 0 0
vt 1 0
vt 0 1
vt 1 1
vt 0 0
vt 1 0
vt 0 1
vt 1 1
vt 0 0
vt 1 0
vt 0 1
vt 1 1
vt 0 0
vt 1 0
vn 1 0 0
vn 1 0 0
vn 1 0 0
vn 1 0 0
vn -1 0 0
vn -1 0 0
vn -1 0 0
vn -1 0 0
vn 0 1 0
vn 0 1 0
vn 0 1 0
vn 0 1 0
vn 0 -1 0
vn 0 -1 0
vn 0 -1 0
vn 0 -1 0
vn 0 0 1
vn 0 0 1
vn 0 0 1
vn 0 0 1
vn 0 0 -1
vn 0 0 -1
vn 0 0 -1
vn 0 0 -1
f 289/289/289 291/291/291 290/290/290
f 291/291/291 292/292/292 290/290/290
f 293/293/293 295/295/295 294/294/294
f 295/295/295 296/296/296 294/294/294
f 297/297/297 299/299/299 298/298/298
f 299/299/299 300/300/300 298/298/298
f 301/301/301 303/303/303 302/302/302
f 303/303/303 304/304/304 302/302/302
f 305/305/305 307/307/307 306/306/306
f 307/307/307 308/308/308 306/306/306
f 309/309/309 311/311/311 310/310/310
f 311/311/311 312/312/312 310/310/310
o bracket_l
usemtl SURF_Steel_Rust
v -1.1700000006705522 3.010000004097819 0.39000000834465026
v -1.1700000006705522 3.010000004097819 -0.1600000035762787
v -1.1700000006705522 2.9500000054389237 0.39000000834465026
v -1.1700000006705522 2.9500000054389237 -0.1600000035762787
v -1.2299999993294477 3.010000004097819 -0.1600000035762787
v -1.2299999993294477 3.010000004097819 0.39000000834465026
v -1.2299999993294477 2.9500000054389237 -0.1600000035762787
v -1.2299999993294477 2.9500000054389237 0.39000000834465026
v -1.2299999993294477 3.010000004097819 -0.1600000035762787
v -1.1700000006705522 3.010000004097819 -0.1600000035762787
v -1.2299999993294477 3.010000004097819 0.39000000834465026
v -1.1700000006705522 3.010000004097819 0.39000000834465026
v -1.2299999993294477 2.9500000054389237 0.39000000834465026
v -1.1700000006705522 2.9500000054389237 0.39000000834465026
v -1.2299999993294477 2.9500000054389237 -0.1600000035762787
v -1.1700000006705522 2.9500000054389237 -0.1600000035762787
v -1.2299999993294477 3.010000004097819 0.39000000834465026
v -1.1700000006705522 3.010000004097819 0.39000000834465026
v -1.2299999993294477 2.9500000054389237 0.39000000834465026
v -1.1700000006705522 2.9500000054389237 0.39000000834465026
v -1.1700000006705522 3.010000004097819 -0.1600000035762787
v -1.2299999993294477 3.010000004097819 -0.1600000035762787
v -1.1700000006705522 2.9500000054389237 -0.1600000035762787
v -1.2299999993294477 2.9500000054389237 -0.1600000035762787
vt 0 1
vt 1 1
vt 0 0
vt 1 0
vt 0 1
vt 1 1
vt 0 0
vt 1 0
vt 0 1
vt 1 1
vt 0 0
vt 1 0
vt 0 1
vt 1 1
vt 0 0
vt 1 0
vt 0 1
vt 1 1
vt 0 0
vt 1 0
vt 0 1
vt 1 1
vt 0 0
vt 1 0
vn 1 0 0
vn 1 0 0
vn 1 0 0
vn 1 0 0
vn -1 0 0
vn -1 0 0
vn -1 0 0
vn -1 0 0
vn 0 1 0
vn 0 1 0
vn 0 1 0
vn 0 1 0
vn 0 -1 0
vn 0 -1 0
vn 0 -1 0
vn 0 -1 0
vn 0 0 1
vn 0 0 1
vn 0 0 1
vn 0 0 1
vn 0 0 -1
vn 0 0 -1
vn 0 0 -1
vn 0 0 -1
f 313/313/313 315/315/315 314/314/314
f 315/315/315 316/316/316 314/314/314
f 317/317/317 319/319/319 318/318/318
f 319/319/319 320/320/320 318/318/318
f 321/321/321 323/323/323 322/322/322
f 323/323/323 324/324/324 322/322/322
f 325/325/325 327/327/327 326/326/326
f 327/327/327 328/328/328 326/326/326
f 329/329/329 331/331/331 330/330/330
f 331/331/331 332/332/332 330/330/330
f 333/333/333 335/335/335 334/334/334
f 335/335/335 336/336/336 334/334/334
o bracket_r
usemtl SURF_Steel_Rust
v 1.2299999993294477 3.010000004097819 0.39000000834465026
v 1.2299999993294477 3.010000004097819 -0.1600000035762787
v 1.2299999993294477 2.9500000054389237 0.39000000834465026
v 1.2299999993294477 2.9500000054389237 -0.1600000035762787
v 1.1700000006705522 3.010000004097819 -0.1600000035762787
v 1.1700000006705522 3.010000004097819 0.39000000834465026
v 1.1700000006705522 2.9500000054389237 -0.1600000035762787
v 1.1700000006705522 2.9500000054389237 0.39000000834465026
v 1.1700000006705522 3.010000004097819 -0.1600000035762787
v 1.2299999993294477 3.010000004097819 -0.1600000035762787
v 1.1700000006705522 3.010000004097819 0.39000000834465026
v 1.2299999993294477 3.010000004097819 0.39000000834465026
v 1.1700000006705522 2.9500000054389237 0.39000000834465026
v 1.2299999993294477 2.9500000054389237 0.39000000834465026
v 1.1700000006705522 2.9500000054389237 -0.1600000035762787
v 1.2299999993294477 2.9500000054389237 -0.1600000035762787
v 1.1700000006705522 3.010000004097819 0.39000000834465026
v 1.2299999993294477 3.010000004097819 0.39000000834465026
v 1.1700000006705522 2.9500000054389237 0.39000000834465026
v 1.2299999993294477 2.9500000054389237 0.39000000834465026
v 1.2299999993294477 3.010000004097819 -0.1600000035762787
v 1.1700000006705522 3.010000004097819 -0.1600000035762787
v 1.2299999993294477 2.9500000054389237 -0.1600000035762787
v 1.1700000006705522 2.9500000054389237 -0.1600000035762787
vt 0 1
vt 1 1
vt 0 0
vt 1 0
vt 0 1
vt 1 1
vt 0 0
vt 1 0
vt 0 1
vt 1 1
vt 0 0
vt 1 0
vt 0 1
vt 1 1
vt 0 0
vt 1 0
vt 0 1
vt 1 1
vt 0 0
vt 1 0
vt 0 1
vt 1 1
vt 0 0
vt 1 0
vn 1 0 0
vn 1 0 0
vn 1 0 0
vn 1 0 0
vn -1 0 0
vn -1 0 0
vn -1 0 0
vn -1 0 0
vn 0 1 0
vn 0 1 0
vn 0 1 0
vn 0 1 0
vn 0 -1 0
vn 0 -1 0
vn 0 -1 0
vn 0 -1 0
vn 0 0 1
vn 0 0 1
vn 0 0 1
vn 0 0 1
vn 0 0 -1
vn 0 0 -1
vn 0 0 -1
vn 0 0 -1
f 337/337/337 339/339/339 338/338/338
f 339/339/339 340/340/340 338/338/338
f 341/341/341 343/343/343 342/342/342
f 343/343/343 344/344/344 342/342/342
f 345/345/345 347/347/347 346/346/346
f 347/347/347 348/348/348 346/346/346
f 349/349/349 351/351/351 350/350/350
f 351/351/351 352/352/352 350/350/350
f 353/353/353 355/355/355 354/354/354
f 355/355/355 356/356/356 354/354/354
f 357/357/357 359/359/359 358/358/358
f 359/359/359 360/360/360 358/358/358
o awning_roll
usemtl SURF_Steel_Painted
v -1.2999999523162844 2.980000004768371 0.43500000178813936
v -1.2999999523162844 3.05778174906969 0.4027817466855049
v -1.2999999523162844 3.0900000041723246 0.3250000023841858
v -1.2999999523162844 3.05778174906969 0.24721825808286668
v -1.2999999523162844 2.980000004768371 0.21500000298023225
v -1.2999999523162844 2.902218260467052 0.24721825808286668
v -1.2999999523162844 2.8700000053644175 0.3250000023841858
v -1.2999999523162844 2.902218260467052 0.4027817466855049
v -1.2999999523162844 2.980000004768371 0.43500000178813936
v 1.2999999523162844 2.980000004768372 0.43500000178813936
v 1.2999999523162844 3.057781749069691 0.4027817466855049
v 1.2999999523162844 3.0900000041723255 0.3250000023841858
v 1.2999999523162844 3.057781749069691 0.24721825808286668
v 1.2999999523162844 2.980000004768372 0.21500000298023225
v 1.2999999523162844 2.902218260467053 0.24721825808286668
v 1.2999999523162844 2.8700000053644183 0.3250000023841858
v 1.2999999523162844 2.902218260467053 0.4027817466855049
v 1.2999999523162844 2.980000004768372 0.43500000178813936
v -1.2999999523162844 2.980000004768371 0.3250000023841858
v -1.2999999523162844 2.980000004768371 0.3250000023841858
v -1.2999999523162844 2.980000004768371 0.3250000023841858
v -1.2999999523162844 2.980000004768371 0.3250000023841858
v -1.2999999523162844 2.980000004768371 0.3250000023841858
v -1.2999999523162844 2.980000004768371 0.3250000023841858
v -1.2999999523162844 2.980000004768371 0.3250000023841858
v -1.2999999523162844 2.980000004768371 0.3250000023841858
v -1.2999999523162844 2.980000004768371 0.43500000178813936
v -1.2999999523162844 3.05778174906969 0.4027817466855049
v -1.2999999523162844 3.0900000041723246 0.3250000023841858
v -1.2999999523162844 3.05778174906969 0.24721825808286668
v -1.2999999523162844 2.980000004768371 0.21500000298023225
v -1.2999999523162844 2.902218260467052 0.24721825808286668
v -1.2999999523162844 2.8700000053644175 0.3250000023841858
v -1.2999999523162844 2.902218260467052 0.4027817466855049
v -1.2999999523162844 2.980000004768371 0.43500000178813936
v 1.2999999523162844 2.980000004768372 0.3250000023841858
v 1.2999999523162844 2.980000004768372 0.3250000023841858
v 1.2999999523162844 2.980000004768372 0.3250000023841858
v 1.2999999523162844 2.980000004768372 0.3250000023841858
v 1.2999999523162844 2.980000004768372 0.3250000023841858
v 1.2999999523162844 2.980000004768372 0.3250000023841858
v 1.2999999523162844 2.980000004768372 0.3250000023841858
v 1.2999999523162844 2.980000004768372 0.3250000023841858
v 1.2999999523162844 2.980000004768372 0.43500000178813936
v 1.2999999523162844 3.057781749069691 0.4027817466855049
v 1.2999999523162844 3.0900000041723255 0.3250000023841858
v 1.2999999523162844 3.057781749069691 0.24721825808286668
v 1.2999999523162844 2.980000004768372 0.21500000298023225
v 1.2999999523162844 2.902218260467053 0.24721825808286668
v 1.2999999523162844 2.8700000053644183 0.3250000023841858
v 1.2999999523162844 2.902218260467053 0.4027817466855049
v 1.2999999523162844 2.980000004768372 0.43500000178813936
vt 0 1
vt 0.125 1
vt 0.25 1
vt 0.375 1
vt 0.5 1
vt 0.625 1
vt 0.75 1
vt 0.875 1
vt 1 1
vt 0 0
vt 0.125 0
vt 0.25 0
vt 0.375 0
vt 0.5 0
vt 0.625 0
vt 0.75 0
vt 0.875 0
vt 1 0
vt 0.5 0.5
vt 0.5 0.5
vt 0.5 0.5
vt 0.5 0.5
vt 0.5 0.5
vt 0.5 0.5
vt 0.5 0.5
vt 0.5 0.5
vt 1 0.5
vt 0.8535534143447876 0.8535534143447876
vt 0.5 1
vt 0.1464466154575348 0.8535534143447876
vt 0 0.5
vt 0.1464466154575348 0.1464466154575348
vt 0.5 0
vt 0.8535534143447876 0.1464466154575348
vt 1 0.5
vt 0.5 0.5
vt 0.5 0.5
vt 0.5 0.5
vt 0.5 0.5
vt 0.5 0.5
vt 0.5 0.5
vt 0.5 0.5
vt 0.5 0.5
vt 1 0.5
vt 0.8535534143447876 0.1464466154575348
vt 0.5 0
vt 0.1464466154575348 0.1464466154575348
vt 0 0.5
vt 0.1464466154575348 0.8535534143447876
vt 0.5 1
vt 0.8535534143447876 0.8535534143447876
vt 1 0.5
vn 0 0 1
vn -1.5700924586837744e-16 0.7071067811865475 0.7071067811865476
vn -2.2204460492503126e-16 1 6.12323426292584e-17
vn -1.5700924586837744e-16 0.7071067811865475 -0.7071067811865476
vn -2.7192622655495654e-32 1.2246468525851676e-16 -1
vn 1.5700924586837744e-16 -0.7071067811865475 -0.7071067811865476
vn 2.2204460492503126e-16 -1 -1.8369701465288543e-16
vn 1.5700924586837744e-16 -0.7071067811865475 0.7071067811865476
vn 5.438524531099131e-32 -2.449293705170335e-16 1
vn 0 0 1
vn -1.5700924586837744e-16 0.7071067811865475 0.7071067811865476
vn -2.2204460492503126e-16 1 6.12323426292584e-17
vn -1.5700924586837744e-16 0.7071067811865475 -0.7071067811865476
vn -2.7192622655495654e-32 1.2246468525851676e-16 -1
vn 1.5700924586837744e-16 -0.7071067811865475 -0.7071067811865476
vn 2.2204460492503126e-16 -1 -1.8369701465288543e-16
vn 1.5700924586837744e-16 -0.7071067811865475 0.7071067811865476
vn 5.438524531099131e-32 -2.449293705170335e-16 1
vn -1 -2.2204460492503126e-16 0
vn -1 -2.2204460492503126e-16 0
vn -1 -2.2204460492503126e-16 0
vn -1 -2.2204460492503126e-16 0
vn -1 -2.2204460492503126e-16 0
vn -1 -2.2204460492503126e-16 0
vn -1 -2.2204460492503126e-16 0
vn -1 -2.2204460492503126e-16 0
vn -1 -2.2204460492503126e-16 0
vn -1 -2.2204460492503126e-16 0
vn -1 -2.2204460492503126e-16 0
vn -1 -2.2204460492503126e-16 0
vn -1 -2.2204460492503126e-16 0
vn -1 -2.2204460492503126e-16 0
vn -1 -2.2204460492503126e-16 0
vn -1 -2.2204460492503126e-16 0
vn -1 -2.2204460492503126e-16 0
vn 1 2.2204460492503126e-16 0
vn 1 2.2204460492503126e-16 0
vn 1 2.2204460492503126e-16 0
vn 1 2.2204460492503126e-16 0
vn 1 2.2204460492503126e-16 0
vn 1 2.2204460492503126e-16 0
vn 1 2.2204460492503126e-16 0
vn 1 2.2204460492503126e-16 0
vn 1 2.2204460492503126e-16 0
vn 1 2.2204460492503126e-16 0
vn 1 2.2204460492503126e-16 0
vn 1 2.2204460492503126e-16 0
vn 1 2.2204460492503126e-16 0
vn 1 2.2204460492503126e-16 0
vn 1 2.2204460492503126e-16 0
vn 1 2.2204460492503126e-16 0
vn 1 2.2204460492503126e-16 0
f 361/361/361 370/370/370 362/362/362
f 370/370/370 371/371/371 362/362/362
f 362/362/362 371/371/371 363/363/363
f 371/371/371 372/372/372 363/363/363
f 363/363/363 372/372/372 364/364/364
f 372/372/372 373/373/373 364/364/364
f 364/364/364 373/373/373 365/365/365
f 373/373/373 374/374/374 365/365/365
f 365/365/365 374/374/374 366/366/366
f 374/374/374 375/375/375 366/366/366
f 366/366/366 375/375/375 367/367/367
f 375/375/375 376/376/376 367/367/367
f 367/367/367 376/376/376 368/368/368
f 376/376/376 377/377/377 368/368/368
f 368/368/368 377/377/377 369/369/369
f 377/377/377 378/378/378 369/369/369
f 387/387/387 388/388/388 379/379/379
f 388/388/388 389/389/389 380/380/380
f 389/389/389 390/390/390 381/381/381
f 390/390/390 391/391/391 382/382/382
f 391/391/391 392/392/392 383/383/383
f 392/392/392 393/393/393 384/384/384
f 393/393/393 394/394/394 385/385/385
f 394/394/394 395/395/395 386/386/386
f 405/405/405 404/404/404 396/396/396
f 406/406/406 405/405/405 397/397/397
f 407/407/407 406/406/406 398/398/398
f 408/408/408 407/407/407 399/399/399
f 409/409/409 408/408/408 400/400/400
f 410/410/410 409/409/409 401/401/401
f 411/411/411 410/410/410 402/402/402
f 412/412/412 411/411/411 403/403/403
o upper_reveal_0
usemtl SURF_Laminate_Kiosk
v -0.6199999928474427 4.380000019073486 0.005000001937150916
v -0.6199999928474427 4.380000019073486 -0.03499999716877941
v -0.6199999928474427 3.6599999904632563 0.005000001937150916
v -0.6199999928474427 3.6599999904632563 -0.03499999716877941
v -1.4800000071525574 4.380000019073486 -0.03499999716877941
v -1.4800000071525574 4.380000019073486 0.005000001937150916
v -1.4800000071525574 3.6599999904632563 -0.03499999716877941
v -1.4800000071525574 3.6599999904632563 0.005000001937150916
v -1.4800000071525574 4.380000019073486 -0.03499999716877941
v -0.6199999928474427 4.380000019073486 -0.03499999716877941
v -1.4800000071525574 4.380000019073486 0.005000001937150916
v -0.6199999928474427 4.380000019073486 0.005000001937150916
v -1.4800000071525574 3.6599999904632563 0.005000001937150916
v -0.6199999928474427 3.6599999904632563 0.005000001937150916
v -1.4800000071525574 3.6599999904632563 -0.03499999716877941
v -0.6199999928474427 3.6599999904632563 -0.03499999716877941
v -1.4800000071525574 4.380000019073486 0.005000001937150916
v -0.6199999928474427 4.380000019073486 0.005000001937150916
v -1.4800000071525574 3.6599999904632563 0.005000001937150916
v -0.6199999928474427 3.6599999904632563 0.005000001937150916
v -0.6199999928474427 4.380000019073486 -0.03499999716877941
v -1.4800000071525574 4.380000019073486 -0.03499999716877941
v -0.6199999928474427 3.6599999904632563 -0.03499999716877941
v -1.4800000071525574 3.6599999904632563 -0.03499999716877941
vt 0 1
vt 1 1
vt 0 0
vt 1 0
vt 0 1
vt 1 1
vt 0 0
vt 1 0
vt 0 1
vt 1 1
vt 0 0
vt 1 0
vt 0 1
vt 1 1
vt 0 0
vt 1 0
vt 0 1
vt 1 1
vt 0 0
vt 1 0
vt 0 1
vt 1 1
vt 0 0
vt 1 0
vn 1 0 0
vn 1 0 0
vn 1 0 0
vn 1 0 0
vn -1 0 0
vn -1 0 0
vn -1 0 0
vn -1 0 0
vn 0 1 0
vn 0 1 0
vn 0 1 0
vn 0 1 0
vn 0 -1 0
vn 0 -1 0
vn 0 -1 0
vn 0 -1 0
vn 0 0 1
vn 0 0 1
vn 0 0 1
vn 0 0 1
vn 0 0 -1
vn 0 0 -1
vn 0 0 -1
vn 0 0 -1
f 413/413/413 415/415/415 414/414/414
f 415/415/415 416/416/416 414/414/414
f 417/417/417 419/419/419 418/418/418
f 419/419/419 420/420/420 418/418/418
f 421/421/421 423/423/423 422/422/422
f 423/423/423 424/424/424 422/422/422
f 425/425/425 427/427/427 426/426/426
f 427/427/427 428/428/428 426/426/426
f 429/429/429 431/431/431 430/430/430
f 431/431/431 432/432/432 430/430/430
f 433/433/433 435/435/435 434/434/434
f 435/435/435 436/436/436 434/434/434
o upper_glass_0
usemtl SURF_Glass_Tempered
v -0.6899999856948853 4.309999996423721 0.015000002048909639
v -0.6899999856948853 4.309999996423721 -0.014999997280538108
v -0.6899999856948853 3.7300000131130213 0.015000002048909639
v -0.6899999856948853 3.7300000131130213 -0.014999997280538108
v -1.4100000143051148 4.309999996423721 -0.014999997280538108
v -1.4100000143051148 4.309999996423721 0.015000002048909639
v -1.4100000143051148 3.7300000131130213 -0.014999997280538108
v -1.4100000143051148 3.7300000131130213 0.015000002048909639
v -1.4100000143051148 4.309999996423721 -0.014999997280538108
v -0.6899999856948853 4.309999996423721 -0.014999997280538108
v -1.4100000143051148 4.309999996423721 0.015000002048909639
v -0.6899999856948853 4.309999996423721 0.015000002048909639
v -1.4100000143051148 3.7300000131130213 0.015000002048909639
v -0.6899999856948853 3.7300000131130213 0.015000002048909639
v -1.4100000143051148 3.7300000131130213 -0.014999997280538108
v -0.6899999856948853 3.7300000131130213 -0.014999997280538108
v -1.4100000143051148 4.309999996423721 0.015000002048909639
v -0.6899999856948853 4.309999996423721 0.015000002048909639
v -1.4100000143051148 3.7300000131130213 0.015000002048909639
v -0.6899999856948853 3.7300000131130213 0.015000002048909639
v -0.6899999856948853 4.309999996423721 -0.014999997280538108
v -1.4100000143051148 4.309999996423721 -0.014999997280538108
v -0.6899999856948853 3.7300000131130213 -0.014999997280538108
v -1.4100000143051148 3.7300000131130213 -0.014999997280538108
vt 0 1
vt 1 1
vt 0 0
vt 1 0
vt 0 1
vt 1 1
vt 0 0
vt 1 0
vt 0 1
vt 1 1
vt 0 0
vt 1 0
vt 0 1
vt 1 1
vt 0 0
vt 1 0
vt 0 1
vt 1 1
vt 0 0
vt 1 0
vt 0 1
vt 1 1
vt 0 0
vt 1 0
vn 1 0 0
vn 1 0 0
vn 1 0 0
vn 1 0 0
vn -1 0 0
vn -1 0 0
vn -1 0 0
vn -1 0 0
vn 0 1 0
vn 0 1 0
vn 0 1 0
vn 0 1 0
vn 0 -1 0
vn 0 -1 0
vn 0 -1 0
vn 0 -1 0
vn 0 0 1
vn 0 0 1
vn 0 0 1
vn 0 0 1
vn 0 0 -1
vn 0 0 -1
vn 0 0 -1
vn 0 0 -1
f 437/437/437 439/439/439 438/438/438
f 439/439/439 440/440/440 438/438/438
f 441/441/441 443/443/443 442/442/442
f 443/443/443 444/444/444 442/442/442
f 445/445/445 447/447/447 446/446/446
f 447/447/447 448/448/448 446/446/446
f 449/449/449 451/451/451 450/450/450
f 451/451/451 452/452/452 450/450/450
f 453/453/453 455/455/455 454/454/454
f 455/455/455 456/456/456 454/454/454
f 457/457/457 459/459/459 458/458/458
f 459/459/459 460/460/460 458/458/458
o upper_sill_0
usemtl SURF_Concrete_Kerb
v -0.5599999904632569 3.660000003874302 0.08500000387430187
v -0.5599999904632569 3.660000003874302 -0.11499999910593037
v -0.5599999904632569 3.5800000056624413 0.08500000387430187
v -0.5599999904632569 3.5800000056624413 -0.11499999910593037
v -1.5400000095367432 3.660000003874302 -0.11499999910593037
v -1.5400000095367432 3.660000003874302 0.08500000387430187
v -1.5400000095367432 3.5800000056624413 -0.11499999910593037
v -1.5400000095367432 3.5800000056624413 0.08500000387430187
v -1.5400000095367432 3.660000003874302 -0.11499999910593037
v -0.5599999904632569 3.660000003874302 -0.11499999910593037
v -1.5400000095367432 3.660000003874302 0.08500000387430187
v -0.5599999904632569 3.660000003874302 0.08500000387430187
v -1.5400000095367432 3.5800000056624413 0.08500000387430187
v -0.5599999904632569 3.5800000056624413 0.08500000387430187
v -1.5400000095367432 3.5800000056624413 -0.11499999910593037
v -0.5599999904632569 3.5800000056624413 -0.11499999910593037
v -1.5400000095367432 3.660000003874302 0.08500000387430187
v -0.5599999904632569 3.660000003874302 0.08500000387430187
v -1.5400000095367432 3.5800000056624413 0.08500000387430187
v -0.5599999904632569 3.5800000056624413 0.08500000387430187
v -0.5599999904632569 3.660000003874302 -0.11499999910593037
v -1.5400000095367432 3.660000003874302 -0.11499999910593037
v -0.5599999904632569 3.5800000056624413 -0.11499999910593037
v -1.5400000095367432 3.5800000056624413 -0.11499999910593037
vt 0 1
vt 1 1
vt 0 0
vt 1 0
vt 0 1
vt 1 1
vt 0 0
vt 1 0
vt 0 1
vt 1 1
vt 0 0
vt 1 0
vt 0 1
vt 1 1
vt 0 0
vt 1 0
vt 0 1
vt 1 1
vt 0 0
vt 1 0
vt 0 1
vt 1 1
vt 0 0
vt 1 0
vn 1 0 0
vn 1 0 0
vn 1 0 0
vn 1 0 0
vn -1 0 0
vn -1 0 0
vn -1 0 0
vn -1 0 0
vn 0 1 0
vn 0 1 0
vn 0 1 0
vn 0 1 0
vn 0 -1 0
vn 0 -1 0
vn 0 -1 0
vn 0 -1 0
vn 0 0 1
vn 0 0 1
vn 0 0 1
vn 0 0 1
vn 0 0 -1
vn 0 0 -1
vn 0 0 -1
vn 0 0 -1
f 461/461/461 463/463/463 462/462/462
f 463/463/463 464/464/464 462/462/462
f 465/465/465 467/467/467 466/466/466
f 467/467/467 468/468/468 466/466/466
f 469/469/469 471/471/471 470/470/470
f 471/471/471 472/472/472 470/470/470
f 473/473/473 475/475/475 474/474/474
f 475/475/475 476/476/476 474/474/474
f 477/477/477 479/479/479 478/478/478
f 479/479/479 480/480/480 478/478/478
f 481/481/481 483/483/483 482/482/482
f 483/483/483 484/484/484 482/482/482
o upper_reveal_1
usemtl SURF_Laminate_Kiosk
v 1.4800000071525574 4.380000019073486 0.005000001937150916
v 1.4800000071525574 4.380000019073486 -0.03499999716877941
v 1.4800000071525574 3.6599999904632563 0.005000001937150916
v 1.4800000071525574 3.6599999904632563 -0.03499999716877941
v 0.6199999928474427 4.380000019073486 -0.03499999716877941
v 0.6199999928474427 4.380000019073486 0.005000001937150916
v 0.6199999928474427 3.6599999904632563 -0.03499999716877941
v 0.6199999928474427 3.6599999904632563 0.005000001937150916
v 0.6199999928474427 4.380000019073486 -0.03499999716877941
v 1.4800000071525574 4.380000019073486 -0.03499999716877941
v 0.6199999928474427 4.380000019073486 0.005000001937150916
v 1.4800000071525574 4.380000019073486 0.005000001937150916
v 0.6199999928474427 3.6599999904632563 0.005000001937150916
v 1.4800000071525574 3.6599999904632563 0.005000001937150916
v 0.6199999928474427 3.6599999904632563 -0.03499999716877941
v 1.4800000071525574 3.6599999904632563 -0.03499999716877941
v 0.6199999928474427 4.380000019073486 0.005000001937150916
v 1.4800000071525574 4.380000019073486 0.005000001937150916
v 0.6199999928474427 3.6599999904632563 0.005000001937150916
v 1.4800000071525574 3.6599999904632563 0.005000001937150916
v 1.4800000071525574 4.380000019073486 -0.03499999716877941
v 0.6199999928474427 4.380000019073486 -0.03499999716877941
v 1.4800000071525574 3.6599999904632563 -0.03499999716877941
v 0.6199999928474427 3.6599999904632563 -0.03499999716877941
vt 0 1
vt 1 1
vt 0 0
vt 1 0
vt 0 1
vt 1 1
vt 0 0
vt 1 0
vt 0 1
vt 1 1
vt 0 0
vt 1 0
vt 0 1
vt 1 1
vt 0 0
vt 1 0
vt 0 1
vt 1 1
vt 0 0
vt 1 0
vt 0 1
vt 1 1
vt 0 0
vt 1 0
vn 1 0 0
vn 1 0 0
vn 1 0 0
vn 1 0 0
vn -1 0 0
vn -1 0 0
vn -1 0 0
vn -1 0 0
vn 0 1 0
vn 0 1 0
vn 0 1 0
vn 0 1 0
vn 0 -1 0
vn 0 -1 0
vn 0 -1 0
vn 0 -1 0
vn 0 0 1
vn 0 0 1
vn 0 0 1
vn 0 0 1
vn 0 0 -1
vn 0 0 -1
vn 0 0 -1
vn 0 0 -1
f 485/485/485 487/487/487 486/486/486
f 487/487/487 488/488/488 486/486/486
f 489/489/489 491/491/491 490/490/490
f 491/491/491 492/492/492 490/490/490
f 493/493/493 495/495/495 494/494/494
f 495/495/495 496/496/496 494/494/494
f 497/497/497 499/499/499 498/498/498
f 499/499/499 500/500/500 498/498/498
f 501/501/501 503/503/503 502/502/502
f 503/503/503 504/504/504 502/502/502
f 505/505/505 507/507/507 506/506/506
f 507/507/507 508/508/508 506/506/506
o upper_glass_1
usemtl SURF_Glass_Tempered
v 1.4100000143051148 4.309999996423721 0.015000002048909639
v 1.4100000143051148 4.309999996423721 -0.014999997280538108
v 1.4100000143051148 3.7300000131130213 0.015000002048909639
v 1.4100000143051148 3.7300000131130213 -0.014999997280538108
v 0.6899999856948853 4.309999996423721 -0.014999997280538108
v 0.6899999856948853 4.309999996423721 0.015000002048909639
v 0.6899999856948853 3.7300000131130213 -0.014999997280538108
v 0.6899999856948853 3.7300000131130213 0.015000002048909639
v 0.6899999856948853 4.309999996423721 -0.014999997280538108
v 1.4100000143051148 4.309999996423721 -0.014999997280538108
v 0.6899999856948853 4.309999996423721 0.015000002048909639
v 1.4100000143051148 4.309999996423721 0.015000002048909639
v 0.6899999856948853 3.7300000131130213 0.015000002048909639
v 1.4100000143051148 3.7300000131130213 0.015000002048909639
v 0.6899999856948853 3.7300000131130213 -0.014999997280538108
v 1.4100000143051148 3.7300000131130213 -0.014999997280538108
v 0.6899999856948853 4.309999996423721 0.015000002048909639
v 1.4100000143051148 4.309999996423721 0.015000002048909639
v 0.6899999856948853 3.7300000131130213 0.015000002048909639
v 1.4100000143051148 3.7300000131130213 0.015000002048909639
v 1.4100000143051148 4.309999996423721 -0.014999997280538108
v 0.6899999856948853 4.309999996423721 -0.014999997280538108
v 1.4100000143051148 3.7300000131130213 -0.014999997280538108
v 0.6899999856948853 3.7300000131130213 -0.014999997280538108
vt 0 1
vt 1 1
vt 0 0
vt 1 0
vt 0 1
vt 1 1
vt 0 0
vt 1 0
vt 0 1
vt 1 1
vt 0 0
vt 1 0
vt 0 1
vt 1 1
vt 0 0
vt 1 0
vt 0 1
vt 1 1
vt 0 0
vt 1 0
vt 0 1
vt 1 1
vt 0 0
vt 1 0
vn 1 0 0
vn 1 0 0
vn 1 0 0
vn 1 0 0
vn -1 0 0
vn -1 0 0
vn -1 0 0
vn -1 0 0
vn 0 1 0
vn 0 1 0
vn 0 1 0
vn 0 1 0
vn 0 -1 0
vn 0 -1 0
vn 0 -1 0
vn 0 -1 0
vn 0 0 1
vn 0 0 1
vn 0 0 1
vn 0 0 1
vn 0 0 -1
vn 0 0 -1
vn 0 0 -1
vn 0 0 -1
f 509/509/509 511/511/511 510/510/510
f 511/511/511 512/512/512 510/510/510
f 513/513/513 515/515/515 514/514/514
f 515/515/515 516/516/516 514/514/514
f 517/517/517 519/519/519 518/518/518
f 519/519/519 520/520/520 518/518/518
f 521/521/521 523/523/523 522/522/522
f 523/523/523 524/524/524 522/522/522
f 525/525/525 527/527/527 526/526/526
f 527/527/527 528/528/528 526/526/526
f 529/529/529 531/531/531 530/530/530
f 531/531/531 532/532/532 530/530/530
o upper_sill_1
usemtl SURF_Concrete_Kerb
v 1.5400000095367432 3.660000003874302 0.08500000387430187
v 1.5400000095367432 3.660000003874302 -0.11499999910593037
v 1.5400000095367432 3.5800000056624413 0.08500000387430187
v 1.5400000095367432 3.5800000056624413 -0.11499999910593037
v 0.5599999904632569 3.660000003874302 -0.11499999910593037
v 0.5599999904632569 3.660000003874302 0.08500000387430187
v 0.5599999904632569 3.5800000056624413 -0.11499999910593037
v 0.5599999904632569 3.5800000056624413 0.08500000387430187
v 0.5599999904632569 3.660000003874302 -0.11499999910593037
v 1.5400000095367432 3.660000003874302 -0.11499999910593037
v 0.5599999904632569 3.660000003874302 0.08500000387430187
v 1.5400000095367432 3.660000003874302 0.08500000387430187
v 0.5599999904632569 3.5800000056624413 0.08500000387430187
v 1.5400000095367432 3.5800000056624413 0.08500000387430187
v 0.5599999904632569 3.5800000056624413 -0.11499999910593037
v 1.5400000095367432 3.5800000056624413 -0.11499999910593037
v 0.5599999904632569 3.660000003874302 0.08500000387430187
v 1.5400000095367432 3.660000003874302 0.08500000387430187
v 0.5599999904632569 3.5800000056624413 0.08500000387430187
v 1.5400000095367432 3.5800000056624413 0.08500000387430187
v 1.5400000095367432 3.660000003874302 -0.11499999910593037
v 0.5599999904632569 3.660000003874302 -0.11499999910593037
v 1.5400000095367432 3.5800000056624413 -0.11499999910593037
v 0.5599999904632569 3.5800000056624413 -0.11499999910593037
vt 0 1
vt 1 1
vt 0 0
vt 1 0
vt 0 1
vt 1 1
vt 0 0
vt 1 0
vt 0 1
vt 1 1
vt 0 0
vt 1 0
vt 0 1
vt 1 1
vt 0 0
vt 1 0
vt 0 1
vt 1 1
vt 0 0
vt 1 0
vt 0 1
vt 1 1
vt 0 0
vt 1 0
vn 1 0 0
vn 1 0 0
vn 1 0 0
vn 1 0 0
vn -1 0 0
vn -1 0 0
vn -1 0 0
vn -1 0 0
vn 0 1 0
vn 0 1 0
vn 0 1 0
vn 0 1 0
vn 0 -1 0
vn 0 -1 0
vn 0 -1 0
vn 0 -1 0
vn 0 0 1
vn 0 0 1
vn 0 0 1
vn 0 0 1
vn 0 0 -1
vn 0 0 -1
vn 0 0 -1
vn 0 0 -1
f 533/533/533 535/535/535 534/534/534
f 535/535/535 536/536/536 534/534/534
f 537/537/537 539/539/539 538/538/538
f 539/539/539 540/540/540 538/538/538
f 541/541/541 543/543/543 542/542/542
f 543/543/543 544/544/544 542/542/542
f 545/545/545 547/547/547 546/546/546
f 547/547/547 548/548/548 546/546/546
f 549/549/549 551/551/551 550/550/550
f 551/551/551 552/552/552 550/550/550
f 553/553/553 555/555/555 554/554/554
f 555/555/555 556/556/556 554/554/554
o cornice
usemtl SURF_Plaster_Facade
v 2 4.660000004172325 0.025000006556510884
v 2 4.660000004172325 -0.43500000178813936
v 2 4.440000005364418 0.025000006556510884
v 2 4.440000005364418 -0.43500000178813936
v -2 4.660000004172325 -0.43500000178813936
v -2 4.660000004172325 0.025000006556510884
v -2 4.440000005364418 -0.43500000178813936
v -2 4.440000005364418 0.025000006556510884
v -2 4.660000004172325 -0.43500000178813936
v 2 4.660000004172325 -0.43500000178813936
v -2 4.660000004172325 0.025000006556510884
v 2 4.660000004172325 0.025000006556510884
v -2 4.440000005364418 0.025000006556510884
v 2 4.440000005364418 0.025000006556510884
v -2 4.440000005364418 -0.43500000178813936
v 2 4.440000005364418 -0.43500000178813936
v -2 4.660000004172325 0.025000006556510884
v 2 4.660000004172325 0.025000006556510884
v -2 4.440000005364418 0.025000006556510884
v 2 4.440000005364418 0.025000006556510884
v 2 4.660000004172325 -0.43500000178813936
v -2 4.660000004172325 -0.43500000178813936
v 2 4.440000005364418 -0.43500000178813936
v -2 4.440000005364418 -0.43500000178813936
vt 0 1
vt 1 1
vt 0 0
vt 1 0
vt 0 1
vt 1 1
vt 0 0
vt 1 0
vt 0 1
vt 1 1
vt 0 0
vt 1 0
vt 0 1
vt 1 1
vt 0 0
vt 1 0
vt 0 1
vt 1 1
vt 0 0
vt 1 0
vt 0 1
vt 1 1
vt 0 0
vt 1 0
vn 1 0 0
vn 1 0 0
vn 1 0 0
vn 1 0 0
vn -1 0 0
vn -1 0 0
vn -1 0 0
vn -1 0 0
vn 0 1 0
vn 0 1 0
vn 0 1 0
vn 0 1 0
vn 0 -1 0
vn 0 -1 0
vn 0 -1 0
vn 0 -1 0
vn 0 0 1
vn 0 0 1
vn 0 0 1
vn 0 0 1
vn 0 0 -1
vn 0 0 -1
vn 0 0 -1
vn 0 0 -1
f 557/557/557 559/559/559 558/558/558
f 559/559/559 560/560/560 558/558/558
f 561/561/561 563/563/563 562/562/562
f 563/563/563 564/564/564 562/562/562
f 565/565/565 567/567/567 566/566/566
f 567/567/567 568/568/568 566/566/566
f 569/569/569 571/571/571 570/570/570
f 571/571/571 572/572/572 570/570/570
f 573/573/573 575/575/575 574/574/574
f 575/575/575 576/576/576 574/574/574
f 577/577/577 579/579/579 578/578/578
f 579/579/579 580/580/580 578/578/578
