mtllib SM_RouteSign_01.mtl
o foot_plate
usemtl SURF_Metal_Galvanised
v 0.11999999731779099 0.03999999955296517 0.11999999731779099
v 0.11999999731779099 0.03999999955296517 -0.11999999731779099
v 0.11999999731779099 4.470348362317633e-10 0.11999999731779099
v 0.11999999731779099 4.470348362317633e-10 -0.11999999731779099
v -0.11999999731779099 0.03999999955296517 -0.11999999731779099
v -0.11999999731779099 0.03999999955296517 0.11999999731779099
v -0.11999999731779099 4.470348362317633e-10 -0.11999999731779099
v -0.11999999731779099 4.470348362317633e-10 0.11999999731779099
v -0.11999999731779099 0.03999999955296517 -0.11999999731779099
v 0.11999999731779099 0.03999999955296517 -0.11999999731779099
v -0.11999999731779099 0.03999999955296517 0.11999999731779099
v 0.11999999731779099 0.03999999955296517 0.11999999731779099
v -0.11999999731779099 4.470348362317633e-10 0.11999999731779099
v 0.11999999731779099 4.470348362317633e-10 0.11999999731779099
v -0.11999999731779099 4.470348362317633e-10 -0.11999999731779099
v 0.11999999731779099 4.470348362317633e-10 -0.11999999731779099
v -0.11999999731779099 0.03999999955296517 0.11999999731779099
v 0.11999999731779099 0.03999999955296517 0.11999999731779099
v -0.11999999731779099 4.470348362317633e-10 0.11999999731779099
v 0.11999999731779099 4.470348362317633e-10 0.11999999731779099
v 0.11999999731779099 0.03999999955296517 -0.11999999731779099
v -0.11999999731779099 0.03999999955296517 -0.11999999731779099
v 0.11999999731779099 4.470348362317633e-10 -0.11999999731779099
v -0.11999999731779099 4.470348362317633e-10 -0.11999999731779099
vt 0 1
vt 1 1
vt 0 0
vt 1 0
vt 0 1
vt 1 1
vt 0 0
vt 1 0
vt 0 1
vt 1 1
vt 0 0
vt 1 0
vt 0 1
vt 1 1
vt 0 0
vt 1 0
vt 0 1
vt 1 1
vt 0 0
vt 1 0
vt 0 1
vt 1 1
vt 0 0
vt 1 0
vn 1 0 0
vn 1 0 0
vn 1 0 0
vn 1 0 0
vn -1 0 0
vn -1 0 0
vn -1 0 0
vn -1 0 0
vn 0 1 0
vn 0 1 0
vn 0 1 0
vn 0 1 0
vn 0 -1 0
vn 0 -1 0
vn 0 -1 0
vn 0 -1 0
vn 0 0 1
vn 0 0 1
vn 0 0 1
vn 0 0 1
vn 0 0 -1
vn 0 0 -1
vn 0 0 -1
vn 0 0 -1
f 1/1/1 3/3/3 2/2/2
f 3/3/3 4/4/4 2/2/2
f 5/5/5 7/7/7 6/6/6
f 7/7/7 8/8/8 6/6/6
f 9/9/9 11/11/11 10/10/10
f 11/11/11 12/12/12 10/10/10
f 13/13/13 15/15/15 14/14/14
f 15/15/15 16/16/16 14/14/14
f 17/17/17 19/19/19 18/18/18
f 19/19/19 20/20/20 18/18/18
f 21/21/21 23/23/23 22/22/22
f 23/23/23 24/24/24 22/22/22
o post
usemtl SURF_Metal_Galvanised
v 0 2.5 0.04500000178813934
v 0.02645033597946167 2.5 0.036405764520168304
v 0.04279754310846329 2.5 0.013905764557421207
v 0.04279754310846329 2.5 -0.013905764557421207
v 0.02645033597946167 2.5 -0.036405764520168304
v 5.51091050576101e-18 2.5 -0.04500000178813934
v -0.02645033597946167 2.5 -0.036405764520168304
v -0.04279754310846329 2.5 -0.013905764557421207
v -0.04279754310846329 2.5 0.013905764557421207
v -0.02645033597946167 2.5 0.036405764520168304
v -1.102182101152202e-17 2.5 0.04500000178813934
v 0 0 0.05000000074505806
v 0.029389262199401855 0 0.04045084863901138
v 0.04755282402038574 0 0.015450850129127502
v 0.04755282402038574 0 -0.015450850129127502
v 0.029389262199401855 0 -0.04045084863901138
v 6.123233849335533e-18 0 -0.05000000074505806
v -0.029389262199401855 0 -0.04045084863901138
v -0.04755282402038574 0 -0.015450850129127502
v -0.04755282402038574 0 0.015450850129127502
v -0.029389262199401855 0 0.04045084863901138
v -1.2246467698671066e-17 0 0.05000000074505806
v 0 2.5 0
v 0 2.5 0
v 0 2.5 0
v 0 2.5 0
v 0 2.5 0
v 0 2.5 0
v 0 2.5 0
v 0 2.5 0
v 0 2.5 0
v 0 2.5 0
v 0 2.5 0.04500000178813934
v 0.02645033597946167 2.5 0.036405764520168304
v 0.04279754310846329 2.5 0.013905764557421207
v 0.04279754310846329 2.5 -0.013905764557421207
v 0.02645033597946167 2.5 -0.036405764520168304
v 5.51091050576101e-18 2.5 -0.04500000178813934
v -0.02645033597946167 2.5 -0.036405764520168304
v -0.04279754310846329 2.5 -0.013905764557421207
v -0.04279754310846329 2.5 0.013905764557421207
v -0.02645033597946167 2.5 0.036405764520168304
v -1.102182101152202e-17 2.5 0.04500000178813934
v 0 0 0
v 0 0 0
v 0 0 0
v 0 0 0
v 0 0 0
v 0 0 0
v 0 0 0
v 0 0 0
v 0 0 0
v 0 0 0
v 0 0 0.05000000074505806
v 0.029389262199401855 0 0.04045084863901138
v 0.04755282402038574 0 0.015450850129127502
v 0.04755282402038574 0 -0.015450850129127502
v 0.029389262199401855 0 -0.04045084863901138
v 6.123233849335533e-18 0 -0.05000000074505806
v -0.029389262199401855 0 -0.04045084863901138
v -0.04755282402038574 0 -0.015450850129127502
v -0.04755282402038574 0 0.015450850129127502
v -0.029389262199401855 0 0.04045084863901138
v -1.2246467698671066e-17 0 0.05000000074505806
vt 0 1
vt 0.10000000149011612 1
vt 0.20000000298023224 1
vt 0.30000001192092896 1
vt 0.4000000059604645 1
vt 0.5 1
vt 0.6000000238418579 1
vt 0.699999988079071 1
vt 0.800000011920929 1
vt 0.8999999761581421 1
vt 1 1
vt 0 0
vt 0.10000000149011612 0
vt 0.20000000298023224 0
vt 0.30000001192092896 0
vt 0.4000000059604645 0
vt 0.5 0
vt 0.6000000238418579 0
vt 0.699999988079071 0
vt 0.800000011920929 0
vt 0.8999999761581421 0
vt 1 0
vt 0.5 0.5
vt 0.5 0.5
vt 0.5 0.5
vt 0.5 0.5
vt 0.5 0.5
vt 0.5 0.5
vt 0.5 0.5
vt 0.5 0.5
vt 0.5 0.5
vt 0.5 0.5
vt 1 0.5
vt 0.9045084714889526 0.7938926219940186
vt 0.6545084714889526 0.9755282402038574
vt 0.345491498708725 0.9755282402038574
vt 0.09549150615930557 0.7938926219940186
vt 0 0.5
vt 0.09549150615930557 0.20610737800598145
vt 0.345491498708725 0.024471741169691086
vt 0.6545084714889526 0.024471741169691086
vt 0.9045084714889526 0.20610737800598145
vt 1 0.5
vt 0.5 0.5
vt 0.5 0.5
vt 0.5 0.5
vt 0.5 0.5
vt 0.5 0.5
vt 0.5 0.5
vt 0.5 0.5
vt 0.5 0.5
vt 0.5 0.5
vt 0.5 0.5
vt 1 0.5
vt 0.9045084714889526 0.20610737800598145
vt 0.6545084714889526 0.024471741169691086
vt 0.345491498708725 0.024471741169691086
vt 0.09549150615930557 0.20610737800598145
vt 0 0.5
vt 0.09549150615930557 0.7938926219940186
vt 0.345491498708725 0.9755282402038574
vt 0.6545084714889526 0.9755282402038574
vt 0.9045084714889526 0.7938926219940186
vt 1 0.5
vn 0 0.001999995957171332 0.9999980000060856
vn 0.5877840524321137 0.00199999590587042 0.8090153939962199
vn 0.9510546158374662 0.0019999958686589643 0.30901637126659653
vn 0.9510546158374662 0.0019999958686589643 -0.30901637126659653
vn 0.5877840524321137 0.00199999590587042 -0.8090153939962199
vn 1.2246443704876336e-16 0.001999995957171332 -0.9999980000060856
vn -0.5877840524321137 0.00199999590587042 -0.8090153939962199
vn -0.9510546158374662 0.0019999958686589643 -0.30901637126659653
vn -0.9510546158374662 0.0019999958686589643 0.30901637126659653
vn -0.5877840524321137 0.00199999590587042 0.8090153939962199
vn -2.4492887409752673e-16 0.001999995957171332 0.9999980000060856
vn 0 0.001999995957171332 0.9999980000060856
vn 0.5877840524321137 0.00199999590587042 0.8090153939962199
vn 0.9510546158374662 0.0019999958686589643 0.30901637126659653
vn 0.9510546158374662 0.0019999958686589643 -0.30901637126659653
vn 0.5877840524321137 0.00199999590587042 -0.8090153939962199
vn 1.2246443704876336e-16 0.001999995957171332 -0.9999980000060856
vn -0.5877840524321137 0.00199999590587042 -0.8090153939962199
vn -0.9510546158374662 0.0019999958686589643 -0.30901637126659653
vn -0.9510546158374662 0.0019999958686589643 0.30901637126659653
vn -0.5877840524321137 0.00199999590587042 0.8090153939962199
vn -2.4492887409752673e-16 0.001999995957171332 0.9999980000060856
vn 0 1 0
vn 0 1 0
vn 0 1 0
vn 0 1 0
vn 0 1 0
vn 0 1 0
vn 0 1 0
vn 0 1 0
vn 0 1 0
vn 0 1 0
vn 0 1 0
vn 0 1 0
vn 0 1 0
vn 0 1 0
vn 0 1 0
vn 0 1 0
vn 0 1 0
vn 0 1 0
vn 0 1 0
vn 0 1 0
vn 0 1 0
vn 0 -1 0
vn 0 -1 0
vn 0 -1 0
vn 0 -1 0
vn 0 -1 0
vn 0 -1 0
vn 0 -1 0
vn 0 -1 0
vn 0 -1 0
vn 0 -1 0
vn 0 -1 0
vn 0 -1 0
vn 0 -1 0
vn 0 -1 0
vn 0 -1 0
vn 0 -1 0
vn 0 -1 0
vn 0 -1 0
vn 0 -1 0
vn 0 -1 0
vn 0 -1 0
f 25/25/25 36/36/36 26/26/26
f 36/36/36 37/37/37 26/26/26
f 26/26/26 37/37/37 27/27/27
f 37/37/37 38/38/38 27/27/27
f 27/27/27 38/38/38 28/28/28
f 38/38/38 39/39/39 28/28/28
f 28/28/28 39/39/39 29/29/29
f 39/39/39 40/40/40 29/29/29
f 29/29/29 40/40/40 30/30/30
f 40/40/40 41/41/41 30/30/30
f 30/30/30 41/41/41 31/31/31
f 41/41/41 42/42/42 31/31/31
f 31/31/31 42/42/42 32/32/32
f 42/42/42 43/43/43 32/32/32
f 32/32/32 43/43/43 33/33/33
f 43/43/43 44/44/44 33/33/33
f 33/33/33 44/44/44 34/34/34
f 44/44/44 45/45/45 34/34/34
f 34/34/34 45/45/45 35/35/35
f 45/45/45 46/46/46 35/35/35
f 57/57/57 58/58/58 47/47/47
f 58/58/58 59/59/59 48/48/48
f 59/59/59 60/60/60 49/49/49
f 60/60/60 61/61/61 50/50/50
f 61/61/61 62/62/62 51/51/51
f 62/62/62 63/63/63 52/52/52
f 63/63/63 64/64/64 53/53/53
f 64/64/64 65/65/65 54/54/54
f 65/65/65 66/66/66 55/55/55
f 66/66/66 67/67/67 56/56/56
f 79/79/79 78/78/78 68/68/68
f 80/80/80 79/79/79 69/69/69
f 81/81/81 80/80/80 70/70/70
f 82/82/82 81/81/81 71/71/71
f 83/83/83 82/82/82 72/72/72
f 84/84/84 83/83/83 73/73/73
f 85/85/85 84/84/84 74/74/74
f 86/86/86 85/85/85 75/75/75
f 87/87/87 86/86/86 76/76/76
f 88/88/88 87/87/87 77/77/77
o plate_main
usemtl SURF_Aluminium_Brushed
v 0.36000001430511475 2.4 0.054999999664723874
v 0.36000001430511475 2.4 0.025000000335276128
v 0.36000001430511475 1.9 0.054999999664723874
v 0.36000001430511475 1.9 0.025000000335276128
v -0.36000001430511475 2.4 0.025000000335276128
v -0.36000001430511475 2.4 0.054999999664723874
v -0.36000001430511475 1.9 0.025000000335276128
v -0.36000001430511475 1.9 0.054999999664723874
v -0.36000001430511475 2.4 0.025000000335276128
v 0.36000001430511475 2.4 0.025000000335276128
v -0.36000001430511475 2.4 0.054999999664723874
v 0.36000001430511475 2.4 0.054999999664723874
v -0.36000001430511475 1.9 0.054999999664723874
v 0.36000001430511475 1.9 0.054999999664723874
v -0.36000001430511475 1.9 0.025000000335276128
v 0.36000001430511475 1.9 0.025000000335276128
v -0.36000001430511475 2.4 0.054999999664723874
v 0.36000001430511475 2.4 0.054999999664723874
v -0.36000001430511475 1.9 0.054999999664723874
v 0.36000001430511475 1.9 0.054999999664723874
v 0.36000001430511475 2.4 0.025000000335276128
v -0.36000001430511475 2.4 0.025000000335276128
v 0.36000001430511475 1.9 0.025000000335276128
v -0.36000001430511475 1.9 0.025000000335276128
vt 0 1
vt 1 1
vt 0 0
vt 1 0
vt 0 1
vt 1 1
vt 0 0
vt 1 0
vt 0 1
vt 1 1
vt 0 0
vt 1 0
vt 0 1
vt 1 1
vt 0 0
vt 1 0
vt 0 1
vt 1 1
vt 0 0
vt 1 0
vt 0 1
vt 1 1
vt 0 0
vt 1 0
vn 1 0 0
vn 1 0 0
vn 1 0 0
vn 1 0 0
vn -1 0 0
vn -1 0 0
vn -1 0 0
vn -1 0 0
vn 0 1 0
vn 0 1 0
vn 0 1 0
vn 0 1 0
vn 0 -1 0
vn 0 -1 0
vn 0 -1 0
vn 0 -1 0
vn 0 0 1
vn 0 0 1
vn 0 0 1
vn 0 0 1
vn 0 0 -1
vn 0 0 -1
vn 0 0 -1
vn 0 0 -1
f 89/89/89 91/91/91 90/90/90
f 91/91/91 92/92/92 90/90/90
f 93/93/93 95/95/95 94/94/94
f 95/95/95 96/96/96 94/94/94
f 97/97/97 99/99/99 98/98/98
f 99/99/99 100/100/100 98/98/98
f 101/101/101 103/103/103 102/102/102
f 103/103/103 104/104/104 102/102/102
f 105/105/105 107/107/107 106/106/106
f 107/107/107 108/108/108 106/106/106
f 109/109/109 111/111/111 110/110/110
f 111/111/111 112/112/112 110/110/110
o plate_face
usemtl SURF_Paper_Newsprint
v 0.33000001311302185 2.369999998807907 0.06400000005215406
v 0.33000001311302185 2.369999998807907 0.05199999994784594
v 0.33000001311302185 1.9300000011920928 0.06400000005215406
v 0.33000001311302185 1.9300000011920928 0.05199999994784594
v -0.33000001311302185 2.369999998807907 0.05199999994784594
v -0.33000001311302185 2.369999998807907 0.06400000005215406
v -0.33000001311302185 1.9300000011920928 0.05199999994784594
v -0.33000001311302185 1.9300000011920928 0.06400000005215406
v -0.33000001311302185 2.369999998807907 0.05199999994784594
v 0.33000001311302185 2.369999998807907 0.05199999994784594
v -0.33000001311302185 2.369999998807907 0.06400000005215406
v 0.33000001311302185 2.369999998807907 0.06400000005215406
v -0.33000001311302185 1.9300000011920928 0.06400000005215406
v 0.33000001311302185 1.9300000011920928 0.06400000005215406
v -0.33000001311302185 1.9300000011920928 0.05199999994784594
v 0.33000001311302185 1.9300000011920928 0.05199999994784594
v -0.33000001311302185 2.369999998807907 0.06400000005215406
v 0.33000001311302185 2.369999998807907 0.06400000005215406
v -0.33000001311302185 1.9300000011920928 0.06400000005215406
v 0.33000001311302185 1.9300000011920928 0.06400000005215406
v 0.33000001311302185 2.369999998807907 0.05199999994784594
v -0.33000001311302185 2.369999998807907 0.05199999994784594
v 0.33000001311302185 1.9300000011920928 0.05199999994784594
v -0.33000001311302185 1.9300000011920928 0.05199999994784594
vt 0 1
vt 1 1
vt 0 0
vt 1 0
vt 0 1
vt 1 1
vt 0 0
vt 1 0
vt 0 1
vt 1 1
vt 0 0
vt 1 0
vt 0 1
vt 1 1
vt 0 0
vt 1 0
vt 0 1
vt 1 1
vt 0 0
vt 1 0
vt 0 1
vt 1 1
vt 0 0
vt 1 0
vn 1 0 0
vn 1 0 0
vn 1 0 0
vn 1 0 0
vn -1 0 0
vn -1 0 0
vn -1 0 0
vn -1 0 0
vn 0 1 0
vn 0 1 0
vn 0 1 0
vn 0 1 0
vn 0 -1 0
vn 0 -1 0
vn 0 -1 0
vn 0 -1 0
vn 0 0 1
vn 0 0 1
vn 0 0 1
vn 0 0 1
vn 0 0 -1
vn 0 0 -1
vn 0 0 -1
vn 0 0 -1
f 113/113/113 115/115/115 114/114/114
f 115/115/115 116/116/116 114/114/114
f 117/117/117 119/119/119 118/118/118
f 119/119/119 120/120/120 118/118/118
f 121/121/121 123/123/123 122/122/122
f 123/123/123 124/124/124 122/122/122
f 125/125/125 127/127/127 126/126/126
f 127/127/127 128/128/128 126/126/126
f 129/129/129 131/131/131 130/130/130
f 131/131/131 132/132/132 130/130/130
f 133/133/133 135/135/135 134/134/134
f 135/135/135 136/136/136 134/134/134
o route_bar
usemtl SURF_Tape_Warning
v 0.3100000023841858 2.350000000745058 0.06900000021606684
v 0.3100000023841858 2.350000000745058 0.05499999978393316
v 0.3100000023841858 2.2499999992549418 0.06900000021606684
v 0.3100000023841858 2.2499999992549418 0.05499999978393316
v -0.3100000023841858 2.350000000745058 0.05499999978393316
v -0.3100000023841858 2.350000000745058 0.06900000021606684
v -0.3100000023841858 2.2499999992549418 0.05499999978393316
v -0.3100000023841858 2.2499999992549418 0.06900000021606684
v -0.3100000023841858 2.350000000745058 0.05499999978393316
v 0.3100000023841858 2.350000000745058 0.05499999978393316
v -0.3100000023841858 2.350000000745058 0.06900000021606684
v 0.3100000023841858 2.350000000745058 0.06900000021606684
v -0.3100000023841858 2.2499999992549418 0.06900000021606684
v 0.3100000023841858 2.2499999992549418 0.06900000021606684
v -0.3100000023841858 2.2499999992549418 0.05499999978393316
v 0.3100000023841858 2.2499999992549418 0.05499999978393316
v -0.3100000023841858 2.350000000745058 0.06900000021606684
v 0.3100000023841858 2.350000000745058 0.06900000021606684
v -0.3100000023841858 2.2499999992549418 0.06900000021606684
v 0.3100000023841858 2.2499999992549418 0.06900000021606684
v 0.3100000023841858 2.350000000745058 0.05499999978393316
v -0.3100000023841858 2.350000000745058 0.05499999978393316
v 0.3100000023841858 2.2499999992549418 0.05499999978393316
v -0.3100000023841858 2.2499999992549418 0.05499999978393316
vt 0 1
vt 1 1
vt 0 0
vt 1 0
vt 0 1
vt 1 1
vt 0 0
vt 1 0
vt 0 1
vt 1 1
vt 0 0
vt 1 0
vt 0 1
vt 1 1
vt 0 0
vt 1 0
vt 0 1
vt 1 1
vt 0 0
vt 1 0
vt 0 1
vt 1 1
vt 0 0
vt 1 0
vn 1 0 0
vn 1 0 0
vn 1 0 0
vn 1 0 0
vn -1 0 0
vn -1 0 0
vn -1 0 0
vn -1 0 0
vn 0 1 0
vn 0 1 0
vn 0 1 0
vn 0 1 0
vn 0 -1 0
vn 0 -1 0
vn 0 -1 0
vn 0 -1 0
vn 0 0 1
vn 0 0 1
vn 0 0 1
vn 0 0 1
vn 0 0 -1
vn 0 0 -1
vn 0 0 -1
vn 0 0 -1
f 137/137/137 139/139/139 138/138/138
f 139/139/139 140/140/140 138/138/138
f 141/141/141 143/143/143 142/142/142
f 143/143/143 144/144/144 142/142/142
f 145/145/145 147/147/147 146/146/146
f 147/147/147 148/148/148 146/146/146
f 149/149/149 151/151/151 150/150/150
f 151/151/151 152/152/152 150/150/150
f 153/153/153 155/155/155 154/154/154
f 155/155/155 156/156/156 154/154/154
f 157/157/157 159/159/159 158/158/158
f 159/159/159 160/160/160 158/158/158
o plate_reroute
usemtl SURF_Aluminium_Brushed
v 0.3100000023841858 1.8400000005960464 0.054999999664723874
v 0.3100000023841858 1.8400000005960464 0.025000000335276128
v 0.3100000023841858 1.5599999994039535 0.054999999664723874
v 0.3100000023841858 1.5599999994039535 0.025000000335276128
v -0.3100000023841858 1.8400000005960464 0.025000000335276128
v -0.3100000023841858 1.8400000005960464 0.054999999664723874
v -0.3100000023841858 1.5599999994039535 0.025000000335276128
v -0.3100000023841858 1.5599999994039535 0.054999999664723874
v -0.3100000023841858 1.8400000005960464 0.025000000335276128
v 0.3100000023841858 1.8400000005960464 0.025000000335276128
v -0.3100000023841858 1.8400000005960464 0.054999999664723874
v 0.3100000023841858 1.8400000005960464 0.054999999664723874
v -0.3100000023841858 1.5599999994039535 0.054999999664723874
v 0.3100000023841858 1.5599999994039535 0.054999999664723874
v -0.3100000023841858 1.5599999994039535 0.025000000335276128
v 0.3100000023841858 1.5599999994039535 0.025000000335276128
v -0.3100000023841858 1.8400000005960464 0.054999999664723874
v 0.3100000023841858 1.8400000005960464 0.054999999664723874
v -0.3100000023841858 1.5599999994039535 0.054999999664723874
v 0.3100000023841858 1.5599999994039535 0.054999999664723874
v 0.3100000023841858 1.8400000005960464 0.025000000335276128
v -0.3100000023841858 1.8400000005960464 0.025000000335276128
v 0.3100000023841858 1.5599999994039535 0.025000000335276128
v -0.3100000023841858 1.5599999994039535 0.025000000335276128
vt 0 1
vt 1 1
vt 0 0
vt 1 0
vt 0 1
vt 1 1
vt 0 0
vt 1 0
vt 0 1
vt 1 1
vt 0 0
vt 1 0
vt 0 1
vt 1 1
vt 0 0
vt 1 0
vt 0 1
vt 1 1
vt 0 0
vt 1 0
vt 0 1
vt 1 1
vt 0 0
vt 1 0
vn 1 0 0
vn 1 0 0
vn 1 0 0
vn 1 0 0
vn -1 0 0
vn -1 0 0
vn -1 0 0
vn -1 0 0
vn 0 1 0
vn 0 1 0
vn 0 1 0
vn 0 1 0
vn 0 -1 0
vn 0 -1 0
vn 0 -1 0
vn 0 -1 0
vn 0 0 1
vn 0 0 1
vn 0 0 1
vn 0 0 1
vn 0 0 -1
vn 0 0 -1
vn 0 0 -1
vn 0 0 -1
f 161/161/161 163/163/163 162/162/162
f 163/163/163 164/164/164 162/162/162
f 165/165/165 167/167/167 166/166/166
f 167/167/167 168/168/168 166/166/166
f 169/169/169 171/171/171 170/170/170
f 171/171/171 172/172/172 170/170/170
f 173/173/173 175/175/175 174/174/174
f 175/175/175 176/176/176 174/174/174
f 177/177/177 179/179/179 178/178/178
f 179/179/179 180/180/180 178/178/178
f 181/181/181 183/183/183 182/182/182
f 183/183/183 184/184/184 182/182/182
o reroute_face
usemtl SURF_Paper_Newsprint
v 0.2800000011920929 1.8099999994039535 0.06400000005215406
v 0.2800000011920929 1.8099999994039535 0.05199999994784594
v 0.2800000011920929 1.5900000005960464 0.06400000005215406
v 0.2800000011920929 1.5900000005960464 0.05199999994784594
v -0.2800000011920929 1.8099999994039535 0.05199999994784594
v -0.2800000011920929 1.8099999994039535 0.06400000005215406
v -0.2800000011920929 1.5900000005960464 0.05199999994784594
v -0.2800000011920929 1.5900000005960464 0.06400000005215406
v -0.2800000011920929 1.8099999994039535 0.05199999994784594
v 0.2800000011920929 1.8099999994039535 0.05199999994784594
v -0.2800000011920929 1.8099999994039535 0.06400000005215406
v 0.2800000011920929 1.8099999994039535 0.06400000005215406
v -0.2800000011920929 1.5900000005960464 0.06400000005215406
v 0.2800000011920929 1.5900000005960464 0.06400000005215406
v -0.2800000011920929 1.5900000005960464 0.05199999994784594
v 0.2800000011920929 1.5900000005960464 0.05199999994784594
v -0.2800000011920929 1.8099999994039535 0.06400000005215406
v 0.2800000011920929 1.8099999994039535 0.06400000005215406
v -0.2800000011920929 1.5900000005960464 0.06400000005215406
v 0.2800000011920929 1.5900000005960464 0.06400000005215406
v 0.2800000011920929 1.8099999994039535 0.05199999994784594
v -0.2800000011920929 1.8099999994039535 0.05199999994784594
v 0.2800000011920929 1.5900000005960464 0.05199999994784594
v -0.2800000011920929 1.5900000005960464 0.05199999994784594
vt 0 1
vt 1 1
vt 0 0
vt 1 0
vt 0 1
vt 1 1
vt 0 0
vt 1 0
vt 0 1
vt 1 1
vt 0 0
vt 1 0
vt 0 1
vt 1 1
vt 0 0
vt 1 0
vt 0 1
vt 1 1
vt 0 0
vt 1 0
vt 0 1
vt 1 1
vt 0 0
vt 1 0
vn 1 0 0
vn 1 0 0
vn 1 0 0
vn 1 0 0
vn -1 0 0
vn -1 0 0
vn -1 0 0
vn -1 0 0
vn 0 1 0
vn 0 1 0
vn 0 1 0
vn 0 1 0
vn 0 -1 0
vn 0 -1 0
vn 0 -1 0
vn 0 -1 0
vn 0 0 1
vn 0 0 1
vn 0 0 1
vn 0 0 1
vn 0 0 -1
vn 0 0 -1
vn 0 0 -1
vn 0 0 -1
f 185/185/185 187/187/187 186/186/186
f 187/187/187 188/188/188 186/186/186
f 189/189/189 191/191/191 190/190/190
f 191/191/191 192/192/192 190/190/190
f 193/193/193 195/195/195 194/194/194
f 195/195/195 196/196/196 194/194/194
f 197/197/197 199/199/199 198/198/198
f 199/199/199 200/200/200 198/198/198
f 201/201/201 203/203/203 202/202/202
f 203/203/203 204/204/204 202/202/202
f 205/205/205 207/207/207 206/206/206
f 207/207/207 208/208/208 206/206/206
o bracket_u
usemtl SURF_Steel_Painted
v 0.05000000074505806 2.3499999993294476 0.06000000074505806
v 0.05000000074505806 2.3499999993294476 -0.04000000074505806
v 0.05000000074505806 2.290000000670552 0.06000000074505806
v 0.05000000074505806 2.290000000670552 -0.04000000074505806
v -0.05000000074505806 2.3499999993294476 -0.04000000074505806
v -0.05000000074505806 2.3499999993294476 0.06000000074505806
v -0.05000000074505806 2.290000000670552 -0.04000000074505806
v -0.05000000074505806 2.290000000670552 0.06000000074505806
v -0.05000000074505806 2.3499999993294476 -0.04000000074505806
v 0.05000000074505806 2.3499999993294476 -0.04000000074505806
v -0.05000000074505806 2.3499999993294476 0.06000000074505806
v 0.05000000074505806 2.3499999993294476 0.06000000074505806
v -0.05000000074505806 2.290000000670552 0.06000000074505806
v 0.05000000074505806 2.290000000670552 0.06000000074505806
v -0.05000000074505806 2.290000000670552 -0.04000000074505806
v 0.05000000074505806 2.290000000670552 -0.04000000074505806
v -0.05000000074505806 2.3499999993294476 0.06000000074505806
v 0.05000000074505806 2.3499999993294476 0.06000000074505806
v -0.05000000074505806 2.290000000670552 0.06000000074505806
v 0.05000000074505806 2.290000000670552 0.06000000074505806
v 0.05000000074505806 2.3499999993294476 -0.04000000074505806
v -0.05000000074505806 2.3499999993294476 -0.04000000074505806
v 0.05000000074505806 2.290000000670552 -0.04000000074505806
v -0.05000000074505806 2.290000000670552 -0.04000000074505806
vt 0 1
vt 1 1
vt 0 0
vt 1 0
vt 0 1
vt 1 1
vt 0 0
vt 1 0
vt 0 1
vt 1 1
vt 0 0
vt 1 0
vt 0 1
vt 1 1
vt 0 0
vt 1 0
vt 0 1
vt 1 1
vt 0 0
vt 1 0
vt 0 1
vt 1 1
vt 0 0
vt 1 0
vn 1 0 0
vn 1 0 0
vn 1 0 0
vn 1 0 0
vn -1 0 0
vn -1 0 0
vn -1 0 0
vn -1 0 0
vn 0 1 0
vn 0 1 0
vn 0 1 0
vn 0 1 0
vn 0 -1 0
vn 0 -1 0
vn 0 -1 0
vn 0 -1 0
vn 0 0 1
vn 0 0 1
vn 0 0 1
vn 0 0 1
vn 0 0 -1
vn 0 0 -1
vn 0 0 -1
vn 0 0 -1
f 209/209/209 211/211/211 210/210/210
f 211/211/211 212/212/212 210/210/210
f 213/213/213 215/215/215 214/214/214
f 215/215/215 216/216/216 214/214/214
f 217/217/217 219/219/219 218/218/218
f 219/219/219 220/220/220 218/218/218
f 221/221/221 223/223/223 222/222/222
f 223/223/223 224/224/224 222/222/222
f 225/225/225 227/227/227 226/226/226
f 227/227/227 228/228/228 226/226/226
f 229/229/229 231/231/231 230/230/230
f 231/231/231 232/232/232 230/230/230
o bracket_l
usemtl SURF_Steel_Painted
v 0.05000000074505806 1.6799999993294477 0.06000000074505806
v 0.05000000074505806 1.6799999993294477 -0.04000000074505806
v 0.05000000074505806 1.6200000006705522 0.06000000074505806
v 0.05000000074505806 1.6200000006705522 -0.04000000074505806
v -0.05000000074505806 1.6799999993294477 -0.04000000074505806
v -0.05000000074505806 1.6799999993294477 0.06000000074505806
v -0.05000000074505806 1.6200000006705522 -0.04000000074505806
v -0.05000000074505806 1.6200000006705522 0.06000000074505806
v -0.05000000074505806 1.6799999993294477 -0.04000000074505806
v 0.05000000074505806 1.6799999993294477 -0.04000000074505806
v -0.05000000074505806 1.6799999993294477 0.06000000074505806
v 0.05000000074505806 1.6799999993294477 0.06000000074505806
v -0.05000000074505806 1.6200000006705522 0.06000000074505806
v 0.05000000074505806 1.6200000006705522 0.06000000074505806
v -0.05000000074505806 1.6200000006705522 -0.04000000074505806
v 0.05000000074505806 1.6200000006705522 -0.04000000074505806
v -0.05000000074505806 1.6799999993294477 0.06000000074505806
v 0.05000000074505806 1.6799999993294477 0.06000000074505806
v -0.05000000074505806 1.6200000006705522 0.06000000074505806
v 0.05000000074505806 1.6200000006705522 0.06000000074505806
v 0.05000000074505806 1.6799999993294477 -0.04000000074505806
v -0.05000000074505806 1.6799999993294477 -0.04000000074505806
v 0.05000000074505806 1.6200000006705522 -0.04000000074505806
v -0.05000000074505806 1.6200000006705522 -0.04000000074505806
vt 0 1
vt 1 1
vt 0 0
vt 1 0
vt 0 1
vt 1 1
vt 0 0
vt 1 0
vt 0 1
vt 1 1
vt 0 0
vt 1 0
vt 0 1
vt 1 1
vt 0 0
vt 1 0
vt 0 1
vt 1 1
vt 0 0
vt 1 0
vt 0 1
vt 1 1
vt 0 0
vt 1 0
vn 1 0 0
vn 1 0 0
vn 1 0 0
vn 1 0 0
vn -1 0 0
vn -1 0 0
vn -1 0 0
vn -1 0 0
vn 0 1 0
vn 0 1 0
vn 0 1 0
vn 0 1 0
vn 0 -1 0
vn 0 -1 0
vn 0 -1 0
vn 0 -1 0
vn 0 0 1
vn 0 0 1
vn 0 0 1
vn 0 0 1
vn 0 0 -1
vn 0 0 -1
vn 0 0 -1
vn 0 0 -1
f 233/233/233 235/235/235 234/234/234
f 235/235/235 236/236/236 234/234/234
f 237/237/237 239/239/239 238/238/238
f 239/239/239 240/240/240 238/238/238
f 241/241/241 243/243/243 242/242/242
f 243/243/243 244/244/244 242/242/242
f 245/245/245 247/247/247 246/246/246
f 247/247/247 248/248/248 246/246/246
f 249/249/249 251/251/251 250/250/250
f 251/251/251 252/252/252 250/250/250
f 253/253/253 255/255/255 254/254/254
f 255/255/255 256/256/256 254/254/254
