mtllib SM_StreetLight_01.mtl
o base_plinth
usemtl SURF_Concrete_Kerb
v 0.20999999344348907 0.1599999964237213 -1.0350000140070916
v 0.20999999344348907 0.1599999964237213 -1.4550000008940698
v 0.20999999344348907 0 -1.0350000140070916
v 0.20999999344348907 0 -1.4550000008940698
v -0.20999999344348907 0.1599999964237213 -1.4550000008940698
v -0.20999999344348907 0.1599999964237213 -1.0350000140070916
v -0.20999999344348907 0 -1.4550000008940698
v -0.20999999344348907 0 -1.0350000140070916
v -0.20999999344348907 0.1599999964237213 -1.4550000008940698
v 0.20999999344348907 0.1599999964237213 -1.4550000008940698
v -0.20999999344348907 0.1599999964237213 -1.0350000140070916
v 0.20999999344348907 0.1599999964237213 -1.0350000140070916
v -0.20999999344348907 0 -1.0350000140070916
v 0.20999999344348907 0 -1.0350000140070916
v -0.20999999344348907 0 -1.4550000008940698
v 0.20999999344348907 0 -1.4550000008940698
v -0.20999999344348907 0.1599999964237213 -1.0350000140070916
v 0.20999999344348907 0.1599999964237213 -1.0350000140070916
v -0.20999999344348907 0 -1.0350000140070916
v 0.20999999344348907 0 -1.0350000140070916
v 0.20999999344348907 0.1599999964237213 -1.4550000008940698
v -0.20999999344348907 0.1599999964237213 -1.4550000008940698
v 0.20999999344348907 0 -1.4550000008940698
v -0.20999999344348907 0 -1.4550000008940698
vt 0 1
vt 1 1
vt 0 0
vt 1 0
vt 0 1
vt 1 1
vt 0 0
vt 1 0
vt 0 1
vt 1 1
vt 0 0
vt 1 0
vt 0 1
vt 1 1
vt 0 0
vt 1 0
vt 0 1
vt 1 1
vt 0 0
vt 1 0
vt 0 1
vt 1 1
vt 0 0
vt 1 0
vn 1 0 0
vn 1 0 0
vn 1 0 0
vn 1 0 0
vn -1 0 0
vn -1 0 0
vn -1 0 0
vn -1 0 0
vn 0 1 0
vn 0 1 0
vn 0 1 0
vn 0 1 0
vn 0 -1 0
vn 0 -1 0
vn 0 -1 0
vn 0 -1 0
vn 0 0 1
vn 0 0 1
vn 0 0 1
vn 0 0 1
vn 0 0 -1
vn 0 0 -1
vn 0 0 -1
vn 0 0 -1
f 1/1/1 3/3/3 2/2/2
f 3/3/3 4/4/4 2/2/2
f 5/5/5 7/7/7 6/6/6
f 7/7/7 8/8/8 6/6/6
f 9/9/9 11/11/11 10/10/10
f 11/11/11 12/12/12 10/10/10
f 13/13/13 15/15/15 14/14/14
f 15/15/15 16/16/16 14/14/14
f 17/17/17 19/19/19 18/18/18
f 19/19/19 20/20/20 18/18/18
f 21/21/21 23/23/23 22/22/22
f 23/23/23 24/24/24 22/22/22
o base_collar
usemtl SURF_Steel_Painted
v 0 0.6599999982118606 -1.0950000014901162
v 0.08816778659820557 0.6599999982118606 -1.1236474615335466
v 0.14265847206115723 0.6599999982118606 -1.1986474570631982
v 0.14265847206115723 0.6599999982118606 -1.2913525578379632
v 0.08816778659820557 0.6599999982118606 -1.3663525533676149
v 1.8369702788777518e-17 0.6599999982118606 -1.3950000134110452
v -0.08816778659820557 0.6599999982118606 -1.3663525533676149
v -0.14265847206115723 0.6599999982118606 -1.2913525578379632
v -0.14265847206115723 0.6599999982118606 -1.1986474570631982
v -0.08816778659820557 0.6599999982118606 -1.1236474615335466
v -3.6739405577555036e-17 0.6599999982118606 -1.0950000014901162
v 0 0.15999999821186062 -1.0550000098347665
v 0.11167919635772705 0.15999999821186062 -1.0912867811322213
v 0.18070073425769806 0.15999999821186062 -1.1862867799401284
v 0.18070073425769806 0.15999999821186062 -1.303713234961033
v 0.11167919635772705 0.15999999821186062 -1.39871323376894
v 2.32682895373737e-17 0.15999999821186062 -1.435000005066395
v -0.11167919635772705 0.15999999821186062 -1.39871323376894
v -0.18070073425769806 0.15999999821186062 -1.303713234961033
v -0.18070073425769806 0.15999999821186062 -1.1862867799401284
v -0.11167919635772705 0.15999999821186062 -1.0912867811322213
v -4.65365790747474e-17 0.15999999821186062 -1.0550000098347665
v 0 0.6599999982118606 -1.2450000074505807
v 0 0.6599999982118606 -1.2450000074505807
v 0 0.6599999982118606 -1.2450000074505807
v 0 0.6599999982118606 -1.2450000074505807
v 0 0.6599999982118606 -1.2450000074505807
v 0 0.6599999982118606 -1.2450000074505807
v 0 0.6599999982118606 -1.2450000074505807
v 0 0.6599999982118606 -1.2450000074505807
v 0 0.6599999982118606 -1.2450000074505807
v 0 0.6599999982118606 -1.2450000074505807
v 0 0.6599999982118606 -1.0950000014901162
v 0.08816778659820557 0.6599999982118606 -1.1236474615335466
v 0.14265847206115723 0.6599999982118606 -1.1986474570631982
v 0.14265847206115723 0.6599999982118606 -1.2913525578379632
v 0.08816778659820557 0.6599999982118606 -1.3663525533676149
v 1.8369702788777518e-17 0.6599999982118606 -1.3950000134110452
v -0.08816778659820557 0.6599999982118606 -1.3663525533676149
v -0.14265847206115723 0.6599999982118606 -1.2913525578379632
v -0.14265847206115723 0.6599999982118606 -1.1986474570631982
v -0.08816778659820557 0.6599999982118606 -1.1236474615335466
v -3.6739405577555036e-17 0.6599999982118606 -1.0950000014901162
v 0 0.15999999821186062 -1.2450000074505807
v 0 0.15999999821186062 -1.2450000074505807
v 0 0.15999999821186062 -1.2450000074505807
v 0 0.15999999821186062 -1.2450000074505807
v 0 0.15999999821186062 -1.2450000074505807
v 0 0.15999999821186062 -1.2450000074505807
v 0 0.15999999821186062 -1.2450000074505807
v 0 0.15999999821186062 -1.2450000074505807
v 0 0.15999999821186062 -1.2450000074505807
v 0 0.15999999821186062 -1.2450000074505807
v 0 0.15999999821186062 -1.0550000098347665
v 0.11167919635772705 0.15999999821186062 -1.0912867811322213
v 0.18070073425769806 0.15999999821186062 -1.1862867799401284
v 0.18070073425769806 0.15999999821186062 -1.303713234961033
v 0.11167919635772705 0.15999999821186062 -1.39871323376894
v 2.32682895373737e-17 0.15999999821186062 -1.435000005066395
v -0.11167919635772705 0.15999999821186062 -1.39871323376894
v -0.18070073425769806 0.15999999821186062 -1.303713234961033
v -0.18070073425769806 0.15999999821186062 -1.1862867799401284
v -0.11167919635772705 0.15999999821186062 -1.0912867811322213
v -4.65365790747474e-17 0.15999999821186062 -1.0550000098347665
vt 0 1
vt 0.10000000149011612 1
vt 0.20000000298023224 1
vt 0.30000001192092896 1
vt 0.4000000059604645 1
vt 0.5 1
vt 0.6000000238418579 1
vt 0.699999988079071 1
vt 0.800000011920929 1
vt 0.8999999761581421 1
vt 1 1
vt 0 0
vt 0.10000000149011612 0
vt 0.20000000298023224 0
vt 0.30000001192092896 0
vt 0.4000000059604645 0
vt 0.5 0
vt 0.6000000238418579 0
vt 0.699999988079071 0
vt 0.800000011920929 0
vt 0.8999999761581421 0
vt 1 0
vt 0.5 0.5
vt 0.5 0.5
vt 0.5 0.5
vt 0.5 0.5
vt 0.5 0.5
vt 0.5 0.5
vt 0.5 0.5
vt 0.5 0.5
vt 0.5 0.5
vt 0.5 0.5
vt 1 0.5
vt 0.9045084714889526 0.7938926219940186
vt 0.6545084714889526 0.9755282402038574
vt 0.345491498708725 0.9755282402038574
vt 0.09549150615930557 0.7938926219940186
vt 0 0.5
vt 0.09549150615930557 0.20610737800598145
vt 0.345491498708725 0.024471741169691086
vt 0.6545084714889526 0.024471741169691086
vt 0.9045084714889526 0.20610737800598145
vt 1 0.5
vt 0.5 0.5
vt 0.5 0.5
vt 0.5 0.5
vt 0.5 0.5
vt 0.5 0.5
vt 0.5 0.5
vt 0.5 0.5
vt 0.5 0.5
vt 0.5 0.5
vt 0.5 0.5
vt 1 0.5
vt 0.9045084714889526 0.20610737800598145
vt 0.6545084714889526 0.024471741169691086
vt 0.345491498708725 0.024471741169691086
vt 0.09549150615930557 0.20610737800598145
vt 0 0.5
vt 0.09549150615930557 0.7938926219940186
vt 0.345491498708725 0.9755282402038574
vt 0.6545084714889526 0.9755282402038574
vt 0.9045084714889526 0.7938926219940186
vt 1 0.5
vn 0 0.07974522672481013 0.9968152781807713
vn 0.5859133202657424 0.07974522829661265 0.8064404997884809
vn 0.9480276637469084 0.07974522505010272 0.30803286813631936
vn 0.9480276637469084 0.07974522505010272 -0.30803286813631936
vn 0.5859133202657424 0.07974522829661265 -0.8064404997884809
vn 1.2207466800006396e-16 0.07974522672481013 -0.9968152781807713
vn -0.5859133202657424 0.07974522829661265 -0.8064404997884809
vn -0.9480276637469084 0.07974522505010272 -0.30803286813631936
vn -0.9480276637469084 0.07974522505010272 0.30803286813631936
vn -0.5859133202657424 0.07974522829661265 0.8064404997884809
vn -2.441493360001279e-16 0.07974522672481013 0.9968152781807713
vn 0 0.07974522672481013 0.9968152781807713
vn 0.5859133202657424 0.07974522829661265 0.8064404997884809
vn 0.9480276637469084 0.07974522505010272 0.30803286813631936
vn 0.9480276637469084 0.07974522505010272 -0.30803286813631936
vn 0.5859133202657424 0.07974522829661265 -0.8064404997884809
vn 1.2207466800006396e-16 0.07974522672481013 -0.9968152781807713
vn -0.5859133202657424 0.07974522829661265 -0.8064404997884809
vn -0.9480276637469084 0.07974522505010272 -0.30803286813631936
vn -0.9480276637469084 0.07974522505010272 0.30803286813631936
vn -0.5859133202657424 0.07974522829661265 0.8064404997884809
vn -2.441493360001279e-16 0.07974522672481013 0.9968152781807713
vn 0 1 0
vn 0 1 0
vn 0 1 0
vn 0 1 0
vn 0 1 0
vn 0 1 0
vn 0 1 0
vn 0 1 0
vn 0 1 0
vn 0 1 0
vn 0 1 0
vn 0 1 0
vn 0 1 0
vn 0 1 0
vn 0 1 0
vn 0 1 0
vn 0 1 0
vn 0 1 0
vn 0 1 0
vn 0 1 0
vn 0 1 0
vn 0 -1 0
vn 0 -1 0
vn 0 -1 0
vn 0 -1 0
vn 0 -1 0
vn 0 -1 0
vn 0 -1 0
vn 0 -1 0
vn 0 -1 0
vn 0 -1 0
vn 0 -1 0
vn 0 -1 0
vn 0 -1 0
vn 0 -1 0
vn 0 -1 0
vn 0 -1 0
vn 0 -1 0
vn 0 -1 0
vn 0 -1 0
vn 0 -1 0
vn 0 -1 0
f 25/25/25 36/36/36 26/26/26
f 36/36/36 37/37/37 26/26/26
f 26/26/26 37/37/37 27/27/27
f 37/37/37 38/38/38 27/27/27
f 27/27/27 38/38/38 28/28/28
f 38/38/38 39/39/39 28/28/28
f 28/28/28 39/39/39 29/29/29
f 39/39/39 40/40/40 29/29/29
f 29/29/29 40/40/40 30/30/30
f 40/40/40 41/41/41 30/30/30
f 30/30/30 41/41/41 31/31/31
f 41/41/41 42/42/42 31/31/31
f 31/31/31 42/42/42 32/32/32
f 42/42/42 43/43/43 32/32/32
f 32/32/32 43/43/43 33/33/33
f 43/43/43 44/44/44 33/33/33
f 33/33/33 44/44/44 34/34/34
f 44/44/44 45/45/45 34/34/34
f 34/34/34 45/45/45 35/35/35
f 45/45/45 46/46/46 35/35/35
f 57/57/57 58/58/58 47/47/47
f 58/58/58 59/59/59 48/48/48
f 59/59/59 60/60/60 49/49/49
f 60/60/60 61/61/61 50/50/50
f 61/61/61 62/62/62 51/51/51
f 62/62/62 63/63/63 52/52/52
f 63/63/63 64/64/64 53/53/53
f 64/64/64 65/65/65 54/54/54
f 65/65/65 66/66/66 55/55/55
f 66/66/66 67/67/67 56/56/56
f 79/79/79 78/78/78 68/68/68
f 80/80/80 79/79/79 69/69/69
f 81/81/81 80/80/80 70/70/70
f 82/82/82 81/81/81 71/71/71
f 83/83/83 82/82/82 72/72/72
f 84/84/84 83/83/83 73/73/73
f 85/85/85 84/84/84 74/74/74
f 86/86/86 85/85/85 75/75/75
f 87/87/87 86/86/86 76/76/76
f 88/88/88 87/87/87 77/77/77
o access_hatch
usemtl SURF_Steel_Rust
v 0.06499999761581421 0.5699999934434891 -1.0400000077858569
v 0.06499999761581421 0.5699999934434891 -1.0700000071153046
v 0.06499999761581421 0.3100000029802322 -1.0400000077858569
v 0.06499999761581421 0.3100000029802322 -1.0700000071153046
v -0.06499999761581421 0.5699999934434891 -1.0700000071153046
v -0.06499999761581421 0.5699999934434891 -1.0400000077858569
v -0.06499999761581421 0.3100000029802322 -1.0700000071153046
v -0.06499999761581421 0.3100000029802322 -1.0400000077858569
v -0.06499999761581421 0.5699999934434891 -1.0700000071153046
v 0.06499999761581421 0.5699999934434891 -1.0700000071153046
v -0.06499999761581421 0.5699999934434891 -1.0400000077858569
v 0.06499999761581421 0.5699999934434891 -1.0400000077858569
v -0.06499999761581421 0.3100000029802322 -1.0400000077858569
v 0.06499999761581421 0.3100000029802322 -1.0400000077858569
v -0.06499999761581421 0.3100000029802322 -1.0700000071153046
v 0.06499999761581421 0.3100000029802322 -1.0700000071153046
v -0.06499999761581421 0.5699999934434891 -1.0400000077858569
v 0.06499999761581421 0.5699999934434891 -1.0400000077858569
v -0.06499999761581421 0.3100000029802322 -1.0400000077858569
v 0.06499999761581421 0.3100000029802322 -1.0400000077858569
v 0.06499999761581421 0.5699999934434891 -1.0700000071153046
v -0.06499999761581421 0.5699999934434891 -1.0700000071153046
v 0.06499999761581421 0.3100000029802322 -1.0700000071153046
v -0.06499999761581421 0.3100000029802322 -1.0700000071153046
vt 0 1
vt 1 1
vt 0 0
vt 1 0
vt 0 1
vt 1 1
vt 0 0
vt 1 0
vt 0 1
vt 1 1
vt 0 0
vt 1 0
vt 0 1
vt 1 1
vt 0 0
vt 1 0
vt 0 1
vt 1 1
vt 0 0
vt 1 0
vt 0 1
vt 1 1
vt 0 0
vt 1 0
vn 1 0 0
vn 1 0 0
vn 1 0 0
vn 1 0 0
vn -1 0 0
vn -1 0 0
vn -1 0 0
vn -1 0 0
vn 0 1 0
vn 0 1 0
vn 0 1 0
vn 0 1 0
vn 0 -1 0
vn 0 -1 0
vn 0 -1 0
vn 0 -1 0
vn 0 0 1
vn 0 0 1
vn 0 0 1
vn 0 0 1
vn 0 0 -1
vn 0 0 -1
vn 0 0 -1
vn 0 0 -1
f 89/89/89 91/91/91 90/90/90
f 91/91/91 92/92/92 90/90/90
f 93/93/93 95/95/95 94/94/94
f 95/95/95 96/96/96 94/94/94
f 97/97/97 99/99/99 98/98/98
f 99/99/99 100/100/100 98/98/98
f 101/101/101 103/103/103 102/102/102
f 103/103/103 104/104/104 102/102/102
f 105/105/105 107/107/107 106/106/106
f 107/107/107 108/108/108 106/106/106
f 109/109/109 111/111/111 110/110/110
f 111/111/111 112/112/112 110/110/110
o pole_shaft
usemtl SURF_Steel_Painted
v 0 6.060000045895576 -1.1700000044703485
v 0.04408389329910278 6.060000045895576 -1.1843237344920636
v 0.07132923603057861 6.060000045895576 -1.2218237322568894
v 0.07132923603057861 6.060000045895576 -1.268176282644272
v 0.04408389329910278 6.060000045895576 -1.3056762804090978
v 9.184851394388759e-18 6.060000045895576 -1.320000010430813
v -0.04408389329910278 6.060000045895576 -1.3056762804090978
v -0.07132923603057861 6.060000045895576 -1.268176282644272
v -0.07132923603057861 6.060000045895576 -1.2218237322568894
v -0.04408389329910278 6.060000045895576 -1.1843237344920636
v -1.8369702788777518e-17 6.060000045895576 -1.1700000044703485
v 0 0.6599999505281446 -1.1150000122189523
v 0.07641208171844482 0.6599999505281446 -1.1398277980089189
v 0.12363734841346741 0.6599999505281446 -1.2048277993500234
v 0.12363734841346741 0.6599999505281446 -1.285172215551138
v 0.07641208171844482 0.6599999505281446 -1.3501722168922425
v 1.5920407760118202e-17 0.6599999505281446 -1.3750000026822091
v -0.07641208171844482 0.6599999505281446 -1.3501722168922425
v -0.12363734841346741 0.6599999505281446 -1.285172215551138
v -0.12363734841346741 0.6599999505281446 -1.2048277993500234
v -0.07641208171844482 0.6599999505281446 -1.1398277980089189
v -3.1840815520236404e-17 0.6599999505281446 -1.1150000122189523
v 0 6.060000045895576 -1.2450000074505807
v 0 6.060000045895576 -1.2450000074505807
v 0 6.060000045895576 -1.2450000074505807
v 0 6.060000045895576 -1.2450000074505807
v 0 6.060000045895576 -1.2450000074505807
v 0 6.060000045895576 -1.2450000074505807
v 0 6.060000045895576 -1.2450000074505807
v 0 6.060000045895576 -1.2450000074505807
v 0 6.060000045895576 -1.2450000074505807
v 0 6.060000045895576 -1.2450000074505807
v 0 6.060000045895576 -1.1700000044703485
v 0.04408389329910278 6.060000045895576 -1.1843237344920636
v 0.07132923603057861 6.060000045895576 -1.2218237322568894
v 0.07132923603057861 6.060000045895576 -1.268176282644272
v 0.04408389329910278 6.060000045895576 -1.3056762804090978
v 9.184851394388759e-18 6.060000045895576 -1.320000010430813
v -0.04408389329910278 6.060000045895576 -1.3056762804090978
v -0.07132923603057861 6.060000045895576 -1.268176282644272
v -0.07132923603057861 6.060000045895576 -1.2218237322568894
v -0.04408389329910278 6.060000045895576 -1.1843237344920636
v -1.8369702788777518e-17 6.060000045895576 -1.1700000044703485
v 0 0.6599999505281446 -1.2450000074505807
v 0 0.6599999505281446 -1.2450000074505807
v 0 0.6599999505281446 -1.2450000074505807
v 0 0.6599999505281446 -1.2450000074505807
v 0 0.6599999505281446 -1.2450000074505807
v 0 0.6599999505281446 -1.2450000074505807
v 0 0.6599999505281446 -1.2450000074505807
v 0 0.6599999505281446 -1.2450000074505807
v 0 0.6599999505281446 -1.2450000074505807
v 0 0.6599999505281446 -1.2450000074505807
v 0 0.6599999505281446 -1.1150000122189523
v 0.07641208171844482 0.6599999505281446 -1.1398277980089189
v 0.12363734841346741 0.6599999505281446 -1.2048277993500234
v 0.12363734841346741 0.6599999505281446 -1.285172215551138
v 0.07641208171844482 0.6599999505281446 -1.3501722168922425
v 1.5920407760118202e-17 0.6599999505281446 -1.3750000026822091
v -0.07641208171844482 0.6599999505281446 -1.3501722168922425
v -0.12363734841346741 0.6599999505281446 -1.285172215551138
v -0.12363734841346741 0.6599999505281446 -1.2048277993500234
v -0.07641208171844482 0.6599999505281446 -1.1398277980089189
v -3.1840815520236404e-17 0.6599999505281446 -1.1150000122189523
vt 0 1
vt 0.10000000149011612 1
vt 0.20000000298023224 1
vt 0.30000001192092896 1
vt 0.4000000059604645 1
vt 0.5 1
vt 0.6000000238418579 1
vt 0.699999988079071 1
vt 0.800000011920929 1
vt 0.8999999761581421 1
vt 1 1
vt 0 0
vt 0.10000000149011612 0
vt 0.20000000298023224 0
vt 0.30000001192092896 0
vt 0.4000000059604645 0
vt 0.5 0
vt 0.6000000238418579 0
vt 0.699999988079071 0
vt 0.800000011920929 0
vt 0.8999999761581421 0
vt 1 0
vt 0.5 0.5
vt 0.5 0.5
vt 0.5 0.5
vt 0.5 0.5
vt 0.5 0.5
vt 0.5 0.5
vt 0.5 0.5
vt 0.5 0.5
vt 0.5 0.5
vt 0.5 0.5
vt 1 0.5
vt 0.9045084714889526 0.7938926219940186
vt 0.6545084714889526 0.9755282402038574
vt 0.345491498708725 0.9755282402038574
vt 0.09549150615930557 0.7938926219940186
vt 0 0.5
vt 0.09549150615930557 0.20610737800598145
vt 0.345491498708725 0.024471741169691086
vt 0.6545084714889526 0.024471741169691086
vt 0.9045084714889526 0.20610737800598145
vt 1 0.5
vt 0.5 0.5
vt 0.5 0.5
vt 0.5 0.5
vt 0.5 0.5
vt 0.5 0.5
vt 0.5 0.5
vt 0.5 0.5
vt 0.5 0.5
vt 0.5 0.5
vt 0.5 0.5
vt 1 0.5
vt 0.9045084714889526 0.20610737800598145
vt 0.6545084714889526 0.024471741169691086
vt 0.345491498708725 0.024471741169691086
vt 0.09549150615930557 0.20610737800598145
vt 0 0.5
vt 0.09549150615930557 0.7938926219940186
vt 0.345491498708725 0.9755282402038574
vt 0.6545084714889526 0.9755282402038574
vt 0.9045084714889526 0.7938926219940186
vt 1 0.5
vn 0 0.010184656737785298 0.9999481350385797
vn 0.5877547764525735 0.010184656662951161 0.8089750277516874
vn 0.9510071890502301 0.01018465684667368 0.30900096948018724
vn 0.9510071890502301 0.01018465684667368 -0.30900096948018724
vn 0.5877547764525735 0.010184656662951161 -0.8089750277516874
vn 1.2245833141897036e-16 0.010184656737785298 -0.9999481350385797
vn -0.5877547764525735 0.010184656662951161 -0.8089750277516874
vn -0.9510071890502301 0.01018465684667368 -0.30900096948018724
vn -0.9510071890502301 0.01018465684667368 0.30900096948018724
vn -0.5877547764525735 0.010184656662951161 0.8089750277516874
vn -2.449166628379407e-16 0.010184656737785298 0.9999481350385797
vn 0 0.010184656737785298 0.9999481350385797
vn 0.5877547764525735 0.010184656662951161 0.8089750277516874
vn 0.9510071890502301 0.01018465684667368 0.30900096948018724
vn 0.9510071890502301 0.01018465684667368 -0.30900096948018724
vn 0.5877547764525735 0.010184656662951161 -0.8089750277516874
vn 1.2245833141897036e-16 0.010184656737785298 -0.9999481350385797
vn -0.5877547764525735 0.010184656662951161 -0.8089750277516874
vn -0.9510071890502301 0.01018465684667368 -0.30900096948018724
vn -0.9510071890502301 0.01018465684667368 0.30900096948018724
vn -0.5877547764525735 0.010184656662951161 0.8089750277516874
vn -2.449166628379407e-16 0.010184656737785298 0.9999481350385797
vn 0 1 0
vn 0 1 0
vn 0 1 0
vn 0 1 0
vn 0 1 0
vn 0 1 0
vn 0 1 0
vn 0 1 0
vn 0 1 0
vn 0 1 0
vn 0 1 0
vn 0 1 0
vn 0 1 0
vn 0 1 0
vn 0 1 0
vn 0 1 0
vn 0 1 0
vn 0 1 0
vn 0 1 0
vn 0 1 0
vn 0 1 0
vn 0 -1 0
vn 0 -1 0
vn 0 -1 0
vn 0 -1 0
vn 0 -1 0
vn 0 -1 0
vn 0 -1 0
vn 0 -1 0
vn 0 -1 0
vn 0 -1 0
vn 0 -1 0
vn 0 -1 0
vn 0 -1 0
vn 0 -1 0
vn 0 -1 0
vn 0 -1 0
vn 0 -1 0
vn 0 -1 0
vn 0 -1 0
vn 0 -1 0
vn 0 -1 0
f 113/113/113 124/124/124 114/114/114
f 124/124/124 125/125/125 114/114/114
f 114/114/114 125/125/125 115/115/115
f 125/125/125 126/126/126 115/115/115
f 115/115/115 126/126/126 116/116/116
f 126/126/126 127/127/127 116/116/116
f 116/116/116 127/127/127 117/117/117
f 127/127/127 128/128/128 117/117/117
f 117/117/117 128/128/128 118/118/118
f 128/128/128 129/129/129 118/118/118
f 118/118/118 129/129/129 119/119/119
f 129/129/129 130/130/130 119/119/119
f 119/119/119 130/130/130 120/120/120
f 130/130/130 131/131/131 120/120/120
f 120/120/120 131/131/131 121/121/121
f 131/131/131 132/132/132 121/121/121
f 121/121/121 132/132/132 122/122/122
f 132/132/132 133/133/133 122/122/122
f 122/122/122 133/133/133 123/123/123
f 133/133/133 134/134/134 123/123/123
f 145/145/145 146/146/146 135/135/135
f 146/146/146 147/147/147 136/136/136
f 147/147/147 148/148/148 137/137/137
f 148/148/148 149/149/149 138/138/138
f 149/149/149 150/150/150 139/139/139
f 150/150/150 151/151/151 140/140/140
f 151/151/151 152/152/152 141/141/141
f 152/152/152 153/153/153 142/142/142
f 153/153/153 154/154/154 143/143/143
f 154/154/154 155/155/155 144/144/144
f 167/167/167 166/166/166 156/156/156
f 168/168/168 167/167/167 157/157/157
f 169/169/169 168/168/168 158/158/158
f 170/170/170 169/169/169 159/159/159
f 171/171/171 170/170/170 160/160/160
f 172/172/172 171/171/171 161/161/161
f 173/173/173 172/172/172 162/162/162
f 174/174/174 173/173/173 163/163/163
f 175/175/175 174/174/174 164/164/164
f 176/176/176 175/175/175 165/165/165
o arm_knuckle
usemtl SURF_Steel_Painted
v 0 6.1200000017881395 -1.1450000059604646
v 0.05877852439880371 6.1200000017881395 -1.164098310172558
v 0.09510564804077148 6.1200000017881395 -1.2140983071923257
v 0.09510564804077148 6.1200000017881395 -1.2759017077088357
v 0.05877852439880371 6.1200000017881395 -1.3259017047286035
v 1.2246467698671066e-17 6.1200000017881395 -1.3450000089406968
v -0.05877852439880371 6.1200000017881395 -1.3259017047286035
v -0.09510564804077148 6.1200000017881395 -1.2759017077088357
v -0.09510564804077148 6.1200000017881395 -1.2140983071923257
v -0.05877852439880371 6.1200000017881395 -1.164098310172558
v -2.4492935397342132e-17 6.1200000017881395 -1.1450000059604646
v 0 5.939999994635582 -1.1450000059604646
v 0.05877852439880371 5.939999994635582 -1.164098310172558
v 0.09510564804077148 5.939999994635582 -1.2140983071923257
v 0.09510564804077148 5.939999994635582 -1.2759017077088357
v 0.05877852439880371 5.939999994635582 -1.3259017047286035
v 1.2246467698671066e-17 5.939999994635582 -1.3450000089406968
v -0.05877852439880371 5.939999994635582 -1.3259017047286035
v -0.09510564804077148 5.939999994635582 -1.2759017077088357
v -0.09510564804077148 5.939999994635582 -1.2140983071923257
v -0.05877852439880371 5.939999994635582 -1.164098310172558
v -2.4492935397342132e-17 5.939999994635582 -1.1450000059604646
v 0 6.1200000017881395 -1.2450000074505807
v 0 6.1200000017881395 -1.2450000074505807
v 0 6.1200000017881395 -1.2450000074505807
v 0 6.1200000017881395 -1.2450000074505807
v 0 6.1200000017881395 -1.2450000074505807
v 0 6.1200000017881395 -1.2450000074505807
v 0 6.1200000017881395 -1.2450000074505807
v 0 6.1200000017881395 -1.2450000074505807
v 0 6.1200000017881395 -1.2450000074505807
v 0 6.1200000017881395 -1.2450000074505807
v 0 6.1200000017881395 -1.1450000059604646
v 0.05877852439880371 6.1200000017881395 -1.164098310172558
v 0.09510564804077148 6.1200000017881395 -1.2140983071923257
v 0.09510564804077148 6.1200000017881395 -1.2759017077088357
v 0.05877852439880371 6.1200000017881395 -1.3259017047286035
v 1.2246467698671066e-17 6.1200000017881395 -1.3450000089406968
v -0.05877852439880371 6.1200000017881395 -1.3259017047286035
v -0.09510564804077148 6.1200000017881395 -1.2759017077088357
v -0.09510564804077148 6.1200000017881395 -1.2140983071923257
v -0.05877852439880371 6.1200000017881395 -1.164098310172558
v -2.4492935397342132e-17 6.1200000017881395 -1.1450000059604646
v 0 5.939999994635582 -1.2450000074505807
v 0 5.939999994635582 -1.2450000074505807
v 0 5.939999994635582 -1.2450000074505807
v 0 5.939999994635582 -1.2450000074505807
v 0 5.939999994635582 -1.2450000074505807
v 0 5.939999994635582 -1.2450000074505807
v 0 5.939999994635582 -1.2450000074505807
v 0 5.939999994635582 -1.2450000074505807
v 0 5.939999994635582 -1.2450000074505807
v 0 5.939999994635582 -1.2450000074505807
v 0 5.939999994635582 -1.1450000059604646
v 0.05877852439880371 5.939999994635582 -1.164098310172558
v 0.09510564804077148 5.939999994635582 -1.2140983071923257
v 0.09510564804077148 5.939999994635582 -1.2759017077088357
v 0.05877852439880371 5.939999994635582 -1.3259017047286035
v 1.2246467698671066e-17 5.939999994635582 -1.3450000089406968
v -0.05877852439880371 5.939999994635582 -1.3259017047286035
v -0.09510564804077148 5.939999994635582 -1.2759017077088357
v -0.09510564804077148 5.939999994635582 -1.2140983071923257
v -0.05877852439880371 5.939999994635582 -1.164098310172558
v -2.4492935397342132e-17 5.939999994635582 -1.1450000059604646
vt 0 1
vt 0.10000000149011612 1
vt 0.20000000298023224 1
vt 0.30000001192092896 1
vt 0.4000000059604645 1
vt 0.5 1
vt 0.6000000238418579 1
vt 0.699999988079071 1
vt 0.800000011920929 1
vt 0.8999999761581421 1
vt 1 1
vt 0 0
vt 0.10000000149011612 0
vt 0.20000000298023224 0
vt 0.30000001192092896 0
vt 0.4000000059604645 0
vt 0.5 0
vt 0.6000000238418579 0
vt 0.699999988079071 0
vt 0.800000011920929 0
vt 0.8999999761581421 0
vt 1 0
vt 0.5 0.5
vt 0.5 0.5
vt 0.5 0.5
vt 0.5 0.5
vt 0.5 0.5
vt 0.5 0.5
vt 0.5 0.5
vt 0.5 0.5
vt 0.5 0.5
vt 0.5 0.5
vt 1 0.5
vt 0.9045084714889526 0.7938926219940186
vt 0.6545084714889526 0.9755282402038574
vt 0.345491498708725 0.9755282402038574
vt 0.09549150615930557 0.7938926219940186
vt 0 0.5
vt 0.09549150615930557 0.20610737800598145
vt 0.345491498708725 0.024471741169691086
vt 0.6545084714889526 0.024471741169691086
vt 0.9045084714889526 0.20610737800598145
vt 1 0.5
vt 0.5 0.5
vt 0.5 0.5
vt 0.5 0.5
vt 0.5 0.5
vt 0.5 0.5
vt 0.5 0.5
vt 0.5 0.5
vt 0.5 0.5
vt 0.5 0.5
vt 0.5 0.5
vt 1 0.5
vt 0.9045084714889526 0.20610737800598145
vt 0.6545084714889526 0.024471741169691086
vt 0.345491498708725 0.024471741169691086
vt 0.09549150615930557 0.20610737800598145
vt 0 0.5
vt 0.09549150615930557 0.7938926219940186
vt 0.345491498708725 0.9755282402038574
vt 0.6545084714889526 0.9755282402038574
vt 0.9045084714889526 0.7938926219940186
vt 1 0.5
vn 0 0 1
vn 0.5877852429542022 0 0.8090170011595983
vn 0.9510565161477913 0 0.3090169948284817
vn 0.9510565161477913 0 -0.3090169948284817
vn 0.5877852429542022 0 -0.8090170011595983
vn 1.2246468525851679e-16 0 -1
vn -0.5877852429542022 0 -0.8090170011595983
vn -0.9510565161477913 0 -0.3090169948284817
vn -0.9510565161477913 0 0.3090169948284817
vn -0.5877852429542022 0 0.8090170011595983
vn -2.4492937051703357e-16 0 1
vn 0 0 1
vn 0.5877852429542022 0 0.8090170011595983
vn 0.9510565161477913 0 0.3090169948284817
vn 0.9510565161477913 0 -0.3090169948284817
vn 0.5877852429542022 0 -0.8090170011595983
vn 1.2246468525851679e-16 0 -1
vn -0.5877852429542022 0 -0.8090170011595983
vn -0.9510565161477913 0 -0.3090169948284817
vn -0.9510565161477913 0 0.3090169948284817
vn -0.5877852429542022 0 0.8090170011595983
vn -2.4492937051703357e-16 0 1
vn 0 1 0
vn 0 1 0
vn 0 1 0
vn 0 1 0
vn 0 1 0
vn 0 1 0
vn 0 1 0
vn 0 1 0
vn 0 1 0
vn 0 1 0
vn 0 1 0
vn 0 1 0
vn 0 1 0
vn 0 1 0
vn 0 1 0
vn 0 1 0
vn 0 1 0
vn 0 1 0
vn 0 1 0
vn 0 1 0
vn 0 1 0
vn 0 -1 0
vn 0 -1 0
vn 0 -1 0
vn 0 -1 0
vn 0 -1 0
vn 0 -1 0
vn 0 -1 0
vn 0 -1 0
vn 0 -1 0
vn 0 -1 0
vn 0 -1 0
vn 0 -1 0
vn 0 -1 0
vn 0 -1 0
vn 0 -1 0
vn 0 -1 0
vn 0 -1 0
vn 0 -1 0
vn 0 -1 0
vn 0 -1 0
vn 0 -1 0
f 177/177/177 188/188/188 178/178/178
f 188/188/188 189/189/189 178/178/178
f 178/178/178 189/189/189 179/179/179
f 189/189/189 190/190/190 179/179/179
f 179/179/179 190/190/190 180/180/180
f 190/190/190 191/191/191 180/180/180
f 180/180/180 191/191/191 181/181/181
f 191/191/191 192/192/192 181/181/181
f 181/181/181 192/192/192 182/182/182
f 192/192/192 193/193/193 182/182/182
f 182/182/182 193/193/193 183/183/183
f 193/193/193 194/194/194 183/183/183
f 183/183/183 194/194/194 184/184/184
f 194/194/194 195/195/195 184/184/184
f 184/184/184 195/195/195 185/185/185
f 195/195/195 196/196/196 185/185/185
f 185/185/185 196/196/196 186/186/186
f 196/196/196 197/197/197 186/186/186
f 186/186/186 197/197/197 187/187/187
f 197/197/197 198/198/198 187/187/187
f 209/209/209 210/210/210 199/199/199
f 210/210/210 211/211/211 200/200/200
f 211/211/211 212/212/212 201/201/201
f 212/212/212 213/213/213 202/202/202
f 213/213/213 214/214/214 203/203/203
f 214/214/214 215/215/215 204/204/204
f 215/215/215 216/216/216 205/205/205
f 216/216/216 217/217/217 206/206/206
f 217/217/217 218/218/218 207/207/207
f 218/218/218 219/219/219 208/208/208
f 231/231/231 230/230/230 220/220/220
f 232/232/232 231/231/231 221/221/221
f 233/233/233 232/232/232 222/222/222
f 234/234/234 233/233/233 223/223/223
f 235/235/235 234/234/234 224/224/224
f 236/236/236 235/235/235 225/225/225
f 237/237/237 236/236/236 226/226/226
f 238/238/238 237/237/237 227/227/227
f 239/239/239 238/238/238 228/228/228
f 240/240/240 239/239/239 229/229/229
o arm_rise
usemtl SURF_Steel_Painted
v 0 6.55577163275937 -0.5619491472318704
v 0.06363961100578308 6.574411245100707 -0.5805887595732073
v 0.09000000357627869 6.6194112455949705 -0.6255887600674706
v 0.06363961100578308 6.664411246089234 -0.6705887605617338
v 1.102182101152202e-17 6.683050858430571 -0.6892283729030707
v -0.06363961100578308 6.664411246089234 -0.6705887605617338
v -0.09000000357627869 6.6194112455949705 -0.6255887600674706
v -0.06363961100578308 6.574411245100707 -0.5805887595732073
v -2.204364202304404e-17 6.55577163275937 -0.5619491472318704
v 0 5.876949137993151 -1.2407716419980908
v 0.06363961100578308 5.895588750334488 -1.2594112543394276
v 0.09000000357627869 5.940588750828751 -1.3044112548336908
v 0.06363961100578308 5.985588751323014 -1.349411255327954
v 1.102182101152202e-17 6.004228363664351 -1.3680508676692908
v -0.06363961100578308 5.985588751323014 -1.349411255327954
v -0.09000000357627869 5.940588750828751 -1.3044112548336908
v -0.06363961100578308 5.895588750334488 -1.2594112543394276
v -2.204364202304404e-17 5.876949137993151 -1.2407716419980908
v 0 6.6194112455949705 -0.6255887600674706
v 0 6.6194112455949705 -0.6255887600674706
v 0 6.6194112455949705 -0.6255887600674706
v 0 6.6194112455949705 -0.6255887600674706
v 0 6.6194112455949705 -0.6255887600674706
v 0 6.6194112455949705 -0.6255887600674706
v 0 6.6194112455949705 -0.6255887600674706
v 0 6.6194112455949705 -0.6255887600674706
v 0 6.55577163275937 -0.5619491472318704
v 0.06363961100578308 6.574411245100707 -0.5805887595732073
v 0.09000000357627869 6.6194112455949705 -0.6255887600674706
v 0.06363961100578308 6.664411246089234 -0.6705887605617338
v 1.102182101152202e-17 6.683050858430571 -0.6892283729030707
v -0.06363961100578308 6.664411246089234 -0.6705887605617338
v -0.09000000357627869 6.6194112455949705 -0.6255887600674706
v -0.06363961100578308 6.574411245100707 -0.5805887595732073
v -2.204364202304404e-17 6.55577163275937 -0.5619491472318704
v 0 5.940588750828751 -1.3044112548336908
v 0 5.940588750828751 -1.3044112548336908
v 0 5.940588750828751 -1.3044112548336908
v 0 5.940588750828751 -1.3044112548336908
v 0 5.940588750828751 -1.3044112548336908
v 0 5.940588750828751 -1.3044112548336908
v 0 5.940588750828751 -1.3044112548336908
v 0 5.940588750828751 -1.3044112548336908
v 0 5.876949137993151 -1.2407716419980908
v 0.06363961100578308 5.895588750334488 -1.2594112543394276
v 0.09000000357627869 5.940588750828751 -1.3044112548336908
v 0.06363961100578308 5.985588751323014 -1.349411255327954
v 1.102182101152202e-17 6.004228363664351 -1.3680508676692908
v -0.06363961100578308 5.985588751323014 -1.349411255327954
v -0.09000000357627869 5.940588750828751 -1.3044112548336908
v -0.06363961100578308 5.895588750334488 -1.2594112543394276
v -2.204364202304404e-17 5.876949137993151 -1.2407716419980908
vt 0 1
vt 0.125 1
vt 0.25 1
vt 0.375 1
vt 0.5 1
vt 0.625 1
vt 0.75 1
vt 0.875 1
vt 1 1
vt 0 0
vt 0.125 0
vt 0.25 0
vt 0.375 0
vt 0.5 0
vt 0.625 0
vt 0.75 0
vt 0.875 0
vt 1 0
vt 0.5 0.5
vt 0.5 0.5
vt 0.5 0.5
vt 0.5 0.5
vt 0.5 0.5
vt 0.5 0.5
vt 0.5 0.5
vt 0.5 0.5
vt 1 0.5
vt 0.8535534143447876 0.8535534143447876
vt 0.5 1
vt 0.1464466154575348 0.8535534143447876
vt 0 0.5
vt 0.1464466154575348 0.1464466154575348
vt 0.5 0
vt 0.8535534143447876 0.1464466154575348
vt 1 0.5
vt 0.5 0.5
vt 0.5 0.5
vt 0.5 0.5
vt 0.5 0.5
vt 0.5 0.5
vt 0.5 0.5
vt 0.5 0.5
vt 0.5 0.5
vt 1 0.5
vt 0.8535534143447876 0.1464466154575348
vt 0.5 0
vt 0.1464466154575348 0.1464466154575348
vt 0 0.5
vt 0.1464466154575348 0.8535534143447876
vt 0.5 1
vt 0.8535534143447876 0.8535534143447876
vt 1 0.5
vn 0 -0.7071067811865476 0.7071067811865475
vn 0.7071067811865476 -0.5 0.49999999999999994
vn 1 -4.329780470108672e-17 4.3297804701086715e-17
vn 0.7071067811865476 0.5 -0.49999999999999994
vn 1.2246468525851679e-16 0.7071067811865476 -0.7071067811865475
vn -0.7071067811865476 0.5 -0.49999999999999994
vn -1 1.2989340474477984e-16 -1.298934047447798e-16
vn -0.7071067811865476 -0.5 0.49999999999999994
vn -2.4492937051703357e-16 -0.7071067811865476 0.7071067811865475
vn 0 -0.7071067811865476 0.7071067811865475
vn 0.7071067811865476 -0.5 0.49999999999999994
vn 1 -4.329780470108672e-17 4.3297804701086715e-17
vn 0.7071067811865476 0.5 -0.49999999999999994
vn 1.2246468525851679e-16 0.7071067811865476 -0.7071067811865475
vn -0.7071067811865476 0.5 -0.49999999999999994
vn -1 1.2989340474477984e-16 -1.298934047447798e-16
vn -0.7071067811865476 -0.5 0.49999999999999994
vn -2.4492937051703357e-16 -0.7071067811865476 0.7071067811865475
vn 0 0.7071067811865475 0.7071067811865476
vn 0 0.7071067811865475 0.7071067811865476
vn 0 0.7071067811865475 0.7071067811865476
vn 0 0.7071067811865475 0.7071067811865476
vn 0 0.7071067811865475 0.7071067811865476
vn 0 0.7071067811865475 0.7071067811865476
vn 0 0.7071067811865475 0.7071067811865476
vn 0 0.7071067811865475 0.7071067811865476
vn 0 0.7071067811865475 0.7071067811865476
vn 0 0.7071067811865475 0.7071067811865476
vn 0 0.7071067811865475 0.7071067811865476
vn 0 0.7071067811865475 0.7071067811865476
vn 0 0.7071067811865475 0.7071067811865476
vn 0 0.7071067811865475 0.7071067811865476
vn 0 0.7071067811865475 0.7071067811865476
vn 0 0.7071067811865475 0.7071067811865476
vn 0 0.7071067811865475 0.7071067811865476
vn 0 -0.7071067811865475 -0.7071067811865476
vn 0 -0.7071067811865475 -0.7071067811865476
vn 0 -0.7071067811865475 -0.7071067811865476
vn 0 -0.7071067811865475 -0.7071067811865476
vn 0 -0.7071067811865475 -0.7071067811865476
vn 0 -0.7071067811865475 -0.7071067811865476
vn 0 -0.7071067811865475 -0.7071067811865476
vn 0 -0.7071067811865475 -0.7071067811865476
vn 0 -0.7071067811865475 -0.7071067811865476
vn 0 -0.7071067811865475 -0.7071067811865476
vn 0 -0.7071067811865475 -0.7071067811865476
vn 0 -0.7071067811865475 -0.7071067811865476
vn 0 -0.7071067811865475 -0.7071067811865476
vn 0 -0.7071067811865475 -0.7071067811865476
vn 0 -0.7071067811865475 -0.7071067811865476
vn 0 -0.7071067811865475 -0.7071067811865476
vn 0 -0.7071067811865475 -0.7071067811865476
f 241/241/241 250/250/250 242/242/242
f 250/250/250 251/251/251 242/242/242
f 242/242/242 251/251/251 243/243/243
f 251/251/251 252/252/252 243/243/243
f 243/243/243 252/252/252 244/244/244
f 252/252/252 253/253/253 244/244/244
f 244/244/244 253/253/253 245/245/245
f 253/253/253 254/254/254 245/245/245
f 245/245/245 254/254/254 246/246/246
f 254/254/254 255/255/255 246/246/246
f 246/246/246 255/255/255 247/247/247
f 255/255/255 256/256/256 247/247/247
f 247/247/247 256/256/256 248/248/248
f 256/256/256 257/257/257 248/248/248
f 248/248/248 257/257/257 249/249/249
f 257/257/257 258/258/258 249/249/249
f 267/267/267 268/268/268 259/259/259
f 268/268/268 269/269/269 260/260/260
f 269/269/269 270/270/270 261/261/261
f 270/270/270 271/271/271 262/262/262
f 271/271/271 272/272/272 263/263/263
f 272/272/272 273/273/273 264/264/264
f 273/273/273 274/274/274 265/265/265
f 274/274/274 275/275/275 266/266/266
f 285/285/285 284/284/284 276/276/276
f 286/286/286 285/285/285 277/277/277
f 287/287/287 286/286/286 278/278/278
f 288/288/288 287/287/287 279/279/279
f 289/289/289 288/288/288 280/280/280
f 290/290/290 289/289/289 281/281/281
f 291/291/291 290/290/290 282/282/282
f 292/292/292 291/291/291 283/283/283
o arm_elbow_boss
usemtl SURF_Steel_Painted
v -0.10000000149011615 6.54999999821186 -0.5900000107288361
v -0.10000000149011616 6.611717448830604 -0.6100532260537148
v -0.10000000149011617 6.649860934615135 -0.6625532244145871
v -0.10000000149011617 6.649860934615135 -0.7274467904865742
v -0.10000000149011616 6.611717448830604 -0.7799467888474465
v -0.10000000149011615 6.54999999821186 -0.8000000041723252
v -0.10000000149011613 6.4882825475931165 -0.7799467888474465
v -0.10000000149011612 6.450139061808586 -0.7274467904865742
v -0.10000000149011612 6.450139061808586 -0.6625532244145871
v -0.10000000149011613 6.4882825475931165 -0.6100532260537148
v -0.10000000149011615 6.54999999821186 -0.5900000107288361
v 0.10000000149011615 6.54999999821186 -0.5900000107288361
v 0.10000000149011613 6.611717448830604 -0.6100532260537148
v 0.10000000149011612 6.649860934615135 -0.6625532244145871
v 0.10000000149011612 6.649860934615135 -0.7274467904865742
v 0.10000000149011613 6.611717448830604 -0.7799467888474465
v 0.10000000149011615 6.54999999821186 -0.8000000041723252
v 0.10000000149011616 6.4882825475931165 -0.7799467888474465
v 0.10000000149011617 6.450139061808586 -0.7274467904865742
v 0.10000000149011617 6.450139061808586 -0.6625532244145871
v 0.10000000149011616 6.4882825475931165 -0.6100532260537148
v 0.10000000149011615 6.54999999821186 -0.5900000107288361
v -0.10000000149011615 6.54999999821186 -0.6950000074505807
v -0.10000000149011615 6.54999999821186 -0.6950000074505807
v -0.10000000149011615 6.54999999821186 -0.6950000074505807
v -0.10000000149011615 6.54999999821186 -0.6950000074505807
v -0.10000000149011615 6.54999999821186 -0.6950000074505807
v -0.10000000149011615 6.54999999821186 -0.6950000074505807
v -0.10000000149011615 6.54999999821186 -0.6950000074505807
v -0.10000000149011615 6.54999999821186 -0.6950000074505807
v -0.10000000149011615 6.54999999821186 -0.6950000074505807
v -0.10000000149011615 6.54999999821186 -0.6950000074505807
v -0.10000000149011615 6.54999999821186 -0.5900000107288361
v -0.10000000149011616 6.611717448830604 -0.6100532260537148
v -0.10000000149011617 6.649860934615135 -0.6625532244145871
v -0.10000000149011617 6.649860934615135 -0.7274467904865742
v -0.10000000149011616 6.611717448830604 -0.7799467888474465
v -0.10000000149011615 6.54999999821186 -0.8000000041723252
v -0.10000000149011613 6.4882825475931165 -0.7799467888474465
v -0.10000000149011612 6.450139061808586 -0.7274467904865742
v -0.10000000149011612 6.450139061808586 -0.6625532244145871
v -0.10000000149011613 6.4882825475931165 -0.6100532260537148
v -0.10000000149011615 6.54999999821186 -0.5900000107288361
v 0.10000000149011615 6.54999999821186 -0.6950000074505807
v 0.10000000149011615 6.54999999821186 -0.6950000074505807
v 0.10000000149011615 6.54999999821186 -0.6950000074505807
v 0.10000000149011615 6.54999999821186 -0.6950000074505807
v 0.10000000149011615 6.54999999821186 -0.6950000074505807
v 0.10000000149011615 6.54999999821186 -0.6950000074505807
v 0.10000000149011615 6.54999999821186 -0.6950000074505807
v 0.10000000149011615 6.54999999821186 -0.6950000074505807
v 0.10000000149011615 6.54999999821186 -0.6950000074505807
v 0.10000000149011615 6.54999999821186 -0.6950000074505807
v 0.10000000149011615 6.54999999821186 -0.5900000107288361
v 0.10000000149011613 6.611717448830604 -0.6100532260537148
v 0.10000000149011612 6.649860934615135 -0.6625532244145871
v 0.10000000149011612 6.649860934615135 -0.7274467904865742
v 0.10000000149011613 6.611717448830604 -0.7799467888474465
v 0.10000000149011615 6.54999999821186 -0.8000000041723252
v 0.10000000149011616 6.4882825475931165 -0.7799467888474465
v 0.10000000149011617 6.450139061808586 -0.7274467904865742
v 0.10000000149011617 6.450139061808586 -0.6625532244145871
v 0.10000000149011616 6.4882825475931165 -0.6100532260537148
v 0.10000000149011615 6.54999999821186 -0.5900000107288361
vt 0 1
vt 0.10000000149011612 1
vt 0.20000000298023224 1
vt 0.30000001192092896 1
vt 0.4000000059604645 1
vt 0.5 1
vt 0.6000000238418579 1
vt 0.699999988079071 1
vt 0.800000011920929 1
vt 0.8999999761581421 1
vt 1 1
vt 0 0
vt 0.10000000149011612 0
vt 0.20000000298023224 0
vt 0.30000001192092896 0
vt 0.4000000059604645 0
vt 0.5 0
vt 0.6000000238418579 0
vt 0.699999988079071 0
vt 0.800000011920929 0
vt 0.8999999761581421 0
vt 1 0
vt 0.5 0.5
vt 0.5 0.5
vt 0.5 0.5
vt 0.5 0.5
vt 0.5 0.5
vt 0.5 0.5
vt 0.5 0.5
vt 0.5 0.5
vt 0.5 0.5
vt 0.5 0.5
vt 1 0.5
vt 0.9045084714889526 0.7938926219940186
vt 0.6545084714889526 0.9755282402038574
vt 0.345491498708725 0.9755282402038574
vt 0.09549150615930557 0.7938926219940186
vt 0 0.5
vt 0.09549150615930557 0.20610737800598145
vt 0.345491498708725 0.024471741169691086
vt 0.6545084714889526 0.024471741169691086
vt 0.9045084714889526 0.20610737800598145
vt 1 0.5
vt 0.5 0.5
vt 0.5 0.5
vt 0.5 0.5
vt 0.5 0.5
vt 0.5 0.5
vt 0.5 0.5
vt 0.5 0.5
vt 0.5 0.5
vt 0.5 0.5
vt 0.5 0.5
vt 1 0.5
vt 0.9045084714889526 0.20610737800598145
vt 0.6545084714889526 0.024471741169691086
vt 0.345491498708725 0.024471741169691086
vt 0.09549150615930557 0.20610737800598145
vt 0 0.5
vt 0.09549150615930557 0.7938926219940186
vt 0.345491498708725 0.9755282402038574
vt 0.6545084714889526 0.9755282402038574
vt 0.9045084714889526 0.7938926219940186
vt 1 0.5
vn 0 0 1
vn -1.3051454205252932e-16 0.5877852429542021 0.8090170011595983
vn -2.1117696838941293e-16 0.9510565161477913 0.30901699482848183
vn -2.1117696838941293e-16 0.9510565161477913 -0.30901699482848183
vn -1.3051454205252932e-16 0.5877852429542021 -0.8090170011595983
vn -2.7192622655495654e-32 1.2246468525851676e-16 -1
vn 1.3051454205252932e-16 -0.5877852429542021 -0.8090170011595983
vn 2.1117696838941293e-16 -0.9510565161477913 -0.30901699482848183
vn 2.1117696838941293e-16 -0.9510565161477913 0.30901699482848183
vn 1.3051454205252932e-16 -0.5877852429542021 0.8090170011595983
vn 5.438524531099131e-32 -2.449293705170335e-16 1
vn 0 0 1
vn -1.3051454205252932e-16 0.5877852429542021 0.8090170011595983
vn -2.1117696838941293e-16 0.9510565161477913 0.30901699482848183
vn -2.1117696838941293e-16 0.9510565161477913 -0.30901699482848183
vn -1.3051454205252932e-16 0.5877852429542021 -0.8090170011595983
vn -2.7192622655495654e-32 1.2246468525851676e-16 -1
vn 1.3051454205252932e-16 -0.5877852429542021 -0.8090170011595983
vn 2.1117696838941293e-16 -0.9510565161477913 -0.30901699482848183
vn 2.1117696838941293e-16 -0.9510565161477913 0.30901699482848183
vn 1.3051454205252932e-16 -0.5877852429542021 0.8090170011595983
vn 5.438524531099131e-32 -2.449293705170335e-16 1
vn -1 -2.2204460492503126e-16 0
vn -1 -2.2204460492503126e-16 0
vn -1 -2.2204460492503126e-16 0
vn -1 -2.2204460492503126e-16 0
vn -1 -2.2204460492503126e-16 0
vn -1 -2.2204460492503126e-16 0
vn -1 -2.2204460492503126e-16 0
vn -1 -2.2204460492503126e-16 0
vn -1 -2.2204460492503126e-16 0
vn -1 -2.2204460492503126e-16 0
vn -1 -2.2204460492503126e-16 0
vn -1 -2.2204460492503126e-16 0
vn -1 -2.2204460492503126e-16 0
vn -1 -2.2204460492503126e-16 0
vn -1 -2.2204460492503126e-16 0
vn -1 -2.2204460492503126e-16 0
vn -1 -2.2204460492503126e-16 0
vn -1 -2.2204460492503126e-16 0
vn -1 -2.2204460492503126e-16 0
vn -1 -2.2204460492503126e-16 0
vn -1 -2.2204460492503126e-16 0
vn 1 2.2204460492503126e-16 0
vn 1 2.2204460492503126e-16 0
vn 1 2.2204460492503126e-16 0
vn 1 2.2204460492503126e-16 0
vn 1 2.2204460492503126e-16 0
vn 1 2.2204460492503126e-16 0
vn 1 2.2204460492503126e-16 0
vn 1 2.2204460492503126e-16 0
vn 1 2.2204460492503126e-16 0
vn 1 2.2204460492503126e-16 0
vn 1 2.2204460492503126e-16 0
vn 1 2.2204460492503126e-16 0
vn 1 2.2204460492503126e-16 0
vn 1 2.2204460492503126e-16 0
vn 1 2.2204460492503126e-16 0
vn 1 2.2204460492503126e-16 0
vn 1 2.2204460492503126e-16 0
vn 1 2.2204460492503126e-16 0
vn 1 2.2204460492503126e-16 0
vn 1 2.2204460492503126e-16 0
vn 1 2.2204460492503126e-16 0
f 293/293/293 304/304/304 294/294/294
f 304/304/304 305/305/305 294/294/294
f 294/294/294 305/305/305 295/295/295
f 305/305/305 306/306/306 295/295/295
f 295/295/295 306/306/306 296/296/296
f 306/306/306 307/307/307 296/296/296
f 296/296/296 307/307/307 297/297/297
f 307/307/307 308/308/308 297/297/297
f 297/297/297 308/308/308 298/298/298
f 308/308/308 309/309/309 298/298/298
f 298/298/298 309/309/309 299/299/299
f 309/309/309 310/310/310 299/299/299
f 299/299/299 310/310/310 300/300/300
f 310/310/310 311/311/311 300/300/300
f 300/300/300 311/311/311 301/301/301
f 311/311/311 312/312/312 301/301/301
f 301/301/301 312/312/312 302/302/302
f 312/312/312 313/313/313 302/302/302
f 302/302/302 313/313/313 303/303/303
f 313/313/313 314/314/314 303/303/303
f 325/325/325 326/326/326 315/315/315
f 326/326/326 327/327/327 316/316/316
f 327/327/327 328/328/328 317/317/317
f 328/328/328 329/329/329 318/318/318
f 329/329/329 330/330/330 319/319/319
f 330/330/330 331/331/331 320/320/320
f 331/331/331 332/332/332 321/321/321
f 332/332/332 333/333/333 322/322/322
f 333/333/333 334/334/334 323/323/323
f 334/334/334 335/335/335 324/324/324
f 347/347/347 346/346/346 336/336/336
f 348/348/348 347/347/347 337/337/337
f 349/349/349 348/348/348 338/338/338
f 350/350/350 349/349/349 339/339/339
f 351/351/351 350/350/350 340/340/340
f 352/352/352 351/351/351 341/341/341
f 353/353/353 352/352/352 342/342/342
f 354/354/354 353/353/353 343/343/343
f 355/355/355 354/354/354 344/344/344
f 356/356/356 355/355/355 345/345/345
o arm_run
usemtl SURF_Steel_Painted
v 0 6.629999996423721 -0.7049999788403514
v 0.05656854063272476 6.606568538844585 -0.7049999788403514
v 0.07999999821186066 6.54999999821186 -0.7049999788403514
v 0.05656854063272476 6.493431457579136 -0.7049999788403514
v 9.797174324372975e-18 6.47 -0.7049999788403514
v -0.05656854063272476 6.493431457579136 -0.7049999788403514
v -0.07999999821186066 6.54999999821186 -0.7049999788403514
v -0.05656854063272476 6.606568538844585 -0.7049999788403514
v -1.959434864874595e-17 6.629999996423721 -0.7049999788403514
v 0 6.63499999910593 0.8549999639391901
v 0.06010407581925392 6.610104074031114 0.8549999639391901
v 0.08500000089406967 6.54999999821186 0.8549999639391901
v 0.06010407581925392 6.4898959223926065 0.8549999639391901
v 1.0409498081537804e-17 6.464999997317791 0.8549999639391901
v -0.06010407581925392 6.4898959223926065 0.8549999639391901
v -0.08500000089406967 6.54999999821186 0.8549999639391901
v -0.06010407581925392 6.610104074031114 0.8549999639391901
v -2.081899616307561e-17 6.63499999910593 0.8549999639391901
v 0 6.54999999821186 -0.7049999788403514
v 0 6.54999999821186 -0.7049999788403514
v 0 6.54999999821186 -0.7049999788403514
v 0 6.54999999821186 -0.7049999788403514
v 0 6.54999999821186 -0.7049999788403514
v 0 6.54999999821186 -0.7049999788403514
v 0 6.54999999821186 -0.7049999788403514
v 0 6.54999999821186 -0.7049999788403514
v 0 6.629999996423721 -0.7049999788403514
v 0.05656854063272476 6.606568538844585 -0.7049999788403514
v 0.07999999821186066 6.54999999821186 -0.7049999788403514
v 0.05656854063272476 6.493431457579136 -0.7049999788403514
v 9.797174324372975e-18 6.47 -0.7049999788403514
v -0.05656854063272476 6.493431457579136 -0.7049999788403514
v -0.07999999821186066 6.54999999821186 -0.7049999788403514
v -0.05656854063272476 6.606568538844585 -0.7049999788403514
v -1.959434864874595e-17 6.629999996423721 -0.7049999788403514
v 0 6.54999999821186 0.8549999639391901
v 0 6.54999999821186 0.8549999639391901
v 0 6.54999999821186 0.8549999639391901
v 0 6.54999999821186 0.8549999639391901
v 0 6.54999999821186 0.8549999639391901
v 0 6.54999999821186 0.8549999639391901
v 0 6.54999999821186 0.8549999639391901
v 0 6.54999999821186 0.8549999639391901
v 0 6.63499999910593 0.8549999639391901
v 0.06010407581925392 6.610104074031114 0.8549999639391901
v 0.08500000089406967 6.54999999821186 0.8549999639391901
v 0.06010407581925392 6.4898959223926065 0.8549999639391901
v 1.0409498081537804e-17 6.464999997317791 0.8549999639391901
v -0.06010407581925392 6.4898959223926065 0.8549999639391901
v -0.08500000089406967 6.54999999821186 0.8549999639391901
v -0.06010407581925392 6.610104074031114 0.8549999639391901
v -2.081899616307561e-17 6.63499999910593 0.8549999639391901
vt 0 1
vt 0.125 1
vt 0.25 1
vt 0.375 1
vt 0.5 1
vt 0.625 1
vt 0.75 1
vt 0.875 1
vt 1 1
vt 0 0
vt 0.125 0
vt 0.25 0
vt 0.375 0
vt 0.5 0
vt 0.625 0
vt 0.75 0
vt 0.875 0
vt 1 0
vt 0.5 0.5
vt 0.5 0.5
vt 0.5 0.5
vt 0.5 0.5
vt 0.5 0.5
vt 0.5 0.5
vt 0.5 0.5
vt 0.5 0.5
vt 1 0.5
vt 0.8535534143447876 0.8535534143447876
vt 0.5 1
vt 0.1464466154575348 0.8535534143447876
vt 0 0.5
vt 0.1464466154575348 0.1464466154575348
vt 0.5 0
vt 0.8535534143447876 0.1464466154575348
vt 1 0.5
vt 0.5 0.5
vt 0.5 0.5
vt 0.5 0.5
vt 0.5 0.5
vt 0.5 0.5
vt 0.5 0.5
vt 0.5 0.5
vt 0.5 0.5
vt 1 0.5
vt 0.8535534143447876 0.1464466154575348
vt 0.5 0
vt 0.1464466154575348 0.1464466154575348
vt 0 0.5
vt 0.1464466154575348 0.8535534143447876
vt 0.5 1
vt 0.8535534143447876 0.8535534143447876
vt 1 0.5
vn 0 0.9999948636163596 -0.0032051116826601845
vn 0.7071031492146048 0.7071031492146047 -0.0032051117885255023
vn 0.9999948636163596 6.052034659873811e-17 -0.0032051116826599616
vn 0.7071031492146048 -0.7071031492146047 -0.0032051117885251884
vn 1.2246404871210993e-16 -0.9999948636163596 -0.0032051116826597404
vn -0.7071031492146048 -0.7071031492146047 -0.0032051117885251884
vn -0.9999948636163596 -1.8440775082548164e-16 -0.0032051116826599616
vn -0.7071031492146048 0.7071031492146047 -0.0032051117885255023
vn -2.4492809742421987e-16 0.9999948636163596 -0.0032051116826601845
vn 0 0.9999948636163596 -0.0032051116826601845
vn 0.7071031492146048 0.7071031492146047 -0.0032051117885255023
vn 0.9999948636163596 6.052034659873811e-17 -0.0032051116826599616
vn 0.7071031492146048 -0.7071031492146047 -0.0032051117885251884
vn 1.2246404871210993e-16 -0.9999948636163596 -0.0032051116826597404
vn -0.7071031492146048 -0.7071031492146047 -0.0032051117885251884
vn -0.9999948636163596 -1.8440775082548164e-16 -0.0032051116826599616
vn -0.7071031492146048 0.7071031492146047 -0.0032051117885255023
vn -2.4492809742421987e-16 0.9999948636163596 -0.0032051116826601845
vn 0 -2.2204460492503126e-16 -1
vn 0 -2.2204460492503126e-16 -1
vn 0 -2.2204460492503126e-16 -1
vn 0 -2.2204460492503126e-16 -1
vn 0 -2.2204460492503126e-16 -1
vn 0 -2.2204460492503126e-16 -1
vn 0 -2.2204460492503126e-16 -1
vn 0 -2.2204460492503126e-16 -1
vn 0 -2.2204460492503126e-16 -1
vn 0 -2.2204460492503126e-16 -1
vn 0 -2.2204460492503126e-16 -1
vn 0 -2.2204460492503126e-16 -1
vn 0 -2.2204460492503126e-16 -1
vn 0 -2.2204460492503126e-16 -1
vn 0 -2.2204460492503126e-16 -1
vn 0 -2.2204460492503126e-16 -1
vn 0 -2.2204460492503126e-16 -1
vn 0 2.2204460492503126e-16 1
vn 0 2.2204460492503126e-16 1
vn 0 2.2204460492503126e-16 1
vn 0 2.2204460492503126e-16 1
vn 0 2.2204460492503126e-16 1
vn 0 2.2204460492503126e-16 1
vn 0 2.2204460492503126e-16 1
vn 0 2.2204460492503126e-16 1
vn 0 2.2204460492503126e-16 1
vn 0 2.2204460492503126e-16 1
vn 0 2.2204460492503126e-16 1
vn 0 2.2204460492503126e-16 1
vn 0 2.2204460492503126e-16 1
vn 0 2.2204460492503126e-16 1
vn 0 2.2204460492503126e-16 1
vn 0 2.2204460492503126e-16 1
vn 0 2.2204460492503126e-16 1
f 357/357/357 366/366/366 358/358/358
f 366/366/366 367/367/367 358/358/358
f 358/358/358 367/367/367 359/359/359
f 367/367/367 368/368/368 359/359/359
f 359/359/359 368/368/368 360/360/360
f 368/368/368 369/369/369 360/360/360
f 360/360/360 369/369/369 361/361/361
f 369/369/369 370/370/370 361/361/361
f 361/361/361 370/370/370 362/362/362
f 370/370/370 371/371/371 362/362/362
f 362/362/362 371/371/371 363/363/363
f 371/371/371 372/372/372 363/363/363
f 363/363/363 372/372/372 364/364/364
f 372/372/372 373/373/373 364/364/364
f 364/364/364 373/373/373 365/365/365
f 373/373/373 374/374/374 365/365/365
f 383/383/383 384/384/384 375/375/375
f 384/384/384 385/385/385 376/376/376
f 385/385/385 386/386/386 377/377/377
f 386/386/386 387/387/387 378/378/378
f 387/387/387 388/388/388 379/379/379
f 388/388/388 389/389/389 380/380/380
f 389/389/389 390/390/390 381/381/381
f 390/390/390 391/391/391 382/382/382
f 401/401/401 400/400/400 392/392/392
f 402/402/402 401/401/401 393/393/393
f 403/403/403 402/402/402 394/394/394
f 404/404/404 403/403/403 395/395/395
f 405/405/405 404/404/404 396/396/396
f 406/406/406 405/405/405 397/397/397
f 407/407/407 406/406/406 398/398/398
f 408/408/408 407/407/407 399/399/399
o arm_brace
usemtl SURF_Metal_Galvanised
v 0 6.50868109221458 -0.15602927405819877
v 0.030310889706015587 6.52118595408924 -0.16827175877754352
v 0.030310889706015587 6.546195677838559 -0.19275672821623324
v 4.286263818611965e-18 6.558700539713218 -0.204999212935578
v -0.030310889706015587 6.546195677838559 -0.19275672821623324
v -0.030310889706015587 6.52118595408924 -0.16827175877754352
v -8.57252763722393e-18 6.50868109221458 -0.15602927405819877
v 0 5.501299456710504 -1.1850008019655833
v 0.030310889706015587 5.513804318585163 -1.197243286684928
v 0.030310889706015587 5.538814042334482 -1.2217282561236178
v 4.286263818611965e-18 5.5513189042091415 -1.2339707408429625
v -0.030310889706015587 5.538814042334482 -1.2217282561236178
v -0.030310889706015587 5.513804318585163 -1.197243286684928
v -8.57252763722393e-18 5.501299456710504 -1.1850008019655833
v 0 6.533690815963899 -0.18051424349688838
v 0 6.533690815963899 -0.18051424349688838
v 0 6.533690815963899 -0.18051424349688838
v 0 6.533690815963899 -0.18051424349688838
v 0 6.533690815963899 -0.18051424349688838
v 0 6.533690815963899 -0.18051424349688838
v 0 6.50868109221458 -0.15602927405819877
v 0.030310889706015587 6.52118595408924 -0.16827175877754352
v 0.030310889706015587 6.546195677838559 -0.19275672821623324
v 4.286263818611965e-18 6.558700539713218 -0.204999212935578
v -0.030310889706015587 6.546195677838559 -0.19275672821623324
v -0.030310889706015587 6.52118595408924 -0.16827175877754352
v -8.57252763722393e-18 6.50868109221458 -0.15602927405819877
v 0 5.526309180459823 -1.2094857714042728
v 0 5.526309180459823 -1.2094857714042728
v 0 5.526309180459823 -1.2094857714042728
v 0 5.526309180459823 -1.2094857714042728
v 0 5.526309180459823 -1.2094857714042728
v 0 5.526309180459823 -1.2094857714042728
v 0 5.501299456710504 -1.1850008019655833
v 0.030310889706015587 5.513804318585163 -1.197243286684928
v 0.030310889706015587 5.538814042334482 -1.2217282561236178
v 4.286263818611965e-18 5.5513189042091415 -1.2339707408429625
v -0.030310889706015587 5.538814042334482 -1.2217282561236178
v -0.030310889706015587 5.513804318585163 -1.197243286684928
v -8.57252763722393e-18 5.501299456710504 -1.1850008019655833
vt 0 1
vt 0.1666666716337204 1
vt 0.3333333432674408 1
vt 0.5 1
vt 0.6666666865348816 1
vt 0.8333333134651184 1
vt 1 1
vt 0 0
vt 0.1666666716337204 0
vt 0.3333333432674408 0
vt 0.5 0
vt 0.6666666865348816 0
vt 0.8333333134651184 0
vt 1 0
vt 0.5 0.5
vt 0.5 0.5
vt 0.5 0.5
vt 0.5 0.5
vt 0.5 0.5
vt 0.5 0.5
vt 1 0.5
vt 0.75 0.9330127239227295
vt 0.25 0.9330127239227295
vt 0 0.5
vt 0.25 0.0669872984290123
vt 0.75 0.0669872984290123
vt 1 0.5
vt 0.5 0.5
vt 0.5 0.5
vt 0.5 0.5
vt 0.5 0.5
vt 0.5 0.5
vt 0.5 0.5
vt 1 0.5
vt 0.75 0.0669872984290123
vt 0.25 0.0669872984290123
vt 0 0.5
vt 0.25 0.9330127239227295
vt 0.75 0.9330127239227295
vt 1 0.5
vn 0 -0.7145635326525911 0.699570552412728
vn 0.8660253998985324 -0.35728177113572746 0.34978528091488437
vn 0.8660253998985324 0.35728177113572746 -0.34978528091488437
vn 1.2246468525851679e-16 0.7145635326525911 -0.699570552412728
vn -0.8660253998985324 0.35728177113572746 -0.34978528091488437
vn -0.8660253998985324 -0.35728177113572746 0.34978528091488437
vn -2.4492937051703357e-16 -0.7145635326525911 0.699570552412728
vn 0 -0.7145635326525911 0.699570552412728
vn 0.8660253998985324 -0.35728177113572746 0.34978528091488437
vn 0.8660253998985324 0.35728177113572746 -0.34978528091488437
vn 1.2246468525851679e-16 0.7145635326525911 -0.699570552412728
vn -0.8660253998985324 0.35728177113572746 -0.34978528091488437
vn -0.8660253998985324 -0.35728177113572746 0.34978528091488437
vn -2.4492937051703357e-16 -0.7145635326525911 0.699570552412728
vn 0 0.699570552412728 0.7145635326525911
vn 0 0.699570552412728 0.7145635326525911
vn 0 0.699570552412728 0.7145635326525911
vn 0 0.699570552412728 0.7145635326525911
vn 0 0.699570552412728 0.7145635326525911
vn 0 0.699570552412728 0.7145635326525911
vn 0 0.699570552412728 0.7145635326525911
vn 0 0.699570552412728 0.7145635326525911
vn 0 0.699570552412728 0.7145635326525911
vn 0 0.699570552412728 0.7145635326525911
vn 0 0.699570552412728 0.7145635326525911
vn 0 0.699570552412728 0.7145635326525911
vn 0 0.699570552412728 0.7145635326525911
vn 0 -0.699570552412728 -0.7145635326525911
vn 0 -0.699570552412728 -0.7145635326525911
vn 0 -0.699570552412728 -0.7145635326525911
vn 0 -0.699570552412728 -0.7145635326525911
vn 0 -0.699570552412728 -0.7145635326525911
vn 0 -0.699570552412728 -0.7145635326525911
vn 0 -0.699570552412728 -0.7145635326525911
vn 0 -0.699570552412728 -0.7145635326525911
vn 0 -0.699570552412728 -0.7145635326525911
vn 0 -0.699570552412728 -0.7145635326525911
vn 0 -0.699570552412728 -0.7145635326525911
vn 0 -0.699570552412728 -0.7145635326525911
vn 0 -0.699570552412728 -0.7145635326525911
f 409/409/409 416/416/416 410/410/410
f 416/416/416 417/417/417 410/410/410
f 410/410/410 417/417/417 411/411/411
f 417/417/417 418/418/418 411/411/411
f 411/411/411 418/418/418 412/412/412
f 418/418/418 419/419/419 412/412/412
f 412/412/412 419/419/419 413/413/413
f 419/419/419 420/420/420 413/413/413
f 413/413/413 420/420/420 414/414/414
f 420/420/420 421/421/421 414/414/414
f 414/414/414 421/421/421 415/415/415
f 421/421/421 422/422/422 415/415/415
f 429/429/429 430/430/430 423/423/423
f 430/430/430 431/431/431 424/424/424
f 431/431/431 432/432/432 425/425/425
f 432/432/432 433/433/433 426/426/426
f 433/433/433 434/434/434 427/427/427
f 434/434/434 435/435/435 428/428/428
f 443/443/443 442/442/442 436/436/436
f 444/444/444 443/443/443 437/437/437
f 445/445/445 444/444/444 438/438/438
f 446/446/446 445/445/445 439/439/439
f 447/447/447 446/446/446 440/440/440
f 448/448/448 447/447/447 441/441/441
o lamp_housing
usemtl SURF_Aluminium_Brushed
v 0.1599999964237213 6.54499999910593 1.4249999997019769
v 0.1599999964237213 6.54499999910593 0.5649999853968621
v 0.1599999964237213 6.374999997317791 1.4249999997019769
v 0.1599999964237213 6.374999997317791 0.5649999853968621
v -0.1599999964237213 6.54499999910593 0.5649999853968621
v -0.1599999964237213 6.54499999910593 1.4249999997019769
v -0.1599999964237213 6.374999997317791 0.5649999853968621
v -0.1599999964237213 6.374999997317791 1.4249999997019769
v -0.1599999964237213 6.54499999910593 0.5649999853968621
v 0.1599999964237213 6.54499999910593 0.5649999853968621
v -0.1599999964237213 6.54499999910593 1.4249999997019769
v 0.1599999964237213 6.54499999910593 1.4249999997019769
v -0.1599999964237213 6.374999997317791 1.4249999997019769
v 0.1599999964237213 6.374999997317791 1.4249999997019769
v -0.1599999964237213 6.374999997317791 0.5649999853968621
v 0.1599999964237213 6.374999997317791 0.5649999853968621
v -0.1599999964237213 6.54499999910593 1.4249999997019769
v 0.1599999964237213 6.54499999910593 1.4249999997019769
v -0.1599999964237213 6.374999997317791 1.4249999997019769
v 0.1599999964237213 6.374999997317791 1.4249999997019769
v 0.1599999964237213 6.54499999910593 0.5649999853968621
v -0.1599999964237213 6.54499999910593 0.5649999853968621
v 0.1599999964237213 6.374999997317791 0.5649999853968621
v -0.1599999964237213 6.374999997317791 0.5649999853968621
vt 0 1
vt 1 1
vt 0 0
vt 1 0
vt 0 1
vt 1 1
vt 0 0
vt 1 0
vt 0 1
vt 1 1
vt 0 0
vt 1 0
vt 0 1
vt 1 1
vt 0 0
vt 1 0
vt 0 1
vt 1 1
vt 0 0
vt 1 0
vt 0 1
vt 1 1
vt 0 0
vt 1 0
vn 1 0 0
vn 1 0 0
vn 1 0 0
vn 1 0 0
vn -1 0 0
vn -1 0 0
vn -1 0 0
vn -1 0 0
vn 0 1 0
vn 0 1 0
vn 0 1 0
vn 0 1 0
vn 0 -1 0
vn 0 -1 0
vn 0 -1 0
vn 0 -1 0
vn 0 0 1
vn 0 0 1
vn 0 0 1
vn 0 0 1
vn 0 0 -1
vn 0 0 -1
vn 0 0 -1
vn 0 0 -1
f 449/449/449 451/451/451 450/450/450
f 451/451/451 452/452/452 450/450/450
f 453/453/453 455/455/455 454/454/454
f 455/455/455 456/456/456 454/454/454
f 457/457/457 459/459/459 458/458/458
f 459/459/459 460/460/460 458/458/458
f 461/461/461 463/463/463 462/462/462
f 463/463/463 464/464/464 462/462/462
f 465/465/465 467/467/467 466/466/466
f 467/467/467 468/468/468 466/466/466
f 469/469/469 471/471/471 470/470/470
f 471/471/471 472/472/472 470/470/470
o lamp_hood
usemtl SURF_Steel_Painted
v 0.18000000715255737 6.614999998360872 1.4550000008940698
v 0.18000000715255737 6.614999998360872 0.5349999842047692
v 0.18000000715255737 6.544999998062849 1.4550000008940698
v 0.18000000715255737 6.544999998062849 0.5349999842047692
v -0.18000000715255737 6.614999998360872 0.5349999842047692
v -0.18000000715255737 6.614999998360872 1.4550000008940698
v -0.18000000715255737 6.544999998062849 0.5349999842047692
v -0.18000000715255737 6.544999998062849 1.4550000008940698
v -0.18000000715255737 6.614999998360872 0.5349999842047692
v 0.18000000715255737 6.614999998360872 0.5349999842047692
v -0.18000000715255737 6.614999998360872 1.4550000008940698
v 0.18000000715255737 6.614999998360872 1.4550000008940698
v -0.18000000715255737 6.544999998062849 1.4550000008940698
v 0.18000000715255737 6.544999998062849 1.4550000008940698
v -0.18000000715255737 6.544999998062849 0.5349999842047692
v 0.18000000715255737 6.544999998062849 0.5349999842047692
v -0.18000000715255737 6.614999998360872 1.4550000008940698
v 0.18000000715255737 6.614999998360872 1.4550000008940698
v -0.18000000715255737 6.544999998062849 1.4550000008940698
v 0.18000000715255737 6.544999998062849 1.4550000008940698
v 0.18000000715255737 6.614999998360872 0.5349999842047692
v -0.18000000715255737 6.614999998360872 0.5349999842047692
v 0.18000000715255737 6.544999998062849 0.5349999842047692
v -0.18000000715255737 6.544999998062849 0.5349999842047692
vt 0 1
vt 1 1
vt 0 0
vt 1 0
vt 0 1
vt 1 1
vt 0 0
vt 1 0
vt 0 1
vt 1 1
vt 0 0
vt 1 0
vt 0 1
vt 1 1
vt 0 0
vt 1 0
vt 0 1
vt 1 1
vt 0 0
vt 1 0
vt 0 1
vt 1 1
vt 0 0
vt 1 0
vn 1 0 0
vn 1 0 0
vn 1 0 0
vn 1 0 0
vn -1 0 0
vn -1 0 0
vn -1 0 0
vn -1 0 0
vn 0 1 0
vn 0 1 0
vn 0 1 0
vn 0 1 0
vn 0 -1 0
vn 0 -1 0
vn 0 -1 0
vn 0 -1 0
vn 0 0 1
vn 0 0 1
vn 0 0 1
vn 0 0 1
vn 0 0 -1
vn 0 0 -1
vn 0 0 -1
vn 0 0 -1
f 473/473/473 475/475/475 474/474/474
f 475/475/475 476/476/476 474/474/474
f 477/477/477 479/479/479 478/478/478
f 479/479/479 480/480/480 478/478/478
f 481/481/481 483/483/483 482/482/482
f 483/483/483 484/484/484 482/482/482
f 485/485/485 487/487/487 486/486/486
f 487/487/487 488/488/488 486/486/486
f 489/489/489 491/491/491 490/490/490
f 491/491/491 492/492/492 490/490/490
f 493/493/493 495/495/495 494/494/494
f 495/495/495 496/496/496 494/494/494
o lamp_lens
usemtl SURF_Emissive_Display
v 0.13500000536441803 6.38499999858439 1.3750000068545338
v 0.13500000536441803 6.38499999858439 0.6549999782443043
v 0.13500000536441803 6.334999997839332 1.3750000068545338
v 0.13500000536441803 6.334999997839332 0.6549999782443043
v -0.13500000536441803 6.38499999858439 0.6549999782443043
v -0.13500000536441803 6.38499999858439 1.3750000068545338
v -0.13500000536441803 6.334999997839332 0.6549999782443043
v -0.13500000536441803 6.334999997839332 1.3750000068545338
v -0.13500000536441803 6.38499999858439 0.6549999782443043
v 0.13500000536441803 6.38499999858439 0.6549999782443043
v -0.13500000536441803 6.38499999858439 1.3750000068545338
v 0.13500000536441803 6.38499999858439 1.3750000068545338
v -0.13500000536441803 6.334999997839332 1.3750000068545338
v 0.13500000536441803 6.334999997839332 1.3750000068545338
v -0.13500000536441803 6.334999997839332 0.6549999782443043
v 0.13500000536441803 6.334999997839332 0.6549999782443043
v -0.13500000536441803 6.38499999858439 1.3750000068545338
v 0.13500000536441803 6.38499999858439 1.3750000068545338
v -0.13500000536441803 6.334999997839332 1.3750000068545338
v 0.13500000536441803 6.334999997839332 1.3750000068545338
v 0.13500000536441803 6.38499999858439 0.6549999782443043
v -0.13500000536441803 6.38499999858439 0.6549999782443043
v 0.13500000536441803 6.334999997839332 0.6549999782443043
v -0.13500000536441803 6.334999997839332 0.6549999782443043
vt 0 1
vt 1 1
vt 0 0
vt 1 0
vt 0 1
vt 1 1
vt 0 0
vt 1 0
vt 0 1
vt 1 1
vt 0 0
vt 1 0
vt 0 1
vt 1 1
vt 0 0
vt 1 0
vt 0 1
vt 1 1
vt 0 0
vt 1 0
vt 0 1
vt 1 1
vt 0 0
vt 1 0
vn 1 0 0
vn 1 0 0
vn 1 0 0
vn 1 0 0
vn -1 0 0
vn -1 0 0
vn -1 0 0
vn -1 0 0
vn 0 1 0
vn 0 1 0
vn 0 1 0
vn 0 1 0
vn 0 -1 0
vn 0 -1 0
vn 0 -1 0
vn 0 -1 0
vn 0 0 1
vn 0 0 1
vn 0 0 1
vn 0 0 1
vn 0 0 -1
vn 0 0 -1
vn 0 0 -1
vn 0 0 -1
f 497/497/497 499/499/499 498/498/498
f 499/499/499 500/500/500 498/498/498
f 501/501/501 503/503/503 502/502/502
f 503/503/503 504/504/504 502/502/502
f 505/505/505 507/507/507 506/506/506
f 507/507/507 508/508/508 506/506/506
f 509/509/509 511/511/511 510/510/510
f 511/511/511 512/512/512 510/510/510
f 513/513/513 515/515/515 514/514/514
f 515/515/515 516/516/516 514/514/514
f 517/517/517 519/519/519 518/518/518
f 519/519/519 520/520/520 518/518/518
o lamp_collar
usemtl SURF_Metal_Galvanised
v 0.10000000149011612 6.559999996870756 0.6049999928474425
v 0.10000000149011612 6.559999996870756 0.4649999922513961
v 0.10000000149011612 6.439999999552965 0.6049999928474425
v 0.10000000149011612 6.439999999552965 0.4649999922513961
v -0.10000000149011612 6.559999996870756 0.4649999922513961
v -0.10000000149011612 6.559999996870756 0.6049999928474425
v -0.10000000149011612 6.439999999552965 0.4649999922513961
v -0.10000000149011612 6.439999999552965 0.6049999928474425
v -0.10000000149011612 6.559999996870756 0.4649999922513961
v 0.10000000149011612 6.559999996870756 0.4649999922513961
v -0.10000000149011612 6.559999996870756 0.6049999928474425
v 0.10000000149011612 6.559999996870756 0.6049999928474425
v -0.10000000149011612 6.439999999552965 0.6049999928474425
v 0.10000000149011612 6.439999999552965 0.6049999928474425
v -0.10000000149011612 6.439999999552965 0.4649999922513961
v 0.10000000149011612 6.439999999552965 0.4649999922513961
v -0.10000000149011612 6.559999996870756 0.6049999928474425
v 0.10000000149011612 6.559999996870756 0.6049999928474425
v -0.10000000149011612 6.439999999552965 0.6049999928474425
v 0.10000000149011612 6.439999999552965 0.6049999928474425
v 0.10000000149011612 6.559999996870756 0.4649999922513961
v -0.10000000149011612 6.559999996870756 0.4649999922513961
v 0.10000000149011612 6.439999999552965 0.4649999922513961
v -0.10000000149011612 6.439999999552965 0.4649999922513961
vt 0 1
vt 1 1
vt 0 0
vt 1 0
vt 0 1
vt 1 1
vt 0 0
vt 1 0
vt 0 1
vt 1 1
vt 0 0
vt 1 0
vt 0 1
vt 1 1
vt 0 0
vt 1 0
vt 0 1
vt 1 1
vt 0 0
vt 1 0
vt 0 1
vt 1 1
vt 0 0
vt 1 0
vn 1 0 0
vn 1 0 0
vn 1 0 0
vn 1 0 0
vn -1 0 0
vn -1 0 0
vn -1 0 0
vn -1 0 0
vn 0 1 0
vn 0 1 0
vn 0 1 0
vn 0 1 0
vn 0 -1 0
vn 0 -1 0
vn 0 -1 0
vn 0 -1 0
vn 0 0 1
vn 0 0 1
vn 0 0 1
vn 0 0 1
vn 0 0 -1
vn 0 0 -1
vn 0 0 -1
vn 0 0 -1
f 521/521/521 523/523/523 522/522/522
f 523/523/523 524/524/524 522/522/522
f 525/525/525 527/527/527 526/526/526
f 527/527/527 528/528/528 526/526/526
f 529/529/529 531/531/531 530/530/530
f 531/531/531 532/532/532 530/530/530
f 533/533/533 535/535/535 534/534/534
f 535/535/535 536/536/536 534/534/534
f 537/537/537 539/539/539 538/538/538
f 539/539/539 540/540/540 538/538/538
f 541/541/541 543/543/543 542/542/542
f 543/543/543 544/544/544 542/542/542
