mtllib SM_TimetableCase_01.mtl
o post_l
usemtl SURF_Metal_Galvanised
v -0.28 1.899999976158142 0.031500000782310966
v -0.25525126300752166 1.899999976158142 0.021248737625777725
v -0.24499999985098841 1.899999976158142 -0.0034999993667006435
v -0.25525126300752166 1.899999976158142 -0.028248736359179016
v -0.28 1.899999976158142 -0.03849999951571226
v -0.3047487369924784 1.899999976158142 -0.028248736359179016
v -0.31500000014901164 1.899999976158142 -0.003499999366700652
v -0.3047487369924784 1.899999976158142 0.021248737625777725
v -0.28 1.899999976158142 0.031500000782310966
v -0.28 0 0.03649999973922968
v -0.25171572968363765 0 0.024784270949661735
v -0.2400000008940697 0 -0.003499999366700643
v -0.25171572968363765 0 -0.03178426968306303
v -0.28 0 -0.043499998472630974
v -0.3082842703163624 0 -0.03178426968306303
v -0.31999999910593036 0 -0.003499999366700653
v -0.3082842703163624 0 0.024784270949661735
v -0.28 0 0.03649999973922968
v -0.28 1.899999976158142 -0.0034999993667006457
v -0.28 1.899999976158142 -0.0034999993667006457
v -0.28 1.899999976158142 -0.0034999993667006457
v -0.28 1.899999976158142 -0.0034999993667006457
v -0.28 1.899999976158142 -0.0034999993667006457
v -0.28 1.899999976158142 -0.0034999993667006457
v -0.28 1.899999976158142 -0.0034999993667006457
v -0.28 1.899999976158142 -0.0034999993667006457
v -0.28 1.899999976158142 0.031500000782310966
v -0.25525126300752166 1.899999976158142 0.021248737625777725
v -0.24499999985098841 1.899999976158142 -0.0034999993667006435
v -0.25525126300752166 1.899999976158142 -0.028248736359179016
v -0.28 1.899999976158142 -0.03849999951571226
v -0.3047487369924784 1.899999976158142 -0.028248736359179016
v -0.31500000014901164 1.899999976158142 -0.003499999366700652
v -0.3047487369924784 1.899999976158142 0.021248737625777725
v -0.28 1.899999976158142 0.031500000782310966
v -0.28 0 -0.0034999993667006457
v -0.28 0 -0.0034999993667006457
v -0.28 0 -0.0034999993667006457
v -0.28 0 -0.0034999993667006457
v -0.28 0 -0.0034999993667006457
v -0.28 0 -0.0034999993667006457
v -0.28 0 -0.0034999993667006457
v -0.28 0 -0.0034999993667006457
v -0.28 0 0.03649999973922968
v -0.25171572968363765 0 0.024784270949661735
v -0.2400000008940697 0 -0.003499999366700643
v -0.25171572968363765 0 -0.03178426968306303
v -0.28 0 -0.043499998472630974
v -0.3082842703163624 0 -0.03178426968306303
v -0.31999999910593036 0 -0.003499999366700653
v -0.3082842703163624 0 0.024784270949661735
v -0.28 0 0.03649999973922968
vt 0 1
vt 0.125 1
vt 0.25 1
vt 0.375 1
vt 0.5 1
vt 0.625 1
vt 0.75 1
vt 0.875 1
vt 1 1
vt 0 0
vt 0.125 0
vt 0.25 0
vt 0.375 0
vt 0.5 0
vt 0.625 0
vt 0.75 0
vt 0.875 0
vt 1 0
vt 0.5 0.5
vt 0.5 0.5
vt 0.5 0.5
vt 0.5 0.5
vt 0.5 0.5
vt 0.5 0.5
vt 0.5 0.5
vt 0.5 0.5
vt 1 0.5
vt 0.8535534143447876 0.8535534143447876
vt 0.5 1
vt 0.1464466154575348 0.8535534143447876
vt 0 0.5
vt 0.1464466154575348 0.1464466154575348
vt 0.5 0
vt 0.8535534143447876 0.1464466154575348
vt 1 0.5
vt 0.5 0.5
vt 0.5 0.5
vt 0.5 0.5
vt 0.5 0.5
vt 0.5 0.5
vt 0.5 0.5
vt 0.5 0.5
vt 0.5 0.5
vt 1 0.5
vt 0.8535534143447876 0.1464466154575348
vt 0.5 0
vt 0.1464466154575348 0.1464466154575348
vt 0 0.5
vt 0.1464466154575348 0.8535534143447876
vt 0.5 1
vt 0.8535534143447876 0.8535534143447876
vt 1 0.5
vn 0 0.00263156973236534 0.9999965374143771
vn 0.7071043327686944 0.002631569774697814 0.7071043327686944
vn 0.9999965374143771 0.00263156973236534 6.123213053325014e-17
vn 0.7071043327686944 0.002631569774697814 -0.7071043327686944
vn 1.2246426106650027e-16 0.00263156973236534 -0.9999965374143771
vn -0.7071043327686944 0.002631569774697814 -0.7071043327686944
vn -0.9999965374143771 0.00263156973236534 -1.836963783648607e-16
vn -0.7071043327686944 0.002631569774697814 0.7071043327686944
vn -2.4492852213300055e-16 0.00263156973236534 0.9999965374143771
vn 0 0.00263156973236534 0.9999965374143771
vn 0.7071043327686944 0.002631569774697814 0.7071043327686944
vn 0.9999965374143771 0.00263156973236534 6.123213053325014e-17
vn 0.7071043327686944 0.002631569774697814 -0.7071043327686944
vn 1.2246426106650027e-16 0.00263156973236534 -0.9999965374143771
vn -0.7071043327686944 0.002631569774697814 -0.7071043327686944
vn -0.9999965374143771 0.00263156973236534 -1.836963783648607e-16
vn -0.7071043327686944 0.002631569774697814 0.7071043327686944
vn -2.4492852213300055e-16 0.00263156973236534 0.9999965374143771
vn 0 1 0
vn 0 1 0
vn 0 1 0
vn 0 1 0
vn 0 1 0
vn 0 1 0
vn 0 1 0
vn 0 1 0
vn 0 1 0
vn 0 1 0
vn 0 1 0
vn 0 1 0
vn 0 1 0
vn 0 1 0
vn 0 1 0
vn 0 1 0
vn 0 1 0
vn 0 -1 0
vn 0 -1 0
vn 0 -1 0
vn 0 -1 0
vn 0 -1 0
vn 0 -1 0
vn 0 -1 0
vn 0 -1 0
vn 0 -1 0
vn 0 -1 0
vn 0 -1 0
vn 0 -1 0
vn 0 -1 0
vn 0 -1 0
vn 0 -1 0
vn 0 -1 0
vn 0 -1 0
f 1/1/1 10/10/10 2/2/2
f 10/10/10 11/11/11 2/2/2
f 2/2/2 11/11/11 3/3/3
f 11/11/11 12/12/12 3/3/3
f 3/3/3 12/12/12 4/4/4
f 12/12/12 13/13/13 4/4/4
f 4/4/4 13/13/13 5/5/5
f 13/13/13 14/14/14 5/5/5
f 5/5/5 14/14/14 6/6/6
f 14/14/14 15/15/15 6/6/6
f 6/6/6 15/15/15 7/7/7
f 15/15/15 16/16/16 7/7/7
f 7/7/7 16/16/16 8/8/8
f 16/16/16 17/17/17 8/8/8
f 8/8/8 17/17/17 9/9/9
f 17/17/17 18/18/18 9/9/9
f 27/27/27 28/28/28 19/19/19
f 28/28/28 29/29/29 20/20/20
f 29/29/29 30/30/30 21/21/21
f 30/30/30 31/31/31 22/22/22
f 31/31/31 32/32/32 23/23/23
f 32/32/32 33/33/33 24/24/24
f 33/33/33 34/34/34 25/25/25
f 34/34/34 35/35/35 26/26/26
f 45/45/45 44/44/44 36/36/36
f 46/46/46 45/45/45 37/37/37
f 47/47/47 46/46/46 38/38/38
f 48/48/48 47/47/47 39/39/39
f 49/49/49 48/48/48 40/40/40
f 50/50/50 49/49/49 41/41/41
f 51/51/51 50/50/50 42/42/42
f 52/52/52 51/51/51 43/43/43
o post_r
usemtl SURF_Metal_Galvanised
v 0.28 1.899999976158142 0.031500000782310966
v 0.3047487369924784 1.899999976158142 0.021248737625777725
v 0.31500000014901164 1.899999976158142 -0.0034999993667006435
v 0.3047487369924784 1.899999976158142 -0.028248736359179016
v 0.28 1.899999976158142 -0.03849999951571226
v 0.25525126300752166 1.899999976158142 -0.028248736359179016
v 0.24499999985098841 1.899999976158142 -0.003499999366700652
v 0.25525126300752166 1.899999976158142 0.021248737625777725
v 0.28 1.899999976158142 0.031500000782310966
v 0.28 0 0.03649999973922968
v 0.3082842703163624 0 0.024784270949661735
v 0.31999999910593036 0 -0.003499999366700643
v 0.3082842703163624 0 -0.03178426968306303
v 0.28 0 -0.043499998472630974
v 0.25171572968363765 0 -0.03178426968306303
v 0.2400000008940697 0 -0.003499999366700653
v 0.25171572968363765 0 0.024784270949661735
v 0.28 0 0.03649999973922968
v 0.28 1.899999976158142 -0.0034999993667006457
v 0.28 1.899999976158142 -0.0034999993667006457
v 0.28 1.899999976158142 -0.0034999993667006457
v 0.28 1.899999976158142 -0.0034999993667006457
v 0.28 1.899999976158142 -0.0034999993667006457
v 0.28 1.899999976158142 -0.0034999993667006457
v 0.28 1.899999976158142 -0.0034999993667006457
v 0.28 1.899999976158142 -0.0034999993667006457
v 0.28 1.899999976158142 0.031500000782310966
v 0.3047487369924784 1.899999976158142 0.021248737625777725
v 0.31500000014901164 1.899999976158142 -0.0034999993667006435
v 0.3047487369924784 1.899999976158142 -0.028248736359179016
v 0.28 1.899999976158142 -0.03849999951571226
v 0.25525126300752166 1.899999976158142 -0.028248736359179016
v 0.24499999985098841 1.899999976158142 -0.003499999366700652
v 0.25525126300752166 1.899999976158142 0.021248737625777725
v 0.28 1.899999976158142 0.031500000782310966
v 0.28 0 -0.0034999993667006457
v 0.28 0 -0.0034999993667006457
v 0.28 0 -0.0034999993667006457
v 0.28 0 -0.0034999993667006457
v 0.28 0 -0.0034999993667006457
v 0.28 0 -0.0034999993667006457
v 0.28 0 -0.0034999993667006457
v 0.28 0 -0.0034999993667006457
v 0.28 0 0.03649999973922968
v 0.3082842703163624 0 0.024784270949661735
v 0.31999999910593036 0 -0.003499999366700643
v 0.3082842703163624 0 -0.03178426968306303
v 0.28 0 -0.043499998472630974
v 0.25171572968363765 0 -0.03178426968306303
v 0.2400000008940697 0 -0.003499999366700653
v 0.25171572968363765 0 0.024784270949661735
v 0.28 0 0.03649999973922968
vt 0 1
vt 0.125 1
vt 0.25 1
vt 0.375 1
vt 0.5 1
vt 0.625 1
vt 0.75 1
vt 0.875 1
vt 1 1
vt 0 0
vt 0.125 0
vt 0.25 0
vt 0.375 0
vt 0.5 0
vt 0.625 0
vt 0.75 0
vt 0.875 0
vt 1 0
vt 0.5 0.5
vt 0.5 0.5
vt 0.5 0.5
vt 0.5 0.5
vt 0.5 0.5
vt 0.5 0.5
vt 0.5 0.5
vt 0.5 0.5
vt 1 0.5
vt 0.8535534143447876 0.8535534143447876
vt 0.5 1
vt 0.1464466154575348 0.8535534143447876
vt 0 0.5
vt 0.1464466154575348 0.1464466154575348
vt 0.5 0
vt 0.8535534143447876 0.1464466154575348
vt 1 0.5
vt 0.5 0.5
vt 0.5 0.5
vt 0.5 0.5
vt 0.5 0.5
vt 0.5 0.5
vt 0.5 0.5
vt 0.5 0.5
vt 0.5 0.5
vt 1 0.5
vt 0.8535534143447876 0.1464466154575348
vt 0.5 0
vt 0.1464466154575348 0.1464466154575348
vt 0 0.5
vt 0.1464466154575348 0.8535534143447876
vt 0.5 1
vt 0.8535534143447876 0.8535534143447876
vt 1 0.5
vn 0 0.00263156973236534 0.9999965374143771
vn 0.7071043327686944 0.002631569774697814 0.7071043327686944
vn 0.9999965374143771 0.00263156973236534 6.123213053325014e-17
vn 0.7071043327686944 0.002631569774697814 -0.7071043327686944
vn 1.2246426106650027e-16 0.00263156973236534 -0.9999965374143771
vn -0.7071043327686944 0.002631569774697814 -0.7071043327686944
vn -0.9999965374143771 0.00263156973236534 -1.836963783648607e-16
vn -0.7071043327686944 0.002631569774697814 0.7071043327686944
vn -2.4492852213300055e-16 0.00263156973236534 0.9999965374143771
vn 0 0.00263156973236534 0.9999965374143771
vn 0.7071043327686944 0.002631569774697814 0.7071043327686944
vn 0.9999965374143771 0.00263156973236534 6.123213053325014e-17
vn 0.7071043327686944 0.002631569774697814 -0.7071043327686944
vn 1.2246426106650027e-16 0.00263156973236534 -0.9999965374143771
vn -0.7071043327686944 0.002631569774697814 -0.7071043327686944
vn -0.9999965374143771 0.00263156973236534 -1.836963783648607e-16
vn -0.7071043327686944 0.002631569774697814 0.7071043327686944
vn -2.4492852213300055e-16 0.00263156973236534 0.9999965374143771
vn 0 1 0
vn 0 1 0
vn 0 1 0
vn 0 1 0
vn 0 1 0
vn 0 1 0
vn 0 1 0
vn 0 1 0
vn 0 1 0
vn 0 1 0
vn 0 1 0
vn 0 1 0
vn 0 1 0
vn 0 1 0
vn 0 1 0
vn 0 1 0
vn 0 1 0
vn 0 -1 0
vn 0 -1 0
vn 0 -1 0
vn 0 -1 0
vn 0 -1 0
vn 0 -1 0
vn 0 -1 0
vn 0 -1 0
vn 0 -1 0
vn 0 -1 0
vn 0 -1 0
vn 0 -1 0
vn 0 -1 0
vn 0 -1 0
vn 0 -1 0
vn 0 -1 0
vn 0 -1 0
f 53/53/53 62/62/62 54/54/54
f 62/62/62 63/63/63 54/54/54
f 54/54/54 63/63/63 55/55/55
f 63/63/63 64/64/64 55/55/55
f 55/55/55 64/64/64 56/56/56
f 64/64/64 65/65/65 56/56/56
f 56/56/56 65/65/65 57/57/57
f 65/65/65 66/66/66 57/57/57
f 57/57/57 66/66/66 58/58/58
f 66/66/66 67/67/67 58/58/58
f 58/58/58 67/67/67 59/59/59
f 67/67/67 68/68/68 59/59/59
f 59/59/59 68/68/68 60/60/60
f 68/68/68 69/69/69 60/60/60
f 60/60/60 69/69/69 61/61/61
f 69/69/69 70/70/70 61/61/61
f 79/79/79 80/80/80 71/71/71
f 80/80/80 81/81/81 72/72/72
f 81/81/81 82/82/82 73/73/73
f 82/82/82 83/83/83 74/74/74
f 83/83/83 84/84/84 75/75/75
f 84/84/84 85/85/85 76/76/76
f 85/85/85 86/86/86 77/77/77
f 86/86/86 87/87/87 78/78/78
f 97/97/97 96/96/96 88/88/88
f 98/98/98 97/97/97 89/89/89
f 99/99/99 98/98/98 90/90/90
f 100/100/100 99/99/99 91/91/91
f 101/101/101 100/100/100 92/92/92
f 102/102/102 101/101/101 93/93/93
f 103/103/103 102/102/102 94/94/94
f 104/104/104 103/103/103 95/95/95
o case_back
usemtl SURF_Steel_Painted
v 0.38999998569488525 1.8649999928474426 0.0015000010058283837
v 0.38999998569488525 1.8649999928474426 -0.04849999973922968
v 0.38999998569488525 0.8749999833106994 0.0015000010058283837
v 0.38999998569488525 0.8749999833106994 -0.04849999973922968
v -0.38999998569488525 1.8649999928474426 -0.04849999973922968
v -0.38999998569488525 1.8649999928474426 0.0015000010058283837
v -0.38999998569488525 0.8749999833106994 -0.04849999973922968
v -0.38999998569488525 0.8749999833106994 0.0015000010058283837
v -0.38999998569488525 1.8649999928474426 -0.04849999973922968
v 0.38999998569488525 1.8649999928474426 -0.04849999973922968
v -0.38999998569488525 1.8649999928474426 0.0015000010058283837
v 0.38999998569488525 1.8649999928474426 0.0015000010058283837
v -0.38999998569488525 0.8749999833106994 0.0015000010058283837
v 0.38999998569488525 0.8749999833106994 0.0015000010058283837
v -0.38999998569488525 0.8749999833106994 -0.04849999973922968
v 0.38999998569488525 0.8749999833106994 -0.04849999973922968
v -0.38999998569488525 1.8649999928474426 0.0015000010058283837
v 0.38999998569488525 1.8649999928474426 0.0015000010058283837
v -0.38999998569488525 0.8749999833106994 0.0015000010058283837
v 0.38999998569488525 0.8749999833106994 0.0015000010058283837
v 0.38999998569488525 1.8649999928474426 -0.04849999973922968
v -0.38999998569488525 1.8649999928474426 -0.04849999973922968
v 0.38999998569488525 0.8749999833106994 -0.04849999973922968
v -0.38999998569488525 0.8749999833106994 -0.04849999973922968
vt 0 1
vt 1 1
vt 0 0
vt 1 0
vt 0 1
vt 1 1
vt 0 0
vt 1 0
vt 0 1
vt 1 1
vt 0 0
vt 1 0
vt 0 1
vt 1 1
vt 0 0
vt 1 0
vt 0 1
vt 1 1
vt 0 0
vt 1 0
vt 0 1
vt 1 1
vt 0 0
vt 1 0
vn 1 0 0
vn 1 0 0
vn 1 0 0
vn 1 0 0
vn -1 0 0
vn -1 0 0
vn -1 0 0
vn -1 0 0
vn 0 1 0
vn 0 1 0
vn 0 1 0
vn 0 1 0
vn 0 -1 0
vn 0 -1 0
vn 0 -1 0
vn 0 -1 0
vn 0 0 1
vn 0 0 1
vn 0 0 1
vn 0 0 1
vn 0 0 -1
vn 0 0 -1
vn 0 0 -1
vn 0 0 -1
f 105/105/105 107/107/107 106/106/106
f 107/107/107 108/108/108 106/106/106
f 109/109/109 111/111/111 110/110/110
f 111/111/111 112/112/112 110/110/110
f 113/113/113 115/115/115 114/114/114
f 115/115/115 116/116/116 114/114/114
f 117/117/117 119/119/119 118/118/118
f 119/119/119 120/120/120 118/118/118
f 121/121/121 123/123/123 122/122/122
f 123/123/123 124/124/124 122/122/122
f 125/125/125 127/127/127 126/126/126
f 127/127/127 128/128/128 126/126/126
o case_glazing
usemtl SURF_Glass_Tempered
v 0.3199999928474426 1.7999999952316283 0.033500000298023226
v 0.3199999928474426 1.7999999952316283 0.00350000096857548
v 0.3199999928474426 0.9399999809265136 0.033500000298023226
v 0.3199999928474426 0.9399999809265136 0.00350000096857548
v -0.3199999928474426 1.7999999952316283 0.00350000096857548
v -0.3199999928474426 1.7999999952316283 0.033500000298023226
v -0.3199999928474426 0.9399999809265136 0.00350000096857548
v -0.3199999928474426 0.9399999809265136 0.033500000298023226
v -0.3199999928474426 1.7999999952316283 0.00350000096857548
v 0.3199999928474426 1.7999999952316283 0.00350000096857548
v -0.3199999928474426 1.7999999952316283 0.033500000298023226
v 0.3199999928474426 1.7999999952316283 0.033500000298023226
v -0.3199999928474426 0.9399999809265136 0.033500000298023226
v 0.3199999928474426 0.9399999809265136 0.033500000298023226
v -0.3199999928474426 0.9399999809265136 0.00350000096857548
v 0.3199999928474426 0.9399999809265136 0.00350000096857548
v -0.3199999928474426 1.7999999952316283 0.033500000298023226
v 0.3199999928474426 1.7999999952316283 0.033500000298023226
v -0.3199999928474426 0.9399999809265136 0.033500000298023226
v 0.3199999928474426 0.9399999809265136 0.033500000298023226
v 0.3199999928474426 1.7999999952316283 0.00350000096857548
v -0.3199999928474426 1.7999999952316283 0.00350000096857548
v 0.3199999928474426 0.9399999809265136 0.00350000096857548
v -0.3199999928474426 0.9399999809265136 0.00350000096857548
vt 0 1
vt 1 1
vt 0 0
vt 1 0
vt 0 1
vt 1 1
vt 0 0
vt 1 0
vt 0 1
vt 1 1
vt 0 0
vt 1 0
vt 0 1
vt 1 1
vt 0 0
vt 1 0
vt 0 1
vt 1 1
vt 0 0
vt 1 0
vt 0 1
vt 1 1
vt 0 0
vt 1 0
vn 1 0 0
vn 1 0 0
vn 1 0 0
vn 1 0 0
vn -1 0 0
vn -1 0 0
vn -1 0 0
vn -1 0 0
vn 0 1 0
vn 0 1 0
vn 0 1 0
vn 0 1 0
vn 0 -1 0
vn 0 -1 0
vn 0 -1 0
vn 0 -1 0
vn 0 0 1
vn 0 0 1
vn 0 0 1
vn 0 0 1
vn 0 0 -1
vn 0 0 -1
vn 0 0 -1
vn 0 0 -1
f 129/129/129 131/131/131 130/130/130
f 131/131/131 132/132/132 130/130/130
f 133/133/133 135/135/135 134/134/134
f 135/135/135 136/136/136 134/134/134
f 137/137/137 139/139/139 138/138/138
f 139/139/139 140/140/140 138/138/138
f 141/141/141 143/143/143 142/142/142
f 143/143/143 144/144/144 142/142/142
f 145/145/145 147/147/147 146/146/146
f 147/147/147 148/148/148 146/146/146
f 149/149/149 151/151/151 150/150/150
f 151/151/151 152/152/152 150/150/150
o timetable_paper
usemtl SURF_Paper_Newsprint
v 0.30000001192092896 1.7799999845027923 0.0065000006854534186
v 0.30000001192092896 1.7799999845027923 -0.00549999941885471
v 0.30000001192092896 0.9599999916553497 0.0065000006854534186
v 0.30000001192092896 0.9599999916553497 -0.00549999941885471
v -0.30000001192092896 1.7799999845027923 -0.00549999941885471
v -0.30000001192092896 1.7799999845027923 0.0065000006854534186
v -0.30000001192092896 0.9599999916553497 -0.00549999941885471
v -0.30000001192092896 0.9599999916553497 0.0065000006854534186
v -0.30000001192092896 1.7799999845027923 -0.00549999941885471
v 0.30000001192092896 1.7799999845027923 -0.00549999941885471
v -0.30000001192092896 1.7799999845027923 0.0065000006854534186
v 0.30000001192092896 1.7799999845027923 0.0065000006854534186
v -0.30000001192092896 0.9599999916553497 0.0065000006854534186
v 0.30000001192092896 0.9599999916553497 0.0065000006854534186
v -0.30000001192092896 0.9599999916553497 -0.00549999941885471
v 0.30000001192092896 0.9599999916553497 -0.00549999941885471
v -0.30000001192092896 1.7799999845027923 0.0065000006854534186
v 0.30000001192092896 1.7799999845027923 0.0065000006854534186
v -0.30000001192092896 0.9599999916553497 0.0065000006854534186
v 0.30000001192092896 0.9599999916553497 0.0065000006854534186
v 0.30000001192092896 1.7799999845027923 -0.00549999941885471
v -0.30000001192092896 1.7799999845027923 -0.00549999941885471
v 0.30000001192092896 0.9599999916553497 -0.00549999941885471
v -0.30000001192092896 0.9599999916553497 -0.00549999941885471
vt 0 1
vt 1 1
vt 0 0
vt 1 0
vt 0 1
vt 1 1
vt 0 0
vt 1 0
vt 0 1
vt 1 1
vt 0 0
vt 1 0
vt 0 1
vt 1 1
vt 0 0
vt 1 0
vt 0 1
vt 1 1
vt 0 0
vt 1 0
vt 0 1
vt 1 1
vt 0 0
vt 1 0
vn 1 0 0
vn 1 0 0
vn 1 0 0
vn 1 0 0
vn -1 0 0
vn -1 0 0
vn -1 0 0
vn -1 0 0
vn 0 1 0
vn 0 1 0
vn 0 1 0
vn 0 1 0
vn 0 -1 0
vn 0 -1 0
vn 0 -1 0
vn 0 -1 0
vn 0 0 1
vn 0 0 1
vn 0 0 1
vn 0 0 1
vn 0 0 -1
vn 0 0 -1
vn 0 0 -1
vn 0 0 -1
f 153/153/153 155/155/155 154/154/154
f 155/155/155 156/156/156 154/154/154
f 157/157/157 159/159/159 158/158/158
f 159/159/159 160/160/160 158/158/158
f 161/161/161 163/163/163 162/162/162
f 163/163/163 164/164/164 162/162/162
f 165/165/165 167/167/167 166/166/166
f 167/167/167 168/168/168 166/166/166
f 169/169/169 171/171/171 170/170/170
f 171/171/171 172/172/172 170/170/170
f 173/173/173 175/175/175 174/174/174
f 175/175/175 176/176/176 174/174/174
o case_frame_t
usemtl SURF_Aluminium_Brushed
v 0.3075000047683716 1.8799999874085187 0.04849999973922968
v 0.3075000047683716 1.8799999874085187 -0.03149999847263098
v 0.3075000047683716 1.8199999887496232 0.04849999973922968
v 0.3075000047683716 1.8199999887496232 -0.03149999847263098
v -0.3075000047683716 1.8799999874085187 -0.03149999847263098
v -0.3075000047683716 1.8799999874085187 0.04849999973922968
v -0.3075000047683716 1.8199999887496232 -0.03149999847263098
v -0.3075000047683716 1.8199999887496232 0.04849999973922968
v -0.3075000047683716 1.8799999874085187 -0.03149999847263098
v 0.3075000047683716 1.8799999874085187 -0.03149999847263098
v -0.3075000047683716 1.8799999874085187 0.04849999973922968
v 0.3075000047683716 1.8799999874085187 0.04849999973922968
v -0.3075000047683716 1.8199999887496232 0.04849999973922968
v 0.3075000047683716 1.8199999887496232 0.04849999973922968
v -0.3075000047683716 1.8199999887496232 -0.03149999847263098
v 0.3075000047683716 1.8199999887496232 -0.03149999847263098
v -0.3075000047683716 1.8799999874085187 0.04849999973922968
v 0.3075000047683716 1.8799999874085187 0.04849999973922968
v -0.3075000047683716 1.8199999887496232 0.04849999973922968
v 0.3075000047683716 1.8199999887496232 0.04849999973922968
v 0.3075000047683716 1.8799999874085187 -0.03149999847263098
v -0.3075000047683716 1.8799999874085187 -0.03149999847263098
v 0.3075000047683716 1.8199999887496232 -0.03149999847263098
v -0.3075000047683716 1.8199999887496232 -0.03149999847263098
vt 0 1
vt 1 1
vt 0 0
vt 1 0
vt 0 1
vt 1 1
vt 0 0
vt 1 0
vt 0 1
vt 1 1
vt 0 0
vt 1 0
vt 0 1
vt 1 1
vt 0 0
vt 1 0
vt 0 1
vt 1 1
vt 0 0
vt 1 0
vt 0 1
vt 1 1
vt 0 0
vt 1 0
vn 1 0 0
vn 1 0 0
vn 1 0 0
vn 1 0 0
vn -1 0 0
vn -1 0 0
vn -1 0 0
vn -1 0 0
vn 0 1 0
vn 0 1 0
vn 0 1 0
vn 0 1 0
vn 0 -1 0
vn 0 -1 0
vn 0 -1 0
vn 0 -1 0
vn 0 0 1
vn 0 0 1
vn 0 0 1
vn 0 0 1
vn 0 0 -1
vn 0 0 -1
vn 0 0 -1
vn 0 0 -1
f 177/177/177 179/179/179 178/178/178
f 179/179/179 180/180/180 178/178/178
f 181/181/181 183/183/183 182/182/182
f 183/183/183 184/184/184 182/182/182
f 185/185/185 187/187/187 186/186/186
f 187/187/187 188/188/188 186/186/186
f 189/189/189 191/191/191 190/190/190
f 191/191/191 192/192/192 190/190/190
f 193/193/193 195/195/195 194/194/194
f 195/195/195 196/196/196 194/194/194
f 197/197/197 199/199/199 198/198/198
f 199/199/199 200/200/200 198/198/198
o case_frame_b
usemtl SURF_Aluminium_Brushed
v 0.3075000047683716 0.9199999874085187 0.04849999973922968
v 0.3075000047683716 0.9199999874085187 -0.03149999847263098
v 0.3075000047683716 0.8599999887496232 0.04849999973922968
v 0.3075000047683716 0.8599999887496232 -0.03149999847263098
v -0.3075000047683716 0.9199999874085187 -0.03149999847263098
v -0.3075000047683716 0.9199999874085187 0.04849999973922968
v -0.3075000047683716 0.8599999887496232 -0.03149999847263098
v -0.3075000047683716 0.8599999887496232 0.04849999973922968
v -0.3075000047683716 0.9199999874085187 -0.03149999847263098
v 0.3075000047683716 0.9199999874085187 -0.03149999847263098
v -0.3075000047683716 0.9199999874085187 0.04849999973922968
v 0.3075000047683716 0.9199999874085187 0.04849999973922968
v -0.3075000047683716 0.8599999887496232 0.04849999973922968
v 0.3075000047683716 0.8599999887496232 0.04849999973922968
v -0.3075000047683716 0.8599999887496232 -0.03149999847263098
v 0.3075000047683716 0.8599999887496232 -0.03149999847263098
v -0.3075000047683716 0.9199999874085187 0.04849999973922968
v 0.3075000047683716 0.9199999874085187 0.04849999973922968
v -0.3075000047683716 0.8599999887496232 0.04849999973922968
v 0.3075000047683716 0.8599999887496232 0.04849999973922968
v 0.3075000047683716 0.9199999874085187 -0.03149999847263098
v -0.3075000047683716 0.9199999874085187 -0.03149999847263098
v 0.3075000047683716 0.8599999887496232 -0.03149999847263098
v -0.3075000047683716 0.8599999887496232 -0.03149999847263098
vt 0 1
vt 1 1
vt 0 0
vt 1 0
vt 0 1
vt 1 1
vt 0 0
vt 1 0
vt 0 1
vt 1 1
vt 0 0
vt 1 0
vt 0 1
vt 1 1
vt 0 0
vt 1 0
vt 0 1
vt 1 1
vt 0 0
vt 1 0
vt 0 1
vt 1 1
vt 0 0
vt 1 0
vn 1 0 0
vn 1 0 0
vn 1 0 0
vn 1 0 0
vn -1 0 0
vn -1 0 0
vn -1 0 0
vn -1 0 0
vn 0 1 0
vn 0 1 0
vn 0 1 0
vn 0 1 0
vn 0 -1 0
vn 0 -1 0
vn 0 -1 0
vn 0 -1 0
vn 0 0 1
vn 0 0 1
vn 0 0 1
vn 0 0 1
vn 0 0 -1
vn 0 0 -1
vn 0 0 -1
vn 0 0 -1
f 201/201/201 203/203/203 202/202/202
f 203/203/203 204/204/204 202/202/202
f 205/205/205 207/207/207 206/206/206
f 207/207/207 208/208/208 206/206/206
f 209/209/209 211/211/211 210/210/210
f 211/211/211 212/212/212 210/210/210
f 213/213/213 215/215/215 214/214/214
f 215/215/215 216/216/216 214/214/214
f 217/217/217 219/219/219 218/218/218
f 219/219/219 220/220/220 218/218/218
f 221/221/221 223/223/223 222/222/222
f 223/223/223 224/224/224 222/222/222
o case_frame_l
usemtl SURF_Aluminium_Brushed
v -0.3100000006705523 1.849999977350235 0.04849999973922968
v -0.3100000006705523 1.849999977350235 -0.03149999847263098
v -0.3100000006705523 0.889999998807907 0.04849999973922968
v -0.3100000006705523 0.889999998807907 -0.03149999847263098
v -0.36999999932944777 1.849999977350235 -0.03149999847263098
v -0.36999999932944777 1.849999977350235 0.04849999973922968
v -0.36999999932944777 0.889999998807907 -0.03149999847263098
v -0.36999999932944777 0.889999998807907 0.04849999973922968
v -0.36999999932944777 1.849999977350235 -0.03149999847263098
v -0.3100000006705523 1.849999977350235 -0.03149999847263098
v -0.36999999932944777 1.849999977350235 0.04849999973922968
v -0.3100000006705523 1.849999977350235 0.04849999973922968
v -0.36999999932944777 0.889999998807907 0.04849999973922968
v -0.3100000006705523 0.889999998807907 0.04849999973922968
v -0.36999999932944777 0.889999998807907 -0.03149999847263098
v -0.3100000006705523 0.889999998807907 -0.03149999847263098
v -0.36999999932944777 1.849999977350235 0.04849999973922968
v -0.3100000006705523 1.849999977350235 0.04849999973922968
v -0.36999999932944777 0.889999998807907 0.04849999973922968
v -0.3100000006705523 0.889999998807907 0.04849999973922968
v -0.3100000006705523 1.849999977350235 -0.03149999847263098
v -0.36999999932944777 1.849999977350235 -0.03149999847263098
v -0.3100000006705523 0.889999998807907 -0.03149999847263098
v -0.36999999932944777 0.889999998807907 -0.03149999847263098
vt 0 1
vt 1 1
vt 0 0
vt 1 0
vt 0 1
vt 1 1
vt 0 0
vt 1 0
vt 0 1
vt 1 1
vt 0 0
vt 1 0
vt 0 1
vt 1 1
vt 0 0
vt 1 0
vt 0 1
vt 1 1
vt 0 0
vt 1 0
vt 0 1
vt 1 1
vt 0 0
vt 1 0
vn 1 0 0
vn 1 0 0
vn 1 0 0
vn 1 0 0
vn -1 0 0
vn -1 0 0
vn -1 0 0
vn -1 0 0
vn 0 1 0
vn 0 1 0
vn 0 1 0
vn 0 1 0
vn 0 -1 0
vn 0 -1 0
vn 0 -1 0
vn 0 -1 0
vn 0 0 1
vn 0 0 1
vn 0 0 1
vn 0 0 1
vn 0 0 -1
vn 0 0 -1
vn 0 0 -1
vn 0 0 -1
f 225/225/225 227/227/227 226/226/226
f 227/227/227 228/228/228 226/226/226
f 229/229/229 231/231/231 230/230/230
f 231/231/231 232/232/232 230/230/230
f 233/233/233 235/235/235 234/234/234
f 235/235/235 236/236/236 234/234/234
f 237/237/237 239/239/239 238/238/238
f 239/239/239 240/240/240 238/238/238
f 241/241/241 243/243/243 242/242/242
f 243/243/243 244/244/244 242/242/242
f 245/245/245 247/247/247 246/246/246
f 247/247/247 248/248/248 246/246/246
o case_frame_r
usemtl SURF_Aluminium_Brushed
v 0.36999999932944777 1.849999977350235 0.04849999973922968
v 0.36999999932944777 1.849999977350235 -0.03149999847263098
v 0.36999999932944777 0.889999998807907 0.04849999973922968
v 0.36999999932944777 0.889999998807907 -0.03149999847263098
v 0.3100000006705523 1.849999977350235 -0.03149999847263098
v 0.3100000006705523 1.849999977350235 0.04849999973922968
v 0.3100000006705523 0.889999998807907 -0.03149999847263098
v 0.3100000006705523 0.889999998807907 0.04849999973922968
v 0.3100000006705523 1.849999977350235 -0.03149999847263098
v 0.36999999932944777 1.849999977350235 -0.03149999847263098
v 0.3100000006705523 1.849999977350235 0.04849999973922968
v 0.36999999932944777 1.849999977350235 0.04849999973922968
v 0.3100000006705523 0.889999998807907 0.04849999973922968
v 0.36999999932944777 0.889999998807907 0.04849999973922968
v 0.3100000006705523 0.889999998807907 -0.03149999847263098
v 0.36999999932944777 0.889999998807907 -0.03149999847263098
v 0.3100000006705523 1.849999977350235 0.04849999973922968
v 0.36999999932944777 1.849999977350235 0.04849999973922968
v 0.3100000006705523 0.889999998807907 0.04849999973922968
v 0.36999999932944777 0.889999998807907 0.04849999973922968
v 0.36999999932944777 1.849999977350235 -0.03149999847263098
v 0.3100000006705523 1.849999977350235 -0.03149999847263098
v 0.36999999932944777 0.889999998807907 -0.03149999847263098
v 0.3100000006705523 0.889999998807907 -0.03149999847263098
vt 0 1
vt 1 1
vt 0 0
vt 1 0
vt 0 1
vt 1 1
vt 0 0
vt 1 0
vt 0 1
vt 1 1
vt 0 0
vt 1 0
vt 0 1
vt 1 1
vt 0 0
vt 1 0
vt 0 1
vt 1 1
vt 0 0
vt 1 0
vt 0 1
vt 1 1
vt 0 0
vt 1 0
vn 1 0 0
vn 1 0 0
vn 1 0 0
vn 1 0 0
vn -1 0 0
vn -1 0 0
vn -1 0 0
vn -1 0 0
vn 0 1 0
vn 0 1 0
vn 0 1 0
vn 0 1 0
vn 0 -1 0
vn 0 -1 0
vn 0 -1 0
vn 0 -1 0
vn 0 0 1
vn 0 0 1
vn 0 0 1
vn 0 0 1
vn 0 0 -1
vn 0 0 -1
vn 0 0 -1
vn 0 0 -1
f 249/249/249 251/251/251 250/250/250
f 251/251/251 252/252/252 250/250/250
f 253/253/253 255/255/255 254/254/254
f 255/255/255 256/256/256 254/254/254
f 257/257/257 259/259/259 258/258/258
f 259/259/259 260/260/260 258/258/258
f 261/261/261 263/263/263 262/262/262
f 263/263/263 264/264/264 262/262/262
f 265/265/265 267/267/267 266/266/266
f 267/267/267 268/268/268 266/266/266
f 269/269/269 271/271/271 270/270/270
f 271/271/271 272/272/272 270/270/270
o header_strip
usemtl SURF_Tape_Warning
v 0.30000001192092896 1.7799999888241291 0.04750000084936619
v 0.30000001192092896 1.7799999888241291 0.033500000417232514
v 0.30000001192092896 1.679999987334013 0.04750000084936619
v 0.30000001192092896 1.679999987334013 0.033500000417232514
v -0.30000001192092896 1.7799999888241291 0.033500000417232514
v -0.30000001192092896 1.7799999888241291 0.04750000084936619
v -0.30000001192092896 1.679999987334013 0.033500000417232514
v -0.30000001192092896 1.679999987334013 0.04750000084936619
v -0.30000001192092896 1.7799999888241291 0.033500000417232514
v 0.30000001192092896 1.7799999888241291 0.033500000417232514
v -0.30000001192092896 1.7799999888241291 0.04750000084936619
v 0.30000001192092896 1.7799999888241291 0.04750000084936619
v -0.30000001192092896 1.679999987334013 0.04750000084936619
v 0.30000001192092896 1.679999987334013 0.04750000084936619
v -0.30000001192092896 1.679999987334013 0.033500000417232514
v 0.30000001192092896 1.679999987334013 0.033500000417232514
v -0.30000001192092896 1.7799999888241291 0.04750000084936619
v 0.30000001192092896 1.7799999888241291 0.04750000084936619
v -0.30000001192092896 1.679999987334013 0.04750000084936619
v 0.30000001192092896 1.679999987334013 0.04750000084936619
v 0.30000001192092896 1.7799999888241291 0.033500000417232514
v -0.30000001192092896 1.7799999888241291 0.033500000417232514
v 0.30000001192092896 1.679999987334013 0.033500000417232514
v -0.30000001192092896 1.679999987334013 0.033500000417232514
vt 0 1
vt 1 1
vt 0 0
vt 1 0
vt 0 1
vt 1 1
vt 0 0
vt 1 0
vt 0 1
vt 1 1
vt 0 0
vt 1 0
vt 0 1
vt 1 1
vt 0 0
vt 1 0
vt 0 1
vt 1 1
vt 0 0
vt 1 0
vt 0 1
vt 1 1
vt 0 0
vt 1 0
vn 1 0 0
vn 1 0 0
vn 1 0 0
vn 1 0 0
vn -1 0 0
vn -1 0 0
vn -1 0 0
vn -1 0 0
vn 0 1 0
vn 0 1 0
vn 0 1 0
vn 0 1 0
vn 0 -1 0
vn 0 -1 0
vn 0 -1 0
vn 0 -1 0
vn 0 0 1
vn 0 0 1
vn 0 0 1
vn 0 0 1
vn 0 0 -1
vn 0 0 -1
vn 0 0 -1
vn 0 0 -1
f 273/273/273 275/275/275 274/274/274
f 275/275/275 276/276/276 274/274/274
f 277/277/277 279/279/279 278/278/278
f 279/279/279 280/280/280 278/278/278
f 281/281/281 283/283/283 282/282/282
f 283/283/283 284/284/284 282/282/282
f 285/285/285 287/287/287 286/286/286
f 287/287/287 288/288/288 286/286/286
f 289/289/289 291/291/291 290/290/290
f 291/291/291 292/292/292 290/290/290
f 293/293/293 295/295/295 294/294/294
f 295/295/295 296/296/296 294/294/294
