mtllib SM_TrashBin_LidOpen.mtl
o bin_body
usemtl SURF_Steel_Painted
v 0 0.8600000143051147 0.2938121596096924
v 0.19091883301734924 0.8600000143051147 0.2147309818982056
v 0.27000001072883606 0.8600000143051147 0.023812148880856383
v 0.19091883301734924 0.8600000143051147 -0.16710668413649288
v 3.306546303456606e-17 0.8600000143051147 -0.2461878618479797
v -0.19091883301734924 0.8600000143051147 -0.16710668413649288
v -0.27000001072883606 0.8600000143051147 0.023812148880856317
v -0.19091883301734924 0.8600000143051147 0.2147309818982056
v -6.613092606913212e-17 0.8600000143051147 0.2938121596096924
v 0 0 0.2538121530531815
v 0.16263456642627716 0 0.18644671530713353
v 0.23000000417232513 0 0.02381214888085638
v 0.16263456642627716 0 -0.1388224175454208
v 2.816687628596988e-17 0 -0.20618785529146877
v -0.16263456642627716 0 -0.1388224175454208
v -0.23000000417232513 0 0.023812148880856324
v -0.16263456642627716 0 0.18644671530713353
v -5.633375257193976e-17 0 0.2538121530531815
v 0 0.8600000143051147 0.023812148880856365
v 0 0.8600000143051147 0.023812148880856365
v 0 0.8600000143051147 0.023812148880856365
v 0 0.8600000143051147 0.023812148880856365
v 0 0.8600000143051147 0.023812148880856365
v 0 0.8600000143051147 0.023812148880856365
v 0 0.8600000143051147 0.023812148880856365
v 0 0.8600000143051147 0.023812148880856365
v 0 0.8600000143051147 0.2938121596096924
v 0.19091883301734924 0.8600000143051147 0.2147309818982056
v 0.27000001072883606 0.8600000143051147 0.023812148880856383
v 0.19091883301734924 0.8600000143051147 -0.16710668413649288
v 3.306546303456606e-17 0.8600000143051147 -0.2461878618479797
v -0.19091883301734924 0.8600000143051147 -0.16710668413649288
v -0.27000001072883606 0.8600000143051147 0.023812148880856317
v -0.19091883301734924 0.8600000143051147 0.2147309818982056
v -6.613092606913212e-17 0.8600000143051147 0.2938121596096924
v 0 0 0.023812148880856365
v 0 0 0.023812148880856365
v 0 0 0.023812148880856365
v 0 0 0.023812148880856365
v 0 0 0.023812148880856365
v 0 0 0.023812148880856365
v 0 0 0.023812148880856365
v 0 0 0.023812148880856365
v 0 0 0.2538121530531815
v 0.16263456642627716 0 0.18644671530713353
v 0.23000000417232513 0 0.02381214888085638
v 0.16263456642627716 0 -0.1388224175454208
v 2.816687628596988e-17 0 -0.20618785529146877
v -0.16263456642627716 0 -0.1388224175454208
v -0.23000000417232513 0 0.023812148880856324
v -0.16263456642627716 0 0.18644671530713353
v -5.633375257193976e-17 0 0.2538121530531815
vt 0 1
vt 0.125 1
vt 0.25 1
vt 0.375 1
vt 0.5 1
vt 0.625 1
vt 0.75 1
vt 0.875 1
vt 1 1
vt 0 0
vt 0.125 0
vt 0.25 0
vt 0.375 0
vt 0.5 0
vt 0.625 0
vt 0.75 0
vt 0.875 0
vt 1 0
vt 0.5 0.5
vt 0.5 0.5
vt 0.5 0.5
vt 0.5 0.5
vt 0.5 0.5
vt 0.5 0.5
vt 0.5 0.5
vt 0.5 0.5
vt 1 0.5
vt 0.8535534143447876 0.8535534143447876
vt 0.5 1
vt 0.1464466154575348 0.8535534143447876
vt 0 0.5
vt 0.1464466154575348 0.1464466154575348
vt 0.5 0
vt 0.8535534143447876 0.1464466154575348
vt 1 0.5
vt 0.5 0.5
vt 0.5 0.5
vt 0.5 0.5
vt 0.5 0.5
vt 0.5 0.5
vt 0.5 0.5
vt 0.5 0.5
vt 0.5 0.5
vt 1 0.5
vt 0.8535534143447876 0.1464466154575348
vt 0.5 0
vt 0.1464466154575348 0.1464466154575348
vt 0 0.5
vt 0.1464466154575348 0.8535534143447876
vt 0.5 1
vt 0.8535534143447876 0.8535534143447876
vt 1 0.5
vn 0 -0.0464613997847064 0.9989200860579617
vn 0.706343166735316 -0.04646139916803008 0.706343166735316
vn 0.9989200860579617 -0.0464613997847064 6.11662146868004e-17
vn 0.706343166735316 -0.04646139916803008 -0.706343166735316
vn 1.223324293736008e-16 -0.0464613997847064 -0.9989200860579617
vn -0.706343166735316 -0.04646139916803008 -0.706343166735316
vn -0.9989200860579617 -0.0464613997847064 -1.8349863744295628e-16
vn -0.706343166735316 -0.04646139916803008 0.706343166735316
vn -2.446648587472016e-16 -0.0464613997847064 0.9989200860579617
vn 0 -0.0464613997847064 0.9989200860579617
vn 0.706343166735316 -0.04646139916803008 0.706343166735316
vn 0.9989200860579617 -0.0464613997847064 6.11662146868004e-17
vn 0.706343166735316 -0.04646139916803008 -0.706343166735316
vn 1.223324293736008e-16 -0.0464613997847064 -0.9989200860579617
vn -0.706343166735316 -0.04646139916803008 -0.706343166735316
vn -0.9989200860579617 -0.0464613997847064 -1.8349863744295628e-16
vn -0.706343166735316 -0.04646139916803008 0.706343166735316
vn -2.446648587472016e-16 -0.0464613997847064 0.9989200860579617
vn 0 1 0
vn 0 1 0
vn 0 1 0
vn 0 1 0
vn 0 1 0
vn 0 1 0
vn 0 1 0
vn 0 1 0
vn 0 1 0
vn 0 1 0
vn 0 1 0
vn 0 1 0
vn 0 1 0
vn 0 1 0
vn 0 1 0
vn 0 1 0
vn 0 1 0
vn 0 -1 0
vn 0 -1 0
vn 0 -1 0
vn 0 -1 0
vn 0 -1 0
vn 0 -1 0
vn 0 -1 0
vn 0 -1 0
vn 0 -1 0
vn 0 -1 0
vn 0 -1 0
vn 0 -1 0
vn 0 -1 0
vn 0 -1 0
vn 0 -1 0
vn 0 -1 0
vn 0 -1 0
f 1/1/1 10/10/10 2/2/2
f 10/10/10 11/11/11 2/2/2
f 2/2/2 11/11/11 3/3/3
f 11/11/11 12/12/12 3/3/3
f 3/3/3 12/12/12 4/4/4
f 12/12/12 13/13/13 4/4/4
f 4/4/4 13/13/13 5/5/5
f 13/13/13 14/14/14 5/5/5
f 5/5/5 14/14/14 6/6/6
f 14/14/14 15/15/15 6/6/6
f 6/6/6 15/15/15 7/7/7
f 15/15/15 16/16/16 7/7/7
f 7/7/7 16/16/16 8/8/8
f 16/16/16 17/17/17 8/8/8
f 8/8/8 17/17/17 9/9/9
f 17/17/17 18/18/18 9/9/9
f 27/27/27 28/28/28 19/19/19
f 28/28/28 29/29/29 20/20/20
f 29/29/29 30/30/30 21/21/21
f 30/30/30 31/31/31 22/22/22
f 31/31/31 32/32/32 23/23/23
f 32/32/32 33/33/33 24/24/24
f 33/33/33 34/34/34 25/25/25
f 34/34/34 35/35/35 26/26/26
f 45/45/45 44/44/44 36/36/36
f 46/46/46 45/45/45 37/37/37
f 47/47/47 46/46/46 38/38/38
f 48/48/48 47/47/47 39/39/39
f 49/49/49 48/48/48 40/40/40
f 50/50/50 49/49/49 41/41/41
f 51/51/51 50/50/50 42/42/42
f 52/52/52 51/51/51 43/43/43
o bin_rim
usemtl SURF_Metal_Galvanised
v 0 0.9000000064820051 0.3088121453045777
v 0.20152543485164642 0.9000000064820051 0.2253375837325028
v 0.2849999964237213 0.9000000064820051 0.023812148880856383
v 0.20152543485164642 0.9000000064820051 -0.17771328597079006
v 3.4902432651699324e-17 0.9000000064820051 -0.26118784754286495
v -0.20152543485164642 0.9000000064820051 -0.17771328597079006
v -0.2849999964237213 0.9000000064820051 0.023812148880856313
v -0.20152543485164642 0.9000000064820051 0.2253375837325028
v -6.980486530339865e-17 0.9000000064820051 0.3088121453045777
v 0 0.8400000078231096 0.3088121453045777
v 0.20152543485164642 0.8400000078231096 0.2253375837325028
v 0.2849999964237213 0.8400000078231096 0.023812148880856383
v 0.20152543485164642 0.8400000078231096 -0.17771328597079006
v 3.4902432651699324e-17 0.8400000078231096 -0.26118784754286495
v -0.20152543485164642 0.8400000078231096 -0.17771328597079006
v -0.2849999964237213 0.8400000078231096 0.023812148880856313
v -0.20152543485164642 0.8400000078231096 0.2253375837325028
v -6.980486530339865e-17 0.8400000078231096 0.3088121453045777
v 0 0.9000000064820051 0.023812148880856365
v 0 0.9000000064820051 0.023812148880856365
v 0 0.9000000064820051 0.023812148880856365
v 0 0.9000000064820051 0.023812148880856365
v 0 0.9000000064820051 0.023812148880856365
v 0 0.9000000064820051 0.023812148880856365
v 0 0.9000000064820051 0.023812148880856365
v 0 0.9000000064820051 0.023812148880856365
v 0 0.9000000064820051 0.3088121453045777
v 0.20152543485164642 0.9000000064820051 0.2253375837325028
v 0.2849999964237213 0.9000000064820051 0.023812148880856383
v 0.20152543485164642 0.9000000064820051 -0.17771328597079006
v 3.4902432651699324e-17 0.9000000064820051 -0.26118784754286495
v -0.20152543485164642 0.9000000064820051 -0.17771328597079006
v -0.2849999964237213 0.9000000064820051 0.023812148880856313
v -0.20152543485164642 0.9000000064820051 0.2253375837325028
v -6.980486530339865e-17 0.9000000064820051 0.3088121453045777
v 0 0.8400000078231096 0.023812148880856365
v 0 0.8400000078231096 0.023812148880856365
v 0 0.8400000078231096 0.023812148880856365
v 0 0.8400000078231096 0.023812148880856365
v 0 0.8400000078231096 0.023812148880856365
v 0 0.8400000078231096 0.023812148880856365
v 0 0.8400000078231096 0.023812148880856365
v 0 0.8400000078231096 0.023812148880856365
v 0 0.8400000078231096 0.3088121453045777
v 0.20152543485164642 0.8400000078231096 0.2253375837325028
v 0.2849999964237213 0.8400000078231096 0.023812148880856383
v 0.20152543485164642 0.8400000078231096 -0.17771328597079006
v 3.4902432651699324e-17 0.8400000078231096 -0.26118784754286495
v -0.20152543485164642 0.8400000078231096 -0.17771328597079006
v -0.2849999964237213 0.8400000078231096 0.023812148880856313
v -0.20152543485164642 0.8400000078231096 0.2253375837325028
v -6.980486530339865e-17 0.8400000078231096 0.3088121453045777
vt 0 1
vt 0.125 1
vt 0.25 1
vt 0.375 1
vt 0.5 1
vt 0.625 1
vt 0.75 1
vt 0.875 1
vt 1 1
vt 0 0
vt 0.125 0
vt 0.25 0
vt 0.375 0
vt 0.5 0
vt 0.625 0
vt 0.75 0
vt 0.875 0
vt 1 0
vt 0.5 0.5
vt 0.5 0.5
vt 0.5 0.5
vt 0.5 0.5
vt 0.5 0.5
vt 0.5 0.5
vt 0.5 0.5
vt 0.5 0.5
vt 1 0.5
vt 0.8535534143447876 0.8535534143447876
vt 0.5 1
vt 0.1464466154575348 0.8535534143447876
vt 0 0.5
vt 0.1464466154575348 0.1464466154575348
vt 0.5 0
vt 0.8535534143447876 0.1464466154575348
vt 1 0.5
vt 0.5 0.5
vt 0.5 0.5
vt 0.5 0.5
vt 0.5 0.5
vt 0.5 0.5
vt 0.5 0.5
vt 0.5 0.5
vt 0.5 0.5
vt 1 0.5
vt 0.8535534143447876 0.1464466154575348
vt 0.5 0
vt 0.1464466154575348 0.1464466154575348
vt 0 0.5
vt 0.1464466154575348 0.8535534143447876
vt 0.5 1
vt 0.8535534143447876 0.8535534143447876
vt 1 0.5
vn 0 0 1
vn 0.7071067811865476 0 0.7071067811865476
vn 1 0 6.123234262925839e-17
vn 0.7071067811865476 0 -0.7071067811865476
vn 1.2246468525851679e-16 0 -1
vn -0.7071067811865476 0 -0.7071067811865476
vn -1 0 -1.8369701465288538e-16
vn -0.7071067811865476 0 0.7071067811865476
vn -2.4492937051703357e-16 0 1
vn 0 0 1
vn 0.7071067811865476 0 0.7071067811865476
vn 1 0 6.123234262925839e-17
vn 0.7071067811865476 0 -0.7071067811865476
vn 1.2246468525851679e-16 0 -1
vn -0.7071067811865476 0 -0.7071067811865476
vn -1 0 -1.8369701465288538e-16
vn -0.7071067811865476 0 0.7071067811865476
vn -2.4492937051703357e-16 0 1
vn 0 1 0
vn 0 1 0
vn 0 1 0
vn 0 1 0
vn 0 1 0
vn 0 1 0
vn 0 1 0
vn 0 1 0
vn 0 1 0
vn 0 1 0
vn 0 1 0
vn 0 1 0
vn 0 1 0
vn 0 1 0
vn 0 1 0
vn 0 1 0
vn 0 1 0
vn 0 -1 0
vn 0 -1 0
vn 0 -1 0
vn 0 -1 0
vn 0 -1 0
vn 0 -1 0
vn 0 -1 0
vn 0 -1 0
vn 0 -1 0
vn 0 -1 0
vn 0 -1 0
vn 0 -1 0
vn 0 -1 0
vn 0 -1 0
vn 0 -1 0
vn 0 -1 0
vn 0 -1 0
f 53/53/53 62/62/62 54/54/54
f 62/62/62 63/63/63 54/54/54
f 54/54/54 63/63/63 55/55/55
f 63/63/63 64/64/64 55/55/55
f 55/55/55 64/64/64 56/56/56
f 64/64/64 65/65/65 56/56/56
f 56/56/56 65/65/65 57/57/57
f 65/65/65 66/66/66 57/57/57
f 57/57/57 66/66/66 58/58/58
f 66/66/66 67/67/67 58/58/58
f 58/58/58 67/67/67 59/59/59
f 67/67/67 68/68/68 59/59/59
f 59/59/59 68/68/68 60/60/60
f 68/68/68 69/69/69 60/60/60
f 60/60/60 69/69/69 61/61/61
f 69/69/69 70/70/70 61/61/61
f 79/79/79 80/80/80 71/71/71
f 80/80/80 81/81/81 72/72/72
f 81/81/81 82/82/82 73/73/73
f 82/82/82 83/83/83 74/74/74
f 83/83/83 84/84/84 75/75/75
f 84/84/84 85/85/85 76/76/76
f 85/85/85 86/86/86 77/77/77
f 86/86/86 87/87/87 78/78/78
f 97/97/97 96/96/96 88/88/88
f 98/98/98 97/97/97 89/89/89
f 99/99/99 98/98/98 90/90/90
f 100/100/100 99/99/99 91/91/91
f 101/101/101 100/100/100 92/92/92
f 102/102/102 101/101/101 93/93/93
f 103/103/103 102/102/102 94/94/94
f 104/104/104 103/103/103 95/95/95
o bin_foot
usemtl SURF_Rubber_Black
v 0 0.05000000752508641 0.2588121482848099
v 0.16617009043693542 0.05000000752508641 0.1899822393177918
v 0.23499999940395355 0.05000000752508641 0.02381214888085638
v 0.16617009043693542 0.05000000752508641 -0.14235794155607906
v 2.8779198388773484e-17 0.05000000752508641 -0.2111878505230972
v -0.16617009043693542 0.05000000752508641 -0.14235794155607906
v -0.23499999940395355 0.05000000752508641 0.023812148880856324
v -0.16617009043693542 0.05000000752508641 0.1899822393177918
v -5.755839677754697e-17 0.05000000752508641 0.2588121482848099
v 0 6.7800283512498005e-9 0.27381214888085637
v 0.1767766922712326 6.7800283512498005e-9 0.20058884115208897
v 0.25 6.7800283512498005e-9 0.02381214888085638
v 0.1767766922712326 6.7800283512498005e-9 -0.15296454339037624
v 3.0616171314629196e-17 6.7800283512498005e-9 -0.22618785111914363
v -0.1767766922712326 6.7800283512498005e-9 -0.15296454339037624
v -0.25 6.7800283512498005e-9 0.02381214888085632
v -0.1767766922712326 6.7800283512498005e-9 0.20058884115208897
v -6.123234262925839e-17 6.7800283512498005e-9 0.27381214888085637
v 0 0.05000000752508641 0.023812148880856365
v 0 0.05000000752508641 0.023812148880856365
v 0 0.05000000752508641 0.023812148880856365
v 0 0.05000000752508641 0.023812148880856365
v 0 0.05000000752508641 0.023812148880856365
v 0 0.05000000752508641 0.023812148880856365
v 0 0.05000000752508641 0.023812148880856365
v 0 0.05000000752508641 0.023812148880856365
v 0 0.05000000752508641 0.2588121482848099
v 0.16617009043693542 0.05000000752508641 0.1899822393177918
v 0.23499999940395355 0.05000000752508641 0.02381214888085638
v 0.16617009043693542 0.05000000752508641 -0.14235794155607906
v 2.8779198388773484e-17 0.05000000752508641 -0.2111878505230972
v -0.16617009043693542 0.05000000752508641 -0.14235794155607906
v -0.23499999940395355 0.05000000752508641 0.023812148880856324
v -0.16617009043693542 0.05000000752508641 0.1899822393177918
v -5.755839677754697e-17 0.05000000752508641 0.2588121482848099
v 0 6.7800283512498005e-9 0.023812148880856365
v 0 6.7800283512498005e-9 0.023812148880856365
v 0 6.7800283512498005e-9 0.023812148880856365
v 0 6.7800283512498005e-9 0.023812148880856365
v 0 6.7800283512498005e-9 0.023812148880856365
v 0 6.7800283512498005e-9 0.023812148880856365
v 0 6.7800283512498005e-9 0.023812148880856365
v 0 6.7800283512498005e-9 0.023812148880856365
v 0 6.7800283512498005e-9 0.27381214888085637
v 0.1767766922712326 6.7800283512498005e-9 0.20058884115208897
v 0.25 6.7800283512498005e-9 0.02381214888085638
v 0.1767766922712326 6.7800283512498005e-9 -0.15296454339037624
v 3.0616171314629196e-17 6.7800283512498005e-9 -0.22618785111914363
v -0.1767766922712326 6.7800283512498005e-9 -0.15296454339037624
v -0.25 6.7800283512498005e-9 0.02381214888085632
v -0.1767766922712326 6.7800283512498005e-9 0.20058884115208897
v -6.123234262925839e-17 6.7800283512498005e-9 0.27381214888085637
vt 0 1
vt 0.125 1
vt 0.25 1
vt 0.375 1
vt 0.5 1
vt 0.625 1
vt 0.75 1
vt 0.875 1
vt 1 1
vt 0 0
vt 0.125 0
vt 0.25 0
vt 0.375 0
vt 0.5 0
vt 0.625 0
vt 0.75 0
vt 0.875 0
vt 1 0
vt 0.5 0.5
vt 0.5 0.5
vt 0.5 0.5
vt 0.5 0.5
vt 0.5 0.5
vt 0.5 0.5
vt 0.5 0.5
vt 0.5 0.5
vt 1 0.5
vt 0.8535534143447876 0.8535534143447876
vt 0.5 1
vt 0.1464466154575348 0.8535534143447876
vt 0 0.5
vt 0.1464466154575348 0.1464466154575348
vt 0.5 0
vt 0.8535534143447876 0.1464466154575348
vt 1 0.5
vt 0.5 0.5
vt 0.5 0.5
vt 0.5 0.5
vt 0.5 0.5
vt 0.5 0.5
vt 0.5 0.5
vt 0.5 0.5
vt 0.5 0.5
vt 1 0.5
vt 0.8535534143447876 0.1464466154575348
vt 0.5 0
vt 0.1464466154575348 0.1464466154575348
vt 0 0.5
vt 0.1464466154575348 0.8535534143447876
vt 0.5 1
vt 0.8535534143447876 0.8535534143447876
vt 1 0.5
vn 0 0.28734789103466163 0.9578262835806567
vn 0.6772854596140875 0.2873478943557249 0.6772854596140875
vn 0.9578262835806567 0.28734789103466163 5.864994595665254e-17
vn 0.6772854596140875 0.2873478943557249 -0.6772854596140875
vn 1.1729989191330509e-16 0.28734789103466163 -0.9578262835806567
vn -0.6772854596140875 0.2873478943557249 -0.6772854596140875
vn -0.9578262835806567 0.28734789103466163 -1.759498444874027e-16
vn -0.6772854596140875 0.2873478943557249 0.6772854596140875
vn -2.3459978382661017e-16 0.28734789103466163 0.9578262835806567
vn 0 0.28734789103466163 0.9578262835806567
vn 0.6772854596140875 0.2873478943557249 0.6772854596140875
vn 0.9578262835806567 0.28734789103466163 5.864994595665254e-17
vn 0.6772854596140875 0.2873478943557249 -0.6772854596140875
vn 1.1729989191330509e-16 0.28734789103466163 -0.9578262835806567
vn -0.6772854596140875 0.2873478943557249 -0.6772854596140875
vn -0.9578262835806567 0.28734789103466163 -1.759498444874027e-16
vn -0.6772854596140875 0.2873478943557249 0.6772854596140875
vn -2.3459978382661017e-16 0.28734789103466163 0.9578262835806567
vn 0 1 0
vn 0 1 0
vn 0 1 0
vn 0 1 0
vn 0 1 0
vn 0 1 0
vn 0 1 0
vn 0 1 0
vn 0 1 0
vn 0 1 0
vn 0 1 0
vn 0 1 0
vn 0 1 0
vn 0 1 0
vn 0 1 0
vn 0 1 0
vn 0 1 0
vn 0 -1 0
vn 0 -1 0
vn 0 -1 0
vn 0 -1 0
vn 0 -1 0
vn 0 -1 0
vn 0 -1 0
vn 0 -1 0
vn 0 -1 0
vn 0 -1 0
vn 0 -1 0
vn 0 -1 0
vn 0 -1 0
vn 0 -1 0
vn 0 -1 0
vn 0 -1 0
vn 0 -1 0
f 105/105/105 114/114/114 106/106/106
f 114/114/114 115/115/115 106/106/106
f 106/106/106 115/115/115 107/107/107
f 115/115/115 116/116/116 107/107/107
f 107/107/107 116/116/116 108/108/108
f 116/116/116 117/117/117 108/108/108
f 108/108/108 117/117/117 109/109/109
f 117/117/117 118/118/118 109/109/109
f 109/109/109 118/118/118 110/110/110
f 118/118/118 119/119/119 110/110/110
f 110/110/110 119/119/119 111/111/111
f 119/119/119 120/120/120 111/111/111
f 111/111/111 120/120/120 112/112/112
f 120/120/120 121/121/121 112/112/112
f 112/112/112 121/121/121 113/113/113
f 121/121/121 122/122/122 113/113/113
f 131/131/131 132/132/132 123/123/123
f 132/132/132 133/133/133 124/124/124
f 133/133/133 134/134/134 125/125/125
f 134/134/134 135/135/135 126/126/126
f 135/135/135 136/136/136 127/127/127
f 136/136/136 137/137/137 128/128/128
f 137/137/137 138/138/138 129/129/129
f 138/138/138 139/139/139 130/130/130
f 149/149/149 148/148/148 140/140/140
f 150/150/150 149/149/149 141/141/141
f 151/151/151 150/150/150 142/142/142
f 152/152/152 151/151/151 143/143/143
f 153/153/153 152/152/152 144/144/144
f 154/154/154 153/153/153 145/145/145
f 155/155/155 154/154/154 146/146/146
f 156/156/156 155/155/155 147/147/147
o refuse_fill
usemtl SURF_Paper_Newsprint
v 0 0.9700000068545342 0.26381214351643834
v 0.16970562934875488 0.9700000068545342 0.19351777822961125
v 0.23999999463558197 0.9700000068545342 0.02381214888085638
v 0.16970562934875488 0.9700000068545342 -0.14589348046789852
v 2.939152380029954e-17 0.9700000068545342 -0.2161878457547256
v -0.16970562934875488 0.9700000068545342 -0.14589348046789852
v -0.23999999463558197 0.9700000068545342 0.02381214888085632
v -0.16970562934875488 0.9700000068545342 0.19351777822961125
v -5.878304760059908e-17 0.9700000068545342 0.26381214351643834
v 0 0.8600000074505807 0.23381214232434544
v 0.14849242568016052 0.8600000074505807 0.1723045745610169
v 0.20999999344348907 0.8600000074505807 0.02381214888085638
v 0.14849242568016052 0.8600000074505807 -0.12468027679930416
v 2.571758291167179e-17 0.8600000074505807 -0.1861878445626327
v -0.14849242568016052 0.8600000074505807 -0.12468027679930416
v -0.20999999344348907 0.8600000074505807 0.023812148880856327
v -0.14849242568016052 0.8600000074505807 0.1723045745610169
v -5.143516582334358e-17 0.8600000074505807 0.23381214232434544
v 0 0.9700000068545342 0.023812148880856365
v 0 0.9700000068545342 0.023812148880856365
v 0 0.9700000068545342 0.023812148880856365
v 0 0.9700000068545342 0.023812148880856365
v 0 0.9700000068545342 0.023812148880856365
v 0 0.9700000068545342 0.023812148880856365
v 0 0.9700000068545342 0.023812148880856365
v 0 0.9700000068545342 0.023812148880856365
v 0 0.9700000068545342 0.26381214351643834
v 0.16970562934875488 0.9700000068545342 0.19351777822961125
v 0.23999999463558197 0.9700000068545342 0.02381214888085638
v 0.16970562934875488 0.9700000068545342 -0.14589348046789852
v 2.939152380029954e-17 0.9700000068545342 -0.2161878457547256
v -0.16970562934875488 0.9700000068545342 -0.14589348046789852
v -0.23999999463558197 0.9700000068545342 0.02381214888085632
v -0.16970562934875488 0.9700000068545342 0.19351777822961125
v -5.878304760059908e-17 0.9700000068545342 0.26381214351643834
v 0 0.8600000074505807 0.023812148880856365
v 0 0.8600000074505807 0.023812148880856365
v 0 0.8600000074505807 0.023812148880856365
v 0 0.8600000074505807 0.023812148880856365
v 0 0.8600000074505807 0.023812148880856365
v 0 0.8600000074505807 0.023812148880856365
v 0 0.8600000074505807 0.023812148880856365
v 0 0.8600000074505807 0.023812148880856365
v 0 0.8600000074505807 0.23381214232434544
v 0.14849242568016052 0.8600000074505807 0.1723045745610169
v 0.20999999344348907 0.8600000074505807 0.02381214888085638
v 0.14849242568016052 0.8600000074505807 -0.12468027679930416
v 2.571758291167179e-17 0.8600000074505807 -0.1861878445626327
v -0.14849242568016052 0.8600000074505807 -0.12468027679930416
v -0.20999999344348907 0.8600000074505807 0.023812148880856327
v -0.14849242568016052 0.8600000074505807 0.1723045745610169
v -5.143516582334358e-17 0.8600000074505807 0.23381214232434544
vt 0 1
vt 0.125 1
vt 0.25 1
vt 0.375 1
vt 0.5 1
vt 0.625 1
vt 0.75 1
vt 0.875 1
vt 1 1
vt 0 0
vt 0.125 0
vt 0.25 0
vt 0.375 0
vt 0.5 0
vt 0.625 0
vt 0.75 0
vt 0.875 0
vt 1 0
vt 0.5 0.5
vt 0.5 0.5
vt 0.5 0.5
vt 0.5 0.5
vt 0.5 0.5
vt 0.5 0.5
vt 0.5 0.5
vt 0.5 0.5
vt 1 0.5
vt 0.8535534143447876 0.8535534143447876
vt 0.5 1
vt 0.1464466154575348 0.8535534143447876
vt 0 0.5
vt 0.1464466154575348 0.1464466154575348
vt 0.5 0
vt 0.8535534143447876 0.1464466154575348
vt 1 0.5
vt 0.5 0.5
vt 0.5 0.5
vt 0.5 0.5
vt 0.5 0.5
vt 0.5 0.5
vt 0.5 0.5
vt 0.5 0.5
vt 0.5 0.5
vt 1 0.5
vt 0.8535534143447876 0.1464466154575348
vt 0.5 0
vt 0.1464466154575348 0.1464466154575348
vt 0 0.5
vt 0.1464466154575348 0.8535534143447876
vt 0.5 1
vt 0.8535534143447876 0.8535534143447876
vt 1 0.5
vn 0 -0.2631174032703738 0.964763821925478
vn 0.682191038982566 -0.2631174123158223 0.682191038982566
vn 0.964763821925478 -0.2631174032703738 5.907474467921876e-17
vn 0.682191038982566 -0.2631174123158223 -0.682191038982566
vn 1.1814948935843752e-16 -0.2631174032703738 -0.964763821925478
vn -0.682191038982566 -0.2631174123158223 -0.682191038982566
vn -0.964763821925478 -0.2631174032703738 -1.7722424065510118e-16
vn -0.682191038982566 -0.2631174123158223 0.682191038982566
vn -2.3629897871687504e-16 -0.2631174032703738 0.964763821925478
vn 0 -0.2631174032703738 0.964763821925478
vn 0.682191038982566 -0.2631174123158223 0.682191038982566
vn 0.964763821925478 -0.2631174032703738 5.907474467921876e-17
vn 0.682191038982566 -0.2631174123158223 -0.682191038982566
vn 1.1814948935843752e-16 -0.2631174032703738 -0.964763821925478
vn -0.682191038982566 -0.2631174123158223 -0.682191038982566
vn -0.964763821925478 -0.2631174032703738 -1.7722424065510118e-16
vn -0.682191038982566 -0.2631174123158223 0.682191038982566
vn -2.3629897871687504e-16 -0.2631174032703738 0.964763821925478
vn 0 1 0
vn 0 1 0
vn 0 1 0
vn 0 1 0
vn 0 1 0
vn 0 1 0
vn 0 1 0
vn 0 1 0
vn 0 1 0
vn 0 1 0
vn 0 1 0
vn 0 1 0
vn 0 1 0
vn 0 1 0
vn 0 1 0
vn 0 1 0
vn 0 1 0
vn 0 -1 0
vn 0 -1 0
vn 0 -1 0
vn 0 -1 0
vn 0 -1 0
vn 0 -1 0
vn 0 -1 0
vn 0 -1 0
vn 0 -1 0
vn 0 -1 0
vn 0 -1 0
vn 0 -1 0
vn 0 -1 0
vn 0 -1 0
vn 0 -1 0
vn 0 -1 0
vn 0 -1 0
f 157/157/157 166/166/166 158/158/158
f 166/166/166 167/167/167 158/158/158
f 158/158/158 167/167/167 159/159/159
f 167/167/167 168/168/168 159/159/159
f 159/159/159 168/168/168 160/160/160
f 168/168/168 169/169/169 160/160/160
f 160/160/160 169/169/169 161/161/161
f 169/169/169 170/170/170 161/161/161
f 161/161/161 170/170/170 162/162/162
f 170/170/170 171/171/171 162/162/162
f 162/162/162 171/171/171 163/163/163
f 171/171/171 172/172/172 163/163/163
f 163/163/163 172/172/172 164/164/164
f 172/172/172 173/173/173 164/164/164
f 164/164/164 173/173/173 165/165/165
f 173/173/173 174/174/174 165/165/165
f 183/183/183 184/184/184 175/175/175
f 184/184/184 185/185/185 176/176/176
f 185/185/185 186/186/186 177/177/177
f 186/186/186 187/187/187 178/178/178
f 187/187/187 188/188/188 179/179/179
f 188/188/188 189/189/189 180/180/180
f 189/189/189 190/190/190 181/181/181
f 190/190/190 191/191/191 182/182/182
f 201/201/201 200/200/200 192/192/192
f 202/202/202 201/201/201 193/193/193
f 203/203/203 202/202/202 194/194/194
f 204/204/204 203/203/203 195/195/195
f 205/205/205 204/204/204 196/196/196
f 206/206/206 205/205/205 197/197/197
f 207/207/207 206/206/206 198/198/198
f 208/208/208 207/207/207 199/199/199
o hinge
usemtl SURF_Metal_Galvanised
v 0.07000000029802322 0.9300000064820051 -0.2161878517896959
v 0.07000000029802322 0.9300000064820051 -0.2761878504485914
v 0.07000000029802322 0.8700000078231096 -0.2161878517896959
v 0.07000000029802322 0.8700000078231096 -0.2761878504485914
v -0.07000000029802322 0.9300000064820051 -0.2761878504485914
v -0.07000000029802322 0.9300000064820051 -0.2161878517896959
v -0.07000000029802322 0.8700000078231096 -0.2761878504485914
v -0.07000000029802322 0.8700000078231096 -0.2161878517896959
v -0.07000000029802322 0.9300000064820051 -0.2761878504485914
v 0.07000000029802322 0.9300000064820051 -0.2761878504485914
v -0.07000000029802322 0.9300000064820051 -0.2161878517896959
v 0.07000000029802322 0.9300000064820051 -0.2161878517896959
v -0.07000000029802322 0.8700000078231096 -0.2161878517896959
v 0.07000000029802322 0.8700000078231096 -0.2161878517896959
v -0.07000000029802322 0.8700000078231096 -0.2761878504485914
v 0.07000000029802322 0.8700000078231096 -0.2761878504485914
v -0.07000000029802322 0.9300000064820051 -0.2161878517896959
v 0.07000000029802322 0.9300000064820051 -0.2161878517896959
v -0.07000000029802322 0.8700000078231096 -0.2161878517896959
v 0.07000000029802322 0.8700000078231096 -0.2161878517896959
v 0.07000000029802322 0.9300000064820051 -0.2761878504485914
v -0.07000000029802322 0.9300000064820051 -0.2761878504485914
v 0.07000000029802322 0.8700000078231096 -0.2761878504485914
v -0.07000000029802322 0.8700000078231096 -0.2761878504485914
vt 0 1
vt 1 1
vt 0 0
vt 1 0
vt 0 1
vt 1 1
vt 0 0
vt 1 0
vt 0 1
vt 1 1
vt 0 0
vt 1 0
vt 0 1
vt 1 1
vt 0 0
vt 1 0
vt 0 1
vt 1 1
vt 0 0
vt 1 0
vt 0 1
vt 1 1
vt 0 0
vt 1 0
vn 1 0 0
vn 1 0 0
vn 1 0 0
vn 1 0 0
vn -1 0 0
vn -1 0 0
vn -1 0 0
vn -1 0 0
vn 0 1 0
vn 0 1 0
vn 0 1 0
vn 0 1 0
vn 0 -1 0
vn 0 -1 0
vn 0 -1 0
vn 0 -1 0
vn 0 0 1
vn 0 0 1
vn 0 0 1
vn 0 0 1
vn 0 0 -1
vn 0 0 -1
vn 0 0 -1
vn 0 0 -1
f 209/209/209 211/211/211 210/210/210
f 211/211/211 212/212/212 210/210/210
f 213/213/213 215/215/215 214/214/214
f 215/215/215 216/216/216 214/214/214
f 217/217/217 219/219/219 218/218/218
f 219/219/219 220/220/220 218/218/218
f 221/221/221 223/223/223 222/222/222
f 223/223/223 224/224/224 222/222/222
f 225/225/225 227/227/227 226/226/226
f 227/227/227 228/228/228 226/226/226
f 229/229/229 231/231/231 230/230/230
f 231/231/231 232/232/232 230/230/230
o lid_disc
usemtl SURF_Steel_Painted
v 0 1.4329359998589795 -0.03665446163465701
v 0.2121320366859436 1.3546274136158647 -0.07651103439876505
v 0.30000001192092896 1.1655737812165292 -0.17273330346961732
v 0.2121320366859436 0.976520148817194 -0.26895557254046965
v 3.6739405577555036e-17 0.898211562574079 -0.3088121453045777
v -0.2121320366859436 0.976520148817194 -0.26895557254046965
v -0.30000001192092896 1.1655737812165292 -0.17273330346961735
v -0.2121320366859436 1.3546274136158647 -0.07651103439876505
v -7.347881115511007e-17 1.4329359998589795 -0.03665446163465701
v 0 1.4102561934497453 0.007905907032416004
v 0.2121320366859436 1.3319476072066303 -0.03195066573169206
v 0.30000001192092896 1.142893974807295 -0.12817293480254432
v 0.2121320366859436 0.9538403424079596 -0.22439520387339662
v 3.6739405577555036e-17 0.8755317561648448 -0.26425177663750465
v -0.2121320366859436 0.9538403424079596 -0.22439520387339662
v -0.30000001192092896 1.1428939748072948 -0.12817293480254435
v -0.2121320366859436 1.3319476072066303 -0.03195066573169206
v -7.347881115511007e-17 1.4102561934497453 0.007905907032416004
v 0 1.1655737812165292 -0.17273330346961735
v 0 1.1655737812165292 -0.17273330346961735
v 0 1.1655737812165292 -0.17273330346961735
v 0 1.1655737812165292 -0.17273330346961735
v 0 1.1655737812165292 -0.17273330346961735
v 0 1.1655737812165292 -0.17273330346961735
v 0 1.1655737812165292 -0.17273330346961735
v 0 1.1655737812165292 -0.17273330346961735
v 0 1.4329359998589795 -0.03665446163465701
v 0.2121320366859436 1.3546274136158647 -0.07651103439876505
v 0.30000001192092896 1.1655737812165292 -0.17273330346961732
v 0.2121320366859436 0.976520148817194 -0.26895557254046965
v 3.6739405577555036e-17 0.898211562574079 -0.3088121453045777
v -0.2121320366859436 0.976520148817194 -0.26895557254046965
v -0.30000001192092896 1.1655737812165292 -0.17273330346961735
v -0.2121320366859436 1.3546274136158647 -0.07651103439876505
v -7.347881115511007e-17 1.4329359998589795 -0.03665446163465701
v 0 1.142893974807295 -0.12817293480254432
v 0 1.142893974807295 -0.12817293480254432
v 0 1.142893974807295 -0.12817293480254432
v 0 1.142893974807295 -0.12817293480254432
v 0 1.142893974807295 -0.12817293480254432
v 0 1.142893974807295 -0.12817293480254432
v 0 1.142893974807295 -0.12817293480254432
v 0 1.142893974807295 -0.12817293480254432
v 0 1.4102561934497453 0.007905907032416004
v 0.2121320366859436 1.3319476072066303 -0.03195066573169206
v 0.30000001192092896 1.142893974807295 -0.12817293480254432
v 0.2121320366859436 0.9538403424079596 -0.22439520387339662
v 3.6739405577555036e-17 0.8755317561648448 -0.26425177663750465
v -0.2121320366859436 0.9538403424079596 -0.22439520387339662
v -0.30000001192092896 1.1428939748072948 -0.12817293480254435
v -0.2121320366859436 1.3319476072066303 -0.03195066573169206
v -7.347881115511007e-17 1.4102561934497453 0.007905907032416004
vt 0 1
vt 0.125 1
vt 0.25 1
vt 0.375 1
vt 0.5 1
vt 0.625 1
vt 0.75 1
vt 0.875 1
vt 1 1
vt 0 0
vt 0.125 0
vt 0.25 0
vt 0.375 0
vt 0.5 0
vt 0.625 0
vt 0.75 0
vt 0.875 0
vt 1 0
vt 0.5 0.5
vt 0.5 0.5
vt 0.5 0.5
vt 0.5 0.5
vt 0.5 0.5
vt 0.5 0.5
vt 0.5 0.5
vt 0.5 0.5
vt 1 0.5
vt 0.8535534143447876 0.8535534143447876
vt 0.5 1
vt 0.1464466154575348 0.8535534143447876
vt 0 0.5
vt 0.1464466154575348 0.1464466154575348
vt 0.5 0
vt 0.8535534143447876 0.1464466154575348
vt 1 0.5
vt 0.5 0.5
vt 0.5 0.5
vt 0.5 0.5
vt 0.5 0.5
vt 0.5 0.5
vt 0.5 0.5
vt 0.5 0.5
vt 0.5 0.5
vt 1 0.5
vt 0.8535534143447876 0.1464466154575348
vt 0.5 0
vt 0.1464466154575348 0.1464466154575348
vt 0 0.5
vt 0.1464466154575348 0.8535534143447876
vt 0.5 1
vt 0.8535534143447876 0.8535534143447876
vt 1 0.5
vn 0 0.8912073600614354 0.45359612142557726
vn 0.7071067811865476 0.630178767742802 0.32074089337994227
vn 1 5.457071442499866e-17 2.777475312243364e-17
vn 0.7071067811865476 -0.630178767742802 -0.32074089337994227
vn 1.2246468525851679e-16 -0.8912073600614354 -0.45359612142557726
vn -0.7071067811865476 -0.630178767742802 -0.32074089337994227
vn -1 -1.637121314799648e-16 -8.332425336400624e-17
vn -0.7071067811865476 0.630178767742802 0.32074089337994227
vn -2.4492937051703357e-16 0.8912073600614354 0.45359612142557726
vn 0 0.8912073600614354 0.45359612142557726
vn 0.7071067811865476 0.630178767742802 0.32074089337994227
vn 1 5.457071442499866e-17 2.777475312243364e-17
vn 0.7071067811865476 -0.630178767742802 -0.32074089337994227
vn 1.2246468525851679e-16 -0.8912073600614354 -0.45359612142557726
vn -0.7071067811865476 -0.630178767742802 -0.32074089337994227
vn -1 -1.637121314799648e-16 -8.332425336400624e-17
vn -0.7071067811865476 0.630178767742802 0.32074089337994227
vn -2.4492937051703357e-16 0.8912073600614354 0.45359612142557726
vn 0 0.45359612142557726 -0.8912073600614354
vn 0 0.45359612142557726 -0.8912073600614354
vn 0 0.45359612142557726 -0.8912073600614354
vn 0 0.45359612142557726 -0.8912073600614354
vn 0 0.45359612142557726 -0.8912073600614354
vn 0 0.45359612142557726 -0.8912073600614354
vn 0 0.45359612142557726 -0.8912073600614354
vn 0 0.45359612142557726 -0.8912073600614354
vn 0 0.45359612142557726 -0.8912073600614354
vn 0 0.45359612142557726 -0.8912073600614354
vn 0 0.45359612142557726 -0.8912073600614354
vn 0 0.45359612142557726 -0.8912073600614354
vn 0 0.45359612142557726 -0.8912073600614354
vn 0 0.45359612142557726 -0.8912073600614354
vn 0 0.45359612142557726 -0.8912073600614354
vn 0 0.45359612142557726 -0.8912073600614354
vn 0 0.45359612142557726 -0.8912073600614354
vn 0 -0.45359612142557726 0.8912073600614354
vn 0 -0.45359612142557726 0.8912073600614354
vn 0 -0.45359612142557726 0.8912073600614354
vn 0 -0.45359612142557726 0.8912073600614354
vn 0 -0.45359612142557726 0.8912073600614354
vn 0 -0.45359612142557726 0.8912073600614354
vn 0 -0.45359612142557726 0.8912073600614354
vn 0 -0.45359612142557726 0.8912073600614354
vn 0 -0.45359612142557726 0.8912073600614354
vn 0 -0.45359612142557726 0.8912073600614354
vn 0 -0.45359612142557726 0.8912073600614354
vn 0 -0.45359612142557726 0.8912073600614354
vn 0 -0.45359612142557726 0.8912073600614354
vn 0 -0.45359612142557726 0.8912073600614354
vn 0 -0.45359612142557726 0.8912073600614354
vn 0 -0.45359612142557726 0.8912073600614354
vn 0 -0.45359612142557726 0.8912073600614354
f 233/233/233 242/242/242 234/234/234
f 242/242/242 243/243/243 234/234/234
f 234/234/234 243/243/243 235/235/235
f 243/243/243 244/244/244 235/235/235
f 235/235/235 244/244/244 236/236/236
f 244/244/244 245/245/245 236/236/236
f 236/236/236 245/245/245 237/237/237
f 245/245/245 246/246/246 237/237/237
f 237/237/237 246/246/246 238/238/238
f 246/246/246 247/247/247 238/238/238
f 238/238/238 247/247/247 239/239/239
f 247/247/247 248/248/248 239/239/239
f 239/239/239 248/248/248 240/240/240
f 248/248/248 249/249/249 240/240/240
f 240/240/240 249/249/249 241/241/241
f 249/249/249 250/250/250 241/241/241
f 259/259/259 260/260/260 251/251/251
f 260/260/260 261/261/261 252/252/252
f 261/261/261 262/262/262 253/253/253
f 262/262/262 263/263/263 254/254/254
f 263/263/263 264/264/264 255/255/255
f 264/264/264 265/265/265 256/256/256
f 265/265/265 266/266/266 257/257/257
f 266/266/266 267/267/267 258/258/258
f 277/277/277 276/276/276 268/268/268
f 278/278/278 277/277/277 269/269/269
f 279/279/279 278/278/278 270/270/270
f 280/280/280 279/279/279 271/271/271
f 281/281/281 280/280/280 272/272/272
f 282/282/282 281/281/281 273/273/273
f 283/283/283 282/282/282 274/274/274
f 284/284/284 283/283/283 275/275/275
o lid_lip
usemtl SURF_Metal_Galvanised
v 0 1.4237042198329908 0.0035297901874274396
v 0.21920309960842133 1.342785351808447 -0.037655332749114576
v 0.3100000023841858 1.147429936089142 -0.13708500853595895
v 0.21920309960842133 0.9520745203698369 -0.23651468432280337
v 3.7964049783162243e-17 0.871155652345293 -0.27769980725934534
v -0.21920309960842133 0.9520745203698369 -0.23651468432280337
v -0.3100000023841858 1.1474299360891418 -0.13708500853595898
v -0.21920309960842133 1.342785351808447 -0.037655332749114576
v -7.592809956632449e-17 1.4237042198329908 0.0035297901874274396
v 0 1.4146322976072525 0.021353936990255395
v 0.21920309960842133 1.3337134295827087 -0.019831185946286592
v 0.3100000023841858 1.1383580138634037 -0.11926086173313098
v 0.21920309960842133 0.9430025981440986 -0.21869053751997536
v 3.7964049783162243e-17 0.8620837301195547 -0.2598756604565174
v -0.21920309960842133 0.9430025981440986 -0.21869053751997536
v -0.3100000023841858 1.1383580138634035 -0.11926086173313101
v -0.21920309960842133 1.3337134295827087 -0.019831185946286592
v -7.592809956632449e-17 1.4146322976072525 0.021353936990255395
v 0 1.147429936089142 -0.13708500853595895
v 0 1.147429936089142 -0.13708500853595895
v 0 1.147429936089142 -0.13708500853595895
v 0 1.147429936089142 -0.13708500853595895
v 0 1.147429936089142 -0.13708500853595895
v 0 1.147429936089142 -0.13708500853595895
v 0 1.147429936089142 -0.13708500853595895
v 0 1.147429936089142 -0.13708500853595895
v 0 1.4237042198329908 0.0035297901874274396
v 0.21920309960842133 1.342785351808447 -0.037655332749114576
v 0.3100000023841858 1.147429936089142 -0.13708500853595895
v 0.21920309960842133 0.9520745203698369 -0.23651468432280337
v 3.7964049783162243e-17 0.871155652345293 -0.27769980725934534
v -0.21920309960842133 0.9520745203698369 -0.23651468432280337
v -0.3100000023841858 1.1474299360891418 -0.13708500853595898
v -0.21920309960842133 1.342785351808447 -0.037655332749114576
v -7.592809956632449e-17 1.4237042198329908 0.0035297901874274396
v 0 1.1383580138634035 -0.11926086173313098
v 0 1.1383580138634035 -0.11926086173313098
v 0 1.1383580138634035 -0.11926086173313098
v 0 1.1383580138634035 -0.11926086173313098
v 0 1.1383580138634035 -0.11926086173313098
v 0 1.1383580138634035 -0.11926086173313098
v 0 1.1383580138634035 -0.11926086173313098
v 0 1.1383580138634035 -0.11926086173313098
v 0 1.4146322976072525 0.021353936990255395
v 0.21920309960842133 1.3337134295827087 -0.019831185946286592
v 0.3100000023841858 1.1383580138634037 -0.11926086173313098
v 0.21920309960842133 0.9430025981440986 -0.21869053751997536
v 3.7964049783162243e-17 0.8620837301195547 -0.2598756604565174
v -0.21920309960842133 0.9430025981440986 -0.21869053751997536
v -0.3100000023841858 1.1383580138634035 -0.11926086173313101
v -0.21920309960842133 1.3337134295827087 -0.019831185946286592
v -7.592809956632449e-17 1.4146322976072525 0.021353936990255395
vt 0 1
vt 0.125 1
vt 0.25 1
vt 0.375 1
vt 0.5 1
vt 0.625 1
vt 0.75 1
vt 0.875 1
vt 1 1
vt 0 0
vt 0.125 0
vt 0.25 0
vt 0.375 0
vt 0.5 0
vt 0.625 0
vt 0.75 0
vt 0.875 0
vt 1 0
vt 0.5 0.5
vt 0.5 0.5
vt 0.5 0.5
vt 0.5 0.5
vt 0.5 0.5
vt 0.5 0.5
vt 0.5 0.5
vt 0.5 0.5
vt 1 0.5
vt 0.8535534143447876 0.8535534143447876
vt 0.5 1
vt 0.1464466154575348 0.8535534143447876
vt 0 0.5
vt 0.1464466154575348 0.1464466154575348
vt 0.5 0
vt 0.8535534143447876 0.1464466154575348
vt 1 0.5
vt 0.5 0.5
vt 0.5 0.5
vt 0.5 0.5
vt 0.5 0.5
vt 0.5 0.5
vt 0.5 0.5
vt 0.5 0.5
vt 0.5 0.5
vt 1 0.5
vt 0.8535534143447876 0.1464466154575348
vt 0.5 0
vt 0.1464466154575348 0.1464466154575348
vt 0 0.5
vt 0.1464466154575348 0.8535534143447876
vt 0.5 1
vt 0.8535534143447876 0.8535534143447876
vt 1 0.5
vn 0 0.8912073600614354 0.45359612142557726
vn 0.7071067811865476 0.630178767742802 0.32074089337994227
vn 1 5.457071442499866e-17 2.777475312243364e-17
vn 0.7071067811865476 -0.630178767742802 -0.32074089337994227
vn 1.2246468525851679e-16 -0.8912073600614354 -0.45359612142557726
vn -0.7071067811865476 -0.630178767742802 -0.32074089337994227
vn -1 -1.637121314799648e-16 -8.332425336400624e-17
vn -0.7071067811865476 0.630178767742802 0.32074089337994227
vn -2.4492937051703357e-16 0.8912073600614354 0.45359612142557726
vn 0 0.8912073600614354 0.45359612142557726
vn 0.7071067811865476 0.630178767742802 0.32074089337994227
vn 1 5.457071442499866e-17 2.777475312243364e-17
vn 0.7071067811865476 -0.630178767742802 -0.32074089337994227
vn 1.2246468525851679e-16 -0.8912073600614354 -0.45359612142557726
vn -0.7071067811865476 -0.630178767742802 -0.32074089337994227
vn -1 -1.637121314799648e-16 -8.332425336400624e-17
vn -0.7071067811865476 0.630178767742802 0.32074089337994227
vn -2.4492937051703357e-16 0.8912073600614354 0.45359612142557726
vn 0 0.45359612142557726 -0.8912073600614354
vn 0 0.45359612142557726 -0.8912073600614354
vn 0 0.45359612142557726 -0.8912073600614354
vn 0 0.45359612142557726 -0.8912073600614354
vn 0 0.45359612142557726 -0.8912073600614354
vn 0 0.45359612142557726 -0.8912073600614354
vn 0 0.45359612142557726 -0.8912073600614354
vn 0 0.45359612142557726 -0.8912073600614354
vn 0 0.45359612142557726 -0.8912073600614354
vn 0 0.45359612142557726 -0.8912073600614354
vn 0 0.45359612142557726 -0.8912073600614354
vn 0 0.45359612142557726 -0.8912073600614354
vn 0 0.45359612142557726 -0.8912073600614354
vn 0 0.45359612142557726 -0.8912073600614354
vn 0 0.45359612142557726 -0.8912073600614354
vn 0 0.45359612142557726 -0.8912073600614354
vn 0 0.45359612142557726 -0.8912073600614354
vn 0 -0.45359612142557726 0.8912073600614354
vn 0 -0.45359612142557726 0.8912073600614354
vn 0 -0.45359612142557726 0.8912073600614354
vn 0 -0.45359612142557726 0.8912073600614354
vn 0 -0.45359612142557726 0.8912073600614354
vn 0 -0.45359612142557726 0.8912073600614354
vn 0 -0.45359612142557726 0.8912073600614354
vn 0 -0.45359612142557726 0.8912073600614354
vn 0 -0.45359612142557726 0.8912073600614354
vn 0 -0.45359612142557726 0.8912073600614354
vn 0 -0.45359612142557726 0.8912073600614354
vn 0 -0.45359612142557726 0.8912073600614354
vn 0 -0.45359612142557726 0.8912073600614354
vn 0 -0.45359612142557726 0.8912073600614354
vn 0 -0.45359612142557726 0.8912073600614354
vn 0 -0.45359612142557726 0.8912073600614354
vn 0 -0.45359612142557726 0.8912073600614354
f 285/285/285 294/294/294 286/286/286
f 294/294/294 295/295/295 286/286/286
f 286/286/286 295/295/295 287/287/287
f 295/295/295 296/296/296 287/287/287
f 287/287/287 296/296/296 288/288/288
f 296/296/296 297/297/297 288/288/288
f 288/288/288 297/297/297 289/289/289
f 297/297/297 298/298/298 289/289/289
f 289/289/289 298/298/298 290/290/290
f 298/298/298 299/299/299 290/290/290
f 290/290/290 299/299/299 291/291/291
f 299/299/299 300/300/300 291/291/291
f 291/291/291 300/300/300 292/292/292
f 300/300/300 301/301/301 292/292/292
f 292/292/292 301/301/301 293/293/293
f 301/301/301 302/302/302 293/293/293
f 311/311/311 312/312/312 303/303/303
f 312/312/312 313/313/313 304/304/304
f 313/313/313 314/314/314 305/305/305
f 314/314/314 315/315/315 306/306/306
f 315/315/315 316/316/316 307/307/307
f 316/316/316 317/317/317 308/308/308
f 317/317/317 318/318/318 309/309/309
f 318/318/318 319/319/319 310/310/310
f 329/329/329 328/328/328 320/320/320
f 330/330/330 329/329/329 321/321/321
f 331/331/331 330/330/330 322/322/322
f 332/332/332 331/331/331 323/323/323
f 333/333/333 332/332/332 324/324/324
f 334/334/334 333/333/333 325/325/325
f 335/335/335 334/334/334 326/326/326
f 336/336/336 335/335/335 327/327/327
o lid_knob
usemtl SURF_Steel_Rust
v 0 1.2285177673498835 -0.21924195415723116
v 0.02474873699247837 1.2193817661748545 -0.22389188736474758
v 0.03500000014901161 1.1973255096149331 -0.23511781847471747
v 0.02474873699247837 1.1752692530550117 -0.24634374958468735
v 4.286263818611965e-18 1.1661332518799825 -0.25099368279220374
v -0.02474873699247837 1.1752692530550117 -0.24634374958468735
v -0.03500000014901161 1.1973255096149331 -0.23511781847471747
v -0.02474873699247837 1.2193817661748545 -0.22389188736474758
v -8.57252763722393e-18 1.2285177673498835 -0.21924195415723116
v 0 1.2101341496470335 -0.15005349659558218
v 0.0353553406894207 1.1970827208198518 -0.15669625759641537
v 0.05000000074505806 1.1655737809799604 -0.17273330300481649
v 0.0353553406894207 1.1340648411400691 -0.1887703484132176
v 6.123233849335533e-18 1.1210134123128874 -0.1954131094140508
v -0.0353553406894207 1.1340648411400691 -0.1887703484132176
v -0.05000000074505806 1.1655737809799604 -0.17273330300481649
v -0.0353553406894207 1.1970827208198518 -0.15669625759641537
v -1.2246467698671066e-17 1.2101341496470335 -0.15005349659558218
v 0 1.1973255096149331 -0.23511781847471747
v 0 1.1973255096149331 -0.23511781847471747
v 0 1.1973255096149331 -0.23511781847471747
v 0 1.1973255096149331 -0.23511781847471747
v 0 1.1973255096149331 -0.23511781847471747
v 0 1.1973255096149331 -0.23511781847471747
v 0 1.1973255096149331 -0.23511781847471747
v 0 1.1973255096149331 -0.23511781847471747
v 0 1.2285177673498835 -0.21924195415723116
v 0.02474873699247837 1.2193817661748545 -0.22389188736474758
v 0.03500000014901161 1.1973255096149331 -0.23511781847471747
v 0.02474873699247837 1.1752692530550117 -0.24634374958468735
v 4.286263818611965e-18 1.1661332518799825 -0.25099368279220374
v -0.02474873699247837 1.1752692530550117 -0.24634374958468735
v -0.03500000014901161 1.1973255096149331 -0.23511781847471747
v -0.02474873699247837 1.2193817661748545 -0.22389188736474758
v -8.57252763722393e-18 1.2285177673498835 -0.21924195415723116
v 0 1.1655737809799604 -0.17273330300481649
v 0 1.1655737809799604 -0.17273330300481649
v 0 1.1655737809799604 -0.17273330300481649
v 0 1.1655737809799604 -0.17273330300481649
v 0 1.1655737809799604 -0.17273330300481649
v 0 1.1655737809799604 -0.17273330300481649
v 0 1.1655737809799604 -0.17273330300481649
v 0 1.1655737809799604 -0.17273330300481649
v 0 1.2101341496470335 -0.15005349659558218
v 0.0353553406894207 1.1970827208198518 -0.15669625759641537
v 0.05000000074505806 1.1655737809799604 -0.17273330300481649
v 0.0353553406894207 1.1340648411400691 -0.1887703484132176
v 6.123233849335533e-18 1.1210134123128874 -0.1954131094140508
v -0.0353553406894207 1.1340648411400691 -0.1887703484132176
v -0.05000000074505806 1.1655737809799604 -0.17273330300481649
v -0.0353553406894207 1.1970827208198518 -0.15669625759641537
v -1.2246467698671066e-17 1.2101341496470335 -0.15005349659558218
vt 0 1
vt 0.125 1
vt 0.25 1
vt 0.375 1
vt 0.5 1
vt 0.625 1
vt 0.75 1
vt 0.875 1
vt 1 1
vt 0 0
vt 0.125 0
vt 0.25 0
vt 0.375 0
vt 0.5 0
vt 0.625 0
vt 0.75 0
vt 0.875 0
vt 1 0
vt 0.5 0.5
vt 0.5 0.5
vt 0.5 0.5
vt 0.5 0.5
vt 0.5 0.5
vt 0.5 0.5
vt 0.5 0.5
vt 0.5 0.5
vt 1 0.5
vt 0.8535534143447876 0.8535534143447876
vt 0.5 1
vt 0.1464466154575348 0.8535534143447876
vt 0 0.5
vt 0.1464466154575348 0.1464466154575348
vt 0.5 0
vt 0.8535534143447876 0.1464466154575348
vt 1 0.5
vt 0.5 0.5
vt 0.5 0.5
vt 0.5 0.5
vt 0.5 0.5
vt 0.5 0.5
vt 0.5 0.5
vt 0.5 0.5
vt 0.5 0.5
vt 1 0.5
vt 0.8535534143447876 0.1464466154575348
vt 0.5 0
vt 0.1464466154575348 0.1464466154575348
vt 0 0.5
vt 0.1464466154575348 0.8535534143447876
vt 0.5 1
vt 0.8535534143447876 0.8535534143447876
vt 1 0.5
vn 0 0.966466290620298 0.25679351451047455
vn 0.6914107180313374 0.711231901581593 0.12688735620234923
vn 0.9778024136412777 0.09504158289735525 -0.18673386783777698
vn 0.6914107180313374 -0.5211487398881864 -0.500355083819827
vn 1.1974626754560368e-16 -0.7763831248255877 -0.6302612501860285
vn -0.6914107180313374 -0.5211487398881864 -0.500355083819827
vn -0.9778024136412777 0.09504158289735502 -0.1867338678377771
vn -0.6914107180313374 0.711231901581593 0.12688735620234923
vn -2.3949253509120737e-16 0.966466290620298 0.25679351451047455
vn 0 0.966466290620298 0.25679351451047455
vn 0.6914107180313374 0.711231901581593 0.12688735620234923
vn 0.9778024136412777 0.09504158289735525 -0.18673386783777698
vn 0.6914107180313374 -0.5211487398881864 -0.500355083819827
vn 1.1974626754560368e-16 -0.7763831248255877 -0.6302612501860285
vn -0.6914107180313374 -0.5211487398881864 -0.500355083819827
vn -0.9778024136412777 0.09504158289735502 -0.1867338678377771
vn -0.6914107180313374 0.711231901581593 0.12688735620234923
vn -2.3949253509120737e-16 0.966466290620298 0.25679351451047455
vn 0 0.45359612142557726 -0.8912073600614354
vn 0 0.45359612142557726 -0.8912073600614354
vn 0 0.45359612142557726 -0.8912073600614354
vn 0 0.45359612142557726 -0.8912073600614354
vn 0 0.45359612142557726 -0.8912073600614354
vn 0 0.45359612142557726 -0.8912073600614354
vn 0 0.45359612142557726 -0.8912073600614354
vn 0 0.45359612142557726 -0.8912073600614354
vn 0 0.45359612142557726 -0.8912073600614354
vn 0 0.45359612142557726 -0.8912073600614354
vn 0 0.45359612142557726 -0.8912073600614354
vn 0 0.45359612142557726 -0.8912073600614354
vn 0 0.45359612142557726 -0.8912073600614354
vn 0 0.45359612142557726 -0.8912073600614354
vn 0 0.45359612142557726 -0.8912073600614354
vn 0 0.45359612142557726 -0.8912073600614354
vn 0 0.45359612142557726 -0.8912073600614354
vn 0 -0.45359612142557726 0.8912073600614354
vn 0 -0.45359612142557726 0.8912073600614354
vn 0 -0.45359612142557726 0.8912073600614354
vn 0 -0.45359612142557726 0.8912073600614354
vn 0 -0.45359612142557726 0.8912073600614354
vn 0 -0.45359612142557726 0.8912073600614354
vn 0 -0.45359612142557726 0.8912073600614354
vn 0 -0.45359612142557726 0.8912073600614354
vn 0 -0.45359612142557726 0.8912073600614354
vn 0 -0.45359612142557726 0.8912073600614354
vn 0 -0.45359612142557726 0.8912073600614354
vn 0 -0.45359612142557726 0.8912073600614354
vn 0 -0.45359612142557726 0.8912073600614354
vn 0 -0.45359612142557726 0.8912073600614354
vn 0 -0.45359612142557726 0.8912073600614354
vn 0 -0.45359612142557726 0.8912073600614354
vn 0 -0.45359612142557726 0.8912073600614354
f 337/337/337 346/346/346 338/338/338
f 346/346/346 347/347/347 338/338/338
f 338/338/338 347/347/347 339/339/339
f 347/347/347 348/348/348 339/339/339
f 339/339/339 348/348/348 340/340/340
f 348/348/348 349/349/349 340/340/340
f 340/340/340 349/349/349 341/341/341
f 349/349/349 350/350/350 341/341/341
f 341/341/341 350/350/350 342/342/342
f 350/350/350 351/351/351 342/342/342
f 342/342/342 351/351/351 343/343/343
f 351/351/351 352/352/352 343/343/343
f 343/343/343 352/352/352 344/344/344
f 352/352/352 353/353/353 344/344/344
f 344/344/344 353/353/353 345/345/345
f 353/353/353 354/354/354 345/345/345
f 363/363/363 364/364/364 355/355/355
f 364/364/364 365/365/365 356/356/356
f 365/365/365 366/366/366 357/357/357
f 366/366/366 367/367/367 358/358/358
f 367/367/367 368/368/368 359/359/359
f 368/368/368 369/369/369 360/360/360
f 369/369/369 370/370/370 361/361/361
f 370/370/370 371/371/371 362/362/362
f 381/381/381 380/380/380 372/372/372
f 382/382/382 381/381/381 373/373/373
f 383/383/383 382/382/382 374/374/374
f 384/384/384 383/383/383 375/375/375
f 385/385/385 384/384/384 376/376/376
f 386/386/386 385/385/385 377/377/377
f 387/387/387 386/386/386 378/378/378
f 388/388/388 387/387/387 379/379/379
o band_upper
usemtl SURF_Steel_Rust
v 0 0.7250000075250864 0.3088121453045777
v 0.20152543485164642 0.7250000075250864 0.2253375837325028
v 0.2849999964237213 0.7250000075250864 0.023812148880856383
v 0.20152543485164642 0.7250000075250864 -0.17771328597079006
v 3.4902432651699324e-17 0.7250000075250864 -0.26118784754286495
v -0.20152543485164642 0.7250000075250864 -0.17771328597079006
v -0.2849999964237213 0.7250000075250864 0.023812148880856313
v -0.20152543485164642 0.7250000075250864 0.2253375837325028
v -6.980486530339865e-17 0.7250000075250864 0.3088121453045777
v 0 0.6750000067800284 0.3018121460198334
v 0.19657568633556366 0.6750000067800284 0.22038783521642002
v 0.27799999713897705 0.6750000067800284 0.023812148880856383
v 0.19657568633556366 0.6750000067800284 -0.1727635374547073
v 3.404518236951877e-17 0.6750000067800284 -0.2541878482581207
v -0.19657568633556366 0.6750000067800284 -0.1727635374547073
v -0.27799999713897705 0.6750000067800284 0.023812148880856313
v -0.19657568633556366 0.6750000067800284 0.22038783521642002
v -6.809036473903754e-17 0.6750000067800284 0.3018121460198334
v 0 0.7250000075250864 0.023812148880856365
v 0 0.7250000075250864 0.023812148880856365
v 0 0.7250000075250864 0.023812148880856365
v 0 0.7250000075250864 0.023812148880856365
v 0 0.7250000075250864 0.023812148880856365
v 0 0.7250000075250864 0.023812148880856365
v 0 0.7250000075250864 0.023812148880856365
v 0 0.7250000075250864 0.023812148880856365
v 0 0.7250000075250864 0.3088121453045777
v 0.20152543485164642 0.7250000075250864 0.2253375837325028
v 0.2849999964237213 0.7250000075250864 0.023812148880856383
v 0.20152543485164642 0.7250000075250864 -0.17771328597079006
v 3.4902432651699324e-17 0.7250000075250864 -0.26118784754286495
v -0.20152543485164642 0.7250000075250864 -0.17771328597079006
v -0.2849999964237213 0.7250000075250864 0.023812148880856313
v -0.20152543485164642 0.7250000075250864 0.2253375837325028
v -6.980486530339865e-17 0.7250000075250864 0.3088121453045777
v 0 0.6750000067800284 0.023812148880856365
v 0 0.6750000067800284 0.023812148880856365
v 0 0.6750000067800284 0.023812148880856365
v 0 0.6750000067800284 0.023812148880856365
v 0 0.6750000067800284 0.023812148880856365
v 0 0.6750000067800284 0.023812148880856365
v 0 0.6750000067800284 0.023812148880856365
v 0 0.6750000067800284 0.023812148880856365
v 0 0.6750000067800284 0.3018121460198334
v 0.19657568633556366 0.6750000067800284 0.22038783521642002
v 0.27799999713897705 0.6750000067800284 0.023812148880856383
v 0.19657568633556366 0.6750000067800284 -0.1727635374547073
v 3.404518236951877e-17 0.6750000067800284 -0.2541878482581207
v -0.19657568633556366 0.6750000067800284 -0.1727635374547073
v -0.27799999713897705 0.6750000067800284 0.023812148880856313
v -0.19657568633556366 0.6750000067800284 0.22038783521642002
v -6.809036473903754e-17 0.6750000067800284 0.3018121460198334
vt 0 1
vt 0.125 1
vt 0.25 1
vt 0.375 1
vt 0.5 1
vt 0.625 1
vt 0.75 1
vt 0.875 1
vt 1 1
vt 0 0
vt 0.125 0
vt 0.25 0
vt 0.375 0
vt 0.5 0
vt 0.625 0
vt 0.75 0
vt 0.875 0
vt 1 0
vt 0.5 0.5
vt 0.5 0.5
vt 0.5 0.5
vt 0.5 0.5
vt 0.5 0.5
vt 0.5 0.5
vt 0.5 0.5
vt 0.5 0.5
vt 1 0.5
vt 0.8535534143447876 0.8535534143447876
vt 0.5 1
vt 0.1464466154575348 0.8535534143447876
vt 0 0.5
vt 0.1464466154575348 0.1464466154575348
vt 0.5 0
vt 0.8535534143447876 0.1464466154575348
vt 1 0.5
vt 0.5 0.5
vt 0.5 0.5
vt 0.5 0.5
vt 0.5 0.5
vt 0.5 0.5
vt 0.5 0.5
vt 0.5 0.5
vt 0.5 0.5
vt 1 0.5
vt 0.8535534143447876 0.1464466154575348
vt 0.5 0
vt 0.1464466154575348 0.1464466154575348
vt 0 0.5
vt 0.1464466154575348 0.8535534143447876
vt 0.5 1
vt 0.8535534143447876 0.8535534143447876
vt 1 0.5
vn 0 -0.13864784278064066 0.9903417469198574
vn 0.700277365709921 -0.1386478349948057 0.700277365709921
vn 0.9903417469198574 -0.13864784278064066 6.064094304530475e-17
vn 0.700277365709921 -0.1386478349948057 -0.700277365709921
vn 1.212818860906095e-16 -0.13864784278064066 -0.9903417469198574
vn -0.700277365709921 -0.1386478349948057 -0.700277365709921
vn -0.9903417469198574 -0.13864784278064066 -1.8192282913591422e-16
vn -0.700277365709921 -0.1386478349948057 0.700277365709921
vn -2.42563772181219e-16 -0.13864784278064066 0.9903417469198574
vn 0 -0.13864784278064066 0.9903417469198574
vn 0.700277365709921 -0.1386478349948057 0.700277365709921
vn 0.9903417469198574 -0.13864784278064066 6.064094304530475e-17
vn 0.700277365709921 -0.1386478349948057 -0.700277365709921
vn 1.212818860906095e-16 -0.13864784278064066 -0.9903417469198574
vn -0.700277365709921 -0.1386478349948057 -0.700277365709921
vn -0.9903417469198574 -0.13864784278064066 -1.8192282913591422e-16
vn -0.700277365709921 -0.1386478349948057 0.700277365709921
vn -2.42563772181219e-16 -0.13864784278064066 0.9903417469198574
vn 0 1 0
vn 0 1 0
vn 0 1 0
vn 0 1 0
vn 0 1 0
vn 0 1 0
vn 0 1 0
vn 0 1 0
vn 0 1 0
vn 0 1 0
vn 0 1 0
vn 0 1 0
vn 0 1 0
vn 0 1 0
vn 0 1 0
vn 0 1 0
vn 0 1 0
vn 0 -1 0
vn 0 -1 0
vn 0 -1 0
vn 0 -1 0
vn 0 -1 0
vn 0 -1 0
vn 0 -1 0
vn 0 -1 0
vn 0 -1 0
vn 0 -1 0
vn 0 -1 0
vn 0 -1 0
vn 0 -1 0
vn 0 -1 0
vn 0 -1 0
vn 0 -1 0
vn 0 -1 0
f 389/389/389 398/398/398 390/390/390
f 398/398/398 399/399/399 390/390/390
f 390/390/390 399/399/399 391/391/391
f 399/399/399 400/400/400 391/391/391
f 391/391/391 400/400/400 392/392/392
f 400/400/400 401/401/401 392/392/392
f 392/392/392 401/401/401 393/393/393
f 401/401/401 402/402/402 393/393/393
f 393/393/393 402/402/402 394/394/394
f 402/402/402 403/403/403 394/394/394
f 394/394/394 403/403/403 395/395/395
f 403/403/403 404/404/404 395/395/395
f 395/395/395 404/404/404 396/396/396
f 404/404/404 405/405/405 396/396/396
f 396/396/396 405/405/405 397/397/397
f 405/405/405 406/406/406 397/397/397
f 415/415/415 416/416/416 407/407/407
f 416/416/416 417/417/417 408/408/408
f 417/417/417 418/418/418 409/409/409
f 418/418/418 419/419/419 410/410/410
f 419/419/419 420/420/420 411/411/411
f 420/420/420 421/421/421 412/412/412
f 421/421/421 422/422/422 413/413/413
f 422/422/422 423/423/423 414/414/414
f 433/433/433 432/432/432 424/424/424
f 434/434/434 433/433/433 425/425/425
f 435/435/435 434/434/434 426/426/426
f 436/436/436 435/435/435 427/427/427
f 437/437/437 436/436/436 428/428/428
f 438/438/438 437/437/437 429/429/429
f 439/439/439 438/438/438 430/430/430
f 440/440/440 439/439/439 431/431/431
