mtllib SM_UtilityPole_01.mtl
o pole_shaft
usemtl SURF_Wood_Pole
v 0 8 0.09999999925494193
v 0.06465637683868408 8 0.0789918728172779
v 0.10461621731519699 8 0.023991869390010828
v 0.10461621731519699 8 -0.04399186968803406
v 0.06465637683868408 8 -0.09899187311530114
v 1.3471114385820111e-17 8 -0.11999999955296517
v -0.06465637683868408 8 -0.09899187311530114
v -0.10461621731519699 8 -0.04399186968803406
v -0.10461621731519699 8 0.023991869390010828
v -0.06465637683868408 8 0.0789918728172779
v -2.6942228771640223e-17 8 0.09999999925494193
v 0 0 0.1499999962747097
v 0.09404563903808594 0 0.11944272145628929
v 0.15216904878616333 0 0.03944271951913833
v 0.15216904878616333 0 -0.059442719817161566
v 0.09404563903808594 0 -0.13944272175431252
v 1.959434864874595e-17 0 -0.16999999657273293
v -0.09404563903808594 0 -0.13944272175431252
v -0.15216904878616333 0 -0.059442719817161566
v -0.15216904878616333 0 0.03944271951913833
v -0.09404563903808594 0 0.11944272145628929
v -3.91886972974919e-17 0 0.1499999962747097
v 0 8 -0.010000000149011617
v 0 8 -0.010000000149011617
v 0 8 -0.010000000149011617
v 0 8 -0.010000000149011617
v 0 8 -0.010000000149011617
v 0 8 -0.010000000149011617
v 0 8 -0.010000000149011617
v 0 8 -0.010000000149011617
v 0 8 -0.010000000149011617
v 0 8 -0.010000000149011617
v 0 8 0.09999999925494193
v 0.06465637683868408 8 0.0789918728172779
v 0.10461621731519699 8 0.023991869390010828
v 0.10461621731519699 8 -0.04399186968803406
v 0.06465637683868408 8 -0.09899187311530114
v 1.3471114385820111e-17 8 -0.11999999955296517
v -0.06465637683868408 8 -0.09899187311530114
v -0.10461621731519699 8 -0.04399186968803406
v -0.10461621731519699 8 0.023991869390010828
v -0.06465637683868408 8 0.0789918728172779
v -2.6942228771640223e-17 8 0.09999999925494193
v 0 0 -0.010000000149011617
v 0 0 -0.010000000149011617
v 0 0 -0.010000000149011617
v 0 0 -0.010000000149011617
v 0 0 -0.010000000149011617
v 0 0 -0.010000000149011617
v 0 0 -0.010000000149011617
v 0 0 -0.010000000149011617
v 0 0 -0.010000000149011617
v 0 0 -0.010000000149011617
v 0 0 0.1499999962747097
v 0.09404563903808594 0 0.11944272145628929
v 0.15216904878616333 0 0.03944271951913833
v 0.15216904878616333 0 -0.059442719817161566
v 0.09404563903808594 0 -0.13944272175431252
v 1.959434864874595e-17 0 -0.16999999657273293
v -0.09404563903808594 0 -0.13944272175431252
v -0.15216904878616333 0 -0.059442719817161566
v -0.15216904878616333 0 0.03944271951913833
v -0.09404563903808594 0 0.11944272145628929
v -3.91886972974919e-17 0 0.1499999962747097
vt 0 1
vt 0.10000000149011612 1
vt 0.20000000298023224 1
vt 0.30000001192092896 1
vt 0.4000000059604645 1
vt 0.5 1
vt 0.6000000238418579 1
vt 0.699999988079071 1
vt 0.800000011920929 1
vt 0.8999999761581421 1
vt 1 1
vt 0 0
vt 0.10000000149011612 0
vt 0.20000000298023224 0
vt 0.30000001192092896 0
vt 0.4000000059604645 0
vt 0.5 0
vt 0.6000000238418579 0
vt 0.699999988079071 0
vt 0.800000011920929 0
vt 0.8999999761581421 0
vt 1 0
vt 0.5 0.5
vt 0.5 0.5
vt 0.5 0.5
vt 0.5 0.5
vt 0.5 0.5
vt 0.5 0.5
vt 0.5 0.5
vt 0.5 0.5
vt 0.5 0.5
vt 0.5 0.5
vt 1 0.5
vt 0.9045084714889526 0.7938926219940186
vt 0.6545084714889526 0.9755282402038574
vt 0.345491498708725 0.9755282402038574
vt 0.09549150615930557 0.7938926219940186
vt 0 0.5
vt 0.09549150615930557 0.20610737800598145
vt 0.345491498708725 0.024471741169691086
vt 0.6545084714889526 0.024471741169691086
vt 0.9045084714889526 0.20610737800598145
vt 1 0.5
vt 0.5 0.5
vt 0.5 0.5
vt 0.5 0.5
vt 0.5 0.5
vt 0.5 0.5
vt 0.5 0.5
vt 0.5 0.5
vt 0.5 0.5
vt 0.5 0.5
vt 0.5 0.5
vt 1 0.5
vt 0.9045084714889526 0.20610737800598145
vt 0.6545084714889526 0.024471741169691086
vt 0.345491498708725 0.024471741169691086
vt 0.09549150615930557 0.20610737800598145
vt 0 0.5
vt 0.09549150615930557 0.7938926219940186
vt 0.345491498708725 0.9755282402038574
vt 0.6545084714889526 0.9755282402038574
vt 0.9045084714889526 0.7938926219940186
vt 1 0.5
vn 0 0.006249878212649527 0.9999804693204398
vn 0.5877737839331606 0.006249877920137404 0.809001185380391
vn 0.9510379435590803 0.0062498780911623055 0.3090109527747541
vn 0.9510379435590803 0.0062498780911623055 -0.3090109527747541
vn 0.5877737839331606 0.006249877920137404 -0.809001185380391
vn 1.2246229214915005e-16 0.006249878212649527 -0.9999804693204398
vn -0.5877737839331606 0.006249877920137404 -0.809001185380391
vn -0.9510379435590803 0.0062498780911623055 -0.3090109527747541
vn -0.9510379435590803 0.0062498780911623055 0.3090109527747541
vn -0.5877737839331606 0.006249877920137404 0.809001185380391
vn -2.449245842983001e-16 0.006249878212649527 0.9999804693204398
vn 0 0.006249878212649527 0.9999804693204398
vn 0.5877737839331606 0.006249877920137404 0.809001185380391
vn 0.9510379435590803 0.0062498780911623055 0.3090109527747541
vn 0.9510379435590803 0.0062498780911623055 -0.3090109527747541
vn 0.5877737839331606 0.006249877920137404 -0.809001185380391
vn 1.2246229214915005e-16 0.006249878212649527 -0.9999804693204398
vn -0.5877737839331606 0.006249877920137404 -0.809001185380391
vn -0.9510379435590803 0.0062498780911623055 -0.3090109527747541
vn -0.9510379435590803 0.0062498780911623055 0.3090109527747541
vn -0.5877737839331606 0.006249877920137404 0.809001185380391
vn -2.449245842983001e-16 0.006249878212649527 0.9999804693204398
vn 0 1 0
vn 0 1 0
vn 0 1 0
vn 0 1 0
vn 0 1 0
vn 0 1 0
vn 0 1 0
vn 0 1 0
vn 0 1 0
vn 0 1 0
vn 0 1 0
vn 0 1 0
vn 0 1 0
vn 0 1 0
vn 0 1 0
vn 0 1 0
vn 0 1 0
vn 0 1 0
vn 0 1 0
vn 0 1 0
vn 0 1 0
vn 0 -1 0
vn 0 -1 0
vn 0 -1 0
vn 0 -1 0
vn 0 -1 0
vn 0 -1 0
vn 0 -1 0
vn 0 -1 0
vn 0 -1 0
vn 0 -1 0
vn 0 -1 0
vn 0 -1 0
vn 0 -1 0
vn 0 -1 0
vn 0 -1 0
vn 0 -1 0
vn 0 -1 0
vn 0 -1 0
vn 0 -1 0
vn 0 -1 0
vn 0 -1 0
f 1/1/1 12/12/12 2/2/2
f 12/12/12 13/13/13 2/2/2
f 2/2/2 13/13/13 3/3/3
f 13/13/13 14/14/14 3/3/3
f 3/3/3 14/14/14 4/4/4
f 14/14/14 15/15/15 4/4/4
f 4/4/4 15/15/15 5/5/5
f 15/15/15 16/16/16 5/5/5
f 5/5/5 16/16/16 6/6/6
f 16/16/16 17/17/17 6/6/6
f 6/6/6 17/17/17 7/7/7
f 17/17/17 18/18/18 7/7/7
f 7/7/7 18/18/18 8/8/8
f 18/18/18 19/19/19 8/8/8
f 8/8/8 19/19/19 9/9/9
f 19/19/19 20/20/20 9/9/9
f 9/9/9 20/20/20 10/10/10
f 20/20/20 21/21/21 10/10/10
f 10/10/10 21/21/21 11/11/11
f 21/21/21 22/22/22 11/11/11
f 33/33/33 34/34/34 23/23/23
f 34/34/34 35/35/35 24/24/24
f 35/35/35 36/36/36 25/25/25
f 36/36/36 37/37/37 26/26/26
f 37/37/37 38/38/38 27/27/27
f 38/38/38 39/39/39 28/28/28
f 39/39/39 40/40/40 29/29/29
f 40/40/40 41/41/41 30/30/30
f 41/41/41 42/42/42 31/31/31
f 42/42/42 43/43/43 32/32/32
f 55/55/55 54/54/54 44/44/44
f 56/56/56 55/55/55 45/45/45
f 57/57/57 56/56/56 46/46/46
f 58/58/58 57/57/57 47/47/47
f 59/59/59 58/58/58 48/48/48
f 60/60/60 59/59/59 49/49/49
f 61/61/61 60/60/60 50/50/50
f 62/62/62 61/61/61 51/51/51
f 63/63/63 62/62/62 52/52/52
f 64/64/64 63/63/63 53/53/53
o pole_cap
usemtl SURF_Wood_Pole
v 0 8.059999999329447 0.09999999925494193
v 0.06465637683868408 8.059999999329447 0.0789918728172779
v 0.10461621731519699 8.059999999329447 0.023991869390010828
v 0.10461621731519699 8.059999999329447 -0.04399186968803406
v 0.06465637683868408 8.059999999329447 -0.09899187311530114
v 1.3471114385820111e-17 8.059999999329447 -0.11999999955296517
v -0.06465637683868408 8.059999999329447 -0.09899187311530114
v -0.10461621731519699 8.059999999329447 -0.04399186968803406
v -0.10461621731519699 8.059999999329447 0.023991869390010828
v -0.06465637683868408 8.059999999329447 0.0789918728172779
v -2.6942228771640223e-17 8.059999999329447 0.09999999925494193
v 0 8.000000000670552 0.09999999925494193
v 0.06465637683868408 8.000000000670552 0.0789918728172779
v 0.10461621731519699 8.000000000670552 0.023991869390010828
v 0.10461621731519699 8.000000000670552 -0.04399186968803406
v 0.06465637683868408 8.000000000670552 -0.09899187311530114
v 1.3471114385820111e-17 8.000000000670552 -0.11999999955296517
v -0.06465637683868408 8.000000000670552 -0.09899187311530114
v -0.10461621731519699 8.000000000670552 -0.04399186968803406
v -0.10461621731519699 8.000000000670552 0.023991869390010828
v -0.06465637683868408 8.000000000670552 0.0789918728172779
v -2.6942228771640223e-17 8.000000000670552 0.09999999925494193
v 0 8.059999999329447 -0.010000000149011617
v 0 8.059999999329447 -0.010000000149011617
v 0 8.059999999329447 -0.010000000149011617
v 0 8.059999999329447 -0.010000000149011617
v 0 8.059999999329447 -0.010000000149011617
v 0 8.059999999329447 -0.010000000149011617
v 0 8.059999999329447 -0.010000000149011617
v 0 8.059999999329447 -0.010000000149011617
v 0 8.059999999329447 -0.010000000149011617
v 0 8.059999999329447 -0.010000000149011617
v 0 8.059999999329447 0.09999999925494193
v 0.06465637683868408 8.059999999329447 0.0789918728172779
v 0.10461621731519699 8.059999999329447 0.023991869390010828
v 0.10461621731519699 8.059999999329447 -0.04399186968803406
v 0.06465637683868408 8.059999999329447 -0.09899187311530114
v 1.3471114385820111e-17 8.059999999329447 -0.11999999955296517
v -0.06465637683868408 8.059999999329447 -0.09899187311530114
v -0.10461621731519699 8.059999999329447 -0.04399186968803406
v -0.10461621731519699 8.059999999329447 0.023991869390010828
v -0.06465637683868408 8.059999999329447 0.0789918728172779
v -2.6942228771640223e-17 8.059999999329447 0.09999999925494193
v 0 8.000000000670552 -0.010000000149011617
v 0 8.000000000670552 -0.010000000149011617
v 0 8.000000000670552 -0.010000000149011617
v 0 8.000000000670552 -0.010000000149011617
v 0 8.000000000670552 -0.010000000149011617
v 0 8.000000000670552 -0.010000000149011617
v 0 8.000000000670552 -0.010000000149011617
v 0 8.000000000670552 -0.010000000149011617
v 0 8.000000000670552 -0.010000000149011617
v 0 8.000000000670552 -0.010000000149011617
v 0 8.000000000670552 0.09999999925494193
v 0.06465637683868408 8.000000000670552 0.0789918728172779
v 0.10461621731519699 8.000000000670552 0.023991869390010828
v 0.10461621731519699 8.000000000670552 -0.04399186968803406
v 0.06465637683868408 8.000000000670552 -0.09899187311530114
v 1.3471114385820111e-17 8.000000000670552 -0.11999999955296517
v -0.06465637683868408 8.000000000670552 -0.09899187311530114
v -0.10461621731519699 8.000000000670552 -0.04399186968803406
v -0.10461621731519699 8.000000000670552 0.023991869390010828
v -0.06465637683868408 8.000000000670552 0.0789918728172779
v -2.6942228771640223e-17 8.000000000670552 0.09999999925494193
vt 0 1
vt 0.10000000149011612 1
vt 0.20000000298023224 1
vt 0.30000001192092896 1
vt 0.4000000059604645 1
vt 0.5 1
vt 0.6000000238418579 1
vt 0.699999988079071 1
vt 0.800000011920929 1
vt 0.8999999761581421 1
vt 1 1
vt 0 0
vt 0.10000000149011612 0
vt 0.20000000298023224 0
vt 0.30000001192092896 0
vt 0.4000000059604645 0
vt 0.5 0
vt 0.6000000238418579 0
vt 0.699999988079071 0
vt 0.800000011920929 0
vt 0.8999999761581421 0
vt 1 0
vt 0.5 0.5
vt 0.5 0.5
vt 0.5 0.5
vt 0.5 0.5
vt 0.5 0.5
vt 0.5 0.5
vt 0.5 0.5
vt 0.5 0.5
vt 0.5 0.5
vt 0.5 0.5
vt 1 0.5
vt 0.9045084714889526 0.7938926219940186
vt 0.6545084714889526 0.9755282402038574
vt 0.345491498708725 0.9755282402038574
vt 0.09549150615930557 0.7938926219940186
vt 0 0.5
vt 0.09549150615930557 0.20610737800598145
vt 0.345491498708725 0.024471741169691086
vt 0.6545084714889526 0.024471741169691086
vt 0.9045084714889526 0.20610737800598145
vt 1 0.5
vt 0.5 0.5
vt 0.5 0.5
vt 0.5 0.5
vt 0.5 0.5
vt 0.5 0.5
vt 0.5 0.5
vt 0.5 0.5
vt 0.5 0.5
vt 0.5 0.5
vt 0.5 0.5
vt 1 0.5
vt 0.9045084714889526 0.20610737800598145
vt 0.6545084714889526 0.024471741169691086
vt 0.345491498708725 0.024471741169691086
vt 0.09549150615930557 0.20610737800598145
vt 0 0.5
vt 0.09549150615930557 0.7938926219940186
vt 0.345491498708725 0.9755282402038574
vt 0.6545084714889526 0.9755282402038574
vt 0.9045084714889526 0.7938926219940186
vt 1 0.5
vn 0 0 1
vn 0.5877852429542022 0 0.8090170011595983
vn 0.9510565161477913 0 0.3090169948284817
vn 0.9510565161477913 0 -0.3090169948284817
vn 0.5877852429542022 0 -0.8090170011595983
vn 1.2246468525851679e-16 0 -1
vn -0.5877852429542022 0 -0.8090170011595983
vn -0.9510565161477913 0 -0.3090169948284817
vn -0.9510565161477913 0 0.3090169948284817
vn -0.5877852429542022 0 0.8090170011595983
vn -2.4492937051703357e-16 0 1
vn 0 0 1
vn 0.5877852429542022 0 0.8090170011595983
vn 0.9510565161477913 0 0.3090169948284817
vn 0.9510565161477913 0 -0.3090169948284817
vn 0.5877852429542022 0 -0.8090170011595983
vn 1.2246468525851679e-16 0 -1
vn -0.5877852429542022 0 -0.8090170011595983
vn -0.9510565161477913 0 -0.3090169948284817
vn -0.9510565161477913 0 0.3090169948284817
vn -0.5877852429542022 0 0.8090170011595983
vn -2.4492937051703357e-16 0 1
vn 0 1 0
vn 0 1 0
vn 0 1 0
vn 0 1 0
vn 0 1 0
vn 0 1 0
vn 0 1 0
vn 0 1 0
vn 0 1 0
vn 0 1 0
vn 0 1 0
vn 0 1 0
vn 0 1 0
vn 0 1 0
vn 0 1 0
vn 0 1 0
vn 0 1 0
vn 0 1 0
vn 0 1 0
vn 0 1 0
vn 0 1 0
vn 0 -1 0
vn 0 -1 0
vn 0 -1 0
vn 0 -1 0
vn 0 -1 0
vn 0 -1 0
vn 0 -1 0
vn 0 -1 0
vn 0 -1 0
vn 0 -1 0
vn 0 -1 0
vn 0 -1 0
vn 0 -1 0
vn 0 -1 0
vn 0 -1 0
vn 0 -1 0
vn 0 -1 0
vn 0 -1 0
vn 0 -1 0
vn 0 -1 0
vn 0 -1 0
f 65/65/65 76/76/76 66/66/66
f 76/76/76 77/77/77 66/66/66
f 66/66/66 77/77/77 67/67/67
f 77/77/77 78/78/78 67/67/67
f 67/67/67 78/78/78 68/68/68
f 78/78/78 79/79/79 68/68/68
f 68/68/68 79/79/79 69/69/69
f 79/79/79 80/80/80 69/69/69
f 69/69/69 80/80/80 70/70/70
f 80/80/80 81/81/81 70/70/70
f 70/70/70 81/81/81 71/71/71
f 81/81/81 82/82/82 71/71/71
f 71/71/71 82/82/82 72/72/72
f 82/82/82 83/83/83 72/72/72
f 72/72/72 83/83/83 73/73/73
f 83/83/83 84/84/84 73/73/73
f 73/73/73 84/84/84 74/74/74
f 84/84/84 85/85/85 74/74/74
f 74/74/74 85/85/85 75/75/75
f 85/85/85 86/86/86 75/75/75
f 97/97/97 98/98/98 87/87/87
f 98/98/98 99/99/99 88/88/88
f 99/99/99 100/100/100 89/89/89
f 100/100/100 101/101/101 90/90/90
f 101/101/101 102/102/102 91/91/91
f 102/102/102 103/103/103 92/92/92
f 103/103/103 104/104/104 93/93/93
f 104/104/104 105/105/105 94/94/94
f 105/105/105 106/106/106 95/95/95
f 106/106/106 107/107/107 96/96/96
f 119/119/119 118/118/118 108/108/108
f 120/120/120 119/119/119 109/109/109
f 121/121/121 120/120/120 110/110/110
f 122/122/122 121/121/121 111/111/111
f 123/123/123 122/122/122 112/112/112
f 124/124/124 123/123/123 113/113/113
f 125/125/125 124/124/124 114/114/114
f 126/126/126 125/125/125 115/115/115
f 127/127/127 126/126/126 116/116/116
f 128/128/128 127/127/127 117/117/117
o crossarm_upper
usemtl SURF_Wood_Pole
v 1.100000023841858 7.604999999701977 0.04499999955296516
v 1.100000023841858 7.604999999701977 -0.0649999998509884
v 1.100000023841858 7.495000000298023 0.04499999955296516
v 1.100000023841858 7.495000000298023 -0.0649999998509884
v -1.100000023841858 7.604999999701977 -0.0649999998509884
v -1.100000023841858 7.604999999701977 0.04499999955296516
v -1.100000023841858 7.495000000298023 -0.0649999998509884
v -1.100000023841858 7.495000000298023 0.04499999955296516
v -1.100000023841858 7.604999999701977 -0.0649999998509884
v 1.100000023841858 7.604999999701977 -0.0649999998509884
v -1.100000023841858 7.604999999701977 0.04499999955296516
v 1.100000023841858 7.604999999701977 0.04499999955296516
v -1.100000023841858 7.495000000298023 0.04499999955296516
v 1.100000023841858 7.495000000298023 0.04499999955296516
v -1.100000023841858 7.495000000298023 -0.0649999998509884
v 1.100000023841858 7.495000000298023 -0.0649999998509884
v -1.100000023841858 7.604999999701977 0.04499999955296516
v 1.100000023841858 7.604999999701977 0.04499999955296516
v -1.100000023841858 7.495000000298023 0.04499999955296516
v 1.100000023841858 7.495000000298023 0.04499999955296516
v 1.100000023841858 7.604999999701977 -0.0649999998509884
v -1.100000023841858 7.604999999701977 -0.0649999998509884
v 1.100000023841858 7.495000000298023 -0.0649999998509884
v -1.100000023841858 7.495000000298023 -0.0649999998509884
vt 0 1
vt 1 1
vt 0 0
vt 1 0
vt 0 1
vt 1 1
vt 0 0
vt 1 0
vt 0 1
vt 1 1
vt 0 0
vt 1 0
vt 0 1
vt 1 1
vt 0 0
vt 1 0
vt 0 1
vt 1 1
vt 0 0
vt 1 0
vt 0 1
vt 1 1
vt 0 0
vt 1 0
vn 1 0 0
vn 1 0 0
vn 1 0 0
vn 1 0 0
vn -1 0 0
vn -1 0 0
vn -1 0 0
vn -1 0 0
vn 0 1 0
vn 0 1 0
vn 0 1 0
vn 0 1 0
vn 0 -1 0
vn 0 -1 0
vn 0 -1 0
vn 0 -1 0
vn 0 0 1
vn 0 0 1
vn 0 0 1
vn 0 0 1
vn 0 0 -1
vn 0 0 -1
vn 0 0 -1
vn 0 0 -1
f 129/129/129 131/131/131 130/130/130
f 131/131/131 132/132/132 130/130/130
f 133/133/133 135/135/135 134/134/134
f 135/135/135 136/136/136 134/134/134
f 137/137/137 139/139/139 138/138/138
f 139/139/139 140/140/140 138/138/138
f 141/141/141 143/143/143 142/142/142
f 143/143/143 144/144/144 142/142/142
f 145/145/145 147/147/147 146/146/146
f 147/147/147 148/148/148 146/146/146
f 149/149/149 151/151/151 150/150/150
f 151/151/151 152/152/152 150/150/150
o crossarm_lower
usemtl SURF_Wood_Pole
v 0.8500000238418579 7.000000000745058 0.04000000059604644
v 0.8500000238418579 7.000000000745058 -0.06000000089406968
v 0.8500000238418579 6.899999999254942 0.04000000059604644
v 0.8500000238418579 6.899999999254942 -0.06000000089406968
v -0.8500000238418579 7.000000000745058 -0.06000000089406968
v -0.8500000238418579 7.000000000745058 0.04000000059604644
v -0.8500000238418579 6.899999999254942 -0.06000000089406968
v -0.8500000238418579 6.899999999254942 0.04000000059604644
v -0.8500000238418579 7.000000000745058 -0.06000000089406968
v 0.8500000238418579 7.000000000745058 -0.06000000089406968
v -0.8500000238418579 7.000000000745058 0.04000000059604644
v 0.8500000238418579 7.000000000745058 0.04000000059604644
v -0.8500000238418579 6.899999999254942 0.04000000059604644
v 0.8500000238418579 6.899999999254942 0.04000000059604644
v -0.8500000238418579 6.899999999254942 -0.06000000089406968
v 0.8500000238418579 6.899999999254942 -0.06000000089406968
v -0.8500000238418579 7.000000000745058 0.04000000059604644
v 0.8500000238418579 7.000000000745058 0.04000000059604644
v -0.8500000238418579 6.899999999254942 0.04000000059604644
v 0.8500000238418579 6.899999999254942 0.04000000059604644
v 0.8500000238418579 7.000000000745058 -0.06000000089406968
v -0.8500000238418579 7.000000000745058 -0.06000000089406968
v 0.8500000238418579 6.899999999254942 -0.06000000089406968
v -0.8500000238418579 6.899999999254942 -0.06000000089406968
vt 0 1
vt 1 1
vt 0 0
vt 1 0
vt 0 1
vt 1 1
vt 0 0
vt 1 0
vt 0 1
vt 1 1
vt 0 0
vt 1 0
vt 0 1
vt 1 1
vt 0 0
vt 1 0
vt 0 1
vt 1 1
vt 0 0
vt 1 0
vt 0 1
vt 1 1
vt 0 0
vt 1 0
vn 1 0 0
vn 1 0 0
vn 1 0 0
vn 1 0 0
vn -1 0 0
vn -1 0 0
vn -1 0 0
vn -1 0 0
vn 0 1 0
vn 0 1 0
vn 0 1 0
vn 0 1 0
vn 0 -1 0
vn 0 -1 0
vn 0 -1 0
vn 0 -1 0
vn 0 0 1
vn 0 0 1
vn 0 0 1
vn 0 0 1
vn 0 0 -1
vn 0 0 -1
vn 0 0 -1
vn 0 0 -1
f 153/153/153 155/155/155 154/154/154
f 155/155/155 156/156/156 154/154/154
f 157/157/157 159/159/159 158/158/158
f 159/159/159 160/160/160 158/158/158
f 161/161/161 163/163/163 162/162/162
f 163/163/163 164/164/164 162/162/162
f 165/165/165 167/167/167 166/166/166
f 167/167/167 168/168/168 166/166/166
f 169/169/169 171/171/171 170/170/170
f 171/171/171 172/172/172 170/170/170
f 173/173/173 175/175/175 174/174/174
f 175/175/175 176/176/176 174/174/174
o brace_l
usemtl SURF_Metal_Galvanised
v -0.4000000004470348 7.55 0.009999999403953547
v -0.4000000004470348 7.55 -0.02999999970197678
v -0.4000000004470348 7.05 0.009999999403953547
v -0.4000000004470348 7.05 -0.02999999970197678
v -0.43999999955296515 7.55 -0.02999999970197678
v -0.43999999955296515 7.55 0.009999999403953547
v -0.43999999955296515 7.05 -0.02999999970197678
v -0.43999999955296515 7.05 0.009999999403953547
v -0.43999999955296515 7.55 -0.02999999970197678
v -0.4000000004470348 7.55 -0.02999999970197678
v -0.43999999955296515 7.55 0.009999999403953547
v -0.4000000004470348 7.55 0.009999999403953547
v -0.43999999955296515 7.05 0.009999999403953547
v -0.4000000004470348 7.05 0.009999999403953547
v -0.43999999955296515 7.05 -0.02999999970197678
v -0.4000000004470348 7.05 -0.02999999970197678
v -0.43999999955296515 7.55 0.009999999403953547
v -0.4000000004470348 7.55 0.009999999403953547
v -0.43999999955296515 7.05 0.009999999403953547
v -0.4000000004470348 7.05 0.009999999403953547
v -0.4000000004470348 7.55 -0.02999999970197678
v -0.43999999955296515 7.55 -0.02999999970197678
v -0.4000000004470348 7.05 -0.02999999970197678
v -0.43999999955296515 7.05 -0.02999999970197678
vt 0 1
vt 1 1
vt 0 0
vt 1 0
vt 0 1
vt 1 1
vt 0 0
vt 1 0
vt 0 1
vt 1 1
vt 0 0
vt 1 0
vt 0 1
vt 1 1
vt 0 0
vt 1 0
vt 0 1
vt 1 1
vt 0 0
vt 1 0
vt 0 1
vt 1 1
vt 0 0
vt 1 0
vn 1 0 0
vn 1 0 0
vn 1 0 0
vn 1 0 0
vn -1 0 0
vn -1 0 0
vn -1 0 0
vn -1 0 0
vn 0 1 0
vn 0 1 0
vn 0 1 0
vn 0 1 0
vn 0 -1 0
vn 0 -1 0
vn 0 -1 0
vn 0 -1 0
vn 0 0 1
vn 0 0 1
vn 0 0 1
vn 0 0 1
vn 0 0 -1
vn 0 0 -1
vn 0 0 -1
vn 0 0 -1
f 177/177/177 179/179/179 178/178/178
f 179/179/179 180/180/180 178/178/178
f 181/181/181 183/183/183 182/182/182
f 183/183/183 184/184/184 182/182/182
f 185/185/185 187/187/187 186/186/186
f 187/187/187 188/188/188 186/186/186
f 189/189/189 191/191/191 190/190/190
f 191/191/191 192/192/192 190/190/190
f 193/193/193 195/195/195 194/194/194
f 195/195/195 196/196/196 194/194/194
f 197/197/197 199/199/199 198/198/198
f 199/199/199 200/200/200 198/198/198
o brace_r
usemtl SURF_Metal_Galvanised
v 0.43999999955296515 7.55 0.009999999403953547
v 0.43999999955296515 7.55 -0.02999999970197678
v 0.43999999955296515 7.05 0.009999999403953547
v 0.43999999955296515 7.05 -0.02999999970197678
v 0.4000000004470348 7.55 -0.02999999970197678
v 0.4000000004470348 7.55 0.009999999403953547
v 0.4000000004470348 7.05 -0.02999999970197678
v 0.4000000004470348 7.05 0.009999999403953547
v 0.4000000004470348 7.55 -0.02999999970197678
v 0.43999999955296515 7.55 -0.02999999970197678
v 0.4000000004470348 7.55 0.009999999403953547
v 0.43999999955296515 7.55 0.009999999403953547
v 0.4000000004470348 7.05 0.009999999403953547
v 0.43999999955296515 7.05 0.009999999403953547
v 0.4000000004470348 7.05 -0.02999999970197678
v 0.43999999955296515 7.05 -0.02999999970197678
v 0.4000000004470348 7.55 0.009999999403953547
v 0.43999999955296515 7.55 0.009999999403953547
v 0.4000000004470348 7.05 0.009999999403953547
v 0.43999999955296515 7.05 0.009999999403953547
v 0.43999999955296515 7.55 -0.02999999970197678
v 0.4000000004470348 7.55 -0.02999999970197678
v 0.43999999955296515 7.05 -0.02999999970197678
v 0.4000000004470348 7.05 -0.02999999970197678
vt 0 1
vt 1 1
vt 0 0
vt 1 0
vt 0 1
vt 1 1
vt 0 0
vt 1 0
vt 0 1
vt 1 1
vt 0 0
vt 1 0
vt 0 1
vt 1 1
vt 0 0
vt 1 0
vt 0 1
vt 1 1
vt 0 0
vt 1 0
vt 0 1
vt 1 1
vt 0 0
vt 1 0
vn 1 0 0
vn 1 0 0
vn 1 0 0
vn 1 0 0
vn -1 0 0
vn -1 0 0
vn -1 0 0
vn -1 0 0
vn 0 1 0
vn 0 1 0
vn 0 1 0
vn 0 1 0
vn 0 -1 0
vn 0 -1 0
vn 0 -1 0
vn 0 -1 0
vn 0 0 1
vn 0 0 1
vn 0 0 1
vn 0 0 1
vn 0 0 -1
vn 0 0 -1
vn 0 0 -1
vn 0 0 -1
f 201/201/201 203/203/203 202/202/202
f 203/203/203 204/204/204 202/202/202
f 205/205/205 207/207/207 206/206/206
f 207/207/207 208/208/208 206/206/206
f 209/209/209 211/211/211 210/210/210
f 211/211/211 212/212/212 210/210/210
f 213/213/213 215/215/215 214/214/214
f 215/215/215 216/216/216 214/214/214
f 217/217/217 219/219/219 218/218/218
f 219/219/219 220/220/220 218/218/218
f 221/221/221 223/223/223 222/222/222
f 223/223/223 224/224/224 222/222/222
o insulator_u_0
usemtl SURF_Glass_Tempered
v -0.95 7.75999999821186 0.04000000059604644
v -0.9146446593105793 7.75999999821186 0.025355340540409083
v -0.8999999992549419 7.75999999821186 -0.010000000149011614
v -0.9146446593105793 7.75999999821186 -0.04535534083843232
v -0.95 7.75999999821186 -0.06000000089406968
v -0.9853553406894207 7.75999999821186 -0.04535534083843232
v -1.000000000745058 7.75999999821186 -0.010000000149011626
v -0.9853553406894207 7.75999999821186 0.025355340540409083
v -0.95 7.75999999821186 0.04000000059604644
v -0.95 7.600000001788139 0.060000000149011606
v -0.9005025260150432 7.600000001788139 0.039497473835945124
v -0.8799999997019767 7.600000001788139 -0.010000000149011614
v -0.9005025260150432 7.600000001788139 -0.05949747413396836
v -0.95 7.600000001788139 -0.08000000044703484
v -0.9994974739849567 7.600000001788139 -0.05949747413396836
v -1.0200000002980232 7.600000001788139 -0.01000000014901163
v -0.9994974739849567 7.600000001788139 0.039497473835945124
v -0.95 7.600000001788139 0.060000000149011606
v -0.95 7.75999999821186 -0.010000000149011617
v -0.95 7.75999999821186 -0.010000000149011617
v -0.95 7.75999999821186 -0.010000000149011617
v -0.95 7.75999999821186 -0.010000000149011617
v -0.95 7.75999999821186 -0.010000000149011617
v -0.95 7.75999999821186 -0.010000000149011617
v -0.95 7.75999999821186 -0.010000000149011617
v -0.95 7.75999999821186 -0.010000000149011617
v -0.95 7.75999999821186 0.04000000059604644
v -0.9146446593105793 7.75999999821186 0.025355340540409083
v -0.8999999992549419 7.75999999821186 -0.010000000149011614
v -0.9146446593105793 7.75999999821186 -0.04535534083843232
v -0.95 7.75999999821186 -0.06000000089406968
v -0.9853553406894207 7.75999999821186 -0.04535534083843232
v -1.000000000745058 7.75999999821186 -0.010000000149011626
v -0.9853553406894207 7.75999999821186 0.025355340540409083
v -0.95 7.75999999821186 0.04000000059604644
v -0.95 7.600000001788139 -0.010000000149011617
v -0.95 7.600000001788139 -0.010000000149011617
v -0.95 7.600000001788139 -0.010000000149011617
v -0.95 7.600000001788139 -0.010000000149011617
v -0.95 7.600000001788139 -0.010000000149011617
v -0.95 7.600000001788139 -0.010000000149011617
v -0.95 7.600000001788139 -0.010000000149011617
v -0.95 7.600000001788139 -0.010000000149011617
v -0.95 7.600000001788139 0.060000000149011606
v -0.9005025260150432 7.600000001788139 0.039497473835945124
v -0.8799999997019767 7.600000001788139 -0.010000000149011614
v -0.9005025260150432 7.600000001788139 -0.05949747413396836
v -0.95 7.600000001788139 -0.08000000044703484
v -0.9994974739849567 7.600000001788139 -0.05949747413396836
v -1.0200000002980232 7.600000001788139 -0.01000000014901163
v -0.9994974739849567 7.600000001788139 0.039497473835945124
v -0.95 7.600000001788139 0.060000000149011606
vt 0 1
vt 0.125 1
vt 0.25 1
vt 0.375 1
vt 0.5 1
vt 0.625 1
vt 0.75 1
vt 0.875 1
vt 1 1
vt 0 0
vt 0.125 0
vt 0.25 0
vt 0.375 0
vt 0.5 0
vt 0.625 0
vt 0.75 0
vt 0.875 0
vt 1 0
vt 0.5 0.5
vt 0.5 0.5
vt 0.5 0.5
vt 0.5 0.5
vt 0.5 0.5
vt 0.5 0.5
vt 0.5 0.5
vt 0.5 0.5
vt 1 0.5
vt 0.8535534143447876 0.8535534143447876
vt 0.5 1
vt 0.1464466154575348 0.8535534143447876
vt 0 0.5
vt 0.1464466154575348 0.1464466154575348
vt 0.5 0
vt 0.8535534143447876 0.1464466154575348
vt 1 0.5
vt 0.5 0.5
vt 0.5 0.5
vt 0.5 0.5
vt 0.5 0.5
vt 0.5 0.5
vt 0.5 0.5
vt 0.5 0.5
vt 0.5 0.5
vt 1 0.5
vt 0.8535534143447876 0.1464466154575348
vt 0.5 0
vt 0.1464466154575348 0.1464466154575348
vt 0 0.5
vt 0.1464466154575348 0.8535534143447876
vt 0.5 1
vt 0.8535534143447876 0.8535534143447876
vt 1 0.5
vn 0 0.12403473458920847 0.9922778767136677
vn 0.7016464151917184 0.12403473746181366 0.7016464151917184
vn 0.9922778767136677 0.12403473458920847 6.075949408803623e-17
vn 0.7016464151917184 0.12403473746181366 -0.7016464151917184
vn 1.2151898817607247e-16 0.12403473458920847 -0.9922778767136677
vn -0.7016464151917184 0.12403473746181366 -0.7016464151917184
vn -0.9922778767136677 0.12403473458920847 -1.8227848888155372e-16
vn -0.7016464151917184 0.12403473746181366 0.7016464151917184
vn -2.4303797635214493e-16 0.12403473458920847 0.9922778767136677
vn 0 0.12403473458920847 0.9922778767136677
vn 0.7016464151917184 0.12403473746181366 0.7016464151917184
vn 0.9922778767136677 0.12403473458920847 6.075949408803623e-17
vn 0.7016464151917184 0.12403473746181366 -0.7016464151917184
vn 1.2151898817607247e-16 0.12403473458920847 -0.9922778767136677
vn -0.7016464151917184 0.12403473746181366 -0.7016464151917184
vn -0.9922778767136677 0.12403473458920847 -1.8227848888155372e-16
vn -0.7016464151917184 0.12403473746181366 0.7016464151917184
vn -2.4303797635214493e-16 0.12403473458920847 0.9922778767136677
vn 0 1 0
vn 0 1 0
vn 0 1 0
vn 0 1 0
vn 0 1 0
vn 0 1 0
vn 0 1 0
vn 0 1 0
vn 0 1 0
vn 0 1 0
vn 0 1 0
vn 0 1 0
vn 0 1 0
vn 0 1 0
vn 0 1 0
vn 0 1 0
vn 0 1 0
vn 0 -1 0
vn 0 -1 0
vn 0 -1 0
vn 0 -1 0
vn 0 -1 0
vn 0 -1 0
vn 0 -1 0
vn 0 -1 0
vn 0 -1 0
vn 0 -1 0
vn 0 -1 0
vn 0 -1 0
vn 0 -1 0
vn 0 -1 0
vn 0 -1 0
vn 0 -1 0
vn 0 -1 0
f 225/225/225 234/234/234 226/226/226
f 234/234/234 235/235/235 226/226/226
f 226/226/226 235/235/235 227/227/227
f 235/235/235 236/236/236 227/227/227
f 227/227/227 236/236/236 228/228/228
f 236/236/236 237/237/237 228/228/228
f 228/228/228 237/237/237 229/229/229
f 237/237/237 238/238/238 229/229/229
f 229/229/229 238/238/238 230/230/230
f 238/238/238 239/239/239 230/230/230
f 230/230/230 239/239/239 231/231/231
f 239/239/239 240/240/240 231/231/231
f 231/231/231 240/240/240 232/232/232
f 240/240/240 241/241/241 232/232/232
f 232/232/232 241/241/241 233/233/233
f 241/241/241 242/242/242 233/233/233
f 251/251/251 252/252/252 243/243/243
f 252/252/252 253/253/253 244/244/244
f 253/253/253 254/254/254 245/245/245
f 254/254/254 255/255/255 246/246/246
f 255/255/255 256/256/256 247/247/247
f 256/256/256 257/257/257 248/248/248
f 257/257/257 258/258/258 249/249/249
f 258/258/258 259/259/259 250/250/250
f 269/269/269 268/268/268 260/260/260
f 270/270/270 269/269/269 261/261/261
f 271/271/271 270/270/270 262/262/262
f 272/272/272 271/271/271 263/263/263
f 273/273/273 272/272/272 264/264/264
f 274/274/274 273/273/273 265/265/265
f 275/275/275 274/274/274 266/266/266
f 276/276/276 275/275/275 267/267/267
o insulator_u_1
usemtl SURF_Glass_Tempered
v -0.45 7.75999999821186 0.04000000059604644
v -0.4146446593105793 7.75999999821186 0.025355340540409083
v -0.39999999925494195 7.75999999821186 -0.010000000149011614
v -0.4146446593105793 7.75999999821186 -0.04535534083843232
v -0.45 7.75999999821186 -0.06000000089406968
v -0.4853553406894207 7.75999999821186 -0.04535534083843232
v -0.500000000745058 7.75999999821186 -0.010000000149011626
v -0.4853553406894207 7.75999999821186 0.025355340540409083
v -0.45 7.75999999821186 0.04000000059604644
v -0.45 7.600000001788139 0.060000000149011606
v -0.40050252601504327 7.600000001788139 0.039497473835945124
v -0.3799999997019768 7.600000001788139 -0.010000000149011614
v -0.40050252601504327 7.600000001788139 -0.05949747413396836
v -0.45 7.600000001788139 -0.08000000044703484
v -0.49949747398495675 7.600000001788139 -0.05949747413396836
v -0.5200000002980232 7.600000001788139 -0.01000000014901163
v -0.49949747398495675 7.600000001788139 0.039497473835945124
v -0.45 7.600000001788139 0.060000000149011606
v -0.45 7.75999999821186 -0.010000000149011617
v -0.45 7.75999999821186 -0.010000000149011617
v -0.45 7.75999999821186 -0.010000000149011617
v -0.45 7.75999999821186 -0.010000000149011617
v -0.45 7.75999999821186 -0.010000000149011617
v -0.45 7.75999999821186 -0.010000000149011617
v -0.45 7.75999999821186 -0.010000000149011617
v -0.45 7.75999999821186 -0.010000000149011617
v -0.45 7.75999999821186 0.04000000059604644
v -0.4146446593105793 7.75999999821186 0.025355340540409083
v -0.39999999925494195 7.75999999821186 -0.010000000149011614
v -0.4146446593105793 7.75999999821186 -0.04535534083843232
v -0.45 7.75999999821186 -0.06000000089406968
v -0.4853553406894207 7.75999999821186 -0.04535534083843232
v -0.500000000745058 7.75999999821186 -0.010000000149011626
v -0.4853553406894207 7.75999999821186 0.025355340540409083
v -0.45 7.75999999821186 0.04000000059604644
v -0.45 7.600000001788139 -0.010000000149011617
v -0.45 7.600000001788139 -0.010000000149011617
v -0.45 7.600000001788139 -0.010000000149011617
v -0.45 7.600000001788139 -0.010000000149011617
v -0.45 7.600000001788139 -0.010000000149011617
v -0.45 7.600000001788139 -0.010000000149011617
v -0.45 7.600000001788139 -0.010000000149011617
v -0.45 7.600000001788139 -0.010000000149011617
v -0.45 7.600000001788139 0.060000000149011606
v -0.40050252601504327 7.600000001788139 0.039497473835945124
v -0.3799999997019768 7.600000001788139 -0.010000000149011614
v -0.40050252601504327 7.600000001788139 -0.05949747413396836
v -0.45 7.600000001788139 -0.08000000044703484
v -0.49949747398495675 7.600000001788139 -0.05949747413396836
v -0.5200000002980232 7.600000001788139 -0.01000000014901163
v -0.49949747398495675 7.600000001788139 0.039497473835945124
v -0.45 7.600000001788139 0.060000000149011606
vt 0 1
vt 0.125 1
vt 0.25 1
vt 0.375 1
vt 0.5 1
vt 0.625 1
vt 0.75 1
vt 0.875 1
vt 1 1
vt 0 0
vt 0.125 0
vt 0.25 0
vt 0.375 0
vt 0.5 0
vt 0.625 0
vt 0.75 0
vt 0.875 0
vt 1 0
vt 0.5 0.5
vt 0.5 0.5
vt 0.5 0.5
vt 0.5 0.5
vt 0.5 0.5
vt 0.5 0.5
vt 0.5 0.5
vt 0.5 0.5
vt 1 0.5
vt 0.8535534143447876 0.8535534143447876
vt 0.5 1
vt 0.1464466154575348 0.8535534143447876
vt 0 0.5
vt 0.1464466154575348 0.1464466154575348
vt 0.5 0
vt 0.8535534143447876 0.1464466154575348
vt 1 0.5
vt 0.5 0.5
vt 0.5 0.5
vt 0.5 0.5
vt 0.5 0.5
vt 0.5 0.5
vt 0.5 0.5
vt 0.5 0.5
vt 0.5 0.5
vt 1 0.5
vt 0.8535534143447876 0.1464466154575348
vt 0.5 0
vt 0.1464466154575348 0.1464466154575348
vt 0 0.5
vt 0.1464466154575348 0.8535534143447876
vt 0.5 1
vt 0.8535534143447876 0.8535534143447876
vt 1 0.5
vn 0 0.12403473458920847 0.9922778767136677
vn 0.7016464151917184 0.12403473746181366 0.7016464151917184
vn 0.9922778767136677 0.12403473458920847 6.075949408803623e-17
vn 0.7016464151917184 0.12403473746181366 -0.7016464151917184
vn 1.2151898817607247e-16 0.12403473458920847 -0.9922778767136677
vn -0.7016464151917184 0.12403473746181366 -0.7016464151917184
vn -0.9922778767136677 0.12403473458920847 -1.8227848888155372e-16
vn -0.7016464151917184 0.12403473746181366 0.7016464151917184
vn -2.4303797635214493e-16 0.12403473458920847 0.9922778767136677
vn 0 0.12403473458920847 0.9922778767136677
vn 0.7016464151917184 0.12403473746181366 0.7016464151917184
vn 0.9922778767136677 0.12403473458920847 6.075949408803623e-17
vn 0.7016464151917184 0.12403473746181366 -0.7016464151917184
vn 1.2151898817607247e-16 0.12403473458920847 -0.9922778767136677
vn -0.7016464151917184 0.12403473746181366 -0.7016464151917184
vn -0.9922778767136677 0.12403473458920847 -1.8227848888155372e-16
vn -0.7016464151917184 0.12403473746181366 0.7016464151917184
vn -2.4303797635214493e-16 0.12403473458920847 0.9922778767136677
vn 0 1 0
vn 0 1 0
vn 0 1 0
vn 0 1 0
vn 0 1 0
vn 0 1 0
vn 0 1 0
vn 0 1 0
vn 0 1 0
vn 0 1 0
vn 0 1 0
vn 0 1 0
vn 0 1 0
vn 0 1 0
vn 0 1 0
vn 0 1 0
vn 0 1 0
vn 0 -1 0
vn 0 -1 0
vn 0 -1 0
vn 0 -1 0
vn 0 -1 0
vn 0 -1 0
vn 0 -1 0
vn 0 -1 0
vn 0 -1 0
vn 0 -1 0
vn 0 -1 0
vn 0 -1 0
vn 0 -1 0
vn 0 -1 0
vn 0 -1 0
vn 0 -1 0
vn 0 -1 0
f 277/277/277 286/286/286 278/278/278
f 286/286/286 287/287/287 278/278/278
f 278/278/278 287/287/287 279/279/279
f 287/287/287 288/288/288 279/279/279
f 279/279/279 288/288/288 280/280/280
f 288/288/288 289/289/289 280/280/280
f 280/280/280 289/289/289 281/281/281
f 289/289/289 290/290/290 281/281/281
f 281/281/281 290/290/290 282/282/282
f 290/290/290 291/291/291 282/282/282
f 282/282/282 291/291/291 283/283/283
f 291/291/291 292/292/292 283/283/283
f 283/283/283 292/292/292 284/284/284
f 292/292/292 293/293/293 284/284/284
f 284/284/284 293/293/293 285/285/285
f 293/293/293 294/294/294 285/285/285
f 303/303/303 304/304/304 295/295/295
f 304/304/304 305/305/305 296/296/296
f 305/305/305 306/306/306 297/297/297
f 306/306/306 307/307/307 298/298/298
f 307/307/307 308/308/308 299/299/299
f 308/308/308 309/309/309 300/300/300
f 309/309/309 310/310/310 301/301/301
f 310/310/310 311/311/311 302/302/302
f 321/321/321 320/320/320 312/312/312
f 322/322/322 321/321/321 313/313/313
f 323/323/323 322/322/322 314/314/314
f 324/324/324 323/323/323 315/315/315
f 325/325/325 324/324/324 316/316/316
f 326/326/326 325/325/325 317/317/317
f 327/327/327 326/326/326 318/318/318
f 328/328/328 327/327/327 319/319/319
o insulator_u_2
usemtl SURF_Glass_Tempered
v 0.45 7.75999999821186 0.04000000059604644
v 0.4853553406894207 7.75999999821186 0.025355340540409083
v 0.500000000745058 7.75999999821186 -0.010000000149011614
v 0.4853553406894207 7.75999999821186 -0.04535534083843232
v 0.45 7.75999999821186 -0.06000000089406968
v 0.4146446593105793 7.75999999821186 -0.04535534083843232
v 0.39999999925494195 7.75999999821186 -0.010000000149011626
v 0.4146446593105793 7.75999999821186 0.025355340540409083
v 0.45 7.75999999821186 0.04000000059604644
v 0.45 7.600000001788139 0.060000000149011606
v 0.49949747398495675 7.600000001788139 0.039497473835945124
v 0.5200000002980232 7.600000001788139 -0.010000000149011614
v 0.49949747398495675 7.600000001788139 -0.05949747413396836
v 0.45 7.600000001788139 -0.08000000044703484
v 0.40050252601504327 7.600000001788139 -0.05949747413396836
v 0.3799999997019768 7.600000001788139 -0.01000000014901163
v 0.40050252601504327 7.600000001788139 0.039497473835945124
v 0.45 7.600000001788139 0.060000000149011606
v 0.45 7.75999999821186 -0.010000000149011617
v 0.45 7.75999999821186 -0.010000000149011617
v 0.45 7.75999999821186 -0.010000000149011617
v 0.45 7.75999999821186 -0.010000000149011617
v 0.45 7.75999999821186 -0.010000000149011617
v 0.45 7.75999999821186 -0.010000000149011617
v 0.45 7.75999999821186 -0.010000000149011617
v 0.45 7.75999999821186 -0.010000000149011617
v 0.45 7.75999999821186 0.04000000059604644
v 0.4853553406894207 7.75999999821186 0.025355340540409083
v 0.500000000745058 7.75999999821186 -0.010000000149011614
v 0.4853553406894207 7.75999999821186 -0.04535534083843232
v 0.45 7.75999999821186 -0.06000000089406968
v 0.4146446593105793 7.75999999821186 -0.04535534083843232
v 0.39999999925494195 7.75999999821186 -0.010000000149011626
v 0.4146446593105793 7.75999999821186 0.025355340540409083
v 0.45 7.75999999821186 0.04000000059604644
v 0.45 7.600000001788139 -0.010000000149011617
v 0.45 7.600000001788139 -0.010000000149011617
v 0.45 7.600000001788139 -0.010000000149011617
v 0.45 7.600000001788139 -0.010000000149011617
v 0.45 7.600000001788139 -0.010000000149011617
v 0.45 7.600000001788139 -0.010000000149011617
v 0.45 7.600000001788139 -0.010000000149011617
v 0.45 7.600000001788139 -0.010000000149011617
v 0.45 7.600000001788139 0.060000000149011606
v 0.49949747398495675 7.600000001788139 0.039497473835945124
v 0.5200000002980232 7.600000001788139 -0.010000000149011614
v 0.49949747398495675 7.600000001788139 -0.05949747413396836
v 0.45 7.600000001788139 -0.08000000044703484
v 0.40050252601504327 7.600000001788139 -0.05949747413396836
v 0.3799999997019768 7.600000001788139 -0.01000000014901163
v 0.40050252601504327 7.600000001788139 0.039497473835945124
v 0.45 7.600000001788139 0.060000000149011606
vt 0 1
vt 0.125 1
vt 0.25 1
vt 0.375 1
vt 0.5 1
vt 0.625 1
vt 0.75 1
vt 0.875 1
vt 1 1
vt 0 0
vt 0.125 0
vt 0.25 0
vt 0.375 0
vt 0.5 0
vt 0.625 0
vt 0.75 0
vt 0.875 0
vt 1 0
vt 0.5 0.5
vt 0.5 0.5
vt 0.5 0.5
vt 0.5 0.5
vt 0.5 0.5
vt 0.5 0.5
vt 0.5 0.5
vt 0.5 0.5
vt 1 0.5
vt 0.8535534143447876 0.8535534143447876
vt 0.5 1
vt 0.1464466154575348 0.8535534143447876
vt 0 0.5
vt 0.1464466154575348 0.1464466154575348
vt 0.5 0
vt 0.8535534143447876 0.1464466154575348
vt 1 0.5
vt 0.5 0.5
vt 0.5 0.5
vt 0.5 0.5
vt 0.5 0.5
vt 0.5 0.5
vt 0.5 0.5
vt 0.5 0.5
vt 0.5 0.5
vt 1 0.5
vt 0.8535534143447876 0.1464466154575348
vt 0.5 0
vt 0.1464466154575348 0.1464466154575348
vt 0 0.5
vt 0.1464466154575348 0.8535534143447876
vt 0.5 1
vt 0.8535534143447876 0.8535534143447876
vt 1 0.5
vn 0 0.12403473458920847 0.9922778767136677
vn 0.7016464151917184 0.12403473746181366 0.7016464151917184
vn 0.9922778767136677 0.12403473458920847 6.075949408803623e-17
vn 0.7016464151917184 0.12403473746181366 -0.7016464151917184
vn 1.2151898817607247e-16 0.12403473458920847 -0.9922778767136677
vn -0.7016464151917184 0.12403473746181366 -0.7016464151917184
vn -0.9922778767136677 0.12403473458920847 -1.8227848888155372e-16
vn -0.7016464151917184 0.12403473746181366 0.7016464151917184
vn -2.4303797635214493e-16 0.12403473458920847 0.9922778767136677
vn 0 0.12403473458920847 0.9922778767136677
vn 0.7016464151917184 0.12403473746181366 0.7016464151917184
vn 0.9922778767136677 0.12403473458920847 6.075949408803623e-17
vn 0.7016464151917184 0.12403473746181366 -0.7016464151917184
vn 1.2151898817607247e-16 0.12403473458920847 -0.9922778767136677
vn -0.7016464151917184 0.12403473746181366 -0.7016464151917184
vn -0.9922778767136677 0.12403473458920847 -1.8227848888155372e-16
vn -0.7016464151917184 0.12403473746181366 0.7016464151917184
vn -2.4303797635214493e-16 0.12403473458920847 0.9922778767136677
vn 0 1 0
vn 0 1 0
vn 0 1 0
vn 0 1 0
vn 0 1 0
vn 0 1 0
vn 0 1 0
vn 0 1 0
vn 0 1 0
vn 0 1 0
vn 0 1 0
vn 0 1 0
vn 0 1 0
vn 0 1 0
vn 0 1 0
vn 0 1 0
vn 0 1 0
vn 0 -1 0
vn 0 -1 0
vn 0 -1 0
vn 0 -1 0
vn 0 -1 0
vn 0 -1 0
vn 0 -1 0
vn 0 -1 0
vn 0 -1 0
vn 0 -1 0
vn 0 -1 0
vn 0 -1 0
vn 0 -1 0
vn 0 -1 0
vn 0 -1 0
vn 0 -1 0
vn 0 -1 0
f 329/329/329 338/338/338 330/330/330
f 338/338/338 339/339/339 330/330/330
f 330/330/330 339/339/339 331/331/331
f 339/339/339 340/340/340 331/331/331
f 331/331/331 340/340/340 332/332/332
f 340/340/340 341/341/341 332/332/332
f 332/332/332 341/341/341 333/333/333
f 341/341/341 342/342/342 333/333/333
f 333/333/333 342/342/342 334/334/334
f 342/342/342 343/343/343 334/334/334
f 334/334/334 343/343/343 335/335/335
f 343/343/343 344/344/344 335/335/335
f 335/335/335 344/344/344 336/336/336
f 344/344/344 345/345/345 336/336/336
f 336/336/336 345/345/345 337/337/337
f 345/345/345 346/346/346 337/337/337
f 355/355/355 356/356/356 347/347/347
f 356/356/356 357/357/357 348/348/348
f 357/357/357 358/358/358 349/349/349
f 358/358/358 359/359/359 350/350/350
f 359/359/359 360/360/360 351/351/351
f 360/360/360 361/361/361 352/352/352
f 361/361/361 362/362/362 353/353/353
f 362/362/362 363/363/363 354/354/354
f 373/373/373 372/372/372 364/364/364
f 374/374/374 373/373/373 365/365/365
f 375/375/375 374/374/374 366/366/366
f 376/376/376 375/375/375 367/367/367
f 377/377/377 376/376/376 368/368/368
f 378/378/378 377/377/377 369/369/369
f 379/379/379 378/378/378 370/370/370
f 380/380/380 379/379/379 371/371/371
o insulator_u_3
usemtl SURF_Glass_Tempered
v 0.95 7.75999999821186 0.04000000059604644
v 0.9853553406894207 7.75999999821186 0.025355340540409083
v 1.000000000745058 7.75999999821186 -0.010000000149011614
v 0.9853553406894207 7.75999999821186 -0.04535534083843232
v 0.95 7.75999999821186 -0.06000000089406968
v 0.9146446593105793 7.75999999821186 -0.04535534083843232
v 0.8999999992549419 7.75999999821186 -0.010000000149011626
v 0.9146446593105793 7.75999999821186 0.025355340540409083
v 0.95 7.75999999821186 0.04000000059604644
v 0.95 7.600000001788139 0.060000000149011606
v 0.9994974739849567 7.600000001788139 0.039497473835945124
v 1.0200000002980232 7.600000001788139 -0.010000000149011614
v 0.9994974739849567 7.600000001788139 -0.05949747413396836
v 0.95 7.600000001788139 -0.08000000044703484
v 0.9005025260150432 7.600000001788139 -0.05949747413396836
v 0.8799999997019767 7.600000001788139 -0.01000000014901163
v 0.9005025260150432 7.600000001788139 0.039497473835945124
v 0.95 7.600000001788139 0.060000000149011606
v 0.95 7.75999999821186 -0.010000000149011617
v 0.95 7.75999999821186 -0.010000000149011617
v 0.95 7.75999999821186 -0.010000000149011617
v 0.95 7.75999999821186 -0.010000000149011617
v 0.95 7.75999999821186 -0.010000000149011617
v 0.95 7.75999999821186 -0.010000000149011617
v 0.95 7.75999999821186 -0.010000000149011617
v 0.95 7.75999999821186 -0.010000000149011617
v 0.95 7.75999999821186 0.04000000059604644
v 0.9853553406894207 7.75999999821186 0.025355340540409083
v 1.000000000745058 7.75999999821186 -0.010000000149011614
v 0.9853553406894207 7.75999999821186 -0.04535534083843232
v 0.95 7.75999999821186 -0.06000000089406968
v 0.9146446593105793 7.75999999821186 -0.04535534083843232
v 0.8999999992549419 7.75999999821186 -0.010000000149011626
v 0.9146446593105793 7.75999999821186 0.025355340540409083
v 0.95 7.75999999821186 0.04000000059604644
v 0.95 7.600000001788139 -0.010000000149011617
v 0.95 7.600000001788139 -0.010000000149011617
v 0.95 7.600000001788139 -0.010000000149011617
v 0.95 7.600000001788139 -0.010000000149011617
v 0.95 7.600000001788139 -0.010000000149011617
v 0.95 7.600000001788139 -0.010000000149011617
v 0.95 7.600000001788139 -0.010000000149011617
v 0.95 7.600000001788139 -0.010000000149011617
v 0.95 7.600000001788139 0.060000000149011606
v 0.9994974739849567 7.600000001788139 0.039497473835945124
v 1.0200000002980232 7.600000001788139 -0.010000000149011614
v 0.9994974739849567 7.600000001788139 -0.05949747413396836
v 0.95 7.600000001788139 -0.08000000044703484
v 0.9005025260150432 7.600000001788139 -0.05949747413396836
v 0.8799999997019767 7.600000001788139 -0.01000000014901163
v 0.9005025260150432 7.600000001788139 0.039497473835945124
v 0.95 7.600000001788139 0.060000000149011606
vt 0 1
vt 0.125 1
vt 0.25 1
vt 0.375 1
vt 0.5 1
vt 0.625 1
vt 0.75 1
vt 0.875 1
vt 1 1
vt 0 0
vt 0.125 0
vt 0.25 0
vt 0.375 0
vt 0.5 0
vt 0.625 0
vt 0.75 0
vt 0.875 0
vt 1 0
vt 0.5 0.5
vt 0.5 0.5
vt 0.5 0.5
vt 0.5 0.5
vt 0.5 0.5
vt 0.5 0.5
vt 0.5 0.5
vt 0.5 0.5
vt 1 0.5
vt 0.8535534143447876 0.8535534143447876
vt 0.5 1
vt 0.1464466154575348 0.8535534143447876
vt 0 0.5
vt 0.1464466154575348 0.1464466154575348
vt 0.5 0
vt 0.8535534143447876 0.1464466154575348
vt 1 0.5
vt 0.5 0.5
vt 0.5 0.5
vt 0.5 0.5
vt 0.5 0.5
vt 0.5 0.5
vt 0.5 0.5
vt 0.5 0.5
vt 0.5 0.5
vt 1 0.5
vt 0.8535534143447876 0.1464466154575348
vt 0.5 0
vt 0.1464466154575348 0.1464466154575348
vt 0 0.5
vt 0.1464466154575348 0.8535534143447876
vt 0.5 1
vt 0.8535534143447876 0.8535534143447876
vt 1 0.5
vn 0 0.12403473458920847 0.9922778767136677
vn 0.7016464151917184 0.12403473746181366 0.7016464151917184
vn 0.9922778767136677 0.12403473458920847 6.075949408803623e-17
vn 0.7016464151917184 0.12403473746181366 -0.7016464151917184
vn 1.2151898817607247e-16 0.12403473458920847 -0.9922778767136677
vn -0.7016464151917184 0.12403473746181366 -0.7016464151917184
vn -0.9922778767136677 0.12403473458920847 -1.8227848888155372e-16
vn -0.7016464151917184 0.12403473746181366 0.7016464151917184
vn -2.4303797635214493e-16 0.12403473458920847 0.9922778767136677
vn 0 0.12403473458920847 0.9922778767136677
vn 0.7016464151917184 0.12403473746181366 0.7016464151917184
vn 0.9922778767136677 0.12403473458920847 6.075949408803623e-17
vn 0.7016464151917184 0.12403473746181366 -0.7016464151917184
vn 1.2151898817607247e-16 0.12403473458920847 -0.9922778767136677
vn -0.7016464151917184 0.12403473746181366 -0.7016464151917184
vn -0.9922778767136677 0.12403473458920847 -1.8227848888155372e-16
vn -0.7016464151917184 0.12403473746181366 0.7016464151917184
vn -2.4303797635214493e-16 0.12403473458920847 0.9922778767136677
vn 0 1 0
vn 0 1 0
vn 0 1 0
vn 0 1 0
vn 0 1 0
vn 0 1 0
vn 0 1 0
vn 0 1 0
vn 0 1 0
vn 0 1 0
vn 0 1 0
vn 0 1 0
vn 0 1 0
vn 0 1 0
vn 0 1 0
vn 0 1 0
vn 0 1 0
vn 0 -1 0
vn 0 -1 0
vn 0 -1 0
vn 0 -1 0
vn 0 -1 0
vn 0 -1 0
vn 0 -1 0
vn 0 -1 0
vn 0 -1 0
vn 0 -1 0
vn 0 -1 0
vn 0 -1 0
vn 0 -1 0
vn 0 -1 0
vn 0 -1 0
vn 0 -1 0
vn 0 -1 0
f 381/381/381 390/390/390 382/382/382
f 390/390/390 391/391/391 382/382/382
f 382/382/382 391/391/391 383/383/383
f 391/391/391 392/392/392 383/383/383
f 383/383/383 392/392/392 384/384/384
f 392/392/392 393/393/393 384/384/384
f 384/384/384 393/393/393 385/385/385
f 393/393/393 394/394/394 385/385/385
f 385/385/385 394/394/394 386/386/386
f 394/394/394 395/395/395 386/386/386
f 386/386/386 395/395/395 387/387/387
f 395/395/395 396/396/396 387/387/387
f 387/387/387 396/396/396 388/388/388
f 396/396/396 397/397/397 388/388/388
f 388/388/388 397/397/397 389/389/389
f 397/397/397 398/398/398 389/389/389
f 407/407/407 408/408/408 399/399/399
f 408/408/408 409/409/409 400/400/400
f 409/409/409 410/410/410 401/401/401
f 410/410/410 411/411/411 402/402/402
f 411/411/411 412/412/412 403/403/403
f 412/412/412 413/413/413 404/404/404
f 413/413/413 414/414/414 405/405/405
f 414/414/414 415/415/415 406/406/406
f 425/425/425 424/424/424 416/416/416
f 426/426/426 425/425/425 417/417/417
f 427/427/427 426/426/426 418/418/418
f 428/428/428 427/427/427 419/419/419
f 429/429/429 428/428/428 420/420/420
f 430/430/430 429/429/429 421/421/421
f 431/431/431 430/430/430 422/422/422
f 432/432/432 431/431/431 423/423/423
o insulator_l_0
usemtl SURF_Glass_Tempered
v -0.7 7.1400000002980235 0.04000000059604644
v -0.6646446593105793 7.1400000002980235 0.025355340540409083
v -0.6499999992549419 7.1400000002980235 -0.010000000149011614
v -0.6646446593105793 7.1400000002980235 -0.04535534083843232
v -0.7 7.1400000002980235 -0.06000000089406968
v -0.7353553406894207 7.1400000002980235 -0.04535534083843232
v -0.750000000745058 7.1400000002980235 -0.010000000149011626
v -0.7353553406894207 7.1400000002980235 0.025355340540409083
v -0.7 7.1400000002980235 0.04000000059604644
v -0.7 6.999999999701977 0.060000000149011606
v -0.6505025260150432 6.999999999701977 0.039497473835945124
v -0.6299999997019767 6.999999999701977 -0.010000000149011614
v -0.6505025260150432 6.999999999701977 -0.05949747413396836
v -0.7 6.999999999701977 -0.08000000044703484
v -0.7494974739849567 6.999999999701977 -0.05949747413396836
v -0.7700000002980232 6.999999999701977 -0.01000000014901163
v -0.7494974739849567 6.999999999701977 0.039497473835945124
v -0.7 6.999999999701977 0.060000000149011606
v -0.7 7.1400000002980235 -0.010000000149011617
v -0.7 7.1400000002980235 -0.010000000149011617
v -0.7 7.1400000002980235 -0.010000000149011617
v -0.7 7.1400000002980235 -0.010000000149011617
v -0.7 7.1400000002980235 -0.010000000149011617
v -0.7 7.1400000002980235 -0.010000000149011617
v -0.7 7.1400000002980235 -0.010000000149011617
v -0.7 7.1400000002980235 -0.010000000149011617
v -0.7 7.1400000002980235 0.04000000059604644
v -0.6646446593105793 7.1400000002980235 0.025355340540409083
v -0.6499999992549419 7.1400000002980235 -0.010000000149011614
v -0.6646446593105793 7.1400000002980235 -0.04535534083843232
v -0.7 7.1400000002980235 -0.06000000089406968
v -0.7353553406894207 7.1400000002980235 -0.04535534083843232
v -0.750000000745058 7.1400000002980235 -0.010000000149011626
v -0.7353553406894207 7.1400000002980235 0.025355340540409083
v -0.7 7.1400000002980235 0.04000000059604644
v -0.7 6.999999999701977 -0.010000000149011617
v -0.7 6.999999999701977 -0.010000000149011617
v -0.7 6.999999999701977 -0.010000000149011617
v -0.7 6.999999999701977 -0.010000000149011617
v -0.7 6.999999999701977 -0.010000000149011617
v -0.7 6.999999999701977 -0.010000000149011617
v -0.7 6.999999999701977 -0.010000000149011617
v -0.7 6.999999999701977 -0.010000000149011617
v -0.7 6.999999999701977 0.060000000149011606
v -0.6505025260150432 6.999999999701977 0.039497473835945124
v -0.6299999997019767 6.999999999701977 -0.010000000149011614
v -0.6505025260150432 6.999999999701977 -0.05949747413396836
v -0.7 6.999999999701977 -0.08000000044703484
v -0.7494974739849567 6.999999999701977 -0.05949747413396836
v -0.7700000002980232 6.999999999701977 -0.01000000014901163
v -0.7494974739849567 6.999999999701977 0.039497473835945124
v -0.7 6.999999999701977 0.060000000149011606
vt 0 1
vt 0.125 1
vt 0.25 1
vt 0.375 1
vt 0.5 1
vt 0.625 1
vt 0.75 1
vt 0.875 1
vt 1 1
vt 0 0
vt 0.125 0
vt 0.25 0
vt 0.375 0
vt 0.5 0
vt 0.625 0
vt 0.75 0
vt 0.875 0
vt 1 0
vt 0.5 0.5
vt 0.5 0.5
vt 0.5 0.5
vt 0.5 0.5
vt 0.5 0.5
vt 0.5 0.5
vt 0.5 0.5
vt 0.5 0.5
vt 1 0.5
vt 0.8535534143447876 0.8535534143447876
vt 0.5 1
vt 0.1464466154575348 0.8535534143447876
vt 0 0.5
vt 0.1464466154575348 0.1464466154575348
vt 0.5 0
vt 0.8535534143447876 0.1464466154575348
vt 1 0.5
vt 0.5 0.5
vt 0.5 0.5
vt 0.5 0.5
vt 0.5 0.5
vt 0.5 0.5
vt 0.5 0.5
vt 0.5 0.5
vt 0.5 0.5
vt 1 0.5
vt 0.8535534143447876 0.1464466154575348
vt 0.5 0
vt 0.1464466154575348 0.1464466154575348
vt 0 0.5
vt 0.1464466154575348 0.8535534143447876
vt 0.5 1
vt 0.8535534143447876 0.8535534143447876
vt 1 0.5
vn 0 0.1414213666681226 0.9899494921710502
vn 0.6999999991160973 0.14142136498749897 0.6999999991160973
vn 0.9899494921710502 0.1414213666681226 6.06169285470815e-17
vn 0.6999999991160973 0.14142136498749897 -0.6999999991160973
vn 1.21233857094163e-16 0.1414213666681226 -0.9899494921710502
vn -0.6999999991160973 0.14142136498749897 -0.6999999991160973
vn -0.9899494921710502 0.1414213666681226 -1.8185077902379942e-16
vn -0.6999999991160973 0.14142136498749897 0.6999999991160973
vn -2.42467714188326e-16 0.1414213666681226 0.9899494921710502
vn 0 0.1414213666681226 0.9899494921710502
vn 0.6999999991160973 0.14142136498749897 0.6999999991160973
vn 0.9899494921710502 0.1414213666681226 6.06169285470815e-17
vn 0.6999999991160973 0.14142136498749897 -0.6999999991160973
vn 1.21233857094163e-16 0.1414213666681226 -0.9899494921710502
vn -0.6999999991160973 0.14142136498749897 -0.6999999991160973
vn -0.9899494921710502 0.1414213666681226 -1.8185077902379942e-16
vn -0.6999999991160973 0.14142136498749897 0.6999999991160973
vn -2.42467714188326e-16 0.1414213666681226 0.9899494921710502
vn 0 1 0
vn 0 1 0
vn 0 1 0
vn 0 1 0
vn 0 1 0
vn 0 1 0
vn 0 1 0
vn 0 1 0
vn 0 1 0
vn 0 1 0
vn 0 1 0
vn 0 1 0
vn 0 1 0
vn 0 1 0
vn 0 1 0
vn 0 1 0
vn 0 1 0
vn 0 -1 0
vn 0 -1 0
vn 0 -1 0
vn 0 -1 0
vn 0 -1 0
vn 0 -1 0
vn 0 -1 0
vn 0 -1 0
vn 0 -1 0
vn 0 -1 0
vn 0 -1 0
vn 0 -1 0
vn 0 -1 0
vn 0 -1 0
vn 0 -1 0
vn 0 -1 0
vn 0 -1 0
f 433/433/433 442/442/442 434/434/434
f 442/442/442 443/443/443 434/434/434
f 434/434/434 443/443/443 435/435/435
f 443/443/443 444/444/444 435/435/435
f 435/435/435 444/444/444 436/436/436
f 444/444/444 445/445/445 436/436/436
f 436/436/436 445/445/445 437/437/437
f 445/445/445 446/446/446 437/437/437
f 437/437/437 446/446/446 438/438/438
f 446/446/446 447/447/447 438/438/438
f 438/438/438 447/447/447 439/439/439
f 447/447/447 448/448/448 439/439/439
f 439/439/439 448/448/448 440/440/440
f 448/448/448 449/449/449 440/440/440
f 440/440/440 449/449/449 441/441/441
f 449/449/449 450/450/450 441/441/441
f 459/459/459 460/460/460 451/451/451
f 460/460/460 461/461/461 452/452/452
f 461/461/461 462/462/462 453/453/453
f 462/462/462 463/463/463 454/454/454
f 463/463/463 464/464/464 455/455/455
f 464/464/464 465/465/465 456/456/456
f 465/465/465 466/466/466 457/457/457
f 466/466/466 467/467/467 458/458/458
f 477/477/477 476/476/476 468/468/468
f 478/478/478 477/477/477 469/469/469
f 479/479/479 478/478/478 470/470/470
f 480/480/480 479/479/479 471/471/471
f 481/481/481 480/480/480 472/472/472
f 482/482/482 481/481/481 473/473/473
f 483/483/483 482/482/482 474/474/474
f 484/484/484 483/483/483 475/475/475
o insulator_l_1
usemtl SURF_Glass_Tempered
v 0.7 7.1400000002980235 0.04000000059604644
v 0.7353553406894207 7.1400000002980235 0.025355340540409083
v 0.750000000745058 7.1400000002980235 -0.010000000149011614
v 0.7353553406894207 7.1400000002980235 -0.04535534083843232
v 0.7 7.1400000002980235 -0.06000000089406968
v 0.6646446593105793 7.1400000002980235 -0.04535534083843232
v 0.6499999992549419 7.1400000002980235 -0.010000000149011626
v 0.6646446593105793 7.1400000002980235 0.025355340540409083
v 0.7 7.1400000002980235 0.04000000059604644
v 0.7 6.999999999701977 0.060000000149011606
v 0.7494974739849567 6.999999999701977 0.039497473835945124
v 0.7700000002980232 6.999999999701977 -0.010000000149011614
v 0.7494974739849567 6.999999999701977 -0.05949747413396836
v 0.7 6.999999999701977 -0.08000000044703484
v 0.6505025260150432 6.999999999701977 -0.05949747413396836
v 0.6299999997019767 6.999999999701977 -0.01000000014901163
v 0.6505025260150432 6.999999999701977 0.039497473835945124
v 0.7 6.999999999701977 0.060000000149011606
v 0.7 7.1400000002980235 -0.010000000149011617
v 0.7 7.1400000002980235 -0.010000000149011617
v 0.7 7.1400000002980235 -0.010000000149011617
v 0.7 7.1400000002980235 -0.010000000149011617
v 0.7 7.1400000002980235 -0.010000000149011617
v 0.7 7.1400000002980235 -0.010000000149011617
v 0.7 7.1400000002980235 -0.010000000149011617
v 0.7 7.1400000002980235 -0.010000000149011617
v 0.7 7.1400000002980235 0.04000000059604644
v 0.7353553406894207 7.1400000002980235 0.025355340540409083
v 0.750000000745058 7.1400000002980235 -0.010000000149011614
v 0.7353553406894207 7.1400000002980235 -0.04535534083843232
v 0.7 7.1400000002980235 -0.06000000089406968
v 0.6646446593105793 7.1400000002980235 -0.04535534083843232
v 0.6499999992549419 7.1400000002980235 -0.010000000149011626
v 0.6646446593105793 7.1400000002980235 0.025355340540409083
v 0.7 7.1400000002980235 0.04000000059604644
v 0.7 6.999999999701977 -0.010000000149011617
v 0.7 6.999999999701977 -0.010000000149011617
v 0.7 6.999999999701977 -0.010000000149011617
v 0.7 6.999999999701977 -0.010000000149011617
v 0.7 6.999999999701977 -0.010000000149011617
v 0.7 6.999999999701977 -0.010000000149011617
v 0.7 6.999999999701977 -0.010000000149011617
v 0.7 6.999999999701977 -0.010000000149011617
v 0.7 6.999999999701977 0.060000000149011606
v 0.7494974739849567 6.999999999701977 0.039497473835945124
v 0.7700000002980232 6.999999999701977 -0.010000000149011614
v 0.7494974739849567 6.999999999701977 -0.05949747413396836
v 0.7 6.999999999701977 -0.08000000044703484
v 0.6505025260150432 6.999999999701977 -0.05949747413396836
v 0.6299999997019767 6.999999999701977 -0.01000000014901163
v 0.6505025260150432 6.999999999701977 0.039497473835945124
v 0.7 6.999999999701977 0.060000000149011606
vt 0 1
vt 0.125 1
vt 0.25 1
vt 0.375 1
vt 0.5 1
vt 0.625 1
vt 0.75 1
vt 0.875 1
vt 1 1
vt 0 0
vt 0.125 0
vt 0.25 0
vt 0.375 0
vt 0.5 0
vt 0.625 0
vt 0.75 0
vt 0.875 0
vt 1 0
vt 0.5 0.5
vt 0.5 0.5
vt 0.5 0.5
vt 0.5 0.5
vt 0.5 0.5
vt 0.5 0.5
vt 0.5 0.5
vt 0.5 0.5
vt 1 0.5
vt 0.8535534143447876 0.8535534143447876
vt 0.5 1
vt 0.1464466154575348 0.8535534143447876
vt 0 0.5
vt 0.1464466154575348 0.1464466154575348
vt 0.5 0
vt 0.8535534143447876 0.1464466154575348
vt 1 0.5
vt 0.5 0.5
vt 0.5 0.5
vt 0.5 0.5
vt 0.5 0.5
vt 0.5 0.5
vt 0.5 0.5
vt 0.5 0.5
vt 0.5 0.5
vt 1 0.5
vt 0.8535534143447876 0.1464466154575348
vt 0.5 0
vt 0.1464466154575348 0.1464466154575348
vt 0 0.5
vt 0.1464466154575348 0.8535534143447876
vt 0.5 1
vt 0.8535534143447876 0.8535534143447876
vt 1 0.5
vn 0 0.1414213666681226 0.9899494921710502
vn 0.6999999991160973 0.14142136498749897 0.6999999991160973
vn 0.9899494921710502 0.1414213666681226 6.06169285470815e-17
vn 0.6999999991160973 0.14142136498749897 -0.6999999991160973
vn 1.21233857094163e-16 0.1414213666681226 -0.9899494921710502
vn -0.6999999991160973 0.14142136498749897 -0.6999999991160973
vn -0.9899494921710502 0.1414213666681226 -1.8185077902379942e-16
vn -0.6999999991160973 0.14142136498749897 0.6999999991160973
vn -2.42467714188326e-16 0.1414213666681226 0.9899494921710502
vn 0 0.1414213666681226 0.9899494921710502
vn 0.6999999991160973 0.14142136498749897 0.6999999991160973
vn 0.9899494921710502 0.1414213666681226 6.06169285470815e-17
vn 0.6999999991160973 0.14142136498749897 -0.6999999991160973
vn 1.21233857094163e-16 0.1414213666681226 -0.9899494921710502
vn -0.6999999991160973 0.14142136498749897 -0.6999999991160973
vn -0.9899494921710502 0.1414213666681226 -1.8185077902379942e-16
vn -0.6999999991160973 0.14142136498749897 0.6999999991160973
vn -2.42467714188326e-16 0.1414213666681226 0.9899494921710502
vn 0 1 0
vn 0 1 0
vn 0 1 0
vn 0 1 0
vn 0 1 0
vn 0 1 0
vn 0 1 0
vn 0 1 0
vn 0 1 0
vn 0 1 0
vn 0 1 0
vn 0 1 0
vn 0 1 0
vn 0 1 0
vn 0 1 0
vn 0 1 0
vn 0 1 0
vn 0 -1 0
vn 0 -1 0
vn 0 -1 0
vn 0 -1 0
vn 0 -1 0
vn 0 -1 0
vn 0 -1 0
vn 0 -1 0
vn 0 -1 0
vn 0 -1 0
vn 0 -1 0
vn 0 -1 0
vn 0 -1 0
vn 0 -1 0
vn 0 -1 0
vn 0 -1 0
vn 0 -1 0
f 485/485/485 494/494/494 486/486/486
f 494/494/494 495/495/495 486/486/486
f 486/486/486 495/495/495 487/487/487
f 495/495/495 496/496/496 487/487/487
f 487/487/487 496/496/496 488/488/488
f 496/496/496 497/497/497 488/488/488
f 488/488/488 497/497/497 489/489/489
f 497/497/497 498/498/498 489/489/489
f 489/489/489 498/498/498 490/490/490
f 498/498/498 499/499/499 490/490/490
f 490/490/490 499/499/499 491/491/491
f 499/499/499 500/500/500 491/491/491
f 491/491/491 500/500/500 492/492/492
f 500/500/500 501/501/501 492/492/492
f 492/492/492 501/501/501 493/493/493
f 501/501/501 502/502/502 493/493/493
f 511/511/511 512/512/512 503/503/503
f 512/512/512 513/513/513 504/504/504
f 513/513/513 514/514/514 505/505/505
f 514/514/514 515/515/515 506/506/506
f 515/515/515 516/516/516 507/507/507
f 516/516/516 517/517/517 508/508/508
f 517/517/517 518/518/518 509/509/509
f 518/518/518 519/519/519 510/510/510
f 529/529/529 528/528/528 520/520/520
f 530/530/530 529/529/529 521/521/521
f 531/531/531 530/530/530 522/522/522
f 532/532/532 531/531/531 523/523/523
f 533/533/533 532/532/532 524/524/524
f 534/534/534 533/533/533 525/525/525
f 535/535/535 534/534/534 526/526/526
f 536/536/536 535/535/535 527/527/527
o transformer_can
usemtl SURF_Metal_Galvanised
v 0.36 6.449999994039535 0.24999999031424522
v 0.4899999952316284 6.449999994039535 0.21516660377383232
v 0.5851666039228439 6.449999994039535 0.1199999950826168
v 0.6199999904632568 6.449999994039535 -0.010000000149011602
v 0.5851666039228439 6.449999994039535 -0.13999999538064004
v 0.4899999952316284 6.449999994039535 -0.23516660407185555
v 0.36000000000000004 6.449999994039535 -0.2699999906122684
v 0.23000000476837157 6.449999994039535 -0.23516660407185555
v 0.13483339607715605 6.449999994039535 -0.13999999538064004
v 0.10000000953674315 6.449999994039535 -0.010000000149011666
v 0.13483339607715605 6.449999994039535 0.1199999950826168
v 0.23000000476837157 6.449999994039535 0.21516660377383232
v 0.35999999999999993 6.449999994039535 0.24999999031424522
v 0.36 5.750000005960464 0.24999999031424522
v 0.4899999952316284 5.750000005960464 0.21516660377383232
v 0.5851666039228439 5.750000005960464 0.1199999950826168
v 0.6199999904632568 5.750000005960464 -0.010000000149011602
v 0.5851666039228439 5.750000005960464 -0.13999999538064004
v 0.4899999952316284 5.750000005960464 -0.23516660407185555
v 0.36000000000000004 5.750000005960464 -0.2699999906122684
v 0.23000000476837157 5.750000005960464 -0.23516660407185555
v 0.13483339607715605 5.750000005960464 -0.13999999538064004
v 0.10000000953674315 5.750000005960464 -0.010000000149011666
v 0.13483339607715605 5.750000005960464 0.1199999950826168
v 0.23000000476837157 5.750000005960464 0.21516660377383232
v 0.35999999999999993 5.750000005960464 0.24999999031424522
v 0.36 6.449999994039535 -0.010000000149011617
v 0.36 6.449999994039535 -0.010000000149011617
v 0.36 6.449999994039535 -0.010000000149011617
v 0.36 6.449999994039535 -0.010000000149011617
v 0.36 6.449999994039535 -0.010000000149011617
v 0.36 6.449999994039535 -0.010000000149011617
v 0.36 6.449999994039535 -0.010000000149011617
v 0.36 6.449999994039535 -0.010000000149011617
v 0.36 6.449999994039535 -0.010000000149011617
v 0.36 6.449999994039535 -0.010000000149011617
v 0.36 6.449999994039535 -0.010000000149011617
v 0.36 6.449999994039535 -0.010000000149011617
v 0.36 6.449999994039535 0.24999999031424522
v 0.4899999952316284 6.449999994039535 0.21516660377383232
v 0.5851666039228439 6.449999994039535 0.1199999950826168
v 0.6199999904632568 6.449999994039535 -0.010000000149011602
v 0.5851666039228439 6.449999994039535 -0.13999999538064004
v 0.4899999952316284 6.449999994039535 -0.23516660407185555
v 0.36000000000000004 6.449999994039535 -0.2699999906122684
v 0.23000000476837157 6.449999994039535 -0.23516660407185555
v 0.13483339607715605 6.449999994039535 -0.13999999538064004
v 0.10000000953674315 6.449999994039535 -0.010000000149011666
v 0.13483339607715605 6.449999994039535 0.1199999950826168
v 0.23000000476837157 6.449999994039535 0.21516660377383232
v 0.35999999999999993 6.449999994039535 0.24999999031424522
v 0.36 5.750000005960464 -0.010000000149011617
v 0.36 5.750000005960464 -0.010000000149011617
v 0.36 5.750000005960464 -0.010000000149011617
v 0.36 5.750000005960464 -0.010000000149011617
v 0.36 5.750000005960464 -0.010000000149011617
v 0.36 5.750000005960464 -0.010000000149011617
v 0.36 5.750000005960464 -0.010000000149011617
v 0.36 5.750000005960464 -0.010000000149011617
v 0.36 5.750000005960464 -0.010000000149011617
v 0.36 5.750000005960464 -0.010000000149011617
v 0.36 5.750000005960464 -0.010000000149011617
v 0.36 5.750000005960464 -0.010000000149011617
v 0.36 5.750000005960464 0.24999999031424522
v 0.4899999952316284 5.750000005960464 0.21516660377383232
v 0.5851666039228439 5.750000005960464 0.1199999950826168
v 0.6199999904632568 5.750000005960464 -0.010000000149011602
v 0.5851666039228439 5.750000005960464 -0.13999999538064004
v 0.4899999952316284 5.750000005960464 -0.23516660407185555
v 0.36000000000000004 5.750000005960464 -0.2699999906122684
v 0.23000000476837157 5.750000005960464 -0.23516660407185555
v 0.13483339607715605 5.750000005960464 -0.13999999538064004
v 0.10000000953674315 5.750000005960464 -0.010000000149011666
v 0.13483339607715605 5.750000005960464 0.1199999950826168
v 0.23000000476837157 5.750000005960464 0.21516660377383232
v 0.35999999999999993 5.750000005960464 0.24999999031424522
vt 0 1
vt 0.0833333358168602 1
vt 0.1666666716337204 1
vt 0.25 1
vt 0.3333333432674408 1
vt 0.4166666567325592 1
vt 0.5 1
vt 0.5833333134651184 1
vt 0.6666666865348816 1
vt 0.75 1
vt 0.8333333134651184 1
vt 0.9166666865348816 1
vt 1 1
vt 0 0
vt 0.0833333358168602 0
vt 0.1666666716337204 0
vt 0.25 0
vt 0.3333333432674408 0
vt 0.4166666567325592 0
vt 0.5 0
vt 0.5833333134651184 0
vt 0.6666666865348816 0
vt 0.75 0
vt 0.8333333134651184 0
vt 0.9166666865348816 0
vt 1 0
vt 0.5 0.5
vt 0.5 0.5
vt 0.5 0.5
vt 0.5 0.5
vt 0.5 0.5
vt 0.5 0.5
vt 0.5 0.5
vt 0.5 0.5
vt 0.5 0.5
vt 0.5 0.5
vt 0.5 0.5
vt 0.5 0.5
vt 1 0.5
vt 0.9330127239227295 0.75
vt 0.75 0.9330127239227295
vt 0.5 1
vt 0.25 0.9330127239227295
vt 0.0669872984290123 0.75
vt 0 0.5
vt 0.0669872984290123 0.25
vt 0.25 0.0669872984290123
vt 0.5 0
vt 0.75 0.0669872984290123
vt 0.9330127239227295 0.25
vt 1 0.5
vt 0.5 0.5
vt 0.5 0.5
vt 0.5 0.5
vt 0.5 0.5
vt 0.5 0.5
vt 0.5 0.5
vt 0.5 0.5
vt 0.5 0.5
vt 0.5 0.5
vt 0.5 0.5
vt 0.5 0.5
vt 0.5 0.5
vt 1 0.5
vt 0.9330127239227295 0.25
vt 0.75 0.0669872984290123
vt 0.5 0
vt 0.25 0.0669872984290123
vt 0.0669872984290123 0.25
vt 0 0.5
vt 0.0669872984290123 0.75
vt 0.25 0.9330127239227295
vt 0.5 1
vt 0.75 0.9330127239227295
vt 0.9330127239227295 0.75
vt 1 0.5
vn 0 0 1
vn 0.5000000067305869 0 0.8660253998985324
vn 0.8660253998985324 0 0.5000000067305869
vn 1 0 6.123234262925839e-17
vn 0.8660253998985324 0 -0.5000000067305869
vn 0.5000000067305869 0 -0.8660253998985324
vn 1.2246468525851679e-16 0 -1
vn -0.5000000067305869 0 -0.8660253998985324
vn -0.8660253998985324 0 -0.5000000067305869
vn -1 0 -1.8369701465288538e-16
vn -0.8660253998985324 0 0.5000000067305869
vn -0.5000000067305869 0 0.8660253998985324
vn -2.4492937051703357e-16 0 1
vn 0 0 1
vn 0.5000000067305869 0 0.8660253998985324
vn 0.8660253998985324 0 0.5000000067305869
vn 1 0 6.123234262925839e-17
vn 0.8660253998985324 0 -0.5000000067305869
vn 0.5000000067305869 0 -0.8660253998985324
vn 1.2246468525851679e-16 0 -1
vn -0.5000000067305869 0 -0.8660253998985324
vn -0.8660253998985324 0 -0.5000000067305869
vn -1 0 -1.8369701465288538e-16
vn -0.8660253998985324 0 0.5000000067305869
vn -0.5000000067305869 0 0.8660253998985324
vn -2.4492937051703357e-16 0 1
vn 0 1 0
vn 0 1 0
vn 0 1 0
vn 0 1 0
vn 0 1 0
vn 0 1 0
vn 0 1 0
vn 0 1 0
vn 0 1 0
vn 0 1 0
vn 0 1 0
vn 0 1 0
vn 0 1 0
vn 0 1 0
vn 0 1 0
vn 0 1 0
vn 0 1 0
vn 0 1 0
vn 0 1 0
vn 0 1 0
vn 0 1 0
vn 0 1 0
vn 0 1 0
vn 0 1 0
vn 0 1 0
vn 0 -1 0
vn 0 -1 0
vn 0 -1 0
vn 0 -1 0
vn 0 -1 0
vn 0 -1 0
vn 0 -1 0
vn 0 -1 0
vn 0 -1 0
vn 0 -1 0
vn 0 -1 0
vn 0 -1 0
vn 0 -1 0
vn 0 -1 0
vn 0 -1 0
vn 0 -1 0
vn 0 -1 0
vn 0 -1 0
vn 0 -1 0
vn 0 -1 0
vn 0 -1 0
vn 0 -1 0
vn 0 -1 0
vn 0 -1 0
vn 0 -1 0
f 537/537/537 550/550/550 538/538/538
f 550/550/550 551/551/551 538/538/538
f 538/538/538 551/551/551 539/539/539
f 551/551/551 552/552/552 539/539/539
f 539/539/539 552/552/552 540/540/540
f 552/552/552 553/553/553 540/540/540
f 540/540/540 553/553/553 541/541/541
f 553/553/553 554/554/554 541/541/541
f 541/541/541 554/554/554 542/542/542
f 554/554/554 555/555/555 542/542/542
f 542/542/542 555/555/555 543/543/543
f 555/555/555 556/556/556 543/543/543
f 543/543/543 556/556/556 544/544/544
f 556/556/556 557/557/557 544/544/544
f 544/544/544 557/557/557 545/545/545
f 557/557/557 558/558/558 545/545/545
f 545/545/545 558/558/558 546/546/546
f 558/558/558 559/559/559 546/546/546
f 546/546/546 559/559/559 547/547/547
f 559/559/559 560/560/560 547/547/547
f 547/547/547 560/560/560 548/548/548
f 560/560/560 561/561/561 548/548/548
f 548/548/548 561/561/561 549/549/549
f 561/561/561 562/562/562 549/549/549
f 575/575/575 576/576/576 563/563/563
f 576/576/576 577/577/577 564/564/564
f 577/577/577 578/578/578 565/565/565
f 578/578/578 579/579/579 566/566/566
f 579/579/579 580/580/580 567/567/567
f 580/580/580 581/581/581 568/568/568
f 581/581/581 582/582/582 569/569/569
f 582/582/582 583/583/583 570/570/570
f 583/583/583 584/584/584 571/571/571
f 584/584/584 585/585/585 572/572/572
f 585/585/585 586/586/586 573/573/573
f 586/586/586 587/587/587 574/574/574
f 601/601/601 600/600/600 588/588/588
f 602/602/602 601/601/601 589/589/589
f 603/603/603 602/602/602 590/590/590
f 604/604/604 603/603/603 591/591/591
f 605/605/605 604/604/604 592/592/592
f 606/606/606 605/605/605 593/593/593
f 607/607/607 606/606/606 594/594/594
f 608/608/608 607/607/607 595/595/595
f 609/609/609 608/608/608 596/596/596
f 610/610/610 609/609/609 597/597/597
f 611/611/611 610/610/610 598/598/598
f 612/612/612 611/611/611 599/599/599
o transformer_lid
usemtl SURF_Steel_Rust
v 0.36 6.515000000149012 0.2700000010430813
v 0.5000000005960464 6.515000000149012 0.23248711749911308
v 0.6024871176481247 6.515000000149012 0.13000000044703483
v 0.6400000011920929 6.515000000149012 -0.0100000001490116
v 0.6024871176481247 6.515000000149012 -0.15000000074505807
v 0.5000000005960464 6.515000000149012 -0.2524871177971363
v 0.36000000000000004 6.515000000149012 -0.2900000013411045
v 0.21999999940395354 6.515000000149012 -0.2524871177971363
v 0.11751288235187529 6.515000000149012 -0.15000000074505807
v 0.07999999880790709 6.515000000149012 -0.01000000014901167
v 0.11751288235187529 6.515000000149012 0.13000000044703483
v 0.21999999940395354 6.515000000149012 0.23248711749911308
v 0.35999999999999993 6.515000000149012 0.2700000010430813
v 0.36 6.444999999850989 0.2700000010430813
v 0.5000000005960464 6.444999999850989 0.23248711749911308
v 0.6024871176481247 6.444999999850989 0.13000000044703483
v 0.6400000011920929 6.444999999850989 -0.0100000001490116
v 0.6024871176481247 6.444999999850989 -0.15000000074505807
v 0.5000000005960464 6.444999999850989 -0.2524871177971363
v 0.36000000000000004 6.444999999850989 -0.2900000013411045
v 0.21999999940395354 6.444999999850989 -0.2524871177971363
v 0.11751288235187529 6.444999999850989 -0.15000000074505807
v 0.07999999880790709 6.444999999850989 -0.01000000014901167
v 0.11751288235187529 6.444999999850989 0.13000000044703483
v 0.21999999940395354 6.444999999850989 0.23248711749911308
v 0.35999999999999993 6.444999999850989 0.2700000010430813
v 0.36 6.515000000149012 -0.010000000149011617
v 0.36 6.515000000149012 -0.010000000149011617
v 0.36 6.515000000149012 -0.010000000149011617
v 0.36 6.515000000149012 -0.010000000149011617
v 0.36 6.515000000149012 -0.010000000149011617
v 0.36 6.515000000149012 -0.010000000149011617
v 0.36 6.515000000149012 -0.010000000149011617
v 0.36 6.515000000149012 -0.010000000149011617
v 0.36 6.515000000149012 -0.010000000149011617
v 0.36 6.515000000149012 -0.010000000149011617
v 0.36 6.515000000149012 -0.010000000149011617
v 0.36 6.515000000149012 -0.010000000149011617
v 0.36 6.515000000149012 0.2700000010430813
v 0.5000000005960464 6.515000000149012 0.23248711749911308
v 0.6024871176481247 6.515000000149012 0.13000000044703483
v 0.6400000011920929 6.515000000149012 -0.0100000001490116
v 0.6024871176481247 6.515000000149012 -0.15000000074505807
v 0.5000000005960464 6.515000000149012 -0.2524871177971363
v 0.36000000000000004 6.515000000149012 -0.2900000013411045
v 0.21999999940395354 6.515000000149012 -0.2524871177971363
v 0.11751288235187529 6.515000000149012 -0.15000000074505807
v 0.07999999880790709 6.515000000149012 -0.01000000014901167
v 0.11751288235187529 6.515000000149012 0.13000000044703483
v 0.21999999940395354 6.515000000149012 0.23248711749911308
v 0.35999999999999993 6.515000000149012 0.2700000010430813
v 0.36 6.444999999850989 -0.010000000149011617
v 0.36 6.444999999850989 -0.010000000149011617
v 0.36 6.444999999850989 -0.010000000149011617
v 0.36 6.444999999850989 -0.010000000149011617
v 0.36 6.444999999850989 -0.010000000149011617
v 0.36 6.444999999850989 -0.010000000149011617
v 0.36 6.444999999850989 -0.010000000149011617
v 0.36 6.444999999850989 -0.010000000149011617
v 0.36 6.444999999850989 -0.010000000149011617
v 0.36 6.444999999850989 -0.010000000149011617
v 0.36 6.444999999850989 -0.010000000149011617
v 0.36 6.444999999850989 -0.010000000149011617
v 0.36 6.444999999850989 0.2700000010430813
v 0.5000000005960464 6.444999999850989 0.23248711749911308
v 0.6024871176481247 6.444999999850989 0.13000000044703483
v 0.6400000011920929 6.444999999850989 -0.0100000001490116
v 0.6024871176481247 6.444999999850989 -0.15000000074505807
v 0.5000000005960464 6.444999999850989 -0.2524871177971363
v 0.36000000000000004 6.444999999850989 -0.2900000013411045
v 0.21999999940395354 6.444999999850989 -0.2524871177971363
v 0.11751288235187529 6.444999999850989 -0.15000000074505807
v 0.07999999880790709 6.444999999850989 -0.01000000014901167
v 0.11751288235187529 6.444999999850989 0.13000000044703483
v 0.21999999940395354 6.444999999850989 0.23248711749911308
v 0.35999999999999993 6.444999999850989 0.2700000010430813
vt 0 1
vt 0.0833333358168602 1
vt 0.1666666716337204 1
vt 0.25 1
vt 0.3333333432674408 1
vt 0.4166666567325592 1
vt 0.5 1
vt 0.5833333134651184 1
vt 0.6666666865348816 1
vt 0.75 1
vt 0.8333333134651184 1
vt 0.9166666865348816 1
vt 1 1
vt 0 0
vt 0.0833333358168602 0
vt 0.1666666716337204 0
vt 0.25 0
vt 0.3333333432674408 0
vt 0.4166666567325592 0
vt 0.5 0
vt 0.5833333134651184 0
vt 0.6666666865348816 0
vt 0.75 0
vt 0.8333333134651184 0
vt 0.9166666865348816 0
vt 1 0
vt 0.5 0.5
vt 0.5 0.5
vt 0.5 0.5
vt 0.5 0.5
vt 0.5 0.5
vt 0.5 0.5
vt 0.5 0.5
vt 0.5 0.5
vt 0.5 0.5
vt 0.5 0.5
vt 0.5 0.5
vt 0.5 0.5
vt 1 0.5
vt 0.9330127239227295 0.75
vt 0.75 0.9330127239227295
vt 0.5 1
vt 0.25 0.9330127239227295
vt 0.0669872984290123 0.75
vt 0 0.5
vt 0.0669872984290123 0.25
vt 0.25 0.0669872984290123
vt 0.5 0
vt 0.75 0.0669872984290123
vt 0.9330127239227295 0.25
vt 1 0.5
vt 0.5 0.5
vt 0.5 0.5
vt 0.5 0.5
vt 0.5 0.5
vt 0.5 0.5
vt 0.5 0.5
vt 0.5 0.5
vt 0.5 0.5
vt 0.5 0.5
vt 0.5 0.5
vt 0.5 0.5
vt 0.5 0.5
vt 1 0.5
vt 0.9330127239227295 0.25
vt 0.75 0.0669872984290123
vt 0.5 0
vt 0.25 0.0669872984290123
vt 0.0669872984290123 0.25
vt 0 0.5
vt 0.0669872984290123 0.75
vt 0.25 0.9330127239227295
vt 0.5 1
vt 0.75 0.9330127239227295
vt 0.9330127239227295 0.75
vt 1 0.5
vn 0 0 1
vn 0.5000000067305869 0 0.8660253998985324
vn 0.8660253998985324 0 0.5000000067305869
vn 1 0 6.123234262925839e-17
vn 0.8660253998985324 0 -0.5000000067305869
vn 0.5000000067305869 0 -0.8660253998985324
vn 1.2246468525851679e-16 0 -1
vn -0.5000000067305869 0 -0.8660253998985324
vn -0.8660253998985324 0 -0.5000000067305869
vn -1 0 -1.8369701465288538e-16
vn -0.8660253998985324 0 0.5000000067305869
vn -0.5000000067305869 0 0.8660253998985324
vn -2.4492937051703357e-16 0 1
vn 0 0 1
vn 0.5000000067305869 0 0.8660253998985324
vn 0.8660253998985324 0 0.5000000067305869
vn 1 0 6.123234262925839e-17
vn 0.8660253998985324 0 -0.5000000067305869
vn 0.5000000067305869 0 -0.8660253998985324
vn 1.2246468525851679e-16 0 -1
vn -0.5000000067305869 0 -0.8660253998985324
vn -0.8660253998985324 0 -0.5000000067305869
vn -1 0 -1.8369701465288538e-16
vn -0.8660253998985324 0 0.5000000067305869
vn -0.5000000067305869 0 0.8660253998985324
vn -2.4492937051703357e-16 0 1
vn 0 1 0
vn 0 1 0
vn 0 1 0
vn 0 1 0
vn 0 1 0
vn 0 1 0
vn 0 1 0
vn 0 1 0
vn 0 1 0
vn 0 1 0
vn 0 1 0
vn 0 1 0
vn 0 1 0
vn 0 1 0
vn 0 1 0
vn 0 1 0
vn 0 1 0
vn 0 1 0
vn 0 1 0
vn 0 1 0
vn 0 1 0
vn 0 1 0
vn 0 1 0
vn 0 1 0
vn 0 1 0
vn 0 -1 0
vn 0 -1 0
vn 0 -1 0
vn 0 -1 0
vn 0 -1 0
vn 0 -1 0
vn 0 -1 0
vn 0 -1 0
vn 0 -1 0
vn 0 -1 0
vn 0 -1 0
vn 0 -1 0
vn 0 -1 0
vn 0 -1 0
vn 0 -1 0
vn 0 -1 0
vn 0 -1 0
vn 0 -1 0
vn 0 -1 0
vn 0 -1 0
vn 0 -1 0
vn 0 -1 0
vn 0 -1 0
vn 0 -1 0
vn 0 -1 0
f 613/613/613 626/626/626 614/614/614
f 626/626/626 627/627/627 614/614/614
f 614/614/614 627/627/627 615/615/615
f 627/627/627 628/628/628 615/615/615
f 615/615/615 628/628/628 616/616/616
f 628/628/628 629/629/629 616/616/616
f 616/616/616 629/629/629 617/617/617
f 629/629/629 630/630/630 617/617/617
f 617/617/617 630/630/630 618/618/618
f 630/630/630 631/631/631 618/618/618
f 618/618/618 631/631/631 619/619/619
f 631/631/631 632/632/632 619/619/619
f 619/619/619 632/632/632 620/620/620
f 632/632/632 633/633/633 620/620/620
f 620/620/620 633/633/633 621/621/621
f 633/633/633 634/634/634 621/621/621
f 621/621/621 634/634/634 622/622/622
f 634/634/634 635/635/635 622/622/622
f 622/622/622 635/635/635 623/623/623
f 635/635/635 636/636/636 623/623/623
f 623/623/623 636/636/636 624/624/624
f 636/636/636 637/637/637 624/624/624
f 624/624/624 637/637/637 625/625/625
f 637/637/637 638/638/638 625/625/625
f 651/651/651 652/652/652 639/639/639
f 652/652/652 653/653/653 640/640/640
f 653/653/653 654/654/654 641/641/641
f 654/654/654 655/655/655 642/642/642
f 655/655/655 656/656/656 643/643/643
f 656/656/656 657/657/657 644/644/644
f 657/657/657 658/658/658 645/645/645
f 658/658/658 659/659/659 646/646/646
f 659/659/659 660/660/660 647/647/647
f 660/660/660 661/661/661 648/648/648
f 661/661/661 662/662/662 649/649/649
f 662/662/662 663/663/663 650/650/650
f 677/677/677 676/676/676 664/664/664
f 678/678/678 677/677/677 665/665/665
f 679/679/679 678/678/678 666/666/666
f 680/680/680 679/679/679 667/667/667
f 681/681/681 680/680/680 668/668/668
f 682/682/682 681/681/681 669/669/669
f 683/683/683 682/682/682 670/670/670
f 684/684/684 683/683/683 671/671/671
f 685/685/685 684/684/684 672/672/672
f 686/686/686 685/685/685 673/673/673
f 687/687/687 686/686/686 674/674/674
f 688/688/688 687/687/687 675/675/675
o service_box
usemtl SURF_Steel_Painted
v 0.14000000059604645 2.600000002980232 0.2900000013411045
v 0.14000000059604645 2.600000002980232 0.08999999836087227
v 0.14000000059604645 2.1999999970197677 0.2900000013411045
v 0.14000000059604645 2.1999999970197677 0.08999999836087227
v -0.14000000059604645 2.600000002980232 0.08999999836087227
v -0.14000000059604645 2.600000002980232 0.2900000013411045
v -0.14000000059604645 2.1999999970197677 0.08999999836087227
v -0.14000000059604645 2.1999999970197677 0.2900000013411045
v -0.14000000059604645 2.600000002980232 0.08999999836087227
v 0.14000000059604645 2.600000002980232 0.08999999836087227
v -0.14000000059604645 2.600000002980232 0.2900000013411045
v 0.14000000059604645 2.600000002980232 0.2900000013411045
v -0.14000000059604645 2.1999999970197677 0.2900000013411045
v 0.14000000059604645 2.1999999970197677 0.2900000013411045
v -0.14000000059604645 2.1999999970197677 0.08999999836087227
v 0.14000000059604645 2.1999999970197677 0.08999999836087227
v -0.14000000059604645 2.600000002980232 0.2900000013411045
v 0.14000000059604645 2.600000002980232 0.2900000013411045
v -0.14000000059604645 2.1999999970197677 0.2900000013411045
v 0.14000000059604645 2.1999999970197677 0.2900000013411045
v 0.14000000059604645 2.600000002980232 0.08999999836087227
v -0.14000000059604645 2.600000002980232 0.08999999836087227
v 0.14000000059604645 2.1999999970197677 0.08999999836087227
v -0.14000000059604645 2.1999999970197677 0.08999999836087227
vt 0 1
vt 1 1
vt 0 0
vt 1 0
vt 0 1
vt 1 1
vt 0 0
vt 1 0
vt 0 1
vt 1 1
vt 0 0
vt 1 0
vt 0 1
vt 1 1
vt 0 0
vt 1 0
vt 0 1
vt 1 1
vt 0 0
vt 1 0
vt 0 1
vt 1 1
vt 0 0
vt 1 0
vn 1 0 0
vn 1 0 0
vn 1 0 0
vn 1 0 0
vn -1 0 0
vn -1 0 0
vn -1 0 0
vn -1 0 0
vn 0 1 0
vn 0 1 0
vn 0 1 0
vn 0 1 0
vn 0 -1 0
vn 0 -1 0
vn 0 -1 0
vn 0 -1 0
vn 0 0 1
vn 0 0 1
vn 0 0 1
vn 0 0 1
vn 0 0 -1
vn 0 0 -1
vn 0 0 -1
vn 0 0 -1
f 689/689/689 691/691/691 690/690/690
f 691/691/691 692/692/692 690/690/690
f 693/693/693 695/695/695 694/694/694
f 695/695/695 696/696/696 694/694/694
f 697/697/697 699/699/699 698/698/698
f 699/699/699 700/700/700 698/698/698
f 701/701/701 703/703/703 702/702/702
f 703/703/703 704/704/704 702/702/702
f 705/705/705 707/707/707 706/706/706
f 707/707/707 708/708/708 706/706/706
f 709/709/709 711/711/711 710/710/710
f 711/711/711 712/712/712 710/710/710
o staple_step_a
usemtl SURF_Metal_Galvanised
v 0.28999999523162845 3.414999999664724 0.004999999515712256
v 0.28999999523162845 3.414999999664724 -0.02499999981373549
v 0.28999999523162845 3.385000000335276 0.004999999515712256
v 0.28999999523162845 3.385000000335276 -0.02499999981373549
v 0.030000004768371585 3.414999999664724 -0.02499999981373549
v 0.030000004768371585 3.414999999664724 0.004999999515712256
v 0.030000004768371585 3.385000000335276 -0.02499999981373549
v 0.030000004768371585 3.385000000335276 0.004999999515712256
v 0.030000004768371585 3.414999999664724 -0.02499999981373549
v 0.28999999523162845 3.414999999664724 -0.02499999981373549
v 0.030000004768371585 3.414999999664724 0.004999999515712256
v 0.28999999523162845 3.414999999664724 0.004999999515712256
v 0.030000004768371585 3.385000000335276 0.004999999515712256
v 0.28999999523162845 3.385000000335276 0.004999999515712256
v 0.030000004768371585 3.385000000335276 -0.02499999981373549
v 0.28999999523162845 3.385000000335276 -0.02499999981373549
v 0.030000004768371585 3.414999999664724 0.004999999515712256
v 0.28999999523162845 3.414999999664724 0.004999999515712256
v 0.030000004768371585 3.385000000335276 0.004999999515712256
v 0.28999999523162845 3.385000000335276 0.004999999515712256
v 0.28999999523162845 3.414999999664724 -0.02499999981373549
v 0.030000004768371585 3.414999999664724 -0.02499999981373549
v 0.28999999523162845 3.385000000335276 -0.02499999981373549
v 0.030000004768371585 3.385000000335276 -0.02499999981373549
vt 0 1
vt 1 1
vt 0 0
vt 1 0
vt 0 1
vt 1 1
vt 0 0
vt 1 0
vt 0 1
vt 1 1
vt 0 0
vt 1 0
vt 0 1
vt 1 1
vt 0 0
vt 1 0
vt 0 1
vt 1 1
vt 0 0
vt 1 0
vt 0 1
vt 1 1
vt 0 0
vt 1 0
vn 1 0 0
vn 1 0 0
vn 1 0 0
vn 1 0 0
vn -1 0 0
vn -1 0 0
vn -1 0 0
vn -1 0 0
vn 0 1 0
vn 0 1 0
vn 0 1 0
vn 0 1 0
vn 0 -1 0
vn 0 -1 0
vn 0 -1 0
vn 0 -1 0
vn 0 0 1
vn 0 0 1
vn 0 0 1
vn 0 0 1
vn 0 0 -1
vn 0 0 -1
vn 0 0 -1
vn 0 0 -1
f 713/713/713 715/715/715 714/714/714
f 715/715/715 716/716/716 714/714/714
f 717/717/717 719/719/719 718/718/718
f 719/719/719 720/720/720 718/718/718
f 721/721/721 723/723/723 722/722/722
f 723/723/723 724/724/724 722/722/722
f 725/725/725 727/727/727 726/726/726
f 727/727/727 728/728/728 726/726/726
f 729/729/729 731/731/731 730/730/730
f 731/731/731 732/732/732 730/730/730
f 733/733/733 735/735/735 734/734/734
f 735/735/735 736/736/736 734/734/734
o staple_step_b
usemtl SURF_Metal_Galvanised
v -0.030000004768371585 3.914999999664724 0.004999999515712256
v -0.030000004768371585 3.914999999664724 -0.02499999981373549
v -0.030000004768371585 3.885000000335276 0.004999999515712256
v -0.030000004768371585 3.885000000335276 -0.02499999981373549
v -0.28999999523162845 3.914999999664724 -0.02499999981373549
v -0.28999999523162845 3.914999999664724 0.004999999515712256
v -0.28999999523162845 3.885000000335276 -0.02499999981373549
v -0.28999999523162845 3.885000000335276 0.004999999515712256
v -0.28999999523162845 3.914999999664724 -0.02499999981373549
v -0.030000004768371585 3.914999999664724 -0.02499999981373549
v -0.28999999523162845 3.914999999664724 0.004999999515712256
v -0.030000004768371585 3.914999999664724 0.004999999515712256
v -0.28999999523162845 3.885000000335276 0.004999999515712256
v -0.030000004768371585 3.885000000335276 0.004999999515712256
v -0.28999999523162845 3.885000000335276 -0.02499999981373549
v -0.030000004768371585 3.885000000335276 -0.02499999981373549
v -0.28999999523162845 3.914999999664724 0.004999999515712256
v -0.030000004768371585 3.914999999664724 0.004999999515712256
v -0.28999999523162845 3.885000000335276 0.004999999515712256
v -0.030000004768371585 3.885000000335276 0.004999999515712256
v -0.030000004768371585 3.914999999664724 -0.02499999981373549
v -0.28999999523162845 3.914999999664724 -0.02499999981373549
v -0.030000004768371585 3.885000000335276 -0.02499999981373549
v -0.28999999523162845 3.885000000335276 -0.02499999981373549
vt 0 1
vt 1 1
vt 0 0
vt 1 0
vt 0 1
vt 1 1
vt 0 0
vt 1 0
vt 0 1
vt 1 1
vt 0 0
vt 1 0
vt 0 1
vt 1 1
vt 0 0
vt 1 0
vt 0 1
vt 1 1
vt 0 0
vt 1 0
vt 0 1
vt 1 1
vt 0 0
vt 1 0
vn 1 0 0
vn 1 0 0
vn 1 0 0
vn 1 0 0
vn -1 0 0
vn -1 0 0
vn -1 0 0
vn -1 0 0
vn 0 1 0
vn 0 1 0
vn 0 1 0
vn 0 1 0
vn 0 -1 0
vn 0 -1 0
vn 0 -1 0
vn 0 -1 0
vn 0 0 1
vn 0 0 1
vn 0 0 1
vn 0 0 1
vn 0 0 -1
vn 0 0 -1
vn 0 0 -1
vn 0 0 -1
f 737/737/737 739/739/739 738/738/738
f 739/739/739 740/740/740 738/738/738
f 741/741/741 743/743/743 742/742/742
f 743/743/743 744/744/744 742/742/742
f 745/745/745 747/747/747 746/746/746
f 747/747/747 748/748/748 746/746/746
f 749/749/749 751/751/751 750/750/750
f 751/751/751 752/752/752 750/750/750
f 753/753/753 755/755/755 754/754/754
f 755/755/755 756/756/756 754/754/754
f 757/757/757 759/759/759 758/758/758
f 759/759/759 760/760/760 758/758/758
