# Blender 5.2.0 LTS
# www.blender.org
mtllib SM_K_StreetLamp.mtl
o SM_K_StreetLamp
v 0.000000 -2.300000 -0.080000
v 0.000000 2.300000 -0.080000
v 0.047023 -2.300000 -0.064721
v 0.047023 2.300000 -0.064721
v 0.076085 -2.300000 -0.024721
v 0.076085 2.300000 -0.024721
v 0.076085 -2.300000 0.024721
v 0.076085 2.300000 0.024721
v 0.047023 -2.300000 0.064721
v 0.047023 2.300000 0.064721
v 0.000000 -2.300000 0.080000
v 0.000000 2.300000 0.080000
v -0.047023 -2.300000 0.064721
v -0.047023 2.300000 0.064721
v -0.076085 -2.300000 0.024721
v -0.076085 2.300000 0.024721
v -0.076085 -2.300000 -0.024721
v -0.076085 2.300000 -0.024721
v -0.047023 -2.300000 -0.064721
v -0.047023 2.300000 -0.064721
v -0.050000 2.150000 0.000000
v -0.050000 2.250000 0.000000
v -0.050000 2.150000 -0.900000
v -0.050000 2.250000 -0.900000
v 0.050000 2.150000 0.000000
v 0.050000 2.250000 0.000000
v 0.050000 2.150000 -0.900000
v 0.050000 2.250000 -0.900000
v -0.200000 1.990000 -0.725000
v -0.200000 2.210000 -0.725000
v -0.200000 1.990000 -1.075000
v -0.200000 2.210000 -1.075000
v 0.200000 1.990000 -0.725000
v 0.200000 2.210000 -0.725000
v 0.200000 1.990000 -1.075000
v 0.200000 2.210000 -1.075000
v -0.160000 1.910000 -0.770000
v -0.160000 1.990000 -0.770000
v -0.160000 1.910000 -1.030000
v -0.160000 1.990000 -1.030000
v 0.160000 1.910000 -0.770000
v 0.160000 1.990000 -0.770000
v 0.160000 1.910000 -1.030000
v 0.160000 1.990000 -1.030000
v -0.150000 -2.300000 0.150000
v -0.150000 -2.150000 0.150000
v -0.150000 -2.300000 -0.150000
v -0.150000 -2.150000 -0.150000
v 0.150000 -2.300000 0.150000
v 0.150000 -2.150000 0.150000
v 0.150000 -2.300000 -0.150000
v 0.150000 -2.150000 -0.150000
vn 0.3090 -0.0000 -0.9511
vn 0.8090 -0.0000 -0.5878
vn 1.0000 -0.0000 -0.0000
vn 0.8090 -0.0000 0.5878
vn 0.3090 -0.0000 0.9511
vn -0.3090 -0.0000 0.9511
vn -0.8090 -0.0000 0.5878
vn -1.0000 -0.0000 -0.0000
vn -0.0000 1.0000 -0.0000
vn -0.8090 -0.0000 -0.5878
vn -0.3090 -0.0000 -0.9511
vn -0.0000 -1.0000 -0.0000
vn -0.0000 -0.0000 -1.0000
vn -0.0000 -0.0000 1.0000
vt 0.500000 -1.800000
vt 0.500000 2.800000
vt 0.547023 2.800000
vt 0.547023 -1.800000
vt 0.102221 -1.800000
vt 0.102221 2.800000
vt 0.062221 2.800000
vt 0.062221 -1.800000
vt 0.012779 2.800000
vt 0.012779 -1.800000
vt -0.027221 2.800000
vt -0.027221 -1.800000
vt 0.452977 2.800000
vt 0.452977 -1.800000
vt 0.547023 0.102221
vt 0.500000 0.117500
vt 0.452977 0.102221
vt 0.423915 0.062221
vt 0.423915 0.012779
vt 0.452977 -0.027221
vt 0.500000 -0.042500
vt 0.547023 -0.027221
vt 0.576084 0.012779
vt 0.576084 0.062221
vt 0.037500 2.650000
vt 0.037500 2.750000
vt 0.937500 2.750000
vt 0.937500 2.650000
vt 0.450000 2.650000
vt 0.450000 2.750000
vt 0.550000 2.750000
vt 0.550000 2.650000
vt 0.450000 0.937500
vt 0.550000 0.937500
vt 0.550000 0.037500
vt 0.450000 0.037500
vt 0.762500 2.490000
vt 0.762500 2.710000
vt 1.112500 2.710000
vt 1.112500 2.490000
vt 0.300000 2.490000
vt 0.300000 2.710000
vt 0.700000 2.710000
vt 0.700000 2.490000
vt 0.300000 1.112500
vt 0.700000 1.112500
vt 0.700000 0.762500
vt 0.300000 0.762500
vt 0.807500 2.410000
vt 0.807500 2.490000
vt 1.067500 2.490000
vt 1.067500 2.410000
vt 0.340000 2.410000
vt 0.340000 2.490000
vt 0.660000 2.490000
vt 0.660000 2.410000
vt 0.340000 1.067500
vt 0.660000 1.067500
vt 0.660000 0.807500
vt 0.340000 0.807500
vt -0.112500 -1.800000
vt -0.112500 -1.650000
vt 0.187500 -1.650000
vt 0.187500 -1.800000
vt 0.350000 -1.800000
vt 0.350000 -1.650000
vt 0.650000 -1.650000
vt 0.650000 -1.800000
vt 0.350000 0.187500
vt 0.650000 0.187500
vt 0.650000 -0.112500
vt 0.350000 -0.112500
s 0
usemtl SURF_Metal_Lamp
f 1/1/1 2/2/1 4/3/1 3/4/1
f 3/5/2 4/6/2 6/7/2 5/8/2
f 5/8/3 6/7/3 8/9/3 7/10/3
f 7/10/4 8/9/4 10/11/4 9/12/4
f 9/4/5 10/3/5 12/2/5 11/1/5
f 11/1/6 12/2/6 14/13/6 13/14/6
f 13/12/7 14/11/7 16/9/7 15/10/7
f 15/10/8 16/9/8 18/7/8 17/8/8
f 4/15/9 2/16/9 20/17/9 18/18/9 16/19/9 14/20/9 12/21/9 10/22/9 8/23/9 6/24/9
f 17/8/10 18/7/10 20/6/10 19/5/10
f 19/14/11 20/13/11 2/2/11 1/1/11
f 1/16/12 3/15/12 5/24/12 7/23/12 9/22/12 11/21/12 13/20/12 15/19/12 17/18/12 19/17/12
f 21/25/8 22/26/8 24/27/8 23/28/8
f 23/29/13 24/30/13 28/31/13 27/32/13
f 27/28/3 28/27/3 26/26/3 25/25/3
f 25/32/14 26/31/14 22/30/14 21/29/14
f 23/33/12 27/34/12 25/35/12 21/36/12
f 28/34/9 24/33/9 22/36/9 26/35/9
f 29/37/8 30/38/8 32/39/8 31/40/8
f 31/41/13 32/42/13 36/43/13 35/44/13
f 35/40/3 36/39/3 34/38/3 33/37/3
f 33/44/14 34/43/14 30/42/14 29/41/14
f 31/45/12 35/46/12 33/47/12 29/48/12
f 36/46/9 32/45/9 30/48/9 34/47/9
f 45/61/8 46/62/8 48/63/8 47/64/8
f 47/65/13 48/66/13 52/67/13 51/68/13
f 51/64/3 52/63/3 50/62/3 49/61/3
f 49/68/14 50/67/14 46/66/14 45/65/14
f 47/69/12 51/70/12 49/71/12 45/72/12
f 52/70/9 48/69/9 46/72/9 50/71/9
usemtl SURF_Emissive_Screen
f 37/49/8 38/50/8 40/51/8 39/52/8
f 39/53/13 40/54/13 44/55/13 43/56/13
f 43/52/3 44/51/3 42/50/3 41/49/3
f 41/56/14 42/55/14 38/54/14 37/53/14
f 39/57/12 43/58/12 41/59/12 37/60/12
f 44/58/9 40/57/9 38/60/9 42/59/9
