# Blender 5.2.0 LTS
# www.blender.org
mtllib SM_K_Bench.mtl
o SM_K_Bench
v -0.700000 0.350000 0.210000
v -0.700000 0.450000 0.210000
v -0.700000 0.350000 -0.210000
v -0.700000 0.450000 -0.210000
v 0.700000 0.350000 0.210000
v 0.700000 0.450000 0.210000
v 0.700000 0.350000 -0.210000
v 0.700000 0.450000 -0.210000
v -0.700000 0.450000 0.210000
v -0.700000 0.850000 0.210000
v -0.700000 0.450000 0.130000
v -0.700000 0.850000 0.130000
v 0.700000 0.450000 0.210000
v 0.700000 0.850000 0.210000
v 0.700000 0.450000 0.130000
v 0.700000 0.850000 0.130000
v -0.630000 0.000000 -0.120000
v -0.630000 0.400000 -0.120000
v -0.630000 0.000000 -0.180000
v -0.630000 0.400000 -0.180000
v -0.570000 0.000000 -0.120000
v -0.570000 0.400000 -0.120000
v -0.570000 0.000000 -0.180000
v -0.570000 0.400000 -0.180000
v -0.630000 0.000000 0.180000
v -0.630000 0.400000 0.180000
v -0.630000 0.000000 0.120000
v -0.630000 0.400000 0.120000
v -0.570000 0.000000 0.180000
v -0.570000 0.400000 0.180000
v -0.570000 0.000000 0.120000
v -0.570000 0.400000 0.120000
v -0.630000 0.030000 0.200000
v -0.630000 0.090000 0.200000
v -0.630000 0.030000 -0.200000
v -0.630000 0.090000 -0.200000
v -0.570000 0.030000 0.200000
v -0.570000 0.090000 0.200000
v -0.570000 0.030000 -0.200000
v -0.570000 0.090000 -0.200000
v 0.570000 0.000000 -0.120000
v 0.570000 0.400000 -0.120000
v 0.570000 0.000000 -0.180000
v 0.570000 0.400000 -0.180000
v 0.630000 0.000000 -0.120000
v 0.630000 0.400000 -0.120000
v 0.630000 0.000000 -0.180000
v 0.630000 0.400000 -0.180000
v 0.570000 0.000000 0.180000
v 0.570000 0.400000 0.180000
v 0.570000 0.000000 0.120000
v 0.570000 0.400000 0.120000
v 0.630000 0.000000 0.180000
v 0.630000 0.400000 0.180000
v 0.630000 0.000000 0.120000
v 0.630000 0.400000 0.120000
v 0.570000 0.030000 0.200000
v 0.570000 0.090000 0.200000
v 0.570000 0.030000 -0.200000
v 0.570000 0.090000 -0.200000
v 0.630000 0.030000 0.200000
v 0.630000 0.090000 0.200000
v 0.630000 0.030000 -0.200000
v 0.630000 0.090000 -0.200000
vn -1.0000 -0.0000 -0.0000
vn -0.0000 -0.0000 -1.0000
vn 1.0000 -0.0000 -0.0000
vn -0.0000 -0.0000 1.0000
vn -0.0000 -1.0000 -0.0000
vn -0.0000 1.0000 -0.0000
vt 0.290000 0.425000
vt 0.290000 0.525000
vt 0.710000 0.525000
vt 0.710000 0.425000
vt -0.200000 0.425000
vt -0.200000 0.525000
vt 1.200000 0.525000
vt 1.200000 0.425000
vt -0.200000 0.710000
vt 1.200000 0.710000
vt 1.200000 0.290000
vt -0.200000 0.290000
vt 0.290000 0.525000
vt 0.290000 0.925000
vt 0.370000 0.925000
vt 0.370000 0.525000
vt -0.200000 0.525000
vt -0.200000 0.925000
vt 1.200000 0.925000
vt 1.200000 0.525000
vt -0.200000 0.370000
vt 1.200000 0.370000
vt 1.200000 0.290000
vt -0.200000 0.290000
vt 0.620000 0.075000
vt 0.620000 0.475000
vt 0.680000 0.475000
vt 0.680000 0.075000
vt -0.130000 0.075000
vt -0.130000 0.475000
vt -0.070000 0.475000
vt -0.070000 0.075000
vt -0.130000 0.680000
vt -0.070000 0.680000
vt -0.070000 0.620000
vt -0.130000 0.620000
vt 0.320000 0.075000
vt 0.320000 0.475000
vt 0.380000 0.475000
vt 0.380000 0.075000
vt -0.130000 0.380000
vt -0.070000 0.380000
vt -0.070000 0.320000
vt -0.130000 0.320000
vt 0.300000 0.105000
vt 0.300000 0.165000
vt 0.700000 0.165000
vt 0.700000 0.105000
vt -0.130000 0.105000
vt -0.130000 0.165000
vt -0.070000 0.165000
vt -0.070000 0.105000
vt -0.130000 0.700000
vt -0.070000 0.700000
vt -0.070000 0.300000
vt -0.130000 0.300000
vt 1.070000 0.075000
vt 1.070000 0.475000
vt 1.130000 0.475000
vt 1.130000 0.075000
vt 1.070000 0.680000
vt 1.130000 0.680000
vt 1.130000 0.620000
vt 1.070000 0.620000
vt 1.070000 0.380000
vt 1.130000 0.380000
vt 1.130000 0.320000
vt 1.070000 0.320000
vt 1.070000 0.105000
vt 1.070000 0.165000
vt 1.130000 0.165000
vt 1.130000 0.105000
vt 1.070000 0.700000
vt 1.130000 0.700000
vt 1.130000 0.300000
vt 1.070000 0.300000
s 0
usemtl SURF_Wood_Furniture
f 1/1/1 2/2/1 4/3/1 3/4/1
f 3/5/2 4/6/2 8/7/2 7/8/2
f 7/4/3 8/3/3 6/2/3 5/1/3
f 5/8/4 6/7/4 2/6/4 1/5/4
f 3/9/5 7/10/5 5/11/5 1/12/5
f 8/10/6 4/9/6 2/12/6 6/11/6
f 9/13/1 10/14/1 12/15/1 11/16/1
f 11/17/2 12/18/2 16/19/2 15/20/2
f 15/16/3 16/15/3 14/14/3 13/13/3
f 13/20/4 14/19/4 10/18/4 9/17/4
f 11/21/5 15/22/5 13/23/5 9/24/5
f 16/22/6 12/21/6 10/24/6 14/23/6
usemtl SURF_Metal_Fence
f 17/25/1 18/26/1 20/27/1 19/28/1
f 19/29/2 20/30/2 24/31/2 23/32/2
f 23/28/3 24/27/3 22/26/3 21/25/3
f 21/32/4 22/31/4 18/30/4 17/29/4
f 19/33/5 23/34/5 21/35/5 17/36/5
f 24/34/6 20/33/6 18/36/6 22/35/6
f 25/37/1 26/38/1 28/39/1 27/40/1
f 27/29/2 28/30/2 32/31/2 31/32/2
f 31/40/3 32/39/3 30/38/3 29/37/3
f 29/32/4 30/31/4 26/30/4 25/29/4
f 27/41/5 31/42/5 29/43/5 25/44/5
f 32/42/6 28/41/6 26/44/6 30/43/6
f 33/45/1 34/46/1 36/47/1 35/48/1
f 35/49/2 36/50/2 40/51/2 39/52/2
f 39/48/3 40/47/3 38/46/3 37/45/3
f 37/52/4 38/51/4 34/50/4 33/49/4
f 35/53/5 39/54/5 37/55/5 33/56/5
f 40/54/6 36/53/6 34/56/6 38/55/6
f 41/25/1 42/26/1 44/27/1 43/28/1
f 43/57/2 44/58/2 48/59/2 47/60/2
f 47/28/3 48/27/3 46/26/3 45/25/3
f 45/60/4 46/59/4 42/58/4 41/57/4
f 43/61/5 47/62/5 45/63/5 41/64/5
f 48/62/6 44/61/6 42/64/6 46/63/6
f 49/37/1 50/38/1 52/39/1 51/40/1
f 51/57/2 52/58/2 56/59/2 55/60/2
f 55/40/3 56/39/3 54/38/3 53/37/3
f 53/60/4 54/59/4 50/58/4 49/57/4
f 51/65/5 55/66/5 53/67/5 49/68/5
f 56/66/6 52/65/6 50/68/6 54/67/6
f 57/45/1 58/46/1 60/47/1 59/48/1
f 59/69/2 60/70/2 64/71/2 63/72/2
f 63/48/3 64/47/3 62/46/3 61/45/3
f 61/72/4 62/71/4 58/70/4 57/69/4
f 59/73/5 63/74/5 61/75/5 57/76/5
f 64/74/6 60/73/6 58/76/6 62/75/6
