# Blender 5.2.0 LTS
# www.blender.org
mtllib SM_K_SignboardVert.mtl
o SM_K_SignboardVert
v -0.250000 0.000000 0.080000
v -0.250000 2.000000 0.080000
v -0.250000 0.000000 -0.080000
v -0.250000 2.000000 -0.080000
v 0.250000 0.000000 0.080000
v 0.250000 2.000000 0.080000
v 0.250000 0.000000 -0.080000
v 0.250000 2.000000 -0.080000
v -0.210000 0.000000 0.040000
v -0.210000 1.900000 0.040000
v -0.210000 0.000000 -0.100000
v -0.210000 1.900000 -0.100000
v 0.210000 0.000000 0.040000
v 0.210000 1.900000 0.040000
v 0.210000 0.000000 -0.100000
v 0.210000 1.900000 -0.100000
v -0.050000 1.550000 0.250000
v -0.050000 1.650000 0.250000
v -0.050000 1.550000 0.050000
v -0.050000 1.650000 0.050000
v 0.050000 1.550000 0.250000
v 0.050000 1.650000 0.250000
v 0.050000 1.550000 0.050000
v 0.050000 1.650000 0.050000
vn -1.0000 -0.0000 -0.0000
vn -0.0000 -0.0000 -1.0000
vn 1.0000 -0.0000 -0.0000
vn -0.0000 -0.0000 1.0000
vn -0.0000 -1.0000 -0.0000
vn -0.0000 1.0000 -0.0000
vt 0.495000 -0.500000
vt 0.495000 1.500000
vt 0.655000 1.500000
vt 0.655000 -0.500000
vt 0.250000 -0.500000
vt 0.250000 1.500000
vt 0.750000 1.500000
vt 0.750000 -0.500000
vt 0.250000 0.655000
vt 0.750000 0.655000
vt 0.750000 0.495000
vt 0.250000 0.495000
vt 0.535000 -0.500000
vt 0.535000 1.400000
vt 0.675000 1.400000
vt 0.675000 -0.500000
vt 0.290000 -0.500000
vt 0.290000 1.400000
vt 0.710000 1.400000
vt 0.710000 -0.500000
vt 0.290000 0.675000
vt 0.710000 0.675000
vt 0.710000 0.535000
vt 0.290000 0.535000
vt 0.325000 1.050000
vt 0.325000 1.150000
vt 0.525000 1.150000
vt 0.525000 1.050000
vt 0.450000 1.050000
vt 0.450000 1.150000
vt 0.550000 1.150000
vt 0.550000 1.050000
vt 0.450000 0.525000
vt 0.550000 0.525000
vt 0.550000 0.325000
vt 0.450000 0.325000
s 0
usemtl SURF_Wood_Dark
f 1/1/1 2/2/1 4/3/1 3/4/1
f 3/5/2 4/6/2 8/7/2 7/8/2
f 7/4/3 8/3/3 6/2/3 5/1/3
f 5/8/4 6/7/4 2/6/4 1/5/4
f 3/9/5 7/10/5 5/11/5 1/12/5
f 8/10/6 4/9/6 2/12/6 6/11/6
usemtl SURF_Emissive_Screen
f 9/13/1 10/14/1 12/15/1 11/16/1
f 11/17/2 12/18/2 16/19/2 15/20/2
f 15/16/3 16/15/3 14/14/3 13/13/3
f 13/20/4 14/19/4 10/18/4 9/17/4
f 11/21/5 15/22/5 13/23/5 9/24/5
f 16/22/6 12/21/6 10/24/6 14/23/6
usemtl SURF_Metal_Lamp
f 17/25/1 18/26/1 20/27/1 19/28/1
f 19/29/2 20/30/2 24/31/2 23/32/2
f 23/28/3 24/27/3 22/26/3 21/25/3
f 21/32/4 22/31/4 18/30/4 17/29/4
f 19/33/5 23/34/5 21/35/5 17/36/5
f 24/34/6 20/33/6 18/36/6 22/35/6
