# Blender 5.2.0 LTS
# www.blender.org
mtllib SM_K_WireSpan.mtl
o SM_K_WireSpan
v -3.591064 0.665693 0.015000
v -3.587207 0.695444 0.015000
v -3.591064 0.665693 -0.015000
v -3.587207 0.695444 -0.015000
v -0.891064 0.315693 0.015000
v -0.887207 0.345444 0.015000
v -0.891064 0.315693 -0.015000
v -0.887207 0.345444 -0.015000
v -1.300000 0.000000 0.015000
v -1.300000 0.030000 0.015000
v -1.300000 0.000000 -0.015000
v -1.300000 0.030000 -0.015000
v 1.300000 0.000000 0.015000
v 1.300000 0.030000 0.015000
v 1.300000 0.000000 -0.015000
v 1.300000 0.030000 -0.015000
v 0.891064 0.315693 0.015000
v 0.887207 0.345444 0.015000
v 0.891064 0.315693 -0.015000
v 0.887207 0.345444 -0.015000
v 3.591064 0.665693 0.015000
v 3.587207 0.695444 0.015000
v 3.591064 0.665693 -0.015000
v 3.587207 0.695444 -0.015000
vn -0.9917 0.1286 -0.0000
vn -0.0000 -0.0000 -1.0000
vn 0.9917 -0.1286 -0.0000
vn -0.0000 -0.0000 1.0000
vn -0.1286 -0.9917 -0.0000
vn 0.1286 0.9917 -0.0000
vn -1.0000 -0.0000 -0.0000
vn 1.0000 -0.0000 -0.0000
vn -0.0000 -1.0000 -0.0000
vn -0.0000 1.0000 -0.0000
vn -0.9917 -0.1286 -0.0000
vn 0.9917 0.1286 -0.0000
vn 0.1286 -0.9917 -0.0000
vn -0.1286 0.9917 -0.0000
vt 0.485000 0.817971
vt 0.485000 0.847722
vt 0.515000 0.847722
vt 0.515000 0.817971
vt -3.091064 0.817971
vt -3.087207 0.847722
vt -0.387207 0.497722
vt -0.391064 0.467971
vt 0.515000 0.467971
vt 0.515000 0.497722
vt 0.485000 0.497722
vt 0.485000 0.467971
vt -3.091064 0.515000
vt -0.391064 0.515000
vt -0.391064 0.485000
vt -3.091064 0.485000
vt -0.387207 0.515000
vt -3.087207 0.515000
vt -3.087207 0.485000
vt -0.387207 0.485000
vt 0.485000 0.152278
vt 0.485000 0.182278
vt 0.515000 0.182278
vt 0.515000 0.152278
vt -0.800000 0.152278
vt -0.800000 0.182278
vt 1.800000 0.182278
vt 1.800000 0.152278
vt -0.800000 0.515000
vt 1.800000 0.515000
vt 1.800000 0.485000
vt -0.800000 0.485000
vt 1.391064 0.467971
vt 1.387208 0.497722
vt 4.087207 0.847722
vt 4.091064 0.817971
vt 1.391064 0.515000
vt 4.091064 0.515000
vt 4.091064 0.485000
vt 1.391064 0.485000
vt 4.087207 0.515000
vt 1.387208 0.515000
vt 1.387208 0.485000
vt 4.087207 0.485000
s 0
usemtl SURF_Metal_Lamp
f 1/1/1 2/2/1 4/3/1 3/4/1
f 3/5/2 4/6/2 8/7/2 7/8/2
f 7/9/3 8/10/3 6/11/3 5/12/3
f 5/8/4 6/7/4 2/6/4 1/5/4
f 3/13/5 7/14/5 5/15/5 1/16/5
f 8/17/6 4/18/6 2/19/6 6/20/6
f 9/21/7 10/22/7 12/23/7 11/24/7
f 11/25/2 12/26/2 16/27/2 15/28/2
f 15/24/8 16/23/8 14/22/8 13/21/8
f 13/28/4 14/27/4 10/26/4 9/25/4
f 11/29/9 15/30/9 13/31/9 9/32/9
f 16/30/10 12/29/10 10/32/10 14/31/10
f 17/12/11 18/11/11 20/10/11 19/9/11
f 19/33/2 20/34/2 24/35/2 23/36/2
f 23/4/12 24/3/12 22/2/12 21/1/12
f 21/36/4 22/35/4 18/34/4 17/33/4
f 19/37/13 23/38/13 21/39/13 17/40/13
f 24/41/14 20/42/14 18/43/14 22/44/14
