# Blender 5.2.0 LTS
# www.blender.org
mtllib SM_K_CrateStack.mtl
o SM_K_CrateStack
v -0.350000 0.000000 0.350000
v -0.350000 0.600000 0.350000
v -0.350000 0.000000 -0.350000
v -0.350000 0.600000 -0.350000
v 0.350000 0.000000 0.350000
v 0.350000 0.600000 0.350000
v 0.350000 0.000000 -0.350000
v 0.350000 0.600000 -0.350000
v -0.350000 -0.010000 0.350000
v -0.350000 0.610000 0.350000
v -0.350000 -0.010000 0.290000
v -0.350000 0.610000 0.290000
v -0.290000 -0.010000 0.350000
v -0.290000 0.610000 0.350000
v -0.290000 -0.010000 0.290000
v -0.290000 0.610000 0.290000
v -0.350000 -0.010000 -0.290000
v -0.350000 0.610000 -0.290000
v -0.350000 -0.010000 -0.350000
v -0.350000 0.610000 -0.350000
v -0.290000 -0.010000 -0.290000
v -0.290000 0.610000 -0.290000
v -0.290000 -0.010000 -0.350000
v -0.290000 0.610000 -0.350000
v 0.290000 -0.010000 0.350000
v 0.290000 0.610000 0.350000
v 0.290000 -0.010000 0.290000
v 0.290000 0.610000 0.290000
v 0.350000 -0.010000 0.350000
v 0.350000 0.610000 0.350000
v 0.350000 -0.010000 0.290000
v 0.350000 0.610000 0.290000
v 0.290000 -0.010000 -0.290000
v 0.290000 0.610000 -0.290000
v 0.290000 -0.010000 -0.350000
v 0.290000 0.610000 -0.350000
v 0.350000 -0.010000 -0.290000
v 0.350000 0.610000 -0.290000
v 0.350000 -0.010000 -0.350000
v 0.350000 0.610000 -0.350000
v -0.250000 0.600000 0.400000
v -0.250000 1.200000 0.400000
v -0.250000 0.600000 -0.300000
v -0.250000 1.200000 -0.300000
v 0.450000 0.600000 0.400000
v 0.450000 1.200000 0.400000
v 0.450000 0.600000 -0.300000
v 0.450000 1.200000 -0.300000
v -0.250000 0.590000 0.400000
v -0.250000 1.210000 0.400000
v -0.250000 0.590000 0.340000
v -0.250000 1.210000 0.340000
v -0.190000 0.590000 0.400000
v -0.190000 1.210000 0.400000
v -0.190000 0.590000 0.340000
v -0.190000 1.210000 0.340000
v -0.250000 0.590000 -0.240000
v -0.250000 1.210000 -0.240000
v -0.250000 0.590000 -0.300000
v -0.250000 1.210000 -0.300000
v -0.190000 0.590000 -0.240000
v -0.190000 1.210000 -0.240000
v -0.190000 0.590000 -0.300000
v -0.190000 1.210000 -0.300000
v 0.390000 0.590000 0.400000
v 0.390000 1.210000 0.400000
v 0.390000 0.590000 0.340000
v 0.390000 1.210000 0.340000
v 0.450000 0.590000 0.400000
v 0.450000 1.210000 0.400000
v 0.450000 0.590000 0.340000
v 0.450000 1.210000 0.340000
v 0.390000 0.590000 -0.240000
v 0.390000 1.210000 -0.240000
v 0.390000 0.590000 -0.300000
v 0.390000 1.210000 -0.300000
v 0.450000 0.590000 -0.240000
v 0.450000 1.210000 -0.240000
v 0.450000 0.590000 -0.300000
v 0.450000 1.210000 -0.300000
v -0.410000 1.200000 0.290000
v -0.410000 1.800000 0.290000
v -0.410000 1.200000 -0.410000
v -0.410000 1.800000 -0.410000
v 0.290000 1.200000 0.290000
v 0.290000 1.800000 0.290000
v 0.290000 1.200000 -0.410000
v 0.290000 1.800000 -0.410000
v -0.410000 1.190000 0.290000
v -0.410000 1.810000 0.290000
v -0.410000 1.190000 0.230000
v -0.410000 1.810000 0.230000
v -0.350000 1.190000 0.290000
v -0.350000 1.810000 0.290000
v -0.350000 1.190000 0.230000
v -0.350000 1.810000 0.230000
v -0.410000 1.190000 -0.350000
v -0.410000 1.810000 -0.350000
v -0.410000 1.190000 -0.410000
v -0.410000 1.810000 -0.410000
v -0.350000 1.190000 -0.350000
v -0.350000 1.810000 -0.350000
v -0.350000 1.190000 -0.410000
v -0.350000 1.810000 -0.410000
v 0.230000 1.190000 0.290000
v 0.230000 1.810000 0.290000
v 0.230000 1.190000 0.230000
v 0.230000 1.810000 0.230000
v 0.290000 1.190000 0.290000
v 0.290000 1.810000 0.290000
v 0.290000 1.190000 0.230000
v 0.290000 1.810000 0.230000
v 0.230000 1.190000 -0.350000
v 0.230000 1.810000 -0.350000
v 0.230000 1.190000 -0.410000
v 0.230000 1.810000 -0.410000
v 0.290000 1.190000 -0.350000
v 0.290000 1.810000 -0.350000
v 0.290000 1.190000 -0.410000
v 0.290000 1.810000 -0.410000
vn -1.0000 -0.0000 -0.0000
vn -0.0000 -0.0000 -1.0000
vn 1.0000 -0.0000 -0.0000
vn -0.0000 -0.0000 1.0000
vn -0.0000 -1.0000 -0.0000
vn -0.0000 1.0000 -0.0000
vt 0.145000 -0.400000
vt 0.145000 0.200000
vt 0.845000 0.200000
vt 0.845000 -0.400000
vt 0.130000 -0.400000
vt 0.130000 0.200000
vt 0.830000 0.200000
vt 0.830000 -0.400000
vt 0.130000 0.845000
vt 0.830000 0.845000
vt 0.830000 0.145000
vt 0.130000 0.145000
vt 0.145000 -0.410000
vt 0.145000 0.210000
vt 0.205000 0.210000
vt 0.205000 -0.410000
vt 0.130000 -0.410000
vt 0.130000 0.210000
vt 0.190000 0.210000
vt 0.190000 -0.410000
vt 0.130000 0.205000
vt 0.190000 0.205000
vt 0.190000 0.145000
vt 0.785000 -0.410000
vt 0.785000 0.210000
vt 0.845000 0.210000
vt 0.845000 -0.410000
vt 0.190000 0.845000
vt 0.190000 0.785000
vt 0.130000 0.785000
vt 0.770000 -0.410000
vt 0.770000 0.210000
vt 0.830000 0.210000
vt 0.830000 -0.410000
vt 0.770000 0.205000
vt 0.830000 0.205000
vt 0.770000 0.145000
vt 0.770000 0.845000
vt 0.830000 0.785000
vt 0.770000 0.785000
vt 0.095000 0.200000
vt 0.095000 0.800000
vt 0.795000 0.800000
vt 0.795000 0.200000
vt 0.230000 0.200000
vt 0.230000 0.800000
vt 0.930000 0.800000
vt 0.930000 0.200000
vt 0.230000 0.795000
vt 0.930000 0.795000
vt 0.930000 0.095000
vt 0.230000 0.095000
vt 0.095000 0.190000
vt 0.095000 0.810000
vt 0.155000 0.810000
vt 0.155000 0.190000
vt 0.230000 0.190000
vt 0.230000 0.810000
vt 0.290000 0.810000
vt 0.290000 0.190000
vt 0.230000 0.155000
vt 0.290000 0.155000
vt 0.290000 0.095000
vt 0.735000 0.190000
vt 0.735000 0.810000
vt 0.795000 0.810000
vt 0.795000 0.190000
vt 0.230000 0.795000
vt 0.290000 0.795000
vt 0.290000 0.735000
vt 0.230000 0.735000
vt 0.870000 0.190000
vt 0.870000 0.810000
vt 0.930000 0.810000
vt 0.930000 0.190000
vt 0.870000 0.155000
vt 0.930000 0.155000
vt 0.870000 0.095000
vt 0.870000 0.795000
vt 0.930000 0.795000
vt 0.930000 0.735000
vt 0.870000 0.735000
vt 0.205000 0.800000
vt 0.205000 1.400000
vt 0.905000 1.400000
vt 0.905000 0.800000
vt 0.070000 0.800000
vt 0.070000 1.400000
vt 0.770000 1.400000
vt 0.770000 0.800000
vt 0.070000 0.905000
vt 0.770000 0.905000
vt 0.070000 0.205000
vt 0.205000 0.790000
vt 0.205000 1.410000
vt 0.265000 1.410000
vt 0.265000 0.790000
vt 0.070000 0.790000
vt 0.070000 1.410000
vt 0.130000 1.410000
vt 0.130000 0.790000
vt 0.070000 0.265000
vt 0.130000 0.265000
vt 0.845000 0.790000
vt 0.845000 1.410000
vt 0.905000 1.410000
vt 0.905000 0.790000
vt 0.130000 0.905000
vt 0.070000 0.845000
vt 0.710000 0.790000
vt 0.710000 1.410000
vt 0.770000 1.410000
vt 0.770000 0.790000
vt 0.710000 0.265000
vt 0.770000 0.265000
vt 0.710000 0.205000
vt 0.710000 0.905000
vt 0.710000 0.845000
s 0
usemtl SURF_Storefront_Wood
f 1/1/1 2/2/1 4/3/1 3/4/1
f 3/5/2 4/6/2 8/7/2 7/8/2
f 7/4/3 8/3/3 6/2/3 5/1/3
f 5/8/4 6/7/4 2/6/4 1/5/4
f 3/9/5 7/10/5 5/11/5 1/12/5
f 8/10/6 4/9/6 2/12/6 6/11/6
f 41/41/1 42/42/1 44/43/1 43/44/1
f 43/45/2 44/46/2 48/47/2 47/48/2
f 47/44/3 48/43/3 46/42/3 45/41/3
f 45/48/4 46/47/4 42/46/4 41/45/4
f 43/49/5 47/50/5 45/51/5 41/52/5
f 48/50/6 44/49/6 42/52/6 46/51/6
f 81/83/1 82/84/1 84/85/1 83/86/1
f 83/87/2 84/88/2 88/89/2 87/90/2
f 87/86/3 88/85/3 86/84/3 85/83/3
f 85/90/4 86/89/4 82/88/4 81/87/4
f 83/91/5 87/92/5 85/35/5 81/93/5
f 88/92/6 84/91/6 82/93/6 86/35/6
usemtl SURF_Wood_Dark
f 9/13/1 10/14/1 12/15/1 11/16/1
f 11/17/2 12/18/2 16/19/2 15/20/2
f 15/16/3 16/15/3 14/14/3 13/13/3
f 13/20/4 14/19/4 10/18/4 9/17/4
f 11/21/5 15/22/5 13/23/5 9/12/5
f 16/22/6 12/21/6 10/12/6 14/23/6
f 17/24/1 18/25/1 20/26/1 19/27/1
f 19/17/2 20/18/2 24/19/2 23/20/2
f 23/27/3 24/26/3 22/25/3 21/24/3
f 21/20/4 22/19/4 18/18/4 17/17/4
f 19/9/5 23/28/5 21/29/5 17/30/5
f 24/28/6 20/9/6 18/30/6 22/29/6
f 25/13/1 26/14/1 28/15/1 27/16/1
f 27/31/2 28/32/2 32/33/2 31/34/2
f 31/16/3 32/15/3 30/14/3 29/13/3
f 29/34/4 30/33/4 26/32/4 25/31/4
f 27/35/5 31/36/5 29/11/5 25/37/5
f 32/36/6 28/35/6 26/37/6 30/11/6
f 33/24/1 34/25/1 36/26/1 35/27/1
f 35/31/2 36/32/2 40/33/2 39/34/2
f 39/27/3 40/26/3 38/25/3 37/24/3
f 37/34/4 38/33/4 34/32/4 33/31/4
f 35/38/5 39/10/5 37/39/5 33/40/5
f 40/10/6 36/38/6 34/40/6 38/39/6
f 49/53/1 50/54/1 52/55/1 51/56/1
f 51/57/2 52/58/2 56/59/2 55/60/2
f 55/56/3 56/55/3 54/54/3 53/53/3
f 53/60/4 54/59/4 50/58/4 49/57/4
f 51/61/5 55/62/5 53/63/5 49/52/5
f 56/62/6 52/61/6 50/52/6 54/63/6
f 57/64/1 58/65/1 60/66/1 59/67/1
f 59/57/2 60/58/2 64/59/2 63/60/2
f 63/67/3 64/66/3 62/65/3 61/64/3
f 61/60/4 62/59/4 58/58/4 57/57/4
f 59/68/5 63/69/5 61/70/5 57/71/5
f 64/69/6 60/68/6 58/71/6 62/70/6
f 65/53/1 66/54/1 68/55/1 67/56/1
f 67/72/2 68/73/2 72/74/2 71/75/2
f 71/56/3 72/55/3 70/54/3 69/53/3
f 69/75/4 70/74/4 66/73/4 65/72/4
f 67/76/5 71/77/5 69/51/5 65/78/5
f 72/77/6 68/76/6 66/78/6 70/51/6
f 73/64/1 74/65/1 76/66/1 75/67/1
f 75/72/2 76/73/2 80/74/2 79/75/2
f 79/67/3 80/66/3 78/65/3 77/64/3
f 77/75/4 78/74/4 74/73/4 73/72/4
f 75/79/5 79/80/5 77/81/5 73/82/5
f 80/80/6 76/79/6 74/82/6 78/81/6
f 89/94/1 90/95/1 92/96/1 91/97/1
f 91/98/2 92/99/2 96/100/2 95/101/2
f 95/97/3 96/96/3 94/95/3 93/94/3
f 93/101/4 94/100/4 90/99/4 89/98/4
f 91/102/5 95/103/5 93/21/5 89/93/5
f 96/103/6 92/102/6 90/93/6 94/21/6
f 97/104/1 98/105/1 100/106/1 99/107/1
f 99/98/2 100/99/2 104/100/2 103/101/2
f 103/107/3 104/106/3 102/105/3 101/104/3
f 101/101/4 102/100/4 98/99/4 97/98/4
f 99/91/5 103/108/5 101/9/5 97/109/5
f 104/108/6 100/91/6 98/109/6 102/9/6
f 105/94/1 106/95/1 108/96/1 107/97/1
f 107/110/2 108/111/2 112/112/2 111/113/2
f 111/97/3 112/96/3 110/95/3 109/94/3
f 109/113/4 110/112/4 106/111/4 105/110/4
f 107/114/5 111/115/5 109/35/5 105/116/5
f 112/115/6 108/114/6 106/116/6 110/35/6
f 113/104/1 114/105/1 116/106/1 115/107/1
f 115/110/2 116/111/2 120/112/2 119/113/2
f 119/107/3 120/106/3 118/105/3 117/104/3
f 117/113/4 118/112/4 114/111/4 113/110/4
f 115/117/5 119/92/5 117/38/5 113/118/5
f 120/92/6 116/117/6 114/118/6 118/38/6
