# Blender 5.2.0 LTS
# www.blender.org
mtllib SM_K_Tree_Small.mtl
o SM_K_Tree_Small
v 0.000000 -0.450000 -0.100000
v 0.000000 0.450000 -0.100000
v 0.070711 -0.450000 -0.070711
v 0.070711 0.450000 -0.070711
v 0.100000 -0.450000 0.000000
v 0.100000 0.450000 0.000000
v 0.070711 -0.450000 0.070711
v 0.070711 0.450000 0.070711
v 0.000000 -0.450000 0.100000
v 0.000000 0.450000 0.100000
v -0.070711 -0.450000 0.070711
v -0.070711 0.450000 0.070711
v -0.100000 -0.450000 0.000000
v -0.100000 0.450000 0.000000
v -0.070711 -0.450000 -0.070711
v -0.070711 0.450000 -0.070711
v -0.750000 0.400000 0.700000
v -0.750000 1.300000 0.700000
v -0.750000 0.400000 -0.700000
v -0.750000 1.300000 -0.700000
v 0.750000 0.400000 0.700000
v 0.750000 1.300000 0.700000
v 0.750000 0.400000 -0.700000
v 0.750000 1.300000 -0.700000
v -0.800000 0.800000 0.425000
v -0.800000 1.600000 0.425000
v -0.800000 0.800000 -0.725000
v -0.800000 1.600000 -0.725000
v 0.400000 0.800000 0.425000
v 0.400000 1.600000 0.425000
v 0.400000 0.800000 -0.725000
v 0.400000 1.600000 -0.725000
vn 0.3827 -0.0000 -0.9239
vn 0.9239 -0.0000 -0.3827
vn 0.9239 -0.0000 0.3827
vn 0.3827 -0.0000 0.9239
vn -0.3827 -0.0000 0.9239
vn -0.9239 -0.0000 0.3827
vn -0.0000 1.0000 -0.0000
vn -0.9239 -0.0000 -0.3827
vn -0.3827 -0.0000 -0.9239
vn -0.0000 -1.0000 -0.0000
vn -1.0000 -0.0000 -0.0000
vn -0.0000 -0.0000 -1.0000
vn 1.0000 -0.0000 -0.0000
vn -0.0000 -0.0000 1.0000
vt 0.525000 -0.525000
vt 0.525000 0.375000
vt 0.595711 0.375000
vt 0.595711 -0.525000
vt 0.558211 -0.525000
vt 0.558211 0.375000
vt 0.487500 0.375000
vt 0.487500 -0.525000
vt 0.416789 0.375000
vt 0.416789 -0.525000
vt 0.454289 0.375000
vt 0.454289 -0.525000
vt 0.595711 0.558211
vt 0.525000 0.587500
vt 0.454289 0.558211
vt 0.425000 0.487500
vt 0.454289 0.416789
vt 0.525000 0.387500
vt 0.595711 0.416789
vt 0.625000 0.487500
vt -0.212500 0.325000
vt -0.212500 1.225000
vt 1.187500 1.225000
vt 1.187500 0.325000
vt -0.225000 0.325000
vt -0.225000 1.225000
vt 1.275000 1.225000
vt 1.275000 0.325000
vt -0.225000 1.187500
vt 1.275000 1.187500
vt 1.275000 -0.212500
vt -0.225000 -0.212500
vt 0.062500 0.725000
vt 0.062500 1.525000
vt 1.212500 1.525000
vt 1.212500 0.725000
vt -0.275000 0.725000
vt -0.275000 1.525000
vt 0.925000 1.525000
vt 0.925000 0.725000
vt -0.275000 1.212500
vt 0.925000 1.212500
vt 0.925000 0.062500
vt -0.275000 0.062500
s 0
usemtl SURF_Wood_Furniture
f 1/1/1 2/2/1 4/3/1 3/4/1
f 3/5/2 4/6/2 6/7/2 5/8/2
f 5/8/3 6/7/3 8/9/3 7/10/3
f 7/4/4 8/3/4 10/2/4 9/1/4
f 9/1/5 10/2/5 12/11/5 11/12/5
f 11/10/6 12/9/6 14/7/6 13/8/6
f 4/13/7 2/14/7 16/15/7 14/16/7 12/17/7 10/18/7 8/19/7 6/20/7
f 13/8/8 14/7/8 16/6/8 15/5/8
f 15/12/9 16/11/9 2/2/9 1/1/9
f 1/14/10 3/13/10 5/20/10 7/19/10 9/18/10 11/17/10 13/16/10 15/15/10
usemtl SURF_Foliage_Tree
f 17/21/11 18/22/11 20/23/11 19/24/11
f 19/25/12 20/26/12 24/27/12 23/28/12
f 23/24/13 24/23/13 22/22/13 21/21/13
f 21/28/14 22/27/14 18/26/14 17/25/14
f 19/29/10 23/30/10 21/31/10 17/32/10
f 24/30/7 20/29/7 18/32/7 22/31/7
f 25/33/11 26/34/11 28/35/11 27/36/11
f 27/37/12 28/38/12 32/39/12 31/40/12
f 31/36/13 32/35/13 30/34/13 29/33/13
f 29/40/14 30/39/14 26/38/14 25/37/14
f 27/41/10 31/42/10 29/43/10 25/44/10
f 32/42/7 28/41/7 26/44/7 30/43/7
