# Blender 5.2.0 LTS
# www.blender.org
mtllib SM_K_FencePanel.mtl
o SM_K_FencePanel
v -1.000000 0.000000 0.090000
v -1.000000 1.200000 0.090000
v -1.000000 0.000000 -0.090000
v -1.000000 1.200000 -0.090000
v 1.000000 0.000000 0.090000
v 1.000000 1.200000 0.090000
v 1.000000 0.000000 -0.090000
v 1.000000 1.200000 -0.090000
v -1.030000 1.200000 0.120000
v -1.030000 1.260000 0.120000
v -1.030000 1.200000 -0.120000
v -1.030000 1.260000 -0.120000
v 1.030000 1.200000 0.120000
v 1.030000 1.260000 0.120000
v 1.030000 1.200000 -0.120000
v 1.030000 1.260000 -0.120000
v -1.010000 0.000000 0.130000
v -1.010000 1.200000 0.130000
v -1.010000 0.000000 -0.130000
v -1.010000 1.200000 -0.130000
v -0.870000 0.000000 0.130000
v -0.870000 1.200000 0.130000
v -0.870000 0.000000 -0.130000
v -0.870000 1.200000 -0.130000
v 0.870000 0.000000 0.130000
v 0.870000 1.200000 0.130000
v 0.870000 0.000000 -0.130000
v 0.870000 1.200000 -0.130000
v 1.010000 0.000000 0.130000
v 1.010000 1.200000 0.130000
v 1.010000 0.000000 -0.130000
v 1.010000 1.200000 -0.130000
vn -1.0000 -0.0000 -0.0000
vn -0.0000 -0.0000 -1.0000
vn 1.0000 -0.0000 -0.0000
vn -0.0000 -0.0000 1.0000
vn -0.0000 -1.0000 -0.0000
vn -0.0000 1.0000 -0.0000
vt 0.410000 -0.130000
vt 0.410000 1.070000
vt 0.590000 1.070000
vt 0.590000 -0.130000
vt -0.500000 -0.130000
vt -0.500000 1.070000
vt 1.500000 1.070000
vt 1.500000 -0.130000
vt -0.500000 0.590000
vt 1.500000 0.590000
vt 1.500000 0.410000
vt -0.500000 0.410000
vt 0.380000 1.070000
vt 0.380000 1.130000
vt 0.620000 1.130000
vt 0.620000 1.070000
vt -0.530000 1.070000
vt -0.530000 1.130000
vt 1.530000 1.130000
vt 1.530000 1.070000
vt -0.530000 0.620000
vt 1.530000 0.620000
vt 1.530000 0.380000
vt -0.530000 0.380000
vt 0.370000 -0.130000
vt 0.370000 1.070000
vt 0.630000 1.070000
vt 0.630000 -0.130000
vt -0.510000 -0.130000
vt -0.510000 1.070000
vt -0.370000 1.070000
vt -0.370000 -0.130000
vt -0.510000 0.630000
vt -0.370000 0.630000
vt -0.370000 0.370000
vt -0.510000 0.370000
vt 1.370000 -0.130000
vt 1.370000 1.070000
vt 1.510000 1.070000
vt 1.510000 -0.130000
vt 1.370000 0.630000
vt 1.510000 0.630000
vt 1.510000 0.370000
vt 1.370000 0.370000
s 0
usemtl SURF_Concrete_Struct
f 1/1/1 2/2/1 4/3/1 3/4/1
f 3/5/2 4/6/2 8/7/2 7/8/2
f 7/4/3 8/3/3 6/2/3 5/1/3
f 5/8/4 6/7/4 2/6/4 1/5/4
f 3/9/5 7/10/5 5/11/5 1/12/5
f 8/10/6 4/9/6 2/12/6 6/11/6
f 17/25/1 18/26/1 20/27/1 19/28/1
f 19/29/2 20/30/2 24/31/2 23/32/2
f 23/28/3 24/27/3 22/26/3 21/25/3
f 21/32/4 22/31/4 18/30/4 17/29/4
f 19/33/5 23/34/5 21/35/5 17/36/5
f 24/34/6 20/33/6 18/36/6 22/35/6
f 25/25/1 26/26/1 28/27/1 27/28/1
f 27/37/2 28/38/2 32/39/2 31/40/2
f 31/28/3 32/27/3 30/26/3 29/25/3
f 29/40/4 30/39/4 26/38/4 25/37/4
f 27/41/5 31/42/5 29/43/5 25/44/5
f 32/42/6 28/41/6 26/44/6 30/43/6
usemtl SURF_Concrete_Walk
f 9/13/1 10/14/1 12/15/1 11/16/1
f 11/17/2 12/18/2 16/19/2 15/20/2
f 15/16/3 16/15/3 14/14/3 13/13/3
f 13/20/4 14/19/4 10/18/4 9/17/4
f 11/21/5 15/22/5 13/23/5 9/24/5
f 16/22/6 12/21/6 10/24/6 14/23/6
