# Blender 5.2.0 LTS
# www.blender.org
mtllib SM_K_Gate.mtl
o SM_K_Gate
v -1.275000 0.000000 0.075000
v -1.275000 2.000000 0.075000
v -1.275000 0.000000 -0.075000
v -1.275000 2.000000 -0.075000
v -1.125000 0.000000 0.075000
v -1.125000 2.000000 0.075000
v -1.125000 0.000000 -0.075000
v -1.125000 2.000000 -0.075000
v 1.125000 0.000000 0.075000
v 1.125000 2.000000 0.075000
v 1.125000 0.000000 -0.075000
v 1.125000 2.000000 -0.075000
v 1.275000 0.000000 0.075000
v 1.275000 2.000000 0.075000
v 1.275000 0.000000 -0.075000
v 1.275000 2.000000 -0.075000
v -1.200000 1.740000 0.050000
v -1.200000 1.860000 0.050000
v -1.200000 1.740000 -0.050000
v -1.200000 1.860000 -0.050000
v 1.200000 1.740000 0.050000
v 1.200000 1.860000 0.050000
v 1.200000 1.740000 -0.050000
v 1.200000 1.860000 -0.050000
v -1.000000 0.050000 -0.030000
v -1.000000 1.750000 -0.030000
v -0.978787 0.050000 -0.021213
v -0.978787 1.750000 -0.021213
v -0.970000 0.050000 0.000000
v -0.970000 1.750000 0.000000
v -0.978787 0.050000 0.021213
v -0.978787 1.750000 0.021213
v -1.000000 0.050000 0.030000
v -1.000000 1.750000 0.030000
v -1.021213 0.050000 0.021213
v -1.021213 1.750000 0.021213
v -1.030000 0.050000 0.000000
v -1.030000 1.750000 0.000000
v -1.021213 0.050000 -0.021213
v -1.021213 1.750000 -0.021213
v -0.714286 0.050000 -0.030000
v -0.714286 1.750000 -0.030000
v -0.693073 0.050000 -0.021213
v -0.693073 1.750000 -0.021213
v -0.684286 0.050000 0.000000
v -0.684286 1.750000 0.000000
v -0.693073 0.050000 0.021213
v -0.693073 1.750000 0.021213
v -0.714286 0.050000 0.030000
v -0.714286 1.750000 0.030000
v -0.735499 0.050000 0.021213
v -0.735499 1.750000 0.021213
v -0.744286 0.050000 0.000000
v -0.744286 1.750000 0.000000
v -0.735499 0.050000 -0.021213
v -0.735499 1.750000 -0.021213
v -0.428571 0.050000 -0.030000
v -0.428571 1.750000 -0.030000
v -0.407358 0.050000 -0.021213
v -0.407358 1.750000 -0.021213
v -0.398571 0.050000 0.000000
v -0.398571 1.750000 0.000000
v -0.407358 0.050000 0.021213
v -0.407358 1.750000 0.021213
v -0.428571 0.050000 0.030000
v -0.428571 1.750000 0.030000
v -0.449785 0.050000 0.021213
v -0.449785 1.750000 0.021213
v -0.458571 0.050000 0.000000
v -0.458571 1.750000 0.000000
v -0.449785 0.050000 -0.021213
v -0.449785 1.750000 -0.021213
v -0.142857 0.050000 -0.030000
v -0.142857 1.750000 -0.030000
v -0.121644 0.050000 -0.021213
v -0.121644 1.750000 -0.021213
v -0.112857 0.050000 0.000000
v -0.112857 1.750000 0.000000
v -0.121644 0.050000 0.021213
v -0.121644 1.750000 0.021213
v -0.142857 0.050000 0.030000
v -0.142857 1.750000 0.030000
v -0.164070 0.050000 0.021213
v -0.164070 1.750000 0.021213
v -0.172857 0.050000 0.000000
v -0.172857 1.750000 0.000000
v -0.164070 0.050000 -0.021213
v -0.164070 1.750000 -0.021213
v 0.142857 0.050000 -0.030000
v 0.142857 1.750000 -0.030000
v 0.164070 0.050000 -0.021213
v 0.164070 1.750000 -0.021213
v 0.172857 0.050000 0.000000
v 0.172857 1.750000 0.000000
v 0.164070 0.050000 0.021213
v 0.164070 1.750000 0.021213
v 0.142857 0.050000 0.030000
v 0.142857 1.750000 0.030000
v 0.121644 0.050000 0.021213
v 0.121644 1.750000 0.021213
v 0.112857 0.050000 0.000000
v 0.112857 1.750000 0.000000
v 0.121644 0.050000 -0.021213
v 0.121644 1.750000 -0.021213
v 0.428571 0.050000 -0.030000
v 0.428571 1.750000 -0.030000
v 0.449785 0.050000 -0.021213
v 0.449785 1.750000 -0.021213
v 0.458571 0.050000 0.000000
v 0.458571 1.750000 0.000000
v 0.449785 0.050000 0.021213
v 0.449785 1.750000 0.021213
v 0.428571 0.050000 0.030000
v 0.428571 1.750000 0.030000
v 0.407358 0.050000 0.021213
v 0.407358 1.750000 0.021213
v 0.398571 0.050000 0.000000
v 0.398571 1.750000 0.000000
v 0.407358 0.050000 -0.021213
v 0.407358 1.750000 -0.021213
v 0.714286 0.050000 -0.030000
v 0.714286 1.750000 -0.030000
v 0.735499 0.050000 -0.021213
v 0.735499 1.750000 -0.021213
v 0.744286 0.050000 0.000000
v 0.744286 1.750000 0.000000
v 0.735499 0.050000 0.021213
v 0.735499 1.750000 0.021213
v 0.714286 0.050000 0.030000
v 0.714286 1.750000 0.030000
v 0.693073 0.050000 0.021213
v 0.693073 1.750000 0.021213
v 0.684286 0.050000 0.000000
v 0.684286 1.750000 0.000000
v 0.693073 0.050000 -0.021213
v 0.693073 1.750000 -0.021213
v 1.000000 0.050000 -0.030000
v 1.000000 1.750000 -0.030000
v 1.021213 0.050000 -0.021213
v 1.021213 1.750000 -0.021213
v 1.030000 0.050000 0.000000
v 1.030000 1.750000 0.000000
v 1.021213 0.050000 0.021213
v 1.021213 1.750000 0.021213
v 1.000000 0.050000 0.030000
v 1.000000 1.750000 0.030000
v 0.978787 0.050000 0.021213
v 0.978787 1.750000 0.021213
v 0.970000 0.050000 0.000000
v 0.970000 1.750000 0.000000
v 0.978787 0.050000 -0.021213
v 0.978787 1.750000 -0.021213
vn -1.0000 -0.0000 -0.0000
vn -0.0000 -0.0000 -1.0000
vn 1.0000 -0.0000 -0.0000
vn -0.0000 -0.0000 1.0000
vn -0.0000 -1.0000 -0.0000
vn -0.0000 1.0000 -0.0000
vn 0.3827 -0.0000 -0.9239
vn 0.9239 -0.0000 -0.3827
vn 0.9239 -0.0000 0.3827
vn 0.3827 -0.0000 0.9239
vn -0.3827 -0.0000 0.9239
vn -0.9239 -0.0000 0.3827
vn -0.9239 -0.0000 -0.3827
vn -0.3827 -0.0000 -0.9239
vt 0.425000 -0.500000
vt 0.425000 1.500000
vt 0.575000 1.500000
vt 0.575000 -0.500000
vt -0.775000 -0.500000
vt -0.775000 1.500000
vt -0.625000 1.500000
vt -0.625000 -0.500000
vt -0.775000 0.575000
vt -0.625000 0.575000
vt -0.625000 0.425000
vt -0.775000 0.425000
vt 1.625000 -0.500000
vt 1.625000 1.500000
vt 1.775000 1.500000
vt 1.775000 -0.500000
vt 1.625000 0.575000
vt 1.775000 0.575000
vt 1.775000 0.425000
vt 1.625000 0.425000
vt 0.450000 1.240000
vt 0.450000 1.360000
vt 0.550000 1.360000
vt 0.550000 1.240000
vt -0.700000 1.240000
vt -0.700000 1.360000
vt 1.700000 1.360000
vt 1.700000 1.240000
vt -0.700000 0.550000
vt 1.700000 0.550000
vt 1.700000 0.450000
vt -0.700000 0.450000
vt -0.500000 -0.450000
vt -0.500000 1.250000
vt -0.478787 1.250000
vt -0.478787 -0.450000
vt 0.521213 -0.450000
vt 0.521213 1.250000
vt 0.500000 1.250000
vt 0.500000 -0.450000
vt 0.478787 1.250000
vt 0.478787 -0.450000
vt -0.521213 1.250000
vt -0.521213 -0.450000
vt -0.478787 0.521213
vt -0.500000 0.530000
vt -0.521213 0.521213
vt -0.530000 0.500000
vt -0.521213 0.478787
vt -0.500000 0.470000
vt -0.478787 0.478787
vt -0.470000 0.500000
vt -0.214286 -0.450000
vt -0.214286 1.250000
vt -0.193073 1.250000
vt -0.193073 -0.450000
vt -0.235499 1.250000
vt -0.235499 -0.450000
vt -0.193073 0.521213
vt -0.214286 0.530000
vt -0.235499 0.521213
vt -0.244286 0.500000
vt -0.235499 0.478787
vt -0.214286 0.470000
vt -0.193073 0.478787
vt -0.184286 0.500000
vt 0.071429 -0.450000
vt 0.071429 1.250000
vt 0.092642 1.250000
vt 0.092642 -0.450000
vt 0.050215 1.250000
vt 0.050215 -0.450000
vt 0.092642 0.521213
vt 0.071429 0.530000
vt 0.050215 0.521213
vt 0.041429 0.500000
vt 0.050215 0.478787
vt 0.071429 0.470000
vt 0.092642 0.478787
vt 0.101429 0.500000
vt 0.357143 -0.450000
vt 0.357143 1.250000
vt 0.378356 1.250000
vt 0.378356 -0.450000
vt 0.335930 1.250000
vt 0.335930 -0.450000
vt 0.378356 0.521213
vt 0.357143 0.530000
vt 0.335930 0.521213
vt 0.327143 0.500000
vt 0.335930 0.478787
vt 0.357143 0.470000
vt 0.378356 0.478787
vt 0.387143 0.500000
vt 0.642857 -0.450000
vt 0.642857 1.250000
vt 0.664070 1.250000
vt 0.664070 -0.450000
vt 0.621644 1.250000
vt 0.621644 -0.450000
vt 0.664070 0.521213
vt 0.642857 0.530000
vt 0.621644 0.521213
vt 0.612857 0.500000
vt 0.621644 0.478787
vt 0.642857 0.470000
vt 0.664070 0.478787
vt 0.672857 0.500000
vt 0.928571 -0.450000
vt 0.928571 1.250000
vt 0.949785 1.250000
vt 0.949785 -0.450000
vt 0.907358 1.250000
vt 0.907358 -0.450000
vt 0.949785 0.521213
vt 0.928571 0.530000
vt 0.907358 0.521213
vt 0.898571 0.500000
vt 0.907358 0.478787
vt 0.928571 0.470000
vt 0.949785 0.478787
vt 0.958571 0.500000
vt 1.214286 -0.450000
vt 1.214286 1.250000
vt 1.235499 1.250000
vt 1.235499 -0.450000
vt 1.193073 1.250000
vt 1.193073 -0.450000
vt 1.235499 0.521213
vt 1.214286 0.530000
vt 1.193073 0.521213
vt 1.184286 0.500000
vt 1.193073 0.478787
vt 1.214286 0.470000
vt 1.235499 0.478787
vt 1.244286 0.500000
vt 1.500000 -0.450000
vt 1.500000 1.250000
vt 1.521213 1.250000
vt 1.521213 -0.450000
vt 1.478787 1.250000
vt 1.478787 -0.450000
vt 1.521213 0.521213
vt 1.500000 0.530000
vt 1.478787 0.521213
vt 1.470000 0.500000
vt 1.478787 0.478787
vt 1.500000 0.470000
vt 1.521213 0.478787
vt 1.530000 0.500000
s 0
usemtl SURF_Concrete_Struct
f 1/1/1 2/2/1 4/3/1 3/4/1
f 3/5/2 4/6/2 8/7/2 7/8/2
f 7/4/3 8/3/3 6/2/3 5/1/3
f 5/8/4 6/7/4 2/6/4 1/5/4
f 3/9/5 7/10/5 5/11/5 1/12/5
f 8/10/6 4/9/6 2/12/6 6/11/6
f 9/1/1 10/2/1 12/3/1 11/4/1
f 11/13/2 12/14/2 16/15/2 15/16/2
f 15/4/3 16/3/3 14/2/3 13/1/3
f 13/16/4 14/15/4 10/14/4 9/13/4
f 11/17/5 15/18/5 13/19/5 9/20/5
f 16/18/6 12/17/6 10/20/6 14/19/6
usemtl SURF_Metal_Fence
f 17/21/1 18/22/1 20/23/1 19/24/1
f 19/25/2 20/26/2 24/27/2 23/28/2
f 23/24/3 24/23/3 22/22/3 21/21/3
f 21/28/4 22/27/4 18/26/4 17/25/4
f 19/29/5 23/30/5 21/31/5 17/32/5
f 24/30/6 20/29/6 18/32/6 22/31/6
f 25/33/7 26/34/7 28/35/7 27/36/7
f 27/37/8 28/38/8 30/39/8 29/40/8
f 29/40/9 30/39/9 32/41/9 31/42/9
f 31/36/10 32/35/10 34/34/10 33/33/10
f 33/33/11 34/34/11 36/43/11 35/44/11
f 35/42/12 36/41/12 38/39/12 37/40/12
f 28/45/6 26/46/6 40/47/6 38/48/6 36/49/6 34/50/6 32/51/6 30/52/6
f 37/40/13 38/39/13 40/38/13 39/37/13
f 39/44/14 40/43/14 26/34/14 25/33/14
f 25/46/5 27/45/5 29/52/5 31/51/5 33/50/5 35/49/5 37/48/5 39/47/5
f 41/53/7 42/54/7 44/55/7 43/56/7
f 43/37/8 44/38/8 46/39/8 45/40/8
f 45/40/9 46/39/9 48/41/9 47/42/9
f 47/56/10 48/55/10 50/54/10 49/53/10
f 49/53/11 50/54/11 52/57/11 51/58/11
f 51/42/12 52/41/12 54/39/12 53/40/12
f 44/59/6 42/60/6 56/61/6 54/62/6 52/63/6 50/64/6 48/65/6 46/66/6
f 53/40/13 54/39/13 56/38/13 55/37/13
f 55/58/14 56/57/14 42/54/14 41/53/14
f 41/60/5 43/59/5 45/66/5 47/65/5 49/64/5 51/63/5 53/62/5 55/61/5
f 57/67/7 58/68/7 60/69/7 59/70/7
f 59/37/8 60/38/8 62/39/8 61/40/8
f 61/40/9 62/39/9 64/41/9 63/42/9
f 63/70/10 64/69/10 66/68/10 65/67/10
f 65/67/11 66/68/11 68/71/11 67/72/11
f 67/42/12 68/41/12 70/39/12 69/40/12
f 60/73/6 58/74/6 72/75/6 70/76/6 68/77/6 66/78/6 64/79/6 62/80/6
f 69/40/13 70/39/13 72/38/13 71/37/13
f 71/72/14 72/71/14 58/68/14 57/67/14
f 57/74/5 59/73/5 61/80/5 63/79/5 65/78/5 67/77/5 69/76/5 71/75/5
f 73/81/7 74/82/7 76/83/7 75/84/7
f 75/37/8 76/38/8 78/39/8 77/40/8
f 77/40/9 78/39/9 80/41/9 79/42/9
f 79/84/10 80/83/10 82/82/10 81/81/10
f 81/81/11 82/82/11 84/85/11 83/86/11
f 83/42/12 84/41/12 86/39/12 85/40/12
f 76/87/6 74/88/6 88/89/6 86/90/6 84/91/6 82/92/6 80/93/6 78/94/6
f 85/40/13 86/39/13 88/38/13 87/37/13
f 87/86/14 88/85/14 74/82/14 73/81/14
f 73/88/5 75/87/5 77/94/5 79/93/5 81/92/5 83/91/5 85/90/5 87/89/5
f 89/95/7 90/96/7 92/97/7 91/98/7
f 91/37/8 92/38/8 94/39/8 93/40/8
f 93/40/9 94/39/9 96/41/9 95/42/9
f 95/98/10 96/97/10 98/96/10 97/95/10
f 97/95/11 98/96/11 100/99/11 99/100/11
f 99/42/12 100/41/12 102/39/12 101/40/12
f 92/101/6 90/102/6 104/103/6 102/104/6 100/105/6 98/106/6 96/107/6 94/108/6
f 101/40/13 102/39/13 104/38/13 103/37/13
f 103/100/14 104/99/14 90/96/14 89/95/14
f 89/102/5 91/101/5 93/108/5 95/107/5 97/106/5 99/105/5 101/104/5 103/103/5
f 105/109/7 106/110/7 108/111/7 107/112/7
f 107/37/8 108/38/8 110/39/8 109/40/8
f 109/40/9 110/39/9 112/41/9 111/42/9
f 111/112/10 112/111/10 114/110/10 113/109/10
f 113/109/11 114/110/11 116/113/11 115/114/11
f 115/42/12 116/41/12 118/39/12 117/40/12
f 108/115/6 106/116/6 120/117/6 118/118/6 116/119/6 114/120/6 112/121/6 110/122/6
f 117/40/13 118/39/13 120/38/13 119/37/13
f 119/114/14 120/113/14 106/110/14 105/109/14
f 105/116/5 107/115/5 109/122/5 111/121/5 113/120/5 115/119/5 117/118/5 119/117/5
f 121/123/7 122/124/7 124/125/7 123/126/7
f 123/37/8 124/38/8 126/39/8 125/40/8
f 125/40/9 126/39/9 128/41/9 127/42/9
f 127/126/10 128/125/10 130/124/10 129/123/10
f 129/123/11 130/124/11 132/127/11 131/128/11
f 131/42/12 132/41/12 134/39/12 133/40/12
f 124/129/6 122/130/6 136/131/6 134/132/6 132/133/6 130/134/6 128/135/6 126/136/6
f 133/40/13 134/39/13 136/38/13 135/37/13
f 135/128/14 136/127/14 122/124/14 121/123/14
f 121/130/5 123/129/5 125/136/5 127/135/5 129/134/5 131/133/5 133/132/5 135/131/5
f 137/137/7 138/138/7 140/139/7 139/140/7
f 139/37/8 140/38/8 142/39/8 141/40/8
f 141/40/9 142/39/9 144/41/9 143/42/9
f 143/140/10 144/139/10 146/138/10 145/137/10
f 145/137/11 146/138/11 148/141/11 147/142/11
f 147/42/12 148/41/12 150/39/12 149/40/12
f 140/143/6 138/144/6 152/145/6 150/146/6 148/147/6 146/148/6 144/149/6 142/150/6
f 149/40/13 150/39/13 152/38/13 151/37/13
f 151/142/14 152/141/14 138/138/14 137/137/14
f 137/144/5 139/143/5 141/150/5 143/149/5 145/148/5 147/147/5 149/146/5 151/145/5
