# Blender 5.2.0 LTS
# www.blender.org
mtllib SM_K_Vending.mtl
o SM_K_Vending
v -0.390000 0.000000 0.525000
v -0.390000 1.900000 0.525000
v -0.390000 0.000000 -0.525000
v -0.390000 1.900000 -0.525000
v 0.390000 0.000000 0.525000
v 0.390000 1.900000 0.525000
v 0.390000 0.000000 -0.525000
v 0.390000 1.900000 -0.525000
v -0.350000 0.750000 -0.495000
v -0.350000 1.650000 -0.495000
v -0.350000 0.750000 -0.555000
v -0.350000 1.650000 -0.555000
v 0.350000 0.750000 -0.495000
v 0.350000 1.650000 -0.495000
v 0.350000 0.750000 -0.555000
v 0.350000 1.650000 -0.555000
v -0.305000 1.390000 -0.540000
v -0.305000 1.610000 -0.540000
v -0.305000 1.390000 -0.570000
v -0.305000 1.610000 -0.570000
v -0.175000 1.390000 -0.540000
v -0.175000 1.610000 -0.540000
v -0.175000 1.390000 -0.570000
v -0.175000 1.610000 -0.570000
v -0.145000 1.390000 -0.540000
v -0.145000 1.610000 -0.540000
v -0.145000 1.390000 -0.570000
v -0.145000 1.610000 -0.570000
v -0.015000 1.390000 -0.540000
v -0.015000 1.610000 -0.540000
v -0.015000 1.390000 -0.570000
v -0.015000 1.610000 -0.570000
v 0.015000 1.390000 -0.540000
v 0.015000 1.610000 -0.540000
v 0.015000 1.390000 -0.570000
v 0.015000 1.610000 -0.570000
v 0.145000 1.390000 -0.540000
v 0.145000 1.610000 -0.540000
v 0.145000 1.390000 -0.570000
v 0.145000 1.610000 -0.570000
v 0.175000 1.390000 -0.540000
v 0.175000 1.610000 -0.540000
v 0.175000 1.390000 -0.570000
v 0.175000 1.610000 -0.570000
v 0.305000 1.390000 -0.540000
v 0.305000 1.610000 -0.540000
v 0.305000 1.390000 -0.570000
v 0.305000 1.610000 -0.570000
v -0.305000 1.090000 -0.540000
v -0.305000 1.310000 -0.540000
v -0.305000 1.090000 -0.570000
v -0.305000 1.310000 -0.570000
v -0.175000 1.090000 -0.540000
v -0.175000 1.310000 -0.540000
v -0.175000 1.090000 -0.570000
v -0.175000 1.310000 -0.570000
v -0.145000 1.090000 -0.540000
v -0.145000 1.310000 -0.540000
v -0.145000 1.090000 -0.570000
v -0.145000 1.310000 -0.570000
v -0.015000 1.090000 -0.540000
v -0.015000 1.310000 -0.540000
v -0.015000 1.090000 -0.570000
v -0.015000 1.310000 -0.570000
v 0.015000 1.090000 -0.540000
v 0.015000 1.310000 -0.540000
v 0.015000 1.090000 -0.570000
v 0.015000 1.310000 -0.570000
v 0.145000 1.090000 -0.540000
v 0.145000 1.310000 -0.540000
v 0.145000 1.090000 -0.570000
v 0.145000 1.310000 -0.570000
v 0.175000 1.090000 -0.540000
v 0.175000 1.310000 -0.540000
v 0.175000 1.090000 -0.570000
v 0.175000 1.310000 -0.570000
v 0.305000 1.090000 -0.540000
v 0.305000 1.310000 -0.540000
v 0.305000 1.090000 -0.570000
v 0.305000 1.310000 -0.570000
v -0.305000 0.790000 -0.540000
v -0.305000 1.010000 -0.540000
v -0.305000 0.790000 -0.570000
v -0.305000 1.010000 -0.570000
v -0.175000 0.790000 -0.540000
v -0.175000 1.010000 -0.540000
v -0.175000 0.790000 -0.570000
v -0.175000 1.010000 -0.570000
v -0.145000 0.790000 -0.540000
v -0.145000 1.010000 -0.540000
v -0.145000 0.790000 -0.570000
v -0.145000 1.010000 -0.570000
v -0.015000 0.790000 -0.540000
v -0.015000 1.010000 -0.540000
v -0.015000 0.790000 -0.570000
v -0.015000 1.010000 -0.570000
v 0.015000 0.790000 -0.540000
v 0.015000 1.010000 -0.540000
v 0.015000 0.790000 -0.570000
v 0.015000 1.010000 -0.570000
v 0.145000 0.790000 -0.540000
v 0.145000 1.010000 -0.540000
v 0.145000 0.790000 -0.570000
v 0.145000 1.010000 -0.570000
v 0.175000 0.790000 -0.540000
v 0.175000 1.010000 -0.540000
v 0.175000 0.790000 -0.570000
v 0.175000 1.010000 -0.570000
v 0.305000 0.790000 -0.540000
v 0.305000 1.010000 -0.540000
v 0.305000 0.790000 -0.570000
v 0.305000 1.010000 -0.570000
v -0.330000 0.750000 -0.560000
v -0.330000 1.650000 -0.560000
v -0.330000 0.750000 -0.590000
v -0.330000 1.650000 -0.590000
v 0.330000 0.750000 -0.560000
v 0.330000 1.650000 -0.560000
v 0.330000 0.750000 -0.590000
v 0.330000 1.650000 -0.590000
v -0.250000 0.140000 -0.455000
v -0.250000 0.300000 -0.455000
v -0.250000 0.140000 -0.555000
v -0.250000 0.300000 -0.555000
v 0.250000 0.140000 -0.455000
v 0.250000 0.300000 -0.455000
v 0.250000 0.140000 -0.555000
v 0.250000 0.300000 -0.555000
v 0.230000 0.400000 -0.525000
v 0.230000 0.800000 -0.525000
v 0.230000 0.400000 -0.565000
v 0.230000 0.800000 -0.565000
v 0.330000 0.400000 -0.525000
v 0.330000 0.800000 -0.525000
v 0.330000 0.400000 -0.565000
v 0.330000 0.800000 -0.565000
vn -1.0000 -0.0000 -0.0000
vn -0.0000 -0.0000 -1.0000
vn 1.0000 -0.0000 -0.0000
vn -0.0000 -0.0000 1.0000
vn -0.0000 -1.0000 -0.0000
vn -0.0000 1.0000 -0.0000
vt -0.057500 -0.450000
vt -0.057500 1.450000
vt 0.992500 1.450000
vt 0.992500 -0.450000
vt 0.110000 -0.450000
vt 0.110000 1.450000
vt 0.890000 1.450000
vt 0.890000 -0.450000
vt 0.110000 0.992500
vt 0.890000 0.992500
vt 0.890000 -0.057500
vt 0.110000 -0.057500
vt 0.962500 0.300000
vt 0.962500 1.200000
vt 1.022500 1.200000
vt 1.022500 0.300000
vt 0.150000 0.300000
vt 0.150000 1.200000
vt 0.850000 1.200000
vt 0.850000 0.300000
vt 0.150000 1.022500
vt 0.850000 1.022500
vt 0.850000 0.962500
vt 0.150000 0.962500
vt 1.007500 0.940000
vt 1.007500 1.160000
vt 1.037500 1.160000
vt 1.037500 0.940000
vt 0.195000 0.940000
vt 0.195000 1.160000
vt 0.325000 1.160000
vt 0.325000 0.940000
vt 0.195000 1.037500
vt 0.325000 1.037500
vt 0.325000 1.007500
vt 0.195000 1.007500
vt 0.355000 0.940000
vt 0.355000 1.160000
vt 0.485000 1.160000
vt 0.485000 0.940000
vt 0.355000 1.037500
vt 0.485000 1.037500
vt 0.485000 1.007500
vt 0.355000 1.007500
vt 0.515000 0.940000
vt 0.515000 1.160000
vt 0.645000 1.160000
vt 0.645000 0.940000
vt 0.515000 1.037500
vt 0.645000 1.037500
vt 0.645000 1.007500
vt 0.515000 1.007500
vt 0.675000 0.940000
vt 0.675000 1.160000
vt 0.805000 1.160000
vt 0.805000 0.940000
vt 0.675000 1.037500
vt 0.805000 1.037500
vt 0.805000 1.007500
vt 0.675000 1.007500
vt 1.007500 0.640000
vt 1.007500 0.860000
vt 1.037500 0.860000
vt 1.037500 0.640000
vt 0.195000 0.640000
vt 0.195000 0.860000
vt 0.325000 0.860000
vt 0.325000 0.640000
vt 0.355000 0.640000
vt 0.355000 0.860000
vt 0.485000 0.860000
vt 0.485000 0.640000
vt 0.515000 0.640000
vt 0.515000 0.860000
vt 0.645000 0.860000
vt 0.645000 0.640000
vt 0.675000 0.640000
vt 0.675000 0.860000
vt 0.805000 0.860000
vt 0.805000 0.640000
vt 1.007500 0.340000
vt 1.007500 0.560000
vt 1.037500 0.560000
vt 1.037500 0.340000
vt 0.195000 0.340000
vt 0.195000 0.560000
vt 0.325000 0.560000
vt 0.325000 0.340000
vt 0.355000 0.340000
vt 0.355000 0.560000
vt 0.485000 0.560000
vt 0.485000 0.340000
vt 0.515000 0.340000
vt 0.515000 0.560000
vt 0.645000 0.560000
vt 0.645000 0.340000
vt 0.675000 0.340000
vt 0.675000 0.560000
vt 0.805000 0.560000
vt 0.805000 0.340000
vt 1.027500 0.300000
vt 1.027500 1.200000
vt 1.057500 1.200000
vt 1.057500 0.300000
vt 0.170000 0.300000
vt 0.170000 1.200000
vt 0.830000 1.200000
vt 0.830000 0.300000
vt 0.170000 1.057500
vt 0.830000 1.057500
vt 0.830000 1.027500
vt 0.170000 1.027500
vt 0.922500 -0.310000
vt 0.922500 -0.150000
vt 1.022500 -0.150000
vt 1.022500 -0.310000
vt 0.250000 -0.310000
vt 0.250000 -0.150000
vt 0.750000 -0.150000
vt 0.750000 -0.310000
vt 0.250000 1.022500
vt 0.750000 1.022500
vt 0.750000 0.922500
vt 0.250000 0.922500
vt 0.992500 -0.050000
vt 0.992500 0.350000
vt 1.032500 0.350000
vt 1.032500 -0.050000
vt 0.730000 -0.050000
vt 0.730000 0.350000
vt 0.830000 0.350000
vt 0.830000 -0.050000
vt 0.730000 1.032500
vt 0.830000 1.032500
vt 0.830000 0.992500
vt 0.730000 0.992500
s 0
usemtl SURF_Steel_Sign
f 1/1/1 2/2/1 4/3/1 3/4/1
f 3/5/2 4/6/2 8/7/2 7/8/2
f 7/4/3 8/3/3 6/2/3 5/1/3
f 5/8/4 6/7/4 2/6/4 1/5/4
f 3/9/5 7/10/5 5/11/5 1/12/5
f 8/10/6 4/9/6 2/12/6 6/11/6
usemtl SURF_Emissive_Screen
f 9/13/1 10/14/1 12/15/1 11/16/1
f 11/17/2 12/18/2 16/19/2 15/20/2
f 15/16/3 16/15/3 14/14/3 13/13/3
f 13/20/4 14/19/4 10/18/4 9/17/4
f 11/21/5 15/22/5 13/23/5 9/24/5
f 16/22/6 12/21/6 10/24/6 14/23/6
f 33/25/1 34/26/1 36/27/1 35/28/1
f 35/45/2 36/46/2 40/47/2 39/48/2
f 39/28/3 40/27/3 38/26/3 37/25/3
f 37/48/4 38/47/4 34/46/4 33/45/4
f 35/49/5 39/50/5 37/51/5 33/52/5
f 40/50/6 36/49/6 34/52/6 38/51/6
f 65/61/1 66/62/1 68/63/1 67/64/1
f 67/73/2 68/74/2 72/75/2 71/76/2
f 71/64/3 72/63/3 70/62/3 69/61/3
f 69/76/4 70/75/4 66/74/4 65/73/4
f 67/49/5 71/50/5 69/51/5 65/52/5
f 72/50/6 68/49/6 66/52/6 70/51/6
f 97/81/1 98/82/1 100/83/1 99/84/1
f 99/93/2 100/94/2 104/95/2 103/96/2
f 103/84/3 104/83/3 102/82/3 101/81/3
f 101/96/4 102/95/4 98/94/4 97/93/4
f 99/49/5 103/50/5 101/51/5 97/52/5
f 104/50/6 100/49/6 98/52/6 102/51/6
usemtl SURF_Crimson_Core
f 17/25/1 18/26/1 20/27/1 19/28/1
f 19/29/2 20/30/2 24/31/2 23/32/2
f 23/28/3 24/27/3 22/26/3 21/25/3
f 21/32/4 22/31/4 18/30/4 17/29/4
f 19/33/5 23/34/5 21/35/5 17/36/5
f 24/34/6 20/33/6 18/36/6 22/35/6
f 49/61/1 50/62/1 52/63/1 51/64/1
f 51/65/2 52/66/2 56/67/2 55/68/2
f 55/64/3 56/63/3 54/62/3 53/61/3
f 53/68/4 54/67/4 50/66/4 49/65/4
f 51/33/5 55/34/5 53/35/5 49/36/5
f 56/34/6 52/33/6 50/36/6 54/35/6
f 81/81/1 82/82/1 84/83/1 83/84/1
f 83/85/2 84/86/2 88/87/2 87/88/2
f 87/84/3 88/83/3 86/82/3 85/81/3
f 85/88/4 86/87/4 82/86/4 81/85/4
f 83/33/5 87/34/5 85/35/5 81/36/5
f 88/34/6 84/33/6 82/36/6 86/35/6
f 129/125/1 130/126/1 132/127/1 131/128/1
f 131/129/2 132/130/2 136/131/2 135/132/2
f 135/128/3 136/127/3 134/126/3 133/125/3
f 133/132/4 134/131/4 130/130/4 129/129/4
f 131/133/5 135/134/5 133/135/5 129/136/5
f 136/134/6 132/133/6 130/136/6 134/135/6
usemtl SURF_Neon_Glow
f 25/25/1 26/26/1 28/27/1 27/28/1
f 27/37/2 28/38/2 32/39/2 31/40/2
f 31/28/3 32/27/3 30/26/3 29/25/3
f 29/40/4 30/39/4 26/38/4 25/37/4
f 27/41/5 31/42/5 29/43/5 25/44/5
f 32/42/6 28/41/6 26/44/6 30/43/6
f 57/61/1 58/62/1 60/63/1 59/64/1
f 59/69/2 60/70/2 64/71/2 63/72/2
f 63/64/3 64/63/3 62/62/3 61/61/3
f 61/72/4 62/71/4 58/70/4 57/69/4
f 59/41/5 63/42/5 61/43/5 57/44/5
f 64/42/6 60/41/6 58/44/6 62/43/6
f 89/81/1 90/82/1 92/83/1 91/84/1
f 91/89/2 92/90/2 96/91/2 95/92/2
f 95/84/3 96/83/3 94/82/3 93/81/3
f 93/92/4 94/91/4 90/90/4 89/89/4
f 91/41/5 95/42/5 93/43/5 89/44/5
f 96/42/6 92/41/6 90/44/6 94/43/6
usemtl SURF_Plastic_Matte
f 41/25/1 42/26/1 44/27/1 43/28/1
f 43/53/2 44/54/2 48/55/2 47/56/2
f 47/28/3 48/27/3 46/26/3 45/25/3
f 45/56/4 46/55/4 42/54/4 41/53/4
f 43/57/5 47/58/5 45/59/5 41/60/5
f 48/58/6 44/57/6 42/60/6 46/59/6
f 73/61/1 74/62/1 76/63/1 75/64/1
f 75/77/2 76/78/2 80/79/2 79/80/2
f 79/64/3 80/63/3 78/62/3 77/61/3
f 77/80/4 78/79/4 74/78/4 73/77/4
f 75/57/5 79/58/5 77/59/5 73/60/5
f 80/58/6 76/57/6 74/60/6 78/59/6
f 105/81/1 106/82/1 108/83/1 107/84/1
f 107/97/2 108/98/2 112/99/2 111/100/2
f 111/84/3 112/83/3 110/82/3 109/81/3
f 109/100/4 110/99/4 106/98/4 105/97/4
f 107/57/5 111/58/5 109/59/5 105/60/5
f 112/58/6 108/57/6 106/60/6 110/59/6
usemtl SURF_Glass_Std
f 113/101/1 114/102/1 116/103/1 115/104/1
f 115/105/2 116/106/2 120/107/2 119/108/2
f 119/104/3 120/103/3 118/102/3 117/101/3
f 117/108/4 118/107/4 114/106/4 113/105/4
f 115/109/5 119/110/5 117/111/5 113/112/5
f 120/110/6 116/109/6 114/112/6 118/111/6
usemtl SURF_Metal_Lamp
f 121/113/1 122/114/1 124/115/1 123/116/1
f 123/117/2 124/118/2 128/119/2 127/120/2
f 127/116/3 128/115/3 126/114/3 125/113/3
f 125/120/4 126/119/4 122/118/4 121/117/4
f 123/121/5 127/122/5 125/123/5 121/124/5
f 128/122/6 124/121/6 122/124/6 126/123/6
