# Blender 5.2.0 LTS
# www.blender.org
mtllib SM_K_Bollard.mtl
o SM_K_Bollard
v 0.000000 -0.450000 -0.100000
v 0.000000 0.450000 -0.100000
v 0.050000 -0.450000 -0.086603
v 0.050000 0.450000 -0.086603
v 0.086603 -0.450000 -0.050000
v 0.086603 0.450000 -0.050000
v 0.100000 -0.450000 0.000000
v 0.100000 0.450000 0.000000
v 0.086603 -0.450000 0.050000
v 0.086603 0.450000 0.050000
v 0.050000 -0.450000 0.086603
v 0.050000 0.450000 0.086603
v 0.000000 -0.450000 0.100000
v 0.000000 0.450000 0.100000
v -0.050000 -0.450000 0.086603
v -0.050000 0.450000 0.086603
v -0.086603 -0.450000 0.050000
v -0.086603 0.450000 0.050000
v -0.100000 -0.450000 0.000000
v -0.100000 0.450000 0.000000
v -0.086603 -0.450000 -0.050000
v -0.086603 0.450000 -0.050000
v -0.050000 -0.450000 -0.086603
v -0.050000 0.450000 -0.086603
v -0.110000 0.250000 0.110000
v -0.110000 0.350000 0.110000
v -0.110000 0.250000 -0.110000
v -0.110000 0.350000 -0.110000
v 0.110000 0.250000 0.110000
v 0.110000 0.350000 0.110000
v 0.110000 0.250000 -0.110000
v 0.110000 0.350000 -0.110000
v 0.000000 0.450000 -0.100000
v 0.000000 0.530000 -0.100000
v 0.050000 0.450000 -0.086603
v 0.050000 0.530000 -0.086603
v 0.086603 0.450000 -0.050000
v 0.086603 0.530000 -0.050000
v 0.100000 0.450000 0.000000
v 0.100000 0.530000 0.000000
v 0.086603 0.450000 0.050000
v 0.086603 0.530000 0.050000
v 0.050000 0.450000 0.086603
v 0.050000 0.530000 0.086603
v 0.000000 0.450000 0.100000
v 0.000000 0.530000 0.100000
v -0.050000 0.450000 0.086603
v -0.050000 0.530000 0.086603
v -0.086603 0.450000 0.050000
v -0.086603 0.530000 0.050000
v -0.100000 0.450000 0.000000
v -0.100000 0.530000 0.000000
v -0.086603 0.450000 -0.050000
v -0.086603 0.530000 -0.050000
v -0.050000 0.450000 -0.086603
v -0.050000 0.530000 -0.086603
vn 0.2588 -0.0000 -0.9659
vn 0.7071 -0.0000 -0.7071
vn 0.9659 -0.0000 -0.2588
vn 0.9659 -0.0000 0.2588
vn 0.7071 -0.0000 0.7071
vn 0.2588 -0.0000 0.9659
vn -0.2588 -0.0000 0.9659
vn -0.7071 -0.0000 0.7071
vn -0.9659 -0.0000 0.2588
vn -0.9659 -0.0000 -0.2588
vn -0.0000 1.0000 -0.0000
vn -0.7071 -0.0000 -0.7071
vn -0.2588 -0.0000 -0.9659
vn -0.0000 -1.0000 -0.0000
vn -1.0000 -0.0000 -0.0000
vn -0.0000 -0.0000 -1.0000
vn 1.0000 -0.0000 -0.0000
vn -0.0000 -0.0000 1.0000
vt 0.500000 0.010000
vt 0.500000 0.910000
vt 0.550000 0.910000
vt 0.550000 0.010000
vt 0.586603 0.910000
vt 0.586603 0.010000
vt 0.450000 0.910000
vt 0.450000 0.010000
vt 0.413397 0.910000
vt 0.413397 0.010000
vt 0.550000 0.586603
vt 0.500000 0.600000
vt 0.450000 0.586603
vt 0.413397 0.550000
vt 0.400000 0.500000
vt 0.413397 0.450000
vt 0.450000 0.413397
vt 0.500000 0.400000
vt 0.550000 0.413397
vt 0.586603 0.450000
vt 0.600000 0.500000
vt 0.586603 0.550000
vt 0.390000 0.710000
vt 0.390000 0.810000
vt 0.610000 0.810000
vt 0.610000 0.710000
vt 0.390000 0.610000
vt 0.610000 0.610000
vt 0.610000 0.390000
vt 0.390000 0.390000
vt 0.500000 0.990000
vt 0.550000 0.990000
vt 0.586603 0.990000
vt 0.450000 0.990000
vt 0.413397 0.990000
s 0
usemtl SURF_Metal_Lamp
f 1/1/1 2/2/1 4/3/1 3/4/1
f 3/4/2 4/3/2 6/5/2 5/6/2
f 5/4/3 6/3/3 8/2/3 7/1/3
f 7/1/4 8/2/4 10/7/4 9/8/4
f 9/6/5 10/5/5 12/3/5 11/4/5
f 11/4/6 12/3/6 14/2/6 13/1/6
f 13/1/7 14/2/7 16/7/7 15/8/7
f 15/8/8 16/7/8 18/9/8 17/10/8
f 17/8/9 18/7/9 20/2/9 19/1/9
f 19/1/10 20/2/10 22/3/10 21/4/10
f 4/11/11 2/12/11 24/13/11 22/14/11 20/15/11 18/16/11 16/17/11 14/18/11 12/19/11 10/20/11 8/21/11 6/22/11
f 21/10/12 22/9/12 24/7/12 23/8/12
f 23/8/13 24/7/13 2/2/13 1/1/13
f 1/12/14 3/11/14 5/22/14 7/21/14 9/20/14 11/19/14 13/18/14 15/17/14 17/16/14 19/15/14 21/14/14 23/13/14
f 33/2/1 34/31/1 36/32/1 35/3/1
f 35/3/2 36/32/2 38/33/2 37/5/2
f 37/3/3 38/32/3 40/31/3 39/2/3
f 39/2/4 40/31/4 42/34/4 41/7/4
f 41/5/5 42/33/5 44/32/5 43/3/5
f 43/3/6 44/32/6 46/31/6 45/2/6
f 45/2/7 46/31/7 48/34/7 47/7/7
f 47/7/8 48/34/8 50/35/8 49/9/8
f 49/7/9 50/34/9 52/31/9 51/2/9
f 51/2/10 52/31/10 54/32/10 53/3/10
f 36/11/11 34/12/11 56/13/11 54/14/11 52/15/11 50/16/11 48/17/11 46/18/11 44/19/11 42/20/11 40/21/11 38/22/11
f 53/9/12 54/35/12 56/34/12 55/7/12
f 55/7/13 56/34/13 34/31/13 33/2/13
f 33/12/14 35/11/14 37/22/14 39/21/14 41/20/14 43/19/14 45/18/14 47/17/14 49/16/14 51/15/14 53/14/14 55/13/14
usemtl SURF_Emissive_Screen
f 25/23/15 26/24/15 28/25/15 27/26/15
f 27/23/16 28/24/16 32/25/16 31/26/16
f 31/26/17 32/25/17 30/24/17 29/23/17
f 29/26/18 30/25/18 26/24/18 25/23/18
f 27/27/14 31/28/14 29/29/14 25/30/14
f 32/28/11 28/27/11 26/30/11 30/29/11
