# Blender 5.2.0 LTS
# www.blender.org
mtllib SM_K_Hedge.mtl
o SM_K_Hedge
v -0.925000 0.000000 0.375000
v -0.925000 0.080000 0.375000
v -0.925000 0.000000 -0.375000
v -0.925000 0.080000 -0.375000
v 0.925000 0.000000 0.375000
v 0.925000 0.080000 0.375000
v 0.925000 0.000000 -0.375000
v 0.925000 0.080000 -0.375000
v -0.800000 0.080000 0.250000
v -0.800000 0.180000 0.350000
v -0.900000 0.180000 0.250000
v -0.800000 0.680000 0.350000
v -0.800000 0.780000 0.250000
v -0.900000 0.680000 0.250000
v -0.800000 0.080000 -0.250000
v -0.900000 0.180000 -0.250000
v -0.800000 0.180000 -0.350000
v -0.800000 0.780000 -0.250000
v -0.800000 0.680000 -0.350000
v -0.900000 0.680000 -0.250000
v 0.800000 0.080000 0.250000
v 0.900000 0.180000 0.250000
v 0.800000 0.180000 0.350000
v 0.800000 0.780000 0.250000
v 0.800000 0.680000 0.350000
v 0.900000 0.680000 0.250000
v 0.800000 0.080000 -0.250000
v 0.800000 0.180000 -0.350000
v 0.900000 0.180000 -0.250000
v 0.800000 0.780000 -0.250000
v 0.900000 0.680000 -0.250000
v 0.800000 0.680000 -0.350000
vn -1.0000 -0.0000 -0.0000
vn -0.0000 -0.0000 -1.0000
vn 1.0000 -0.0000 -0.0000
vn -0.0000 -0.0000 1.0000
vn -0.0000 -1.0000 -0.0000
vn -0.0000 1.0000 -0.0000
vn -0.5774 -0.5774 0.5774
vn -0.5774 0.5774 0.5774
vn -0.5774 -0.5774 -0.5774
vn -0.5774 0.5774 -0.5774
vn 0.5773 -0.5774 0.5774
vn 0.5774 0.5774 0.5774
vn 0.5773 -0.5774 -0.5774
vn 0.5774 0.5774 -0.5774
vn -0.7071 -0.7071 -0.0000
vn -0.7071 -0.0000 0.7071
vn -0.7071 0.7071 -0.0000
vn -0.7071 -0.0000 -0.7071
vn -0.0000 -0.7071 -0.7071
vn -0.0000 0.7071 -0.7071
vn 0.7071 -0.0000 -0.7071
vn 0.7071 -0.7071 -0.0000
vn 0.7071 0.7071 -0.0000
vn 0.7071 -0.0000 0.7071
vn -0.0000 -0.7071 0.7071
vn -0.0000 0.7071 0.7071
vt 0.125000 0.110000
vt 0.125000 0.190000
vt 0.875000 0.190000
vt 0.875000 0.110000
vt -0.425000 0.110000
vt -0.425000 0.190000
vt 1.425000 0.190000
vt 1.425000 0.110000
vt -0.425000 0.875000
vt 1.425000 0.875000
vt 1.425000 0.125000
vt -0.425000 0.125000
vt -0.300000 0.250000
vt -0.300000 0.150000
vt -0.400000 0.250000
vt -0.300000 0.790000
vt -0.300000 0.890000
vt -0.400000 0.790000
vt -0.300000 0.750000
vt -0.400000 0.750000
vt -0.300000 0.850000
vt 1.300000 0.250000
vt 1.400000 0.250000
vt 1.300000 0.150000
vt 1.300000 0.890000
vt 1.300000 0.790000
vt 1.400000 0.790000
vt 1.300000 0.750000
vt 1.300000 0.850000
vt 1.400000 0.750000
vt -0.300000 0.290000
vt -0.400000 0.290000
vt 1.400000 0.290000
vt 1.300000 0.290000
vt 0.250000 0.290000
vt 0.250000 0.790000
vt 0.750000 0.790000
vt 0.750000 0.290000
s 0
usemtl SURF_Wood_Dark
f 1/1/1 2/2/1 4/3/1 3/4/1
f 3/5/2 4/6/2 8/7/2 7/8/2
f 7/4/3 8/3/3 6/2/3 5/1/3
f 5/8/4 6/7/4 2/6/4 1/5/4
f 3/9/5 7/10/5 5/11/5 1/12/5
f 8/10/6 4/9/6 2/12/6 6/11/6
usemtl SURF_Foliage_Plant
f 9/13/7 10/14/7 11/15/7
f 12/16/8 13/17/8 14/18/8
f 15/19/9 16/20/9 17/21/9
f 18/17/10 19/16/10 20/18/10
f 21/22/11 22/23/11 23/24/11
f 24/25/12 25/26/12 26/27/12
f 27/28/13 28/29/13 29/30/13
f 30/25/14 31/27/14 32/26/14
f 15/19/15 9/13/15 11/15/15 16/20/15
f 10/31/16 12/16/16 14/18/16 11/32/16
f 13/13/17 18/19/17 20/20/17 14/15/17
f 19/16/18 17/31/18 16/32/18 20/18/18
f 27/28/19 15/19/19 17/21/19 28/29/19
f 18/17/20 30/25/20 32/26/20 19/16/20
f 31/27/21 29/33/21 28/34/21 32/26/21
f 21/22/22 27/28/22 29/30/22 22/23/22
f 30/28/23 24/22/23 26/23/23 31/30/23
f 25/26/24 23/34/24 22/33/24 26/27/24
f 9/13/25 21/22/25 23/24/25 10/14/25
f 24/25/26 13/17/26 12/16/26 25/26/26
f 15/19/5 27/28/5 21/22/5 9/13/5
f 11/35/1 14/36/1 20/37/1 16/38/1
f 23/34/4 25/26/4 12/16/4 10/31/4
f 30/28/6 18/19/6 13/13/6 24/22/6
f 17/31/2 19/16/2 32/26/2 28/34/2
f 29/38/3 31/37/3 26/36/3 22/35/3
