# Blender 5.2.0 LTS
# www.blender.org
mtllib SM_K_PlanterBush.mtl
o SM_K_PlanterBush
v -0.350000 0.000000 0.350000
v -0.350000 0.550000 0.350000
v -0.350000 0.000000 -0.350000
v -0.350000 0.550000 -0.350000
v 0.350000 0.000000 0.350000
v 0.350000 0.550000 0.350000
v 0.350000 0.000000 -0.350000
v 0.350000 0.550000 -0.350000
v -0.300000 0.550000 0.300000
v -0.300000 1.050000 0.300000
v -0.300000 0.550000 -0.300000
v -0.300000 1.050000 -0.300000
v 0.300000 0.550000 0.300000
v 0.300000 1.050000 0.300000
v 0.300000 0.550000 -0.300000
v 0.300000 1.050000 -0.300000
vn -1.0000 -0.0000 -0.0000
vn -0.0000 -0.0000 -1.0000
vn 1.0000 -0.0000 -0.0000
vn -0.0000 -0.0000 1.0000
vn -0.0000 -1.0000 -0.0000
vn -0.0000 1.0000 -0.0000
vt 0.150000 -0.025000
vt 0.150000 0.525000
vt 0.850000 0.525000
vt 0.850000 -0.025000
vt 0.150000 0.850000
vt 0.850000 0.850000
vt 0.850000 0.150000
vt 0.150000 0.150000
vt 0.200000 0.525000
vt 0.200000 1.025000
vt 0.800000 1.025000
vt 0.800000 0.525000
vt 0.200000 0.800000
vt 0.800000 0.800000
vt 0.800000 0.200000
vt 0.200000 0.200000
s 0
usemtl SURF_Concrete_Struct
f 1/1/1 2/2/1 4/3/1 3/4/1
f 3/1/2 4/2/2 8/3/2 7/4/2
f 7/4/3 8/3/3 6/2/3 5/1/3
f 5/4/4 6/3/4 2/2/4 1/1/4
f 3/5/5 7/6/5 5/7/5 1/8/5
f 8/6/6 4/5/6 2/8/6 6/7/6
usemtl SURF_Foliage_Plant
f 9/9/1 10/10/1 12/11/1 11/12/1
f 11/9/2 12/10/2 16/11/2 15/12/2
f 15/12/3 16/11/3 14/10/3 13/9/3
f 13/12/4 14/11/4 10/10/4 9/9/4
f 11/13/5 15/14/5 13/15/5 9/16/5
f 16/14/6 12/13/6 10/16/6 14/15/6
