# Blender 5.2.0 LTS
# www.blender.org
mtllib SM_K_ACUnit.mtl
o SM_K_ACUnit
v -0.400000 0.000000 0.210000
v -0.400000 0.550000 0.210000
v -0.400000 0.000000 -0.210000
v -0.400000 0.550000 -0.210000
v 0.400000 0.000000 0.210000
v 0.400000 0.550000 0.210000
v 0.400000 0.000000 -0.210000
v 0.400000 0.550000 -0.210000
v 0.000000 0.480000 -0.235000
v 0.000000 0.480000 -0.185000
v 0.068883 0.466298 -0.235000
v 0.068883 0.466298 -0.185000
v 0.127279 0.427279 -0.235000
v 0.127279 0.427279 -0.185000
v 0.166298 0.368883 -0.235000
v 0.166298 0.368883 -0.185000
v 0.180000 0.300000 -0.235000
v 0.180000 0.300000 -0.185000
v 0.166298 0.231117 -0.235000
v 0.166298 0.231117 -0.185000
v 0.127279 0.172721 -0.235000
v 0.127279 0.172721 -0.185000
v 0.068883 0.133702 -0.235000
v 0.068883 0.133702 -0.185000
v 0.000000 0.120000 -0.235000
v 0.000000 0.120000 -0.185000
v -0.068883 0.133702 -0.235000
v -0.068883 0.133702 -0.185000
v -0.127279 0.172721 -0.235000
v -0.127279 0.172721 -0.185000
v -0.166298 0.231117 -0.235000
v -0.166298 0.231117 -0.185000
v -0.180000 0.300000 -0.235000
v -0.180000 0.300000 -0.185000
v -0.166298 0.368883 -0.235000
v -0.166298 0.368883 -0.185000
v -0.127279 0.427279 -0.235000
v -0.127279 0.427279 -0.185000
v -0.068883 0.466298 -0.235000
v -0.068883 0.466298 -0.185000
v -0.310000 0.095000 -0.210000
v -0.310000 0.125000 -0.210000
v -0.310000 0.095000 -0.230000
v -0.310000 0.125000 -0.230000
v 0.310000 0.095000 -0.210000
v 0.310000 0.125000 -0.210000
v 0.310000 0.095000 -0.230000
v 0.310000 0.125000 -0.230000
v -0.310000 0.205000 -0.210000
v -0.310000 0.235000 -0.210000
v -0.310000 0.205000 -0.230000
v -0.310000 0.235000 -0.230000
v 0.310000 0.205000 -0.210000
v 0.310000 0.235000 -0.210000
v 0.310000 0.205000 -0.230000
v 0.310000 0.235000 -0.230000
v -0.310000 0.315000 -0.210000
v -0.310000 0.345000 -0.210000
v -0.310000 0.315000 -0.230000
v -0.310000 0.345000 -0.230000
v 0.310000 0.315000 -0.210000
v 0.310000 0.345000 -0.210000
v 0.310000 0.315000 -0.230000
v 0.310000 0.345000 -0.230000
v -0.310000 0.425000 -0.210000
v -0.310000 0.455000 -0.210000
v -0.310000 0.425000 -0.230000
v -0.310000 0.455000 -0.230000
v 0.310000 0.425000 -0.210000
v 0.310000 0.455000 -0.210000
v 0.310000 0.425000 -0.230000
v 0.310000 0.455000 -0.230000
vn -1.0000 -0.0000 -0.0000
vn -0.0000 -0.0000 -1.0000
vn 1.0000 -0.0000 -0.0000
vn -0.0000 -0.0000 1.0000
vn -0.0000 -1.0000 -0.0000
vn -0.0000 1.0000 -0.0000
vn 0.1951 0.9808 -0.0000
vn 0.5556 0.8315 -0.0000
vn 0.8315 0.5556 -0.0000
vn 0.9808 0.1951 -0.0000
vn 0.9808 -0.1951 -0.0000
vn 0.8315 -0.5556 -0.0000
vn 0.5556 -0.8315 -0.0000
vn 0.1951 -0.9808 -0.0000
vn -0.1951 -0.9808 -0.0000
vn -0.5556 -0.8315 -0.0000
vn -0.8315 -0.5556 -0.0000
vn -0.9808 -0.1951 -0.0000
vn -0.9808 0.1951 -0.0000
vn -0.8315 0.5556 -0.0000
vn -0.5556 0.8315 -0.0000
vn -0.1951 0.9808 -0.0000
vt 0.277500 0.225000
vt 0.277500 0.775000
vt 0.697500 0.775000
vt 0.697500 0.225000
vt 0.100000 0.225000
vt 0.100000 0.775000
vt 0.900000 0.775000
vt 0.900000 0.225000
vt 0.100000 0.697500
vt 0.900000 0.697500
vt 0.900000 0.277500
vt 0.100000 0.277500
vt 0.500000 0.722500
vt 0.500000 0.672500
vt 0.568883 0.672500
vt 0.568883 0.722500
vt 0.627279 0.672500
vt 0.627279 0.722500
vt 0.722500 0.652279
vt 0.672500 0.652279
vt 0.672500 0.593883
vt 0.722500 0.593883
vt 0.672500 0.525000
vt 0.722500 0.525000
vt 0.672500 0.456117
vt 0.722500 0.456117
vt 0.672500 0.397721
vt 0.722500 0.397721
vt 0.431117 0.672500
vt 0.431117 0.722500
vt 0.372721 0.672500
vt 0.372721 0.722500
vt 0.568883 0.691298
vt 0.500000 0.705000
vt 0.431117 0.691298
vt 0.372721 0.652279
vt 0.333702 0.593883
vt 0.320000 0.525000
vt 0.333702 0.456117
vt 0.372721 0.397721
vt 0.431117 0.358702
vt 0.500000 0.345000
vt 0.568883 0.358702
vt 0.627279 0.397721
vt 0.666298 0.456117
vt 0.680000 0.525000
vt 0.666298 0.593883
vt 0.627279 0.652279
vt 0.697500 0.320000
vt 0.697500 0.350000
vt 0.717500 0.350000
vt 0.717500 0.320000
vt 0.190000 0.320000
vt 0.190000 0.350000
vt 0.810000 0.350000
vt 0.810000 0.320000
vt 0.190000 0.717500
vt 0.810000 0.717500
vt 0.810000 0.697500
vt 0.190000 0.697500
vt 0.697500 0.430000
vt 0.697500 0.460000
vt 0.717500 0.460000
vt 0.717500 0.430000
vt 0.190000 0.430000
vt 0.190000 0.460000
vt 0.810000 0.460000
vt 0.810000 0.430000
vt 0.697500 0.540000
vt 0.697500 0.570000
vt 0.717500 0.570000
vt 0.717500 0.540000
vt 0.190000 0.540000
vt 0.190000 0.570000
vt 0.810000 0.570000
vt 0.810000 0.540000
vt 0.697500 0.650000
vt 0.697500 0.680000
vt 0.717500 0.680000
vt 0.717500 0.650000
vt 0.190000 0.650000
vt 0.190000 0.680000
vt 0.810000 0.680000
vt 0.810000 0.650000
s 0
usemtl SURF_Metal_Fence
f 1/1/1 2/2/1 4/3/1 3/4/1
f 3/5/2 4/6/2 8/7/2 7/8/2
f 7/4/3 8/3/3 6/2/3 5/1/3
f 5/8/4 6/7/4 2/6/4 1/5/4
f 3/9/5 7/10/5 5/11/5 1/12/5
f 8/10/6 4/9/6 2/12/6 6/11/6
usemtl SURF_Metal_Lamp
f 9/13/7 10/14/7 12/15/7 11/16/7
f 11/16/8 12/15/8 14/17/8 13/18/8
f 13/19/9 14/20/9 16/21/9 15/22/9
f 15/22/10 16/21/10 18/23/10 17/24/10
f 17/24/11 18/23/11 20/25/11 19/26/11
f 19/26/12 20/25/12 22/27/12 21/28/12
f 21/18/13 22/17/13 24/15/13 23/16/13
f 23/16/14 24/15/14 26/14/14 25/13/14
f 25/13/15 26/14/15 28/29/15 27/30/15
f 27/30/16 28/29/16 30/31/16 29/32/16
f 29/28/17 30/27/17 32/25/17 31/26/17
f 31/26/18 32/25/18 34/23/18 33/24/18
f 33/24/19 34/23/19 36/21/19 35/22/19
f 35/22/20 36/21/20 38/20/20 37/19/20
f 12/33/4 10/34/4 40/35/4 38/36/4 36/37/4 34/38/4 32/39/4 30/40/4 28/41/4 26/42/4 24/43/4 22/44/4 20/45/4 18/46/4 16/47/4 14/48/4
f 37/32/21 38/31/21 40/29/21 39/30/21
f 39/30/22 40/29/22 10/14/22 9/13/22
f 9/34/2 11/33/2 13/48/2 15/47/2 17/46/2 19/45/2 21/44/2 23/43/2 25/42/2 27/41/2 29/40/2 31/39/2 33/38/2 35/37/2 37/36/2 39/35/2
usemtl SURF_Steel_Sign
f 41/49/1 42/50/1 44/51/1 43/52/1
f 43/53/2 44/54/2 48/55/2 47/56/2
f 47/52/3 48/51/3 46/50/3 45/49/3
f 45/56/4 46/55/4 42/54/4 41/53/4
f 43/57/5 47/58/5 45/59/5 41/60/5
f 48/58/6 44/57/6 42/60/6 46/59/6
f 49/61/1 50/62/1 52/63/1 51/64/1
f 51/65/2 52/66/2 56/67/2 55/68/2
f 55/64/3 56/63/3 54/62/3 53/61/3
f 53/68/4 54/67/4 50/66/4 49/65/4
f 51/57/5 55/58/5 53/59/5 49/60/5
f 56/58/6 52/57/6 50/60/6 54/59/6
f 57/69/1 58/70/1 60/71/1 59/72/1
f 59/73/2 60/74/2 64/75/2 63/76/2
f 63/72/3 64/71/3 62/70/3 61/69/3
f 61/76/4 62/75/4 58/74/4 57/73/4
f 59/57/5 63/58/5 61/59/5 57/60/5
f 64/58/6 60/57/6 58/60/6 62/59/6
f 65/77/1 66/78/1 68/79/1 67/80/1
f 67/81/2 68/82/2 72/83/2 71/84/2
f 71/80/3 72/79/3 70/78/3 69/77/3
f 69/84/4 70/83/4 66/82/4 65/81/4
f 67/57/5 71/58/5 69/59/5 65/60/5
f 72/58/6 68/57/6 66/60/6 70/59/6
