# Blender 5.2.0 LTS
# www.blender.org
mtllib SM_K_RoadSign.mtl
o SM_K_RoadSign
v 0.000000 -1.100000 -0.050000
v 0.000000 1.100000 -0.050000
v 0.029389 -1.100000 -0.040451
v 0.029389 1.100000 -0.040451
v 0.047553 -1.100000 -0.015451
v 0.047553 1.100000 -0.015451
v 0.047553 -1.100000 0.015451
v 0.047553 1.100000 0.015451
v 0.029389 -1.100000 0.040451
v 0.029389 1.100000 0.040451
v 0.000000 -1.100000 0.050000
v 0.000000 1.100000 0.050000
v -0.029389 -1.100000 0.040451
v -0.029389 1.100000 0.040451
v -0.047553 -1.100000 0.015451
v -0.047553 1.100000 0.015451
v -0.047553 -1.100000 -0.015451
v -0.047553 1.100000 -0.015451
v -0.029389 -1.100000 -0.040451
v -0.029389 1.100000 -0.040451
v 0.848528 0.314214 0.000000
v 1.414214 0.879899 0.000000
v 0.848528 0.314214 -0.040000
v 1.414214 0.879899 -0.040000
v 1.414214 -0.251472 0.000000
v 1.979899 0.314214 0.000000
v 1.414214 -0.251472 -0.040000
v 1.979899 0.314214 -0.040000
v 0.919239 0.314213 0.045000
v 1.414213 0.809188 0.045000
v 0.919239 0.314213 -0.005000
v 1.414213 0.809188 -0.005000
v 1.414213 -0.180761 0.045000
v 1.909188 0.314213 0.045000
v 1.414213 -0.180761 -0.005000
v 1.909188 0.314213 -0.005000
vn 0.3090 -0.0000 -0.9511
vn 0.8090 -0.0000 -0.5878
vn 1.0000 -0.0000 -0.0000
vn 0.8090 -0.0000 0.5878
vn 0.3090 -0.0000 0.9511
vn -0.3090 -0.0000 0.9511
vn -0.8090 -0.0000 0.5878
vn -1.0000 -0.0000 -0.0000
vn -0.0000 1.0000 -0.0000
vn -0.8090 -0.0000 -0.5878
vn -0.3090 -0.0000 -0.9511
vn -0.0000 -1.0000 -0.0000
vn -0.7071 0.7071 -0.0000
vn -0.0000 -0.0000 -1.0000
vn 0.7071 -0.7071 -0.0000
vn -0.0000 -0.0000 1.0000
vn -0.7071 -0.7071 -0.0000
vn 0.7071 0.7071 -0.0000
vt -0.466173 -0.600000
vt -0.466173 1.600000
vt -0.436784 1.600000
vt -0.436784 -0.600000
vt 0.540451 -0.600000
vt 0.540451 1.600000
vt 0.515451 1.600000
vt 0.515451 -0.600000
vt 0.484549 1.600000
vt 0.484549 -0.600000
vt 0.459549 1.600000
vt 0.459549 -0.600000
vt -0.495562 1.600000
vt -0.495562 -0.600000
vt -0.436784 0.540451
vt -0.466173 0.550000
vt -0.495562 0.540451
vt -0.513726 0.515451
vt -0.513726 0.484549
vt -0.495562 0.459549
vt -0.466173 0.450000
vt -0.436784 0.459549
vt -0.418620 0.484549
vt -0.418620 0.515451
vt 0.382355 0.500000
vt 0.948040 0.500000
vt 0.948040 0.540000
vt 0.382355 0.540000
vt 0.382355 0.814214
vt 0.948040 1.379899
vt 1.513726 0.814214
vt 0.948041 0.248528
vt 0.948041 0.540000
vt 1.513726 0.540000
vt 1.513726 0.500000
vt 0.948041 0.500000
vt 0.455000 0.814213
vt 0.455000 1.309188
vt 0.505000 1.309188
vt 0.505000 0.814213
vt 0.453066 0.814213
vt 0.948040 1.309188
vt 1.443015 0.814213
vt 0.948040 0.319239
vt 0.948040 0.505000
vt 1.443015 0.505000
vt 1.443015 0.455000
vt 0.948040 0.455000
vt 0.453066 0.505000
vt 0.453066 0.455000
s 0
usemtl SURF_Metal_Lamp
f 1/1/1 2/2/1 4/3/1 3/4/1
f 3/5/2 4/6/2 6/7/2 5/8/2
f 5/8/3 6/7/3 8/9/3 7/10/3
f 7/10/4 8/9/4 10/11/4 9/12/4
f 9/4/5 10/3/5 12/2/5 11/1/5
f 11/1/6 12/2/6 14/13/6 13/14/6
f 13/12/7 14/11/7 16/9/7 15/10/7
f 15/10/8 16/9/8 18/7/8 17/8/8
f 4/15/9 2/16/9 20/17/9 18/18/9 16/19/9 14/20/9 12/21/9 10/22/9 8/23/9 6/24/9
f 17/8/10 18/7/10 20/6/10 19/5/10
f 19/14/11 20/13/11 2/2/11 1/1/11
f 1/16/12 3/15/12 5/24/12 7/23/12 9/22/12 11/21/12 13/20/12 15/19/12 17/18/12 19/17/12
usemtl SURF_Crimson_Core
f 21/25/13 22/26/13 24/27/13 23/28/13
f 23/29/14 24/30/14 28/31/14 27/32/14
f 27/33/15 28/34/15 26/35/15 25/36/15
f 25/32/16 26/31/16 22/30/16 21/29/16
f 23/28/17 27/33/17 25/36/17 21/25/17
f 28/34/18 24/27/18 22/26/18 26/35/18
usemtl SURF_Steel_Sign
f 29/37/13 30/38/13 32/39/13 31/40/13
f 31/41/14 32/42/14 36/43/14 35/44/14
f 35/45/15 36/46/15 34/47/15 33/48/15
f 33/44/16 34/43/16 30/42/16 29/41/16
f 31/49/17 35/45/17 33/48/17 29/50/17
f 36/46/18 32/45/18 30/48/18 34/47/18
