# Blender 5.2.0 LTS
# www.blender.org
mtllib SM_K_TrashBin.mtl
o SM_K_TrashBin
v 0.000000 -0.450000 -0.280000
v 0.000000 0.450000 -0.280000
v 0.121487 -0.450000 -0.252271
v 0.121487 0.450000 -0.252271
v 0.218913 -0.450000 -0.174577
v 0.218913 0.450000 -0.174577
v 0.272980 -0.450000 -0.062306
v 0.272980 0.450000 -0.062306
v 0.272980 -0.450000 0.062306
v 0.272980 0.450000 0.062306
v 0.218913 -0.450000 0.174577
v 0.218913 0.450000 0.174577
v 0.121487 -0.450000 0.252271
v 0.121487 0.450000 0.252271
v 0.000000 -0.450000 0.280000
v 0.000000 0.450000 0.280000
v -0.121487 -0.450000 0.252271
v -0.121487 0.450000 0.252271
v -0.218913 -0.450000 0.174577
v -0.218913 0.450000 0.174577
v -0.272980 -0.450000 0.062306
v -0.272980 0.450000 0.062306
v -0.272980 -0.450000 -0.062306
v -0.272980 0.450000 -0.062306
v -0.218913 -0.450000 -0.174577
v -0.218913 0.450000 -0.174577
v -0.121487 -0.450000 -0.252271
v -0.121487 0.450000 -0.252271
v 0.000000 0.450000 -0.300000
v 0.000000 0.550000 -0.300000
v 0.130165 0.450000 -0.270291
v 0.130165 0.550000 -0.270291
v 0.234549 0.450000 -0.187047
v 0.234549 0.550000 -0.187047
v 0.292478 0.450000 -0.066756
v 0.292478 0.550000 -0.066756
v 0.292478 0.450000 0.066756
v 0.292478 0.550000 0.066756
v 0.234549 0.450000 0.187047
v 0.234549 0.550000 0.187047
v 0.130165 0.450000 0.270291
v 0.130165 0.550000 0.270291
v 0.000000 0.450000 0.300000
v 0.000000 0.550000 0.300000
v -0.130165 0.450000 0.270291
v -0.130165 0.550000 0.270291
v -0.234549 0.450000 0.187047
v -0.234549 0.550000 0.187047
v -0.292478 0.450000 0.066756
v -0.292478 0.550000 0.066756
v -0.292478 0.450000 -0.066756
v -0.292478 0.550000 -0.066756
v -0.234549 0.450000 -0.187047
v -0.234549 0.550000 -0.187047
v -0.130165 0.450000 -0.270291
v -0.130165 0.550000 -0.270291
vn 0.2225 -0.0000 -0.9749
vn 0.6235 -0.0000 -0.7818
vn 0.9010 -0.0000 -0.4339
vn 1.0000 -0.0000 -0.0000
vn 0.9010 -0.0000 0.4339
vn 0.6235 -0.0000 0.7818
vn 0.2225 -0.0000 0.9749
vn -0.2225 -0.0000 0.9749
vn -0.6235 -0.0000 0.7818
vn -0.9010 -0.0000 0.4339
vn -1.0000 -0.0000 -0.0000
vn -0.9010 -0.0000 -0.4339
vn -0.0000 1.0000 -0.0000
vn -0.6235 -0.0000 -0.7818
vn -0.2225 -0.0000 -0.9749
vn -0.0000 -1.0000 -0.0000
vt 0.500000 0.000000
vt 0.500000 0.900000
vt 0.621487 0.900000
vt 0.621487 0.000000
vt 0.718913 0.900000
vt 0.718913 0.000000
vt 0.674577 0.000000
vt 0.674577 0.900000
vt 0.562306 0.900000
vt 0.562306 0.000000
vt 0.437694 0.900000
vt 0.437694 0.000000
vt 0.325423 0.900000
vt 0.325423 0.000000
vt 0.378513 0.900000
vt 0.378513 0.000000
vt 0.281087 0.900000
vt 0.281087 0.000000
vt 0.621487 0.752271
vt 0.500000 0.780000
vt 0.378513 0.752271
vt 0.281087 0.674577
vt 0.227020 0.562306
vt 0.227020 0.437694
vt 0.281087 0.325423
vt 0.378513 0.247729
vt 0.500000 0.220000
vt 0.621487 0.247729
vt 0.718913 0.325423
vt 0.772980 0.437694
vt 0.772980 0.562306
vt 0.718913 0.674577
vt 0.500000 1.000000
vt 0.630165 1.000000
vt 0.630165 0.900000
vt 0.734549 1.000000
vt 0.734549 0.900000
vt 0.687047 0.900000
vt 0.687047 1.000000
vt 0.566756 1.000000
vt 0.566756 0.900000
vt 0.433244 1.000000
vt 0.433244 0.900000
vt 0.312953 1.000000
vt 0.312953 0.900000
vt 0.369835 1.000000
vt 0.369835 0.900000
vt 0.265451 1.000000
vt 0.265451 0.900000
vt 0.630165 0.770291
vt 0.500000 0.800000
vt 0.369835 0.770291
vt 0.265451 0.687047
vt 0.207522 0.566756
vt 0.207522 0.433244
vt 0.265451 0.312953
vt 0.369835 0.229709
vt 0.500000 0.200000
vt 0.630165 0.229709
vt 0.734549 0.312953
vt 0.792478 0.433244
vt 0.792478 0.566756
vt 0.734549 0.687047
s 0
usemtl SURF_Metal_Fence
f 1/1/1 2/2/1 4/3/1 3/4/1
f 3/4/2 4/3/2 6/5/2 5/6/2
f 5/7/3 6/8/3 8/9/3 7/10/3
f 7/10/4 8/9/4 10/11/4 9/12/4
f 9/12/5 10/11/5 12/13/5 11/14/5
f 11/6/6 12/5/6 14/3/6 13/4/6
f 13/4/7 14/3/7 16/2/7 15/1/7
f 15/1/8 16/2/8 18/15/8 17/16/8
f 17/16/9 18/15/9 20/17/9 19/18/9
f 19/14/10 20/13/10 22/11/10 21/12/10
f 21/12/11 22/11/11 24/9/11 23/10/11
f 23/10/12 24/9/12 26/8/12 25/7/12
f 4/19/13 2/20/13 28/21/13 26/22/13 24/23/13 22/24/13 20/25/13 18/26/13 16/27/13 14/28/13 12/29/13 10/30/13 8/31/13 6/32/13
f 25/18/14 26/17/14 28/15/14 27/16/14
f 27/16/15 28/15/15 2/2/15 1/1/15
f 1/20/16 3/19/16 5/32/16 7/31/16 9/30/16 11/29/16 13/28/16 15/27/16 17/26/16 19/25/16 21/24/16 23/23/16 25/22/16 27/21/16
f 29/2/1 30/33/1 32/34/1 31/35/1
f 31/35/2 32/34/2 34/36/2 33/37/2
f 33/38/3 34/39/3 36/40/3 35/41/3
f 35/41/4 36/40/4 38/42/4 37/43/4
f 37/43/5 38/42/5 40/44/5 39/45/5
f 39/37/6 40/36/6 42/34/6 41/35/6
f 41/35/7 42/34/7 44/33/7 43/2/7
f 43/2/8 44/33/8 46/46/8 45/47/8
f 45/47/9 46/46/9 48/48/9 47/49/9
f 47/45/10 48/44/10 50/42/10 49/43/10
f 49/43/11 50/42/11 52/40/11 51/41/11
f 51/41/12 52/40/12 54/39/12 53/38/12
f 32/50/13 30/51/13 56/52/13 54/53/13 52/54/13 50/55/13 48/56/13 46/57/13 44/58/13 42/59/13 40/60/13 38/61/13 36/62/13 34/63/13
f 53/49/14 54/48/14 56/46/14 55/47/14
f 55/47/15 56/46/15 30/33/15 29/2/15
f 29/51/16 31/50/16 33/63/16 35/62/16 37/61/16 39/60/16 41/59/16 43/58/16 45/57/16 47/56/16 49/55/16 51/54/16 53/53/16 55/52/16
