# Blender 5.2.0 LTS
# www.blender.org
mtllib SM_K_Mailbox.mtl
o SM_K_Mailbox
v 0.000000 -0.500000 -0.050000
v 0.000000 0.500000 -0.050000
v 0.029389 -0.500000 -0.040451
v 0.029389 0.500000 -0.040451
v 0.047553 -0.500000 -0.015451
v 0.047553 0.500000 -0.015451
v 0.047553 -0.500000 0.015451
v 0.047553 0.500000 0.015451
v 0.029389 -0.500000 0.040451
v 0.029389 0.500000 0.040451
v 0.000000 -0.500000 0.050000
v 0.000000 0.500000 0.050000
v -0.029389 -0.500000 0.040451
v -0.029389 0.500000 0.040451
v -0.047553 -0.500000 0.015451
v -0.047553 0.500000 0.015451
v -0.047553 -0.500000 -0.015451
v -0.047553 0.500000 -0.015451
v -0.029389 -0.500000 -0.040451
v -0.029389 0.500000 -0.040451
v -0.210000 0.500000 0.180000
v -0.210000 1.000000 0.180000
v -0.210000 0.500000 -0.180000
v -0.210000 1.000000 -0.180000
v 0.210000 0.500000 0.180000
v 0.210000 1.000000 0.180000
v 0.210000 0.500000 -0.180000
v 0.210000 1.000000 -0.180000
v -0.140000 0.885000 -0.155000
v -0.140000 0.915000 -0.155000
v -0.140000 0.885000 -0.205000
v -0.140000 0.915000 -0.205000
v 0.140000 0.885000 -0.155000
v 0.140000 0.915000 -0.155000
v 0.140000 0.885000 -0.205000
v 0.140000 0.915000 -0.205000
vn 0.3090 -0.0000 -0.9511
vn 0.8090 -0.0000 -0.5878
vn 1.0000 -0.0000 -0.0000
vn 0.8090 -0.0000 0.5878
vn 0.3090 -0.0000 0.9511
vn -0.3090 -0.0000 0.9511
vn -0.8090 -0.0000 0.5878
vn -1.0000 -0.0000 -0.0000
vn -0.0000 1.0000 -0.0000
vn -0.8090 -0.0000 -0.5878
vn -0.3090 -0.0000 -0.9511
vn -0.0000 -1.0000 -0.0000
vn -0.0000 -0.0000 -1.0000
vn -0.0000 -0.0000 1.0000
vt 0.500000 -0.250000
vt 0.500000 0.750000
vt 0.529389 0.750000
vt 0.529389 -0.250000
vt 0.527951 -0.250000
vt 0.527951 0.750000
vt 0.502951 0.750000
vt 0.502951 -0.250000
vt 0.472049 0.750000
vt 0.472049 -0.250000
vt 0.447049 0.750000
vt 0.447049 -0.250000
vt 0.470611 0.750000
vt 0.470611 -0.250000
vt 0.529389 0.527951
vt 0.500000 0.537500
vt 0.470611 0.527951
vt 0.452447 0.502951
vt 0.452447 0.472049
vt 0.470611 0.447049
vt 0.500000 0.437500
vt 0.529389 0.447049
vt 0.547553 0.472049
vt 0.547553 0.502951
vt 0.307500 0.750000
vt 0.307500 1.250000
vt 0.667500 1.250000
vt 0.667500 0.750000
vt 0.290000 0.750000
vt 0.290000 1.250000
vt 0.710000 1.250000
vt 0.710000 0.750000
vt 0.290000 0.667500
vt 0.710000 0.667500
vt 0.710000 0.307500
vt 0.290000 0.307500
vt 0.642500 1.135000
vt 0.642500 1.165000
vt 0.692500 1.165000
vt 0.692500 1.135000
vt 0.360000 1.135000
vt 0.360000 1.165000
vt 0.640000 1.165000
vt 0.640000 1.135000
vt 0.360000 0.692500
vt 0.640000 0.692500
vt 0.640000 0.642500
vt 0.360000 0.642500
s 0
usemtl SURF_Metal_Lamp
f 1/1/1 2/2/1 4/3/1 3/4/1
f 3/5/2 4/6/2 6/7/2 5/8/2
f 5/8/3 6/7/3 8/9/3 7/10/3
f 7/10/4 8/9/4 10/11/4 9/12/4
f 9/4/5 10/3/5 12/2/5 11/1/5
f 11/1/6 12/2/6 14/13/6 13/14/6
f 13/12/7 14/11/7 16/9/7 15/10/7
f 15/10/8 16/9/8 18/7/8 17/8/8
f 4/15/9 2/16/9 20/17/9 18/18/9 16/19/9 14/20/9 12/21/9 10/22/9 8/23/9 6/24/9
f 17/8/10 18/7/10 20/6/10 19/5/10
f 19/14/11 20/13/11 2/2/11 1/1/11
f 1/16/12 3/15/12 5/24/12 7/23/12 9/22/12 11/21/12 13/20/12 15/19/12 17/18/12 19/17/12
usemtl SURF_Crimson_Core
f 21/25/8 22/26/8 24/27/8 23/28/8
f 23/29/13 24/30/13 28/31/13 27/32/13
f 27/28/3 28/27/3 26/26/3 25/25/3
f 25/32/14 26/31/14 22/30/14 21/29/14
f 23/33/12 27/34/12 25/35/12 21/36/12
f 28/34/9 24/33/9 22/36/9 26/35/9
usemtl SURF_Wood_Dark
f 29/37/8 30/38/8 32/39/8 31/40/8
f 31/41/13 32/42/13 36/43/13 35/44/13
f 35/40/3 36/39/3 34/38/3 33/37/3
f 33/44/14 34/43/14 30/42/14 29/41/14
f 31/45/12 35/46/12 33/47/12 29/48/12
f 36/46/9 32/45/9 30/48/9 34/47/9
