# Blender 5.2.0 LTS
# www.blender.org
mtllib SM_K_TrafficMirror.mtl
o SM_K_TrafficMirror
v 0.000000 -1.200000 -0.050000
v 0.000000 1.200000 -0.050000
v 0.029389 -1.200000 -0.040451
v 0.029389 1.200000 -0.040451
v 0.047553 -1.200000 -0.015451
v 0.047553 1.200000 -0.015451
v 0.047553 -1.200000 0.015451
v 0.047553 1.200000 0.015451
v 0.029389 -1.200000 0.040451
v 0.029389 1.200000 0.040451
v 0.000000 -1.200000 0.050000
v 0.000000 1.200000 0.050000
v -0.029389 -1.200000 0.040451
v -0.029389 1.200000 0.040451
v -0.047553 -1.200000 0.015451
v -0.047553 1.200000 0.015451
v -0.047553 -1.200000 -0.015451
v -0.047553 1.200000 -0.015451
v -0.029389 -1.200000 -0.040451
v -0.029389 1.200000 -0.040451
v 0.000000 1.550000 -0.090000
v 0.000000 1.550000 -0.010000
v 0.169959 1.523081 -0.090000
v 0.169959 1.523081 -0.010000
v 0.323282 1.444959 -0.090000
v 0.323282 1.444959 -0.010000
v 0.444959 1.323282 -0.090000
v 0.444959 1.323282 -0.010000
v 0.523081 1.169959 -0.090000
v 0.523081 1.169959 -0.010000
v 0.550000 1.000000 -0.090000
v 0.550000 1.000000 -0.010000
v 0.523081 0.830041 -0.090000
v 0.523081 0.830041 -0.010000
v 0.444959 0.676718 -0.090000
v 0.444959 0.676718 -0.010000
v 0.323282 0.555041 -0.090000
v 0.323282 0.555041 -0.010000
v 0.169959 0.476919 -0.090000
v 0.169959 0.476919 -0.010000
v 0.000000 0.450000 -0.090000
v 0.000000 0.450000 -0.010000
v -0.169959 0.476919 -0.090000
v -0.169959 0.476919 -0.010000
v -0.323282 0.555041 -0.090000
v -0.323282 0.555041 -0.010000
v -0.444959 0.676718 -0.090000
v -0.444959 0.676718 -0.010000
v -0.523081 0.830041 -0.090000
v -0.523081 0.830041 -0.010000
v -0.550000 1.000000 -0.090000
v -0.550000 1.000000 -0.010000
v -0.523081 1.169959 -0.090000
v -0.523081 1.169959 -0.010000
v -0.444959 1.323282 -0.090000
v -0.444959 1.323282 -0.010000
v -0.323282 1.444959 -0.090000
v -0.323282 1.444959 -0.010000
v -0.169959 1.523081 -0.090000
v -0.169959 1.523081 -0.010000
v 0.000000 1.500000 -0.040000
v 0.000000 1.500000 0.080000
v 0.154509 1.475528 -0.040000
v 0.154509 1.475528 0.080000
v 0.293893 1.404509 -0.040000
v 0.293893 1.404509 0.080000
v 0.404509 1.293893 -0.040000
v 0.404509 1.293893 0.080000
v 0.475528 1.154509 -0.040000
v 0.475528 1.154509 0.080000
v 0.500000 1.000000 -0.040000
v 0.500000 1.000000 0.080000
v 0.475528 0.845491 -0.040000
v 0.475528 0.845491 0.080000
v 0.404509 0.706107 -0.040000
v 0.404509 0.706107 0.080000
v 0.293893 0.595492 -0.040000
v 0.293893 0.595492 0.080000
v 0.154509 0.524472 -0.040000
v 0.154509 0.524472 0.080000
v 0.000000 0.500000 -0.040000
v 0.000000 0.500000 0.080000
v -0.154509 0.524472 -0.040000
v -0.154509 0.524472 0.080000
v -0.293893 0.595492 -0.040000
v -0.293893 0.595492 0.080000
v -0.404509 0.706107 -0.040000
v -0.404509 0.706107 0.080000
v -0.475528 0.845491 -0.040000
v -0.475528 0.845491 0.080000
v -0.500000 1.000000 -0.040000
v -0.500000 1.000000 0.080000
v -0.475528 1.154509 -0.040000
v -0.475528 1.154509 0.080000
v -0.404509 1.293893 -0.040000
v -0.404509 1.293893 0.080000
v -0.293893 1.404509 -0.040000
v -0.293893 1.404509 0.080000
v -0.154509 1.475528 -0.040000
v -0.154509 1.475528 0.080000
vn 0.3090 -0.0000 -0.9511
vn 0.8090 -0.0000 -0.5878
vn 1.0000 -0.0000 -0.0000
vn 0.8090 -0.0000 0.5878
vn 0.3090 -0.0000 0.9511
vn -0.3090 -0.0000 0.9511
vn -0.8090 -0.0000 0.5878
vn -1.0000 -0.0000 -0.0000
vn -0.0000 1.0000 -0.0000
vn -0.8090 -0.0000 -0.5878
vn -0.3090 -0.0000 -0.9511
vn -0.0000 -1.0000 -0.0000
vn 0.1564 0.9877 -0.0000
vn 0.4540 0.8910 -0.0000
vn 0.7071 0.7071 -0.0000
vn 0.8910 0.4540 -0.0000
vn 0.9877 0.1564 -0.0000
vn 0.9877 -0.1564 -0.0000
vn 0.8910 -0.4540 -0.0000
vn 0.7071 -0.7071 -0.0000
vn 0.4540 -0.8910 -0.0000
vn 0.1564 -0.9877 -0.0000
vn -0.1564 -0.9877 -0.0000
vn -0.4540 -0.8910 -0.0000
vn -0.7071 -0.7071 -0.0000
vn -0.8910 -0.4540 -0.0000
vn -0.9877 -0.1564 -0.0000
vn -0.9877 0.1564 -0.0000
vn -0.8910 0.4540 -0.0000
vn -0.7071 0.7071 -0.0000
vn -0.0000 -0.0000 1.0000
vn -0.4540 0.8910 -0.0000
vn -0.1564 0.9877 -0.0000
vn -0.0000 -0.0000 -1.0000
vt 0.500000 -0.875000
vt 0.500000 1.525000
vt 0.529389 1.525000
vt 0.529389 -0.875000
vt 0.535451 -0.875000
vt 0.535451 1.525000
vt 0.510451 1.525000
vt 0.510451 -0.875000
vt 0.479549 1.525000
vt 0.479549 -0.875000
vt 0.454549 1.525000
vt 0.454549 -0.875000
vt 0.470611 1.525000
vt 0.470611 -0.875000
vt 0.529389 0.535451
vt 0.500000 0.545000
vt 0.470611 0.535451
vt 0.452447 0.510451
vt 0.452447 0.479549
vt 0.470611 0.454549
vt 0.500000 0.445000
vt 0.529389 0.454549
vt 0.547553 0.479549
vt 0.547553 0.510451
vt 0.500000 0.585000
vt 0.500000 0.505000
vt 0.669959 0.505000
vt 0.669959 0.585000
vt 0.823282 0.505000
vt 0.823282 0.585000
vt 0.944959 0.505000
vt 0.944959 0.585000
vt 0.585000 1.648282
vt 0.505000 1.648282
vt 0.505000 1.494959
vt 0.585000 1.494959
vt 0.505000 1.325000
vt 0.585000 1.325000
vt 0.505000 1.155041
vt 0.585000 1.155041
vt 0.505000 1.001718
vt 0.585000 1.001718
vt 0.505000 0.880041
vt 0.585000 0.880041
vt 0.823282 0.585000
vt 0.669959 0.585000
vt 0.500000 0.585000
vt 0.330041 0.505000
vt 0.330041 0.585000
vt 0.176718 0.505000
vt 0.176718 0.585000
vt 0.055041 0.585000
vt 0.055041 0.505000
vt 0.176718 0.585000
vt 0.669959 1.848081
vt 0.500000 1.875000
vt 0.330041 1.848081
vt 0.176718 1.769959
vt 0.055041 1.648282
vt -0.023081 1.494959
vt -0.050000 1.325000
vt -0.023081 1.155041
vt 0.055041 1.001718
vt 0.176718 0.880041
vt 0.330041 0.801919
vt 0.500000 0.775000
vt 0.669959 0.801919
vt 0.823282 0.880041
vt 0.944959 1.001718
vt 1.023081 1.155041
vt 1.050000 1.325000
vt 1.023081 1.494959
vt 0.944959 1.648282
vt 0.823282 1.769959
vt 0.330041 0.585000
vt 0.500000 0.535000
vt 0.500000 0.415000
vt 0.654508 0.415000
vt 0.654508 0.535000
vt 0.793893 0.415000
vt 0.793893 0.535000
vt 0.535000 1.729509
vt 0.415000 1.729509
vt 0.415000 1.618893
vt 0.535000 1.618893
vt 0.415000 1.479509
vt 0.535000 1.479509
vt 0.415000 1.325000
vt 0.535000 1.325000
vt 0.415000 1.170491
vt 0.535000 1.170491
vt 0.415000 1.031107
vt 0.535000 1.031107
vt 0.904508 0.535000
vt 0.904508 0.415000
vt 0.793893 0.415000
vt 0.793893 0.535000
vt 0.654508 0.415000
vt 0.654508 0.535000
vt 0.500000 0.415000
vt 0.500000 0.535000
vt 0.345491 0.415000
vt 0.345491 0.535000
vt 0.206107 0.415000
vt 0.206107 0.535000
vt 0.095491 0.415000
vt 0.095491 0.535000
vt 0.654508 1.800528
vt 0.500000 1.825000
vt 0.345491 1.800528
vt 0.206107 1.729509
vt 0.095491 1.618893
vt 0.024472 1.479509
vt 0.000000 1.325000
vt 0.024472 1.170491
vt 0.095491 1.031107
vt 0.206107 0.920492
vt 0.345491 0.849472
vt 0.500000 0.825000
vt 0.654508 0.849472
vt 0.793893 0.920492
vt 0.904508 1.031107
vt 0.975528 1.170491
vt 1.000000 1.325000
vt 0.975528 1.479509
vt 0.904508 1.618893
vt 0.793893 1.729509
vt 0.206107 0.535000
vt 0.206107 0.415000
vt 0.345491 0.415000
vt 0.345491 0.535000
s 0
usemtl SURF_Metal_Lamp
f 1/1/1 2/2/1 4/3/1 3/4/1
f 3/5/2 4/6/2 6/7/2 5/8/2
f 5/8/3 6/7/3 8/9/3 7/10/3
f 7/10/4 8/9/4 10/11/4 9/12/4
f 9/4/5 10/3/5 12/2/5 11/1/5
f 11/1/6 12/2/6 14/13/6 13/14/6
f 13/12/7 14/11/7 16/9/7 15/10/7
f 15/10/8 16/9/8 18/7/8 17/8/8
f 4/15/9 2/16/9 20/17/9 18/18/9 16/19/9 14/20/9 12/21/9 10/22/9 8/23/9 6/24/9
f 17/8/10 18/7/10 20/6/10 19/5/10
f 19/14/11 20/13/11 2/2/11 1/1/11
f 1/16/12 3/15/12 5/24/12 7/23/12 9/22/12 11/21/12 13/20/12 15/19/12 17/18/12 19/17/12
usemtl SURF_Crimson_Core
f 21/25/13 22/26/13 24/27/13 23/28/13
f 23/28/14 24/27/14 26/29/14 25/30/14
f 25/30/15 26/29/15 28/31/15 27/32/15
f 27/33/16 28/34/16 30/35/16 29/36/16
f 29/36/17 30/35/17 32/37/17 31/38/17
f 31/38/18 32/37/18 34/39/18 33/40/18
f 33/40/19 34/39/19 36/41/19 35/42/19
f 35/42/20 36/41/20 38/43/20 37/44/20
f 37/45/21 38/29/21 40/27/21 39/46/21
f 39/46/22 40/27/22 42/26/22 41/47/22
f 41/47/23 42/26/23 44/48/23 43/49/23
f 43/49/24 44/48/24 46/50/24 45/51/24
f 45/44/25 46/43/25 48/41/25 47/42/25
f 47/42/26 48/41/26 50/39/26 49/40/26
f 49/40/27 50/39/27 52/37/27 51/38/27
f 51/38/28 52/37/28 54/35/28 53/36/28
f 53/36/29 54/35/29 56/34/29 55/33/29
f 55/52/30 56/53/30 58/50/30 57/54/30
f 24/55/31 22/56/31 60/57/31 58/58/31 56/59/31 54/60/31 52/61/31 50/62/31 48/63/31 46/64/31 44/65/31 42/66/31 40/67/31 38/68/31 36/69/31 34/70/31 32/71/31 30/72/31 28/73/31 26/74/31
f 57/54/32 58/50/32 60/48/32 59/75/32
f 59/75/33 60/48/33 22/26/33 21/25/33
f 21/56/34 23/55/34 25/74/34 27/73/34 29/72/34 31/71/34 33/70/34 35/69/34 37/68/34 39/67/34 41/66/34 43/65/34 45/64/34 47/63/34 49/62/34 51/61/34 53/60/34 55/59/34 57/58/34 59/57/34
usemtl SURF_Steel_Sign
f 61/76/13 62/77/13 64/78/13 63/79/13
f 63/79/14 64/78/14 66/80/14 65/81/14
f 65/82/15 66/83/15 68/84/15 67/85/15
f 67/85/16 68/84/16 70/86/16 69/87/16
f 69/87/17 70/86/17 72/88/17 71/89/17
f 71/89/18 72/88/18 74/90/18 73/91/18
f 73/91/19 74/90/19 76/92/19 75/93/19
f 75/94/20 76/95/20 78/96/20 77/97/20
f 77/97/21 78/96/21 80/98/21 79/99/21
f 79/99/22 80/98/22 82/100/22 81/101/22
f 81/101/23 82/100/23 84/102/23 83/103/23
f 83/103/24 84/102/24 86/104/24 85/105/24
f 85/105/25 86/104/25 88/106/25 87/107/25
f 87/93/26 88/92/26 90/90/26 89/91/26
f 89/91/27 90/90/27 92/88/27 91/89/27
f 91/89/28 92/88/28 94/86/28 93/87/28
f 93/87/29 94/86/29 96/84/29 95/85/29
f 95/85/30 96/84/30 98/83/30 97/82/30
f 64/108/31 62/109/31 100/110/31 98/111/31 96/112/31 94/113/31 92/114/31 90/115/31 88/116/31 86/117/31 84/118/31 82/119/31 80/120/31 78/121/31 76/122/31 74/123/31 72/124/31 70/125/31 68/126/31 66/127/31
f 97/128/32 98/129/32 100/130/32 99/131/32
f 99/131/33 100/130/33 62/77/33 61/76/33
f 61/109/34 63/108/34 65/127/34 67/126/34 69/125/34 71/124/34 73/123/34 75/122/34 77/121/34 79/120/34 81/119/34 83/118/34 85/117/34 87/116/34 89/115/34 91/114/34 93/113/34 95/112/34 97/111/34 99/110/34
