# Blender 5.2.0 LTS
# www.blender.org
mtllib SM_K_UtilityPole.mtl
o SM_K_UtilityPole
v 0.000000 -3.250000 -0.120000
v 0.000000 3.250000 -0.120000
v 0.070534 -3.250000 -0.097082
v 0.070534 3.250000 -0.097082
v 0.114127 -3.250000 -0.037082
v 0.114127 3.250000 -0.037082
v 0.114127 -3.250000 0.037082
v 0.114127 3.250000 0.037082
v 0.070534 -3.250000 0.097082
v 0.070534 3.250000 0.097082
v 0.000000 -3.250000 0.120000
v 0.000000 3.250000 0.120000
v -0.070534 -3.250000 0.097082
v -0.070534 3.250000 0.097082
v -0.114127 -3.250000 0.037082
v -0.114127 3.250000 0.037082
v -0.114127 -3.250000 -0.037082
v -0.114127 3.250000 -0.037082
v -0.070534 -3.250000 -0.097082
v -0.070534 3.250000 -0.097082
v -1.300000 2.680000 0.060000
v -1.300000 2.820000 0.060000
v -1.300000 2.680000 -0.060000
v -1.300000 2.820000 -0.060000
v 1.300000 2.680000 0.060000
v 1.300000 2.820000 0.060000
v 1.300000 2.680000 -0.060000
v 1.300000 2.820000 -0.060000
v -1.100000 2.820000 -0.050000
v -1.100000 3.000000 -0.050000
v -1.064645 2.820000 -0.035355
v -1.064645 3.000000 -0.035355
v -1.050000 2.820000 0.000000
v -1.050000 3.000000 0.000000
v -1.064645 2.820000 0.035355
v -1.064645 3.000000 0.035355
v -1.100000 2.820000 0.050000
v -1.100000 3.000000 0.050000
v -1.135355 2.820000 0.035355
v -1.135355 3.000000 0.035355
v -1.150000 2.820000 0.000000
v -1.150000 3.000000 0.000000
v -1.135355 2.820000 -0.035355
v -1.135355 3.000000 -0.035355
v -0.400000 2.820000 -0.050000
v -0.400000 3.000000 -0.050000
v -0.364645 2.820000 -0.035355
v -0.364645 3.000000 -0.035355
v -0.350000 2.820000 0.000000
v -0.350000 3.000000 0.000000
v -0.364645 2.820000 0.035355
v -0.364645 3.000000 0.035355
v -0.400000 2.820000 0.050000
v -0.400000 3.000000 0.050000
v -0.435355 2.820000 0.035355
v -0.435355 3.000000 0.035355
v -0.450000 2.820000 0.000000
v -0.450000 3.000000 0.000000
v -0.435355 2.820000 -0.035355
v -0.435355 3.000000 -0.035355
v 0.400000 2.820000 -0.050000
v 0.400000 3.000000 -0.050000
v 0.435355 2.820000 -0.035355
v 0.435355 3.000000 -0.035355
v 0.450000 2.820000 0.000000
v 0.450000 3.000000 0.000000
v 0.435355 2.820000 0.035355
v 0.435355 3.000000 0.035355
v 0.400000 2.820000 0.050000
v 0.400000 3.000000 0.050000
v 0.364645 2.820000 0.035355
v 0.364645 3.000000 0.035355
v 0.350000 2.820000 0.000000
v 0.350000 3.000000 0.000000
v 0.364645 2.820000 -0.035355
v 0.364645 3.000000 -0.035355
v 1.100000 2.820000 -0.050000
v 1.100000 3.000000 -0.050000
v 1.135355 2.820000 -0.035355
v 1.135355 3.000000 -0.035355
v 1.150000 2.820000 0.000000
v 1.150000 3.000000 0.000000
v 1.135355 2.820000 0.035355
v 1.135355 3.000000 0.035355
v 1.100000 2.820000 0.050000
v 1.100000 3.000000 0.050000
v 1.064645 2.820000 0.035355
v 1.064645 3.000000 0.035355
v 1.050000 2.820000 0.000000
v 1.050000 3.000000 0.000000
v 1.064645 2.820000 -0.035355
v 1.064645 3.000000 -0.035355
v 0.120000 1.550000 0.200000
v 0.120000 2.150000 0.200000
v 0.120000 1.550000 -0.200000
v 0.120000 2.150000 -0.200000
v 0.620000 1.550000 0.200000
v 0.620000 2.150000 0.200000
v 0.620000 1.550000 -0.200000
v 0.620000 2.150000 -0.200000
vn 0.3090 -0.0000 -0.9511
vn 0.8090 -0.0000 -0.5878
vn 1.0000 -0.0000 -0.0000
vn 0.8090 -0.0000 0.5878
vn 0.3090 -0.0000 0.9511
vn -0.3090 -0.0000 0.9511
vn -0.8090 -0.0000 0.5878
vn -1.0000 -0.0000 -0.0000
vn -0.0000 1.0000 -0.0000
vn -0.8090 -0.0000 -0.5878
vn -0.3090 -0.0000 -0.9511
vn -0.0000 -1.0000 -0.0000
vn -0.0000 -0.0000 -1.0000
vn -0.0000 -0.0000 1.0000
vn 0.3827 -0.0000 -0.9239
vn 0.9239 -0.0000 -0.3827
vn 0.9239 -0.0000 0.3827
vn 0.3827 -0.0000 0.9239
vn -0.3827 -0.0000 0.9239
vn -0.9239 -0.0000 0.3827
vn -0.9239 -0.0000 -0.3827
vn -0.3827 -0.0000 -0.9239
vt 0.500000 -2.750000
vt 0.500000 3.750000
vt 0.570534 3.750000
vt 0.570534 -2.750000
vt 0.597082 -2.750000
vt 0.597082 3.750000
vt 0.537082 3.750000
vt 0.537082 -2.750000
vt 0.462918 3.750000
vt 0.462918 -2.750000
vt 0.402918 3.750000
vt 0.402918 -2.750000
vt 0.429466 3.750000
vt 0.429466 -2.750000
vt 0.570534 0.597082
vt 0.500000 0.620000
vt 0.429466 0.597082
vt 0.385873 0.537082
vt 0.385873 0.462918
vt 0.429466 0.402918
vt 0.500000 0.380000
vt 0.570534 0.402918
vt 0.614127 0.462918
vt 0.614127 0.537082
vt 0.440000 3.180000
vt 0.440000 3.320000
vt 0.560000 3.320000
vt 0.560000 3.180000
vt -0.800000 3.180000
vt -0.800000 3.320000
vt 1.800000 3.320000
vt 1.800000 3.180000
vt -0.800000 0.560000
vt 1.800000 0.560000
vt 1.800000 0.440000
vt -0.800000 0.440000
vt -0.600000 3.320000
vt -0.600000 3.500000
vt -0.564645 3.500000
vt -0.564645 3.320000
vt 0.535355 3.320000
vt 0.535355 3.500000
vt 0.500000 3.500000
vt 0.500000 3.320000
vt 0.464645 3.500000
vt 0.464645 3.320000
vt -0.635355 3.500000
vt -0.635355 3.320000
vt -0.564645 0.535355
vt -0.600000 0.550000
vt -0.635355 0.535355
vt -0.650000 0.500000
vt -0.635355 0.464645
vt -0.600000 0.450000
vt -0.564645 0.464645
vt -0.550000 0.500000
vt 0.100000 3.320000
vt 0.100000 3.500000
vt 0.135355 3.500000
vt 0.135355 3.320000
vt 0.064645 3.500000
vt 0.064645 3.320000
vt 0.135355 0.535355
vt 0.100000 0.550000
vt 0.064645 0.535355
vt 0.050000 0.500000
vt 0.064645 0.464645
vt 0.100000 0.450000
vt 0.135355 0.464645
vt 0.150000 0.500000
vt 0.900000 3.320000
vt 0.900000 3.500000
vt 0.935355 3.500000
vt 0.935355 3.320000
vt 0.864645 3.500000
vt 0.864645 3.320000
vt 0.935355 0.535355
vt 0.900000 0.550000
vt 0.864645 0.535355
vt 0.850000 0.500000
vt 0.864645 0.464645
vt 0.900000 0.450000
vt 0.935355 0.464645
vt 0.950000 0.500000
vt 1.600000 3.320000
vt 1.600000 3.500000
vt 1.635355 3.500000
vt 1.635355 3.320000
vt 1.564645 3.500000
vt 1.564645 3.320000
vt 1.635355 0.535355
vt 1.600000 0.550000
vt 1.564645 0.535355
vt 1.550000 0.500000
vt 1.564645 0.464645
vt 1.600000 0.450000
vt 1.635355 0.464645
vt 1.650000 0.500000
vt 0.300000 2.050000
vt 0.300000 2.650000
vt 0.700000 2.650000
vt 0.700000 2.050000
vt 0.620000 2.050000
vt 0.620000 2.650000
vt 1.120000 2.650000
vt 1.120000 2.050000
vt 0.620000 0.700000
vt 1.120000 0.700000
vt 1.120000 0.300000
vt 0.620000 0.300000
s 0
usemtl SURF_Wood_Dark
f 1/1/1 2/2/1 4/3/1 3/4/1
f 3/5/2 4/6/2 6/7/2 5/8/2
f 5/8/3 6/7/3 8/9/3 7/10/3
f 7/10/4 8/9/4 10/11/4 9/12/4
f 9/4/5 10/3/5 12/2/5 11/1/5
f 11/1/6 12/2/6 14/13/6 13/14/6
f 13/12/7 14/11/7 16/9/7 15/10/7
f 15/10/8 16/9/8 18/7/8 17/8/8
f 4/15/9 2/16/9 20/17/9 18/18/9 16/19/9 14/20/9 12/21/9 10/22/9 8/23/9 6/24/9
f 17/8/10 18/7/10 20/6/10 19/5/10
f 19/14/11 20/13/11 2/2/11 1/1/11
f 1/16/12 3/15/12 5/24/12 7/23/12 9/22/12 11/21/12 13/20/12 15/19/12 17/18/12 19/17/12
f 21/25/8 22/26/8 24/27/8 23/28/8
f 23/29/13 24/30/13 28/31/13 27/32/13
f 27/28/3 28/27/3 26/26/3 25/25/3
f 25/32/14 26/31/14 22/30/14 21/29/14
f 23/33/12 27/34/12 25/35/12 21/36/12
f 28/34/9 24/33/9 22/36/9 26/35/9
usemtl SURF_Steel_Sign
f 29/37/15 30/38/15 32/39/15 31/40/15
f 31/41/16 32/42/16 34/43/16 33/44/16
f 33/44/17 34/43/17 36/45/17 35/46/17
f 35/40/18 36/39/18 38/38/18 37/37/18
f 37/37/19 38/38/19 40/47/19 39/48/19
f 39/46/20 40/45/20 42/43/20 41/44/20
f 32/49/9 30/50/9 44/51/9 42/52/9 40/53/9 38/54/9 36/55/9 34/56/9
f 41/44/21 42/43/21 44/42/21 43/41/21
f 43/48/22 44/47/22 30/38/22 29/37/22
f 29/50/12 31/49/12 33/56/12 35/55/12 37/54/12 39/53/12 41/52/12 43/51/12
f 45/57/15 46/58/15 48/59/15 47/60/15
f 47/41/16 48/42/16 50/43/16 49/44/16
f 49/44/17 50/43/17 52/45/17 51/46/17
f 51/60/18 52/59/18 54/58/18 53/57/18
f 53/57/19 54/58/19 56/61/19 55/62/19
f 55/46/20 56/45/20 58/43/20 57/44/20
f 48/63/9 46/64/9 60/65/9 58/66/9 56/67/9 54/68/9 52/69/9 50/70/9
f 57/44/21 58/43/21 60/42/21 59/41/21
f 59/62/22 60/61/22 46/58/22 45/57/22
f 45/64/12 47/63/12 49/70/12 51/69/12 53/68/12 55/67/12 57/66/12 59/65/12
f 61/71/15 62/72/15 64/73/15 63/74/15
f 63/41/16 64/42/16 66/43/16 65/44/16
f 65/44/17 66/43/17 68/45/17 67/46/17
f 67/74/18 68/73/18 70/72/18 69/71/18
f 69/71/19 70/72/19 72/75/19 71/76/19
f 71/46/20 72/45/20 74/43/20 73/44/20
f 64/77/9 62/78/9 76/79/9 74/80/9 72/81/9 70/82/9 68/83/9 66/84/9
f 73/44/21 74/43/21 76/42/21 75/41/21
f 75/76/22 76/75/22 62/72/22 61/71/22
f 61/78/12 63/77/12 65/84/12 67/83/12 69/82/12 71/81/12 73/80/12 75/79/12
f 77/85/15 78/86/15 80/87/15 79/88/15
f 79/41/16 80/42/16 82/43/16 81/44/16
f 81/44/17 82/43/17 84/45/17 83/46/17
f 83/88/18 84/87/18 86/86/18 85/85/18
f 85/85/19 86/86/19 88/89/19 87/90/19
f 87/46/20 88/45/20 90/43/20 89/44/20
f 80/91/9 78/92/9 92/93/9 90/94/9 88/95/9 86/96/9 84/97/9 82/98/9
f 89/44/21 90/43/21 92/42/21 91/41/21
f 91/90/22 92/89/22 78/86/22 77/85/22
f 77/92/12 79/91/12 81/98/12 83/97/12 85/96/12 87/95/12 89/94/12 91/93/12
usemtl SURF_Metal_Lamp
f 93/99/8 94/100/8 96/101/8 95/102/8
f 95/103/13 96/104/13 100/105/13 99/106/13
f 99/102/3 100/101/3 98/100/3 97/99/3
f 97/106/14 98/105/14 94/104/14 93/103/14
f 95/107/12 99/108/12 97/109/12 93/110/12
f 100/108/9 96/107/9 94/110/9 98/109/9
