# Blender 5.2.0 LTS
# www.blender.org
mtllib SM_K_Tree_Med.mtl
o SM_K_Tree_Med
v 0.000000 -0.650000 -0.140000
v 0.000000 0.650000 -0.140000
v 0.098995 -0.650000 -0.098995
v 0.098995 0.650000 -0.098995
v 0.140000 -0.650000 0.000000
v 0.140000 0.650000 0.000000
v 0.098995 -0.650000 0.098995
v 0.098995 0.650000 0.098995
v 0.000000 -0.650000 0.140000
v 0.000000 0.650000 0.140000
v -0.098995 -0.650000 0.098995
v -0.098995 0.650000 0.098995
v -0.140000 -0.650000 0.000000
v -0.140000 0.650000 0.000000
v -0.098995 -0.650000 -0.098995
v -0.098995 0.650000 -0.098995
v -1.150000 0.550000 1.050000
v -1.150000 1.650000 1.050000
v -1.150000 0.550000 -1.050000
v -1.150000 1.650000 -1.050000
v 1.150000 0.550000 1.050000
v 1.150000 1.650000 1.050000
v 1.150000 0.550000 -1.050000
v 1.150000 1.650000 -1.050000
v -1.450000 0.950000 0.550000
v -1.450000 2.250000 0.550000
v -1.450000 0.950000 -1.150000
v -1.450000 2.250000 -1.150000
v 0.350000 0.950000 0.550000
v 0.350000 2.250000 0.550000
v 0.350000 0.950000 -1.150000
v 0.350000 2.250000 -1.150000
v -0.450000 0.950000 1.250000
v -0.450000 2.150000 1.250000
v -0.450000 0.950000 -0.550000
v -0.450000 2.150000 -0.550000
v 1.450000 0.950000 1.250000
v 1.450000 2.150000 1.250000
v 1.450000 0.950000 -0.550000
v 1.450000 2.150000 -0.550000
v -0.750000 1.500000 0.700000
v -0.750000 2.500000 0.700000
v -0.750000 1.500000 -0.900000
v -0.750000 2.500000 -0.900000
v 0.850000 1.500000 0.700000
v 0.850000 2.500000 0.700000
v 0.850000 1.500000 -0.900000
v 0.850000 2.500000 -0.900000
vn 0.3827 -0.0000 -0.9239
vn 0.9239 -0.0000 -0.3827
vn 0.9239 -0.0000 0.3827
vn 0.3827 -0.0000 0.9239
vn -0.3827 -0.0000 0.9239
vn -0.9239 -0.0000 0.3827
vn -0.0000 1.0000 -0.0000
vn -0.9239 -0.0000 -0.3827
vn -0.3827 -0.0000 -0.9239
vn -0.0000 -1.0000 -0.0000
vn -1.0000 -0.0000 -0.0000
vn -0.0000 -0.0000 -1.0000
vn 1.0000 -0.0000 -0.0000
vn -0.0000 -0.0000 1.0000
vt 0.500000 -1.075000
vt 0.500000 0.225000
vt 0.598995 0.225000
vt 0.598995 -1.075000
vt 0.648995 -1.075000
vt 0.648995 0.225000
vt 0.550000 0.225000
vt 0.550000 -1.075000
vt 0.451005 0.225000
vt 0.451005 -1.075000
vt 0.401005 0.225000
vt 0.401005 -1.075000
vt 0.598995 0.648995
vt 0.500000 0.690000
vt 0.401005 0.648995
vt 0.360000 0.550000
vt 0.401005 0.451005
vt 0.500000 0.410000
vt 0.598995 0.451005
vt 0.640000 0.550000
vt -0.500000 0.125000
vt -0.500000 1.225000
vt 1.600000 1.225000
vt 1.600000 0.125000
vt -0.650000 0.125000
vt -0.650000 1.225000
vt 1.650000 1.225000
vt 1.650000 0.125000
vt -0.650000 1.600000
vt 1.650000 1.600000
vt 1.650000 -0.500000
vt -0.650000 -0.500000
vt -0.000000 0.525000
vt -0.000000 1.825000
vt 1.700000 1.825000
vt 1.700000 0.525000
vt -0.950000 0.525000
vt -0.950000 1.825000
vt 0.850000 1.825000
vt 0.850000 0.525000
vt -0.950000 1.700000
vt 0.850000 1.700000
vt 0.850000 -0.000000
vt -0.950000 -0.000000
vt -0.700000 0.525000
vt -0.700000 1.725000
vt 1.100000 1.725000
vt 1.100000 0.525000
vt 0.050000 0.525000
vt 0.050000 1.725000
vt 1.950000 1.725000
vt 1.950000 0.525000
vt 0.050000 1.100000
vt 1.950000 1.100000
vt 1.950000 -0.700000
vt 0.050000 -0.700000
vt -0.150000 1.075000
vt -0.150000 2.075000
vt 1.450000 2.075000
vt 1.450000 1.075000
vt -0.250000 1.075000
vt -0.250000 2.075000
vt 1.350000 2.075000
vt 1.350000 1.075000
vt -0.250000 1.450000
vt 1.350000 1.450000
vt 1.350000 -0.150000
vt -0.250000 -0.150000
s 0
usemtl SURF_Wood_Furniture
f 1/1/1 2/2/1 4/3/1 3/4/1
f 3/5/2 4/6/2 6/7/2 5/8/2
f 5/8/3 6/7/3 8/9/3 7/10/3
f 7/4/4 8/3/4 10/2/4 9/1/4
f 9/1/5 10/2/5 12/11/5 11/12/5
f 11/10/6 12/9/6 14/7/6 13/8/6
f 4/13/7 2/14/7 16/15/7 14/16/7 12/17/7 10/18/7 8/19/7 6/20/7
f 13/8/8 14/7/8 16/6/8 15/5/8
f 15/12/9 16/11/9 2/2/9 1/1/9
f 1/14/10 3/13/10 5/20/10 7/19/10 9/18/10 11/17/10 13/16/10 15/15/10
usemtl SURF_Foliage_Tree
f 17/21/11 18/22/11 20/23/11 19/24/11
f 19/25/12 20/26/12 24/27/12 23/28/12
f 23/24/13 24/23/13 22/22/13 21/21/13
f 21/28/14 22/27/14 18/26/14 17/25/14
f 19/29/10 23/30/10 21/31/10 17/32/10
f 24/30/7 20/29/7 18/32/7 22/31/7
f 25/33/11 26/34/11 28/35/11 27/36/11
f 27/37/12 28/38/12 32/39/12 31/40/12
f 31/36/13 32/35/13 30/34/13 29/33/13
f 29/40/14 30/39/14 26/38/14 25/37/14
f 27/41/10 31/42/10 29/43/10 25/44/10
f 32/42/7 28/41/7 26/44/7 30/43/7
f 33/45/11 34/46/11 36/47/11 35/48/11
f 35/49/12 36/50/12 40/51/12 39/52/12
f 39/48/13 40/47/13 38/46/13 37/45/13
f 37/52/14 38/51/14 34/50/14 33/49/14
f 35/53/10 39/54/10 37/55/10 33/56/10
f 40/54/7 36/53/7 34/56/7 38/55/7
f 41/57/11 42/58/11 44/59/11 43/60/11
f 43/61/12 44/62/12 48/63/12 47/64/12
f 47/60/13 48/59/13 46/58/13 45/57/13
f 45/64/14 46/63/14 42/62/14 41/61/14
f 43/65/10 47/66/10 45/67/10 41/68/10
f 48/66/7 44/65/7 42/68/7 46/67/7
