# Blender 5.2.0 LTS
# www.blender.org
mtllib SM_P1_HouseA.mtl
o SM_P1_HouseA
v -2.260000 0.000000 -0.040000
v -2.260000 0.040000 0.000000
v -2.300000 0.040000 -0.040000
v -2.260000 2.561719 0.000000
v -2.260000 2.600000 -0.040000
v -2.300000 2.560000 -0.040000
v -2.260000 0.000000 -5.160000
v -2.300000 0.040000 -5.160000
v -2.260000 0.040000 -5.200000
v 0.090000 0.675000 -0.560000
v 0.090000 0.715000 -0.600000
v 0.050000 0.715000 -0.560000
v -2.260000 2.600000 -5.160000
v -2.260000 2.560000 -5.200000
v -2.300000 2.560000 -5.160000
v 0.090000 1.985000 -0.600000
v 0.090000 2.025000 -0.560000
v 0.050000 1.985000 -0.560000
v -1.835000 2.085000 -0.600000
v -1.835000 2.125000 -0.560000
v -1.875000 2.085000 -0.560000
v 2.260000 0.000000 -0.040000
v 2.300000 0.040000 -0.040000
v 2.263734 0.044508 0.000000
v 2.260000 2.600000 -0.040000
v 2.263450 2.561788 0.000000
v 2.300000 2.560000 -0.040000
v 1.710000 0.675000 -0.560000
v 1.750000 0.715000 -0.560000
v 1.710000 0.715000 -0.600000
v 2.260000 0.000000 -5.160000
v 2.260000 0.040000 -5.200000
v 2.300000 0.040000 -5.160000
v 1.750000 1.985000 -0.560000
v 1.710000 2.025000 -0.560000
v 1.710000 1.985000 -0.600000
v 2.260000 2.600000 -5.160000
v 2.300000 2.560000 -5.160000
v 2.260000 2.560000 -5.200000
v -0.825000 2.085000 -0.560000
v -0.865000 2.125000 -0.560000
v -0.865000 2.085000 -0.600000
v -0.865000 2.125000 -0.040000
v -0.825000 2.085000 -0.040000
v -0.785000 2.165000 0.000000
v -1.915000 0.000000 -0.040000
v -1.875000 0.040000 -0.040000
v -1.915000 0.040000 0.000000
v -1.875000 2.085000 -0.040000
v -1.835000 2.125000 -0.040000
v -1.915000 2.165000 0.000000
v -0.825000 0.040000 -0.040000
v -0.785000 0.000000 -0.040000
v -0.785000 0.044334 0.000000
v -1.835000 0.040000 -0.600000
v -1.875000 0.040000 -0.560000
v -1.915000 0.000000 -0.640000
v -0.865000 0.040000 -0.600000
v -0.785000 0.000000 -0.640000
v -0.825000 0.040000 -0.560000
v 0.090000 0.675000 -0.040000
v 0.050000 0.715000 -0.040000
v 0.010000 0.630666 0.000000
v 1.750000 0.715000 -0.040000
v 1.710000 0.675000 -0.040000
v 1.786266 0.630492 0.000000
v 1.750000 1.985000 -0.040000
v 1.786550 2.063212 0.000000
v 1.710000 2.025000 -0.040000
v 0.090000 2.025000 -0.040000
v 0.010000 2.063281 0.000000
v 0.050000 1.985000 -0.040000
v -2.210000 2.600000 -0.090000
v -2.221417 2.642874 -0.050000
v -2.250000 2.640000 -0.090000
v -2.221702 4.949467 -0.050000
v -2.210000 5.000000 -0.090000
v -2.250000 4.960000 -0.090000
v -2.210000 2.600000 -5.110000
v -2.250000 2.640000 -5.110000
v -2.210000 2.640000 -5.150000
v 0.540000 3.125000 -0.560000
v 0.540000 3.165000 -0.600000
v 0.500000 3.165000 -0.560000
v -1.860000 3.125000 -0.560000
v -1.860000 3.165000 -0.600000
v -1.900000 3.165000 -0.560000
v 0.540000 4.335000 -0.600000
v 0.540000 4.375000 -0.560000
v 0.500000 4.335000 -0.560000
v -2.210000 5.000000 -5.110000
v -2.210000 4.960000 -5.150000
v -2.250000 4.960000 -5.110000
v -1.860000 4.335000 -0.600000
v -1.860000 4.375000 -0.560000
v -1.900000 4.335000 -0.560000
v 2.210000 2.600000 -0.090000
v 2.250000 2.640000 -0.090000
v 2.221417 2.642874 -0.050000
v 1.860000 3.125000 -0.560000
v 1.900000 3.165000 -0.560000
v 1.860000 3.165000 -0.600000
v 2.210000 5.000000 -0.090000
v 2.221702 4.949467 -0.050000
v 2.250000 4.960000 -0.090000
v 1.900000 4.335000 -0.560000
v 1.860000 4.375000 -0.560000
v 1.860000 4.335000 -0.600000
v 2.210000 2.600000 -5.110000
v 2.210000 2.640000 -5.150000
v 2.250000 2.640000 -5.110000
v -0.540000 3.125000 -0.560000
v -0.500000 3.165000 -0.560000
v -0.540000 3.165000 -0.600000
v 2.210000 5.000000 -5.110000
v 2.250000 4.960000 -5.110000
v 2.210000 4.960000 -5.150000
v -0.500000 4.335000 -0.560000
v -0.540000 4.375000 -0.560000
v -0.540000 4.335000 -0.600000
v -0.540000 4.375000 -0.090000
v -0.500000 4.335000 -0.090000
v -0.460000 4.421975 -0.050000
v -1.860000 3.125000 -0.090000
v -1.900000 3.165000 -0.090000
v -1.926937 3.084594 -0.050000
v -1.860000 4.375000 -0.090000
v -1.926462 4.422254 -0.050000
v -1.900000 4.335000 -0.090000
v -0.500000 3.165000 -0.090000
v -0.540000 3.125000 -0.090000
v -0.460000 3.084610 -0.050000
v 0.540000 4.375000 -0.090000
v 0.460000 4.421975 -0.050000
v 0.500000 4.335000 -0.090000
v 0.540000 3.125000 -0.090000
v 0.500000 3.165000 -0.090000
v 0.460000 3.084610 -0.050000
v 1.900000 3.165000 -0.090000
v 1.860000 3.125000 -0.090000
v 1.926937 3.084594 -0.050000
v 1.900000 4.335000 -0.090000
v 1.926462 4.422254 -0.050000
v 1.860000 4.375000 -0.090000
v -1.895000 2.015000 0.050000
v -1.895000 2.085000 0.050000
v -1.895000 2.015000 -0.090000
v -1.895000 2.085000 -0.090000
v -0.805000 2.015000 0.050000
v -0.805000 2.085000 0.050000
v -0.805000 2.015000 -0.090000
v -0.805000 2.085000 -0.090000
v -1.860000 0.000000 0.050000
v -1.860000 2.050000 0.050000
v -1.860000 0.000000 -0.090000
v -1.860000 2.050000 -0.090000
v -1.790000 0.000000 0.050000
v -1.790000 2.050000 0.050000
v -1.790000 0.000000 -0.090000
v -1.790000 2.050000 -0.090000
v -0.910000 0.000000 0.050000
v -0.910000 2.050000 0.050000
v -0.910000 0.000000 -0.090000
v -0.910000 2.050000 -0.090000
v -0.840000 0.000000 0.050000
v -0.840000 2.050000 0.050000
v -0.840000 0.000000 -0.090000
v -0.840000 2.050000 -0.090000
v -1.805000 0.020000 -0.070000
v -1.805000 2.030000 -0.070000
v -1.805000 0.020000 -0.130000
v -1.805000 2.030000 -0.130000
v -0.895000 0.020000 -0.070000
v -0.895000 2.030000 -0.070000
v -0.895000 0.020000 -0.130000
v -0.895000 2.030000 -0.130000
v -1.040000 0.955000 -0.135000
v -1.040000 1.095000 -0.135000
v -1.040000 0.955000 -0.185000
v -1.040000 1.095000 -0.185000
v -0.990000 0.955000 -0.135000
v -0.990000 1.095000 -0.135000
v -0.990000 0.955000 -0.185000
v -0.990000 1.095000 -0.185000
v -1.975000 0.000000 0.430000
v -1.975000 0.120000 0.430000
v -1.975000 0.000000 -0.070000
v -1.975000 0.120000 -0.070000
v -0.725000 0.000000 0.430000
v -0.725000 0.120000 0.430000
v -0.725000 0.000000 -0.070000
v -0.725000 0.120000 -0.070000
v 0.040000 1.945000 0.040000
v 0.040000 2.005000 0.040000
v 0.040000 1.945000 -0.080000
v 0.040000 2.005000 -0.080000
v 1.760000 1.945000 0.040000
v 1.760000 2.005000 0.040000
v 1.760000 1.945000 -0.080000
v 1.760000 2.005000 -0.080000
v 0.040000 0.695000 0.040000
v 0.040000 0.755000 0.040000
v 0.040000 0.695000 -0.080000
v 0.040000 0.755000 -0.080000
v 1.760000 0.695000 0.040000
v 1.760000 0.755000 0.040000
v 1.760000 0.695000 -0.080000
v 1.760000 0.755000 -0.080000
v 0.070000 0.725000 0.040000
v 0.070000 1.975000 0.040000
v 0.070000 0.725000 -0.080000
v 0.070000 1.975000 -0.080000
v 0.130000 0.725000 0.040000
v 0.130000 1.975000 0.040000
v 0.130000 0.725000 -0.080000
v 0.130000 1.975000 -0.080000
v 1.670000 0.725000 0.040000
v 1.670000 1.975000 0.040000
v 1.670000 0.725000 -0.080000
v 1.670000 1.975000 -0.080000
v 1.730000 0.725000 0.040000
v 1.730000 1.975000 0.040000
v 1.730000 0.725000 -0.080000
v 1.730000 1.975000 -0.080000
v 0.880000 0.725000 -0.015000
v 0.880000 1.975000 -0.015000
v 0.880000 0.725000 -0.065000
v 0.880000 1.975000 -0.065000
v 0.920000 0.725000 -0.015000
v 0.920000 1.975000 -0.015000
v 0.920000 0.725000 -0.065000
v 0.920000 1.975000 -0.065000
v 0.100000 1.330000 -0.015000
v 0.100000 1.370000 -0.015000
v 0.100000 1.330000 -0.065000
v 0.100000 1.370000 -0.065000
v 1.700000 1.330000 -0.015000
v 1.700000 1.370000 -0.015000
v 1.700000 1.330000 -0.065000
v 1.700000 1.370000 -0.065000
v 0.100000 0.725000 -0.105000
v 0.100000 1.975000 -0.105000
v 0.100000 0.725000 -0.135000
v 0.100000 1.975000 -0.135000
v 1.700000 0.725000 -0.105000
v 1.700000 1.975000 -0.105000
v 1.700000 0.725000 -0.135000
v 1.700000 1.975000 -0.135000
v 0.010000 0.650000 0.180000
v 0.010000 0.720000 0.180000
v 0.010000 0.650000 -0.060000
v 0.010000 0.720000 -0.060000
v 1.790000 0.650000 0.180000
v 1.790000 0.720000 0.180000
v 1.790000 0.650000 -0.060000
v 1.790000 0.720000 -0.060000
v -1.910000 4.295000 0.040000
v -1.910000 4.355000 0.040000
v -1.910000 4.295000 -0.080000
v -1.910000 4.355000 -0.080000
v -0.490000 4.295000 0.040000
v -0.490000 4.355000 0.040000
v -0.490000 4.295000 -0.080000
v -0.490000 4.355000 -0.080000
v -1.910000 3.145000 0.040000
v -1.910000 3.205000 0.040000
v -1.910000 3.145000 -0.080000
v -1.910000 3.205000 -0.080000
v -0.490000 3.145000 0.040000
v -0.490000 3.205000 0.040000
v -0.490000 3.145000 -0.080000
v -0.490000 3.205000 -0.080000
v -1.880000 3.175000 0.040000
v -1.880000 4.325000 0.040000
v -1.880000 3.175000 -0.080000
v -1.880000 4.325000 -0.080000
v -1.820000 3.175000 0.040000
v -1.820000 4.325000 0.040000
v -1.820000 3.175000 -0.080000
v -1.820000 4.325000 -0.080000
v -0.580000 3.175000 0.040000
v -0.580000 4.325000 0.040000
v -0.580000 3.175000 -0.080000
v -0.580000 4.325000 -0.080000
v -0.520000 3.175000 0.040000
v -0.520000 4.325000 0.040000
v -0.520000 3.175000 -0.080000
v -0.520000 4.325000 -0.080000
v -1.220000 3.175000 -0.015000
v -1.220000 4.325000 -0.015000
v -1.220000 3.175000 -0.065000
v -1.220000 4.325000 -0.065000
v -1.180000 3.175000 -0.015000
v -1.180000 4.325000 -0.015000
v -1.180000 3.175000 -0.065000
v -1.180000 4.325000 -0.065000
v -1.850000 3.730000 -0.015000
v -1.850000 3.770000 -0.015000
v -1.850000 3.730000 -0.065000
v -1.850000 3.770000 -0.065000
v -0.550000 3.730000 -0.015000
v -0.550000 3.770000 -0.015000
v -0.550000 3.730000 -0.065000
v -0.550000 3.770000 -0.065000
v -1.850000 3.175000 -0.105000
v -1.850000 4.325000 -0.105000
v -1.850000 3.175000 -0.135000
v -1.850000 4.325000 -0.135000
v -0.550000 3.175000 -0.105000
v -0.550000 4.325000 -0.105000
v -0.550000 3.175000 -0.135000
v -0.550000 4.325000 -0.135000
v -1.940000 3.100000 0.180000
v -1.940000 3.170000 0.180000
v -1.940000 3.100000 -0.060000
v -1.940000 3.170000 -0.060000
v -0.460000 3.100000 0.180000
v -0.460000 3.170000 0.180000
v -0.460000 3.100000 -0.060000
v -0.460000 3.170000 -0.060000
v 0.490000 4.295000 0.040000
v 0.490000 4.355000 0.040000
v 0.490000 4.295000 -0.080000
v 0.490000 4.355000 -0.080000
v 1.910000 4.295000 0.040000
v 1.910000 4.355000 0.040000
v 1.910000 4.295000 -0.080000
v 1.910000 4.355000 -0.080000
v 0.490000 3.145000 0.040000
v 0.490000 3.205000 0.040000
v 0.490000 3.145000 -0.080000
v 0.490000 3.205000 -0.080000
v 1.910000 3.145000 0.040000
v 1.910000 3.205000 0.040000
v 1.910000 3.145000 -0.080000
v 1.910000 3.205000 -0.080000
v 0.520000 3.175000 0.040000
v 0.520000 4.325000 0.040000
v 0.520000 3.175000 -0.080000
v 0.520000 4.325000 -0.080000
v 0.580000 3.175000 0.040000
v 0.580000 4.325000 0.040000
v 0.580000 3.175000 -0.080000
v 0.580000 4.325000 -0.080000
v 1.820000 3.175000 0.040000
v 1.820000 4.325000 0.040000
v 1.820000 3.175000 -0.080000
v 1.820000 4.325000 -0.080000
v 1.880000 3.175000 0.040000
v 1.880000 4.325000 0.040000
v 1.880000 3.175000 -0.080000
v 1.880000 4.325000 -0.080000
v 1.180000 3.175000 -0.015000
v 1.180000 4.325000 -0.015000
v 1.180000 3.175000 -0.065000
v 1.180000 4.325000 -0.065000
v 1.220000 3.175000 -0.015000
v 1.220000 4.325000 -0.015000
v 1.220000 3.175000 -0.065000
v 1.220000 4.325000 -0.065000
v 0.550000 3.730000 -0.015000
v 0.550000 3.770000 -0.015000
v 0.550000 3.730000 -0.065000
v 0.550000 3.770000 -0.065000
v 1.850000 3.730000 -0.015000
v 1.850000 3.770000 -0.015000
v 1.850000 3.730000 -0.065000
v 1.850000 3.770000 -0.065000
v 0.550000 3.175000 -0.105000
v 0.550000 4.325000 -0.105000
v 0.550000 3.175000 -0.135000
v 0.550000 4.325000 -0.135000
v 1.850000 3.175000 -0.105000
v 1.850000 4.325000 -0.105000
v 1.850000 3.175000 -0.135000
v 1.850000 4.325000 -0.135000
v 0.460000 3.100000 0.180000
v 0.460000 3.170000 0.180000
v 0.460000 3.100000 -0.060000
v 0.460000 3.170000 -0.060000
v 1.940000 3.100000 0.180000
v 1.940000 3.170000 0.180000
v 1.940000 3.100000 -0.060000
v 1.940000 3.170000 -0.060000
v -2.330000 2.530000 0.080000
v -2.330000 2.670000 0.080000
v -2.330000 2.530000 -0.120000
v -2.330000 2.670000 -0.120000
v 2.330000 2.530000 0.080000
v 2.330000 2.670000 0.080000
v 2.330000 2.530000 -0.120000
v 2.330000 2.670000 -0.120000
v -1.400000 2.590000 0.900000
v -1.400000 2.710000 0.900000
v -1.400000 2.590000 0.000000
v -1.400000 2.710000 0.000000
v 1.400000 2.590000 0.900000
v 1.400000 2.710000 0.900000
v 1.400000 2.590000 0.000000
v 1.400000 2.710000 0.000000
v -1.285000 2.650000 0.875000
v -1.285000 3.350000 0.875000
v -1.285000 2.650000 0.825000
v -1.285000 3.350000 0.825000
v -1.235000 2.650000 0.875000
v -1.235000 3.350000 0.875000
v -1.235000 2.650000 0.825000
v -1.235000 3.350000 0.825000
v -0.865000 2.650000 0.875000
v -0.865000 3.350000 0.875000
v -0.865000 2.650000 0.825000
v -0.865000 3.350000 0.825000
v -0.815000 2.650000 0.875000
v -0.815000 3.350000 0.875000
v -0.815000 2.650000 0.825000
v -0.815000 3.350000 0.825000
v -0.445000 2.650000 0.875000
v -0.445000 3.350000 0.875000
v -0.445000 2.650000 0.825000
v -0.445000 3.350000 0.825000
v -0.395000 2.650000 0.875000
v -0.395000 3.350000 0.875000
v -0.395000 2.650000 0.825000
v -0.395000 3.350000 0.825000
v -0.025000 2.650000 0.875000
v -0.025000 3.350000 0.875000
v -0.025000 2.650000 0.825000
v -0.025000 3.350000 0.825000
v 0.025000 2.650000 0.875000
v 0.025000 3.350000 0.875000
v 0.025000 2.650000 0.825000
v 0.025000 3.350000 0.825000
v 0.395000 2.650000 0.875000
v 0.395000 3.350000 0.875000
v 0.395000 2.650000 0.825000
v 0.395000 3.350000 0.825000
v 0.445000 2.650000 0.875000
v 0.445000 3.350000 0.875000
v 0.445000 2.650000 0.825000
v 0.445000 3.350000 0.825000
v 0.815000 2.650000 0.875000
v 0.815000 3.350000 0.875000
v 0.815000 2.650000 0.825000
v 0.815000 3.350000 0.825000
v 0.865000 2.650000 0.875000
v 0.865000 3.350000 0.875000
v 0.865000 2.650000 0.825000
v 0.865000 3.350000 0.825000
v 1.235000 2.650000 0.875000
v 1.235000 3.350000 0.875000
v 1.235000 2.650000 0.825000
v 1.235000 3.350000 0.825000
v 1.285000 2.650000 0.875000
v 1.285000 3.350000 0.875000
v 1.285000 2.650000 0.825000
v 1.285000 3.350000 0.825000
v -1.450000 3.320000 0.880000
v -1.450000 3.380000 0.880000
v -1.450000 3.320000 0.820000
v -1.450000 3.380000 0.820000
v 1.450000 3.320000 0.880000
v 1.450000 3.380000 0.880000
v 1.450000 3.320000 0.820000
v 1.450000 3.380000 0.820000
v -2.800000 5.000000 0.500000
v 2.800000 5.000000 0.500000
v 0.000000 6.400000 0.500000
v -2.800000 5.000000 -5.700000
v 2.800000 5.000000 -5.700000
v 0.000000 6.400000 -5.700000
v 2.120000 0.000000 0.010000
v 2.120000 5.000000 0.010000
v 2.120000 0.000000 -0.110000
v 2.120000 5.000000 -0.110000
v 2.240000 0.000000 0.010000
v 2.240000 5.000000 0.010000
v 2.240000 0.000000 -0.110000
v 2.240000 5.000000 -0.110000
vn -0.5773 -0.5773 0.5774
vn -0.5856 0.5856 0.5604
vn -0.5774 -0.5774 -0.5774
vn 0.5773 0.5774 0.5773
vn -0.5774 0.5774 -0.5774
vn 0.5773 -0.5774 0.5773
vn 0.5736 -0.5736 0.5847
vn 0.6024 0.6024 0.5236
vn -0.5774 0.5774 0.5773
vn 0.5773 -0.5773 -0.5774
vn -0.5773 -0.5774 0.5773
vn 0.5774 0.5774 -0.5774
vn -0.5773 -0.5774 0.5774
vn -0.3015 -0.3015 0.9045
vn 0.5773 -0.5773 0.5774
vn 0.3015 -0.3015 0.9045
vn -0.5565 -0.5565 0.6169
vn 0.3015 -0.9045 0.3015
vn -0.3015 -0.9045 0.3015
vn 0.2928 0.2928 0.9102
vn -0.2999 0.2999 0.9056
vn -0.3126 -0.3126 0.8970
vn 0.3051 -0.3051 0.9021
vn -0.7071 -0.7071 -0.0000
vn -0.7071 -0.0000 0.7071
vn -0.7071 0.7071 -0.0000
vn -0.7071 -0.0000 -0.7071
vn -0.0000 -0.7071 -0.7071
vn -0.0000 0.7071 -0.7071
vn 0.7071 -0.0000 -0.7071
vn 0.7071 -0.7071 -0.0000
vn 0.7071 0.7071 -0.0000
vn 0.7395 -0.0000 0.6731
vn -0.7395 0.0001 0.6731
vn -0.0000 -0.7228 0.6911
vn -0.0000 0.7228 0.6911
vn -0.0000 -0.7071 0.7071
vn 0.7071 -0.0000 0.7071
vn -0.0000 -0.6692 0.7431
vn -0.0000 0.6692 0.7431
vn -0.0000 0.7071 0.7071
vn -0.0000 -1.0000 -0.0000
vn -1.0000 -0.0000 -0.0000
vn -0.0000 -0.0000 1.0000
vn -0.0000 1.0000 -0.0000
vn -0.0000 -0.0000 -1.0000
vn 1.0000 -0.0000 -0.0000
vn -0.6180 -0.6180 0.4860
vn -0.5830 0.5830 0.5659
vn 0.6180 -0.6180 0.4860
vn -0.5773 0.5774 0.5773
vn 0.5830 0.5830 0.5659
vn 0.5774 -0.5774 -0.5774
vn -0.2878 -0.2878 0.9135
vn 0.3297 0.3297 0.8847
vn 0.3149 -0.3149 0.8953
vn -0.3007 0.3007 0.9051
vn 0.2878 -0.2878 0.9135
vn 0.3007 0.3007 0.9051
vn -0.3297 0.3297 0.8847
vn -0.3149 -0.3149 0.8953
vn -0.8150 -0.0001 0.5795
vn 0.8150 -0.0001 0.5795
vn -0.8317 -0.0002 0.5552
vn 0.0001 -0.6472 0.7623
vn -0.0000 0.6207 0.7841
vn -0.0001 -0.6472 0.7623
vn -0.0000 0.7036 0.7106
vn -0.0000 -0.6822 0.7312
vn 0.8317 -0.0002 0.5552
vn -0.4472 0.8944 -0.0000
vn 0.4472 0.8944 -0.0000
vt 0.127174 0.748077
vt 0.127174 0.750000
vt 0.125000 0.748077
vt 0.621319 0.000000
vt 0.625000 0.001923
vt 0.621154 0.001923
vt 0.127174 0.501923
vt 0.125000 0.501923
vt 0.127174 0.500000
vt 0.130882 0.508333
vt 0.130882 0.500000
vt 0.125000 0.508333
vt 0.625000 0.249443
vt 0.621154 0.251630
vt 0.621154 0.248077
vt 0.617593 0.254412
vt 0.625000 0.246405
vt 0.617593 0.241667
vt 0.620349 0.257143
vt 0.625000 0.247619
vt 0.620349 0.241667
vt 0.372826 0.748077
vt 0.377885 0.748077
vt 0.376779 0.751183
vt 0.626087 0.750125
vt 0.621326 0.751986
vt 0.621613 0.748829
vt 0.369118 0.508333
vt 0.380556 0.508333
vt 0.375763 0.497059
vt 0.372826 0.501923
vt 0.375836 0.498913
vt 0.377885 0.501923
vt 0.617593 0.506250
vt 0.627941 0.501225
vt 0.617593 0.494118
vt 0.626087 0.499875
vt 0.621154 0.501442
vt 0.621154 0.497826
vt 0.620349 0.506250
vt 0.629762 0.499405
vt 0.620349 0.490476
vt 0.579327 0.922011
vt 0.575481 0.919837
vt 0.583173 0.917663
vt 0.145924 0.748077
vt 0.148098 0.748077
vt 0.145924 0.750000
vt 0.575481 0.976902
vt 0.579327 0.974728
vt 0.583173 0.979076
vt 0.205163 0.748077
vt 0.207337 0.748077
vt 0.207337 0.750000
vt 0.150272 0.721154
vt 0.148098 0.723077
vt 0.145924 0.719231
vt 0.202989 0.721154
vt 0.207337 0.719231
vt 0.205163 0.723077
vt 0.439904 0.870109
vt 0.443750 0.872283
vt 0.435641 0.874457
vt 0.441827 0.779891
vt 0.439904 0.782065
vt 0.435624 0.777920
vt 0.567789 0.779891
vt 0.573386 0.777905
vt 0.569712 0.782065
vt 0.569712 0.870109
vt 0.573392 0.874456
vt 0.565865 0.872283
vt 0.378846 0.000000
vt 0.378846 0.001923
vt 0.378846 0.248077
vt 0.378846 0.252174
vt 0.621319 0.997826
vt 0.625000 0.997826
vt 0.378846 0.976902
vt 0.378846 0.979076
vt 0.378846 0.919837
vt 0.379263 0.917663
vt 0.382558 0.241667
vt 0.382558 0.259524
vt 0.625000 0.133333
vt 0.620349 0.133333
vt 0.382558 0.490476
vt 0.382558 0.508333
vt 0.620349 0.616667
vt 0.634524 0.616667
vt 0.125000 0.616667
vt 0.130882 0.616667
vt 0.382407 0.255882
vt 0.382407 0.241667
vt 0.617593 0.133333
vt 0.617593 0.616667
vt 0.630882 0.616667
vt 0.369118 0.616667
vt 0.382407 0.616667
vt 0.378846 0.997826
vt 0.872826 0.501923
vt 0.872826 0.748077
vt 0.382407 0.133333
vt 0.869118 0.616667
vt 0.869118 0.508333
vt 0.382558 0.133333
vt 0.865476 0.508333
vt 0.865476 0.616667
vt 0.382558 0.616667
vt 0.127222 0.748039
vt 0.126588 0.750000
vt 0.125000 0.748039
vt 0.619736 0.000000
vt 0.625000 0.001961
vt 0.620833 0.001961
vt 0.127222 0.501961
vt 0.125000 0.501961
vt 0.127222 0.500000
vt 0.132143 0.508333
vt 0.132143 0.500000
vt 0.132143 0.500000
vt 0.617000 0.255357
vt 0.625000 0.246825
vt 0.617000 0.241667
vt 0.625000 0.249434
vt 0.620833 0.251667
vt 0.620833 0.248039
vt 0.617000 0.255357
vt 0.372778 0.748039
vt 0.378125 0.748039
vt 0.377044 0.750953
vt 0.367857 0.508333
vt 0.381000 0.508333
vt 0.375429 0.496429
vt 0.626111 0.750131
vt 0.619736 0.751572
vt 0.621082 0.748766
vt 0.617000 0.506250
vt 0.628571 0.500595
vt 0.617000 0.492857
vt 0.372778 0.501961
vt 0.375972 0.498889
vt 0.378125 0.501961
vt 0.626111 0.499869
vt 0.620833 0.501471
vt 0.620833 0.497778
vt 0.617000 0.492857
vt 0.559896 0.905000
vt 0.555729 0.902778
vt 0.564789 0.900556
vt 0.429688 0.979445
vt 0.433854 0.980556
vt 0.425479 0.982052
vt 0.559896 0.979445
vt 0.564818 0.982026
vt 0.555729 0.980556
vt 0.433854 0.902778
vt 0.429688 0.905000
vt 0.425480 0.900555
vt 0.559896 0.845000
vt 0.564789 0.849444
vt 0.555729 0.847222
vt 0.429688 0.845000
vt 0.433854 0.847222
vt 0.425480 0.849444
vt 0.431771 0.769444
vt 0.429687 0.771667
vt 0.425479 0.767948
vt 0.557813 0.769444
vt 0.564818 0.767974
vt 0.559896 0.771667
vt 0.379466 0.000000
vt 0.379167 0.001961
vt 0.379167 0.248039
vt 0.379167 0.252222
vt 0.619736 0.998428
vt 0.625000 0.997778
vt 0.125000 0.606250
vt 0.132143 0.606250
vt 0.383000 0.257143
vt 0.383000 0.241667
vt 0.625000 0.143750
vt 0.617000 0.143750
vt 0.617000 0.606250
vt 0.632143 0.606250
vt 0.367857 0.606250
vt 0.383000 0.606250
vt 0.132143 0.606250
vt 0.383000 0.257143
vt 0.632143 0.606250
vt 0.379466 0.998412
vt 0.872778 0.501961
vt 0.872778 0.748039
vt 0.383000 0.143750
vt 0.867857 0.606250
vt 0.867857 0.508333
vt 0.867857 0.606250
vt 0.375000 0.000000
vt 0.625000 0.000000
vt 0.625000 0.250000
vt 0.375000 0.250000
vt 0.625000 0.500000
vt 0.375000 0.500000
vt 0.625000 0.750000
vt 0.375000 0.750000
vt 0.625000 1.000000
vt 0.375000 1.000000
vt 0.125000 0.500000
vt 0.125000 0.750000
vt 0.875000 0.500000
vt 0.875000 0.750000
vt 0.000000 0.000000
s 0
usemtl SURF_Plaster_Wall
f 1/1/1 2/2/1 3/3/1
f 4/4/2 5/5/2 6/6/2
f 7/7/3 8/8/3 9/9/3
f 10/10/4 11/11/4 12/12/4
f 13/13/5 14/14/5 15/15/5
f 16/16/6 17/17/6 18/18/6
f 19/19/6 20/20/6 21/21/6
f 22/22/7 23/23/7 24/24/7
f 25/25/8 26/26/8 27/27/8
f 28/28/9 29/29/9 30/30/9
f 31/31/10 32/32/10 33/33/10
f 34/34/11 35/35/11 36/36/11
f 37/37/12 38/38/12 39/39/12
f 40/40/13 41/41/13 42/42/13
f 43/43/14 44/44/14 45/45/14
f 46/46/15 47/47/15 48/48/15
f 49/49/16 50/50/16 51/51/16
f 52/52/17 53/53/17 54/54/17
f 55/55/18 56/56/18 57/57/18
f 58/58/19 59/59/19 60/60/19
f 61/61/20 62/62/20 63/63/20
f 64/64/21 65/65/21 66/66/21
f 67/67/22 68/68/22 69/69/22
f 70/70/23 71/71/23 72/72/23
f 3/3/24 8/8/24 7/7/24 1/1/24
f 2/73/25 4/4/25 6/6/25 3/74/25
f 5/5/26 13/13/26 15/15/26 6/6/26
f 8/75/27 15/15/27 14/14/27 9/76/27
f 9/9/28 32/32/28 31/31/28 7/7/28
f 13/13/29 37/37/29 39/39/29 14/14/29
f 32/32/30 39/39/30 38/38/30 33/33/30
f 22/22/31 31/31/31 33/33/31 23/23/31
f 27/27/32 38/38/32 37/37/32 25/25/32
f 23/23/33 27/27/33 26/26/33 24/24/33
f 66/66/34 68/68/34 67/67/34 64/64/34
f 68/68/35 71/71/35 70/70/35 69/69/35
f 4/77/36 26/26/36 25/25/36 5/78/36
f 1/1/37 46/46/37 48/48/37 2/2/37
f 47/79/38 49/49/38 51/51/38 48/80/38
f 45/45/37 51/51/37 50/50/37 43/43/37
f 44/44/25 52/81/25 54/82/25 45/45/25
f 24/24/39 54/54/39 53/53/39 22/22/39
f 63/63/40 66/66/40 65/65/40 61/61/40
f 62/62/38 72/72/38 71/71/38 63/63/38
f 57/57/37 59/59/37 58/58/37 55/55/37
f 46/46/31 57/57/31 56/56/31 47/47/31
f 52/52/24 60/60/24 59/59/24 53/53/24
f 21/21/38 56/83/38 55/84/38 19/19/38
f 20/20/31 50/85/31 49/86/31 21/21/31
f 42/42/25 58/87/25 60/88/25 40/40/25
f 19/19/37 42/42/37 41/41/37 20/20/37
f 40/40/24 44/89/24 43/90/24 41/41/24
f 12/12/32 62/91/32 61/92/32 10/10/32
f 11/93/38 16/16/38 18/18/38 12/94/38
f 17/17/31 70/85/31 72/95/31 18/18/31
f 10/10/41 28/28/41 30/30/41 11/11/41
f 29/29/25 34/34/25 36/36/25 30/30/25
f 16/16/37 36/36/37 35/35/37 17/17/37
f 34/34/24 67/96/24 69/97/24 35/35/24
f 28/28/26 65/98/26 64/99/26 29/29/26
f 57/57/42 46/46/42 1/1/42 7/7/42 31/31/42 22/22/42 53/53/42 59/59/42
f 3/74/43 6/6/43 15/15/43 8/75/43
f 68/68/44 26/26/44 4/77/44 2/100/44 48/80/44 51/51/44 45/45/44 54/82/44 24/24/44 66/66/44 63/63/44 71/71/44
f 37/37/45 13/101/45 5/102/45 25/25/45
f 9/76/46 14/14/46 39/39/46 32/32/46
f 65/98/45 28/28/45 10/10/45 61/92/45
f 62/103/47 12/94/47 18/18/47 72/95/47
f 11/93/44 30/30/44 36/36/44 16/16/44
f 70/104/42 17/105/42 35/35/42 69/97/42
f 58/87/44 42/42/44 19/19/44 55/84/44
f 56/83/47 21/21/47 49/86/47 47/106/47
f 20/107/42 41/41/42 43/90/42 50/108/42
f 33/33/47 38/38/47 27/27/47 23/23/47
f 66/66/44 24/24/44 26/26/44 68/68/44
f 34/34/43 29/29/43 64/99/43 67/96/43
f 44/89/43 40/40/43 60/88/43 52/109/43
f 73/110/48 74/111/48 75/112/48
f 76/113/49 77/114/49 78/115/49
f 79/116/3 80/117/3 81/118/3
f 82/119/4 83/120/4 84/12/4
f 85/119/4 86/121/4 87/12/4
f 88/122/6 89/123/6 90/124/6
f 91/125/5 92/126/5 93/127/5
f 94/128/6 95/123/6 96/124/6
f 97/129/50 98/130/50 99/131/50
f 100/132/51 101/133/51 102/134/51
f 103/135/52 104/136/52 105/137/52
f 106/138/11 107/139/11 108/140/11
f 109/141/53 110/142/53 111/143/53
f 112/132/51 113/133/51 114/134/51
f 115/144/12 116/145/12 117/146/12
f 118/138/11 119/139/11 120/147/11
f 121/148/54 122/149/54 123/150/54
f 124/151/55 125/152/55 126/153/55
f 127/154/56 128/155/56 129/156/56
f 130/157/57 131/158/57 132/159/57
f 133/160/58 134/161/58 135/162/58
f 136/163/59 137/164/59 138/165/59
f 139/166/60 140/167/60 141/168/60
f 142/169/61 143/170/61 144/171/61
f 75/112/24 80/117/24 79/116/24 73/110/24
f 74/172/62 76/113/62 78/115/62 75/173/62
f 77/114/26 91/125/26 93/127/26 78/115/26
f 80/174/27 93/127/27 92/126/27 81/175/27
f 81/118/28 110/142/28 109/141/28 79/116/28
f 91/125/29 115/144/29 117/146/29 92/126/29
f 110/142/30 117/146/30 116/145/30 111/143/30
f 97/129/31 109/141/31 111/143/31 98/130/31
f 105/137/32 116/145/32 115/144/32 103/135/32
f 98/130/63 105/137/63 104/136/63 99/131/63
f 141/168/64 143/170/64 142/169/64 139/166/64
f 133/160/65 144/171/65 143/170/65 134/161/65
f 76/176/66 104/136/66 103/135/66 77/177/66
f 123/150/67 128/155/67 127/154/67 121/148/67
f 122/149/25 130/157/25 132/159/25 123/150/25
f 126/153/68 132/159/68 131/158/68 124/151/68
f 73/110/69 97/129/69 99/131/69 74/111/69
f 138/165/68 141/168/68 140/167/68 136/163/68
f 134/161/38 138/165/38 137/164/38 135/162/38
f 125/152/70 129/156/70 128/155/70 126/153/70
f 87/12/32 125/178/32 124/179/32 85/119/32
f 86/180/38 94/128/38 96/124/38 87/181/38
f 95/123/31 127/182/31 129/183/31 96/124/31
f 85/119/41 112/132/41 114/134/41 86/121/41
f 113/133/25 118/138/25 120/147/25 114/134/25
f 94/128/37 120/147/37 119/139/37 95/123/37
f 118/138/24 122/184/24 121/185/24 119/139/24
f 112/132/26 131/186/26 130/187/26 113/133/26
f 84/12/32 137/178/32 136/188/32 82/119/32
f 83/189/38 88/122/38 90/124/38 84/181/38
f 89/123/31 133/182/31 135/183/31 90/124/31
f 82/119/41 100/132/41 102/134/41 83/120/41
f 101/133/25 106/138/25 108/140/25 102/134/25
f 88/122/37 108/140/37 107/139/37 89/123/37
f 106/138/24 142/184/24 144/190/24 107/139/24
f 100/132/26 140/186/26 139/187/26 101/133/26
f 79/116/42 109/141/42 97/129/42 73/110/42
f 75/173/43 78/115/43 93/127/43 80/174/43
f 128/155/44 76/176/44 74/191/44 126/153/44
f 143/170/44 104/136/44 76/176/44 128/155/44 123/150/44 132/159/44 126/153/44 74/191/44 99/131/44 141/168/44 138/165/44 134/161/44
f 115/144/45 91/192/45 77/193/45 103/135/45
f 81/175/46 92/126/46 117/146/46 110/142/46
f 140/186/45 100/132/45 82/119/45 136/188/45
f 84/181/47 90/124/47 135/183/47 137/194/47
f 83/189/44 102/134/44 108/140/44 88/122/44
f 131/186/45 112/132/45 85/119/45 124/179/45
f 87/181/47 96/124/47 129/183/47 125/194/47
f 86/180/44 114/134/44 120/147/44 94/128/44
f 133/195/42 89/196/42 107/139/42 144/190/42
f 127/197/42 95/196/42 119/139/42 121/185/42
f 111/143/47 116/145/47 105/137/47 98/130/47
f 141/168/44 99/131/44 104/136/44 143/170/44
f 106/138/43 101/133/43 139/187/43 142/184/43
f 118/138/43 113/133/43 130/187/43 122/184/43
usemtl SURF_Wood_Dark
f 145/198/43 146/199/43 148/200/43 147/201/43
f 147/201/46 148/200/46 152/202/46 151/203/46
f 151/203/47 152/202/47 150/204/47 149/205/47
f 149/205/44 150/204/44 146/206/44 145/207/44
f 147/208/42 151/203/42 149/205/42 145/209/42
f 152/202/45 148/210/45 146/211/45 150/204/45
f 153/198/43 154/199/43 156/200/43 155/201/43
f 155/201/46 156/200/46 160/202/46 159/203/46
f 159/203/47 160/202/47 158/204/47 157/205/47
f 157/205/44 158/204/44 154/206/44 153/207/44
f 155/208/42 159/203/42 157/205/42 153/209/42
f 160/202/45 156/210/45 154/211/45 158/204/45
f 161/198/43 162/199/43 164/200/43 163/201/43
f 163/201/46 164/200/46 168/202/46 167/203/46
f 167/203/47 168/202/47 166/204/47 165/205/47
f 165/205/44 166/204/44 162/206/44 161/207/44
f 163/208/42 167/203/42 165/205/42 161/209/42
f 168/202/45 164/210/45 162/211/45 166/204/45
f 193/198/43 194/199/43 196/200/43 195/201/43
f 195/201/46 196/200/46 200/202/46 199/203/46
f 199/203/47 200/202/47 198/204/47 197/205/47
f 197/205/44 198/204/44 194/206/44 193/207/44
f 195/208/42 199/203/42 197/205/42 193/209/42
f 200/202/45 196/210/45 194/211/45 198/204/45
f 201/198/43 202/199/43 204/200/43 203/201/43
f 203/201/46 204/200/46 208/202/46 207/203/46
f 207/203/47 208/202/47 206/204/47 205/205/47
f 205/205/44 206/204/44 202/206/44 201/207/44
f 203/208/42 207/203/42 205/205/42 201/209/42
f 208/202/45 204/210/45 202/211/45 206/204/45
f 209/198/43 210/199/43 212/200/43 211/201/43
f 211/201/46 212/200/46 216/202/46 215/203/46
f 215/203/47 216/202/47 214/204/47 213/205/47
f 213/205/44 214/204/44 210/206/44 209/207/44
f 211/208/42 215/203/42 213/205/42 209/209/42
f 216/202/45 212/210/45 210/211/45 214/204/45
f 217/198/43 218/199/43 220/200/43 219/201/43
f 219/201/46 220/200/46 224/202/46 223/203/46
f 223/203/47 224/202/47 222/204/47 221/205/47
f 221/205/44 222/204/44 218/206/44 217/207/44
f 219/208/42 223/203/42 221/205/42 217/209/42
f 224/202/45 220/210/45 218/211/45 222/204/45
f 225/198/43 226/199/43 228/200/43 227/201/43
f 227/201/46 228/200/46 232/202/46 231/203/46
f 231/203/47 232/202/47 230/204/47 229/205/47
f 229/205/44 230/204/44 226/206/44 225/207/44
f 227/208/42 231/203/42 229/205/42 225/209/42
f 232/202/45 228/210/45 226/211/45 230/204/45
f 233/198/43 234/199/43 236/200/43 235/201/43
f 235/201/46 236/200/46 240/202/46 239/203/46
f 239/203/47 240/202/47 238/204/47 237/205/47
f 237/205/44 238/204/44 234/206/44 233/207/44
f 235/208/42 239/203/42 237/205/42 233/209/42
f 240/202/45 236/210/45 234/211/45 238/204/45
f 257/198/43 258/199/43 260/200/43 259/201/43
f 259/201/46 260/200/46 264/202/46 263/203/46
f 263/203/47 264/202/47 262/204/47 261/205/47
f 261/205/44 262/204/44 258/206/44 257/207/44
f 259/208/42 263/203/42 261/205/42 257/209/42
f 264/202/45 260/210/45 258/211/45 262/204/45
f 265/198/43 266/199/43 268/200/43 267/201/43
f 267/201/46 268/200/46 272/202/46 271/203/46
f 271/203/47 272/202/47 270/204/47 269/205/47
f 269/205/44 270/204/44 266/206/44 265/207/44
f 267/208/42 271/203/42 269/205/42 265/209/42
f 272/202/45 268/210/45 266/211/45 270/204/45
f 273/198/43 274/199/43 276/200/43 275/201/43
f 275/201/46 276/200/46 280/202/46 279/203/46
f 279/203/47 280/202/47 278/204/47 277/205/47
f 277/205/44 278/204/44 274/206/44 273/207/44
f 275/208/42 279/203/42 277/205/42 273/209/42
f 280/202/45 276/210/45 274/211/45 278/204/45
f 281/198/43 282/199/43 284/200/43 283/201/43
f 283/201/46 284/200/46 288/202/46 287/203/46
f 287/203/47 288/202/47 286/204/47 285/205/47
f 285/205/44 286/204/44 282/206/44 281/207/44
f 283/208/42 287/203/42 285/205/42 281/209/42
f 288/202/45 284/210/45 282/211/45 286/204/45
f 289/198/43 290/199/43 292/200/43 291/201/43
f 291/201/46 292/200/46 296/202/46 295/203/46
f 295/203/47 296/202/47 294/204/47 293/205/47
f 293/205/44 294/204/44 290/206/44 289/207/44
f 291/208/42 295/203/42 293/205/42 289/209/42
f 296/202/45 292/210/45 290/211/45 294/204/45
f 297/198/43 298/199/43 300/200/43 299/201/43
f 299/201/46 300/200/46 304/202/46 303/203/46
f 303/203/47 304/202/47 302/204/47 301/205/47
f 301/205/44 302/204/44 298/206/44 297/207/44
f 299/208/42 303/203/42 301/205/42 297/209/42
f 304/202/45 300/210/45 298/211/45 302/204/45
f 321/198/43 322/199/43 324/200/43 323/201/43
f 323/201/46 324/200/46 328/202/46 327/203/46
f 327/203/47 328/202/47 326/204/47 325/205/47
f 325/205/44 326/204/44 322/206/44 321/207/44
f 323/208/42 327/203/42 325/205/42 321/209/42
f 328/202/45 324/210/45 322/211/45 326/204/45
f 329/198/43 330/199/43 332/200/43 331/201/43
f 331/201/46 332/200/46 336/202/46 335/203/46
f 335/203/47 336/202/47 334/204/47 333/205/47
f 333/205/44 334/204/44 330/206/44 329/207/44
f 331/208/42 335/203/42 333/205/42 329/209/42
f 336/202/45 332/210/45 330/211/45 334/204/45
f 337/198/43 338/199/43 340/200/43 339/201/43
f 339/201/46 340/200/46 344/202/46 343/203/46
f 343/203/47 344/202/47 342/204/47 341/205/47
f 341/205/44 342/204/44 338/206/44 337/207/44
f 339/208/42 343/203/42 341/205/42 337/209/42
f 344/202/45 340/210/45 338/211/45 342/204/45
f 345/198/43 346/199/43 348/200/43 347/201/43
f 347/201/46 348/200/46 352/202/46 351/203/46
f 351/203/47 352/202/47 350/204/47 349/205/47
f 349/205/44 350/204/44 346/206/44 345/207/44
f 347/208/42 351/203/42 349/205/42 345/209/42
f 352/202/45 348/210/45 346/211/45 350/204/45
f 353/198/43 354/199/43 356/200/43 355/201/43
f 355/201/46 356/200/46 360/202/46 359/203/46
f 359/203/47 360/202/47 358/204/47 357/205/47
f 357/205/44 358/204/44 354/206/44 353/207/44
f 355/208/42 359/203/42 357/205/42 353/209/42
f 360/202/45 356/210/45 354/211/45 358/204/45
f 361/198/43 362/199/43 364/200/43 363/201/43
f 363/201/46 364/200/46 368/202/46 367/203/46
f 367/203/47 368/202/47 366/204/47 365/205/47
f 365/205/44 366/204/44 362/206/44 361/207/44
f 363/208/42 367/203/42 365/205/42 361/209/42
f 368/202/45 364/210/45 362/211/45 366/204/45
f 385/198/43 386/199/43 388/200/43 387/201/43
f 387/201/46 388/200/46 392/202/46 391/203/46
f 391/203/47 392/202/47 390/204/47 389/205/47
f 389/205/44 390/204/44 386/206/44 385/207/44
f 387/208/42 391/203/42 389/205/42 385/209/42
f 392/202/45 388/210/45 386/211/45 390/204/45
f 471/198/43 472/199/43 474/200/43 473/201/43
f 473/201/46 474/200/46 478/202/46 477/203/46
f 477/203/47 478/202/47 476/204/47 475/205/47
f 475/205/44 476/204/44 472/206/44 471/207/44
f 473/208/42 477/203/42 475/205/42 471/209/42
f 478/202/45 474/210/45 472/211/45 476/204/45
usemtl SURF_Wood_Furniture
f 169/198/43 170/199/43 172/200/43 171/201/43
f 171/201/46 172/200/46 176/202/46 175/203/46
f 175/203/47 176/202/47 174/204/47 173/205/47
f 173/205/44 174/204/44 170/206/44 169/207/44
f 171/208/42 175/203/42 173/205/42 169/209/42
f 176/202/45 172/210/45 170/211/45 174/204/45
usemtl SURF_Metal_Fence
f 177/198/43 178/199/43 180/200/43 179/201/43
f 179/201/46 180/200/46 184/202/46 183/203/46
f 183/203/47 184/202/47 182/204/47 181/205/47
f 181/205/44 182/204/44 178/206/44 177/207/44
f 179/208/42 183/203/42 181/205/42 177/209/42
f 184/202/45 180/210/45 178/211/45 182/204/45
f 401/198/43 402/199/43 404/200/43 403/201/43
f 403/201/46 404/200/46 408/202/46 407/203/46
f 407/203/47 408/202/47 406/204/47 405/205/47
f 405/205/44 406/204/44 402/206/44 401/207/44
f 403/208/42 407/203/42 405/205/42 401/209/42
f 408/202/45 404/210/45 402/211/45 406/204/45
f 409/198/43 410/199/43 412/200/43 411/201/43
f 411/201/46 412/200/46 416/202/46 415/203/46
f 415/203/47 416/202/47 414/204/47 413/205/47
f 413/205/44 414/204/44 410/206/44 409/207/44
f 411/208/42 415/203/42 413/205/42 409/209/42
f 416/202/45 412/210/45 410/211/45 414/204/45
f 417/198/43 418/199/43 420/200/43 419/201/43
f 419/201/46 420/200/46 424/202/46 423/203/46
f 423/203/47 424/202/47 422/204/47 421/205/47
f 421/205/44 422/204/44 418/206/44 417/207/44
f 419/208/42 423/203/42 421/205/42 417/209/42
f 424/202/45 420/210/45 418/211/45 422/204/45
f 425/198/43 426/199/43 428/200/43 427/201/43
f 427/201/46 428/200/46 432/202/46 431/203/46
f 431/203/47 432/202/47 430/204/47 429/205/47
f 429/205/44 430/204/44 426/206/44 425/207/44
f 427/208/42 431/203/42 429/205/42 425/209/42
f 432/202/45 428/210/45 426/211/45 430/204/45
f 433/198/43 434/199/43 436/200/43 435/201/43
f 435/201/46 436/200/46 440/202/46 439/203/46
f 439/203/47 440/202/47 438/204/47 437/205/47
f 437/205/44 438/204/44 434/206/44 433/207/44
f 435/208/42 439/203/42 437/205/42 433/209/42
f 440/202/45 436/210/45 434/211/45 438/204/45
f 441/198/43 442/199/43 444/200/43 443/201/43
f 443/201/46 444/200/46 448/202/46 447/203/46
f 447/203/47 448/202/47 446/204/47 445/205/47
f 445/205/44 446/204/44 442/206/44 441/207/44
f 443/208/42 447/203/42 445/205/42 441/209/42
f 448/202/45 444/210/45 442/211/45 446/204/45
f 449/198/43 450/199/43 452/200/43 451/201/43
f 451/201/46 452/200/46 456/202/46 455/203/46
f 455/203/47 456/202/47 454/204/47 453/205/47
f 453/205/44 454/204/44 450/206/44 449/207/44
f 451/208/42 455/203/42 453/205/42 449/209/42
f 456/202/45 452/210/45 450/211/45 454/204/45
f 457/198/43 458/199/43 460/200/43 459/201/43
f 459/201/46 460/200/46 464/202/46 463/203/46
f 463/203/47 464/202/47 462/204/47 461/205/47
f 461/205/44 462/204/44 458/206/44 457/207/44
f 459/208/42 463/203/42 461/205/42 457/209/42
f 464/202/45 460/210/45 458/211/45 462/204/45
usemtl SURF_Concrete_Struct
f 185/198/43 186/199/43 188/200/43 187/201/43
f 187/201/46 188/200/46 192/202/46 191/203/46
f 191/203/47 192/202/47 190/204/47 189/205/47
f 189/205/44 190/204/44 186/206/44 185/207/44
f 187/208/42 191/203/42 189/205/42 185/209/42
f 192/202/45 188/210/45 186/211/45 190/204/45
f 249/198/43 250/199/43 252/200/43 251/201/43
f 251/201/46 252/200/46 256/202/46 255/203/46
f 255/203/47 256/202/47 254/204/47 253/205/47
f 253/205/44 254/204/44 250/206/44 249/207/44
f 251/208/42 255/203/42 253/205/42 249/209/42
f 256/202/45 252/210/45 250/211/45 254/204/45
f 313/198/43 314/199/43 316/200/43 315/201/43
f 315/201/46 316/200/46 320/202/46 319/203/46
f 319/203/47 320/202/47 318/204/47 317/205/47
f 317/205/44 318/204/44 314/206/44 313/207/44
f 315/208/42 319/203/42 317/205/42 313/209/42
f 320/202/45 316/210/45 314/211/45 318/204/45
f 377/198/43 378/199/43 380/200/43 379/201/43
f 379/201/46 380/200/46 384/202/46 383/203/46
f 383/203/47 384/202/47 382/204/47 381/205/47
f 381/205/44 382/204/44 378/206/44 377/207/44
f 379/208/42 383/203/42 381/205/42 377/209/42
f 384/202/45 380/210/45 378/211/45 382/204/45
f 393/198/43 394/199/43 396/200/43 395/201/43
f 395/201/46 396/200/46 400/202/46 399/203/46
f 399/203/47 400/202/47 398/204/47 397/205/47
f 397/205/44 398/204/44 394/206/44 393/207/44
f 395/208/42 399/203/42 397/205/42 393/209/42
f 400/202/45 396/210/45 394/211/45 398/204/45
usemtl SURF_Glass_Window
f 241/198/43 242/199/43 244/200/43 243/201/43
f 243/201/46 244/200/46 248/202/46 247/203/46
f 247/203/47 248/202/47 246/204/47 245/205/47
f 245/205/44 246/204/44 242/206/44 241/207/44
f 243/208/42 247/203/42 245/205/42 241/209/42
f 248/202/45 244/210/45 242/211/45 246/204/45
f 305/198/43 306/199/43 308/200/43 307/201/43
f 307/201/46 308/200/46 312/202/46 311/203/46
f 311/203/47 312/202/47 310/204/47 309/205/47
f 309/205/44 310/204/44 306/206/44 305/207/44
f 307/208/42 311/203/42 309/205/42 305/209/42
f 312/202/45 308/210/45 306/211/45 310/204/45
f 369/198/43 370/199/43 372/200/43 371/201/43
f 371/201/46 372/200/46 376/202/46 375/203/46
f 375/203/47 376/202/47 374/204/47 373/205/47
f 373/205/44 374/204/44 370/206/44 369/207/44
f 371/208/42 375/203/42 373/205/42 369/209/42
f 376/202/45 372/210/45 370/211/45 374/204/45
usemtl SURF_Roof_Tile
f 465/212/44 466/212/44 467/212/44
f 469/212/46 468/212/46 470/212/46
f 465/212/71 467/212/71 470/212/71 468/212/71
f 467/212/72 466/212/72 469/212/72 470/212/72
f 466/212/42 465/212/42 468/212/42 469/212/42
