# PRP_H_Puddle_Decal_A — Puddle decal
# SC_HANDOFF · group B
# bounds 1.46 × 1.08 × 0.01 m · 6 tris · UV island 64 × 56 px
# 1 unit = 1 m · pivot at floor contact, X/Z centred
mtllib PRP_H_Puddle_Decal_A.mtl
o puddle_core
usemtl SURF_Asphalt_Wet
v -0.7317013240084344 0 -0.459537187685118
v 0.6682986521497077 0 -0.459537187685118
v -0.7317013240084344 2.220446049250313e-16 0.5404628123148822
v 0.6682986521497077 2.220446049250313e-16 0.5404628123148822
vt 0 1
vt 1 1
vt 0 0
vt 1 0
vn 0 1 -2.2204460492503126e-16
vn 0 1 -2.2204460492503126e-16
vn 0 1 -2.2204460492503126e-16
vn 0 1 -2.2204460492503126e-16
f 1/1/1 3/3/3 2/2/2
f 3/3/3 4/4/4 2/2/2
o puddle_lobe
usemtl SURF_Asphalt_Wet
v -0.19510399586716104 0.003000000000000111 -0.3040466434629352
v 0.5691652068218223 0.003000000000000111 -0.5404628123148822
v -0.032567878680548834 0.003000000000000111 0.2213884369446465
v 0.7317013240084345 0.003000000000000111 -0.015027731907300557
vt 0 1
vt 1 1
vt 0 0
vt 1 0
vn 0 1 0
vn 0 1 0
vn 0 1 0
vn 0 1 0
f 5/5/5 7/7/7 6/6/6
f 7/7/7 8/8/8 6/6/6
o puddle_sheen
usemtl SURF_Neon_Glow
v -0.3817013359293633 0.006000000000000093 0.08046281410302146
v 0.11829866407063669 0.006000000000000093 0.08046281410302146
v -0.3817013359293633 0.006000000000000128 0.2404628105267428
v 0.11829866407063669 0.006000000000000128 0.2404628105267428
vt 0 1
vt 1 1
vt 0 0
vt 1 0
vn 0 1 -2.2204460492503126e-16
vn 0 1 -2.2204460492503126e-16
vn 0 1 -2.2204460492503126e-16
vn 0 1 -2.2204460492503126e-16
f 9/9/9 11/11/11 10/10/10
f 11/11/11 12/12/12 10/10/10
