# PRP_H_Bollard_Wet_A — Bollard — wet variant
# SC_HANDOFF · group B
# bounds 0.30 × 0.30 × 0.98 m · 128 tris · UV island 32 × 32 px
# 1 unit = 1 m · pivot at floor contact, X/Z centred
mtllib PRP_H_Bollard_Wet_A.mtl
o base_ring
usemtl SURF_Concrete_Struct
v 0 0.07000000029802322 0.12999999523162842
v 0.09192388504743576 0.07000000029802322 0.09192388504743576
v 0.12999999523162842 0.07000000029802322 7.960203880059101e-18
v 0.09192388504743576 0.07000000029802322 -0.09192388504743576
v 1.5920407760118202e-17 0.07000000029802322 -0.12999999523162842
v -0.09192388504743576 0.07000000029802322 -0.09192388504743576
v -0.12999999523162842 0.07000000029802322 -2.3880613294538528e-17
v -0.09192388504743576 0.07000000029802322 0.09192388504743576
v -3.1840815520236404e-17 0.07000000029802322 0.12999999523162842
v 0 0 0.15000000596046448
v 0.1060660183429718 0 0.1060660183429718
v 0.15000000596046448 0 9.184851394388759e-18
v 0.1060660183429718 0 -0.1060660183429718
v 1.8369702788777518e-17 0 -0.15000000596046448
v -0.1060660183429718 0 -0.1060660183429718
v -0.15000000596046448 0 -2.7554552528805052e-17
v -0.1060660183429718 0 0.1060660183429718
v -3.6739405577555036e-17 0 0.15000000596046448
v 0 0.07000000029802322 0
v 0 0.07000000029802322 0
v 0 0.07000000029802322 0
v 0 0.07000000029802322 0
v 0 0.07000000029802322 0
v 0 0.07000000029802322 0
v 0 0.07000000029802322 0
v 0 0.07000000029802322 0
v 0 0.07000000029802322 0.12999999523162842
v 0.09192388504743576 0.07000000029802322 0.09192388504743576
v 0.12999999523162842 0.07000000029802322 7.960203880059101e-18
v 0.09192388504743576 0.07000000029802322 -0.09192388504743576
v 1.5920407760118202e-17 0.07000000029802322 -0.12999999523162842
v -0.09192388504743576 0.07000000029802322 -0.09192388504743576
v -0.12999999523162842 0.07000000029802322 -2.3880613294538528e-17
v -0.09192388504743576 0.07000000029802322 0.09192388504743576
v -3.1840815520236404e-17 0.07000000029802322 0.12999999523162842
v 0 0 0
v 0 0 0
v 0 0 0
v 0 0 0
v 0 0 0
v 0 0 0
v 0 0 0
v 0 0 0
v 0 0 0.15000000596046448
v 0.1060660183429718 0 0.1060660183429718
v 0.15000000596046448 0 9.184851394388759e-18
v 0.1060660183429718 0 -0.1060660183429718
v 1.8369702788777518e-17 0 -0.15000000596046448
v -0.1060660183429718 0 -0.1060660183429718
v -0.15000000596046448 0 -2.7554552528805052e-17
v -0.1060660183429718 0 0.1060660183429718
v -3.6739405577555036e-17 0 0.15000000596046448
vt 0 1
vt 0.125 1
vt 0.25 1
vt 0.375 1
vt 0.5 1
vt 0.625 1
vt 0.75 1
vt 0.875 1
vt 1 1
vt 0 0
vt 0.125 0
vt 0.25 0
vt 0.375 0
vt 0.5 0
vt 0.625 0
vt 0.75 0
vt 0.875 0
vt 1 0
vt 0.5 0.5
vt 0.5 0.5
vt 0.5 0.5
vt 0.5 0.5
vt 0.5 0.5
vt 0.5 0.5
vt 0.5 0.5
vt 0.5 0.5
vt 1 0.5
vt 0.8535534143447876 0.8535534143447876
vt 0.5 1
vt 0.1464466154575348 0.8535534143447876
vt 0 0.5
vt 0.1464466154575348 0.1464466154575348
vt 0.5 0
vt 0.8535534143447876 0.1464466154575348
vt 1 0.5
vt 0.5 0.5
vt 0.5 0.5
vt 0.5 0.5
vt 0.5 0.5
vt 0.5 0.5
vt 0.5 0.5
vt 0.5 0.5
vt 0.5 0.5
vt 1 0.5
vt 0.8535534143447876 0.1464466154575348
vt 0.5 0
vt 0.1464466154575348 0.1464466154575348
vt 0 0.5
vt 0.1464466154575348 0.8535534143447876
vt 0.5 1
vt 0.8535534143447876 0.8535534143447876
vt 1 0.5
vn 0 0.27472111608891064 0.9615239510146709
vn 0.6799001063662435 0.2747211144530782 0.6799001063662435
vn 0.9615239510146709 0.27472111608891064 5.887636024715076e-17
vn 0.6799001063662435 0.2747211144530782 -0.6799001063662435
vn 1.1775272049430152e-16 0.27472111608891064 -0.9615239510146709
vn -0.6799001063662435 0.2747211144530782 -0.6799001063662435
vn -0.9615239510146709 0.27472111608891064 -1.7662908074145228e-16
vn -0.6799001063662435 0.2747211144530782 0.6799001063662435
vn -2.3550544098860304e-16 0.27472111608891064 0.9615239510146709
vn 0 0.27472111608891064 0.9615239510146709
vn 0.6799001063662435 0.2747211144530782 0.6799001063662435
vn 0.9615239510146709 0.27472111608891064 5.887636024715076e-17
vn 0.6799001063662435 0.2747211144530782 -0.6799001063662435
vn 1.1775272049430152e-16 0.27472111608891064 -0.9615239510146709
vn -0.6799001063662435 0.2747211144530782 -0.6799001063662435
vn -0.9615239510146709 0.27472111608891064 -1.7662908074145228e-16
vn -0.6799001063662435 0.2747211144530782 0.6799001063662435
vn -2.3550544098860304e-16 0.27472111608891064 0.9615239510146709
vn 0 1 0
vn 0 1 0
vn 0 1 0
vn 0 1 0
vn 0 1 0
vn 0 1 0
vn 0 1 0
vn 0 1 0
vn 0 1 0
vn 0 1 0
vn 0 1 0
vn 0 1 0
vn 0 1 0
vn 0 1 0
vn 0 1 0
vn 0 1 0
vn 0 1 0
vn 0 -1 0
vn 0 -1 0
vn 0 -1 0
vn 0 -1 0
vn 0 -1 0
vn 0 -1 0
vn 0 -1 0
vn 0 -1 0
vn 0 -1 0
vn 0 -1 0
vn 0 -1 0
vn 0 -1 0
vn 0 -1 0
vn 0 -1 0
vn 0 -1 0
vn 0 -1 0
vn 0 -1 0
f 1/1/1 10/10/10 2/2/2
f 10/10/10 11/11/11 2/2/2
f 2/2/2 11/11/11 3/3/3
f 11/11/11 12/12/12 3/3/3
f 3/3/3 12/12/12 4/4/4
f 12/12/12 13/13/13 4/4/4
f 4/4/4 13/13/13 5/5/5
f 13/13/13 14/14/14 5/5/5
f 5/5/5 14/14/14 6/6/6
f 14/14/14 15/15/15 6/6/6
f 6/6/6 15/15/15 7/7/7
f 15/15/15 16/16/16 7/7/7
f 7/7/7 16/16/16 8/8/8
f 16/16/16 17/17/17 8/8/8
f 8/8/8 17/17/17 9/9/9
f 17/17/17 18/18/18 9/9/9
f 27/27/27 28/28/28 19/19/19
f 28/28/28 29/29/29 20/20/20
f 29/29/29 30/30/30 21/21/21
f 30/30/30 31/31/31 22/22/22
f 31/31/31 32/32/32 23/23/23
f 32/32/32 33/33/33 24/24/24
f 33/33/33 34/34/34 25/25/25
f 34/34/34 35/35/35 26/26/26
f 45/45/45 44/44/44 36/36/36
f 46/46/46 45/45/45 37/37/37
f 47/47/47 46/46/46 38/38/38
f 48/48/48 47/47/47 39/39/39
f 49/49/49 48/48/48 40/40/40
f 50/50/50 49/49/49 41/41/41
f 51/51/51 50/50/50 42/42/42
f 52/52/52 51/51/51 43/43/43
o shaft
usemtl SURF_Steel_Sign
v 0 0.9250000120699405 0.09000000357627869
v 0.06363961100578308 0.9250000120699405 0.06363961100578308
v 0.09000000357627869 0.9250000120699405 5.51091050576101e-18
v 0.06363961100578308 0.9250000120699405 -0.06363961100578308
v 1.102182101152202e-17 0.9250000120699405 -0.09000000357627869
v -0.06363961100578308 0.9250000120699405 -0.06363961100578308
v -0.09000000357627869 0.9250000120699405 -1.653273151728303e-17
v -0.06363961100578308 0.9250000120699405 0.06363961100578308
v -2.204364202304404e-17 0.9250000120699405 0.09000000357627869
v 0 0.07499998822808263 0.10000000149011612
v 0.0707106813788414 0.07499998822808263 0.0707106813788414
v 0.10000000149011612 0.07499998822808263 6.123233849335533e-18
v 0.0707106813788414 0.07499998822808263 -0.0707106813788414
v 1.2246467698671066e-17 0.07499998822808263 -0.10000000149011612
v -0.0707106813788414 0.07499998822808263 -0.0707106813788414
v -0.10000000149011612 0.07499998822808263 -1.8369702788777518e-17
v -0.0707106813788414 0.07499998822808263 0.0707106813788414
v -2.4492935397342132e-17 0.07499998822808263 0.10000000149011612
v 0 0.9250000120699405 0
v 0 0.9250000120699405 0
v 0 0.9250000120699405 0
v 0 0.9250000120699405 0
v 0 0.9250000120699405 0
v 0 0.9250000120699405 0
v 0 0.9250000120699405 0
v 0 0.9250000120699405 0
v 0 0.9250000120699405 0.09000000357627869
v 0.06363961100578308 0.9250000120699405 0.06363961100578308
v 0.09000000357627869 0.9250000120699405 5.51091050576101e-18
v 0.06363961100578308 0.9250000120699405 -0.06363961100578308
v 1.102182101152202e-17 0.9250000120699405 -0.09000000357627869
v -0.06363961100578308 0.9250000120699405 -0.06363961100578308
v -0.09000000357627869 0.9250000120699405 -1.653273151728303e-17
v -0.06363961100578308 0.9250000120699405 0.06363961100578308
v -2.204364202304404e-17 0.9250000120699405 0.09000000357627869
v 0 0.07499998822808263 0
v 0 0.07499998822808263 0
v 0 0.07499998822808263 0
v 0 0.07499998822808263 0
v 0 0.07499998822808263 0
v 0 0.07499998822808263 0
v 0 0.07499998822808263 0
v 0 0.07499998822808263 0
v 0 0.07499998822808263 0.10000000149011612
v 0.0707106813788414 0.07499998822808263 0.0707106813788414
v 0.10000000149011612 0.07499998822808263 6.123233849335533e-18
v 0.0707106813788414 0.07499998822808263 -0.0707106813788414
v 1.2246467698671066e-17 0.07499998822808263 -0.10000000149011612
v -0.0707106813788414 0.07499998822808263 -0.0707106813788414
v -0.10000000149011612 0.07499998822808263 -1.8369702788777518e-17
v -0.0707106813788414 0.07499998822808263 0.0707106813788414
v -2.4492935397342132e-17 0.07499998822808263 0.10000000149011612
vt 0 1
vt 0.125 1
vt 0.25 1
vt 0.375 1
vt 0.5 1
vt 0.625 1
vt 0.75 1
vt 0.875 1
vt 1 1
vt 0 0
vt 0.125 0
vt 0.25 0
vt 0.375 0
vt 0.5 0
vt 0.625 0
vt 0.75 0
vt 0.875 0
vt 1 0
vt 0.5 0.5
vt 0.5 0.5
vt 0.5 0.5
vt 0.5 0.5
vt 0.5 0.5
vt 0.5 0.5
vt 0.5 0.5
vt 0.5 0.5
vt 1 0.5
vt 0.8535534143447876 0.8535534143447876
vt 0.5 1
vt 0.1464466154575348 0.8535534143447876
vt 0 0.5
vt 0.1464466154575348 0.1464466154575348
vt 0.5 0
vt 0.8535534143447876 0.1464466154575348
vt 1 0.5
vt 0.5 0.5
vt 0.5 0.5
vt 0.5 0.5
vt 0.5 0.5
vt 0.5 0.5
vt 0.5 0.5
vt 0.5 0.5
vt 0.5 0.5
vt 1 0.5
vt 0.8535534143447876 0.1464466154575348
vt 0.5 0
vt 0.1464466154575348 0.1464466154575348
vt 0 0.5
vt 0.1464466154575348 0.8535534143447876
vt 0.5 1
vt 0.8535534143447876 0.8535534143447876
vt 1 0.5
vn 0 0.011763892183794398 0.9999308030262336
vn 0.7070578515350804 0.011763892433723838 0.7070578515350804
vn 0.9999308030262336 0.011763892183794398 6.122810109315883e-17
vn 0.7070578515350804 0.011763892433723838 -0.7070578515350804
vn 1.2245620218631766e-16 0.011763892183794398 -0.9999308030262336
vn -0.7070578515350804 0.011763892433723838 -0.7070578515350804
vn -0.9999308030262336 0.011763892183794398 -1.8368430989692142e-16
vn -0.7070578515350804 0.011763892433723838 0.7070578515350804
vn -2.449124043726353e-16 0.011763892183794398 0.9999308030262336
vn 0 0.011763892183794398 0.9999308030262336
vn 0.7070578515350804 0.011763892433723838 0.7070578515350804
vn 0.9999308030262336 0.011763892183794398 6.122810109315883e-17
vn 0.7070578515350804 0.011763892433723838 -0.7070578515350804
vn 1.2245620218631766e-16 0.011763892183794398 -0.9999308030262336
vn -0.7070578515350804 0.011763892433723838 -0.7070578515350804
vn -0.9999308030262336 0.011763892183794398 -1.8368430989692142e-16
vn -0.7070578515350804 0.011763892433723838 0.7070578515350804
vn -2.449124043726353e-16 0.011763892183794398 0.9999308030262336
vn 0 1 0
vn 0 1 0
vn 0 1 0
vn 0 1 0
vn 0 1 0
vn 0 1 0
vn 0 1 0
vn 0 1 0
vn 0 1 0
vn 0 1 0
vn 0 1 0
vn 0 1 0
vn 0 1 0
vn 0 1 0
vn 0 1 0
vn 0 1 0
vn 0 1 0
vn 0 -1 0
vn 0 -1 0
vn 0 -1 0
vn 0 -1 0
vn 0 -1 0
vn 0 -1 0
vn 0 -1 0
vn 0 -1 0
vn 0 -1 0
vn 0 -1 0
vn 0 -1 0
vn 0 -1 0
vn 0 -1 0
vn 0 -1 0
vn 0 -1 0
vn 0 -1 0
vn 0 -1 0
f 53/53/53 62/62/62 54/54/54
f 62/62/62 63/63/63 54/54/54
f 54/54/54 63/63/63 55/55/55
f 63/63/63 64/64/64 55/55/55
f 55/55/55 64/64/64 56/56/56
f 64/64/64 65/65/65 56/56/56
f 56/56/56 65/65/65 57/57/57
f 65/65/65 66/66/66 57/57/57
f 57/57/57 66/66/66 58/58/58
f 66/66/66 67/67/67 58/58/58
f 58/58/58 67/67/67 59/59/59
f 67/67/67 68/68/68 59/59/59
f 59/59/59 68/68/68 60/60/60
f 68/68/68 69/69/69 60/60/60
f 60/60/60 69/69/69 61/61/61
f 69/69/69 70/70/70 61/61/61
f 79/79/79 80/80/80 71/71/71
f 80/80/80 81/81/81 72/72/72
f 81/81/81 82/82/82 73/73/73
f 82/82/82 83/83/83 74/74/74
f 83/83/83 84/84/84 75/75/75
f 84/84/84 85/85/85 76/76/76
f 85/85/85 86/86/86 77/77/77
f 86/86/86 87/87/87 78/78/78
f 97/97/97 96/96/96 88/88/88
f 98/98/98 97/97/97 89/89/89
f 99/99/99 98/98/98 90/90/90
f 100/100/100 99/99/99 91/91/91
f 101/101/101 100/100/100 92/92/92
f 102/102/102 101/101/101 93/93/93
f 103/103/103 102/102/102 94/94/94
f 104/104/104 103/103/103 95/95/95
o cap
usemtl SURF_Steel_Sign
v 0 0.9849999994784593 0.0949999988079071
v 0.06717514246702194 0.9849999994784593 0.06717514246702194
v 0.0949999988079071 0.9849999994784593 5.817072384343425e-18
v 0.06717514246702194 0.9849999994784593 -0.06717514246702194
v 1.163414476868685e-17 0.9849999994784593 -0.0949999988079071
v -0.06717514246702194 0.9849999994784593 -0.06717514246702194
v -0.0949999988079071 0.9849999994784593 -1.7451216325849662e-17
v -0.06717514246702194 0.9849999994784593 0.06717514246702194
v -2.32682895373737e-17 0.9849999994784593 0.0949999988079071
v 0 0.9250000008195638 0.09000000357627869
v 0.06363961100578308 0.9250000008195638 0.06363961100578308
v 0.09000000357627869 0.9250000008195638 5.51091050576101e-18
v 0.06363961100578308 0.9250000008195638 -0.06363961100578308
v 1.102182101152202e-17 0.9250000008195638 -0.09000000357627869
v -0.06363961100578308 0.9250000008195638 -0.06363961100578308
v -0.09000000357627869 0.9250000008195638 -1.653273151728303e-17
v -0.06363961100578308 0.9250000008195638 0.06363961100578308
v -2.204364202304404e-17 0.9250000008195638 0.09000000357627869
v 0 0.9849999994784593 0
v 0 0.9849999994784593 0
v 0 0.9849999994784593 0
v 0 0.9849999994784593 0
v 0 0.9849999994784593 0
v 0 0.9849999994784593 0
v 0 0.9849999994784593 0
v 0 0.9849999994784593 0
v 0 0.9849999994784593 0.0949999988079071
v 0.06717514246702194 0.9849999994784593 0.06717514246702194
v 0.0949999988079071 0.9849999994784593 5.817072384343425e-18
v 0.06717514246702194 0.9849999994784593 -0.06717514246702194
v 1.163414476868685e-17 0.9849999994784593 -0.0949999988079071
v -0.06717514246702194 0.9849999994784593 -0.06717514246702194
v -0.0949999988079071 0.9849999994784593 -1.7451216325849662e-17
v -0.06717514246702194 0.9849999994784593 0.06717514246702194
v -2.32682895373737e-17 0.9849999994784593 0.0949999988079071
v 0 0.9250000008195638 0
v 0 0.9250000008195638 0
v 0 0.9250000008195638 0
v 0 0.9250000008195638 0
v 0 0.9250000008195638 0
v 0 0.9250000008195638 0
v 0 0.9250000008195638 0
v 0 0.9250000008195638 0
v 0 0.9250000008195638 0.09000000357627869
v 0.06363961100578308 0.9250000008195638 0.06363961100578308
v 0.09000000357627869 0.9250000008195638 5.51091050576101e-18
v 0.06363961100578308 0.9250000008195638 -0.06363961100578308
v 1.102182101152202e-17 0.9250000008195638 -0.09000000357627869
v -0.06363961100578308 0.9250000008195638 -0.06363961100578308
v -0.09000000357627869 0.9250000008195638 -1.653273151728303e-17
v -0.06363961100578308 0.9250000008195638 0.06363961100578308
v -2.204364202304404e-17 0.9250000008195638 0.09000000357627869
vt 0 1
vt 0.125 1
vt 0.25 1
vt 0.375 1
vt 0.5 1
vt 0.625 1
vt 0.75 1
vt 0.875 1
vt 1 1
vt 0 0
vt 0.125 0
vt 0.25 0
vt 0.375 0
vt 0.5 0
vt 0.625 0
vt 0.75 0
vt 0.875 0
vt 1 0
vt 0.5 0.5
vt 0.5 0.5
vt 0.5 0.5
vt 0.5 0.5
vt 0.5 0.5
vt 0.5 0.5
vt 0.5 0.5
vt 0.5 0.5
vt 1 0.5
vt 0.8535534143447876 0.8535534143447876
vt 0.5 1
vt 0.1464466154575348 0.8535534143447876
vt 0 0.5
vt 0.1464466154575348 0.1464466154575348
vt 0.5 0
vt 0.8535534143447876 0.1464466154575348
vt 1 0.5
vt 0.5 0.5
vt 0.5 0.5
vt 0.5 0.5
vt 0.5 0.5
vt 0.5 0.5
vt 0.5 0.5
vt 0.5 0.5
vt 0.5 0.5
vt 1 0.5
vt 0.8535534143447876 0.1464466154575348
vt 0.5 0
vt 0.1464466154575348 0.1464466154575348
vt 0 0.5
vt 0.1464466154575348 0.8535534143447876
vt 0.5 1
vt 0.8535534143447876 0.8535534143447876
vt 1 0.5
vn 0 -0.0830454847865383 0.9965457578338132
vn 0.7046642634378488 -0.08304547951085499 0.7046642634378488
vn 0.9965457578338132 -0.0830454847865383 6.102083081846482e-17
vn 0.7046642634378488 -0.08304547951085499 -0.7046642634378488
vn 1.2204166163692965e-16 -0.0830454847865383 -0.9965457578338132
vn -0.7046642634378488 -0.08304547951085499 -0.7046642634378488
vn -0.9965457578338132 -0.0830454847865383 -1.830624858379494e-16
vn -0.7046642634378488 -0.08304547951085499 0.7046642634378488
vn -2.440833232738593e-16 -0.0830454847865383 0.9965457578338132
vn 0 -0.0830454847865383 0.9965457578338132
vn 0.7046642634378488 -0.08304547951085499 0.7046642634378488
vn 0.9965457578338132 -0.0830454847865383 6.102083081846482e-17
vn 0.7046642634378488 -0.08304547951085499 -0.7046642634378488
vn 1.2204166163692965e-16 -0.0830454847865383 -0.9965457578338132
vn -0.7046642634378488 -0.08304547951085499 -0.7046642634378488
vn -0.9965457578338132 -0.0830454847865383 -1.830624858379494e-16
vn -0.7046642634378488 -0.08304547951085499 0.7046642634378488
vn -2.440833232738593e-16 -0.0830454847865383 0.9965457578338132
vn 0 1 0
vn 0 1 0
vn 0 1 0
vn 0 1 0
vn 0 1 0
vn 0 1 0
vn 0 1 0
vn 0 1 0
vn 0 1 0
vn 0 1 0
vn 0 1 0
vn 0 1 0
vn 0 1 0
vn 0 1 0
vn 0 1 0
vn 0 1 0
vn 0 1 0
vn 0 -1 0
vn 0 -1 0
vn 0 -1 0
vn 0 -1 0
vn 0 -1 0
vn 0 -1 0
vn 0 -1 0
vn 0 -1 0
vn 0 -1 0
vn 0 -1 0
vn 0 -1 0
vn 0 -1 0
vn 0 -1 0
vn 0 -1 0
vn 0 -1 0
vn 0 -1 0
vn 0 -1 0
f 105/105/105 114/114/114 106/106/106
f 114/114/114 115/115/115 106/106/106
f 106/106/106 115/115/115 107/107/107
f 115/115/115 116/116/116 107/107/107
f 107/107/107 116/116/116 108/108/108
f 116/116/116 117/117/117 108/108/108
f 108/108/108 117/117/117 109/109/109
f 117/117/117 118/118/118 109/109/109
f 109/109/109 118/118/118 110/110/110
f 118/118/118 119/119/119 110/110/110
f 110/110/110 119/119/119 111/111/111
f 119/119/119 120/120/120 111/111/111
f 111/111/111 120/120/120 112/112/112
f 120/120/120 121/121/121 112/112/112
f 112/112/112 121/121/121 113/113/113
f 121/121/121 122/122/122 113/113/113
f 131/131/131 132/132/132 123/123/123
f 132/132/132 133/133/133 124/124/124
f 133/133/133 134/134/134 125/125/125
f 134/134/134 135/135/135 126/126/126
f 135/135/135 136/136/136 127/127/127
f 136/136/136 137/137/137 128/128/128
f 137/137/137 138/138/138 129/129/129
f 138/138/138 139/139/139 130/130/130
f 149/149/149 148/148/148 140/140/140
f 150/150/150 149/149/149 141/141/141
f 151/151/151 150/150/150 142/142/142
f 152/152/152 151/151/151 143/143/143
f 153/153/153 152/152/152 144/144/144
f 154/154/154 153/153/153 145/145/145
f 155/155/155 154/154/154 146/146/146
f 156/156/156 155/155/155 147/147/147
o band_reflective
usemtl SURF_Paper_Newsprint
v 0 0.8150000002980232 0.10199999809265137
v 0.0721248909831047 0.8150000002980232 0.0721248909831047
v 0.10199999809265137 0.8150000002980232 6.245698766204621e-18
v 0.0721248909831047 0.8150000002980232 -0.0721248909831047
v 1.2491397532409243e-17 0.8150000002980232 -0.10199999809265137
v -0.0721248909831047 0.8150000002980232 -0.0721248909831047
v -0.10199999809265137 0.8150000002980232 -1.873709671220417e-17
v -0.0721248909831047 0.8150000002980232 0.0721248909831047
v -2.4982795064818485e-17 0.8150000002980232 0.10199999809265137
v 0 0.745 0.10199999809265137
v 0.0721248909831047 0.745 0.0721248909831047
v 0.10199999809265137 0.745 6.245698766204621e-18
v 0.0721248909831047 0.745 -0.0721248909831047
v 1.2491397532409243e-17 0.745 -0.10199999809265137
v -0.0721248909831047 0.745 -0.0721248909831047
v -0.10199999809265137 0.745 -1.873709671220417e-17
v -0.0721248909831047 0.745 0.0721248909831047
v -2.4982795064818485e-17 0.745 0.10199999809265137
v 0 0.8150000002980232 0
v 0 0.8150000002980232 0
v 0 0.8150000002980232 0
v 0 0.8150000002980232 0
v 0 0.8150000002980232 0
v 0 0.8150000002980232 0
v 0 0.8150000002980232 0
v 0 0.8150000002980232 0
v 0 0.8150000002980232 0.10199999809265137
v 0.0721248909831047 0.8150000002980232 0.0721248909831047
v 0.10199999809265137 0.8150000002980232 6.245698766204621e-18
v 0.0721248909831047 0.8150000002980232 -0.0721248909831047
v 1.2491397532409243e-17 0.8150000002980232 -0.10199999809265137
v -0.0721248909831047 0.8150000002980232 -0.0721248909831047
v -0.10199999809265137 0.8150000002980232 -1.873709671220417e-17
v -0.0721248909831047 0.8150000002980232 0.0721248909831047
v -2.4982795064818485e-17 0.8150000002980232 0.10199999809265137
v 0 0.745 0
v 0 0.745 0
v 0 0.745 0
v 0 0.745 0
v 0 0.745 0
v 0 0.745 0
v 0 0.745 0
v 0 0.745 0
v 0 0.745 0.10199999809265137
v 0.0721248909831047 0.745 0.0721248909831047
v 0.10199999809265137 0.745 6.245698766204621e-18
v 0.0721248909831047 0.745 -0.0721248909831047
v 1.2491397532409243e-17 0.745 -0.10199999809265137
v -0.0721248909831047 0.745 -0.0721248909831047
v -0.10199999809265137 0.745 -1.873709671220417e-17
v -0.0721248909831047 0.745 0.0721248909831047
v -2.4982795064818485e-17 0.745 0.10199999809265137
vt 0 1
vt 0.125 1
vt 0.25 1
vt 0.375 1
vt 0.5 1
vt 0.625 1
vt 0.75 1
vt 0.875 1
vt 1 1
vt 0 0
vt 0.125 0
vt 0.25 0
vt 0.375 0
vt 0.5 0
vt 0.625 0
vt 0.75 0
vt 0.875 0
vt 1 0
vt 0.5 0.5
vt 0.5 0.5
vt 0.5 0.5
vt 0.5 0.5
vt 0.5 0.5
vt 0.5 0.5
vt 0.5 0.5
vt 0.5 0.5
vt 1 0.5
vt 0.8535534143447876 0.8535534143447876
vt 0.5 1
vt 0.1464466154575348 0.8535534143447876
vt 0 0.5
vt 0.1464466154575348 0.1464466154575348
vt 0.5 0
vt 0.8535534143447876 0.1464466154575348
vt 1 0.5
vt 0.5 0.5
vt 0.5 0.5
vt 0.5 0.5
vt 0.5 0.5
vt 0.5 0.5
vt 0.5 0.5
vt 0.5 0.5
vt 0.5 0.5
vt 1 0.5
vt 0.8535534143447876 0.1464466154575348
vt 0.5 0
vt 0.1464466154575348 0.1464466154575348
vt 0 0.5
vt 0.1464466154575348 0.8535534143447876
vt 0.5 1
vt 0.8535534143447876 0.8535534143447876
vt 1 0.5
vn 0 0 1
vn 0.7071067811865476 0 0.7071067811865476
vn 1 0 6.123234262925839e-17
vn 0.7071067811865476 0 -0.7071067811865476
vn 1.2246468525851679e-16 0 -1
vn -0.7071067811865476 0 -0.7071067811865476
vn -1 0 -1.8369701465288538e-16
vn -0.7071067811865476 0 0.7071067811865476
vn -2.4492937051703357e-16 0 1
vn 0 0 1
vn 0.7071067811865476 0 0.7071067811865476
vn 1 0 6.123234262925839e-17
vn 0.7071067811865476 0 -0.7071067811865476
vn 1.2246468525851679e-16 0 -1
vn -0.7071067811865476 0 -0.7071067811865476
vn -1 0 -1.8369701465288538e-16
vn -0.7071067811865476 0 0.7071067811865476
vn -2.4492937051703357e-16 0 1
vn 0 1 0
vn 0 1 0
vn 0 1 0
vn 0 1 0
vn 0 1 0
vn 0 1 0
vn 0 1 0
vn 0 1 0
vn 0 1 0
vn 0 1 0
vn 0 1 0
vn 0 1 0
vn 0 1 0
vn 0 1 0
vn 0 1 0
vn 0 1 0
vn 0 1 0
vn 0 -1 0
vn 0 -1 0
vn 0 -1 0
vn 0 -1 0
vn 0 -1 0
vn 0 -1 0
vn 0 -1 0
vn 0 -1 0
vn 0 -1 0
vn 0 -1 0
vn 0 -1 0
vn 0 -1 0
vn 0 -1 0
vn 0 -1 0
vn 0 -1 0
vn 0 -1 0
vn 0 -1 0
f 157/157/157 166/166/166 158/158/158
f 166/166/166 167/167/167 158/158/158
f 158/158/158 167/167/167 159/159/159
f 167/167/167 168/168/168 159/159/159
f 159/159/159 168/168/168 160/160/160
f 168/168/168 169/169/169 160/160/160
f 160/160/160 169/169/169 161/161/161
f 169/169/169 170/170/170 161/161/161
f 161/161/161 170/170/170 162/162/162
f 170/170/170 171/171/171 162/162/162
f 162/162/162 171/171/171 163/163/163
f 171/171/171 172/172/172 163/163/163
f 163/163/163 172/172/172 164/164/164
f 172/172/172 173/173/173 164/164/164
f 164/164/164 173/173/173 165/165/165
f 173/173/173 174/174/174 165/165/165
f 183/183/183 184/184/184 175/175/175
f 184/184/184 185/185/185 176/176/176
f 185/185/185 186/186/186 177/177/177
f 186/186/186 187/187/187 178/178/178
f 187/187/187 188/188/188 179/179/179
f 188/188/188 189/189/189 180/180/180
f 189/189/189 190/190/190 181/181/181
f 190/190/190 191/191/191 182/182/182
f 201/201/201 200/200/200 192/192/192
f 202/202/202 201/201/201 193/193/193
f 203/203/203 202/202/202 194/194/194
f 204/204/204 203/203/203 195/195/195
f 205/205/205 204/204/204 196/196/196
f 206/206/206 205/205/205 197/197/197
f 207/207/207 206/206/206 198/198/198
f 208/208/208 207/207/207 199/199/199
