# PRP_H_Trash_Pile_A — Trash pile
# SC_HANDOFF · group B
# bounds 1.02 × 0.71 × 0.48 m · 48 tris · UV island 48 × 48 px
# 1 unit = 1 m · pivot at floor contact, X/Z centred
mtllib PRP_H_Trash_Pile_A.mtl
o bag_large
usemtl SURF_Grime_Dark
v 0.24775335812383623 0.4000000059604645 0.09465966546538346
v 0.24775335812383623 0.4000000059604645 -0.3553403226136876
v 0.24775335812383623 0 0.09465966546538346
v 0.24775335812383623 0 -0.3553403226136876
v -0.3022466537970927 0.4000000059604645 -0.3553403226136876
v -0.3022466537970927 0.4000000059604645 0.09465966546538346
v -0.3022466537970927 0 -0.3553403226136876
v -0.3022466537970927 0 0.09465966546538346
v -0.3022466537970927 0.4000000059604645 -0.3553403226136876
v 0.24775335812383623 0.4000000059604645 -0.3553403226136876
v -0.3022466537970927 0.4000000059604645 0.09465966546538346
v 0.24775335812383623 0.4000000059604645 0.09465966546538346
v -0.3022466537970927 0 0.09465966546538346
v 0.24775335812383623 0 0.09465966546538346
v -0.3022466537970927 0 -0.3553403226136876
v 0.24775335812383623 0 -0.3553403226136876
v -0.3022466537970927 0.4000000059604645 0.09465966546538346
v 0.24775335812383623 0.4000000059604645 0.09465966546538346
v -0.3022466537970927 0 0.09465966546538346
v 0.24775335812383623 0 0.09465966546538346
v 0.24775335812383623 0.4000000059604645 -0.3553403226136876
v -0.3022466537970927 0.4000000059604645 -0.3553403226136876
v 0.24775335812383623 0 -0.3553403226136876
v -0.3022466537970927 0 -0.3553403226136876
vt 0 1
vt 1 1
vt 0 0
vt 1 0
vt 0 1
vt 1 1
vt 0 0
vt 1 0
vt 0 1
vt 1 1
vt 0 0
vt 1 0
vt 0 1
vt 1 1
vt 0 0
vt 1 0
vt 0 1
vt 1 1
vt 0 0
vt 1 0
vt 0 1
vt 1 1
vt 0 0
vt 1 0
vn 1 0 0
vn 1 0 0
vn 1 0 0
vn 1 0 0
vn -1 0 0
vn -1 0 0
vn -1 0 0
vn -1 0 0
vn 0 1 0
vn 0 1 0
vn 0 1 0
vn 0 1 0
vn 0 -1 0
vn 0 -1 0
vn 0 -1 0
vn 0 -1 0
vn 0 0 1
vn 0 0 1
vn 0 0 1
vn 0 0 1
vn 0 0 -1
vn 0 0 -1
vn 0 0 -1
vn 0 0 -1
f 1/1/1 3/3/3 2/2/2
f 3/3/3 4/4/4 2/2/2
f 5/5/5 7/7/7 6/6/6
f 7/7/7 8/8/8 6/6/6
f 9/9/9 11/11/11 10/10/10
f 11/11/11 12/12/12 10/10/10
f 13/13/13 15/15/15 14/14/14
f 15/15/15 16/16/16 14/14/14
f 17/17/17 19/19/19 18/18/18
f 19/19/19 20/20/20 18/18/18
f 21/21/21 23/23/23 22/22/22
f 23/23/23 24/24/24 22/22/22
o bag_small
usemtl SURF_Grime_Dark
v 0.5119971590480316 0.2800000035762787 0.069319866956629
v 0.41743069503012814 0.2800000035762787 -0.23638780273046583
v 0.5119971590480316 2.384185793236071e-9 0.069319866956629
v 0.41743069503012814 2.384185793236071e-9 -0.23638780273046583
v 0.0735095452787119 0.2800000035762787 -0.13000052410493312
v 0.16807600929661531 0.2800000035762787 0.17570714558216172
v 0.0735095452787119 2.384185793236071e-9 -0.13000052410493312
v 0.16807600929661531 2.384185793236071e-9 0.17570714558216172
v 0.0735095452787119 0.2800000035762787 -0.13000052410493312
v 0.41743069503012814 0.2800000035762787 -0.23638780273046583
v 0.16807600929661531 0.2800000035762787 0.17570714558216172
v 0.5119971590480316 0.2800000035762787 0.069319866956629
v 0.16807600929661531 2.384185793236071e-9 0.17570714558216172
v 0.5119971590480316 2.384185793236071e-9 0.069319866956629
v 0.0735095452787119 2.384185793236071e-9 -0.13000052410493312
v 0.41743069503012814 2.384185793236071e-9 -0.23638780273046583
v 0.16807600929661531 0.2800000035762787 0.17570714558216172
v 0.5119971590480316 0.2800000035762787 0.069319866956629
v 0.16807600929661531 2.384185793236071e-9 0.17570714558216172
v 0.5119971590480316 2.384185793236071e-9 0.069319866956629
v 0.41743069503012814 0.2800000035762787 -0.23638780273046583
v 0.0735095452787119 0.2800000035762787 -0.13000052410493312
v 0.41743069503012814 2.384185793236071e-9 -0.23638780273046583
v 0.0735095452787119 2.384185793236071e-9 -0.13000052410493312
vt 0 1
vt 1 1
vt 0 0
vt 1 0
vt 0 1
vt 1 1
vt 0 0
vt 1 0
vt 0 1
vt 1 1
vt 0 0
vt 1 0
vt 0 1
vt 1 1
vt 0 0
vt 1 0
vt 0 1
vt 1 1
vt 0 0
vt 1 0
vt 0 1
vt 1 1
vt 0 0
vt 1 0
vn 0.955336489125606 0 -0.29552020666133955
vn 0.955336489125606 0 -0.29552020666133955
vn 0.955336489125606 0 -0.29552020666133955
vn 0.955336489125606 0 -0.29552020666133955
vn -0.955336489125606 0 0.29552020666133955
vn -0.955336489125606 0 0.29552020666133955
vn -0.955336489125606 0 0.29552020666133955
vn -0.955336489125606 0 0.29552020666133955
vn 0 1 0
vn 0 1 0
vn 0 1 0
vn 0 1 0
vn 0 -1 0
vn 0 -1 0
vn 0 -1 0
vn 0 -1 0
vn 0.29552020666133955 0 0.955336489125606
vn 0.29552020666133955 0 0.955336489125606
vn 0.29552020666133955 0 0.955336489125606
vn 0.29552020666133955 0 0.955336489125606
vn -0.29552020666133955 0 -0.955336489125606
vn -0.29552020666133955 0 -0.955336489125606
vn -0.29552020666133955 0 -0.955336489125606
vn -0.29552020666133955 0 -0.955336489125606
f 25/25/25 27/27/27 26/26/26
f 27/27/27 28/28/28 26/26/26
f 29/29/29 31/31/31 30/30/30
f 31/31/31 32/32/32 30/30/30
f 33/33/33 35/35/35 34/34/34
f 35/35/35 36/36/36 34/34/34
f 37/37/37 39/39/39 38/38/38
f 39/39/39 40/40/40 38/38/38
f 41/41/41 43/43/43 42/42/42
f 43/43/43 44/44/44 42/42/42
f 45/45/45 47/47/47 46/46/46
f 47/47/47 48/48/48 46/46/46
o box_flat
usemtl SURF_Wood_Dark
v 0.057503863374775116 0.10000000372529029 0.256005657216157
v -0.021963870127410856 0.10000000372529029 -0.1360209797619917
v 0.057503863374775116 2.2351741707504758e-9 0.256005657216157
v -0.021963870127410856 2.2351741707504758e-9 -0.1360209797619917
v -0.5119971590480317 0.10000000372529029 -0.0366863143644611
v -0.43252942554584567 0.10000000372529029 0.35534032261368753
v -0.5119971590480317 2.2351741707504758e-9 -0.0366863143644611
v -0.43252942554584567 2.2351741707504758e-9 0.35534032261368753
v -0.5119971590480317 0.10000000372529029 -0.0366863143644611
v -0.021963870127410856 0.10000000372529029 -0.1360209797619917
v -0.43252942554584567 0.10000000372529029 0.35534032261368753
v 0.057503863374775116 0.10000000372529029 0.256005657216157
v -0.43252942554584567 2.2351741707504758e-9 0.35534032261368753
v 0.057503863374775116 2.2351741707504758e-9 0.256005657216157
v -0.5119971590480317 2.2351741707504758e-9 -0.0366863143644611
v -0.021963870127410856 2.2351741707504758e-9 -0.1360209797619917
v -0.43252942554584567 0.10000000372529029 0.35534032261368753
v 0.057503863374775116 0.10000000372529029 0.256005657216157
v -0.43252942554584567 2.2351741707504758e-9 0.35534032261368753
v 0.057503863374775116 2.2351741707504758e-9 0.256005657216157
v -0.021963870127410856 0.10000000372529029 -0.1360209797619917
v -0.5119971590480317 0.10000000372529029 -0.0366863143644611
v -0.021963870127410856 2.2351741707504758e-9 -0.1360209797619917
v -0.5119971590480317 2.2351741707504758e-9 -0.0366863143644611
vt 0 1
vt 1 1
vt 0 0
vt 1 0
vt 0 1
vt 1 1
vt 0 0
vt 1 0
vt 0 1
vt 1 1
vt 0 0
vt 1 0
vt 0 1
vt 1 1
vt 0 0
vt 1 0
vt 0 1
vt 1 1
vt 0 0
vt 1 0
vt 0 1
vt 1 1
vt 0 0
vt 1 0
vn 0.9800665778412416 0 -0.19866933079506124
vn 0.9800665778412416 0 -0.19866933079506124
vn 0.9800665778412416 0 -0.19866933079506124
vn 0.9800665778412416 0 -0.19866933079506124
vn -0.9800665778412416 0 0.19866933079506124
vn -0.9800665778412416 0 0.19866933079506124
vn -0.9800665778412416 0 0.19866933079506124
vn -0.9800665778412416 0 0.19866933079506124
vn 0 1 0
vn 0 1 0
vn 0 1 0
vn 0 1 0
vn 0 -1 0
vn 0 -1 0
vn 0 -1 0
vn 0 -1 0
vn 0.19866933079506124 0 0.9800665778412416
vn 0.19866933079506124 0 0.9800665778412416
vn 0.19866933079506124 0 0.9800665778412416
vn 0.19866933079506124 0 0.9800665778412416
vn -0.19866933079506124 0 -0.9800665778412416
vn -0.19866933079506124 0 -0.9800665778412416
vn -0.19866933079506124 0 -0.9800665778412416
vn -0.19866933079506124 0 -0.9800665778412416
f 49/49/49 51/51/51 50/50/50
f 51/51/51 52/52/52 50/50/50
f 53/53/53 55/55/55 54/54/54
f 55/55/55 56/56/56 54/54/54
f 57/57/57 59/59/59 58/58/58
f 59/59/59 60/60/60 58/58/58
f 61/61/61 63/63/63 62/62/62
f 63/63/63 64/64/64 62/62/62
f 65/65/65 67/67/67 66/66/66
f 67/67/67 68/68/68 66/66/66
f 69/69/69 71/71/71 70/70/70
f 71/71/71 72/72/72 70/70/70
o bag_knot
usemtl SURF_Grime_Dark
v 0.022753352908429808 0.4800000037252903 -0.080340327829094
v 0.022753352908429808 0.4800000037252903 -0.18034032931921012
v 0.022753352908429808 0.38000000223517416 -0.080340327829094
v 0.022753352908429808 0.38000000223517416 -0.18034032931921012
v -0.07724664858168631 0.4800000037252903 -0.18034032931921012
v -0.07724664858168631 0.4800000037252903 -0.080340327829094
v -0.07724664858168631 0.38000000223517416 -0.18034032931921012
v -0.07724664858168631 0.38000000223517416 -0.080340327829094
v -0.07724664858168631 0.4800000037252903 -0.18034032931921012
v 0.022753352908429808 0.4800000037252903 -0.18034032931921012
v -0.07724664858168631 0.4800000037252903 -0.080340327829094
v 0.022753352908429808 0.4800000037252903 -0.080340327829094
v -0.07724664858168631 0.38000000223517416 -0.080340327829094
v 0.022753352908429808 0.38000000223517416 -0.080340327829094
v -0.07724664858168631 0.38000000223517416 -0.18034032931921012
v 0.022753352908429808 0.38000000223517416 -0.18034032931921012
v -0.07724664858168631 0.4800000037252903 -0.080340327829094
v 0.022753352908429808 0.4800000037252903 -0.080340327829094
v -0.07724664858168631 0.38000000223517416 -0.080340327829094
v 0.022753352908429808 0.38000000223517416 -0.080340327829094
v 0.022753352908429808 0.4800000037252903 -0.18034032931921012
v -0.07724664858168631 0.4800000037252903 -0.18034032931921012
v 0.022753352908429808 0.38000000223517416 -0.18034032931921012
v -0.07724664858168631 0.38000000223517416 -0.18034032931921012
vt 0 1
vt 1 1
vt 0 0
vt 1 0
vt 0 1
vt 1 1
vt 0 0
vt 1 0
vt 0 1
vt 1 1
vt 0 0
vt 1 0
vt 0 1
vt 1 1
vt 0 0
vt 1 0
vt 0 1
vt 1 1
vt 0 0
vt 1 0
vt 0 1
vt 1 1
vt 0 0
vt 1 0
vn 1 0 0
vn 1 0 0
vn 1 0 0
vn 1 0 0
vn -1 0 0
vn -1 0 0
vn -1 0 0
vn -1 0 0
vn 0 1 0
vn 0 1 0
vn 0 1 0
vn 0 1 0
vn 0 -1 0
vn 0 -1 0
vn 0 -1 0
vn 0 -1 0
vn 0 0 1
vn 0 0 1
vn 0 0 1
vn 0 0 1
vn 0 0 -1
vn 0 0 -1
vn 0 0 -1
vn 0 0 -1
f 73/73/73 75/75/75 74/74/74
f 75/75/75 76/76/76 74/74/74
f 77/77/77 79/79/79 78/78/78
f 79/79/79 80/80/80 78/78/78
f 81/81/81 83/83/83 82/82/82
f 83/83/83 84/84/84 82/82/82
f 85/85/85 87/87/87 86/86/86
f 87/87/87 88/88/88 86/86/86
f 89/89/89 91/91/91 90/90/90
f 91/91/91 92/92/92 90/90/90
f 93/93/93 95/95/95 94/94/94
f 95/95/95 96/96/96 94/94/94
