# PRP_H_Grime_Decal_A — Grime decal
# SC_HANDOFF · group B
# bounds 1.20 × 1.20 × 0.00 m · 4 tris · UV island 56 × 48 px
# 1 unit = 1 m · pivot at floor contact, X/Z centred
mtllib PRP_H_Grime_Decal_A.mtl
o grime_field
usemtl SURF_Grime_Dark
v -0.6000000238418579 -8.67414677547607e-20 -0.600000023841858
v 0.6000000238418579 -8.67414677547607e-20 -0.600000023841858
v -0.6000000238418579 2.6636679503019465e-16 0.600000023841858
v 0.6000000238418579 2.6636679503019465e-16 0.600000023841858
vt 0 1
vt 1 1
vt 0 0
vt 1 0
vn 0 1 -2.2204460492503126e-16
vn 0 1 -2.2204460492503126e-16
vn 0 1 -2.2204460492503126e-16
vn 0 1 -2.2204460492503126e-16
f 1/1/1 3/3/3 2/2/2
f 3/3/3 4/4/4 2/2/2
o grime_streak
usemtl SURF_Grime_Dark
v 0.1444371745843805 0.0030000000000000335 -0.3225312525223888
v 0.4410685097522629 0.0030000000000000335 -0.36736269404590993
v 0.27893149024773706 0.003000000000000233 0.56736269404591
v 0.5755628254156195 0.003000000000000233 0.5225312525223889
vt 0 1
vt 1 1
vt 0 0
vt 1 0
vn -3.318193108583483e-17 1 -2.195512833616058e-16
vn -3.318193108583483e-17 1 -2.195512833616058e-16
vn -3.318193108583483e-17 1 -2.195512833616058e-16
vn -3.318193108583483e-17 1 -2.195512833616058e-16
f 5/5/5 7/7/7 6/6/6
f 7/7/7 8/8/8 6/6/6
