# SM_H_Signboard_Neon_A — Neon signboard
# SC_HANDOFF · group A
# bounds 0.45 × 0.36 × 1.80 m · 48 tris · UV island 64 × 48 px
# 1 unit = 1 m · pivot at floor contact, X/Z centred
mtllib SM_H_Signboard_Neon_A.mtl
o carcass
usemtl SURF_Grime_Dark
v 0.22499999403953552 1.7999999523162842 0.14999999852851034
v 0.22499999403953552 1.7999999523162842 0.030000001210719357
v 0.22499999403953552 0 0.14999999852851034
v 0.22499999403953552 0 0.030000001210719357
v -0.22499999403953552 1.7999999523162842 0.030000001210719357
v -0.22499999403953552 1.7999999523162842 0.14999999852851034
v -0.22499999403953552 0 0.030000001210719357
v -0.22499999403953552 0 0.14999999852851034
v -0.22499999403953552 1.7999999523162842 0.030000001210719357
v 0.22499999403953552 1.7999999523162842 0.030000001210719357
v -0.22499999403953552 1.7999999523162842 0.14999999852851034
v 0.22499999403953552 1.7999999523162842 0.14999999852851034
v -0.22499999403953552 0 0.14999999852851034
v 0.22499999403953552 0 0.14999999852851034
v -0.22499999403953552 0 0.030000001210719357
v 0.22499999403953552 0 0.030000001210719357
v -0.22499999403953552 1.7999999523162842 0.14999999852851034
v 0.22499999403953552 1.7999999523162842 0.14999999852851034
v -0.22499999403953552 0 0.14999999852851034
v 0.22499999403953552 0 0.14999999852851034
v 0.22499999403953552 1.7999999523162842 0.030000001210719357
v -0.22499999403953552 1.7999999523162842 0.030000001210719357
v 0.22499999403953552 0 0.030000001210719357
v -0.22499999403953552 0 0.030000001210719357
vt 0 1
vt 1 1
vt 0 0
vt 1 0
vt 0 1
vt 1 1
vt 0 0
vt 1 0
vt 0 1
vt 1 1
vt 0 0
vt 1 0
vt 0 1
vt 1 1
vt 0 0
vt 1 0
vt 0 1
vt 1 1
vt 0 0
vt 1 0
vt 0 1
vt 1 1
vt 0 0
vt 1 0
vn 1 0 0
vn 1 0 0
vn 1 0 0
vn 1 0 0
vn -1 0 0
vn -1 0 0
vn -1 0 0
vn -1 0 0
vn 0 1 0
vn 0 1 0
vn 0 1 0
vn 0 1 0
vn 0 -1 0
vn 0 -1 0
vn 0 -1 0
vn 0 -1 0
vn 0 0 1
vn 0 0 1
vn 0 0 1
vn 0 0 1
vn 0 0 -1
vn 0 0 -1
vn 0 0 -1
vn 0 0 -1
f 1/1/1 3/3/3 2/2/2
f 3/3/3 4/4/4 2/2/2
f 5/5/5 7/7/7 6/6/6
f 7/7/7 8/8/8 6/6/6
f 9/9/9 11/11/11 10/10/10
f 11/11/11 12/12/12 10/10/10
f 13/13/13 15/15/15 14/14/14
f 15/15/15 16/16/16 14/14/14
f 17/17/17 19/19/19 18/18/18
f 19/19/19 20/20/20 18/18/18
f 21/21/21 23/23/23 22/22/22
f 23/23/23 24/24/24 22/22/22
o face
usemtl SURF_Neon_Glow
v 0.1899999976158142 1.75 0.1799999995343387
v 0.1899999976158142 1.75 0.15000000020489096
v 0.1899999976158142 0.04999995231628418 0.1799999995343387
v 0.1899999976158142 0.04999995231628418 0.15000000020489096
v -0.1899999976158142 1.75 0.15000000020489096
v -0.1899999976158142 1.75 0.1799999995343387
v -0.1899999976158142 0.04999995231628418 0.15000000020489096
v -0.1899999976158142 0.04999995231628418 0.1799999995343387
v -0.1899999976158142 1.75 0.15000000020489096
v 0.1899999976158142 1.75 0.15000000020489096
v -0.1899999976158142 1.75 0.1799999995343387
v 0.1899999976158142 1.75 0.1799999995343387
v -0.1899999976158142 0.04999995231628418 0.1799999995343387
v 0.1899999976158142 0.04999995231628418 0.1799999995343387
v -0.1899999976158142 0.04999995231628418 0.15000000020489096
v 0.1899999976158142 0.04999995231628418 0.15000000020489096
v -0.1899999976158142 1.75 0.1799999995343387
v 0.1899999976158142 1.75 0.1799999995343387
v -0.1899999976158142 0.04999995231628418 0.1799999995343387
v 0.1899999976158142 0.04999995231628418 0.1799999995343387
v 0.1899999976158142 1.75 0.15000000020489096
v -0.1899999976158142 1.75 0.15000000020489096
v 0.1899999976158142 0.04999995231628418 0.15000000020489096
v -0.1899999976158142 0.04999995231628418 0.15000000020489096
vt 0 1
vt 1 1
vt 0 0
vt 1 0
vt 0 1
vt 1 1
vt 0 0
vt 1 0
vt 0 1
vt 1 1
vt 0 0
vt 1 0
vt 0 1
vt 1 1
vt 0 0
vt 1 0
vt 0 1
vt 1 1
vt 0 0
vt 1 0
vt 0 1
vt 1 1
vt 0 0
vt 1 0
vn 1 0 0
vn 1 0 0
vn 1 0 0
vn 1 0 0
vn -1 0 0
vn -1 0 0
vn -1 0 0
vn -1 0 0
vn 0 1 0
vn 0 1 0
vn 0 1 0
vn 0 1 0
vn 0 -1 0
vn 0 -1 0
vn 0 -1 0
vn 0 -1 0
vn 0 0 1
vn 0 0 1
vn 0 0 1
vn 0 0 1
vn 0 0 -1
vn 0 0 -1
vn 0 0 -1
vn 0 0 -1
f 25/25/25 27/27/27 26/26/26
f 27/27/27 28/28/28 26/26/26
f 29/29/29 31/31/31 30/30/30
f 31/31/31 32/32/32 30/30/30
f 33/33/33 35/35/35 34/34/34
f 35/35/35 36/36/36 34/34/34
f 37/37/37 39/39/39 38/38/38
f 39/39/39 40/40/40 38/38/38
f 41/41/41 43/43/43 42/42/42
f 43/43/43 44/44/44 42/42/42
f 45/45/45 47/47/47 46/46/46
f 47/47/47 48/48/48 46/46/46
o mount_t
usemtl SURF_Steel_Sign
v 0.02500000037252903 1.6249999765306713 0.0399999992735684
v 0.02500000037252903 1.6249999765306713 -0.1799999995343387
v 0.02500000037252903 1.5749999757856132 0.0399999992735684
v 0.02500000037252903 1.5749999757856132 -0.1799999995343387
v -0.02500000037252903 1.6249999765306713 -0.1799999995343387
v -0.02500000037252903 1.6249999765306713 0.0399999992735684
v -0.02500000037252903 1.5749999757856132 -0.1799999995343387
v -0.02500000037252903 1.5749999757856132 0.0399999992735684
v -0.02500000037252903 1.6249999765306713 -0.1799999995343387
v 0.02500000037252903 1.6249999765306713 -0.1799999995343387
v -0.02500000037252903 1.6249999765306713 0.0399999992735684
v 0.02500000037252903 1.6249999765306713 0.0399999992735684
v -0.02500000037252903 1.5749999757856132 0.0399999992735684
v 0.02500000037252903 1.5749999757856132 0.0399999992735684
v -0.02500000037252903 1.5749999757856132 -0.1799999995343387
v 0.02500000037252903 1.5749999757856132 -0.1799999995343387
v -0.02500000037252903 1.6249999765306713 0.0399999992735684
v 0.02500000037252903 1.6249999765306713 0.0399999992735684
v -0.02500000037252903 1.5749999757856132 0.0399999992735684
v 0.02500000037252903 1.5749999757856132 0.0399999992735684
v 0.02500000037252903 1.6249999765306713 -0.1799999995343387
v -0.02500000037252903 1.6249999765306713 -0.1799999995343387
v 0.02500000037252903 1.5749999757856132 -0.1799999995343387
v -0.02500000037252903 1.5749999757856132 -0.1799999995343387
vt 0 1
vt 1 1
vt 0 0
vt 1 0
vt 0 1
vt 1 1
vt 0 0
vt 1 0
vt 0 1
vt 1 1
vt 0 0
vt 1 0
vt 0 1
vt 1 1
vt 0 0
vt 1 0
vt 0 1
vt 1 1
vt 0 0
vt 1 0
vt 0 1
vt 1 1
vt 0 0
vt 1 0
vn 1 0 0
vn 1 0 0
vn 1 0 0
vn 1 0 0
vn -1 0 0
vn -1 0 0
vn -1 0 0
vn -1 0 0
vn 0 1 0
vn 0 1 0
vn 0 1 0
vn 0 1 0
vn 0 -1 0
vn 0 -1 0
vn 0 -1 0
vn 0 -1 0
vn 0 0 1
vn 0 0 1
vn 0 0 1
vn 0 0 1
vn 0 0 -1
vn 0 0 -1
vn 0 0 -1
vn 0 0 -1
f 49/49/49 51/51/51 50/50/50
f 51/51/51 52/52/52 50/50/50
f 53/53/53 55/55/55 54/54/54
f 55/55/55 56/56/56 54/54/54
f 57/57/57 59/59/59 58/58/58
f 59/59/59 60/60/60 58/58/58
f 61/61/61 63/63/63 62/62/62
f 63/63/63 64/64/64 62/62/62
f 65/65/65 67/67/67 66/66/66
f 67/67/67 68/68/68 66/66/66
f 69/69/69 71/71/71 70/70/70
f 71/71/71 72/72/72 70/70/70
o mount_b
usemtl SURF_Steel_Sign
v 0.02500000037252903 0.2649999765306711 0.0399999992735684
v 0.02500000037252903 0.2649999765306711 -0.1799999995343387
v 0.02500000037252903 0.21499997578561303 0.0399999992735684
v 0.02500000037252903 0.21499997578561303 -0.1799999995343387
v -0.02500000037252903 0.2649999765306711 -0.1799999995343387
v -0.02500000037252903 0.2649999765306711 0.0399999992735684
v -0.02500000037252903 0.21499997578561303 -0.1799999995343387
v -0.02500000037252903 0.21499997578561303 0.0399999992735684
v -0.02500000037252903 0.2649999765306711 -0.1799999995343387
v 0.02500000037252903 0.2649999765306711 -0.1799999995343387
v -0.02500000037252903 0.2649999765306711 0.0399999992735684
v 0.02500000037252903 0.2649999765306711 0.0399999992735684
v -0.02500000037252903 0.21499997578561303 0.0399999992735684
v 0.02500000037252903 0.21499997578561303 0.0399999992735684
v -0.02500000037252903 0.21499997578561303 -0.1799999995343387
v 0.02500000037252903 0.21499997578561303 -0.1799999995343387
v -0.02500000037252903 0.2649999765306711 0.0399999992735684
v 0.02500000037252903 0.2649999765306711 0.0399999992735684
v -0.02500000037252903 0.21499997578561303 0.0399999992735684
v 0.02500000037252903 0.21499997578561303 0.0399999992735684
v 0.02500000037252903 0.2649999765306711 -0.1799999995343387
v -0.02500000037252903 0.2649999765306711 -0.1799999995343387
v 0.02500000037252903 0.21499997578561303 -0.1799999995343387
v -0.02500000037252903 0.21499997578561303 -0.1799999995343387
vt 0 1
vt 1 1
vt 0 0
vt 1 0
vt 0 1
vt 1 1
vt 0 0
vt 1 0
vt 0 1
vt 1 1
vt 0 0
vt 1 0
vt 0 1
vt 1 1
vt 0 0
vt 1 0
vt 0 1
vt 1 1
vt 0 0
vt 1 0
vt 0 1
vt 1 1
vt 0 0
vt 1 0
vn 1 0 0
vn 1 0 0
vn 1 0 0
vn 1 0 0
vn -1 0 0
vn -1 0 0
vn -1 0 0
vn -1 0 0
vn 0 1 0
vn 0 1 0
vn 0 1 0
vn 0 1 0
vn 0 -1 0
vn 0 -1 0
vn 0 -1 0
vn 0 -1 0
vn 0 0 1
vn 0 0 1
vn 0 0 1
vn 0 0 1
vn 0 0 -1
vn 0 0 -1
vn 0 0 -1
vn 0 0 -1
f 73/73/73 75/75/75 74/74/74
f 75/75/75 76/76/76 74/74/74
f 77/77/77 79/79/79 78/78/78
f 79/79/79 80/80/80 78/78/78
f 81/81/81 83/83/83 82/82/82
f 83/83/83 84/84/84 82/82/82
f 85/85/85 87/87/87 86/86/86
f 87/87/87 88/88/88 86/86/86
f 89/89/89 91/91/91 90/90/90
f 91/91/91 92/92/92 90/90/90
f 93/93/93 95/95/95 94/94/94
f 95/95/95 96/96/96 94/94/94
