# SM_H_Route_Sign_A — Route sign ★
# SC_HANDOFF · group A
# bounds 1.00 × 0.26 × 2.40 m · 124 tris · UV island 80 × 32 px
# 1 unit = 1 m · pivot at floor contact, X/Z centred
mtllib SM_H_Route_Sign_A.mtl
o post
usemtl SURF_Steel_Sign
v -0.09778173636329046 2.4000000953674316 0.05000000074505806
v -0.06242639567386976 2.4000000953674316 0.0353553406894207
v -0.0477817356182324 2.4000000953674316 3.0616169246677665e-18
v -0.06242639567386976 2.4000000953674316 -0.0353553406894207
v -0.09778173636329046 2.4000000953674316 -0.05000000074505806
v -0.13313707705271116 2.4000000953674316 -0.0353553406894207
v -0.14778173710834852 2.4000000953674316 -9.184851394388759e-18
v -0.13313707705271116 2.4000000953674316 0.0353553406894207
v -0.09778173636329048 2.4000000953674316 0.05000000074505806
v -0.09778173636329046 0 0.054999999701976776
v -0.0588908642126309 0 0.03889087215065956
v -0.042781736661313685 0 3.367778596455028e-18
v -0.0588908642126309 0 -0.03889087215065956
v -0.09778173636329046 0 -0.054999999701976776
v -0.13667260851395002 0 -0.03889087215065956
v -0.15278173606526724 0 -1.010333620295539e-17
v -0.13667260851395002 0 0.03889087215065956
v -0.09778173636329048 0 0.054999999701976776
v -0.09778173636329046 2.4000000953674316 0
v -0.09778173636329046 2.4000000953674316 0
v -0.09778173636329046 2.4000000953674316 0
v -0.09778173636329046 2.4000000953674316 0
v -0.09778173636329046 2.4000000953674316 0
v -0.09778173636329046 2.4000000953674316 0
v -0.09778173636329046 2.4000000953674316 0
v -0.09778173636329046 2.4000000953674316 0
v -0.09778173636329046 2.4000000953674316 0.05000000074505806
v -0.06242639567386976 2.4000000953674316 0.0353553406894207
v -0.0477817356182324 2.4000000953674316 3.0616169246677665e-18
v -0.06242639567386976 2.4000000953674316 -0.0353553406894207
v -0.09778173636329046 2.4000000953674316 -0.05000000074505806
v -0.13313707705271116 2.4000000953674316 -0.0353553406894207
v -0.14778173710834852 2.4000000953674316 -9.184851394388759e-18
v -0.13313707705271116 2.4000000953674316 0.0353553406894207
v -0.09778173636329048 2.4000000953674316 0.05000000074505806
v -0.09778173636329046 0 0
v -0.09778173636329046 0 0
v -0.09778173636329046 0 0
v -0.09778173636329046 0 0
v -0.09778173636329046 0 0
v -0.09778173636329046 0 0
v -0.09778173636329046 0 0
v -0.09778173636329046 0 0
v -0.09778173636329046 0 0.054999999701976776
v -0.0588908642126309 0 0.03889087215065956
v -0.042781736661313685 0 3.367778596455028e-18
v -0.0588908642126309 0 -0.03889087215065956
v -0.09778173636329046 0 -0.054999999701976776
v -0.13667260851395002 0 -0.03889087215065956
v -0.15278173606526724 0 -1.010333620295539e-17
v -0.13667260851395002 0 0.03889087215065956
v -0.09778173636329048 0 0.054999999701976776
vt 0 1
vt 0.125 1
vt 0.25 1
vt 0.375 1
vt 0.5 1
vt 0.625 1
vt 0.75 1
vt 0.875 1
vt 1 1
vt 0 0
vt 0.125 0
vt 0.25 0
vt 0.375 0
vt 0.5 0
vt 0.625 0
vt 0.75 0
vt 0.875 0
vt 1 0
vt 0.5 0.5
vt 0.5 0.5
vt 0.5 0.5
vt 0.5 0.5
vt 0.5 0.5
vt 0.5 0.5
vt 0.5 0.5
vt 0.5 0.5
vt 1 0.5
vt 0.8535534143447876 0.8535534143447876
vt 0.5 1
vt 0.1464466154575348 0.8535534143447876
vt 0 0.5
vt 0.1464466154575348 0.1464466154575348
vt 0.5 0
vt 0.8535534143447876 0.1464466154575348
vt 1 0.5
vt 0.5 0.5
vt 0.5 0.5
vt 0.5 0.5
vt 0.5 0.5
vt 0.5 0.5
vt 0.5 0.5
vt 0.5 0.5
vt 0.5 0.5
vt 1 0.5
vt 0.8535534143447876 0.1464466154575348
vt 0.5 0
vt 0.1464466154575348 0.1464466154575348
vt 0 0.5
vt 0.1464466154575348 0.8535534143447876
vt 0.5 1
vt 0.8535534143447876 0.8535534143447876
vt 1 0.5
vn 0 0.0020833287346154893 0.999997829868337
vn 0.7071052466715393 0.002083328865829882 0.7071052466715393
vn 0.999997829868337 0.0020833287346154893 6.123220878846798e-17
vn 0.7071052466715393 0.002083328865829882 -0.7071052466715393
vn 1.2246441757693597e-16 0.0020833287346154893 -0.999997829868337
vn -0.7071052466715393 0.002083328865829882 -0.7071052466715393
vn -0.999997829868337 0.0020833287346154893 -1.8369661313051448e-16
vn -0.7071052466715393 0.002083328865829882 0.7071052466715393
vn -2.4492883515387194e-16 0.0020833287346154893 0.999997829868337
vn 0 0.0020833287346154893 0.999997829868337
vn 0.7071052466715393 0.002083328865829882 0.7071052466715393
vn 0.999997829868337 0.0020833287346154893 6.123220878846798e-17
vn 0.7071052466715393 0.002083328865829882 -0.7071052466715393
vn 1.2246441757693597e-16 0.0020833287346154893 -0.999997829868337
vn -0.7071052466715393 0.002083328865829882 -0.7071052466715393
vn -0.999997829868337 0.0020833287346154893 -1.8369661313051448e-16
vn -0.7071052466715393 0.002083328865829882 0.7071052466715393
vn -2.4492883515387194e-16 0.0020833287346154893 0.999997829868337
vn 0 1 0
vn 0 1 0
vn 0 1 0
vn 0 1 0
vn 0 1 0
vn 0 1 0
vn 0 1 0
vn 0 1 0
vn 0 1 0
vn 0 1 0
vn 0 1 0
vn 0 1 0
vn 0 1 0
vn 0 1 0
vn 0 1 0
vn 0 1 0
vn 0 1 0
vn 0 -1 0
vn 0 -1 0
vn 0 -1 0
vn 0 -1 0
vn 0 -1 0
vn 0 -1 0
vn 0 -1 0
vn 0 -1 0
vn 0 -1 0
vn 0 -1 0
vn 0 -1 0
vn 0 -1 0
vn 0 -1 0
vn 0 -1 0
vn 0 -1 0
vn 0 -1 0
vn 0 -1 0
f 1/1/1 10/10/10 2/2/2
f 10/10/10 11/11/11 2/2/2
f 2/2/2 11/11/11 3/3/3
f 11/11/11 12/12/12 3/3/3
f 3/3/3 12/12/12 4/4/4
f 12/12/12 13/13/13 4/4/4
f 4/4/4 13/13/13 5/5/5
f 13/13/13 14/14/14 5/5/5
f 5/5/5 14/14/14 6/6/6
f 14/14/14 15/15/15 6/6/6
f 6/6/6 15/15/15 7/7/7
f 15/15/15 16/16/16 7/7/7
f 7/7/7 16/16/16 8/8/8
f 16/16/16 17/17/17 8/8/8
f 8/8/8 17/17/17 9/9/9
f 17/17/17 18/18/18 9/9/9
f 27/27/27 28/28/28 19/19/19
f 28/28/28 29/29/29 20/20/20
f 29/29/29 30/30/30 21/21/21
f 30/30/30 31/31/31 22/22/22
f 31/31/31 32/32/32 23/23/23
f 32/32/32 33/33/33 24/24/24
f 33/33/33 34/34/34 25/25/25
f 34/34/34 35/35/35 26/26/26
f 45/45/45 44/44/44 36/36/36
f 46/46/46 45/45/45 37/37/37
f 47/47/47 46/46/46 38/38/38
f 48/48/48 47/47/47 39/39/39
f 49/49/49 48/48/48 40/40/40
f 50/50/50 49/49/49 41/41/41
f 51/51/51 50/50/50 42/42/42
f 52/52/52 51/51/51 43/43/43
o foot_flange
usemtl SURF_Steel_Sign
v -0.09778173636329046 0.050000048056244896 0.10999999940395355
v -0.01999999206197134 0.050000048056244896 0.07778174430131912
v 0.012218263040663091 0.050000048056244896 6.735557192910056e-18
v -0.01999999206197134 0.050000048056244896 -0.07778174430131912
v -0.09778173636329045 0.050000048056244896 -0.10999999940395355
v -0.17556348066460958 0.050000048056244896 -0.07778174430131912
v -0.207781735767244 0.050000048056244896 -2.020667240591078e-17
v -0.17556348066460958 0.050000048056244896 0.07778174430131912
v -0.09778173636329049 0.050000048056244896 0.10999999940395355
v -0.09778173636329046 4.731118683626301e-8 0.12999999523162842
v -0.005857851315854701 4.731118683626301e-8 0.09192388504743576
v 0.03221825886833796 4.731118683626301e-8 7.960203880059101e-18
v -0.005857851315854701 4.731118683626301e-8 -0.09192388504743576
v -0.09778173636329045 4.731118683626301e-8 -0.12999999523162842
v -0.18970562141072622 4.731118683626301e-8 -0.09192388504743576
v -0.22778173159491888 4.731118683626301e-8 -2.3880613294538528e-17
v -0.18970562141072622 4.731118683626301e-8 0.09192388504743576
v -0.09778173636329049 4.731118683626301e-8 0.12999999523162842
v -0.09778173636329046 0.050000048056244896 0
v -0.09778173636329046 0.050000048056244896 0
v -0.09778173636329046 0.050000048056244896 0
v -0.09778173636329046 0.050000048056244896 0
v -0.09778173636329046 0.050000048056244896 0
v -0.09778173636329046 0.050000048056244896 0
v -0.09778173636329046 0.050000048056244896 0
v -0.09778173636329046 0.050000048056244896 0
v -0.09778173636329046 0.050000048056244896 0.10999999940395355
v -0.01999999206197134 0.050000048056244896 0.07778174430131912
v 0.012218263040663091 0.050000048056244896 6.735557192910056e-18
v -0.01999999206197134 0.050000048056244896 -0.07778174430131912
v -0.09778173636329045 0.050000048056244896 -0.10999999940395355
v -0.17556348066460958 0.050000048056244896 -0.07778174430131912
v -0.207781735767244 0.050000048056244896 -2.020667240591078e-17
v -0.17556348066460958 0.050000048056244896 0.07778174430131912
v -0.09778173636329049 0.050000048056244896 0.10999999940395355
v -0.09778173636329046 4.731118683626301e-8 0
v -0.09778173636329046 4.731118683626301e-8 0
v -0.09778173636329046 4.731118683626301e-8 0
v -0.09778173636329046 4.731118683626301e-8 0
v -0.09778173636329046 4.731118683626301e-8 0
v -0.09778173636329046 4.731118683626301e-8 0
v -0.09778173636329046 4.731118683626301e-8 0
v -0.09778173636329046 4.731118683626301e-8 0
v -0.09778173636329046 4.731118683626301e-8 0.12999999523162842
v -0.005857851315854701 4.731118683626301e-8 0.09192388504743576
v 0.03221825886833796 4.731118683626301e-8 7.960203880059101e-18
v -0.005857851315854701 4.731118683626301e-8 -0.09192388504743576
v -0.09778173636329045 4.731118683626301e-8 -0.12999999523162842
v -0.18970562141072622 4.731118683626301e-8 -0.09192388504743576
v -0.22778173159491888 4.731118683626301e-8 -2.3880613294538528e-17
v -0.18970562141072622 4.731118683626301e-8 0.09192388504743576
v -0.09778173636329049 4.731118683626301e-8 0.12999999523162842
vt 0 1
vt 0.125 1
vt 0.25 1
vt 0.375 1
vt 0.5 1
vt 0.625 1
vt 0.75 1
vt 0.875 1
vt 1 1
vt 0 0
vt 0.125 0
vt 0.25 0
vt 0.375 0
vt 0.5 0
vt 0.625 0
vt 0.75 0
vt 0.875 0
vt 1 0
vt 0.5 0.5
vt 0.5 0.5
vt 0.5 0.5
vt 0.5 0.5
vt 0.5 0.5
vt 0.5 0.5
vt 0.5 0.5
vt 0.5 0.5
vt 1 0.5
vt 0.8535534143447876 0.8535534143447876
vt 0.5 1
vt 0.1464466154575348 0.8535534143447876
vt 0 0.5
vt 0.1464466154575348 0.1464466154575348
vt 0.5 0
vt 0.8535534143447876 0.1464466154575348
vt 1 0.5
vt 0.5 0.5
vt 0.5 0.5
vt 0.5 0.5
vt 0.5 0.5
vt 0.5 0.5
vt 0.5 0.5
vt 0.5 0.5
vt 0.5 0.5
vt 1 0.5
vt 0.8535534143447876 0.1464466154575348
vt 0.5 0
vt 0.1464466154575348 0.1464466154575348
vt 0 0.5
vt 0.1464466154575348 0.8535534143447876
vt 0.5 1
vt 0.8535534143447876 0.8535534143447876
vt 1 0.5
vn 0 0.37139067121577224 0.9284766929405919
vn 0.6565321662808694 0.37139066934576814 0.6565321662808694
vn 0.9284766929405919 0.37139067121577224 5.685279858391126e-17
vn 0.6565321662808694 0.37139066934576814 -0.6565321662808694
vn 1.137055971678225e-16 0.37139067121577224 -0.9284766929405919
vn -0.6565321662808694 0.37139066934576814 -0.6565321662808694
vn -0.9284766929405919 0.37139067121577224 -1.7055839575173376e-16
vn -0.6565321662808694 0.37139066934576814 0.6565321662808694
vn -2.27411194335645e-16 0.37139067121577224 0.9284766929405919
vn 0 0.37139067121577224 0.9284766929405919
vn 0.6565321662808694 0.37139066934576814 0.6565321662808694
vn 0.9284766929405919 0.37139067121577224 5.685279858391126e-17
vn 0.6565321662808694 0.37139066934576814 -0.6565321662808694
vn 1.137055971678225e-16 0.37139067121577224 -0.9284766929405919
vn -0.6565321662808694 0.37139066934576814 -0.6565321662808694
vn -0.9284766929405919 0.37139067121577224 -1.7055839575173376e-16
vn -0.6565321662808694 0.37139066934576814 0.6565321662808694
vn -2.27411194335645e-16 0.37139067121577224 0.9284766929405919
vn 0 1 0
vn 0 1 0
vn 0 1 0
vn 0 1 0
vn 0 1 0
vn 0 1 0
vn 0 1 0
vn 0 1 0
vn 0 1 0
vn 0 1 0
vn 0 1 0
vn 0 1 0
vn 0 1 0
vn 0 1 0
vn 0 1 0
vn 0 1 0
vn 0 1 0
vn 0 -1 0
vn 0 -1 0
vn 0 -1 0
vn 0 -1 0
vn 0 -1 0
vn 0 -1 0
vn 0 -1 0
vn 0 -1 0
vn 0 -1 0
vn 0 -1 0
vn 0 -1 0
vn 0 -1 0
vn 0 -1 0
vn 0 -1 0
vn 0 -1 0
vn 0 -1 0
vn 0 -1 0
f 53/53/53 62/62/62 54/54/54
f 62/62/62 63/63/63 54/54/54
f 54/54/54 63/63/63 55/55/55
f 63/63/63 64/64/64 55/55/55
f 55/55/55 64/64/64 56/56/56
f 64/64/64 65/65/65 56/56/56
f 56/56/56 65/65/65 57/57/57
f 65/65/65 66/66/66 57/57/57
f 57/57/57 66/66/66 58/58/58
f 66/66/66 67/67/67 58/58/58
f 58/58/58 67/67/67 59/59/59
f 67/67/67 68/68/68 59/59/59
f 59/59/59 68/68/68 60/60/60
f 68/68/68 69/69/69 60/60/60
f 60/60/60 69/69/69 61/61/61
f 69/69/69 70/70/70 61/61/61
f 79/79/79 80/80/80 71/71/71
f 80/80/80 81/81/81 72/72/72
f 81/81/81 82/82/82 73/73/73
f 82/82/82 83/83/83 74/74/74
f 83/83/83 84/84/84 75/75/75
f 84/84/84 85/85/85 76/76/76
f 85/85/85 86/86/86 77/77/77
f 86/86/86 87/87/87 78/78/78
f 97/97/97 96/96/96 88/88/88
f 98/98/98 97/97/97 89/89/89
f 99/99/99 98/98/98 90/90/90
f 100/100/100 99/99/99 91/91/91
f 101/101/101 100/100/100 92/92/92
f 102/102/102 101/101/101 93/93/93
f 103/103/103 102/102/102 94/94/94
f 104/104/104 103/103/103 95/95/95
o plate_main
usemtl SURF_Steel_Sign
v 0.302218269597174 2.2700000494718555 0.014999999664723873
v 0.302218269597174 2.2700000494718555 -0.014999999664723873
v 0.302218269597174 1.9300000458955768 0.014999999664723873
v 0.302218269597174 1.9300000458955768 -0.014999999664723873
v -0.49778174232375494 2.2700000494718555 -0.014999999664723873
v -0.49778174232375494 2.2700000494718555 0.014999999664723873
v -0.49778174232375494 1.9300000458955768 -0.014999999664723873
v -0.49778174232375494 1.9300000458955768 0.014999999664723873
v -0.49778174232375494 2.2700000494718555 -0.014999999664723873
v 0.302218269597174 2.2700000494718555 -0.014999999664723873
v -0.49778174232375494 2.2700000494718555 0.014999999664723873
v 0.302218269597174 2.2700000494718555 0.014999999664723873
v -0.49778174232375494 1.9300000458955768 0.014999999664723873
v 0.302218269597174 1.9300000458955768 0.014999999664723873
v -0.49778174232375494 1.9300000458955768 -0.014999999664723873
v 0.302218269597174 1.9300000458955768 -0.014999999664723873
v -0.49778174232375494 2.2700000494718555 0.014999999664723873
v 0.302218269597174 2.2700000494718555 0.014999999664723873
v -0.49778174232375494 1.9300000458955768 0.014999999664723873
v 0.302218269597174 1.9300000458955768 0.014999999664723873
v 0.302218269597174 2.2700000494718555 -0.014999999664723873
v -0.49778174232375494 2.2700000494718555 -0.014999999664723873
v 0.302218269597174 1.9300000458955768 -0.014999999664723873
v -0.49778174232375494 1.9300000458955768 -0.014999999664723873
vt 0 1
vt 1 1
vt 0 0
vt 1 0
vt 0 1
vt 1 1
vt 0 0
vt 1 0
vt 0 1
vt 1 1
vt 0 0
vt 1 0
vt 0 1
vt 1 1
vt 0 0
vt 1 0
vt 0 1
vt 1 1
vt 0 0
vt 1 0
vt 0 1
vt 1 1
vt 0 0
vt 1 0
vn 1 0 0
vn 1 0 0
vn 1 0 0
vn 1 0 0
vn -1 0 0
vn -1 0 0
vn -1 0 0
vn -1 0 0
vn 0 1 0
vn 0 1 0
vn 0 1 0
vn 0 1 0
vn 0 -1 0
vn 0 -1 0
vn 0 -1 0
vn 0 -1 0
vn 0 0 1
vn 0 0 1
vn 0 0 1
vn 0 0 1
vn 0 0 -1
vn 0 0 -1
vn 0 0 -1
vn 0 0 -1
f 105/105/105 107/107/107 106/106/106
f 107/107/107 108/108/108 106/106/106
f 109/109/109 111/111/111 110/110/110
f 111/111/111 112/112/112 110/110/110
f 113/113/113 115/115/115 114/114/114
f 115/115/115 116/116/116 114/114/114
f 117/117/117 119/119/119 118/118/118
f 119/119/119 120/120/120 118/118/118
f 121/121/121 123/123/123 122/122/122
f 123/123/123 124/124/124 122/122/122
f 125/125/125 127/127/127 126/126/126
f 127/127/127 128/128/128 126/126/126
o plate_face
usemtl SURF_Paper_Newsprint
v 0.2722182684050811 2.2400000482797626 0.024000000189989806
v 0.2722182684050811 2.2400000482797626 0.015999999810010195
v 0.2722182684050811 1.9600000470876697 0.024000000189989806
v 0.2722182684050811 1.9600000470876697 0.015999999810010195
v -0.46778174113166204 2.2400000482797626 0.015999999810010195
v -0.46778174113166204 2.2400000482797626 0.024000000189989806
v -0.46778174113166204 1.9600000470876697 0.015999999810010195
v -0.46778174113166204 1.9600000470876697 0.024000000189989806
v -0.46778174113166204 2.2400000482797626 0.015999999810010195
v 0.2722182684050811 2.2400000482797626 0.015999999810010195
v -0.46778174113166204 2.2400000482797626 0.024000000189989806
v 0.2722182684050811 2.2400000482797626 0.024000000189989806
v -0.46778174113166204 1.9600000470876697 0.024000000189989806
v 0.2722182684050811 1.9600000470876697 0.024000000189989806
v -0.46778174113166204 1.9600000470876697 0.015999999810010195
v 0.2722182684050811 1.9600000470876697 0.015999999810010195
v -0.46778174113166204 2.2400000482797626 0.024000000189989806
v 0.2722182684050811 2.2400000482797626 0.024000000189989806
v -0.46778174113166204 1.9600000470876697 0.024000000189989806
v 0.2722182684050811 1.9600000470876697 0.024000000189989806
v 0.2722182684050811 2.2400000482797626 0.015999999810010195
v -0.46778174113166204 2.2400000482797626 0.015999999810010195
v 0.2722182684050811 1.9600000470876697 0.015999999810010195
v -0.46778174113166204 1.9600000470876697 0.015999999810010195
vt 0 1
vt 1 1
vt 0 0
vt 1 0
vt 0 1
vt 1 1
vt 0 0
vt 1 0
vt 0 1
vt 1 1
vt 0 0
vt 1 0
vt 0 1
vt 1 1
vt 0 0
vt 1 0
vt 0 1
vt 1 1
vt 0 0
vt 1 0
vt 0 1
vt 1 1
vt 0 0
vt 1 0
vn 1 0 0
vn 1 0 0
vn 1 0 0
vn 1 0 0
vn -1 0 0
vn -1 0 0
vn -1 0 0
vn -1 0 0
vn 0 1 0
vn 0 1 0
vn 0 1 0
vn 0 1 0
vn 0 -1 0
vn 0 -1 0
vn 0 -1 0
vn 0 -1 0
vn 0 0 1
vn 0 0 1
vn 0 0 1
vn 0 0 1
vn 0 0 -1
vn 0 0 -1
vn 0 0 -1
vn 0 0 -1
f 129/129/129 131/131/131 130/130/130
f 131/131/131 132/132/132 130/130/130
f 133/133/133 135/135/135 134/134/134
f 135/135/135 136/136/136 134/134/134
f 137/137/137 139/139/139 138/138/138
f 139/139/139 140/140/140 138/138/138
f 141/141/141 143/143/143 142/142/142
f 143/143/143 144/144/144 142/142/142
f 145/145/145 147/147/147 146/146/146
f 147/147/147 148/148/148 146/146/146
f 149/149/149 151/151/151 150/150/150
f 151/151/151 152/152/152 150/150/150
o arrow_blade
usemtl SURF_Steel_Sign
v 0.34228020332317566 2.2555635263707616 0.012500000186264515
v 0.34228020332317566 2.2555635263707616 -0.012500000186264515
v 0.4977817423237549 2.09993810799725 0.012500000186264515
v 0.4977817423237549 2.09993810799725 -0.012500000186264515
v 0.1866547849496642 2.1000619873701822 -0.012500000186264515
v 0.1866547849496642 2.1000619873701822 0.012500000186264515
v 0.3421563239502434 1.9444365689966707 -0.012500000186264515
v 0.3421563239502434 1.9444365689966707 0.012500000186264515
v 0.1866547849496642 2.1000619873701822 -0.012500000186264515
v 0.34228020332317566 2.2555635263707616 -0.012500000186264515
v 0.1866547849496642 2.1000619873701822 0.012500000186264515
v 0.34228020332317566 2.2555635263707616 0.012500000186264515
v 0.3421563239502434 1.9444365689966707 0.012500000186264515
v 0.4977817423237549 2.09993810799725 0.012500000186264515
v 0.3421563239502434 1.9444365689966707 -0.012500000186264515
v 0.4977817423237549 2.09993810799725 -0.012500000186264515
v 0.1866547849496642 2.1000619873701822 0.012500000186264515
v 0.34228020332317566 2.2555635263707616 0.012500000186264515
v 0.3421563239502434 1.9444365689966707 0.012500000186264515
v 0.4977817423237549 2.09993810799725 0.012500000186264515
v 0.34228020332317566 2.2555635263707616 -0.012500000186264515
v 0.1866547849496642 2.1000619873701822 -0.012500000186264515
v 0.4977817423237549 2.09993810799725 -0.012500000186264515
v 0.3421563239502434 1.9444365689966707 -0.012500000186264515
vt 0 1
vt 1 1
vt 0 0
vt 1 0
vt 0 1
vt 1 1
vt 0 0
vt 1 0
vt 0 1
vt 1 1
vt 0 0
vt 1 0
vt 0 1
vt 1 1
vt 0 0
vt 1 0
vt 0 1
vt 1 1
vt 0 0
vt 1 0
vt 0 1
vt 1 1
vt 0 0
vt 1 0
vn 0.7073882691671998 0.706825181105366 0
vn 0.7073882691671998 0.706825181105366 0
vn 0.7073882691671998 0.706825181105366 0
vn 0.7073882691671998 0.706825181105366 0
vn -0.7073882691671998 -0.706825181105366 0
vn -0.7073882691671998 -0.706825181105366 0
vn -0.7073882691671998 -0.706825181105366 0
vn -0.7073882691671998 -0.706825181105366 0
vn -0.706825181105366 0.7073882691671998 0
vn -0.706825181105366 0.7073882691671998 0
vn -0.706825181105366 0.7073882691671998 0
vn -0.706825181105366 0.7073882691671998 0
vn 0.706825181105366 -0.7073882691671998 0
vn 0.706825181105366 -0.7073882691671998 0
vn 0.706825181105366 -0.7073882691671998 0
vn 0.706825181105366 -0.7073882691671998 0
vn 0 0 1
vn 0 0 1
vn 0 0 1
vn 0 0 1
vn 0 0 -1
vn 0 0 -1
vn 0 0 -1
vn 0 0 -1
f 153/153/153 155/155/155 154/154/154
f 155/155/155 156/156/156 154/154/154
f 157/157/157 159/159/159 158/158/158
f 159/159/159 160/160/160 158/158/158
f 161/161/161 163/163/163 162/162/162
f 163/163/163 164/164/164 162/162/162
f 165/165/165 167/167/167 166/166/166
f 167/167/167 168/168/168 166/166/166
f 169/169/169 171/171/171 170/170/170
f 171/171/171 172/172/172 170/170/170
f 173/173/173 175/175/175 174/174/174
f 175/175/175 176/176/176 174/174/174
o plate_sub
usemtl SURF_Steel_Sign
v 0.2022182755576385 1.9000000458955766 0.012500000186264515
v 0.2022182755576385 1.9000000458955766 -0.012500000186264515
v 0.2022182755576385 1.7400000494718553 0.012500000186264515
v 0.2022182755576385 1.7400000494718553 -0.012500000186264515
v -0.3977817482842194 1.9000000458955766 -0.012500000186264515
v -0.3977817482842194 1.9000000458955766 0.012500000186264515
v -0.3977817482842194 1.7400000494718553 -0.012500000186264515
v -0.3977817482842194 1.7400000494718553 0.012500000186264515
v -0.3977817482842194 1.9000000458955766 -0.012500000186264515
v 0.2022182755576385 1.9000000458955766 -0.012500000186264515
v -0.3977817482842194 1.9000000458955766 0.012500000186264515
v 0.2022182755576385 1.9000000458955766 0.012500000186264515
v -0.3977817482842194 1.7400000494718553 0.012500000186264515
v 0.2022182755576385 1.7400000494718553 0.012500000186264515
v -0.3977817482842194 1.7400000494718553 -0.012500000186264515
v 0.2022182755576385 1.7400000494718553 -0.012500000186264515
v -0.3977817482842194 1.9000000458955766 0.012500000186264515
v 0.2022182755576385 1.9000000458955766 0.012500000186264515
v -0.3977817482842194 1.7400000494718553 0.012500000186264515
v 0.2022182755576385 1.7400000494718553 0.012500000186264515
v 0.2022182755576385 1.9000000458955766 -0.012500000186264515
v -0.3977817482842194 1.9000000458955766 -0.012500000186264515
v 0.2022182755576385 1.7400000494718553 -0.012500000186264515
v -0.3977817482842194 1.7400000494718553 -0.012500000186264515
vt 0 1
vt 1 1
vt 0 0
vt 1 0
vt 0 1
vt 1 1
vt 0 0
vt 1 0
vt 0 1
vt 1 1
vt 0 0
vt 1 0
vt 0 1
vt 1 1
vt 0 0
vt 1 0
vt 0 1
vt 1 1
vt 0 0
vt 1 0
vt 0 1
vt 1 1
vt 0 0
vt 1 0
vn 1 0 0
vn 1 0 0
vn 1 0 0
vn 1 0 0
vn -1 0 0
vn -1 0 0
vn -1 0 0
vn -1 0 0
vn 0 1 0
vn 0 1 0
vn 0 1 0
vn 0 1 0
vn 0 -1 0
vn 0 -1 0
vn 0 -1 0
vn 0 -1 0
vn 0 0 1
vn 0 0 1
vn 0 0 1
vn 0 0 1
vn 0 0 -1
vn 0 0 -1
vn 0 0 -1
vn 0 0 -1
f 177/177/177 179/179/179 178/178/178
f 179/179/179 180/180/180 178/178/178
f 181/181/181 183/183/183 182/182/182
f 183/183/183 184/184/184 182/182/182
f 185/185/185 187/187/187 186/186/186
f 187/187/187 188/188/188 186/186/186
f 189/189/189 191/191/191 190/190/190
f 191/191/191 192/192/192 190/190/190
f 193/193/193 195/195/195 194/194/194
f 195/195/195 196/196/196 194/194/194
f 197/197/197 199/199/199 198/198/198
f 199/199/199 200/200/200 198/198/198
o plate_sub_face
usemtl SURF_Paper_Newsprint
v 0.1722182743655456 1.8750000473856927 0.022000000189989804
v 0.1722182743655456 1.8750000473856927 0.013999999810010193
v 0.1722182743655456 1.7650000479817392 0.022000000189989804
v 0.1722182743655456 1.7650000479817392 0.013999999810010193
v -0.3677817470921265 1.8750000473856927 0.013999999810010193
v -0.3677817470921265 1.8750000473856927 0.022000000189989804
v -0.3677817470921265 1.7650000479817392 0.013999999810010193
v -0.3677817470921265 1.7650000479817392 0.022000000189989804
v -0.3677817470921265 1.8750000473856927 0.013999999810010193
v 0.1722182743655456 1.8750000473856927 0.013999999810010193
v -0.3677817470921265 1.8750000473856927 0.022000000189989804
v 0.1722182743655456 1.8750000473856927 0.022000000189989804
v -0.3677817470921265 1.7650000479817392 0.022000000189989804
v 0.1722182743655456 1.7650000479817392 0.022000000189989804
v -0.3677817470921265 1.7650000479817392 0.013999999810010193
v 0.1722182743655456 1.7650000479817392 0.013999999810010193
v -0.3677817470921265 1.8750000473856927 0.022000000189989804
v 0.1722182743655456 1.8750000473856927 0.022000000189989804
v -0.3677817470921265 1.7650000479817392 0.022000000189989804
v 0.1722182743655456 1.7650000479817392 0.022000000189989804
v 0.1722182743655456 1.8750000473856927 0.013999999810010193
v -0.3677817470921265 1.8750000473856927 0.013999999810010193
v 0.1722182743655456 1.7650000479817392 0.013999999810010193
v -0.3677817470921265 1.7650000479817392 0.013999999810010193
vt 0 1
vt 1 1
vt 0 0
vt 1 0
vt 0 1
vt 1 1
vt 0 0
vt 1 0
vt 0 1
vt 1 1
vt 0 0
vt 1 0
vt 0 1
vt 1 1
vt 0 0
vt 1 0
vt 0 1
vt 1 1
vt 0 0
vt 1 0
vt 0 1
vt 1 1
vt 0 0
vt 1 0
vn 1 0 0
vn 1 0 0
vn 1 0 0
vn 1 0 0
vn -1 0 0
vn -1 0 0
vn -1 0 0
vn -1 0 0
vn 0 1 0
vn 0 1 0
vn 0 1 0
vn 0 1 0
vn 0 -1 0
vn 0 -1 0
vn 0 -1 0
vn 0 -1 0
vn 0 0 1
vn 0 0 1
vn 0 0 1
vn 0 0 1
vn 0 0 -1
vn 0 0 -1
vn 0 0 -1
vn 0 0 -1
f 201/201/201 203/203/203 202/202/202
f 203/203/203 204/204/204 202/202/202
f 205/205/205 207/207/207 206/206/206
f 207/207/207 208/208/208 206/206/206
f 209/209/209 211/211/211 210/210/210
f 211/211/211 212/212/212 210/210/210
f 213/213/213 215/215/215 214/214/214
f 215/215/215 216/216/216 214/214/214
f 217/217/217 219/219/219 218/218/218
f 219/219/219 220/220/220 218/218/218
f 221/221/221 223/223/223 222/222/222
f 223/223/223 224/224/224 222/222/222
