# SM_H_Stop_Sign_A — Stop sign
# SC_HANDOFF · group A
# bounds 0.74 × 0.18 × 2.32 m · 108 tris · UV island 80 × 32 px
# 1 unit = 1 m · pivot at floor contact, X/Z centred
mtllib SM_H_Stop_Sign_A.mtl
o post
usemtl SURF_Steel_Sign
v 0 2.200000047683716 0.03999999910593033
v 0.02828427031636238 2.200000047683716 0.02828427031636238
v 0.03999999910593033 2.200000047683716 2.449293581093244e-18
v 0.02828427031636238 2.200000047683716 -0.02828427031636238
v 4.898587162186488e-18 2.200000047683716 -0.03999999910593033
v -0.02828427031636238 2.200000047683716 -0.02828427031636238
v -0.03999999910593033 2.200000047683716 -7.347880950074885e-18
v -0.02828427031636238 2.200000047683716 0.02828427031636238
v -9.797174324372975e-18 2.200000047683716 0.03999999910593033
v 0 0 0.04500000178813934
v 0.03181980550289154 0 0.03181980550289154
v 0.04500000178813934 0 2.755455252880505e-18
v 0.03181980550289154 0 -0.03181980550289154
v 5.51091050576101e-18 0 -0.04500000178813934
v -0.03181980550289154 0 -0.03181980550289154
v -0.04500000178813934 0 -8.266365758641515e-18
v -0.03181980550289154 0 0.03181980550289154
v -1.102182101152202e-17 0 0.04500000178813934
v 0 2.200000047683716 0
v 0 2.200000047683716 0
v 0 2.200000047683716 0
v 0 2.200000047683716 0
v 0 2.200000047683716 0
v 0 2.200000047683716 0
v 0 2.200000047683716 0
v 0 2.200000047683716 0
v 0 2.200000047683716 0.03999999910593033
v 0.02828427031636238 2.200000047683716 0.02828427031636238
v 0.03999999910593033 2.200000047683716 2.449293581093244e-18
v 0.02828427031636238 2.200000047683716 -0.02828427031636238
v 4.898587162186488e-18 2.200000047683716 -0.03999999910593033
v -0.02828427031636238 2.200000047683716 -0.02828427031636238
v -0.03999999910593033 2.200000047683716 -7.347880950074885e-18
v -0.02828427031636238 2.200000047683716 0.02828427031636238
v -9.797174324372975e-18 2.200000047683716 0.03999999910593033
v 0 0 0
v 0 0 0
v 0 0 0
v 0 0 0
v 0 0 0
v 0 0 0
v 0 0 0
v 0 0 0
v 0 0 0.04500000178813934
v 0.03181980550289154 0 0.03181980550289154
v 0.04500000178813934 0 2.755455252880505e-18
v 0.03181980550289154 0 -0.03181980550289154
v 5.51091050576101e-18 0 -0.04500000178813934
v -0.03181980550289154 0 -0.03181980550289154
v -0.04500000178813934 0 -8.266365758641515e-18
v -0.03181980550289154 0 0.03181980550289154
v -1.102182101152202e-17 0 0.04500000178813934
vt 0 1
vt 0.125 1
vt 0.25 1
vt 0.375 1
vt 0.5 1
vt 0.625 1
vt 0.75 1
vt 0.875 1
vt 1 1
vt 0 0
vt 0.125 0
vt 0.25 0
vt 0.375 0
vt 0.5 0
vt 0.625 0
vt 0.75 0
vt 0.875 0
vt 1 0
vt 0.5 0.5
vt 0.5 0.5
vt 0.5 0.5
vt 0.5 0.5
vt 0.5 0.5
vt 0.5 0.5
vt 0.5 0.5
vt 0.5 0.5
vt 1 0.5
vt 0.8535534143447876 0.8535534143447876
vt 0.5 1
vt 0.1464466154575348 0.8535534143447876
vt 0 0.5
vt 0.1464466154575348 0.1464466154575348
vt 0.5 0
vt 0.8535534143447876 0.1464466154575348
vt 1 0.5
vt 0.5 0.5
vt 0.5 0.5
vt 0.5 0.5
vt 0.5 0.5
vt 0.5 0.5
vt 0.5 0.5
vt 0.5 0.5
vt 0.5 0.5
vt 1 0.5
vt 0.8535534143447876 0.1464466154575348
vt 0.5 0
vt 0.1464466154575348 0.1464466154575348
vt 0 0.5
vt 0.1464466154575348 0.8535534143447876
vt 0.5 1
vt 0.8535534143447876 0.8535534143447876
vt 1 0.5
vn 0 0.0022727213353709295 0.9999974173655308
vn 0.7071049549882634 0.002272721296565352 0.7071049549882634
vn 0.9999974173655308 0.0022727213353709295 6.123218260829946e-17
vn 0.7071049549882634 0.002272721296565352 -0.7071049549882634
vn 1.2246436521659892e-16 0.0022727213353709295 -0.9999974173655308
vn -0.7071049549882634 0.002272721296565352 -0.7071049549882634
vn -0.9999974173655308 0.0022727213353709295 -1.836965478248984e-16
vn -0.7071049549882634 0.002272721296565352 0.7071049549882634
vn -2.4492873043319784e-16 0.0022727213353709295 0.9999974173655308
vn 0 0.0022727213353709295 0.9999974173655308
vn 0.7071049549882634 0.002272721296565352 0.7071049549882634
vn 0.9999974173655308 0.0022727213353709295 6.123218260829946e-17
vn 0.7071049549882634 0.002272721296565352 -0.7071049549882634
vn 1.2246436521659892e-16 0.0022727213353709295 -0.9999974173655308
vn -0.7071049549882634 0.002272721296565352 -0.7071049549882634
vn -0.9999974173655308 0.0022727213353709295 -1.836965478248984e-16
vn -0.7071049549882634 0.002272721296565352 0.7071049549882634
vn -2.4492873043319784e-16 0.0022727213353709295 0.9999974173655308
vn 0 1 0
vn 0 1 0
vn 0 1 0
vn 0 1 0
vn 0 1 0
vn 0 1 0
vn 0 1 0
vn 0 1 0
vn 0 1 0
vn 0 1 0
vn 0 1 0
vn 0 1 0
vn 0 1 0
vn 0 1 0
vn 0 1 0
vn 0 1 0
vn 0 1 0
vn 0 -1 0
vn 0 -1 0
vn 0 -1 0
vn 0 -1 0
vn 0 -1 0
vn 0 -1 0
vn 0 -1 0
vn 0 -1 0
vn 0 -1 0
vn 0 -1 0
vn 0 -1 0
vn 0 -1 0
vn 0 -1 0
vn 0 -1 0
vn 0 -1 0
vn 0 -1 0
vn 0 -1 0
f 1/1/1 10/10/10 2/2/2
f 10/10/10 11/11/11 2/2/2
f 2/2/2 11/11/11 3/3/3
f 11/11/11 12/12/12 3/3/3
f 3/3/3 12/12/12 4/4/4
f 12/12/12 13/13/13 4/4/4
f 4/4/4 13/13/13 5/5/5
f 13/13/13 14/14/14 5/5/5
f 5/5/5 14/14/14 6/6/6
f 14/14/14 15/15/15 6/6/6
f 6/6/6 15/15/15 7/7/7
f 15/15/15 16/16/16 7/7/7
f 7/7/7 16/16/16 8/8/8
f 16/16/16 17/17/17 8/8/8
f 8/8/8 17/17/17 9/9/9
f 17/17/17 18/18/18 9/9/9
f 27/27/27 28/28/28 19/19/19
f 28/28/28 29/29/29 20/20/20
f 29/29/29 30/30/30 21/21/21
f 30/30/30 31/31/31 22/22/22
f 31/31/31 32/32/32 23/23/23
f 32/32/32 33/33/33 24/24/24
f 33/33/33 34/34/34 25/25/25
f 34/34/34 35/35/35 26/26/26
f 45/45/45 44/44/44 36/36/36
f 46/46/46 45/45/45 37/37/37
f 47/47/47 46/46/46 38/38/38
f 48/48/48 47/47/47 39/39/39
f 49/49/49 48/48/48 40/40/40
f 50/50/50 49/49/49 41/41/41
f 51/51/51 50/50/50 42/42/42
f 52/52/52 51/51/51 43/43/43
o plate_octagon
usemtl SURF_Metal_Rust
v 0 1.5800000190734862 0.014999999664723795
v 0.26162952184677124 1.6883705019950865 0.01499999966472382
v 0.3700000047683716 1.9500000238418578 0.014999999664723877
v 0.26162952184677124 2.2116295456886292 0.014999999664723934
v 4.531193156041774e-17 2.3200000286102296 0.014999999664723958
v -0.26162952184677124 2.2116295456886292 0.014999999664723934
v -0.3700000047683716 1.9500000238418578 0.014999999664723877
v -0.26162952184677124 1.6883705019950865 0.01499999966472382
v -9.062386312083548e-17 1.5800000190734862 0.014999999664723795
v 0 1.5800000190734862 -0.014999999664723958
v 0.26162952184677124 1.6883705019950865 -0.014999999664723934
v 0.3700000047683716 1.9500000238418578 -0.014999999664723877
v 0.26162952184677124 2.2116295456886292 -0.01499999966472382
v 4.531193156041774e-17 2.3200000286102296 -0.014999999664723795
v -0.26162952184677124 2.2116295456886292 -0.01499999966472382
v -0.3700000047683716 1.9500000238418578 -0.014999999664723877
v -0.26162952184677124 1.6883705019950865 -0.014999999664723934
v -9.062386312083548e-17 1.5800000190734862 -0.014999999664723958
v 0 1.9500000238418578 0.014999999664723877
v 0 1.9500000238418578 0.014999999664723877
v 0 1.9500000238418578 0.014999999664723877
v 0 1.9500000238418578 0.014999999664723877
v 0 1.9500000238418578 0.014999999664723877
v 0 1.9500000238418578 0.014999999664723877
v 0 1.9500000238418578 0.014999999664723877
v 0 1.9500000238418578 0.014999999664723877
v 0 1.5800000190734862 0.014999999664723795
v 0.26162952184677124 1.6883705019950865 0.01499999966472382
v 0.3700000047683716 1.9500000238418578 0.014999999664723877
v 0.26162952184677124 2.2116295456886292 0.014999999664723934
v 4.531193156041774e-17 2.3200000286102296 0.014999999664723958
v -0.26162952184677124 2.2116295456886292 0.014999999664723934
v -0.3700000047683716 1.9500000238418578 0.014999999664723877
v -0.26162952184677124 1.6883705019950865 0.01499999966472382
v -9.062386312083548e-17 1.5800000190734862 0.014999999664723795
v 0 1.9500000238418578 -0.014999999664723877
v 0 1.9500000238418578 -0.014999999664723877
v 0 1.9500000238418578 -0.014999999664723877
v 0 1.9500000238418578 -0.014999999664723877
v 0 1.9500000238418578 -0.014999999664723877
v 0 1.9500000238418578 -0.014999999664723877
v 0 1.9500000238418578 -0.014999999664723877
v 0 1.9500000238418578 -0.014999999664723877
v 0 1.5800000190734862 -0.014999999664723958
v 0.26162952184677124 1.6883705019950865 -0.014999999664723934
v 0.3700000047683716 1.9500000238418578 -0.014999999664723877
v 0.26162952184677124 2.2116295456886292 -0.01499999966472382
v 4.531193156041774e-17 2.3200000286102296 -0.014999999664723795
v -0.26162952184677124 2.2116295456886292 -0.01499999966472382
v -0.3700000047683716 1.9500000238418578 -0.014999999664723877
v -0.26162952184677124 1.6883705019950865 -0.014999999664723934
v -9.062386312083548e-17 1.5800000190734862 -0.014999999664723958
vt 0 1
vt 0.125 1
vt 0.25 1
vt 0.375 1
vt 0.5 1
vt 0.625 1
vt 0.75 1
vt 0.875 1
vt 1 1
vt 0 0
vt 0.125 0
vt 0.25 0
vt 0.375 0
vt 0.5 0
vt 0.625 0
vt 0.75 0
vt 0.875 0
vt 1 0
vt 0.5 0.5
vt 0.5 0.5
vt 0.5 0.5
vt 0.5 0.5
vt 0.5 0.5
vt 0.5 0.5
vt 0.5 0.5
vt 0.5 0.5
vt 1 0.5
vt 0.8535534143447876 0.8535534143447876
vt 0.5 1
vt 0.1464466154575348 0.8535534143447876
vt 0 0.5
vt 0.1464466154575348 0.1464466154575348
vt 0.5 0
vt 0.8535534143447876 0.1464466154575348
vt 1 0.5
vt 0.5 0.5
vt 0.5 0.5
vt 0.5 0.5
vt 0.5 0.5
vt 0.5 0.5
vt 0.5 0.5
vt 0.5 0.5
vt 0.5 0.5
vt 1 0.5
vt 0.8535534143447876 0.1464466154575348
vt 0.5 0
vt 0.1464466154575348 0.1464466154575348
vt 0 0.5
vt 0.1464466154575348 0.8535534143447876
vt 0.5 1
vt 0.8535534143447876 0.8535534143447876
vt 1 0.5
vn 0 -1 -2.2204460492503126e-16
vn 0.7071067811865476 -0.7071067811865475 -1.5700924586837744e-16
vn 1 -6.123234262925838e-17 -1.3596311327747827e-32
vn 0.7071067811865476 0.7071067811865475 1.5700924586837744e-16
vn 1.224646852585168e-16 1 2.2204460492503126e-16
vn -0.7071067811865476 0.7071067811865475 1.5700924586837744e-16
vn -1 1.8369701465288533e-16 4.0788931044507604e-32
vn -0.7071067811865476 -0.7071067811865475 -1.5700924586837744e-16
vn -2.449293705170336e-16 -1 -2.2204460492503126e-16
vn 0 -1 -2.2204460492503126e-16
vn 0.7071067811865476 -0.7071067811865475 -1.5700924586837744e-16
vn 1 -6.123234262925838e-17 -1.3596311327747827e-32
vn 0.7071067811865476 0.7071067811865475 1.5700924586837744e-16
vn 1.224646852585168e-16 1 2.2204460492503126e-16
vn -0.7071067811865476 0.7071067811865475 1.5700924586837744e-16
vn -1 1.8369701465288533e-16 4.0788931044507604e-32
vn -0.7071067811865476 -0.7071067811865475 -1.5700924586837744e-16
vn -2.449293705170336e-16 -1 -2.2204460492503126e-16
vn 0 -2.2204460492503126e-16 1
vn 0 -2.2204460492503126e-16 1
vn 0 -2.2204460492503126e-16 1
vn 0 -2.2204460492503126e-16 1
vn 0 -2.2204460492503126e-16 1
vn 0 -2.2204460492503126e-16 1
vn 0 -2.2204460492503126e-16 1
vn 0 -2.2204460492503126e-16 1
vn 0 -2.2204460492503126e-16 1
vn 0 -2.2204460492503126e-16 1
vn 0 -2.2204460492503126e-16 1
vn 0 -2.2204460492503126e-16 1
vn 0 -2.2204460492503126e-16 1
vn 0 -2.2204460492503126e-16 1
vn 0 -2.2204460492503126e-16 1
vn 0 -2.2204460492503126e-16 1
vn 0 -2.2204460492503126e-16 1
vn 0 2.2204460492503126e-16 -1
vn 0 2.2204460492503126e-16 -1
vn 0 2.2204460492503126e-16 -1
vn 0 2.2204460492503126e-16 -1
vn 0 2.2204460492503126e-16 -1
vn 0 2.2204460492503126e-16 -1
vn 0 2.2204460492503126e-16 -1
vn 0 2.2204460492503126e-16 -1
vn 0 2.2204460492503126e-16 -1
vn 0 2.2204460492503126e-16 -1
vn 0 2.2204460492503126e-16 -1
vn 0 2.2204460492503126e-16 -1
vn 0 2.2204460492503126e-16 -1
vn 0 2.2204460492503126e-16 -1
vn 0 2.2204460492503126e-16 -1
vn 0 2.2204460492503126e-16 -1
vn 0 2.2204460492503126e-16 -1
f 53/53/53 62/62/62 54/54/54
f 62/62/62 63/63/63 54/54/54
f 54/54/54 63/63/63 55/55/55
f 63/63/63 64/64/64 55/55/55
f 55/55/55 64/64/64 56/56/56
f 64/64/64 65/65/65 56/56/56
f 56/56/56 65/65/65 57/57/57
f 65/65/65 66/66/66 57/57/57
f 57/57/57 66/66/66 58/58/58
f 66/66/66 67/67/67 58/58/58
f 58/58/58 67/67/67 59/59/59
f 67/67/67 68/68/68 59/59/59
f 59/59/59 68/68/68 60/60/60
f 68/68/68 69/69/69 60/60/60
f 60/60/60 69/69/69 61/61/61
f 69/69/69 70/70/70 61/61/61
f 79/79/79 80/80/80 71/71/71
f 80/80/80 81/81/81 72/72/72
f 81/81/81 82/82/82 73/73/73
f 82/82/82 83/83/83 74/74/74
f 83/83/83 84/84/84 75/75/75
f 84/84/84 85/85/85 76/76/76
f 85/85/85 86/86/86 77/77/77
f 86/86/86 87/87/87 78/78/78
f 97/97/97 96/96/96 88/88/88
f 98/98/98 97/97/97 89/89/89
f 99/99/99 98/98/98 90/90/90
f 100/100/100 99/99/99 91/91/91
f 101/101/101 100/100/100 92/92/92
f 102/102/102 101/101/101 93/93/93
f 103/103/103 102/102/102 94/94/94
f 104/104/104 103/103/103 95/95/95
o plate_face
usemtl SURF_Paper_Newsprint
v 0 1.640000021457672 0.02699999988824122
v 0.21920309960842133 1.7307969242334365 0.02699999988824124
v 0.3100000023841858 1.9500000238418578 0.02699999988824129
v 0.21920309960842133 2.1692031234502793 0.02699999988824134
v 3.7964049783162243e-17 2.260000026226044 0.02699999988824136
v -0.21920309960842133 2.1692031234502793 0.02699999988824134
v -0.3100000023841858 1.9500000238418578 0.02699999988824129
v -0.21920309960842133 1.7307969242334365 0.02699999988824124
v -7.592809956632449e-17 1.640000021457672 0.02699999988824122
v 0 1.640000021457672 0.01700000011175864
v 0.21920309960842133 1.7307969242334365 0.01700000011175866
v 0.3100000023841858 1.9500000238418578 0.017000000111758708
v 0.21920309960842133 2.1692031234502793 0.017000000111758756
v 3.7964049783162243e-17 2.260000026226044 0.017000000111758777
v -0.21920309960842133 2.1692031234502793 0.017000000111758756
v -0.3100000023841858 1.9500000238418578 0.017000000111758708
v -0.21920309960842133 1.7307969242334365 0.01700000011175866
v -7.592809956632449e-17 1.640000021457672 0.01700000011175864
v 0 1.9500000238418578 0.02699999988824129
v 0 1.9500000238418578 0.02699999988824129
v 0 1.9500000238418578 0.02699999988824129
v 0 1.9500000238418578 0.02699999988824129
v 0 1.9500000238418578 0.02699999988824129
v 0 1.9500000238418578 0.02699999988824129
v 0 1.9500000238418578 0.02699999988824129
v 0 1.9500000238418578 0.02699999988824129
v 0 1.640000021457672 0.02699999988824122
v 0.21920309960842133 1.7307969242334365 0.02699999988824124
v 0.3100000023841858 1.9500000238418578 0.02699999988824129
v 0.21920309960842133 2.1692031234502793 0.02699999988824134
v 3.7964049783162243e-17 2.260000026226044 0.02699999988824136
v -0.21920309960842133 2.1692031234502793 0.02699999988824134
v -0.3100000023841858 1.9500000238418578 0.02699999988824129
v -0.21920309960842133 1.7307969242334365 0.02699999988824124
v -7.592809956632449e-17 1.640000021457672 0.02699999988824122
v 0 1.9500000238418578 0.017000000111758708
v 0 1.9500000238418578 0.017000000111758708
v 0 1.9500000238418578 0.017000000111758708
v 0 1.9500000238418578 0.017000000111758708
v 0 1.9500000238418578 0.017000000111758708
v 0 1.9500000238418578 0.017000000111758708
v 0 1.9500000238418578 0.017000000111758708
v 0 1.9500000238418578 0.017000000111758708
v 0 1.640000021457672 0.01700000011175864
v 0.21920309960842133 1.7307969242334365 0.01700000011175866
v 0.3100000023841858 1.9500000238418578 0.017000000111758708
v 0.21920309960842133 2.1692031234502793 0.017000000111758756
v 3.7964049783162243e-17 2.260000026226044 0.017000000111758777
v -0.21920309960842133 2.1692031234502793 0.017000000111758756
v -0.3100000023841858 1.9500000238418578 0.017000000111758708
v -0.21920309960842133 1.7307969242334365 0.01700000011175866
v -7.592809956632449e-17 1.640000021457672 0.01700000011175864
vt 0 1
vt 0.125 1
vt 0.25 1
vt 0.375 1
vt 0.5 1
vt 0.625 1
vt 0.75 1
vt 0.875 1
vt 1 1
vt 0 0
vt 0.125 0
vt 0.25 0
vt 0.375 0
vt 0.5 0
vt 0.625 0
vt 0.75 0
vt 0.875 0
vt 1 0
vt 0.5 0.5
vt 0.5 0.5
vt 0.5 0.5
vt 0.5 0.5
vt 0.5 0.5
vt 0.5 0.5
vt 0.5 0.5
vt 0.5 0.5
vt 1 0.5
vt 0.8535534143447876 0.8535534143447876
vt 0.5 1
vt 0.1464466154575348 0.8535534143447876
vt 0 0.5
vt 0.1464466154575348 0.1464466154575348
vt 0.5 0
vt 0.8535534143447876 0.1464466154575348
vt 1 0.5
vt 0.5 0.5
vt 0.5 0.5
vt 0.5 0.5
vt 0.5 0.5
vt 0.5 0.5
vt 0.5 0.5
vt 0.5 0.5
vt 0.5 0.5
vt 1 0.5
vt 0.8535534143447876 0.1464466154575348
vt 0.5 0
vt 0.1464466154575348 0.1464466154575348
vt 0 0.5
vt 0.1464466154575348 0.8535534143447876
vt 0.5 1
vt 0.8535534143447876 0.8535534143447876
vt 1 0.5
vn 0 -1 -2.2204460492503126e-16
vn 0.7071067811865476 -0.7071067811865475 -1.5700924586837744e-16
vn 1 -6.123234262925838e-17 -1.3596311327747827e-32
vn 0.7071067811865476 0.7071067811865475 1.5700924586837744e-16
vn 1.224646852585168e-16 1 2.2204460492503126e-16
vn -0.7071067811865476 0.7071067811865475 1.5700924586837744e-16
vn -1 1.8369701465288533e-16 4.0788931044507604e-32
vn -0.7071067811865476 -0.7071067811865475 -1.5700924586837744e-16
vn -2.449293705170336e-16 -1 -2.2204460492503126e-16
vn 0 -1 -2.2204460492503126e-16
vn 0.7071067811865476 -0.7071067811865475 -1.5700924586837744e-16
vn 1 -6.123234262925838e-17 -1.3596311327747827e-32
vn 0.7071067811865476 0.7071067811865475 1.5700924586837744e-16
vn 1.224646852585168e-16 1 2.2204460492503126e-16
vn -0.7071067811865476 0.7071067811865475 1.5700924586837744e-16
vn -1 1.8369701465288533e-16 4.0788931044507604e-32
vn -0.7071067811865476 -0.7071067811865475 -1.5700924586837744e-16
vn -2.449293705170336e-16 -1 -2.2204460492503126e-16
vn 0 -2.2204460492503126e-16 1
vn 0 -2.2204460492503126e-16 1
vn 0 -2.2204460492503126e-16 1
vn 0 -2.2204460492503126e-16 1
vn 0 -2.2204460492503126e-16 1
vn 0 -2.2204460492503126e-16 1
vn 0 -2.2204460492503126e-16 1
vn 0 -2.2204460492503126e-16 1
vn 0 -2.2204460492503126e-16 1
vn 0 -2.2204460492503126e-16 1
vn 0 -2.2204460492503126e-16 1
vn 0 -2.2204460492503126e-16 1
vn 0 -2.2204460492503126e-16 1
vn 0 -2.2204460492503126e-16 1
vn 0 -2.2204460492503126e-16 1
vn 0 -2.2204460492503126e-16 1
vn 0 -2.2204460492503126e-16 1
vn 0 2.2204460492503126e-16 -1
vn 0 2.2204460492503126e-16 -1
vn 0 2.2204460492503126e-16 -1
vn 0 2.2204460492503126e-16 -1
vn 0 2.2204460492503126e-16 -1
vn 0 2.2204460492503126e-16 -1
vn 0 2.2204460492503126e-16 -1
vn 0 2.2204460492503126e-16 -1
vn 0 2.2204460492503126e-16 -1
vn 0 2.2204460492503126e-16 -1
vn 0 2.2204460492503126e-16 -1
vn 0 2.2204460492503126e-16 -1
vn 0 2.2204460492503126e-16 -1
vn 0 2.2204460492503126e-16 -1
vn 0 2.2204460492503126e-16 -1
vn 0 2.2204460492503126e-16 -1
vn 0 2.2204460492503126e-16 -1
f 105/105/105 114/114/114 106/106/106
f 114/114/114 115/115/115 106/106/106
f 106/106/106 115/115/115 107/107/107
f 115/115/115 116/116/116 107/107/107
f 107/107/107 116/116/116 108/108/108
f 116/116/116 117/117/117 108/108/108
f 108/108/108 117/117/117 109/109/109
f 117/117/117 118/118/118 109/109/109
f 109/109/109 118/118/118 110/110/110
f 118/118/118 119/119/119 110/110/110
f 110/110/110 119/119/119 111/111/111
f 119/119/119 120/120/120 111/111/111
f 111/111/111 120/120/120 112/112/112
f 120/120/120 121/121/121 112/112/112
f 112/112/112 121/121/121 113/113/113
f 121/121/121 122/122/122 113/113/113
f 131/131/131 132/132/132 123/123/123
f 132/132/132 133/133/133 124/124/124
f 133/133/133 134/134/134 125/125/125
f 134/134/134 135/135/135 126/126/126
f 135/135/135 136/136/136 127/127/127
f 136/136/136 137/137/137 128/128/128
f 137/137/137 138/138/138 129/129/129
f 138/138/138 139/139/139 130/130/130
f 149/149/149 148/148/148 140/140/140
f 150/150/150 149/149/149 141/141/141
f 151/151/151 150/150/150 142/142/142
f 152/152/152 151/151/151 143/143/143
f 153/153/153 152/152/152 144/144/144
f 154/154/154 153/153/153 145/145/145
f 155/155/155 154/154/154 146/146/146
f 156/156/156 155/155/155 147/147/147
o foot_plate
usemtl SURF_Concrete_Struct
v 0.09000000357627869 0.05000002421438685 0.09000000357627869
v 0.09000000357627869 0.05000002421438685 -0.09000000357627869
v 0.09000000357627869 2.3469328792879995e-8 0.09000000357627869
v 0.09000000357627869 2.3469328792879995e-8 -0.09000000357627869
v -0.09000000357627869 0.05000002421438685 -0.09000000357627869
v -0.09000000357627869 0.05000002421438685 0.09000000357627869
v -0.09000000357627869 2.3469328792879995e-8 -0.09000000357627869
v -0.09000000357627869 2.3469328792879995e-8 0.09000000357627869
v -0.09000000357627869 0.05000002421438685 -0.09000000357627869
v 0.09000000357627869 0.05000002421438685 -0.09000000357627869
v -0.09000000357627869 0.05000002421438685 0.09000000357627869
v 0.09000000357627869 0.05000002421438685 0.09000000357627869
v -0.09000000357627869 2.3469328792879995e-8 0.09000000357627869
v 0.09000000357627869 2.3469328792879995e-8 0.09000000357627869
v -0.09000000357627869 2.3469328792879995e-8 -0.09000000357627869
v 0.09000000357627869 2.3469328792879995e-8 -0.09000000357627869
v -0.09000000357627869 0.05000002421438685 0.09000000357627869
v 0.09000000357627869 0.05000002421438685 0.09000000357627869
v -0.09000000357627869 2.3469328792879995e-8 0.09000000357627869
v 0.09000000357627869 2.3469328792879995e-8 0.09000000357627869
v 0.09000000357627869 0.05000002421438685 -0.09000000357627869
v -0.09000000357627869 0.05000002421438685 -0.09000000357627869
v 0.09000000357627869 2.3469328792879995e-8 -0.09000000357627869
v -0.09000000357627869 2.3469328792879995e-8 -0.09000000357627869
vt 0 1
vt 1 1
vt 0 0
vt 1 0
vt 0 1
vt 1 1
vt 0 0
vt 1 0
vt 0 1
vt 1 1
vt 0 0
vt 1 0
vt 0 1
vt 1 1
vt 0 0
vt 1 0
vt 0 1
vt 1 1
vt 0 0
vt 1 0
vt 0 1
vt 1 1
vt 0 0
vt 1 0
vn 1 0 0
vn 1 0 0
vn 1 0 0
vn 1 0 0
vn -1 0 0
vn -1 0 0
vn -1 0 0
vn -1 0 0
vn 0 1 0
vn 0 1 0
vn 0 1 0
vn 0 1 0
vn 0 -1 0
vn 0 -1 0
vn 0 -1 0
vn 0 -1 0
vn 0 0 1
vn 0 0 1
vn 0 0 1
vn 0 0 1
vn 0 0 -1
vn 0 0 -1
vn 0 0 -1
vn 0 0 -1
f 157/157/157 159/159/159 158/158/158
f 159/159/159 160/160/160 158/158/158
f 161/161/161 163/163/163 162/162/162
f 163/163/163 164/164/164 162/162/162
f 165/165/165 167/167/167 166/166/166
f 167/167/167 168/168/168 166/166/166
f 169/169/169 171/171/171 170/170/170
f 171/171/171 172/172/172 170/170/170
f 173/173/173 175/175/175 174/174/174
f 175/175/175 176/176/176 174/174/174
f 177/177/177 179/179/179 178/178/178
f 179/179/179 180/180/180 178/178/178
