# PRP_P0_Pen_A — Pen
# SC_P0_BEDROOM · group B
# bounds 0.14 × 0.01 × 0.01 m · 60 tris · UV island 8 × 8 px
# 1 unit = 1 m · pivot at floor contact, X/Z centred
mtllib PRP_P0_Pen_A.mtl
o barrel
usemtl SURF_Plastic_Matte
v -0.07224999872408808 0.004330127034336329 0.004999999888241291
v -0.07224999872408808 0.008660254068672659 0.0024999999441206455
v -0.07224999872408808 0.008660254068672659 -0.0024999999441206455
v -0.07224999872408808 0.00433012703433633 -0.004999999888241291
v -0.07224999872408808 0 -0.0024999999441206455
v -0.07224999872408808 0 0.0024999999441206455
v -0.07224999872408808 0.0043301270343363285 0.004999999888241291
v 0.05774999650754037 0.004330127034336359 0.004999999888241291
v 0.05774999650754037 0.008660254068672688 0.0024999999441206455
v 0.05774999650754037 0.008660254068672688 -0.0024999999441206455
v 0.05774999650754037 0.004330127034336359 -0.004999999888241291
v 0.05774999650754037 2.949029909160572e-17 -0.0024999999441206455
v 0.05774999650754037 2.949029909160572e-17 0.0024999999441206455
v 0.05774999650754037 0.004330127034336357 0.004999999888241291
v -0.07224999872408808 0.004330127034336329 0
v -0.07224999872408808 0.004330127034336329 0
v -0.07224999872408808 0.004330127034336329 0
v -0.07224999872408808 0.004330127034336329 0
v -0.07224999872408808 0.004330127034336329 0
v -0.07224999872408808 0.004330127034336329 0
v -0.07224999872408808 0.004330127034336329 0.004999999888241291
v -0.07224999872408808 0.008660254068672659 0.0024999999441206455
v -0.07224999872408808 0.008660254068672659 -0.0024999999441206455
v -0.07224999872408808 0.00433012703433633 -0.004999999888241291
v -0.07224999872408808 0 -0.0024999999441206455
v -0.07224999872408808 0 0.0024999999441206455
v -0.07224999872408808 0.0043301270343363285 0.004999999888241291
v 0.05774999650754037 0.004330127034336359 0
v 0.05774999650754037 0.004330127034336359 0
v 0.05774999650754037 0.004330127034336359 0
v 0.05774999650754037 0.004330127034336359 0
v 0.05774999650754037 0.004330127034336359 0
v 0.05774999650754037 0.004330127034336359 0
v 0.05774999650754037 0.004330127034336359 0.004999999888241291
v 0.05774999650754037 0.008660254068672688 0.0024999999441206455
v 0.05774999650754037 0.008660254068672688 -0.0024999999441206455
v 0.05774999650754037 0.004330127034336359 -0.004999999888241291
v 0.05774999650754037 2.949029909160572e-17 -0.0024999999441206455
v 0.05774999650754037 2.949029909160572e-17 0.0024999999441206455
v 0.05774999650754037 0.004330127034336357 0.004999999888241291
vt 0 1
vt 0.1666666716337204 1
vt 0.3333333432674408 1
vt 0.5 1
vt 0.6666666865348816 1
vt 0.8333333134651184 1
vt 1 1
vt 0 0
vt 0.1666666716337204 0
vt 0.3333333432674408 0
vt 0.5 0
vt 0.6666666865348816 0
vt 0.8333333134651184 0
vt 1 0
vt 0.5 0.5
vt 0.5 0.5
vt 0.5 0.5
vt 0.5 0.5
vt 0.5 0.5
vt 0.5 0.5
vt 1 0.5
vt 0.75 0.9330127239227295
vt 0.25 0.9330127239227295
vt 0 0.5
vt 0.25 0.0669872984290123
vt 0.75 0.0669872984290123
vt 1 0.5
vt 0.5 0.5
vt 0.5 0.5
vt 0.5 0.5
vt 0.5 0.5
vt 0.5 0.5
vt 0.5 0.5
vt 1 0.5
vt 0.75 0.0669872984290123
vt 0.25 0.0669872984290123
vt 0 0.5
vt 0.25 0.9330127239227295
vt 0.75 0.9330127239227295
vt 1 0.5
vn 0 0 1
vn -1.9229626777551184e-16 0.8660253998985323 0.500000006730587
vn -1.9229626777551184e-16 0.8660253998985323 -0.500000006730587
vn -2.7192622655495654e-32 1.2246468525851676e-16 -1
vn 1.9229626777551184e-16 -0.8660253998985323 -0.500000006730587
vn 1.9229626777551184e-16 -0.8660253998985323 0.500000006730587
vn 5.438524531099131e-32 -2.449293705170335e-16 1
vn 0 0 1
vn -1.9229626777551184e-16 0.8660253998985323 0.500000006730587
vn -1.9229626777551184e-16 0.8660253998985323 -0.500000006730587
vn -2.7192622655495654e-32 1.2246468525851676e-16 -1
vn 1.9229626777551184e-16 -0.8660253998985323 -0.500000006730587
vn 1.9229626777551184e-16 -0.8660253998985323 0.500000006730587
vn 5.438524531099131e-32 -2.449293705170335e-16 1
vn -1 -2.2204460492503126e-16 0
vn -1 -2.2204460492503126e-16 0
vn -1 -2.2204460492503126e-16 0
vn -1 -2.2204460492503126e-16 0
vn -1 -2.2204460492503126e-16 0
vn -1 -2.2204460492503126e-16 0
vn -1 -2.2204460492503126e-16 0
vn -1 -2.2204460492503126e-16 0
vn -1 -2.2204460492503126e-16 0
vn -1 -2.2204460492503126e-16 0
vn -1 -2.2204460492503126e-16 0
vn -1 -2.2204460492503126e-16 0
vn -1 -2.2204460492503126e-16 0
vn 1 2.2204460492503126e-16 0
vn 1 2.2204460492503126e-16 0
vn 1 2.2204460492503126e-16 0
vn 1 2.2204460492503126e-16 0
vn 1 2.2204460492503126e-16 0
vn 1 2.2204460492503126e-16 0
vn 1 2.2204460492503126e-16 0
vn 1 2.2204460492503126e-16 0
vn 1 2.2204460492503126e-16 0
vn 1 2.2204460492503126e-16 0
vn 1 2.2204460492503126e-16 0
vn 1 2.2204460492503126e-16 0
vn 1 2.2204460492503126e-16 0
f 1/1/1 8/8/8 2/2/2
f 8/8/8 9/9/9 2/2/2
f 2/2/2 9/9/9 3/3/3
f 9/9/9 10/10/10 3/3/3
f 3/3/3 10/10/10 4/4/4
f 10/10/10 11/11/11 4/4/4
f 4/4/4 11/11/11 5/5/5
f 11/11/11 12/12/12 5/5/5
f 5/5/5 12/12/12 6/6/6
f 12/12/12 13/13/13 6/6/6
f 6/6/6 13/13/13 7/7/7
f 13/13/13 14/14/14 7/7/7
f 21/21/21 22/22/22 15/15/15
f 22/22/22 23/23/23 16/16/16
f 23/23/23 24/24/24 17/17/17
f 24/24/24 25/25/25 18/18/18
f 25/25/25 26/26/26 19/19/19
f 26/26/26 27/27/27 20/20/20
f 35/35/35 34/34/34 28/28/28
f 36/36/36 35/35/35 29/29/29
f 37/37/37 36/36/36 30/30/30
f 38/38/38 37/37/37 31/31/31
f 39/39/39 38/38/38 32/32/32
f 40/40/40 39/39/39 33/33/33
o tip
usemtl SURF_Metal_Lamp
v 0.057249999059364204 0.004330127034336342 0.0020000000949949026
v 0.057249999059364204 0.006062177824787809 0.0010000000474974513
v 0.057249999059364204 0.006062177824787809 -0.0010000000474974513
v 0.057249999059364204 0.004330127034336342 -0.0020000000949949026
v 0.057249999059364204 0.002598076243884875 -0.0010000000474974513
v 0.057249999059364204 0.002598076243884875 0.0010000000474974513
v 0.057249999059364204 0.004330127034336342 0.0020000000949949026
v 0.07224999872408808 0.004330127034336346 0.004000000189989805
v 0.07224999872408808 0.007794228615239281 0.0020000000949949026
v 0.07224999872408808 0.007794228615239281 -0.0020000000949949026
v 0.07224999872408808 0.004330127034336346 -0.004000000189989805
v 0.07224999872408808 0.0008660254534334109 -0.0020000000949949026
v 0.07224999872408808 0.0008660254534334109 0.0020000000949949026
v 0.07224999872408808 0.004330127034336345 0.004000000189989805
v 0.057249999059364204 0.004330127034336342 0
v 0.057249999059364204 0.004330127034336342 0
v 0.057249999059364204 0.004330127034336342 0
v 0.057249999059364204 0.004330127034336342 0
v 0.057249999059364204 0.004330127034336342 0
v 0.057249999059364204 0.004330127034336342 0
v 0.057249999059364204 0.004330127034336342 0.0020000000949949026
v 0.057249999059364204 0.006062177824787809 0.0010000000474974513
v 0.057249999059364204 0.006062177824787809 -0.0010000000474974513
v 0.057249999059364204 0.004330127034336342 -0.0020000000949949026
v 0.057249999059364204 0.002598076243884875 -0.0010000000474974513
v 0.057249999059364204 0.002598076243884875 0.0010000000474974513
v 0.057249999059364204 0.004330127034336342 0.0020000000949949026
v 0.07224999872408808 0.004330127034336346 0
v 0.07224999872408808 0.004330127034336346 0
v 0.07224999872408808 0.004330127034336346 0
v 0.07224999872408808 0.004330127034336346 0
v 0.07224999872408808 0.004330127034336346 0
v 0.07224999872408808 0.004330127034336346 0
v 0.07224999872408808 0.004330127034336346 0.004000000189989805
v 0.07224999872408808 0.007794228615239281 0.0020000000949949026
v 0.07224999872408808 0.007794228615239281 -0.0020000000949949026
v 0.07224999872408808 0.004330127034336346 -0.004000000189989805
v 0.07224999872408808 0.0008660254534334109 -0.0020000000949949026
v 0.07224999872408808 0.0008660254534334109 0.0020000000949949026
v 0.07224999872408808 0.004330127034336345 0.004000000189989805
vt 0 1
vt 0.1666666716337204 1
vt 0.3333333432674408 1
vt 0.5 1
vt 0.6666666865348816 1
vt 0.8333333134651184 1
vt 1 1
vt 0 0
vt 0.1666666716337204 0
vt 0.3333333432674408 0
vt 0.5 0
vt 0.6666666865348816 0
vt 0.8333333134651184 0
vt 1 0
vt 0.5 0.5
vt 0.5 0.5
vt 0.5 0.5
vt 0.5 0.5
vt 0.5 0.5
vt 0.5 0.5
vt 1 0.5
vt 0.75 0.9330127239227295
vt 0.25 0.9330127239227295
vt 0 0.5
vt 0.25 0.0669872984290123
vt 0.75 0.0669872984290123
vt 1 0.5
vt 0.5 0.5
vt 0.5 0.5
vt 0.5 0.5
vt 0.5 0.5
vt 0.5 0.5
vt 0.5 0.5
vt 1 0.5
vt 0.75 0.0669872984290123
vt 0.25 0.0669872984290123
vt 0 0.5
vt 0.25 0.9330127239227295
vt 0.75 0.9330127239227295
vt 1 0.5
vn -0.1321637152107251 -2.93462399293898e-17 0.9912279013333404
vn -0.1321637181596321 0.8584285366560229 0.4956139617250713
vn -0.1321637181596321 0.8584285366560229 -0.4956139617250713
vn -0.1321637152107251 9.204416644724529e-17 -0.9912279013333404
vn -0.13216371815963174 -0.858428536656023 -0.4956139617250714
vn -0.13216371815963174 -0.858428536656023 0.4956139617250714
vn -0.1321637152107251 -2.7212705268266e-16 0.9912279013333404
vn -0.1321637152107251 -2.93462399293898e-17 0.9912279013333404
vn -0.1321637181596321 0.8584285366560229 0.4956139617250713
vn -0.1321637181596321 0.8584285366560229 -0.4956139617250713
vn -0.1321637152107251 9.204416644724529e-17 -0.9912279013333404
vn -0.13216371815963174 -0.858428536656023 -0.4956139617250714
vn -0.13216371815963174 -0.858428536656023 0.4956139617250714
vn -0.1321637152107251 -2.7212705268266e-16 0.9912279013333404
vn -1 -2.2204460492503126e-16 0
vn -1 -2.2204460492503126e-16 0
vn -1 -2.2204460492503126e-16 0
vn -1 -2.2204460492503126e-16 0
vn -1 -2.2204460492503126e-16 0
vn -1 -2.2204460492503126e-16 0
vn -1 -2.2204460492503126e-16 0
vn -1 -2.2204460492503126e-16 0
vn -1 -2.2204460492503126e-16 0
vn -1 -2.2204460492503126e-16 0
vn -1 -2.2204460492503126e-16 0
vn -1 -2.2204460492503126e-16 0
vn -1 -2.2204460492503126e-16 0
vn 1 2.2204460492503126e-16 0
vn 1 2.2204460492503126e-16 0
vn 1 2.2204460492503126e-16 0
vn 1 2.2204460492503126e-16 0
vn 1 2.2204460492503126e-16 0
vn 1 2.2204460492503126e-16 0
vn 1 2.2204460492503126e-16 0
vn 1 2.2204460492503126e-16 0
vn 1 2.2204460492503126e-16 0
vn 1 2.2204460492503126e-16 0
vn 1 2.2204460492503126e-16 0
vn 1 2.2204460492503126e-16 0
vn 1 2.2204460492503126e-16 0
f 41/41/41 48/48/48 42/42/42
f 48/48/48 49/49/49 42/42/42
f 42/42/42 49/49/49 43/43/43
f 49/49/49 50/50/50 43/43/43
f 43/43/43 50/50/50 44/44/44
f 50/50/50 51/51/51 44/44/44
f 44/44/44 51/51/51 45/45/45
f 51/51/51 52/52/52 45/45/45
f 45/45/45 52/52/52 46/46/46
f 52/52/52 53/53/53 46/46/46
f 46/46/46 53/53/53 47/47/47
f 53/53/53 54/54/54 47/47/47
f 61/61/61 62/62/62 55/55/55
f 62/62/62 63/63/63 56/56/56
f 63/63/63 64/64/64 57/57/57
f 64/64/64 65/65/65 58/58/58
f 65/65/65 66/66/66 59/59/59
f 66/66/66 67/67/67 60/60/60
f 75/75/75 74/74/74 68/68/68
f 76/76/76 75/75/75 69/69/69
f 77/77/77 76/76/76 70/70/70
f 78/78/78 77/77/77 71/71/71
f 79/79/79 78/78/78 72/72/72
f 80/80/80 79/79/79 73/73/73
o clip
usemtl SURF_Metal_Lamp
v -0.03725000144354998 0.012330127129331247 0.003000000026077032
v -0.03725000144354998 0.012330127129331247 -0.003000000026077032
v -0.03725000144354998 0.008330126939341442 0.003000000026077032
v -0.03725000144354998 0.008330126939341442 -0.003000000026077032
v -0.06725000077299773 0.012330127129331247 -0.003000000026077032
v -0.06725000077299773 0.012330127129331247 0.003000000026077032
v -0.06725000077299773 0.008330126939341442 -0.003000000026077032
v -0.06725000077299773 0.008330126939341442 0.003000000026077032
v -0.06725000077299773 0.012330127129331247 -0.003000000026077032
v -0.03725000144354998 0.012330127129331247 -0.003000000026077032
v -0.06725000077299773 0.012330127129331247 0.003000000026077032
v -0.03725000144354998 0.012330127129331247 0.003000000026077032
v -0.06725000077299773 0.008330126939341442 0.003000000026077032
v -0.03725000144354998 0.008330126939341442 0.003000000026077032
v -0.06725000077299773 0.008330126939341442 -0.003000000026077032
v -0.03725000144354998 0.008330126939341442 -0.003000000026077032
v -0.06725000077299773 0.012330127129331247 0.003000000026077032
v -0.03725000144354998 0.012330127129331247 0.003000000026077032
v -0.06725000077299773 0.008330126939341442 0.003000000026077032
v -0.03725000144354998 0.008330126939341442 0.003000000026077032
v -0.03725000144354998 0.012330127129331247 -0.003000000026077032
v -0.06725000077299773 0.012330127129331247 -0.003000000026077032
v -0.03725000144354998 0.008330126939341442 -0.003000000026077032
v -0.06725000077299773 0.008330126939341442 -0.003000000026077032
vt 0 1
vt 1 1
vt 0 0
vt 1 0
vt 0 1
vt 1 1
vt 0 0
vt 1 0
vt 0 1
vt 1 1
vt 0 0
vt 1 0
vt 0 1
vt 1 1
vt 0 0
vt 1 0
vt 0 1
vt 1 1
vt 0 0
vt 1 0
vt 0 1
vt 1 1
vt 0 0
vt 1 0
vn 1 0 0
vn 1 0 0
vn 1 0 0
vn 1 0 0
vn -1 0 0
vn -1 0 0
vn -1 0 0
vn -1 0 0
vn 0 1 0
vn 0 1 0
vn 0 1 0
vn 0 1 0
vn 0 -1 0
vn 0 -1 0
vn 0 -1 0
vn 0 -1 0
vn 0 0 1
vn 0 0 1
vn 0 0 1
vn 0 0 1
vn 0 0 -1
vn 0 0 -1
vn 0 0 -1
vn 0 0 -1
f 81/81/81 83/83/83 82/82/82
f 83/83/83 84/84/84 82/82/82
f 85/85/85 87/87/87 86/86/86
f 87/87/87 88/88/88 86/86/86
f 89/89/89 91/91/91 90/90/90
f 91/91/91 92/92/92 90/90/90
f 93/93/93 95/95/95 94/94/94
f 95/95/95 96/96/96 94/94/94
f 97/97/97 99/99/99 98/98/98
f 99/99/99 100/100/100 98/98/98
f 101/101/101 103/103/103 102/102/102
f 103/103/103 104/104/104 102/102/102
