# PRP_P0_Desk_Lamp_A — Desk lamp
# SC_P0_BEDROOM · group B
# bounds 0.14 × 0.30 × 0.43 m · 208 tris · UV island 24 × 16 px
# 1 unit = 1 m · pivot at floor contact, X/Z centred
mtllib PRP_P0_Desk_Lamp_A.mtl
o base_disc
usemtl SURF_Metal_Lamp
v 0 0.019999999552965164 0.14343522971129527
v 0.0411449670791626 0.019999999552965164 0.13006641825294604
v 0.06657395511865616 0.019999999552965164 0.09506641810393443
v 0.06657395511865616 0.019999999552965164 0.05180404072260966
v 0.0411449670791626 0.019999999552965164 0.01680404057359805
v 8.57252763722393e-18 0.019999999552965164 0.0034352291152488224
v -0.0411449670791626 0.019999999552965164 0.01680404057359805
v -0.06657395511865616 0.019999999552965164 0.05180404072260966
v -0.06657395511865616 0.019999999552965164 0.09506641810393443
v -0.0411449670791626 0.019999999552965164 0.13006641825294604
v -1.714505527444786e-17 0.019999999552965164 0.14343522971129527
v 0 0 0.14843523239350428
v 0.04408389329910278 0 0.13411150237178912
v 0.07132923603057861 0 0.0966115046069633
v 0.07132923603057861 0 0.05025895421958079
v 0.04408389329910278 0 0.012758956454754972
v 9.184851394388759e-18 0 -0.0015647735669601925
v -0.04408389329910278 0 0.012758956454754972
v -0.07132923603057861 0 0.05025895421958079
v -0.07132923603057861 0 0.0966115046069633
v -0.04408389329910278 0 0.13411150237178912
v -1.8369702788777518e-17 0 0.14843523239350428
v 0 0.019999999552965164 0.07343522941327205
v 0 0.019999999552965164 0.07343522941327205
v 0 0.019999999552965164 0.07343522941327205
v 0 0.019999999552965164 0.07343522941327205
v 0 0.019999999552965164 0.07343522941327205
v 0 0.019999999552965164 0.07343522941327205
v 0 0.019999999552965164 0.07343522941327205
v 0 0.019999999552965164 0.07343522941327205
v 0 0.019999999552965164 0.07343522941327205
v 0 0.019999999552965164 0.07343522941327205
v 0 0.019999999552965164 0.14343522971129527
v 0.0411449670791626 0.019999999552965164 0.13006641825294604
v 0.06657395511865616 0.019999999552965164 0.09506641810393443
v 0.06657395511865616 0.019999999552965164 0.05180404072260966
v 0.0411449670791626 0.019999999552965164 0.01680404057359805
v 8.57252763722393e-18 0.019999999552965164 0.0034352291152488224
v -0.0411449670791626 0.019999999552965164 0.01680404057359805
v -0.06657395511865616 0.019999999552965164 0.05180404072260966
v -0.06657395511865616 0.019999999552965164 0.09506641810393443
v -0.0411449670791626 0.019999999552965164 0.13006641825294604
v -1.714505527444786e-17 0.019999999552965164 0.14343522971129527
v 0 0 0.07343522941327205
v 0 0 0.07343522941327205
v 0 0 0.07343522941327205
v 0 0 0.07343522941327205
v 0 0 0.07343522941327205
v 0 0 0.07343522941327205
v 0 0 0.07343522941327205
v 0 0 0.07343522941327205
v 0 0 0.07343522941327205
v 0 0 0.07343522941327205
v 0 0 0.14843523239350428
v 0.04408389329910278 0 0.13411150237178912
v 0.07132923603057861 0 0.0966115046069633
v 0.07132923603057861 0 0.05025895421958079
v 0.04408389329910278 0 0.012758956454754972
v 9.184851394388759e-18 0 -0.0015647735669601925
v -0.04408389329910278 0 0.012758956454754972
v -0.07132923603057861 0 0.05025895421958079
v -0.07132923603057861 0 0.0966115046069633
v -0.04408389329910278 0 0.13411150237178912
v -1.8369702788777518e-17 0 0.14843523239350428
vt 0 1
vt 0.10000000149011612 1
vt 0.20000000298023224 1
vt 0.30000001192092896 1
vt 0.4000000059604645 1
vt 0.5 1
vt 0.6000000238418579 1
vt 0.699999988079071 1
vt 0.800000011920929 1
vt 0.8999999761581421 1
vt 1 1
vt 0 0
vt 0.10000000149011612 0
vt 0.20000000298023224 0
vt 0.30000001192092896 0
vt 0.4000000059604645 0
vt 0.5 0
vt 0.6000000238418579 0
vt 0.699999988079071 0
vt 0.800000011920929 0
vt 0.8999999761581421 0
vt 1 0
vt 0.5 0.5
vt 0.5 0.5
vt 0.5 0.5
vt 0.5 0.5
vt 0.5 0.5
vt 0.5 0.5
vt 0.5 0.5
vt 0.5 0.5
vt 0.5 0.5
vt 0.5 0.5
vt 1 0.5
vt 0.9045084714889526 0.7938926219940186
vt 0.6545084714889526 0.9755282402038574
vt 0.345491498708725 0.9755282402038574
vt 0.09549150615930557 0.7938926219940186
vt 0 0.5
vt 0.09549150615930557 0.20610737800598145
vt 0.345491498708725 0.024471741169691086
vt 0.6545084714889526 0.024471741169691086
vt 0.9045084714889526 0.20610737800598145
vt 1 0.5
vt 0.5 0.5
vt 0.5 0.5
vt 0.5 0.5
vt 0.5 0.5
vt 0.5 0.5
vt 0.5 0.5
vt 0.5 0.5
vt 0.5 0.5
vt 0.5 0.5
vt 0.5 0.5
vt 1 0.5
vt 0.9045084714889526 0.20610737800598145
vt 0.6545084714889526 0.024471741169691086
vt 0.345491498708725 0.024471741169691086
vt 0.09549150615930557 0.20610737800598145
vt 0 0.5
vt 0.09549150615930557 0.7938926219940186
vt 0.345491498708725 0.9755282402038574
vt 0.6545084714889526 0.9755282402038574
vt 0.9045084714889526 0.7938926219940186
vt 1 0.5
vn 0 0.24253562503633297 0.9701425001453319
vn 0.5702354509416089 0.2425356293268407 0.7848617706299965
vn 0.9226603447692269 0.2425356193426437 0.29979052943749157
vn 0.9226603447692269 0.2425356193426437 -0.29979052943749157
vn 0.5702354509416089 0.2425356293268407 -0.7848617706299965
vn 1.1880819162160327e-16 0.24253562503633297 -0.9701425001453319
vn -0.5702354509416089 0.2425356293268407 -0.7848617706299965
vn -0.9226603447692269 0.2425356193426437 -0.29979052943749157
vn -0.9226603447692269 0.2425356193426437 0.29979052943749157
vn -0.5702354509416089 0.2425356293268407 0.7848617706299965
vn -2.3761638324320653e-16 0.24253562503633297 0.9701425001453319
vn 0 0.24253562503633297 0.9701425001453319
vn 0.5702354509416089 0.2425356293268407 0.7848617706299965
vn 0.9226603447692269 0.2425356193426437 0.29979052943749157
vn 0.9226603447692269 0.2425356193426437 -0.29979052943749157
vn 0.5702354509416089 0.2425356293268407 -0.7848617706299965
vn 1.1880819162160327e-16 0.24253562503633297 -0.9701425001453319
vn -0.5702354509416089 0.2425356293268407 -0.7848617706299965
vn -0.9226603447692269 0.2425356193426437 -0.29979052943749157
vn -0.9226603447692269 0.2425356193426437 0.29979052943749157
vn -0.5702354509416089 0.2425356293268407 0.7848617706299965
vn -2.3761638324320653e-16 0.24253562503633297 0.9701425001453319
vn 0 1 0
vn 0 1 0
vn 0 1 0
vn 0 1 0
vn 0 1 0
vn 0 1 0
vn 0 1 0
vn 0 1 0
vn 0 1 0
vn 0 1 0
vn 0 1 0
vn 0 1 0
vn 0 1 0
vn 0 1 0
vn 0 1 0
vn 0 1 0
vn 0 1 0
vn 0 1 0
vn 0 1 0
vn 0 1 0
vn 0 1 0
vn 0 -1 0
vn 0 -1 0
vn 0 -1 0
vn 0 -1 0
vn 0 -1 0
vn 0 -1 0
vn 0 -1 0
vn 0 -1 0
vn 0 -1 0
vn 0 -1 0
vn 0 -1 0
vn 0 -1 0
vn 0 -1 0
vn 0 -1 0
vn 0 -1 0
vn 0 -1 0
vn 0 -1 0
vn 0 -1 0
vn 0 -1 0
vn 0 -1 0
vn 0 -1 0
f 1/1/1 12/12/12 2/2/2
f 12/12/12 13/13/13 2/2/2
f 2/2/2 13/13/13 3/3/3
f 13/13/13 14/14/14 3/3/3
f 3/3/3 14/14/14 4/4/4
f 14/14/14 15/15/15 4/4/4
f 4/4/4 15/15/15 5/5/5
f 15/15/15 16/16/16 5/5/5
f 5/5/5 16/16/16 6/6/6
f 16/16/16 17/17/17 6/6/6
f 6/6/6 17/17/17 7/7/7
f 17/17/17 18/18/18 7/7/7
f 7/7/7 18/18/18 8/8/8
f 18/18/18 19/19/19 8/8/8
f 8/8/8 19/19/19 9/9/9
f 19/19/19 20/20/20 9/9/9
f 9/9/9 20/20/20 10/10/10
f 20/20/20 21/21/21 10/10/10
f 10/10/10 21/21/21 11/11/11
f 21/21/21 22/22/22 11/11/11
f 33/33/33 34/34/34 23/23/23
f 34/34/34 35/35/35 24/24/24
f 35/35/35 36/36/36 25/25/25
f 36/36/36 37/37/37 26/26/26
f 37/37/37 38/38/38 27/27/27
f 38/38/38 39/39/39 28/28/28
f 39/39/39 40/40/40 29/29/29
f 40/40/40 41/41/41 30/30/30
f 41/41/41 42/42/42 31/31/31
f 42/42/42 43/43/43 32/32/32
f 55/55/55 54/54/54 44/44/44
f 56/56/56 55/55/55 45/45/45
f 57/57/57 56/56/56 46/46/46
f 58/58/58 57/57/57 47/47/47
f 59/59/59 58/58/58 48/48/48
f 60/60/60 59/59/59 49/49/49
f 61/61/61 60/60/60 50/50/50
f 62/62/62 61/61/61 51/51/51
f 63/63/63 62/62/62 52/52/52
f 64/64/64 63/63/63 53/53/53
o stem_lower
usemtl SURF_Metal_Lamp
v 0 0.23999999918043613 0.08543522951758017
v 0.0084852809086442 0.23999999918043613 0.08192051032191625
v 0.012000000104308128 0.23999999918043613 0.07343522941327205
v 0.0084852809086442 0.23999999918043613 0.06494994850462785
v 1.4695761072969157e-18 0.23999999918043613 0.06143522930896392
v -0.0084852809086442 0.23999999918043613 0.06494994850462785
v -0.012000000104308128 0.23999999918043613 0.07343522941327205
v -0.0084852809086442 0.23999999918043613 0.08192051032191625
v -2.9391522145938313e-18 0.23999999918043613 0.08543522951758017
v 0 0.020000000372529025 0.08743522984540572
v 0.009899495169520378 0.020000000372529025 0.08333472458279242
v 0.014000000432133675 0.020000000372529025 0.07343522941327205
v 0.009899495169520378 0.020000000372529025 0.06353573424375167
v 1.714505527444786e-18 0.020000000372529025 0.05943522898113837
v -0.009899495169520378 0.020000000372529025 0.06353573424375167
v -0.014000000432133675 0.020000000372529025 0.07343522941327205
v -0.009899495169520378 0.020000000372529025 0.08333472458279242
v -3.429011054889572e-18 0.020000000372529025 0.08743522984540572
v 0 0.23999999918043613 0.07343522941327205
v 0 0.23999999918043613 0.07343522941327205
v 0 0.23999999918043613 0.07343522941327205
v 0 0.23999999918043613 0.07343522941327205
v 0 0.23999999918043613 0.07343522941327205
v 0 0.23999999918043613 0.07343522941327205
v 0 0.23999999918043613 0.07343522941327205
v 0 0.23999999918043613 0.07343522941327205
v 0 0.23999999918043613 0.08543522951758017
v 0.0084852809086442 0.23999999918043613 0.08192051032191625
v 0.012000000104308128 0.23999999918043613 0.07343522941327205
v 0.0084852809086442 0.23999999918043613 0.06494994850462785
v 1.4695761072969157e-18 0.23999999918043613 0.06143522930896392
v -0.0084852809086442 0.23999999918043613 0.06494994850462785
v -0.012000000104308128 0.23999999918043613 0.07343522941327205
v -0.0084852809086442 0.23999999918043613 0.08192051032191625
v -2.9391522145938313e-18 0.23999999918043613 0.08543522951758017
v 0 0.020000000372529025 0.07343522941327205
v 0 0.020000000372529025 0.07343522941327205
v 0 0.020000000372529025 0.07343522941327205
v 0 0.020000000372529025 0.07343522941327205
v 0 0.020000000372529025 0.07343522941327205
v 0 0.020000000372529025 0.07343522941327205
v 0 0.020000000372529025 0.07343522941327205
v 0 0.020000000372529025 0.07343522941327205
v 0 0.020000000372529025 0.08743522984540572
v 0.009899495169520378 0.020000000372529025 0.08333472458279242
v 0.014000000432133675 0.020000000372529025 0.07343522941327205
v 0.009899495169520378 0.020000000372529025 0.06353573424375167
v 1.714505527444786e-18 0.020000000372529025 0.05943522898113837
v -0.009899495169520378 0.020000000372529025 0.06353573424375167
v -0.014000000432133675 0.020000000372529025 0.07343522941327205
v -0.009899495169520378 0.020000000372529025 0.08333472458279242
v -3.429011054889572e-18 0.020000000372529025 0.08743522984540572
vt 0 1
vt 0.125 1
vt 0.25 1
vt 0.375 1
vt 0.5 1
vt 0.625 1
vt 0.75 1
vt 0.875 1
vt 1 1
vt 0 0
vt 0.125 0
vt 0.25 0
vt 0.375 0
vt 0.5 0
vt 0.625 0
vt 0.75 0
vt 0.875 0
vt 1 0
vt 0.5 0.5
vt 0.5 0.5
vt 0.5 0.5
vt 0.5 0.5
vt 0.5 0.5
vt 0.5 0.5
vt 0.5 0.5
vt 0.5 0.5
vt 1 0.5
vt 0.8535534143447876 0.8535534143447876
vt 0.5 1
vt 0.1464466154575348 0.8535534143447876
vt 0 0.5
vt 0.1464466154575348 0.1464466154575348
vt 0.5 0
vt 0.8535534143447876 0.1464466154575348
vt 1 0.5
vt 0.5 0.5
vt 0.5 0.5
vt 0.5 0.5
vt 0.5 0.5
vt 0.5 0.5
vt 0.5 0.5
vt 0.5 0.5
vt 0.5 0.5
vt 1 0.5
vt 0.8535534143447876 0.1464466154575348
vt 0.5 0
vt 0.1464466154575348 0.1464466154575348
vt 0 0.5
vt 0.1464466154575348 0.8535534143447876
vt 0.5 1
vt 0.8535534143447876 0.8535534143447876
vt 1 0.5
vn 0 0.009090533355201156 0.999958680247998
vn 0.7070775637088331 0.009090533491616995 0.7070775637088331
vn 0.999958680247998 0.009090533355201156 6.122980730694727e-17
vn 0.7070775637088331 0.009090533491616995 -0.7070775637088331
vn 1.2245961461389454e-16 0.009090533355201156 -0.999958680247998
vn -0.7070775637088331 0.009090533491616995 -0.7070775637088331
vn -0.999958680247998 0.009090533355201156 -1.836894285382866e-16
vn -0.7070775637088331 0.009090533491616995 0.7070775637088331
vn -2.4491922922778907e-16 0.009090533355201156 0.999958680247998
vn 0 0.009090533355201156 0.999958680247998
vn 0.7070775637088331 0.009090533491616995 0.7070775637088331
vn 0.999958680247998 0.009090533355201156 6.122980730694727e-17
vn 0.7070775637088331 0.009090533491616995 -0.7070775637088331
vn 1.2245961461389454e-16 0.009090533355201156 -0.999958680247998
vn -0.7070775637088331 0.009090533491616995 -0.7070775637088331
vn -0.999958680247998 0.009090533355201156 -1.836894285382866e-16
vn -0.7070775637088331 0.009090533491616995 0.7070775637088331
vn -2.4491922922778907e-16 0.009090533355201156 0.999958680247998
vn 0 1 0
vn 0 1 0
vn 0 1 0
vn 0 1 0
vn 0 1 0
vn 0 1 0
vn 0 1 0
vn 0 1 0
vn 0 1 0
vn 0 1 0
vn 0 1 0
vn 0 1 0
vn 0 1 0
vn 0 1 0
vn 0 1 0
vn 0 1 0
vn 0 1 0
vn 0 -1 0
vn 0 -1 0
vn 0 -1 0
vn 0 -1 0
vn 0 -1 0
vn 0 -1 0
vn 0 -1 0
vn 0 -1 0
vn 0 -1 0
vn 0 -1 0
vn 0 -1 0
vn 0 -1 0
vn 0 -1 0
vn 0 -1 0
vn 0 -1 0
vn 0 -1 0
vn 0 -1 0
f 65/65/65 74/74/74 66/66/66
f 74/74/74 75/75/75 66/66/66
f 66/66/66 75/75/75 67/67/67
f 75/75/75 76/76/76 67/67/67
f 67/67/67 76/76/76 68/68/68
f 76/76/76 77/77/77 68/68/68
f 68/68/68 77/77/77 69/69/69
f 77/77/77 78/78/78 69/69/69
f 69/69/69 78/78/78 70/70/70
f 78/78/78 79/79/79 70/70/70
f 70/70/70 79/79/79 71/71/71
f 79/79/79 80/80/80 71/71/71
f 71/71/71 80/80/80 72/72/72
f 80/80/80 81/81/81 72/72/72
f 72/72/72 81/81/81 73/73/73
f 81/81/81 82/82/82 73/73/73
f 91/91/91 92/92/92 83/83/83
f 92/92/92 93/93/93 84/84/84
f 93/93/93 94/94/94 85/85/85
f 94/94/94 95/95/95 86/86/86
f 95/95/95 96/96/96 87/87/87
f 96/96/96 97/97/97 88/88/88
f 97/97/97 98/98/98 89/89/89
f 98/98/98 99/99/99 90/90/90
f 109/109/109 108/108/108 100/100/100
f 110/110/110 109/109/109 101/101/101
f 111/111/111 110/110/110 102/102/102
f 112/112/112 111/111/111 103/103/103
f 113/113/113 112/112/112 104/104/104
f 114/114/114 113/113/113 105/105/105
f 115/115/115 114/114/114 106/106/106
f 116/116/116 115/115/115 107/107/107
o joint
usemtl SURF_Metal_Lamp
v 0 0.26199999944120644 0.09343522896623721
v 0.01414213515818119 0.26199999944120644 0.08757736457145324
v 0.019999999552965164 0.26199999944120644 0.07343522941327205
v 0.01414213515818119 0.26199999944120644 0.059293094255090856
v 2.449293581093244e-18 0.26199999944120644 0.05343522986030688
v -0.01414213515818119 0.26199999944120644 0.059293094255090856
v -0.019999999552965164 0.26199999944120644 0.07343522941327205
v -0.01414213515818119 0.26199999944120644 0.08757736457145324
v -4.898587162186488e-18 0.26199999944120644 0.09343522896623721
v 0 0.2320000001117587 0.09343522896623721
v 0.01414213515818119 0.2320000001117587 0.08757736457145324
v 0.019999999552965164 0.2320000001117587 0.07343522941327205
v 0.01414213515818119 0.2320000001117587 0.059293094255090856
v 2.449293581093244e-18 0.2320000001117587 0.05343522986030688
v -0.01414213515818119 0.2320000001117587 0.059293094255090856
v -0.019999999552965164 0.2320000001117587 0.07343522941327205
v -0.01414213515818119 0.2320000001117587 0.08757736457145324
v -4.898587162186488e-18 0.2320000001117587 0.09343522896623721
v 0 0.26199999944120644 0.07343522941327205
v 0 0.26199999944120644 0.07343522941327205
v 0 0.26199999944120644 0.07343522941327205
v 0 0.26199999944120644 0.07343522941327205
v 0 0.26199999944120644 0.07343522941327205
v 0 0.26199999944120644 0.07343522941327205
v 0 0.26199999944120644 0.07343522941327205
v 0 0.26199999944120644 0.07343522941327205
v 0 0.26199999944120644 0.09343522896623721
v 0.01414213515818119 0.26199999944120644 0.08757736457145324
v 0.019999999552965164 0.26199999944120644 0.07343522941327205
v 0.01414213515818119 0.26199999944120644 0.059293094255090856
v 2.449293581093244e-18 0.26199999944120644 0.05343522986030688
v -0.01414213515818119 0.26199999944120644 0.059293094255090856
v -0.019999999552965164 0.26199999944120644 0.07343522941327205
v -0.01414213515818119 0.26199999944120644 0.08757736457145324
v -4.898587162186488e-18 0.26199999944120644 0.09343522896623721
v 0 0.2320000001117587 0.07343522941327205
v 0 0.2320000001117587 0.07343522941327205
v 0 0.2320000001117587 0.07343522941327205
v 0 0.2320000001117587 0.07343522941327205
v 0 0.2320000001117587 0.07343522941327205
v 0 0.2320000001117587 0.07343522941327205
v 0 0.2320000001117587 0.07343522941327205
v 0 0.2320000001117587 0.07343522941327205
v 0 0.2320000001117587 0.09343522896623721
v 0.01414213515818119 0.2320000001117587 0.08757736457145324
v 0.019999999552965164 0.2320000001117587 0.07343522941327205
v 0.01414213515818119 0.2320000001117587 0.059293094255090856
v 2.449293581093244e-18 0.2320000001117587 0.05343522986030688
v -0.01414213515818119 0.2320000001117587 0.059293094255090856
v -0.019999999552965164 0.2320000001117587 0.07343522941327205
v -0.01414213515818119 0.2320000001117587 0.08757736457145324
v -4.898587162186488e-18 0.2320000001117587 0.09343522896623721
vt 0 1
vt 0.125 1
vt 0.25 1
vt 0.375 1
vt 0.5 1
vt 0.625 1
vt 0.75 1
vt 0.875 1
vt 1 1
vt 0 0
vt 0.125 0
vt 0.25 0
vt 0.375 0
vt 0.5 0
vt 0.625 0
vt 0.75 0
vt 0.875 0
vt 1 0
vt 0.5 0.5
vt 0.5 0.5
vt 0.5 0.5
vt 0.5 0.5
vt 0.5 0.5
vt 0.5 0.5
vt 0.5 0.5
vt 0.5 0.5
vt 1 0.5
vt 0.8535534143447876 0.8535534143447876
vt 0.5 1
vt 0.1464466154575348 0.8535534143447876
vt 0 0.5
vt 0.1464466154575348 0.1464466154575348
vt 0.5 0
vt 0.8535534143447876 0.1464466154575348
vt 1 0.5
vt 0.5 0.5
vt 0.5 0.5
vt 0.5 0.5
vt 0.5 0.5
vt 0.5 0.5
vt 0.5 0.5
vt 0.5 0.5
vt 0.5 0.5
vt 1 0.5
vt 0.8535534143447876 0.1464466154575348
vt 0.5 0
vt 0.1464466154575348 0.1464466154575348
vt 0 0.5
vt 0.1464466154575348 0.8535534143447876
vt 0.5 1
vt 0.8535534143447876 0.8535534143447876
vt 1 0.5
vn 0 0 1
vn 0.7071067811865476 0 0.7071067811865476
vn 1 0 6.123234262925839e-17
vn 0.7071067811865476 0 -0.7071067811865476
vn 1.2246468525851679e-16 0 -1
vn -0.7071067811865476 0 -0.7071067811865476
vn -1 0 -1.8369701465288538e-16
vn -0.7071067811865476 0 0.7071067811865476
vn -2.4492937051703357e-16 0 1
vn 0 0 1
vn 0.7071067811865476 0 0.7071067811865476
vn 1 0 6.123234262925839e-17
vn 0.7071067811865476 0 -0.7071067811865476
vn 1.2246468525851679e-16 0 -1
vn -0.7071067811865476 0 -0.7071067811865476
vn -1 0 -1.8369701465288538e-16
vn -0.7071067811865476 0 0.7071067811865476
vn -2.4492937051703357e-16 0 1
vn 0 1 0
vn 0 1 0
vn 0 1 0
vn 0 1 0
vn 0 1 0
vn 0 1 0
vn 0 1 0
vn 0 1 0
vn 0 1 0
vn 0 1 0
vn 0 1 0
vn 0 1 0
vn 0 1 0
vn 0 1 0
vn 0 1 0
vn 0 1 0
vn 0 1 0
vn 0 -1 0
vn 0 -1 0
vn 0 -1 0
vn 0 -1 0
vn 0 -1 0
vn 0 -1 0
vn 0 -1 0
vn 0 -1 0
vn 0 -1 0
vn 0 -1 0
vn 0 -1 0
vn 0 -1 0
vn 0 -1 0
vn 0 -1 0
vn 0 -1 0
vn 0 -1 0
vn 0 -1 0
f 117/117/117 126/126/126 118/118/118
f 126/126/126 127/127/127 118/118/118
f 118/118/118 127/127/127 119/119/119
f 127/127/127 128/128/128 119/119/119
f 119/119/119 128/128/128 120/120/120
f 128/128/128 129/129/129 120/120/120
f 120/120/120 129/129/129 121/121/121
f 129/129/129 130/130/130 121/121/121
f 121/121/121 130/130/130 122/122/122
f 130/130/130 131/131/131 122/122/122
f 122/122/122 131/131/131 123/123/123
f 131/131/131 132/132/132 123/123/123
f 123/123/123 132/132/132 124/124/124
f 132/132/132 133/133/133 124/124/124
f 124/124/124 133/133/133 125/125/125
f 133/133/133 134/134/134 125/125/125
f 143/143/143 144/144/144 135/135/135
f 144/144/144 145/145/145 136/136/136
f 145/145/145 146/146/146 137/137/137
f 146/146/146 147/147/147 138/138/138
f 147/147/147 148/148/148 139/139/139
f 148/148/148 149/149/149 140/140/140
f 149/149/149 150/150/150 141/141/141
f 150/150/150 151/151/151 142/142/142
f 161/161/161 160/160/160 152/152/152
f 162/162/162 161/161/161 153/153/153
f 163/163/163 162/162/162 154/154/154
f 164/164/164 163/163/163 155/155/155
f 165/165/165 164/164/164 156/156/156
f 166/166/166 165/165/165 157/157/157
f 167/167/167 166/166/166 158/158/158
f 168/168/168 167/167/167 159/159/159
o stem_arm
usemtl SURF_Metal_Lamp
v 0 0.34732830318468044 0.09077236369506735
v 0.007778174709528685 0.3498520455861351 0.08876964501553469
v 0.010999999940395355 0.3559448991438928 0.08393465408114088
v 0.007778174709528685 0.3620377527016506 0.07909966314674707
v 1.347111500620557e-18 0.3645614951031052 0.07709694446721442
v -0.007778174709528685 0.3620377527016506 0.07909966314674707
v -0.010999999940395355 0.3559448991438928 0.08393465408114088
v -0.007778174709528685 0.3498520455861351 0.08876964501553469
v -2.694223001241114e-18 0.34732830318468044 0.09077236369506735
v 0 0.2354385044498599 -0.050226485640670324
v 0.007778174709528685 0.23796224685131454 -0.05222920432020298
v 0.010999999940395355 0.2440551004090723 -0.057064195254596786
v 0.007778174709528685 0.25014795396683004 -0.061899186188990596
v 1.347111500620557e-18 0.2526716963682847 -0.06390190486852325
v -0.007778174709528685 0.25014795396683004 -0.061899186188990596
v -0.010999999940395355 0.2440551004090723 -0.057064195254596786
v -0.007778174709528685 0.23796224685131454 -0.05222920432020298
v -2.694223001241114e-18 0.2354385044498599 -0.050226485640670324
v 0 0.3559448991438928 0.08393465408114088
v 0 0.3559448991438928 0.08393465408114088
v 0 0.3559448991438928 0.08393465408114088
v 0 0.3559448991438928 0.08393465408114088
v 0 0.3559448991438928 0.08393465408114088
v 0 0.3559448991438928 0.08393465408114088
v 0 0.3559448991438928 0.08393465408114088
v 0 0.3559448991438928 0.08393465408114088
v 0 0.34732830318468044 0.09077236369506735
v 0.007778174709528685 0.3498520455861351 0.08876964501553469
v 0.010999999940395355 0.3559448991438928 0.08393465408114088
v 0.007778174709528685 0.3620377527016506 0.07909966314674707
v 1.347111500620557e-18 0.3645614951031052 0.07709694446721442
v -0.007778174709528685 0.3620377527016506 0.07909966314674707
v -0.010999999940395355 0.3559448991438928 0.08393465408114088
v -0.007778174709528685 0.3498520455861351 0.08876964501553469
v -2.694223001241114e-18 0.34732830318468044 0.09077236369506735
v 0 0.2440551004090723 -0.057064195254596786
v 0 0.2440551004090723 -0.057064195254596786
v 0 0.2440551004090723 -0.057064195254596786
v 0 0.2440551004090723 -0.057064195254596786
v 0 0.2440551004090723 -0.057064195254596786
v 0 0.2440551004090723 -0.057064195254596786
v 0 0.2440551004090723 -0.057064195254596786
v 0 0.2440551004090723 -0.057064195254596786
v 0 0.2354385044498599 -0.050226485640670324
v 0.007778174709528685 0.23796224685131454 -0.05222920432020298
v 0.010999999940395355 0.2440551004090723 -0.057064195254596786
v 0.007778174709528685 0.25014795396683004 -0.061899186188990596
v 1.347111500620557e-18 0.2526716963682847 -0.06390190486852325
v -0.007778174709528685 0.25014795396683004 -0.061899186188990596
v -0.010999999940395355 0.2440551004090723 -0.057064195254596786
v -0.007778174709528685 0.23796224685131454 -0.05222920432020298
v -2.694223001241114e-18 0.2354385044498599 -0.050226485640670324
vt 0 1
vt 0.125 1
vt 0.25 1
vt 0.375 1
vt 0.5 1
vt 0.625 1
vt 0.75 1
vt 0.875 1
vt 1 1
vt 0 0
vt 0.125 0
vt 0.25 0
vt 0.375 0
vt 0.5 0
vt 0.625 0
vt 0.75 0
vt 0.875 0
vt 1 0
vt 0.5 0.5
vt 0.5 0.5
vt 0.5 0.5
vt 0.5 0.5
vt 0.5 0.5
vt 0.5 0.5
vt 0.5 0.5
vt 0.5 0.5
vt 1 0.5
vt 0.8535534143447876 0.8535534143447876
vt 0.5 1
vt 0.1464466154575348 0.8535534143447876
vt 0 0.5
vt 0.1464466154575348 0.1464466154575348
vt 0.5 0
vt 0.8535534143447876 0.1464466154575348
vt 1 0.5
vt 0.5 0.5
vt 0.5 0.5
vt 0.5 0.5
vt 0.5 0.5
vt 0.5 0.5
vt 0.5 0.5
vt 0.5 0.5
vt 0.5 0.5
vt 1 0.5
vt 0.8535534143447876 0.1464466154575348
vt 0.5 0
vt 0.1464466154575348 0.1464466154575348
vt 0 0.5
vt 0.1464466154575348 0.8535534143447876
vt 0.5 1
vt 0.8535534143447876 0.8535534143447876
vt 1 0.5
vn 0 -0.7833269096274834 0.6216099682706644
vn 0.7071067811865476 -0.5538957696834953 0.43954462381734144
vn 1 -4.796494172102819e-17 3.806263455891176e-17
vn 0.7071067811865476 0.5538957696834953 -0.43954462381734144
vn 1.2246468525851679e-16 0.7833269096274834 -0.6216099682706644
vn -0.7071067811865476 0.5538957696834953 -0.43954462381734144
vn -1 1.4389481479583925e-16 -1.1418789544979586e-16
vn -0.7071067811865476 -0.5538957696834953 0.43954462381734144
vn -2.4492937051703357e-16 -0.7833269096274834 0.6216099682706644
vn 0 -0.7833269096274834 0.6216099682706644
vn 0.7071067811865476 -0.5538957696834953 0.43954462381734144
vn 1 -4.796494172102819e-17 3.806263455891176e-17
vn 0.7071067811865476 0.5538957696834953 -0.43954462381734144
vn 1.2246468525851679e-16 0.7833269096274834 -0.6216099682706644
vn -0.7071067811865476 0.5538957696834953 -0.43954462381734144
vn -1 1.4389481479583925e-16 -1.1418789544979586e-16
vn -0.7071067811865476 -0.5538957696834953 0.43954462381734144
vn -2.4492937051703357e-16 -0.7833269096274834 0.6216099682706644
vn 0 0.6216099682706644 0.7833269096274834
vn 0 0.6216099682706644 0.7833269096274834
vn 0 0.6216099682706644 0.7833269096274834
vn 0 0.6216099682706644 0.7833269096274834
vn 0 0.6216099682706644 0.7833269096274834
vn 0 0.6216099682706644 0.7833269096274834
vn 0 0.6216099682706644 0.7833269096274834
vn 0 0.6216099682706644 0.7833269096274834
vn 0 0.6216099682706644 0.7833269096274834
vn 0 0.6216099682706644 0.7833269096274834
vn 0 0.6216099682706644 0.7833269096274834
vn 0 0.6216099682706644 0.7833269096274834
vn 0 0.6216099682706644 0.7833269096274834
vn 0 0.6216099682706644 0.7833269096274834
vn 0 0.6216099682706644 0.7833269096274834
vn 0 0.6216099682706644 0.7833269096274834
vn 0 0.6216099682706644 0.7833269096274834
vn 0 -0.6216099682706644 -0.7833269096274834
vn 0 -0.6216099682706644 -0.7833269096274834
vn 0 -0.6216099682706644 -0.7833269096274834
vn 0 -0.6216099682706644 -0.7833269096274834
vn 0 -0.6216099682706644 -0.7833269096274834
vn 0 -0.6216099682706644 -0.7833269096274834
vn 0 -0.6216099682706644 -0.7833269096274834
vn 0 -0.6216099682706644 -0.7833269096274834
vn 0 -0.6216099682706644 -0.7833269096274834
vn 0 -0.6216099682706644 -0.7833269096274834
vn 0 -0.6216099682706644 -0.7833269096274834
vn 0 -0.6216099682706644 -0.7833269096274834
vn 0 -0.6216099682706644 -0.7833269096274834
vn 0 -0.6216099682706644 -0.7833269096274834
vn 0 -0.6216099682706644 -0.7833269096274834
vn 0 -0.6216099682706644 -0.7833269096274834
vn 0 -0.6216099682706644 -0.7833269096274834
f 169/169/169 178/178/178 170/170/170
f 178/178/178 179/179/179 170/170/170
f 170/170/170 179/179/179 171/171/171
f 179/179/179 180/180/180 171/171/171
f 171/171/171 180/180/180 172/172/172
f 180/180/180 181/181/181 172/172/172
f 172/172/172 181/181/181 173/173/173
f 181/181/181 182/182/182 173/173/173
f 173/173/173 182/182/182 174/174/174
f 182/182/182 183/183/183 174/174/174
f 174/174/174 183/183/183 175/175/175
f 183/183/183 184/184/184 175/175/175
f 175/175/175 184/184/184 176/176/176
f 184/184/184 185/185/185 176/176/176
f 176/176/176 185/185/185 177/177/177
f 185/185/185 186/186/186 177/177/177
f 195/195/195 196/196/196 187/187/187
f 196/196/196 197/197/197 188/188/188
f 197/197/197 198/198/198 189/189/189
f 198/198/198 199/199/199 190/190/190
f 199/199/199 200/200/200 191/191/191
f 200/200/200 201/201/201 192/192/192
f 201/201/201 202/202/202 193/193/193
f 202/202/202 203/203/203 194/194/194
f 213/213/213 212/212/212 204/204/204
f 214/214/214 213/213/213 205/205/205
f 215/215/215 214/214/214 206/206/206
f 216/216/216 215/215/215 207/207/207
f 217/217/217 216/216/216 208/208/208
f 218/218/218 217/217/217 209/209/209
f 219/219/219 218/218/218 210/210/210
f 220/220/220 219/219/219 211/211/211
o head_shade
usemtl SURF_Metal_Lamp
v 0 0.32880610339518956 -0.00023455937612482103
v 0.029389262199401855 0.33628621120398183 -0.006170407513776233
v 0.04755282402038574 0.35586938277742086 -0.02171065579427181
v 0.04755282402038574 0.3800755161429546 -0.04091946071131529
v 0.029389262199401855 0.3996586877163936 -0.05645970899181087
v 6.123233849335533e-18 0.40713879552518595 -0.062395557129462285
v -0.029389262199401855 0.3996586877163936 -0.05645970899181087
v -0.04755282402038574 0.3800755161429546 -0.04091946071131529
v -0.04755282402038574 0.35586938277742086 -0.02171065579427181
v -0.029389262199401855 0.33628621120398183 -0.006170407513776233
v -1.2246467698671066e-17 0.32880610339518956 -0.00023455937612482103
v 0 0.2532780295362201 -0.05519373344782049
v 0.04408389329910278 0.26449819270846864 -0.06409750681213641
v 0.07132923603057861 0.2938729500686272 -0.08740787923287978
v 0.07132923603057861 0.33018215011692775 -0.11622108660844499
v 0.04408389329910278 0.3595569074770863 -0.13953145902918834
v 9.184851394388759e-18 0.37077707064933485 -0.14843523239350428
v -0.04408389329910278 0.3595569074770863 -0.13953145902918834
v -0.07132923603057861 0.33018215011692775 -0.11622108660844499
v -0.07132923603057861 0.2938729500686272 -0.08740787923287978
v -0.04408389329910278 0.26449819270846864 -0.06409750681213641
v -1.8369702788777518e-17 0.2532780295362201 -0.05519373344782049
v 0 0.36797244946018776 -0.03131505825279355
v 0 0.36797244946018776 -0.03131505825279355
v 0 0.36797244946018776 -0.03131505825279355
v 0 0.36797244946018776 -0.03131505825279355
v 0 0.36797244946018776 -0.03131505825279355
v 0 0.36797244946018776 -0.03131505825279355
v 0 0.36797244946018776 -0.03131505825279355
v 0 0.36797244946018776 -0.03131505825279355
v 0 0.36797244946018776 -0.03131505825279355
v 0 0.36797244946018776 -0.03131505825279355
v 0 0.32880610339518956 -0.00023455937612482103
v 0.029389262199401855 0.33628621120398183 -0.006170407513776233
v 0.04755282402038574 0.35586938277742086 -0.02171065579427181
v 0.04755282402038574 0.3800755161429546 -0.04091946071131529
v 0.029389262199401855 0.3996586877163936 -0.05645970899181087
v 6.123233849335533e-18 0.40713879552518595 -0.062395557129462285
v -0.029389262199401855 0.3996586877163936 -0.05645970899181087
v -0.04755282402038574 0.3800755161429546 -0.04091946071131529
v -0.04755282402038574 0.35586938277742086 -0.02171065579427181
v -0.029389262199401855 0.33628621120398183 -0.006170407513776233
v -1.2246467698671066e-17 0.32880610339518956 -0.00023455937612482103
v 0 0.31202755009277744 -0.10181448292066239
v 0 0.31202755009277744 -0.10181448292066239
v 0 0.31202755009277744 -0.10181448292066239
v 0 0.31202755009277744 -0.10181448292066239
v 0 0.31202755009277744 -0.10181448292066239
v 0 0.31202755009277744 -0.10181448292066239
v 0 0.31202755009277744 -0.10181448292066239
v 0 0.31202755009277744 -0.10181448292066239
v 0 0.31202755009277744 -0.10181448292066239
v 0 0.31202755009277744 -0.10181448292066239
v 0 0.2532780295362201 -0.05519373344782049
v 0.04408389329910278 0.26449819270846864 -0.06409750681213641
v 0.07132923603057861 0.2938729500686272 -0.08740787923287978
v 0.07132923603057861 0.33018215011692775 -0.11622108660844499
v 0.04408389329910278 0.3595569074770863 -0.13953145902918834
v 9.184851394388759e-18 0.37077707064933485 -0.14843523239350428
v -0.04408389329910278 0.3595569074770863 -0.13953145902918834
v -0.07132923603057861 0.33018215011692775 -0.11622108660844499
v -0.07132923603057861 0.2938729500686272 -0.08740787923287978
v -0.04408389329910278 0.26449819270846864 -0.06409750681213641
v -1.8369702788777518e-17 0.2532780295362201 -0.05519373344782049
vt 0 1
vt 0.10000000149011612 1
vt 0.20000000298023224 1
vt 0.30000001192092896 1
vt 0.4000000059604645 1
vt 0.5 1
vt 0.6000000238418579 1
vt 0.699999988079071 1
vt 0.800000011920929 1
vt 0.8999999761581421 1
vt 1 1
vt 0 0
vt 0.10000000149011612 0
vt 0.20000000298023224 0
vt 0.30000001192092896 0
vt 0.4000000059604645 0
vt 0.5 0
vt 0.6000000238418579 0
vt 0.699999988079071 0
vt 0.800000011920929 0
vt 0.8999999761581421 0
vt 1 0
vt 0.5 0.5
vt 0.5 0.5
vt 0.5 0.5
vt 0.5 0.5
vt 0.5 0.5
vt 0.5 0.5
vt 0.5 0.5
vt 0.5 0.5
vt 0.5 0.5
vt 0.5 0.5
vt 1 0.5
vt 0.9045084714889526 0.7938926219940186
vt 0.6545084714889526 0.9755282402038574
vt 0.345491498708725 0.9755282402038574
vt 0.09549150615930557 0.7938926219940186
vt 0 0.5
vt 0.09549150615930557 0.20610737800598145
vt 0.345491498708725 0.024471741169691086
vt 0.6545084714889526 0.024471741169691086
vt 0.9045084714889526 0.20610737800598145
vt 1 0.5
vt 0.5 0.5
vt 0.5 0.5
vt 0.5 0.5
vt 0.5 0.5
vt 0.5 0.5
vt 0.5 0.5
vt 0.5 0.5
vt 0.5 0.5
vt 0.5 0.5
vt 0.5 0.5
vt 1 0.5
vt 0.9045084714889526 0.20610737800598145
vt 0.6545084714889526 0.024471741169691086
vt 0.345491498708725 0.024471741169691086
vt 0.09549150615930557 0.20610737800598145
vt 0 0.5
vt 0.09549150615930557 0.7938926219940186
vt 0.345491498708725 0.9755282402038574
vt 0.6545084714889526 0.9755282402038574
vt 0.9045084714889526 0.7938926219940186
vt 1 0.5
vn 0 -0.5883794076855585 0.8085849816881286
vn 0.5663416184626752 -0.44423508699044373 0.6941990771267782
vn 0.9163599807902444 -0.0668603296894023 0.39473292479843547
vn 0.9163599807902444 0.3996005306018797 0.024572373690773926
vn 0.5663416184626752 0.7769752689181371 -0.2748938025614005
vn 1.1799691777982255e-16 0.9211196026811098 -0.38927969065518253
vn -0.5663416184626752 0.7769752689181371 -0.2748938025614005
vn -0.9163599807902444 0.3996005306018797 0.024572373690773926
vn -0.9163599807902444 -0.0668603296894023 0.39473292479843547
vn -0.5663416184626752 -0.44423508699044373 0.6941990771267782
vn -2.3599383555964506e-16 -0.5883794076855585 0.8085849816881286
vn 0 -0.5883794076855585 0.8085849816881286
vn 0.5663416184626752 -0.44423508699044373 0.6941990771267782
vn 0.9163599807902444 -0.0668603296894023 0.39473292479843547
vn 0.9163599807902444 0.3996005306018797 0.024572373690773926
vn 0.5663416184626752 0.7769752689181371 -0.2748938025614005
vn 1.1799691777982255e-16 0.9211196026811098 -0.38927969065518253
vn -0.5663416184626752 0.7769752689181371 -0.2748938025614005
vn -0.9163599807902444 0.3996005306018797 0.024572373690773926
vn -0.9163599807902444 -0.0668603296894023 0.39473292479843547
vn -0.5663416184626752 -0.44423508699044373 0.6941990771267782
vn -2.3599383555964506e-16 -0.5883794076855585 0.8085849816881286
vn 0 0.6216099682706644 0.7833269096274834
vn 0 0.6216099682706644 0.7833269096274834
vn 0 0.6216099682706644 0.7833269096274834
vn 0 0.6216099682706644 0.7833269096274834
vn 0 0.6216099682706644 0.7833269096274834
vn 0 0.6216099682706644 0.7833269096274834
vn 0 0.6216099682706644 0.7833269096274834
vn 0 0.6216099682706644 0.7833269096274834
vn 0 0.6216099682706644 0.7833269096274834
vn 0 0.6216099682706644 0.7833269096274834
vn 0 0.6216099682706644 0.7833269096274834
vn 0 0.6216099682706644 0.7833269096274834
vn 0 0.6216099682706644 0.7833269096274834
vn 0 0.6216099682706644 0.7833269096274834
vn 0 0.6216099682706644 0.7833269096274834
vn 0 0.6216099682706644 0.7833269096274834
vn 0 0.6216099682706644 0.7833269096274834
vn 0 0.6216099682706644 0.7833269096274834
vn 0 0.6216099682706644 0.7833269096274834
vn 0 0.6216099682706644 0.7833269096274834
vn 0 0.6216099682706644 0.7833269096274834
vn 0 -0.6216099682706644 -0.7833269096274834
vn 0 -0.6216099682706644 -0.7833269096274834
vn 0 -0.6216099682706644 -0.7833269096274834
vn 0 -0.6216099682706644 -0.7833269096274834
vn 0 -0.6216099682706644 -0.7833269096274834
vn 0 -0.6216099682706644 -0.7833269096274834
vn 0 -0.6216099682706644 -0.7833269096274834
vn 0 -0.6216099682706644 -0.7833269096274834
vn 0 -0.6216099682706644 -0.7833269096274834
vn 0 -0.6216099682706644 -0.7833269096274834
vn 0 -0.6216099682706644 -0.7833269096274834
vn 0 -0.6216099682706644 -0.7833269096274834
vn 0 -0.6216099682706644 -0.7833269096274834
vn 0 -0.6216099682706644 -0.7833269096274834
vn 0 -0.6216099682706644 -0.7833269096274834
vn 0 -0.6216099682706644 -0.7833269096274834
vn 0 -0.6216099682706644 -0.7833269096274834
vn 0 -0.6216099682706644 -0.7833269096274834
vn 0 -0.6216099682706644 -0.7833269096274834
vn 0 -0.6216099682706644 -0.7833269096274834
vn 0 -0.6216099682706644 -0.7833269096274834
f 221/221/221 232/232/232 222/222/222
f 232/232/232 233/233/233 222/222/222
f 222/222/222 233/233/233 223/223/223
f 233/233/233 234/234/234 223/223/223
f 223/223/223 234/234/234 224/224/224
f 234/234/234 235/235/235 224/224/224
f 224/224/224 235/235/235 225/225/225
f 235/235/235 236/236/236 225/225/225
f 225/225/225 236/236/236 226/226/226
f 236/236/236 237/237/237 226/226/226
f 226/226/226 237/237/237 227/227/227
f 237/237/237 238/238/238 227/227/227
f 227/227/227 238/238/238 228/228/228
f 238/238/238 239/239/239 228/228/228
f 228/228/228 239/239/239 229/229/229
f 239/239/239 240/240/240 229/229/229
f 229/229/229 240/240/240 230/230/230
f 240/240/240 241/241/241 230/230/230
f 230/230/230 241/241/241 231/231/231
f 241/241/241 242/242/242 231/231/231
f 253/253/253 254/254/254 243/243/243
f 254/254/254 255/255/255 244/244/244
f 255/255/255 256/256/256 245/245/245
f 256/256/256 257/257/257 246/246/246
f 257/257/257 258/258/258 247/247/247
f 258/258/258 259/259/259 248/248/248
f 259/259/259 260/260/260 249/249/249
f 260/260/260 261/261/261 250/250/250
f 261/261/261 262/262/262 251/251/251
f 262/262/262 263/263/263 252/252/252
f 275/275/275 274/274/274 264/264/264
f 276/276/276 275/275/275 265/265/265
f 277/277/277 276/276/276 266/266/266
f 278/278/278 277/277/277 267/267/267
f 279/279/279 278/278/278 268/268/268
f 280/280/280 279/279/279 269/269/269
f 281/281/281 280/280/280 270/270/270
f 282/282/282 281/281/281 271/271/271
f 283/283/283 282/282/282 272/272/272
f 284/284/284 283/283/283 273/273/273
o bulb
usemtl SURF_Emissive_Screen
v 0 0.31999999955296515 -0.05656477125728021
v 0.02121320366859436 0.31999999955296515 -0.0653515669181336
v 0.029999999329447746 0.31999999955296515 -0.08656477058672796
v 0.02121320366859436 0.31999999955296515 -0.10777797425532232
v 3.673940475037442e-18 0.31999999955296515 -0.1165647699161757
v -0.02121320366859436 0.31999999955296515 -0.10777797425532232
v -0.029999999329447746 0.31999999955296515 -0.08656477058672796
v -0.02121320366859436 0.31999999955296515 -0.0653515669181336
v -7.347880950074885e-18 0.31999999955296515 -0.05656477125728021
v 0 0.3 -0.05656477125728021
v 0.02121320366859436 0.3 -0.0653515669181336
v 0.029999999329447746 0.3 -0.08656477058672796
v 0.02121320366859436 0.3 -0.10777797425532232
v 3.673940475037442e-18 0.3 -0.1165647699161757
v -0.02121320366859436 0.3 -0.10777797425532232
v -0.029999999329447746 0.3 -0.08656477058672796
v -0.02121320366859436 0.3 -0.0653515669181336
v -7.347880950074885e-18 0.3 -0.05656477125728021
v 0 0.31999999955296515 -0.08656477058672796
v 0 0.31999999955296515 -0.08656477058672796
v 0 0.31999999955296515 -0.08656477058672796
v 0 0.31999999955296515 -0.08656477058672796
v 0 0.31999999955296515 -0.08656477058672796
v 0 0.31999999955296515 -0.08656477058672796
v 0 0.31999999955296515 -0.08656477058672796
v 0 0.31999999955296515 -0.08656477058672796
v 0 0.31999999955296515 -0.05656477125728021
v 0.02121320366859436 0.31999999955296515 -0.0653515669181336
v 0.029999999329447746 0.31999999955296515 -0.08656477058672796
v 0.02121320366859436 0.31999999955296515 -0.10777797425532232
v 3.673940475037442e-18 0.31999999955296515 -0.1165647699161757
v -0.02121320366859436 0.31999999955296515 -0.10777797425532232
v -0.029999999329447746 0.31999999955296515 -0.08656477058672796
v -0.02121320366859436 0.31999999955296515 -0.0653515669181336
v -7.347880950074885e-18 0.31999999955296515 -0.05656477125728021
v 0 0.3 -0.08656477058672796
v 0 0.3 -0.08656477058672796
v 0 0.3 -0.08656477058672796
v 0 0.3 -0.08656477058672796
v 0 0.3 -0.08656477058672796
v 0 0.3 -0.08656477058672796
v 0 0.3 -0.08656477058672796
v 0 0.3 -0.08656477058672796
v 0 0.3 -0.05656477125728021
v 0.02121320366859436 0.3 -0.0653515669181336
v 0.029999999329447746 0.3 -0.08656477058672796
v 0.02121320366859436 0.3 -0.10777797425532232
v 3.673940475037442e-18 0.3 -0.1165647699161757
v -0.02121320366859436 0.3 -0.10777797425532232
v -0.029999999329447746 0.3 -0.08656477058672796
v -0.02121320366859436 0.3 -0.0653515669181336
v -7.347880950074885e-18 0.3 -0.05656477125728021
vt 0 1
vt 0.125 1
vt 0.25 1
vt 0.375 1
vt 0.5 1
vt 0.625 1
vt 0.75 1
vt 0.875 1
vt 1 1
vt 0 0
vt 0.125 0
vt 0.25 0
vt 0.375 0
vt 0.5 0
vt 0.625 0
vt 0.75 0
vt 0.875 0
vt 1 0
vt 0.5 0.5
vt 0.5 0.5
vt 0.5 0.5
vt 0.5 0.5
vt 0.5 0.5
vt 0.5 0.5
vt 0.5 0.5
vt 0.5 0.5
vt 1 0.5
vt 0.8535534143447876 0.8535534143447876
vt 0.5 1
vt 0.1464466154575348 0.8535534143447876
vt 0 0.5
vt 0.1464466154575348 0.1464466154575348
vt 0.5 0
vt 0.8535534143447876 0.1464466154575348
vt 1 0.5
vt 0.5 0.5
vt 0.5 0.5
vt 0.5 0.5
vt 0.5 0.5
vt 0.5 0.5
vt 0.5 0.5
vt 0.5 0.5
vt 0.5 0.5
vt 1 0.5
vt 0.8535534143447876 0.1464466154575348
vt 0.5 0
vt 0.1464466154575348 0.1464466154575348
vt 0 0.5
vt 0.1464466154575348 0.8535534143447876
vt 0.5 1
vt 0.8535534143447876 0.8535534143447876
vt 1 0.5
vn 0 0 1
vn 0.7071067811865476 0 0.7071067811865476
vn 1 0 6.123234262925839e-17
vn 0.7071067811865476 0 -0.7071067811865476
vn 1.2246468525851679e-16 0 -1
vn -0.7071067811865476 0 -0.7071067811865476
vn -1 0 -1.8369701465288538e-16
vn -0.7071067811865476 0 0.7071067811865476
vn -2.4492937051703357e-16 0 1
vn 0 0 1
vn 0.7071067811865476 0 0.7071067811865476
vn 1 0 6.123234262925839e-17
vn 0.7071067811865476 0 -0.7071067811865476
vn 1.2246468525851679e-16 0 -1
vn -0.7071067811865476 0 -0.7071067811865476
vn -1 0 -1.8369701465288538e-16
vn -0.7071067811865476 0 0.7071067811865476
vn -2.4492937051703357e-16 0 1
vn 0 1 0
vn 0 1 0
vn 0 1 0
vn 0 1 0
vn 0 1 0
vn 0 1 0
vn 0 1 0
vn 0 1 0
vn 0 1 0
vn 0 1 0
vn 0 1 0
vn 0 1 0
vn 0 1 0
vn 0 1 0
vn 0 1 0
vn 0 1 0
vn 0 1 0
vn 0 -1 0
vn 0 -1 0
vn 0 -1 0
vn 0 -1 0
vn 0 -1 0
vn 0 -1 0
vn 0 -1 0
vn 0 -1 0
vn 0 -1 0
vn 0 -1 0
vn 0 -1 0
vn 0 -1 0
vn 0 -1 0
vn 0 -1 0
vn 0 -1 0
vn 0 -1 0
vn 0 -1 0
f 285/285/285 294/294/294 286/286/286
f 294/294/294 295/295/295 286/286/286
f 286/286/286 295/295/295 287/287/287
f 295/295/295 296/296/296 287/287/287
f 287/287/287 296/296/296 288/288/288
f 296/296/296 297/297/297 288/288/288
f 288/288/288 297/297/297 289/289/289
f 297/297/297 298/298/298 289/289/289
f 289/289/289 298/298/298 290/290/290
f 298/298/298 299/299/299 290/290/290
f 290/290/290 299/299/299 291/291/291
f 299/299/299 300/300/300 291/291/291
f 291/291/291 300/300/300 292/292/292
f 300/300/300 301/301/301 292/292/292
f 292/292/292 301/301/301 293/293/293
f 301/301/301 302/302/302 293/293/293
f 311/311/311 312/312/312 303/303/303
f 312/312/312 313/313/313 304/304/304
f 313/313/313 314/314/314 305/305/305
f 314/314/314 315/315/315 306/306/306
f 315/315/315 316/316/316 307/307/307
f 316/316/316 317/317/317 308/308/308
f 317/317/317 318/318/318 309/309/309
f 318/318/318 319/319/319 310/310/310
f 329/329/329 328/328/328 320/320/320
f 330/330/330 329/329/329 321/321/321
f 331/331/331 330/330/330 322/322/322
f 332/332/332 331/331/331 323/323/323
f 333/333/333 332/332/332 324/324/324
f 334/334/334 333/333/333 325/325/325
f 335/335/335 334/334/334 326/326/326
f 336/336/336 335/335/335 327/327/327
