# PRP_P0_Power_Strip_A — Power strip
# SC_P0_BEDROOM · group B
# bounds 0.39 × 0.05 × 0.03 m · 72 tris · UV island 16 × 8 px
# 1 unit = 1 m · pivot at floor contact, X/Z centred
mtllib PRP_P0_Power_Strip_A.mtl
o body
usemtl SURF_Plastic_Matte
v 0.19499999776482582 0.029999999329447746 0.02500000037252903
v 0.19499999776482582 0.029999999329447746 -0.02500000037252903
v 0.19499999776482582 0 0.02500000037252903
v 0.19499999776482582 0 -0.02500000037252903
v -0.06499999269843101 0.029999999329447746 -0.02500000037252903
v -0.06499999269843101 0.029999999329447746 0.02500000037252903
v -0.06499999269843101 0 -0.02500000037252903
v -0.06499999269843101 0 0.02500000037252903
v -0.06499999269843101 0.029999999329447746 -0.02500000037252903
v 0.19499999776482582 0.029999999329447746 -0.02500000037252903
v -0.06499999269843101 0.029999999329447746 0.02500000037252903
v 0.19499999776482582 0.029999999329447746 0.02500000037252903
v -0.06499999269843101 0 0.02500000037252903
v 0.19499999776482582 0 0.02500000037252903
v -0.06499999269843101 0 -0.02500000037252903
v 0.19499999776482582 0 -0.02500000037252903
v -0.06499999269843101 0.029999999329447746 0.02500000037252903
v 0.19499999776482582 0.029999999329447746 0.02500000037252903
v -0.06499999269843101 0 0.02500000037252903
v 0.19499999776482582 0 0.02500000037252903
v 0.19499999776482582 0.029999999329447746 -0.02500000037252903
v -0.06499999269843101 0.029999999329447746 -0.02500000037252903
v 0.19499999776482582 0 -0.02500000037252903
v -0.06499999269843101 0 -0.02500000037252903
vt 0 1
vt 1 1
vt 0 0
vt 1 0
vt 0 1
vt 1 1
vt 0 0
vt 1 0
vt 0 1
vt 1 1
vt 0 0
vt 1 0
vt 0 1
vt 1 1
vt 0 0
vt 1 0
vt 0 1
vt 1 1
vt 0 0
vt 1 0
vt 0 1
vt 1 1
vt 0 0
vt 1 0
vn 1 0 0
vn 1 0 0
vn 1 0 0
vn 1 0 0
vn -1 0 0
vn -1 0 0
vn -1 0 0
vn -1 0 0
vn 0 1 0
vn 0 1 0
vn 0 1 0
vn 0 1 0
vn 0 -1 0
vn 0 -1 0
vn 0 -1 0
vn 0 -1 0
vn 0 0 1
vn 0 0 1
vn 0 0 1
vn 0 0 1
vn 0 0 -1
vn 0 0 -1
vn 0 0 -1
vn 0 0 -1
f 1/1/1 3/3/3 2/2/2
f 3/3/3 4/4/4 2/2/2
f 5/5/5 7/7/7 6/6/6
f 7/7/7 8/8/8 6/6/6
f 9/9/9 11/11/11 10/10/10
f 11/11/11 12/12/12 10/10/10
f 13/13/13 15/15/15 14/14/14
f 15/15/15 16/16/16 14/14/14
f 17/17/17 19/19/19 18/18/18
f 19/19/19 20/20/20 18/18/18
f 21/21/21 23/23/23 22/22/22
f 23/23/23 24/24/24 22/22/22
o socket_0
usemtl SURF_Wood_Dark
v 0.015000002905726437 0.034999999690800906 0.01899999938905239
v 0.015000002905726437 0.034999999690800906 -0.01899999938905239
v 0.015000002905726437 0.028999999638646842 0.01899999938905239
v 0.015000002905726437 0.028999999638646842 -0.01899999938905239
v -0.03499999783933162 0.034999999690800906 -0.01899999938905239
v -0.03499999783933162 0.034999999690800906 0.01899999938905239
v -0.03499999783933162 0.028999999638646842 -0.01899999938905239
v -0.03499999783933162 0.028999999638646842 0.01899999938905239
v -0.03499999783933162 0.034999999690800906 -0.01899999938905239
v 0.015000002905726437 0.034999999690800906 -0.01899999938905239
v -0.03499999783933162 0.034999999690800906 0.01899999938905239
v 0.015000002905726437 0.034999999690800906 0.01899999938905239
v -0.03499999783933162 0.028999999638646842 0.01899999938905239
v 0.015000002905726437 0.028999999638646842 0.01899999938905239
v -0.03499999783933162 0.028999999638646842 -0.01899999938905239
v 0.015000002905726437 0.028999999638646842 -0.01899999938905239
v -0.03499999783933162 0.034999999690800906 0.01899999938905239
v 0.015000002905726437 0.034999999690800906 0.01899999938905239
v -0.03499999783933162 0.028999999638646842 0.01899999938905239
v 0.015000002905726437 0.028999999638646842 0.01899999938905239
v 0.015000002905726437 0.034999999690800906 -0.01899999938905239
v -0.03499999783933162 0.034999999690800906 -0.01899999938905239
v 0.015000002905726437 0.028999999638646842 -0.01899999938905239
v -0.03499999783933162 0.028999999638646842 -0.01899999938905239
vt 0 1
vt 1 1
vt 0 0
vt 1 0
vt 0 1
vt 1 1
vt 0 0
vt 1 0
vt 0 1
vt 1 1
vt 0 0
vt 1 0
vt 0 1
vt 1 1
vt 0 0
vt 1 0
vt 0 1
vt 1 1
vt 0 0
vt 1 0
vt 0 1
vt 1 1
vt 0 0
vt 1 0
vn 1 0 0
vn 1 0 0
vn 1 0 0
vn 1 0 0
vn -1 0 0
vn -1 0 0
vn -1 0 0
vn -1 0 0
vn 0 1 0
vn 0 1 0
vn 0 1 0
vn 0 1 0
vn 0 -1 0
vn 0 -1 0
vn 0 -1 0
vn 0 -1 0
vn 0 0 1
vn 0 0 1
vn 0 0 1
vn 0 0 1
vn 0 0 -1
vn 0 0 -1
vn 0 0 -1
vn 0 0 -1
f 25/25/25 27/27/27 26/26/26
f 27/27/27 28/28/28 26/26/26
f 29/29/29 31/31/31 30/30/30
f 31/31/31 32/32/32 30/30/30
f 33/33/33 35/35/35 34/34/34
f 35/35/35 36/36/36 34/34/34
f 37/37/37 39/39/39 38/38/38
f 39/39/39 40/40/40 38/38/38
f 41/41/41 43/43/43 42/42/42
f 43/43/43 44/44/44 42/42/42
f 45/45/45 47/47/47 46/46/46
f 47/47/47 48/48/48 46/46/46
o socket_1
usemtl SURF_Wood_Dark
v 0.09000000290572643 0.034999999690800906 0.01899999938905239
v 0.09000000290572643 0.034999999690800906 -0.01899999938905239
v 0.09000000290572643 0.028999999638646842 0.01899999938905239
v 0.09000000290572643 0.028999999638646842 -0.01899999938905239
v 0.040000002160668374 0.034999999690800906 -0.01899999938905239
v 0.040000002160668374 0.034999999690800906 0.01899999938905239
v 0.040000002160668374 0.028999999638646842 -0.01899999938905239
v 0.040000002160668374 0.028999999638646842 0.01899999938905239
v 0.040000002160668374 0.034999999690800906 -0.01899999938905239
v 0.09000000290572643 0.034999999690800906 -0.01899999938905239
v 0.040000002160668374 0.034999999690800906 0.01899999938905239
v 0.09000000290572643 0.034999999690800906 0.01899999938905239
v 0.040000002160668374 0.028999999638646842 0.01899999938905239
v 0.09000000290572643 0.028999999638646842 0.01899999938905239
v 0.040000002160668374 0.028999999638646842 -0.01899999938905239
v 0.09000000290572643 0.028999999638646842 -0.01899999938905239
v 0.040000002160668374 0.034999999690800906 0.01899999938905239
v 0.09000000290572643 0.034999999690800906 0.01899999938905239
v 0.040000002160668374 0.028999999638646842 0.01899999938905239
v 0.09000000290572643 0.028999999638646842 0.01899999938905239
v 0.09000000290572643 0.034999999690800906 -0.01899999938905239
v 0.040000002160668374 0.034999999690800906 -0.01899999938905239
v 0.09000000290572643 0.028999999638646842 -0.01899999938905239
v 0.040000002160668374 0.028999999638646842 -0.01899999938905239
vt 0 1
vt 1 1
vt 0 0
vt 1 0
vt 0 1
vt 1 1
vt 0 0
vt 1 0
vt 0 1
vt 1 1
vt 0 0
vt 1 0
vt 0 1
vt 1 1
vt 0 0
vt 1 0
vt 0 1
vt 1 1
vt 0 0
vt 1 0
vt 0 1
vt 1 1
vt 0 0
vt 1 0
vn 1 0 0
vn 1 0 0
vn 1 0 0
vn 1 0 0
vn -1 0 0
vn -1 0 0
vn -1 0 0
vn -1 0 0
vn 0 1 0
vn 0 1 0
vn 0 1 0
vn 0 1 0
vn 0 -1 0
vn 0 -1 0
vn 0 -1 0
vn 0 -1 0
vn 0 0 1
vn 0 0 1
vn 0 0 1
vn 0 0 1
vn 0 0 -1
vn 0 0 -1
vn 0 0 -1
vn 0 0 -1
f 49/49/49 51/51/51 50/50/50
f 51/51/51 52/52/52 50/50/50
f 53/53/53 55/55/55 54/54/54
f 55/55/55 56/56/56 54/54/54
f 57/57/57 59/59/59 58/58/58
f 59/59/59 60/60/60 58/58/58
f 61/61/61 63/63/63 62/62/62
f 63/63/63 64/64/64 62/62/62
f 65/65/65 67/67/67 66/66/66
f 67/67/67 68/68/68 66/66/66
f 69/69/69 71/71/71 70/70/70
f 71/71/71 72/72/72 70/70/70
o socket_2
usemtl SURF_Wood_Dark
v 0.16500000290572642 0.034999999690800906 0.01899999938905239
v 0.16500000290572642 0.034999999690800906 -0.01899999938905239
v 0.16500000290572642 0.028999999638646842 0.01899999938905239
v 0.16500000290572642 0.028999999638646842 -0.01899999938905239
v 0.11500000216066836 0.034999999690800906 -0.01899999938905239
v 0.11500000216066836 0.034999999690800906 0.01899999938905239
v 0.11500000216066836 0.028999999638646842 -0.01899999938905239
v 0.11500000216066836 0.028999999638646842 0.01899999938905239
v 0.11500000216066836 0.034999999690800906 -0.01899999938905239
v 0.16500000290572642 0.034999999690800906 -0.01899999938905239
v 0.11500000216066836 0.034999999690800906 0.01899999938905239
v 0.16500000290572642 0.034999999690800906 0.01899999938905239
v 0.11500000216066836 0.028999999638646842 0.01899999938905239
v 0.16500000290572642 0.028999999638646842 0.01899999938905239
v 0.11500000216066836 0.028999999638646842 -0.01899999938905239
v 0.16500000290572642 0.028999999638646842 -0.01899999938905239
v 0.11500000216066836 0.034999999690800906 0.01899999938905239
v 0.16500000290572642 0.034999999690800906 0.01899999938905239
v 0.11500000216066836 0.028999999638646842 0.01899999938905239
v 0.16500000290572642 0.028999999638646842 0.01899999938905239
v 0.16500000290572642 0.034999999690800906 -0.01899999938905239
v 0.11500000216066836 0.034999999690800906 -0.01899999938905239
v 0.16500000290572642 0.028999999638646842 -0.01899999938905239
v 0.11500000216066836 0.028999999638646842 -0.01899999938905239
vt 0 1
vt 1 1
vt 0 0
vt 1 0
vt 0 1
vt 1 1
vt 0 0
vt 1 0
vt 0 1
vt 1 1
vt 0 0
vt 1 0
vt 0 1
vt 1 1
vt 0 0
vt 1 0
vt 0 1
vt 1 1
vt 0 0
vt 1 0
vt 0 1
vt 1 1
vt 0 0
vt 1 0
vn 1 0 0
vn 1 0 0
vn 1 0 0
vn 1 0 0
vn -1 0 0
vn -1 0 0
vn -1 0 0
vn -1 0 0
vn 0 1 0
vn 0 1 0
vn 0 1 0
vn 0 1 0
vn 0 -1 0
vn 0 -1 0
vn 0 -1 0
vn 0 -1 0
vn 0 0 1
vn 0 0 1
vn 0 0 1
vn 0 0 1
vn 0 0 -1
vn 0 0 -1
vn 0 0 -1
vn 0 0 -1
f 73/73/73 75/75/75 74/74/74
f 75/75/75 76/76/76 74/74/74
f 77/77/77 79/79/79 78/78/78
f 79/79/79 80/80/80 78/78/78
f 81/81/81 83/83/83 82/82/82
f 83/83/83 84/84/84 82/82/82
f 85/85/85 87/87/87 86/86/86
f 87/87/87 88/88/88 86/86/86
f 89/89/89 91/91/91 90/90/90
f 91/91/91 92/92/92 90/90/90
f 93/93/93 95/95/95 94/94/94
f 95/95/95 96/96/96 94/94/94
o cable
usemtl SURF_Plastic_Matte
v -0.19499999776482585 0.011999999664723858 0.006000000052154064
v -0.19499999776482585 0.01719615191966294 0.003000000026077032
v -0.19499999776482585 0.01719615191966294 -0.003000000026077032
v -0.19499999776482585 0.011999999664723858 -0.006000000052154064
v -0.19499999776482585 0.006803847409784778 -0.003000000026077032
v -0.19499999776482585 0.006803847409784778 0.003000000026077032
v -0.19499999776482585 0.011999999664723857 0.006000000052154064
v -0.05499999716877936 0.01199999966472389 0.006000000052154064
v -0.05499999716877936 0.01719615191966297 0.003000000026077032
v -0.05499999716877936 0.01719615191966297 -0.003000000026077032
v -0.05499999716877936 0.01199999966472389 -0.006000000052154064
v -0.05499999716877936 0.006803847409784809 -0.003000000026077032
v -0.05499999716877936 0.006803847409784809 0.003000000026077032
v -0.05499999716877936 0.011999999664723888 0.006000000052154064
v -0.19499999776482585 0.011999999664723858 0
v -0.19499999776482585 0.011999999664723858 0
v -0.19499999776482585 0.011999999664723858 0
v -0.19499999776482585 0.011999999664723858 0
v -0.19499999776482585 0.011999999664723858 0
v -0.19499999776482585 0.011999999664723858 0
v -0.19499999776482585 0.011999999664723858 0.006000000052154064
v -0.19499999776482585 0.01719615191966294 0.003000000026077032
v -0.19499999776482585 0.01719615191966294 -0.003000000026077032
v -0.19499999776482585 0.011999999664723858 -0.006000000052154064
v -0.19499999776482585 0.006803847409784778 -0.003000000026077032
v -0.19499999776482585 0.006803847409784778 0.003000000026077032
v -0.19499999776482585 0.011999999664723857 0.006000000052154064
v -0.05499999716877936 0.01199999966472389 0
v -0.05499999716877936 0.01199999966472389 0
v -0.05499999716877936 0.01199999966472389 0
v -0.05499999716877936 0.01199999966472389 0
v -0.05499999716877936 0.01199999966472389 0
v -0.05499999716877936 0.01199999966472389 0
v -0.05499999716877936 0.01199999966472389 0.006000000052154064
v -0.05499999716877936 0.01719615191966297 0.003000000026077032
v -0.05499999716877936 0.01719615191966297 -0.003000000026077032
v -0.05499999716877936 0.01199999966472389 -0.006000000052154064
v -0.05499999716877936 0.006803847409784809 -0.003000000026077032
v -0.05499999716877936 0.006803847409784809 0.003000000026077032
v -0.05499999716877936 0.011999999664723888 0.006000000052154064
vt 0 1
vt 0.1666666716337204 1
vt 0.3333333432674408 1
vt 0.5 1
vt 0.6666666865348816 1
vt 0.8333333134651184 1
vt 1 1
vt 0 0
vt 0.1666666716337204 0
vt 0.3333333432674408 0
vt 0.5 0
vt 0.6666666865348816 0
vt 0.8333333134651184 0
vt 1 0
vt 0.5 0.5
vt 0.5 0.5
vt 0.5 0.5
vt 0.5 0.5
vt 0.5 0.5
vt 0.5 0.5
vt 1 0.5
vt 0.75 0.9330127239227295
vt 0.25 0.9330127239227295
vt 0 0.5
vt 0.25 0.0669872984290123
vt 0.75 0.0669872984290123
vt 1 0.5
vt 0.5 0.5
vt 0.5 0.5
vt 0.5 0.5
vt 0.5 0.5
vt 0.5 0.5
vt 0.5 0.5
vt 1 0.5
vt 0.75 0.0669872984290123
vt 0.25 0.0669872984290123
vt 0 0.5
vt 0.25 0.9330127239227295
vt 0.75 0.9330127239227295
vt 1 0.5
vn 0 0 1
vn -1.9229626777551184e-16 0.8660253998985323 0.500000006730587
vn -1.9229626777551184e-16 0.8660253998985323 -0.500000006730587
vn -2.7192622655495654e-32 1.2246468525851676e-16 -1
vn 1.9229626777551184e-16 -0.8660253998985323 -0.500000006730587
vn 1.9229626777551184e-16 -0.8660253998985323 0.500000006730587
vn 5.438524531099131e-32 -2.449293705170335e-16 1
vn 0 0 1
vn -1.9229626777551184e-16 0.8660253998985323 0.500000006730587
vn -1.9229626777551184e-16 0.8660253998985323 -0.500000006730587
vn -2.7192622655495654e-32 1.2246468525851676e-16 -1
vn 1.9229626777551184e-16 -0.8660253998985323 -0.500000006730587
vn 1.9229626777551184e-16 -0.8660253998985323 0.500000006730587
vn 5.438524531099131e-32 -2.449293705170335e-16 1
vn -1 -2.2204460492503126e-16 0
vn -1 -2.2204460492503126e-16 0
vn -1 -2.2204460492503126e-16 0
vn -1 -2.2204460492503126e-16 0
vn -1 -2.2204460492503126e-16 0
vn -1 -2.2204460492503126e-16 0
vn -1 -2.2204460492503126e-16 0
vn -1 -2.2204460492503126e-16 0
vn -1 -2.2204460492503126e-16 0
vn -1 -2.2204460492503126e-16 0
vn -1 -2.2204460492503126e-16 0
vn -1 -2.2204460492503126e-16 0
vn -1 -2.2204460492503126e-16 0
vn 1 2.2204460492503126e-16 0
vn 1 2.2204460492503126e-16 0
vn 1 2.2204460492503126e-16 0
vn 1 2.2204460492503126e-16 0
vn 1 2.2204460492503126e-16 0
vn 1 2.2204460492503126e-16 0
vn 1 2.2204460492503126e-16 0
vn 1 2.2204460492503126e-16 0
vn 1 2.2204460492503126e-16 0
vn 1 2.2204460492503126e-16 0
vn 1 2.2204460492503126e-16 0
vn 1 2.2204460492503126e-16 0
vn 1 2.2204460492503126e-16 0
f 97/97/97 104/104/104 98/98/98
f 104/104/104 105/105/105 98/98/98
f 98/98/98 105/105/105 99/99/99
f 105/105/105 106/106/106 99/99/99
f 99/99/99 106/106/106 100/100/100
f 106/106/106 107/107/107 100/100/100
f 100/100/100 107/107/107 101/101/101
f 107/107/107 108/108/108 101/101/101
f 101/101/101 108/108/108 102/102/102
f 108/108/108 109/109/109 102/102/102
f 102/102/102 109/109/109 103/103/103
f 109/109/109 110/110/110 103/103/103
f 117/117/117 118/118/118 111/111/111
f 118/118/118 119/119/119 112/112/112
f 119/119/119 120/120/120 113/113/113
f 120/120/120 121/121/121 114/114/114
f 121/121/121 122/122/122 115/115/115
f 122/122/122 123/123/123 116/116/116
f 131/131/131 130/130/130 124/124/124
f 132/132/132 131/131/131 125/125/125
f 133/133/133 132/132/132 126/126/126
f 134/134/134 133/133/133 127/127/127
f 135/135/135 134/134/134 128/128/128
f 136/136/136 135/135/135 129/129/129
