# PRP_P0_Books_Stack_A — Books stack
# SC_P0_BEDROOM · group B
# bounds 0.18 × 0.22 × 0.09 m · 48 tris · UV island 24 × 16 px
# 1 unit = 1 m · pivot at floor contact, X/Z centred
mtllib PRP_P0_Books_Stack_A.mtl
o book_1
usemtl SURF_Wood_Dark
v 0.07901377324890269 0.03500000014901161 0.10893895054608159
v 0.07901377324890269 0.03500000014901161 -0.11106104826182552
v 0.07901377324890269 0 0.10893895054608159
v 0.07901377324890269 0 -0.11106104826182552
v -0.08098622317481863 0.03500000014901161 -0.11106104826182552
v -0.08098622317481863 0.03500000014901161 0.10893895054608159
v -0.08098622317481863 0 -0.11106104826182552
v -0.08098622317481863 0 0.10893895054608159
v -0.08098622317481863 0.03500000014901161 -0.11106104826182552
v 0.07901377324890269 0.03500000014901161 -0.11106104826182552
v -0.08098622317481863 0.03500000014901161 0.10893895054608159
v 0.07901377324890269 0.03500000014901161 0.10893895054608159
v -0.08098622317481863 0 0.10893895054608159
v 0.07901377324890269 0 0.10893895054608159
v -0.08098622317481863 0 -0.11106104826182552
v 0.07901377324890269 0 -0.11106104826182552
v -0.08098622317481863 0.03500000014901161 0.10893895054608159
v 0.07901377324890269 0.03500000014901161 0.10893895054608159
v -0.08098622317481863 0 0.10893895054608159
v 0.07901377324890269 0 0.10893895054608159
v 0.07901377324890269 0.03500000014901161 -0.11106104826182552
v -0.08098622317481863 0.03500000014901161 -0.11106104826182552
v 0.07901377324890269 0 -0.11106104826182552
v -0.08098622317481863 0 -0.11106104826182552
vt 0 1
vt 1 1
vt 0 0
vt 1 0
vt 0 1
vt 1 1
vt 0 0
vt 1 0
vt 0 1
vt 1 1
vt 0 0
vt 1 0
vt 0 1
vt 1 1
vt 0 0
vt 1 0
vt 0 1
vt 1 1
vt 0 0
vt 1 0
vt 0 1
vt 1 1
vt 0 0
vt 1 0
vn 1 0 0
vn 1 0 0
vn 1 0 0
vn 1 0 0
vn -1 0 0
vn -1 0 0
vn -1 0 0
vn -1 0 0
vn 0 1 0
vn 0 1 0
vn 0 1 0
vn 0 1 0
vn 0 -1 0
vn 0 -1 0
vn 0 -1 0
vn 0 -1 0
vn 0 0 1
vn 0 0 1
vn 0 0 1
vn 0 0 1
vn 0 0 -1
vn 0 0 -1
vn 0 0 -1
vn 0 0 -1
f 1/1/1 3/3/3 2/2/2
f 3/3/3 4/4/4 2/2/2
f 5/5/5 7/7/7 6/6/6
f 7/7/7 8/8/8 6/6/6
f 9/9/9 11/11/11 10/10/10
f 11/11/11 12/12/12 10/10/10
f 13/13/13 15/15/15 14/14/14
f 15/15/15 16/16/16 14/14/14
f 17/17/17 19/19/19 18/18/18
f 19/19/19 20/20/20 18/18/18
f 21/21/21 23/23/23 22/22/22
f 23/23/23 24/24/24 22/22/22
o book_2
usemtl SURF_Wood_Furniture
v 0.09067053796075858 0.06449999973922968 0.10310279402506982
v 0.07807809699322987 0.06449999973922968 -0.10651931281661033
v 0.09067053796075858 0.034500000409781933 0.10310279402506982
v 0.07807809699322987 0.034500000409781933 -0.10651931281661033
v -0.07664298788667454 0.06449999973922968 -0.09722489174081374
v -0.06405054691914583 0.06449999973922968 0.11239721510086641
v -0.07664298788667454 0.034500000409781933 -0.09722489174081374
v -0.06405054691914583 0.034500000409781933 0.11239721510086641
v -0.07664298788667454 0.06449999973922968 -0.09722489174081374
v 0.07807809699322987 0.06449999973922968 -0.10651931281661033
v -0.06405054691914583 0.06449999973922968 0.11239721510086641
v 0.09067053796075858 0.06449999973922968 0.10310279402506982
v -0.06405054691914583 0.034500000409781933 0.11239721510086641
v 0.09067053796075858 0.034500000409781933 0.10310279402506982
v -0.07664298788667454 0.034500000409781933 -0.09722489174081374
v 0.07807809699322987 0.034500000409781933 -0.10651931281661033
v -0.06405054691914583 0.06449999973922968 0.11239721510086641
v 0.09067053796075858 0.06449999973922968 0.10310279402506982
v -0.06405054691914583 0.034500000409781933 0.11239721510086641
v 0.09067053796075858 0.034500000409781933 0.10310279402506982
v 0.07807809699322987 0.06449999973922968 -0.10651931281661033
v -0.07664298788667454 0.06449999973922968 -0.09722489174081374
v 0.07807809699322987 0.034500000409781933 -0.10651931281661033
v -0.07664298788667454 0.034500000409781933 -0.09722489174081374
vt 0 1
vt 1 1
vt 0 0
vt 1 0
vt 0 1
vt 1 1
vt 0 0
vt 1 0
vt 0 1
vt 1 1
vt 0 0
vt 1 0
vt 0 1
vt 1 1
vt 0 0
vt 1 0
vt 0 1
vt 1 1
vt 0 0
vt 1 0
vt 0 1
vt 1 1
vt 0 0
vt 1 0
vn 0.9982005399352042 0 -0.0599640064794446
vn 0.9982005399352042 0 -0.0599640064794446
vn 0.9982005399352042 0 -0.0599640064794446
vn 0.9982005399352042 0 -0.0599640064794446
vn -0.9982005399352042 0 0.0599640064794446
vn -0.9982005399352042 0 0.0599640064794446
vn -0.9982005399352042 0 0.0599640064794446
vn -0.9982005399352042 0 0.0599640064794446
vn 0 1 0
vn 0 1 0
vn 0 1 0
vn 0 1 0
vn 0 -1 0
vn 0 -1 0
vn 0 -1 0
vn 0 -1 0
vn 0.0599640064794446 0 0.9982005399352042
vn 0.0599640064794446 0 0.9982005399352042
vn 0.0599640064794446 0 0.9982005399352042
vn 0.0599640064794446 0 0.9982005399352042
vn -0.0599640064794446 0 -0.9982005399352042
vn -0.0599640064794446 0 -0.9982005399352042
vn -0.0599640064794446 0 -0.9982005399352042
vn -0.0599640064794446 0 -0.9982005399352042
f 25/25/25 27/27/27 26/26/26
f 27/27/27 28/28/28 26/26/26
f 29/29/29 31/31/31 30/30/30
f 31/31/31 32/32/32 30/30/30
f 33/33/33 35/35/35 34/34/34
f 35/35/35 36/36/36 34/34/34
f 37/37/37 39/39/39 38/38/38
f 39/39/39 40/40/40 38/38/38
f 41/41/41 43/43/43 42/42/42
f 43/43/43 44/44/44 42/42/42
f 45/45/45 47/47/47 46/46/46
f 47/47/47 48/48/48 46/46/46
o book_3
usemtl SURF_Fabric_Curtain
v 0.058722377927381456 0.09250000050663948 0.10027511738512247
v 0.07669808803484261 0.09250000050663948 -0.09891543218544684
v 0.058722377927381456 0.06449999964237213 0.10027511738512247
v 0.07669808803484261 0.06449999964237213 -0.09891543218544684
v -0.07269482785329741 0.09250000050663948 -0.11239721510086641
v -0.09067053796075857 0.09250000050663948 0.0867933344697029
v -0.07269482785329741 0.06449999964237213 -0.11239721510086641
v -0.09067053796075857 0.06449999964237213 0.0867933344697029
v -0.07269482785329741 0.09250000050663948 -0.11239721510086641
v 0.07669808803484261 0.09250000050663948 -0.09891543218544684
v -0.09067053796075857 0.09250000050663948 0.0867933344697029
v 0.058722377927381456 0.09250000050663948 0.10027511738512247
v -0.09067053796075857 0.06449999964237213 0.0867933344697029
v 0.058722377927381456 0.06449999964237213 0.10027511738512247
v -0.07269482785329741 0.06449999964237213 -0.11239721510086641
v 0.07669808803484261 0.06449999964237213 -0.09891543218544684
v -0.09067053796075857 0.09250000050663948 0.0867933344697029
v 0.058722377927381456 0.09250000050663948 0.10027511738512247
v -0.09067053796075857 0.06449999964237213 0.0867933344697029
v 0.058722377927381456 0.06449999964237213 0.10027511738512247
v 0.07669808803484261 0.09250000050663948 -0.09891543218544684
v -0.07269482785329741 0.09250000050663948 -0.11239721510086641
v 0.07669808803484261 0.06449999964237213 -0.09891543218544684
v -0.07269482785329741 0.06449999964237213 -0.11239721510086641
vt 0 1
vt 1 1
vt 0 0
vt 1 0
vt 0 1
vt 1 1
vt 0 0
vt 1 0
vt 0 1
vt 1 1
vt 0 0
vt 1 0
vt 0 1
vt 1 1
vt 0 0
vt 1 0
vt 0 1
vt 1 1
vt 0 0
vt 1 0
vt 0 1
vt 1 1
vt 0 0
vt 1 0
vn 0.9959527330119943 0 0.08987854919801105
vn 0.9959527330119943 0 0.08987854919801105
vn 0.9959527330119943 0 0.08987854919801105
vn 0.9959527330119943 0 0.08987854919801105
vn -0.9959527330119943 0 -0.08987854919801105
vn -0.9959527330119943 0 -0.08987854919801105
vn -0.9959527330119943 0 -0.08987854919801105
vn -0.9959527330119943 0 -0.08987854919801105
vn 0 1 0
vn 0 1 0
vn 0 1 0
vn 0 1 0
vn 0 -1 0
vn 0 -1 0
vn 0 -1 0
vn 0 -1 0
vn -0.08987854919801105 0 0.9959527330119943
vn -0.08987854919801105 0 0.9959527330119943
vn -0.08987854919801105 0 0.9959527330119943
vn -0.08987854919801105 0 0.9959527330119943
vn 0.08987854919801105 0 -0.9959527330119943
vn 0.08987854919801105 0 -0.9959527330119943
vn 0.08987854919801105 0 -0.9959527330119943
vn 0.08987854919801105 0 -0.9959527330119943
f 49/49/49 51/51/51 50/50/50
f 51/51/51 52/52/52 50/50/50
f 53/53/53 55/55/55 54/54/54
f 55/55/55 56/56/56 54/54/54
f 57/57/57 59/59/59 58/58/58
f 59/59/59 60/60/60 58/58/58
f 61/61/61 63/63/63 62/62/62
f 63/63/63 64/64/64 62/62/62
f 65/65/65 67/67/67 66/66/66
f 67/67/67 68/68/68 66/66/66
f 69/69/69 71/71/71 70/70/70
f 71/71/71 72/72/72 70/70/70
o pages_edge
usemtl SURF_Paper_Notebook
v 0.056004149197656686 0.08849999985098839 0.1060176243574186
v 0.07344058825636 0.08849999985098839 -0.08719721154579554
v 0.056004149197656686 0.06850000029802322 0.1060176243574186
v 0.07344058825636 0.06850000029802322 -0.08719721154579554
v -0.06997659912357264 0.08849999985098839 -0.10013972207316252
v -0.08741303818227596 0.08849999985098839 0.09307511383005163
v -0.06997659912357264 0.06850000029802322 -0.10013972207316252
v -0.08741303818227596 0.06850000029802322 0.09307511383005163
v -0.06997659912357264 0.08849999985098839 -0.10013972207316252
v 0.07344058825636 0.08849999985098839 -0.08719721154579554
v -0.08741303818227596 0.08849999985098839 0.09307511383005163
v 0.056004149197656686 0.08849999985098839 0.1060176243574186
v -0.08741303818227596 0.06850000029802322 0.09307511383005163
v 0.056004149197656686 0.06850000029802322 0.1060176243574186
v -0.06997659912357264 0.06850000029802322 -0.10013972207316252
v 0.07344058825636 0.06850000029802322 -0.08719721154579554
v -0.08741303818227596 0.08849999985098839 0.09307511383005163
v 0.056004149197656686 0.08849999985098839 0.1060176243574186
v -0.08741303818227596 0.06850000029802322 0.09307511383005163
v 0.056004149197656686 0.06850000029802322 0.1060176243574186
v 0.07344058825636 0.08849999985098839 -0.08719721154579554
v -0.06997659912357264 0.08849999985098839 -0.10013972207316252
v 0.07344058825636 0.06850000029802322 -0.08719721154579554
v -0.06997659912357264 0.06850000029802322 -0.10013972207316252
vt 0 1
vt 1 1
vt 0 0
vt 1 0
vt 0 1
vt 1 1
vt 0 0
vt 1 0
vt 0 1
vt 1 1
vt 0 0
vt 1 0
vt 0 1
vt 1 1
vt 0 0
vt 1 0
vt 0 1
vt 1 1
vt 0 0
vt 1 0
vt 0 1
vt 1 1
vt 0 0
vt 1 0
vn 0.9959527330119943 0 0.08987854919801105
vn 0.9959527330119943 0 0.08987854919801105
vn 0.9959527330119943 0 0.08987854919801105
vn 0.9959527330119943 0 0.08987854919801105
vn -0.9959527330119943 0 -0.08987854919801105
vn -0.9959527330119943 0 -0.08987854919801105
vn -0.9959527330119943 0 -0.08987854919801105
vn -0.9959527330119943 0 -0.08987854919801105
vn 0 1 0
vn 0 1 0
vn 0 1 0
vn 0 1 0
vn 0 -1 0
vn 0 -1 0
vn 0 -1 0
vn 0 -1 0
vn -0.08987854919801105 0 0.9959527330119943
vn -0.08987854919801105 0 0.9959527330119943
vn -0.08987854919801105 0 0.9959527330119943
vn -0.08987854919801105 0 0.9959527330119943
vn 0.08987854919801105 0 -0.9959527330119943
vn 0.08987854919801105 0 -0.9959527330119943
vn 0.08987854919801105 0 -0.9959527330119943
vn 0.08987854919801105 0 -0.9959527330119943
f 73/73/73 75/75/75 74/74/74
f 75/75/75 76/76/76 74/74/74
f 77/77/77 79/79/79 78/78/78
f 79/79/79 80/80/80 78/78/78
f 81/81/81 83/83/83 82/82/82
f 83/83/83 84/84/84 82/82/82
f 85/85/85 87/87/87 86/86/86
f 87/87/87 88/88/88 86/86/86
f 89/89/89 91/91/91 90/90/90
f 91/91/91 92/92/92 90/90/90
f 93/93/93 95/95/95 94/94/94
f 95/95/95 96/96/96 94/94/94
