# PRP_P0_Plant_Small_A — Small plant
# SC_P0_BEDROOM · group B
# bounds 0.16 × 0.16 × 0.28 m · 148 tris · UV island 24 × 16 px
# 1 unit = 1 m · pivot at floor contact, X/Z centred
mtllib PRP_P0_Plant_Small_A.mtl
o pot
usemtl SURF_Ceramic_Mug
v 0 0.11999999731779099 0.07500000298023224
v 0.04408389329910278 0.11999999731779099 0.060676272958517075
v 0.07132923603057861 0.11999999731779099 0.023176275193691254
v 0.07132923603057861 0.11999999731779099 -0.023176275193691254
v 0.04408389329910278 0.11999999731779099 -0.060676272958517075
v 9.184851394388759e-18 0.11999999731779099 -0.07500000298023224
v -0.04408389329910278 0.11999999731779099 -0.060676272958517075
v -0.07132923603057861 0.11999999731779099 -0.023176275193691254
v -0.07132923603057861 0.11999999731779099 0.023176275193691254
v -0.04408389329910278 0.11999999731779099 0.060676272958517075
v -1.8369702788777518e-17 0.11999999731779099 0.07500000298023224
v 0 0 0.054999999701976776
v 0.03232818841934204 0 0.04449593648314476
v 0.052308108657598495 0 0.016995934769511223
v 0.052308108657598495 0 -0.016995934769511223
v 0.03232818841934204 0 -0.04449593648314476
v 6.735557192910056e-18 0 -0.054999999701976776
v -0.03232818841934204 0 -0.04449593648314476
v -0.052308108657598495 0 -0.016995934769511223
v -0.052308108657598495 0 0.016995934769511223
v -0.03232818841934204 0 0.04449593648314476
v -1.3471114385820111e-17 0 0.054999999701976776
v 0 0.11999999731779099 0
v 0 0.11999999731779099 0
v 0 0.11999999731779099 0
v 0 0.11999999731779099 0
v 0 0.11999999731779099 0
v 0 0.11999999731779099 0
v 0 0.11999999731779099 0
v 0 0.11999999731779099 0
v 0 0.11999999731779099 0
v 0 0.11999999731779099 0
v 0 0.11999999731779099 0.07500000298023224
v 0.04408389329910278 0.11999999731779099 0.060676272958517075
v 0.07132923603057861 0.11999999731779099 0.023176275193691254
v 0.07132923603057861 0.11999999731779099 -0.023176275193691254
v 0.04408389329910278 0.11999999731779099 -0.060676272958517075
v 9.184851394388759e-18 0.11999999731779099 -0.07500000298023224
v -0.04408389329910278 0.11999999731779099 -0.060676272958517075
v -0.07132923603057861 0.11999999731779099 -0.023176275193691254
v -0.07132923603057861 0.11999999731779099 0.023176275193691254
v -0.04408389329910278 0.11999999731779099 0.060676272958517075
v -1.8369702788777518e-17 0.11999999731779099 0.07500000298023224
v 0 0 0
v 0 0 0
v 0 0 0
v 0 0 0
v 0 0 0
v 0 0 0
v 0 0 0
v 0 0 0
v 0 0 0
v 0 0 0
v 0 0 0.054999999701976776
v 0.03232818841934204 0 0.04449593648314476
v 0.052308108657598495 0 0.016995934769511223
v 0.052308108657598495 0 -0.016995934769511223
v 0.03232818841934204 0 -0.04449593648314476
v 6.735557192910056e-18 0 -0.054999999701976776
v -0.03232818841934204 0 -0.04449593648314476
v -0.052308108657598495 0 -0.016995934769511223
v -0.052308108657598495 0 0.016995934769511223
v -0.03232818841934204 0 0.04449593648314476
v -1.3471114385820111e-17 0 0.054999999701976776
vt 0 1
vt 0.10000000149011612 1
vt 0.20000000298023224 1
vt 0.30000001192092896 1
vt 0.4000000059604645 1
vt 0.5 1
vt 0.6000000238418579 1
vt 0.699999988079071 1
vt 0.800000011920929 1
vt 0.8999999761581421 1
vt 1 1
vt 0 0
vt 0.10000000149011612 0
vt 0.20000000298023224 0
vt 0.30000001192092896 0
vt 0.4000000059604645 0
vt 0.5 0
vt 0.6000000238418579 0
vt 0.699999988079071 0
vt 0.800000011920929 0
vt 0.8999999761581421 0
vt 1 0
vt 0.5 0.5
vt 0.5 0.5
vt 0.5 0.5
vt 0.5 0.5
vt 0.5 0.5
vt 0.5 0.5
vt 0.5 0.5
vt 0.5 0.5
vt 0.5 0.5
vt 0.5 0.5
vt 1 0.5
vt 0.9045084714889526 0.7938926219940186
vt 0.6545084714889526 0.9755282402038574
vt 0.345491498708725 0.9755282402038574
vt 0.09549150615930557 0.7938926219940186
vt 0 0.5
vt 0.09549150615930557 0.20610737800598145
vt 0.345491498708725 0.024471741169691086
vt 0.6545084714889526 0.024471741169691086
vt 0.9045084714889526 0.20610737800598145
vt 1 0.5
vt 0.5 0.5
vt 0.5 0.5
vt 0.5 0.5
vt 0.5 0.5
vt 0.5 0.5
vt 0.5 0.5
vt 0.5 0.5
vt 0.5 0.5
vt 0.5 0.5
vt 0.5 0.5
vt 1 0.5
vt 0.9045084714889526 0.20610737800598145
vt 0.6545084714889526 0.024471741169691086
vt 0.345491498708725 0.024471741169691086
vt 0.09549150615930557 0.20610737800598145
vt 0 0.5
vt 0.09549150615930557 0.7938926219940186
vt 0.345491498708725 0.9755282402038574
vt 0.6545084714889526 0.9755282402038574
vt 0.9045084714889526 0.7938926219940186
vt 1 0.5
vn 0 -0.16439898247254828 0.986393924637612
vn 0.5797877911874428 -0.16439898323778174 0.7980094557712772
vn 0.9381163683446611 -0.16439898254489904 0.3048124898720955
vn 0.9381163683446611 -0.16439898254489904 -0.3048124898720955
vn 0.5797877911874428 -0.16439898323778174 -0.7980094557712772
vn 1.2079841215617542e-16 -0.16439898247254828 -0.986393924637612
vn -0.5797877911874428 -0.16439898323778174 -0.7980094557712772
vn -0.9381163683446611 -0.16439898254489904 -0.3048124898720955
vn -0.9381163683446611 -0.16439898254489904 0.3048124898720955
vn -0.5797877911874428 -0.16439898323778174 0.7980094557712772
vn -2.4159682431235084e-16 -0.16439898247254828 0.986393924637612
vn 0 -0.16439898247254828 0.986393924637612
vn 0.5797877911874428 -0.16439898323778174 0.7980094557712772
vn 0.9381163683446611 -0.16439898254489904 0.3048124898720955
vn 0.9381163683446611 -0.16439898254489904 -0.3048124898720955
vn 0.5797877911874428 -0.16439898323778174 -0.7980094557712772
vn 1.2079841215617542e-16 -0.16439898247254828 -0.986393924637612
vn -0.5797877911874428 -0.16439898323778174 -0.7980094557712772
vn -0.9381163683446611 -0.16439898254489904 -0.3048124898720955
vn -0.9381163683446611 -0.16439898254489904 0.3048124898720955
vn -0.5797877911874428 -0.16439898323778174 0.7980094557712772
vn -2.4159682431235084e-16 -0.16439898247254828 0.986393924637612
vn 0 1 0
vn 0 1 0
vn 0 1 0
vn 0 1 0
vn 0 1 0
vn 0 1 0
vn 0 1 0
vn 0 1 0
vn 0 1 0
vn 0 1 0
vn 0 1 0
vn 0 1 0
vn 0 1 0
vn 0 1 0
vn 0 1 0
vn 0 1 0
vn 0 1 0
vn 0 1 0
vn 0 1 0
vn 0 1 0
vn 0 1 0
vn 0 -1 0
vn 0 -1 0
vn 0 -1 0
vn 0 -1 0
vn 0 -1 0
vn 0 -1 0
vn 0 -1 0
vn 0 -1 0
vn 0 -1 0
vn 0 -1 0
vn 0 -1 0
vn 0 -1 0
vn 0 -1 0
vn 0 -1 0
vn 0 -1 0
vn 0 -1 0
vn 0 -1 0
vn 0 -1 0
vn 0 -1 0
vn 0 -1 0
vn 0 -1 0
f 1/1/1 12/12/12 2/2/2
f 12/12/12 13/13/13 2/2/2
f 2/2/2 13/13/13 3/3/3
f 13/13/13 14/14/14 3/3/3
f 3/3/3 14/14/14 4/4/4
f 14/14/14 15/15/15 4/4/4
f 4/4/4 15/15/15 5/5/5
f 15/15/15 16/16/16 5/5/5
f 5/5/5 16/16/16 6/6/6
f 16/16/16 17/17/17 6/6/6
f 6/6/6 17/17/17 7/7/7
f 17/17/17 18/18/18 7/7/7
f 7/7/7 18/18/18 8/8/8
f 18/18/18 19/19/19 8/8/8
f 8/8/8 19/19/19 9/9/9
f 19/19/19 20/20/20 9/9/9
f 9/9/9 20/20/20 10/10/10
f 20/20/20 21/21/21 10/10/10
f 10/10/10 21/21/21 11/11/11
f 21/21/21 22/22/22 11/11/11
f 33/33/33 34/34/34 23/23/23
f 34/34/34 35/35/35 24/24/24
f 35/35/35 36/36/36 25/25/25
f 36/36/36 37/37/37 26/26/26
f 37/37/37 38/38/38 27/27/27
f 38/38/38 39/39/39 28/28/28
f 39/39/39 40/40/40 29/29/29
f 40/40/40 41/41/41 30/30/30
f 41/41/41 42/42/42 31/31/31
f 42/42/42 43/43/43 32/32/32
f 55/55/55 54/54/54 44/44/44
f 56/56/56 55/55/55 45/45/45
f 57/57/57 56/56/56 46/46/46
f 58/58/58 57/57/57 47/47/47
f 59/59/59 58/58/58 48/48/48
f 60/60/60 59/59/59 49/49/49
f 61/61/61 60/60/60 50/50/50
f 62/62/62 61/61/61 51/51/51
f 63/63/63 62/62/62 52/52/52
f 64/64/64 63/63/63 53/53/53
o pot_rim
usemtl SURF_Ceramic_Mug
v 0 0.12549999849125743 0.0820000022649765
v 0.0481983907520771 0.12549999849125743 0.0663393959403038
v 0.07798663526773453 0.12549999849125743 0.025339392945170403
v 0.07798663526773453 0.12549999849125743 -0.025339392945170403
v 0.0481983907520771 0.12549999849125743 -0.0663393959403038
v 1.0042104158111152e-17 0.12549999849125743 -0.0820000022649765
v -0.0481983907520771 0.12549999849125743 -0.0663393959403038
v -0.07798663526773453 0.12549999849125743 -0.025339392945170403
v -0.07798663526773453 0.12549999849125743 0.025339392945170403
v -0.0481983907520771 0.12549999849125743 0.0663393959403038
v -2.0084208316222304e-17 0.12549999849125743 0.0820000022649765
v 0 0.11049999882653355 0.0820000022649765
v 0.0481983907520771 0.11049999882653355 0.0663393959403038
v 0.07798663526773453 0.11049999882653355 0.025339392945170403
v 0.07798663526773453 0.11049999882653355 -0.025339392945170403
v 0.0481983907520771 0.11049999882653355 -0.0663393959403038
v 1.0042104158111152e-17 0.11049999882653355 -0.0820000022649765
v -0.0481983907520771 0.11049999882653355 -0.0663393959403038
v -0.07798663526773453 0.11049999882653355 -0.025339392945170403
v -0.07798663526773453 0.11049999882653355 0.025339392945170403
v -0.0481983907520771 0.11049999882653355 0.0663393959403038
v -2.0084208316222304e-17 0.11049999882653355 0.0820000022649765
v 0 0.12549999849125743 0
v 0 0.12549999849125743 0
v 0 0.12549999849125743 0
v 0 0.12549999849125743 0
v 0 0.12549999849125743 0
v 0 0.12549999849125743 0
v 0 0.12549999849125743 0
v 0 0.12549999849125743 0
v 0 0.12549999849125743 0
v 0 0.12549999849125743 0
v 0 0.12549999849125743 0.0820000022649765
v 0.0481983907520771 0.12549999849125743 0.0663393959403038
v 0.07798663526773453 0.12549999849125743 0.025339392945170403
v 0.07798663526773453 0.12549999849125743 -0.025339392945170403
v 0.0481983907520771 0.12549999849125743 -0.0663393959403038
v 1.0042104158111152e-17 0.12549999849125743 -0.0820000022649765
v -0.0481983907520771 0.12549999849125743 -0.0663393959403038
v -0.07798663526773453 0.12549999849125743 -0.025339392945170403
v -0.07798663526773453 0.12549999849125743 0.025339392945170403
v -0.0481983907520771 0.12549999849125743 0.0663393959403038
v -2.0084208316222304e-17 0.12549999849125743 0.0820000022649765
v 0 0.11049999882653355 0
v 0 0.11049999882653355 0
v 0 0.11049999882653355 0
v 0 0.11049999882653355 0
v 0 0.11049999882653355 0
v 0 0.11049999882653355 0
v 0 0.11049999882653355 0
v 0 0.11049999882653355 0
v 0 0.11049999882653355 0
v 0 0.11049999882653355 0
v 0 0.11049999882653355 0.0820000022649765
v 0.0481983907520771 0.11049999882653355 0.0663393959403038
v 0.07798663526773453 0.11049999882653355 0.025339392945170403
v 0.07798663526773453 0.11049999882653355 -0.025339392945170403
v 0.0481983907520771 0.11049999882653355 -0.0663393959403038
v 1.0042104158111152e-17 0.11049999882653355 -0.0820000022649765
v -0.0481983907520771 0.11049999882653355 -0.0663393959403038
v -0.07798663526773453 0.11049999882653355 -0.025339392945170403
v -0.07798663526773453 0.11049999882653355 0.025339392945170403
v -0.0481983907520771 0.11049999882653355 0.0663393959403038
v -2.0084208316222304e-17 0.11049999882653355 0.0820000022649765
vt 0 1
vt 0.10000000149011612 1
vt 0.20000000298023224 1
vt 0.30000001192092896 1
vt 0.4000000059604645 1
vt 0.5 1
vt 0.6000000238418579 1
vt 0.699999988079071 1
vt 0.800000011920929 1
vt 0.8999999761581421 1
vt 1 1
vt 0 0
vt 0.10000000149011612 0
vt 0.20000000298023224 0
vt 0.30000001192092896 0
vt 0.4000000059604645 0
vt 0.5 0
vt 0.6000000238418579 0
vt 0.699999988079071 0
vt 0.800000011920929 0
vt 0.8999999761581421 0
vt 1 0
vt 0.5 0.5
vt 0.5 0.5
vt 0.5 0.5
vt 0.5 0.5
vt 0.5 0.5
vt 0.5 0.5
vt 0.5 0.5
vt 0.5 0.5
vt 0.5 0.5
vt 0.5 0.5
vt 1 0.5
vt 0.9045084714889526 0.7938926219940186
vt 0.6545084714889526 0.9755282402038574
vt 0.345491498708725 0.9755282402038574
vt 0.09549150615930557 0.7938926219940186
vt 0 0.5
vt 0.09549150615930557 0.20610737800598145
vt 0.345491498708725 0.024471741169691086
vt 0.6545084714889526 0.024471741169691086
vt 0.9045084714889526 0.20610737800598145
vt 1 0.5
vt 0.5 0.5
vt 0.5 0.5
vt 0.5 0.5
vt 0.5 0.5
vt 0.5 0.5
vt 0.5 0.5
vt 0.5 0.5
vt 0.5 0.5
vt 0.5 0.5
vt 0.5 0.5
vt 1 0.5
vt 0.9045084714889526 0.20610737800598145
vt 0.6545084714889526 0.024471741169691086
vt 0.345491498708725 0.024471741169691086
vt 0.09549150615930557 0.20610737800598145
vt 0 0.5
vt 0.09549150615930557 0.7938926219940186
vt 0.345491498708725 0.9755282402038574
vt 0.6545084714889526 0.9755282402038574
vt 0.9045084714889526 0.7938926219940186
vt 1 0.5
vn 0 0 1
vn 0.5877852429542022 0 0.8090170011595983
vn 0.9510565161477913 0 0.3090169948284817
vn 0.9510565161477913 0 -0.3090169948284817
vn 0.5877852429542022 0 -0.8090170011595983
vn 1.2246468525851679e-16 0 -1
vn -0.5877852429542022 0 -0.8090170011595983
vn -0.9510565161477913 0 -0.3090169948284817
vn -0.9510565161477913 0 0.3090169948284817
vn -0.5877852429542022 0 0.8090170011595983
vn -2.4492937051703357e-16 0 1
vn 0 0 1
vn 0.5877852429542022 0 0.8090170011595983
vn 0.9510565161477913 0 0.3090169948284817
vn 0.9510565161477913 0 -0.3090169948284817
vn 0.5877852429542022 0 -0.8090170011595983
vn 1.2246468525851679e-16 0 -1
vn -0.5877852429542022 0 -0.8090170011595983
vn -0.9510565161477913 0 -0.3090169948284817
vn -0.9510565161477913 0 0.3090169948284817
vn -0.5877852429542022 0 0.8090170011595983
vn -2.4492937051703357e-16 0 1
vn 0 1 0
vn 0 1 0
vn 0 1 0
vn 0 1 0
vn 0 1 0
vn 0 1 0
vn 0 1 0
vn 0 1 0
vn 0 1 0
vn 0 1 0
vn 0 1 0
vn 0 1 0
vn 0 1 0
vn 0 1 0
vn 0 1 0
vn 0 1 0
vn 0 1 0
vn 0 1 0
vn 0 1 0
vn 0 1 0
vn 0 1 0
vn 0 -1 0
vn 0 -1 0
vn 0 -1 0
vn 0 -1 0
vn 0 -1 0
vn 0 -1 0
vn 0 -1 0
vn 0 -1 0
vn 0 -1 0
vn 0 -1 0
vn 0 -1 0
vn 0 -1 0
vn 0 -1 0
vn 0 -1 0
vn 0 -1 0
vn 0 -1 0
vn 0 -1 0
vn 0 -1 0
vn 0 -1 0
vn 0 -1 0
vn 0 -1 0
f 65/65/65 76/76/76 66/66/66
f 76/76/76 77/77/77 66/66/66
f 66/66/66 77/77/77 67/67/67
f 77/77/77 78/78/78 67/67/67
f 67/67/67 78/78/78 68/68/68
f 78/78/78 79/79/79 68/68/68
f 68/68/68 79/79/79 69/69/69
f 79/79/79 80/80/80 69/69/69
f 69/69/69 80/80/80 70/70/70
f 80/80/80 81/81/81 70/70/70
f 70/70/70 81/81/81 71/71/71
f 81/81/81 82/82/82 71/71/71
f 71/71/71 82/82/82 72/72/72
f 82/82/82 83/83/83 72/72/72
f 72/72/72 83/83/83 73/73/73
f 83/83/83 84/84/84 73/73/73
f 73/73/73 84/84/84 74/74/74
f 84/84/84 85/85/85 74/74/74
f 74/74/74 85/85/85 75/75/75
f 85/85/85 86/86/86 75/75/75
f 97/97/97 98/98/98 87/87/87
f 98/98/98 99/99/99 88/88/88
f 99/99/99 100/100/100 89/89/89
f 100/100/100 101/101/101 90/90/90
f 101/101/101 102/102/102 91/91/91
f 102/102/102 103/103/103 92/92/92
f 103/103/103 104/104/104 93/93/93
f 104/104/104 105/105/105 94/94/94
f 105/105/105 106/106/106 95/95/95
f 106/106/106 107/107/107 96/96/96
f 119/119/119 118/118/118 108/108/108
f 120/120/120 119/119/119 109/109/109
f 121/121/121 120/120/120 110/110/110
f 122/122/122 121/121/121 111/111/111
f 123/123/123 122/122/122 112/112/112
f 124/124/124 123/123/123 113/113/113
f 125/125/125 124/124/124 114/114/114
f 126/126/126 125/125/125 115/115/115
f 127/127/127 126/126/126 116/116/116
f 128/128/128 127/127/127 117/117/117
o soil
usemtl SURF_Wood_Dark
v 0 0.12699999854713678 0.07000000029802322
v 0.04949747398495674 0.12699999854713678 0.04949747398495674
v 0.07000000029802322 0.12699999854713678 4.286263818611965e-18
v 0.04949747398495674 0.12699999854713678 -0.04949747398495674
v 8.57252763722393e-18 0.12699999854713678 -0.07000000029802322
v -0.04949747398495674 0.12699999854713678 -0.04949747398495674
v -0.07000000029802322 0.12699999854713678 -1.2858791455835895e-17
v -0.04949747398495674 0.12699999854713678 0.04949747398495674
v -1.714505527444786e-17 0.12699999854713678 0.07000000029802322
v 0 0.1169999987706542 0.07000000029802322
v 0.04949747398495674 0.1169999987706542 0.04949747398495674
v 0.07000000029802322 0.1169999987706542 4.286263818611965e-18
v 0.04949747398495674 0.1169999987706542 -0.04949747398495674
v 8.57252763722393e-18 0.1169999987706542 -0.07000000029802322
v -0.04949747398495674 0.1169999987706542 -0.04949747398495674
v -0.07000000029802322 0.1169999987706542 -1.2858791455835895e-17
v -0.04949747398495674 0.1169999987706542 0.04949747398495674
v -1.714505527444786e-17 0.1169999987706542 0.07000000029802322
v 0 0.12699999854713678 0
v 0 0.12699999854713678 0
v 0 0.12699999854713678 0
v 0 0.12699999854713678 0
v 0 0.12699999854713678 0
v 0 0.12699999854713678 0
v 0 0.12699999854713678 0
v 0 0.12699999854713678 0
v 0 0.12699999854713678 0.07000000029802322
v 0.04949747398495674 0.12699999854713678 0.04949747398495674
v 0.07000000029802322 0.12699999854713678 4.286263818611965e-18
v 0.04949747398495674 0.12699999854713678 -0.04949747398495674
v 8.57252763722393e-18 0.12699999854713678 -0.07000000029802322
v -0.04949747398495674 0.12699999854713678 -0.04949747398495674
v -0.07000000029802322 0.12699999854713678 -1.2858791455835895e-17
v -0.04949747398495674 0.12699999854713678 0.04949747398495674
v -1.714505527444786e-17 0.12699999854713678 0.07000000029802322
v 0 0.1169999987706542 0
v 0 0.1169999987706542 0
v 0 0.1169999987706542 0
v 0 0.1169999987706542 0
v 0 0.1169999987706542 0
v 0 0.1169999987706542 0
v 0 0.1169999987706542 0
v 0 0.1169999987706542 0
v 0 0.1169999987706542 0.07000000029802322
v 0.04949747398495674 0.1169999987706542 0.04949747398495674
v 0.07000000029802322 0.1169999987706542 4.286263818611965e-18
v 0.04949747398495674 0.1169999987706542 -0.04949747398495674
v 8.57252763722393e-18 0.1169999987706542 -0.07000000029802322
v -0.04949747398495674 0.1169999987706542 -0.04949747398495674
v -0.07000000029802322 0.1169999987706542 -1.2858791455835895e-17
v -0.04949747398495674 0.1169999987706542 0.04949747398495674
v -1.714505527444786e-17 0.1169999987706542 0.07000000029802322
vt 0 1
vt 0.125 1
vt 0.25 1
vt 0.375 1
vt 0.5 1
vt 0.625 1
vt 0.75 1
vt 0.875 1
vt 1 1
vt 0 0
vt 0.125 0
vt 0.25 0
vt 0.375 0
vt 0.5 0
vt 0.625 0
vt 0.75 0
vt 0.875 0
vt 1 0
vt 0.5 0.5
vt 0.5 0.5
vt 0.5 0.5
vt 0.5 0.5
vt 0.5 0.5
vt 0.5 0.5
vt 0.5 0.5
vt 0.5 0.5
vt 1 0.5
vt 0.8535534143447876 0.8535534143447876
vt 0.5 1
vt 0.1464466154575348 0.8535534143447876
vt 0 0.5
vt 0.1464466154575348 0.1464466154575348
vt 0.5 0
vt 0.8535534143447876 0.1464466154575348
vt 1 0.5
vt 0.5 0.5
vt 0.5 0.5
vt 0.5 0.5
vt 0.5 0.5
vt 0.5 0.5
vt 0.5 0.5
vt 0.5 0.5
vt 0.5 0.5
vt 1 0.5
vt 0.8535534143447876 0.1464466154575348
vt 0.5 0
vt 0.1464466154575348 0.1464466154575348
vt 0 0.5
vt 0.1464466154575348 0.8535534143447876
vt 0.5 1
vt 0.8535534143447876 0.8535534143447876
vt 1 0.5
vn 0 0 1
vn 0.7071067811865476 0 0.7071067811865476
vn 1 0 6.123234262925839e-17
vn 0.7071067811865476 0 -0.7071067811865476
vn 1.2246468525851679e-16 0 -1
vn -0.7071067811865476 0 -0.7071067811865476
vn -1 0 -1.8369701465288538e-16
vn -0.7071067811865476 0 0.7071067811865476
vn -2.4492937051703357e-16 0 1
vn 0 0 1
vn 0.7071067811865476 0 0.7071067811865476
vn 1 0 6.123234262925839e-17
vn 0.7071067811865476 0 -0.7071067811865476
vn 1.2246468525851679e-16 0 -1
vn -0.7071067811865476 0 -0.7071067811865476
vn -1 0 -1.8369701465288538e-16
vn -0.7071067811865476 0 0.7071067811865476
vn -2.4492937051703357e-16 0 1
vn 0 1 0
vn 0 1 0
vn 0 1 0
vn 0 1 0
vn 0 1 0
vn 0 1 0
vn 0 1 0
vn 0 1 0
vn 0 1 0
vn 0 1 0
vn 0 1 0
vn 0 1 0
vn 0 1 0
vn 0 1 0
vn 0 1 0
vn 0 1 0
vn 0 1 0
vn 0 -1 0
vn 0 -1 0
vn 0 -1 0
vn 0 -1 0
vn 0 -1 0
vn 0 -1 0
vn 0 -1 0
vn 0 -1 0
vn 0 -1 0
vn 0 -1 0
vn 0 -1 0
vn 0 -1 0
vn 0 -1 0
vn 0 -1 0
vn 0 -1 0
vn 0 -1 0
vn 0 -1 0
f 129/129/129 138/138/138 130/130/130
f 138/138/138 139/139/139 130/130/130
f 130/130/130 139/139/139 131/131/131
f 139/139/139 140/140/140 131/131/131
f 131/131/131 140/140/140 132/132/132
f 140/140/140 141/141/141 132/132/132
f 132/132/132 141/141/141 133/133/133
f 141/141/141 142/142/142 133/133/133
f 133/133/133 142/142/142 134/134/134
f 142/142/142 143/143/143 134/134/134
f 134/134/134 143/143/143 135/135/135
f 143/143/143 144/144/144 135/135/135
f 135/135/135 144/144/144 136/136/136
f 144/144/144 145/145/145 136/136/136
f 136/136/136 145/145/145 137/137/137
f 145/145/145 146/146/146 137/137/137
f 155/155/155 156/156/156 147/147/147
f 156/156/156 157/157/157 148/148/148
f 157/157/157 158/158/158 149/149/149
f 158/158/158 159/159/159 150/150/150
f 159/159/159 160/160/160 151/151/151
f 160/160/160 161/161/161 152/152/152
f 161/161/161 162/162/162 153/153/153
f 162/162/162 163/163/163 154/154/154
f 173/173/173 172/172/172 164/164/164
f 174/174/174 173/173/173 165/165/165
f 175/175/175 174/174/174 166/166/166
f 176/176/176 175/175/175 167/167/167
f 177/177/177 176/176/176 168/168/168
f 178/178/178 177/177/177 169/169/169
f 179/179/179 178/178/178 170/170/170
f 180/180/180 179/179/179 171/171/171
o leaf_a
usemtl SURF_Foliage_Plant
v -0.03408825132675414 0.2793821180812287 0.055000001788139345
v -0.03408825132675414 0.2793821180812287 -0.03500000178813934
v 0.013194980682197568 0.12652828323768128 0.055000001788139345
v 0.013194980682197568 0.12652828323768128 -0.03500000178813934
v -0.053194980682197565 0.27347171408010973 -0.03500000178813934
v -0.053194980682197565 0.27347171408010973 0.055000001788139345
v -0.00591174867324586 0.12061787923656231 -0.03500000178813934
v -0.00591174867324586 0.12061787923656231 0.055000001788139345
v -0.053194980682197565 0.27347171408010973 -0.03500000178813934
v -0.03408825132675414 0.2793821180812287 -0.03500000178813934
v -0.053194980682197565 0.27347171408010973 0.055000001788139345
v -0.03408825132675414 0.2793821180812287 0.055000001788139345
v -0.00591174867324586 0.12061787923656231 0.055000001788139345
v 0.013194980682197568 0.12652828323768128 0.055000001788139345
v -0.00591174867324586 0.12061787923656231 -0.03500000178813934
v 0.013194980682197568 0.12652828323768128 -0.03500000178813934
v -0.053194980682197565 0.27347171408010973 0.055000001788139345
v -0.03408825132675414 0.2793821180812287 0.055000001788139345
v -0.00591174867324586 0.12061787923656231 0.055000001788139345
v 0.013194980682197568 0.12652828323768128 0.055000001788139345
v -0.03408825132675414 0.2793821180812287 -0.03500000178813934
v -0.053194980682197565 0.27347171408010973 -0.03500000178813934
v 0.013194980682197568 0.12652828323768128 -0.03500000178813934
v -0.00591174867324586 0.12061787923656231 -0.03500000178813934
vt 0 1
vt 1 1
vt 0 0
vt 1 0
vt 0 1
vt 1 1
vt 0 0
vt 1 0
vt 0 1
vt 1 1
vt 0 0
vt 1 0
vt 0 1
vt 1 1
vt 0 0
vt 1 0
vt 0 1
vt 1 1
vt 0 0
vt 1 0
vt 0 1
vt 1 1
vt 0 0
vt 1 0
vn 0.955336489125606 0.29552020666133955 0
vn 0.955336489125606 0.29552020666133955 0
vn 0.955336489125606 0.29552020666133955 0
vn 0.955336489125606 0.29552020666133955 0
vn -0.955336489125606 -0.29552020666133955 0
vn -0.955336489125606 -0.29552020666133955 0
vn -0.955336489125606 -0.29552020666133955 0
vn -0.955336489125606 -0.29552020666133955 0
vn -0.29552020666133955 0.955336489125606 0
vn -0.29552020666133955 0.955336489125606 0
vn -0.29552020666133955 0.955336489125606 0
vn -0.29552020666133955 0.955336489125606 0
vn 0.29552020666133955 -0.955336489125606 0
vn 0.29552020666133955 -0.955336489125606 0
vn 0.29552020666133955 -0.955336489125606 0
vn 0.29552020666133955 -0.955336489125606 0
vn 0 0 1
vn 0 0 1
vn 0 0 1
vn 0 0 1
vn 0 0 -1
vn 0 0 -1
vn 0 0 -1
vn 0 0 -1
f 181/181/181 183/183/183 182/182/182
f 183/183/183 184/184/184 182/182/182
f 185/185/185 187/187/187 186/186/186
f 187/187/187 188/188/188 186/186/186
f 189/189/189 191/191/191 190/190/190
f 191/191/191 192/192/192 190/190/190
f 193/193/193 195/195/195 194/194/194
f 195/195/195 196/196/196 194/194/194
f 197/197/197 199/199/199 198/198/198
f 199/199/199 200/200/200 198/198/198
f 201/201/201 203/203/203 202/202/202
f 203/203/203 204/204/204 202/202/202
o leaf_b
usemtl SURF_Foliage_Plant
v 0.06339657354258073 0.25232711084025605 0.019999999105930328
v 0.06339657354258073 0.25232711084025605 -0.05999999910593033
v 0.015390880294434521 0.12081493048171321 0.019999999105930328
v 0.015390880294434521 0.12081493048171321 -0.05999999910593033
v 0.04460911970556548 0.2591850668360778 -0.05999999910593033
v 0.04460911970556548 0.2591850668360778 0.019999999105930328
v -0.0033965735425807303 0.12767288647753497 -0.05999999910593033
v -0.0033965735425807303 0.12767288647753497 0.019999999105930328
v 0.04460911970556548 0.2591850668360778 -0.05999999910593033
v 0.06339657354258073 0.25232711084025605 -0.05999999910593033
v 0.04460911970556548 0.2591850668360778 0.019999999105930328
v 0.06339657354258073 0.25232711084025605 0.019999999105930328
v -0.0033965735425807303 0.12767288647753497 0.019999999105930328
v 0.015390880294434521 0.12081493048171321 0.019999999105930328
v -0.0033965735425807303 0.12767288647753497 -0.05999999910593033
v 0.015390880294434521 0.12081493048171321 -0.05999999910593033
v 0.04460911970556548 0.2591850668360778 0.019999999105930328
v 0.06339657354258073 0.25232711084025605 0.019999999105930328
v -0.0033965735425807303 0.12767288647753497 0.019999999105930328
v 0.015390880294434521 0.12081493048171321 0.019999999105930328
v 0.06339657354258073 0.25232711084025605 -0.05999999910593033
v 0.04460911970556548 0.2591850668360778 -0.05999999910593033
v 0.015390880294434521 0.12081493048171321 -0.05999999910593033
v -0.0033965735425807303 0.12767288647753497 -0.05999999910593033
vt 0 1
vt 1 1
vt 0 0
vt 1 0
vt 0 1
vt 1 1
vt 0 0
vt 1 0
vt 0 1
vt 1 1
vt 0 0
vt 1 0
vt 0 1
vt 1 1
vt 0 0
vt 1 0
vt 0 1
vt 1 1
vt 0 0
vt 1 0
vt 0 1
vt 1 1
vt 0 0
vt 1 0
vn 0.9393727128473789 -0.34289780745545134 0
vn 0.9393727128473789 -0.34289780745545134 0
vn 0.9393727128473789 -0.34289780745545134 0
vn 0.9393727128473789 -0.34289780745545134 0
vn -0.9393727128473789 0.34289780745545134 0
vn -0.9393727128473789 0.34289780745545134 0
vn -0.9393727128473789 0.34289780745545134 0
vn -0.9393727128473789 0.34289780745545134 0
vn 0.34289780745545134 0.9393727128473789 0
vn 0.34289780745545134 0.9393727128473789 0
vn 0.34289780745545134 0.9393727128473789 0
vn 0.34289780745545134 0.9393727128473789 0
vn -0.34289780745545134 -0.9393727128473789 0
vn -0.34289780745545134 -0.9393727128473789 0
vn -0.34289780745545134 -0.9393727128473789 0
vn -0.34289780745545134 -0.9393727128473789 0
vn 0 0 1
vn 0 0 1
vn 0 0 1
vn 0 0 1
vn 0 0 -1
vn 0 0 -1
vn 0 0 -1
vn 0 0 -1
f 205/205/205 207/207/207 206/206/206
f 207/207/207 208/208/208 206/206/206
f 209/209/209 211/211/211 210/210/210
f 211/211/211 212/212/212 210/210/210
f 213/213/213 215/215/215 214/214/214
f 215/215/215 216/216/216 214/214/214
f 217/217/217 219/219/219 218/218/218
f 219/219/219 220/220/220 218/218/218
f 221/221/221 223/223/223 222/222/222
f 223/223/223 224/224/224 222/222/222
f 225/225/225 227/227/227 226/226/226
f 227/227/227 228/228/228 226/226/226
o leaf_c
usemtl SURF_Foliage_Plant
v 0.017736840488041136 0.23572356159680632 0.07050063927501166
v -0.009522443589620112 0.23572356159680632 0.006026369420312143
v 0.027851633690090565 0.1262731040092922 0.0662241733002463
v 0.000592349612429318 0.1262731040092922 0.001749903445546784
v -0.027851633690090565 0.23372689330849877 0.013775826699753697
v -0.000592349612429318 0.23372689330849877 0.07825009655445322
v -0.017736840488041136 0.12427643572098465 0.009499360724988342
v 0.009522443589620112 0.12427643572098465 0.07397363057968787
v -0.027851633690090565 0.23372689330849877 0.013775826699753697
v -0.009522443589620112 0.23572356159680632 0.006026369420312143
v -0.000592349612429318 0.23372689330849877 0.07825009655445322
v 0.017736840488041136 0.23572356159680632 0.07050063927501166
v 0.009522443589620112 0.12427643572098465 0.07397363057968787
v 0.027851633690090565 0.1262731040092922 0.0662241733002463
v -0.017736840488041136 0.12427643572098465 0.009499360724988342
v 0.000592349612429318 0.1262731040092922 0.001749903445546784
v -0.000592349612429318 0.23372689330849877 0.07825009655445322
v 0.017736840488041136 0.23572356159680632 0.07050063927501166
v 0.009522443589620112 0.12427643572098465 0.07397363057968787
v 0.027851633690090565 0.1262731040092922 0.0662241733002463
v -0.009522443589620112 0.23572356159680632 0.006026369420312143
v -0.027851633690090565 0.23372689330849877 0.013775826699753697
v 0.000592349612429318 0.1262731040092922 0.001749903445546784
v -0.017736840488041136 0.12427643572098465 0.009499360724988342
vt 0 1
vt 1 1
vt 0 0
vt 1 0
vt 0 1
vt 1 1
vt 0 0
vt 1 0
vt 0 1
vt 1 1
vt 0 0
vt 1 0
vt 0 1
vt 1 1
vt 0 0
vt 1 0
vt 0 1
vt 1 1
vt 0 0
vt 1 0
vt 0 1
vt 1 1
vt 0 0
vt 1 0
vn 0.9164595255079895 0.09983341664682815 -0.38747287263277136
vn 0.9164595255079895 0.09983341664682815 -0.38747287263277136
vn 0.9164595255079895 0.09983341664682815 -0.38747287263277136
vn 0.9164595255079895 0.09983341664682815 -0.38747287263277136
vn -0.9164595255079895 -0.09983341664682815 0.38747287263277136
vn -0.9164595255079895 -0.09983341664682815 0.38747287263277136
vn -0.9164595255079895 -0.09983341664682815 0.38747287263277136
vn -0.9164595255079895 -0.09983341664682815 0.38747287263277136
vn -0.09195266597143173 0.9950041652780258 0.03887696361761666
vn -0.09195266597143173 0.9950041652780258 0.03887696361761666
vn -0.09195266597143173 0.9950041652780258 0.03887696361761666
vn -0.09195266597143173 0.9950041652780258 0.03887696361761666
vn 0.09195266597143173 -0.9950041652780258 -0.03887696361761666
vn 0.09195266597143173 -0.9950041652780258 -0.03887696361761666
vn 0.09195266597143173 -0.9950041652780258 -0.03887696361761666
vn 0.09195266597143173 -0.9950041652780258 -0.03887696361761666
vn 0.3894183423086506 6.938893903907228e-18 0.9210609940028851
vn 0.3894183423086506 6.938893903907228e-18 0.9210609940028851
vn 0.3894183423086506 6.938893903907228e-18 0.9210609940028851
vn 0.3894183423086506 6.938893903907228e-18 0.9210609940028851
vn -0.3894183423086506 -6.938893903907228e-18 -0.9210609940028851
vn -0.3894183423086506 -6.938893903907228e-18 -0.9210609940028851
vn -0.3894183423086506 -6.938893903907228e-18 -0.9210609940028851
vn -0.3894183423086506 -6.938893903907228e-18 -0.9210609940028851
f 229/229/229 231/231/231 230/230/230
f 231/231/231 232/232/232 230/230/230
f 233/233/233 235/235/235 234/234/234
f 235/235/235 236/236/236 234/234/234
f 237/237/237 239/239/239 238/238/238
f 239/239/239 240/240/240 238/238/238
f 241/241/241 243/243/243 242/242/242
f 243/243/243 244/244/244 242/242/242
f 245/245/245 247/247/247 246/246/246
f 247/247/247 248/248/248 246/246/246
f 249/249/249 251/251/251 250/250/250
f 251/251/251 252/252/252 250/250/250
