# PRP_P0_Clock_Analog_A — Analog clock
# SC_P0_BEDROOM · group B
# bounds 0.24 × 0.06 × 0.24 m · 120 tris · UV island 16 × 16 px
# 1 unit = 1 m · pivot at floor contact, X/Z centred
mtllib PRP_P0_Clock_Analog_A.mtl
o case_body
usemtl SURF_Wood_Dark
v 0 0 0.02000000051129609
v 0.05999999865889549 0.0160769522190094 0.020000000511296093
v 0.10392304509878159 0.0599999986588955 0.020000000511296103
v 0.11999999731779099 0.119999997317791 0.020000000511296117
v 0.10392304509878159 0.1799999959766865 0.02000000051129613
v 0.05999999865889549 0.22392304241657263 0.02000000051129614
v 1.469576190014977e-17 0.23999999463558203 0.020000000511296145
v -0.05999999865889549 0.22392304241657263 0.02000000051129614
v -0.10392304509878159 0.1799999959766865 0.02000000051129613
v -0.11999999731779099 0.11999999731779103 0.020000000511296117
v -0.10392304509878159 0.0599999986588955 0.020000000511296103
v -0.05999999865889549 0.0160769522190094 0.020000000511296093
v -2.939152380029954e-17 0 0.02000000051129609
v 0 0 -0.030000000233761984
v 0.05999999865889549 0.0160769522190094 -0.03000000023376198
v 0.10392304509878159 0.05999999865889551 -0.03000000023376197
v 0.11999999731779099 0.11999999731779101 -0.030000000233761957
v 0.10392304509878159 0.17999999597668653 -0.030000000233761943
v 0.05999999865889549 0.22392304241657263 -0.030000000233761932
v 1.469576190014977e-17 0.23999999463558203 -0.03000000023376193
v -0.05999999865889549 0.22392304241657263 -0.030000000233761932
v -0.10392304509878159 0.17999999597668653 -0.030000000233761943
v -0.11999999731779099 0.11999999731779104 -0.030000000233761957
v -0.10392304509878159 0.05999999865889551 -0.03000000023376197
v -0.05999999865889549 0.0160769522190094 -0.03000000023376198
v -2.939152380029954e-17 0 -0.030000000233761984
v 0 0.11999999731779101 0.020000000511296117
v 0 0.11999999731779101 0.020000000511296117
v 0 0.11999999731779101 0.020000000511296117
v 0 0.11999999731779101 0.020000000511296117
v 0 0.11999999731779101 0.020000000511296117
v 0 0.11999999731779101 0.020000000511296117
v 0 0.11999999731779101 0.020000000511296117
v 0 0.11999999731779101 0.020000000511296117
v 0 0.11999999731779101 0.020000000511296117
v 0 0.11999999731779101 0.020000000511296117
v 0 0.11999999731779101 0.020000000511296117
v 0 0.11999999731779101 0.020000000511296117
v 0 0 0.02000000051129609
v 0.05999999865889549 0.0160769522190094 0.020000000511296093
v 0.10392304509878159 0.0599999986588955 0.020000000511296103
v 0.11999999731779099 0.119999997317791 0.020000000511296117
v 0.10392304509878159 0.1799999959766865 0.02000000051129613
v 0.05999999865889549 0.22392304241657263 0.02000000051129614
v 1.469576190014977e-17 0.23999999463558203 0.020000000511296145
v -0.05999999865889549 0.22392304241657263 0.02000000051129614
v -0.10392304509878159 0.1799999959766865 0.02000000051129613
v -0.11999999731779099 0.11999999731779103 0.020000000511296117
v -0.10392304509878159 0.0599999986588955 0.020000000511296103
v -0.05999999865889549 0.0160769522190094 0.020000000511296093
v -2.939152380029954e-17 0 0.02000000051129609
v 0 0.11999999731779101 -0.030000000233761957
v 0 0.11999999731779101 -0.030000000233761957
v 0 0.11999999731779101 -0.030000000233761957
v 0 0.11999999731779101 -0.030000000233761957
v 0 0.11999999731779101 -0.030000000233761957
v 0 0.11999999731779101 -0.030000000233761957
v 0 0.11999999731779101 -0.030000000233761957
v 0 0.11999999731779101 -0.030000000233761957
v 0 0.11999999731779101 -0.030000000233761957
v 0 0.11999999731779101 -0.030000000233761957
v 0 0.11999999731779101 -0.030000000233761957
v 0 0.11999999731779101 -0.030000000233761957
v 0 0 -0.030000000233761984
v 0.05999999865889549 0.0160769522190094 -0.03000000023376198
v 0.10392304509878159 0.05999999865889551 -0.03000000023376197
v 0.11999999731779099 0.11999999731779101 -0.030000000233761957
v 0.10392304509878159 0.17999999597668653 -0.030000000233761943
v 0.05999999865889549 0.22392304241657263 -0.030000000233761932
v 1.469576190014977e-17 0.23999999463558203 -0.03000000023376193
v -0.05999999865889549 0.22392304241657263 -0.030000000233761932
v -0.10392304509878159 0.17999999597668653 -0.030000000233761943
v -0.11999999731779099 0.11999999731779104 -0.030000000233761957
v -0.10392304509878159 0.05999999865889551 -0.03000000023376197
v -0.05999999865889549 0.0160769522190094 -0.03000000023376198
v -2.939152380029954e-17 0 -0.030000000233761984
vt 0 1
vt 0.0833333358168602 1
vt 0.1666666716337204 1
vt 0.25 1
vt 0.3333333432674408 1
vt 0.4166666567325592 1
vt 0.5 1
vt 0.5833333134651184 1
vt 0.6666666865348816 1
vt 0.75 1
vt 0.8333333134651184 1
vt 0.9166666865348816 1
vt 1 1
vt 0 0
vt 0.0833333358168602 0
vt 0.1666666716337204 0
vt 0.25 0
vt 0.3333333432674408 0
vt 0.4166666567325592 0
vt 0.5 0
vt 0.5833333134651184 0
vt 0.6666666865348816 0
vt 0.75 0
vt 0.8333333134651184 0
vt 0.9166666865348816 0
vt 1 0
vt 0.5 0.5
vt 0.5 0.5
vt 0.5 0.5
vt 0.5 0.5
vt 0.5 0.5
vt 0.5 0.5
vt 0.5 0.5
vt 0.5 0.5
vt 0.5 0.5
vt 0.5 0.5
vt 0.5 0.5
vt 0.5 0.5
vt 1 0.5
vt 0.9330127239227295 0.75
vt 0.75 0.9330127239227295
vt 0.5 1
vt 0.25 0.9330127239227295
vt 0.0669872984290123 0.75
vt 0 0.5
vt 0.0669872984290123 0.25
vt 0.25 0.0669872984290123
vt 0.5 0
vt 0.75 0.0669872984290123
vt 0.9330127239227295 0.25
vt 1 0.5
vt 0.5 0.5
vt 0.5 0.5
vt 0.5 0.5
vt 0.5 0.5
vt 0.5 0.5
vt 0.5 0.5
vt 0.5 0.5
vt 0.5 0.5
vt 0.5 0.5
vt 0.5 0.5
vt 0.5 0.5
vt 0.5 0.5
vt 1 0.5
vt 0.9330127239227295 0.25
vt 0.75 0.0669872984290123
vt 0.5 0
vt 0.25 0.0669872984290123
vt 0.0669872984290123 0.25
vt 0 0.5
vt 0.0669872984290123 0.75
vt 0.25 0.9330127239227295
vt 0.5 1
vt 0.75 0.9330127239227295
vt 0.9330127239227295 0.75
vt 1 0.5
vn 0 -1 -2.2204460492503126e-16
vn 0.500000006730587 -0.8660253998985323 -1.9229626777551184e-16
vn 0.8660253998985324 -0.5000000067305868 -1.110223039570061e-16
vn 1 -6.123234262925838e-17 -1.3596311327747827e-32
vn 0.8660253998985324 0.5000000067305868 1.110223039570061e-16
vn 0.500000006730587 0.8660253998985323 1.9229626777551184e-16
vn 1.224646852585168e-16 1 2.2204460492503126e-16
vn -0.500000006730587 0.8660253998985323 1.9229626777551184e-16
vn -0.8660253998985324 0.5000000067305868 1.110223039570061e-16
vn -1 1.8369701465288533e-16 4.0788931044507604e-32
vn -0.8660253998985324 -0.5000000067305868 -1.110223039570061e-16
vn -0.500000006730587 -0.8660253998985323 -1.9229626777551184e-16
vn -2.449293705170336e-16 -1 -2.2204460492503126e-16
vn 0 -1 -2.2204460492503126e-16
vn 0.500000006730587 -0.8660253998985323 -1.9229626777551184e-16
vn 0.8660253998985324 -0.5000000067305868 -1.110223039570061e-16
vn 1 -6.123234262925838e-17 -1.3596311327747827e-32
vn 0.8660253998985324 0.5000000067305868 1.110223039570061e-16
vn 0.500000006730587 0.8660253998985323 1.9229626777551184e-16
vn 1.224646852585168e-16 1 2.2204460492503126e-16
vn -0.500000006730587 0.8660253998985323 1.9229626777551184e-16
vn -0.8660253998985324 0.5000000067305868 1.110223039570061e-16
vn -1 1.8369701465288533e-16 4.0788931044507604e-32
vn -0.8660253998985324 -0.5000000067305868 -1.110223039570061e-16
vn -0.500000006730587 -0.8660253998985323 -1.9229626777551184e-16
vn -2.449293705170336e-16 -1 -2.2204460492503126e-16
vn 0 -2.2204460492503126e-16 1
vn 0 -2.2204460492503126e-16 1
vn 0 -2.2204460492503126e-16 1
vn 0 -2.2204460492503126e-16 1
vn 0 -2.2204460492503126e-16 1
vn 0 -2.2204460492503126e-16 1
vn 0 -2.2204460492503126e-16 1
vn 0 -2.2204460492503126e-16 1
vn 0 -2.2204460492503126e-16 1
vn 0 -2.2204460492503126e-16 1
vn 0 -2.2204460492503126e-16 1
vn 0 -2.2204460492503126e-16 1
vn 0 -2.2204460492503126e-16 1
vn 0 -2.2204460492503126e-16 1
vn 0 -2.2204460492503126e-16 1
vn 0 -2.2204460492503126e-16 1
vn 0 -2.2204460492503126e-16 1
vn 0 -2.2204460492503126e-16 1
vn 0 -2.2204460492503126e-16 1
vn 0 -2.2204460492503126e-16 1
vn 0 -2.2204460492503126e-16 1
vn 0 -2.2204460492503126e-16 1
vn 0 -2.2204460492503126e-16 1
vn 0 -2.2204460492503126e-16 1
vn 0 -2.2204460492503126e-16 1
vn 0 2.2204460492503126e-16 -1
vn 0 2.2204460492503126e-16 -1
vn 0 2.2204460492503126e-16 -1
vn 0 2.2204460492503126e-16 -1
vn 0 2.2204460492503126e-16 -1
vn 0 2.2204460492503126e-16 -1
vn 0 2.2204460492503126e-16 -1
vn 0 2.2204460492503126e-16 -1
vn 0 2.2204460492503126e-16 -1
vn 0 2.2204460492503126e-16 -1
vn 0 2.2204460492503126e-16 -1
vn 0 2.2204460492503126e-16 -1
vn 0 2.2204460492503126e-16 -1
vn 0 2.2204460492503126e-16 -1
vn 0 2.2204460492503126e-16 -1
vn 0 2.2204460492503126e-16 -1
vn 0 2.2204460492503126e-16 -1
vn 0 2.2204460492503126e-16 -1
vn 0 2.2204460492503126e-16 -1
vn 0 2.2204460492503126e-16 -1
vn 0 2.2204460492503126e-16 -1
vn 0 2.2204460492503126e-16 -1
vn 0 2.2204460492503126e-16 -1
vn 0 2.2204460492503126e-16 -1
vn 0 2.2204460492503126e-16 -1
f 1/1/1 14/14/14 2/2/2
f 14/14/14 15/15/15 2/2/2
f 2/2/2 15/15/15 3/3/3
f 15/15/15 16/16/16 3/3/3
f 3/3/3 16/16/16 4/4/4
f 16/16/16 17/17/17 4/4/4
f 4/4/4 17/17/17 5/5/5
f 17/17/17 18/18/18 5/5/5
f 5/5/5 18/18/18 6/6/6
f 18/18/18 19/19/19 6/6/6
f 6/6/6 19/19/19 7/7/7
f 19/19/19 20/20/20 7/7/7
f 7/7/7 20/20/20 8/8/8
f 20/20/20 21/21/21 8/8/8
f 8/8/8 21/21/21 9/9/9
f 21/21/21 22/22/22 9/9/9
f 9/9/9 22/22/22 10/10/10
f 22/22/22 23/23/23 10/10/10
f 10/10/10 23/23/23 11/11/11
f 23/23/23 24/24/24 11/11/11
f 11/11/11 24/24/24 12/12/12
f 24/24/24 25/25/25 12/12/12
f 12/12/12 25/25/25 13/13/13
f 25/25/25 26/26/26 13/13/13
f 39/39/39 40/40/40 27/27/27
f 40/40/40 41/41/41 28/28/28
f 41/41/41 42/42/42 29/29/29
f 42/42/42 43/43/43 30/30/30
f 43/43/43 44/44/44 31/31/31
f 44/44/44 45/45/45 32/32/32
f 45/45/45 46/46/46 33/33/33
f 46/46/46 47/47/47 34/34/34
f 47/47/47 48/48/48 35/35/35
f 48/48/48 49/49/49 36/36/36
f 49/49/49 50/50/50 37/37/37
f 50/50/50 51/51/51 38/38/38
f 65/65/65 64/64/64 52/52/52
f 66/66/66 65/65/65 53/53/53
f 67/67/67 66/66/66 54/54/54
f 68/68/68 67/67/67 55/55/55
f 69/69/69 68/68/68 56/56/56
f 70/70/70 69/69/69 57/57/57
f 71/71/71 70/70/70 58/58/58
f 72/72/72 71/71/71 59/59/59
f 73/73/73 72/72/72 60/60/60
f 74/74/74 73/73/73 61/61/61
f 75/75/75 74/74/74 62/62/62
f 76/76/76 75/75/75 63/63/63
o face
usemtl SURF_Paper_Notebook
v 0 0.015000000596046448 0.025000000328756863
v 0.05249999836087227 0.029067330062389388 0.025000000328756863
v 0.09093266725540161 0.06749999895691873 0.025000000328756874
v 0.10499999672174454 0.119999997317791 0.025000000328756884
v 0.09093266725540161 0.1724999956786633 0.025000000328756898
v 0.05249999836087227 0.21093266457319265 0.025000000328756905
v 1.2858791455835895e-17 0.22499999403953558 0.02500000032875691
v -0.05249999836087227 0.21093266457319265 0.025000000328756905
v -0.09093266725540161 0.1724999956786633 0.025000000328756898
v -0.10499999672174454 0.11999999731779103 0.025000000328756884
v -0.09093266725540161 0.06749999895691873 0.025000000328756874
v -0.05249999836087227 0.029067330062389388 0.025000000328756863
v -2.571758291167179e-17 0.015000000596046448 0.025000000328756863
v 0 0.015000000596046448 0.01699999994877725
v 0.05249999836087227 0.029067330062389388 0.016999999948777253
v 0.09093266725540161 0.06749999895691873 0.01699999994877726
v 0.10499999672174454 0.11999999731779101 0.016999999948777274
v 0.09093266725540161 0.1724999956786633 0.016999999948777284
v 0.05249999836087227 0.21093266457319265 0.016999999948777295
v 1.2858791455835895e-17 0.22499999403953558 0.016999999948777295
v -0.05249999836087227 0.21093266457319265 0.016999999948777295
v -0.09093266725540161 0.1724999956786633 0.016999999948777284
v -0.10499999672174454 0.11999999731779103 0.016999999948777274
v -0.09093266725540161 0.06749999895691873 0.01699999994877726
v -0.05249999836087227 0.029067330062389388 0.016999999948777253
v -2.571758291167179e-17 0.015000000596046448 0.01699999994877725
v 0 0.11999999731779101 0.025000000328756884
v 0 0.11999999731779101 0.025000000328756884
v 0 0.11999999731779101 0.025000000328756884
v 0 0.11999999731779101 0.025000000328756884
v 0 0.11999999731779101 0.025000000328756884
v 0 0.11999999731779101 0.025000000328756884
v 0 0.11999999731779101 0.025000000328756884
v 0 0.11999999731779101 0.025000000328756884
v 0 0.11999999731779101 0.025000000328756884
v 0 0.11999999731779101 0.025000000328756884
v 0 0.11999999731779101 0.025000000328756884
v 0 0.11999999731779101 0.025000000328756884
v 0 0.015000000596046448 0.025000000328756863
v 0.05249999836087227 0.029067330062389388 0.025000000328756863
v 0.09093266725540161 0.06749999895691873 0.025000000328756874
v 0.10499999672174454 0.119999997317791 0.025000000328756884
v 0.09093266725540161 0.1724999956786633 0.025000000328756898
v 0.05249999836087227 0.21093266457319265 0.025000000328756905
v 1.2858791455835895e-17 0.22499999403953558 0.02500000032875691
v -0.05249999836087227 0.21093266457319265 0.025000000328756905
v -0.09093266725540161 0.1724999956786633 0.025000000328756898
v -0.10499999672174454 0.11999999731779103 0.025000000328756884
v -0.09093266725540161 0.06749999895691873 0.025000000328756874
v -0.05249999836087227 0.029067330062389388 0.025000000328756863
v -2.571758291167179e-17 0.015000000596046448 0.025000000328756863
v 0 0.11999999731779101 0.016999999948777274
v 0 0.11999999731779101 0.016999999948777274
v 0 0.11999999731779101 0.016999999948777274
v 0 0.11999999731779101 0.016999999948777274
v 0 0.11999999731779101 0.016999999948777274
v 0 0.11999999731779101 0.016999999948777274
v 0 0.11999999731779101 0.016999999948777274
v 0 0.11999999731779101 0.016999999948777274
v 0 0.11999999731779101 0.016999999948777274
v 0 0.11999999731779101 0.016999999948777274
v 0 0.11999999731779101 0.016999999948777274
v 0 0.11999999731779101 0.016999999948777274
v 0 0.015000000596046448 0.01699999994877725
v 0.05249999836087227 0.029067330062389388 0.016999999948777253
v 0.09093266725540161 0.06749999895691873 0.01699999994877726
v 0.10499999672174454 0.11999999731779101 0.016999999948777274
v 0.09093266725540161 0.1724999956786633 0.016999999948777284
v 0.05249999836087227 0.21093266457319265 0.016999999948777295
v 1.2858791455835895e-17 0.22499999403953558 0.016999999948777295
v -0.05249999836087227 0.21093266457319265 0.016999999948777295
v -0.09093266725540161 0.1724999956786633 0.016999999948777284
v -0.10499999672174454 0.11999999731779103 0.016999999948777274
v -0.09093266725540161 0.06749999895691873 0.01699999994877726
v -0.05249999836087227 0.029067330062389388 0.016999999948777253
v -2.571758291167179e-17 0.015000000596046448 0.01699999994877725
vt 0 1
vt 0.0833333358168602 1
vt 0.1666666716337204 1
vt 0.25 1
vt 0.3333333432674408 1
vt 0.4166666567325592 1
vt 0.5 1
vt 0.5833333134651184 1
vt 0.6666666865348816 1
vt 0.75 1
vt 0.8333333134651184 1
vt 0.9166666865348816 1
vt 1 1
vt 0 0
vt 0.0833333358168602 0
vt 0.1666666716337204 0
vt 0.25 0
vt 0.3333333432674408 0
vt 0.4166666567325592 0
vt 0.5 0
vt 0.5833333134651184 0
vt 0.6666666865348816 0
vt 0.75 0
vt 0.8333333134651184 0
vt 0.9166666865348816 0
vt 1 0
vt 0.5 0.5
vt 0.5 0.5
vt 0.5 0.5
vt 0.5 0.5
vt 0.5 0.5
vt 0.5 0.5
vt 0.5 0.5
vt 0.5 0.5
vt 0.5 0.5
vt 0.5 0.5
vt 0.5 0.5
vt 0.5 0.5
vt 1 0.5
vt 0.9330127239227295 0.75
vt 0.75 0.9330127239227295
vt 0.5 1
vt 0.25 0.9330127239227295
vt 0.0669872984290123 0.75
vt 0 0.5
vt 0.0669872984290123 0.25
vt 0.25 0.0669872984290123
vt 0.5 0
vt 0.75 0.0669872984290123
vt 0.9330127239227295 0.25
vt 1 0.5
vt 0.5 0.5
vt 0.5 0.5
vt 0.5 0.5
vt 0.5 0.5
vt 0.5 0.5
vt 0.5 0.5
vt 0.5 0.5
vt 0.5 0.5
vt 0.5 0.5
vt 0.5 0.5
vt 0.5 0.5
vt 0.5 0.5
vt 1 0.5
vt 0.9330127239227295 0.25
vt 0.75 0.0669872984290123
vt 0.5 0
vt 0.25 0.0669872984290123
vt 0.0669872984290123 0.25
vt 0 0.5
vt 0.0669872984290123 0.75
vt 0.25 0.9330127239227295
vt 0.5 1
vt 0.75 0.9330127239227295
vt 0.9330127239227295 0.75
vt 1 0.5
vn 0 -1 -2.2204460492503126e-16
vn 0.500000006730587 -0.8660253998985323 -1.9229626777551184e-16
vn 0.8660253998985324 -0.5000000067305868 -1.110223039570061e-16
vn 1 -6.123234262925838e-17 -1.3596311327747827e-32
vn 0.8660253998985324 0.5000000067305868 1.110223039570061e-16
vn 0.500000006730587 0.8660253998985323 1.9229626777551184e-16
vn 1.224646852585168e-16 1 2.2204460492503126e-16
vn -0.500000006730587 0.8660253998985323 1.9229626777551184e-16
vn -0.8660253998985324 0.5000000067305868 1.110223039570061e-16
vn -1 1.8369701465288533e-16 4.0788931044507604e-32
vn -0.8660253998985324 -0.5000000067305868 -1.110223039570061e-16
vn -0.500000006730587 -0.8660253998985323 -1.9229626777551184e-16
vn -2.449293705170336e-16 -1 -2.2204460492503126e-16
vn 0 -1 -2.2204460492503126e-16
vn 0.500000006730587 -0.8660253998985323 -1.9229626777551184e-16
vn 0.8660253998985324 -0.5000000067305868 -1.110223039570061e-16
vn 1 -6.123234262925838e-17 -1.3596311327747827e-32
vn 0.8660253998985324 0.5000000067305868 1.110223039570061e-16
vn 0.500000006730587 0.8660253998985323 1.9229626777551184e-16
vn 1.224646852585168e-16 1 2.2204460492503126e-16
vn -0.500000006730587 0.8660253998985323 1.9229626777551184e-16
vn -0.8660253998985324 0.5000000067305868 1.110223039570061e-16
vn -1 1.8369701465288533e-16 4.0788931044507604e-32
vn -0.8660253998985324 -0.5000000067305868 -1.110223039570061e-16
vn -0.500000006730587 -0.8660253998985323 -1.9229626777551184e-16
vn -2.449293705170336e-16 -1 -2.2204460492503126e-16
vn 0 -2.2204460492503126e-16 1
vn 0 -2.2204460492503126e-16 1
vn 0 -2.2204460492503126e-16 1
vn 0 -2.2204460492503126e-16 1
vn 0 -2.2204460492503126e-16 1
vn 0 -2.2204460492503126e-16 1
vn 0 -2.2204460492503126e-16 1
vn 0 -2.2204460492503126e-16 1
vn 0 -2.2204460492503126e-16 1
vn 0 -2.2204460492503126e-16 1
vn 0 -2.2204460492503126e-16 1
vn 0 -2.2204460492503126e-16 1
vn 0 -2.2204460492503126e-16 1
vn 0 -2.2204460492503126e-16 1
vn 0 -2.2204460492503126e-16 1
vn 0 -2.2204460492503126e-16 1
vn 0 -2.2204460492503126e-16 1
vn 0 -2.2204460492503126e-16 1
vn 0 -2.2204460492503126e-16 1
vn 0 -2.2204460492503126e-16 1
vn 0 -2.2204460492503126e-16 1
vn 0 -2.2204460492503126e-16 1
vn 0 -2.2204460492503126e-16 1
vn 0 -2.2204460492503126e-16 1
vn 0 -2.2204460492503126e-16 1
vn 0 2.2204460492503126e-16 -1
vn 0 2.2204460492503126e-16 -1
vn 0 2.2204460492503126e-16 -1
vn 0 2.2204460492503126e-16 -1
vn 0 2.2204460492503126e-16 -1
vn 0 2.2204460492503126e-16 -1
vn 0 2.2204460492503126e-16 -1
vn 0 2.2204460492503126e-16 -1
vn 0 2.2204460492503126e-16 -1
vn 0 2.2204460492503126e-16 -1
vn 0 2.2204460492503126e-16 -1
vn 0 2.2204460492503126e-16 -1
vn 0 2.2204460492503126e-16 -1
vn 0 2.2204460492503126e-16 -1
vn 0 2.2204460492503126e-16 -1
vn 0 2.2204460492503126e-16 -1
vn 0 2.2204460492503126e-16 -1
vn 0 2.2204460492503126e-16 -1
vn 0 2.2204460492503126e-16 -1
vn 0 2.2204460492503126e-16 -1
vn 0 2.2204460492503126e-16 -1
vn 0 2.2204460492503126e-16 -1
vn 0 2.2204460492503126e-16 -1
vn 0 2.2204460492503126e-16 -1
vn 0 2.2204460492503126e-16 -1
f 77/77/77 90/90/90 78/78/78
f 90/90/90 91/91/91 78/78/78
f 78/78/78 91/91/91 79/79/79
f 91/91/91 92/92/92 79/79/79
f 79/79/79 92/92/92 80/80/80
f 92/92/92 93/93/93 80/80/80
f 80/80/80 93/93/93 81/81/81
f 93/93/93 94/94/94 81/81/81
f 81/81/81 94/94/94 82/82/82
f 94/94/94 95/95/95 82/82/82
f 82/82/82 95/95/95 83/83/83
f 95/95/95 96/96/96 83/83/83
f 83/83/83 96/96/96 84/84/84
f 96/96/96 97/97/97 84/84/84
f 84/84/84 97/97/97 85/85/85
f 97/97/97 98/98/98 85/85/85
f 85/85/85 98/98/98 86/86/86
f 98/98/98 99/99/99 86/86/86
f 86/86/86 99/99/99 87/87/87
f 99/99/99 100/100/100 87/87/87
f 87/87/87 100/100/100 88/88/88
f 100/100/100 101/101/101 88/88/88
f 88/88/88 101/101/101 89/89/89
f 101/101/101 102/102/102 89/89/89
f 115/115/115 116/116/116 103/103/103
f 116/116/116 117/117/117 104/104/104
f 117/117/117 118/118/118 105/105/105
f 118/118/118 119/119/119 106/106/106
f 119/119/119 120/120/120 107/107/107
f 120/120/120 121/121/121 108/108/108
f 121/121/121 122/122/122 109/109/109
f 122/122/122 123/123/123 110/110/110
f 123/123/123 124/124/124 111/111/111
f 124/124/124 125/125/125 112/112/112
f 125/125/125 126/126/126 113/113/113
f 126/126/126 127/127/127 114/114/114
f 141/141/141 140/140/140 128/128/128
f 142/142/142 141/141/141 129/129/129
f 143/143/143 142/142/142 130/130/130
f 144/144/144 143/143/143 131/131/131
f 145/145/145 144/144/144 132/132/132
f 146/146/146 145/145/145 133/133/133
f 147/147/147 146/146/146 134/134/134
f 148/148/148 147/147/147 135/135/135
f 149/149/149 148/148/148 136/136/136
f 150/150/150 149/149/149 137/137/137
f 151/151/151 150/150/150 138/138/138
f 152/152/152 151/151/151 139/139/139
o hand_hour
usemtl SURF_Plastic_Matte
v 0.003000000026077032 0.1724999971687794 0.029000000233761983
v 0.003000000026077032 0.1724999971687794 0.025000000043772178
v 0.003000000026077032 0.11749999746680262 0.029000000233761983
v 0.003000000026077032 0.11749999746680262 0.025000000043772178
v -0.003000000026077032 0.1724999971687794 0.025000000043772178
v -0.003000000026077032 0.1724999971687794 0.029000000233761983
v -0.003000000026077032 0.11749999746680262 0.025000000043772178
v -0.003000000026077032 0.11749999746680262 0.029000000233761983
v -0.003000000026077032 0.1724999971687794 0.025000000043772178
v 0.003000000026077032 0.1724999971687794 0.025000000043772178
v -0.003000000026077032 0.1724999971687794 0.029000000233761983
v 0.003000000026077032 0.1724999971687794 0.029000000233761983
v -0.003000000026077032 0.11749999746680262 0.029000000233761983
v 0.003000000026077032 0.11749999746680262 0.029000000233761983
v -0.003000000026077032 0.11749999746680262 0.025000000043772178
v 0.003000000026077032 0.11749999746680262 0.025000000043772178
v -0.003000000026077032 0.1724999971687794 0.029000000233761983
v 0.003000000026077032 0.1724999971687794 0.029000000233761983
v -0.003000000026077032 0.11749999746680262 0.029000000233761983
v 0.003000000026077032 0.11749999746680262 0.029000000233761983
v 0.003000000026077032 0.1724999971687794 0.025000000043772178
v -0.003000000026077032 0.1724999971687794 0.025000000043772178
v 0.003000000026077032 0.11749999746680262 0.025000000043772178
v -0.003000000026077032 0.11749999746680262 0.025000000043772178
vt 0 1
vt 1 1
vt 0 0
vt 1 0
vt 0 1
vt 1 1
vt 0 0
vt 1 0
vt 0 1
vt 1 1
vt 0 0
vt 1 0
vt 0 1
vt 1 1
vt 0 0
vt 1 0
vt 0 1
vt 1 1
vt 0 0
vt 1 0
vt 0 1
vt 1 1
vt 0 0
vt 1 0
vn 1 0 0
vn 1 0 0
vn 1 0 0
vn 1 0 0
vn -1 0 0
vn -1 0 0
vn -1 0 0
vn -1 0 0
vn 0 1 0
vn 0 1 0
vn 0 1 0
vn 0 1 0
vn 0 -1 0
vn 0 -1 0
vn 0 -1 0
vn 0 -1 0
vn 0 0 1
vn 0 0 1
vn 0 0 1
vn 0 0 1
vn 0 0 -1
vn 0 0 -1
vn 0 0 -1
vn 0 0 -1
f 153/153/153 155/155/155 154/154/154
f 155/155/155 156/156/156 154/154/154
f 157/157/157 159/159/159 158/158/158
f 159/159/159 160/160/160 158/158/158
f 161/161/161 163/163/163 162/162/162
f 163/163/163 164/164/164 162/162/162
f 165/165/165 167/167/167 166/166/166
f 167/167/167 168/168/168 166/166/166
f 169/169/169 171/171/171 170/170/170
f 171/171/171 172/172/172 170/170/170
f 173/173/173 175/175/175 174/174/174
f 175/175/175 176/176/176 174/174/174
o hand_minute
usemtl SURF_Plastic_Matte
v 0.06750000149011612 0.12649999726191166 0.030000000233761984
v 0.06750000149011612 0.12649999726191166 0.02600000004377218
v 0.06750000149011612 0.12149999737367037 0.030000000233761984
v 0.06750000149011612 0.12149999737367037 0.02600000004377218
v -0.0075000014901161205 0.12649999726191166 0.02600000004377218
v -0.0075000014901161205 0.12649999726191166 0.030000000233761984
v -0.0075000014901161205 0.12149999737367037 0.02600000004377218
v -0.0075000014901161205 0.12149999737367037 0.030000000233761984
v -0.0075000014901161205 0.12649999726191166 0.02600000004377218
v 0.06750000149011612 0.12649999726191166 0.02600000004377218
v -0.0075000014901161205 0.12649999726191166 0.030000000233761984
v 0.06750000149011612 0.12649999726191166 0.030000000233761984
v -0.0075000014901161205 0.12149999737367037 0.030000000233761984
v 0.06750000149011612 0.12149999737367037 0.030000000233761984
v -0.0075000014901161205 0.12149999737367037 0.02600000004377218
v 0.06750000149011612 0.12149999737367037 0.02600000004377218
v -0.0075000014901161205 0.12649999726191166 0.030000000233761984
v 0.06750000149011612 0.12649999726191166 0.030000000233761984
v -0.0075000014901161205 0.12149999737367037 0.030000000233761984
v 0.06750000149011612 0.12149999737367037 0.030000000233761984
v 0.06750000149011612 0.12649999726191166 0.02600000004377218
v -0.0075000014901161205 0.12649999726191166 0.02600000004377218
v 0.06750000149011612 0.12149999737367037 0.02600000004377218
v -0.0075000014901161205 0.12149999737367037 0.02600000004377218
vt 0 1
vt 1 1
vt 0 0
vt 1 0
vt 0 1
vt 1 1
vt 0 0
vt 1 0
vt 0 1
vt 1 1
vt 0 0
vt 1 0
vt 0 1
vt 1 1
vt 0 0
vt 1 0
vt 0 1
vt 1 1
vt 0 0
vt 1 0
vt 0 1
vt 1 1
vt 0 0
vt 1 0
vn 1 0 0
vn 1 0 0
vn 1 0 0
vn 1 0 0
vn -1 0 0
vn -1 0 0
vn -1 0 0
vn -1 0 0
vn 0 1 0
vn 0 1 0
vn 0 1 0
vn 0 1 0
vn 0 -1 0
vn 0 -1 0
vn 0 -1 0
vn 0 -1 0
vn 0 0 1
vn 0 0 1
vn 0 0 1
vn 0 0 1
vn 0 0 -1
vn 0 0 -1
vn 0 0 -1
vn 0 0 -1
f 177/177/177 179/179/179 178/178/178
f 179/179/179 180/180/180 178/178/178
f 181/181/181 183/183/183 182/182/182
f 183/183/183 184/184/184 182/182/182
f 185/185/185 187/187/187 186/186/186
f 187/187/187 188/188/188 186/186/186
f 189/189/189 191/191/191 190/190/190
f 191/191/191 192/192/192 190/190/190
f 193/193/193 195/195/195 194/194/194
f 195/195/195 196/196/196 194/194/194
f 197/197/197 199/199/199 198/198/198
f 199/199/199 200/200/200 198/198/198
