# PRP_P0_Tissues_A — Tissue box
# SC_P0_BEDROOM · group B
# bounds 0.12 × 0.12 × 0.12 m · 36 tris · UV island 16 × 8 px
# 1 unit = 1 m · pivot at floor contact, X/Z centred
mtllib PRP_P0_Tissues_A.mtl
o carton
usemtl SURF_Fabric_Curtain
v 0.05999999865889549 0.07999999821186066 0.05999999865889549
v 0.05999999865889549 0.07999999821186066 -0.05999999865889549
v 0.05999999865889549 0 0.05999999865889549
v 0.05999999865889549 0 -0.05999999865889549
v -0.05999999865889549 0.07999999821186066 -0.05999999865889549
v -0.05999999865889549 0.07999999821186066 0.05999999865889549
v -0.05999999865889549 0 -0.05999999865889549
v -0.05999999865889549 0 0.05999999865889549
v -0.05999999865889549 0.07999999821186066 -0.05999999865889549
v 0.05999999865889549 0.07999999821186066 -0.05999999865889549
v -0.05999999865889549 0.07999999821186066 0.05999999865889549
v 0.05999999865889549 0.07999999821186066 0.05999999865889549
v -0.05999999865889549 0 0.05999999865889549
v 0.05999999865889549 0 0.05999999865889549
v -0.05999999865889549 0 -0.05999999865889549
v 0.05999999865889549 0 -0.05999999865889549
v -0.05999999865889549 0.07999999821186066 0.05999999865889549
v 0.05999999865889549 0.07999999821186066 0.05999999865889549
v -0.05999999865889549 0 0.05999999865889549
v 0.05999999865889549 0 0.05999999865889549
v 0.05999999865889549 0.07999999821186066 -0.05999999865889549
v -0.05999999865889549 0.07999999821186066 -0.05999999865889549
v 0.05999999865889549 0 -0.05999999865889549
v -0.05999999865889549 0 -0.05999999865889549
vt 0 1
vt 1 1
vt 0 0
vt 1 0
vt 0 1
vt 1 1
vt 0 0
vt 1 0
vt 0 1
vt 1 1
vt 0 0
vt 1 0
vt 0 1
vt 1 1
vt 0 0
vt 1 0
vt 0 1
vt 1 1
vt 0 0
vt 1 0
vt 0 1
vt 1 1
vt 0 0
vt 1 0
vn 1 0 0
vn 1 0 0
vn 1 0 0
vn 1 0 0
vn -1 0 0
vn -1 0 0
vn -1 0 0
vn -1 0 0
vn 0 1 0
vn 0 1 0
vn 0 1 0
vn 0 1 0
vn 0 -1 0
vn 0 -1 0
vn 0 -1 0
vn 0 -1 0
vn 0 0 1
vn 0 0 1
vn 0 0 1
vn 0 0 1
vn 0 0 -1
vn 0 0 -1
vn 0 0 -1
vn 0 0 -1
f 1/1/1 3/3/3 2/2/2
f 3/3/3 4/4/4 2/2/2
f 5/5/5 7/7/7 6/6/6
f 7/7/7 8/8/8 6/6/6
f 9/9/9 11/11/11 10/10/10
f 11/11/11 12/12/12 10/10/10
f 13/13/13 15/15/15 14/14/14
f 15/15/15 16/16/16 14/14/14
f 17/17/17 19/19/19 18/18/18
f 19/19/19 20/20/20 18/18/18
f 21/21/21 23/23/23 22/22/22
f 23/23/23 24/24/24 22/22/22
o top_face
usemtl SURF_Plastic_Matte
v 0.054999999701976776 0.08599999929592014 0.054999999701976776
v 0.054999999701976776 0.08599999929592014 -0.054999999701976776
v 0.054999999701976776 0.07799999891594053 0.054999999701976776
v 0.054999999701976776 0.07799999891594053 -0.054999999701976776
v -0.054999999701976776 0.08599999929592014 -0.054999999701976776
v -0.054999999701976776 0.08599999929592014 0.054999999701976776
v -0.054999999701976776 0.07799999891594053 -0.054999999701976776
v -0.054999999701976776 0.07799999891594053 0.054999999701976776
v -0.054999999701976776 0.08599999929592014 -0.054999999701976776
v 0.054999999701976776 0.08599999929592014 -0.054999999701976776
v -0.054999999701976776 0.08599999929592014 0.054999999701976776
v 0.054999999701976776 0.08599999929592014 0.054999999701976776
v -0.054999999701976776 0.07799999891594053 0.054999999701976776
v 0.054999999701976776 0.07799999891594053 0.054999999701976776
v -0.054999999701976776 0.07799999891594053 -0.054999999701976776
v 0.054999999701976776 0.07799999891594053 -0.054999999701976776
v -0.054999999701976776 0.08599999929592014 0.054999999701976776
v 0.054999999701976776 0.08599999929592014 0.054999999701976776
v -0.054999999701976776 0.07799999891594053 0.054999999701976776
v 0.054999999701976776 0.07799999891594053 0.054999999701976776
v 0.054999999701976776 0.08599999929592014 -0.054999999701976776
v -0.054999999701976776 0.08599999929592014 -0.054999999701976776
v 0.054999999701976776 0.07799999891594053 -0.054999999701976776
v -0.054999999701976776 0.07799999891594053 -0.054999999701976776
vt 0 1
vt 1 1
vt 0 0
vt 1 0
vt 0 1
vt 1 1
vt 0 0
vt 1 0
vt 0 1
vt 1 1
vt 0 0
vt 1 0
vt 0 1
vt 1 1
vt 0 0
vt 1 0
vt 0 1
vt 1 1
vt 0 0
vt 1 0
vt 0 1
vt 1 1
vt 0 0
vt 1 0
vn 1 0 0
vn 1 0 0
vn 1 0 0
vn 1 0 0
vn -1 0 0
vn -1 0 0
vn -1 0 0
vn -1 0 0
vn 0 1 0
vn 0 1 0
vn 0 1 0
vn 0 1 0
vn 0 -1 0
vn 0 -1 0
vn 0 -1 0
vn 0 -1 0
vn 0 0 1
vn 0 0 1
vn 0 0 1
vn 0 0 1
vn 0 0 -1
vn 0 0 -1
vn 0 0 -1
vn 0 0 -1
f 25/25/25 27/27/27 26/26/26
f 27/27/27 28/28/28 26/26/26
f 29/29/29 31/31/31 30/30/30
f 31/31/31 32/32/32 30/30/30
f 33/33/33 35/35/35 34/34/34
f 35/35/35 36/36/36 34/34/34
f 37/37/37 39/39/39 38/38/38
f 39/39/39 40/40/40 38/38/38
f 41/41/41 43/43/43 42/42/42
f 43/43/43 44/44/44 42/42/42
f 45/45/45 47/47/47 46/46/46
f 47/47/47 48/48/48 46/46/46
o tissue
usemtl SURF_Paper_Notebook
v 0.02500000037252903 0.11999999865889549 0.014999999664723873
v 0.02500000037252903 0.11999999865889549 -0.014999999664723873
v 0.02500000037252903 0.07999999955296516 0.014999999664723873
v 0.02500000037252903 0.07999999955296516 -0.014999999664723873
v -0.02500000037252903 0.11999999865889549 -0.014999999664723873
v -0.02500000037252903 0.11999999865889549 0.014999999664723873
v -0.02500000037252903 0.07999999955296516 -0.014999999664723873
v -0.02500000037252903 0.07999999955296516 0.014999999664723873
v -0.02500000037252903 0.11999999865889549 -0.014999999664723873
v 0.02500000037252903 0.11999999865889549 -0.014999999664723873
v -0.02500000037252903 0.11999999865889549 0.014999999664723873
v 0.02500000037252903 0.11999999865889549 0.014999999664723873
v -0.02500000037252903 0.07999999955296516 0.014999999664723873
v 0.02500000037252903 0.07999999955296516 0.014999999664723873
v -0.02500000037252903 0.07999999955296516 -0.014999999664723873
v 0.02500000037252903 0.07999999955296516 -0.014999999664723873
v -0.02500000037252903 0.11999999865889549 0.014999999664723873
v 0.02500000037252903 0.11999999865889549 0.014999999664723873
v -0.02500000037252903 0.07999999955296516 0.014999999664723873
v 0.02500000037252903 0.07999999955296516 0.014999999664723873
v 0.02500000037252903 0.11999999865889549 -0.014999999664723873
v -0.02500000037252903 0.11999999865889549 -0.014999999664723873
v 0.02500000037252903 0.07999999955296516 -0.014999999664723873
v -0.02500000037252903 0.07999999955296516 -0.014999999664723873
vt 0 1
vt 1 1
vt 0 0
vt 1 0
vt 0 1
vt 1 1
vt 0 0
vt 1 0
vt 0 1
vt 1 1
vt 0 0
vt 1 0
vt 0 1
vt 1 1
vt 0 0
vt 1 0
vt 0 1
vt 1 1
vt 0 0
vt 1 0
vt 0 1
vt 1 1
vt 0 0
vt 1 0
vn 1 0 0
vn 1 0 0
vn 1 0 0
vn 1 0 0
vn -1 0 0
vn -1 0 0
vn -1 0 0
vn -1 0 0
vn 0 1 0
vn 0 1 0
vn 0 1 0
vn 0 1 0
vn 0 -1 0
vn 0 -1 0
vn 0 -1 0
vn 0 -1 0
vn 0 0 1
vn 0 0 1
vn 0 0 1
vn 0 0 1
vn 0 0 -1
vn 0 0 -1
vn 0 0 -1
vn 0 0 -1
f 49/49/49 51/51/51 50/50/50
f 51/51/51 52/52/52 50/50/50
f 53/53/53 55/55/55 54/54/54
f 55/55/55 56/56/56 54/54/54
f 57/57/57 59/59/59 58/58/58
f 59/59/59 60/60/60 58/58/58
f 61/61/61 63/63/63 62/62/62
f 63/63/63 64/64/64 62/62/62
f 65/65/65 67/67/67 66/66/66
f 67/67/67 68/68/68 66/66/66
f 69/69/69 71/71/71 70/70/70
f 71/71/71 72/72/72 70/70/70
