# PRP_P0_Mug_A — Mug
# SC_P0_BEDROOM · group B
# bounds 0.10 × 0.09 × 0.10 m · 116 tris · UV island 16 × 8 px
# 1 unit = 1 m · pivot at floor contact, X/Z centred
mtllib PRP_P0_Mug_A.mtl
o body
usemtl SURF_Ceramic_Mug
v -0.008076756190508603 0.10000000149011612 0.041999999433755875
v 0.016610224802047015 0.10000000149011612 0.03397871553897858
v 0.031867616880685096 0.10000000149011612 0.01297871395945549
v 0.031867616880685096 0.10000000149011612 -0.01297871395945549
v 0.016610224802047015 0.10000000149011612 -0.03397871553897858
v -0.008076756190508598 0.10000000149011612 -0.041999999433755875
v -0.03276373718306422 0.10000000149011612 -0.03397871553897858
v -0.048021129261702294 0.10000000149011612 -0.01297871395945549
v -0.048021129261702294 0.10000000149011612 0.01297871395945549
v -0.03276373718306422 0.10000000149011612 0.03397871553897858
v -0.008076756190508613 0.10000000149011612 0.041999999433755875
v -0.008076756190508603 0 0.03799999877810478
v 0.014259084198623897 0 0.030742645263671875
v 0.02806339140608907 0 0.011742645874619484
v 0.02806339140608907 0 -0.011742645874619484
v 0.014259084198623897 0 -0.030742645263671875
v -0.008076756190508598 0 -0.03799999877810478
v -0.030412596579641103 0 -0.030742645263671875
v -0.04421690378710627 0 -0.011742645874619484
v -0.04421690378710627 0 0.011742645874619484
v -0.030412596579641103 0 0.030742645263671875
v -0.008076756190508612 0 0.03799999877810478
v -0.008076756190508603 0.10000000149011612 0
v -0.008076756190508603 0.10000000149011612 0
v -0.008076756190508603 0.10000000149011612 0
v -0.008076756190508603 0.10000000149011612 0
v -0.008076756190508603 0.10000000149011612 0
v -0.008076756190508603 0.10000000149011612 0
v -0.008076756190508603 0.10000000149011612 0
v -0.008076756190508603 0.10000000149011612 0
v -0.008076756190508603 0.10000000149011612 0
v -0.008076756190508603 0.10000000149011612 0
v -0.008076756190508603 0.10000000149011612 0.041999999433755875
v 0.016610224802047015 0.10000000149011612 0.03397871553897858
v 0.031867616880685096 0.10000000149011612 0.01297871395945549
v 0.031867616880685096 0.10000000149011612 -0.01297871395945549
v 0.016610224802047015 0.10000000149011612 -0.03397871553897858
v -0.008076756190508598 0.10000000149011612 -0.041999999433755875
v -0.03276373718306422 0.10000000149011612 -0.03397871553897858
v -0.048021129261702294 0.10000000149011612 -0.01297871395945549
v -0.048021129261702294 0.10000000149011612 0.01297871395945549
v -0.03276373718306422 0.10000000149011612 0.03397871553897858
v -0.008076756190508613 0.10000000149011612 0.041999999433755875
v -0.008076756190508603 0 0
v -0.008076756190508603 0 0
v -0.008076756190508603 0 0
v -0.008076756190508603 0 0
v -0.008076756190508603 0 0
v -0.008076756190508603 0 0
v -0.008076756190508603 0 0
v -0.008076756190508603 0 0
v -0.008076756190508603 0 0
v -0.008076756190508603 0 0
v -0.008076756190508603 0 0.03799999877810478
v 0.014259084198623897 0 0.030742645263671875
v 0.02806339140608907 0 0.011742645874619484
v 0.02806339140608907 0 -0.011742645874619484
v 0.014259084198623897 0 -0.030742645263671875
v -0.008076756190508598 0 -0.03799999877810478
v -0.030412596579641103 0 -0.030742645263671875
v -0.04421690378710627 0 -0.011742645874619484
v -0.04421690378710627 0 0.011742645874619484
v -0.030412596579641103 0 0.030742645263671875
v -0.008076756190508612 0 0.03799999877810478
vt 0 1
vt 0.10000000149011612 1
vt 0.20000000298023224 1
vt 0.30000001192092896 1
vt 0.4000000059604645 1
vt 0.5 1
vt 0.6000000238418579 1
vt 0.699999988079071 1
vt 0.800000011920929 1
vt 0.8999999761581421 1
vt 1 1
vt 0 0
vt 0.10000000149011612 0
vt 0.20000000298023224 0
vt 0.30000001192092896 0
vt 0.4000000059604645 0
vt 0.5 0
vt 0.6000000238418579 0
vt 0.699999988079071 0
vt 0.800000011920929 0
vt 0.8999999761581421 0
vt 1 0
vt 0.5 0.5
vt 0.5 0.5
vt 0.5 0.5
vt 0.5 0.5
vt 0.5 0.5
vt 0.5 0.5
vt 0.5 0.5
vt 0.5 0.5
vt 0.5 0.5
vt 0.5 0.5
vt 1 0.5
vt 0.9045084714889526 0.7938926219940186
vt 0.6545084714889526 0.9755282402038574
vt 0.345491498708725 0.9755282402038574
vt 0.09549150615930557 0.7938926219940186
vt 0 0.5
vt 0.09549150615930557 0.20610737800598145
vt 0.345491498708725 0.024471741169691086
vt 0.6545084714889526 0.024471741169691086
vt 0.9045084714889526 0.20610737800598145
vt 1 0.5
vt 0.5 0.5
vt 0.5 0.5
vt 0.5 0.5
vt 0.5 0.5
vt 0.5 0.5
vt 0.5 0.5
vt 0.5 0.5
vt 0.5 0.5
vt 0.5 0.5
vt 0.5 0.5
vt 1 0.5
vt 0.9045084714889526 0.20610737800598145
vt 0.6545084714889526 0.024471741169691086
vt 0.345491498708725 0.024471741169691086
vt 0.09549150615930557 0.20610737800598145
vt 0 0.5
vt 0.09549150615930557 0.7938926219940186
vt 0.345491498708725 0.9755282402038574
vt 0.6545084714889526 0.9755282402038574
vt 0.9045084714889526 0.7938926219940186
vt 1 0.5
vn 0 -0.039968040580475234 0.9992009586325253
vn 0.5873155813357437 -0.03996804133410319 0.8083705608148857
vn 0.9502965787187845 -0.03996803975328566 0.30877008966811054
vn 0.9502965787187845 -0.03996803975328566 -0.30877008966811054
vn 0.5873155813357437 -0.03996804133410319 -0.8083705608148857
vn 1.22366828748973e-16 -0.039968040580475234 -0.9992009586325253
vn -0.5873155813357437 -0.03996804133410319 -0.8083705608148857
vn -0.9502965787187845 -0.03996803975328566 -0.30877008966811054
vn -0.9502965787187845 -0.03996803975328566 0.30877008966811054
vn -0.5873155813357437 -0.03996804133410319 0.8083705608148857
vn -2.44733657497946e-16 -0.039968040580475234 0.9992009586325253
vn 0 -0.039968040580475234 0.9992009586325253
vn 0.5873155813357437 -0.03996804133410319 0.8083705608148857
vn 0.9502965787187845 -0.03996803975328566 0.30877008966811054
vn 0.9502965787187845 -0.03996803975328566 -0.30877008966811054
vn 0.5873155813357437 -0.03996804133410319 -0.8083705608148857
vn 1.22366828748973e-16 -0.039968040580475234 -0.9992009586325253
vn -0.5873155813357437 -0.03996804133410319 -0.8083705608148857
vn -0.9502965787187845 -0.03996803975328566 -0.30877008966811054
vn -0.9502965787187845 -0.03996803975328566 0.30877008966811054
vn -0.5873155813357437 -0.03996804133410319 0.8083705608148857
vn -2.44733657497946e-16 -0.039968040580475234 0.9992009586325253
vn 0 1 0
vn 0 1 0
vn 0 1 0
vn 0 1 0
vn 0 1 0
vn 0 1 0
vn 0 1 0
vn 0 1 0
vn 0 1 0
vn 0 1 0
vn 0 1 0
vn 0 1 0
vn 0 1 0
vn 0 1 0
vn 0 1 0
vn 0 1 0
vn 0 1 0
vn 0 1 0
vn 0 1 0
vn 0 1 0
vn 0 1 0
vn 0 -1 0
vn 0 -1 0
vn 0 -1 0
vn 0 -1 0
vn 0 -1 0
vn 0 -1 0
vn 0 -1 0
vn 0 -1 0
vn 0 -1 0
vn 0 -1 0
vn 0 -1 0
vn 0 -1 0
vn 0 -1 0
vn 0 -1 0
vn 0 -1 0
vn 0 -1 0
vn 0 -1 0
vn 0 -1 0
vn 0 -1 0
vn 0 -1 0
vn 0 -1 0
f 1/1/1 12/12/12 2/2/2
f 12/12/12 13/13/13 2/2/2
f 2/2/2 13/13/13 3/3/3
f 13/13/13 14/14/14 3/3/3
f 3/3/3 14/14/14 4/4/4
f 14/14/14 15/15/15 4/4/4
f 4/4/4 15/15/15 5/5/5
f 15/15/15 16/16/16 5/5/5
f 5/5/5 16/16/16 6/6/6
f 16/16/16 17/17/17 6/6/6
f 6/6/6 17/17/17 7/7/7
f 17/17/17 18/18/18 7/7/7
f 7/7/7 18/18/18 8/8/8
f 18/18/18 19/19/19 8/8/8
f 8/8/8 19/19/19 9/9/9
f 19/19/19 20/20/20 9/9/9
f 9/9/9 20/20/20 10/10/10
f 20/20/20 21/21/21 10/10/10
f 10/10/10 21/21/21 11/11/11
f 21/21/21 22/22/22 11/11/11
f 33/33/33 34/34/34 23/23/23
f 34/34/34 35/35/35 24/24/24
f 35/35/35 36/36/36 25/25/25
f 36/36/36 37/37/37 26/26/26
f 37/37/37 38/38/38 27/27/27
f 38/38/38 39/39/39 28/28/28
f 39/39/39 40/40/40 29/29/29
f 40/40/40 41/41/41 30/30/30
f 41/41/41 42/42/42 31/31/31
f 42/42/42 43/43/43 32/32/32
f 55/55/55 54/54/54 44/44/44
f 56/56/56 55/55/55 45/45/45
f 57/57/57 56/56/56 46/46/46
f 58/58/58 57/57/57 47/47/47
f 59/59/59 58/58/58 48/48/48
f 60/60/60 59/59/59 49/49/49
f 61/61/61 60/60/60 50/50/50
f 62/62/62 61/61/61 51/51/51
f 63/63/63 62/62/62 52/52/52
f 64/64/64 63/63/63 53/53/53
o rim
usemtl SURF_Ceramic_Mug
v -0.008076756190508603 0.10000000093504786 0.04399999976158142
v 0.017785794172436 0.10000000093504786 0.03559674695134163
v 0.03376973148062826 0.10000000093504786 0.013596748001873493
v 0.03376973148062826 0.10000000093504786 -0.013596748001873493
v 0.017785794172436 0.10000000093504786 -0.03559674695134163
v -0.008076756190508598 0.10000000093504786 -0.04399999976158142
v -0.0339393065534532 0.10000000093504786 -0.03559674695134163
v -0.049923243861645455 0.10000000093504786 -0.013596748001873493
v -0.049923243861645455 0.10000000093504786 0.013596748001873493
v -0.0339393065534532 0.10000000093504786 0.03559674695134163
v -0.008076756190508613 0.10000000093504786 0.04399999976158142
v -0.008076756190508603 0.09200000055506825 0.04399999976158142
v 0.017785794172436 0.09200000055506825 0.03559674695134163
v 0.03376973148062826 0.09200000055506825 0.013596748001873493
v 0.03376973148062826 0.09200000055506825 -0.013596748001873493
v 0.017785794172436 0.09200000055506825 -0.03559674695134163
v -0.008076756190508598 0.09200000055506825 -0.04399999976158142
v -0.0339393065534532 0.09200000055506825 -0.03559674695134163
v -0.049923243861645455 0.09200000055506825 -0.013596748001873493
v -0.049923243861645455 0.09200000055506825 0.013596748001873493
v -0.0339393065534532 0.09200000055506825 0.03559674695134163
v -0.008076756190508613 0.09200000055506825 0.04399999976158142
v -0.008076756190508603 0.10000000093504786 0
v -0.008076756190508603 0.10000000093504786 0
v -0.008076756190508603 0.10000000093504786 0
v -0.008076756190508603 0.10000000093504786 0
v -0.008076756190508603 0.10000000093504786 0
v -0.008076756190508603 0.10000000093504786 0
v -0.008076756190508603 0.10000000093504786 0
v -0.008076756190508603 0.10000000093504786 0
v -0.008076756190508603 0.10000000093504786 0
v -0.008076756190508603 0.10000000093504786 0
v -0.008076756190508603 0.10000000093504786 0.04399999976158142
v 0.017785794172436 0.10000000093504786 0.03559674695134163
v 0.03376973148062826 0.10000000093504786 0.013596748001873493
v 0.03376973148062826 0.10000000093504786 -0.013596748001873493
v 0.017785794172436 0.10000000093504786 -0.03559674695134163
v -0.008076756190508598 0.10000000093504786 -0.04399999976158142
v -0.0339393065534532 0.10000000093504786 -0.03559674695134163
v -0.049923243861645455 0.10000000093504786 -0.013596748001873493
v -0.049923243861645455 0.10000000093504786 0.013596748001873493
v -0.0339393065534532 0.10000000093504786 0.03559674695134163
v -0.008076756190508613 0.10000000093504786 0.04399999976158142
v -0.008076756190508603 0.09200000055506825 0
v -0.008076756190508603 0.09200000055506825 0
v -0.008076756190508603 0.09200000055506825 0
v -0.008076756190508603 0.09200000055506825 0
v -0.008076756190508603 0.09200000055506825 0
v -0.008076756190508603 0.09200000055506825 0
v -0.008076756190508603 0.09200000055506825 0
v -0.008076756190508603 0.09200000055506825 0
v -0.008076756190508603 0.09200000055506825 0
v -0.008076756190508603 0.09200000055506825 0
v -0.008076756190508603 0.09200000055506825 0.04399999976158142
v 0.017785794172436 0.09200000055506825 0.03559674695134163
v 0.03376973148062826 0.09200000055506825 0.013596748001873493
v 0.03376973148062826 0.09200000055506825 -0.013596748001873493
v 0.017785794172436 0.09200000055506825 -0.03559674695134163
v -0.008076756190508598 0.09200000055506825 -0.04399999976158142
v -0.0339393065534532 0.09200000055506825 -0.03559674695134163
v -0.049923243861645455 0.09200000055506825 -0.013596748001873493
v -0.049923243861645455 0.09200000055506825 0.013596748001873493
v -0.0339393065534532 0.09200000055506825 0.03559674695134163
v -0.008076756190508613 0.09200000055506825 0.04399999976158142
vt 0 1
vt 0.10000000149011612 1
vt 0.20000000298023224 1
vt 0.30000001192092896 1
vt 0.4000000059604645 1
vt 0.5 1
vt 0.6000000238418579 1
vt 0.699999988079071 1
vt 0.800000011920929 1
vt 0.8999999761581421 1
vt 1 1
vt 0 0
vt 0.10000000149011612 0
vt 0.20000000298023224 0
vt 0.30000001192092896 0
vt 0.4000000059604645 0
vt 0.5 0
vt 0.6000000238418579 0
vt 0.699999988079071 0
vt 0.800000011920929 0
vt 0.8999999761581421 0
vt 1 0
vt 0.5 0.5
vt 0.5 0.5
vt 0.5 0.5
vt 0.5 0.5
vt 0.5 0.5
vt 0.5 0.5
vt 0.5 0.5
vt 0.5 0.5
vt 0.5 0.5
vt 0.5 0.5
vt 1 0.5
vt 0.9045084714889526 0.7938926219940186
vt 0.6545084714889526 0.9755282402038574
vt 0.345491498708725 0.9755282402038574
vt 0.09549150615930557 0.7938926219940186
vt 0 0.5
vt 0.09549150615930557 0.20610737800598145
vt 0.345491498708725 0.024471741169691086
vt 0.6545084714889526 0.024471741169691086
vt 0.9045084714889526 0.20610737800598145
vt 1 0.5
vt 0.5 0.5
vt 0.5 0.5
vt 0.5 0.5
vt 0.5 0.5
vt 0.5 0.5
vt 0.5 0.5
vt 0.5 0.5
vt 0.5 0.5
vt 0.5 0.5
vt 0.5 0.5
vt 1 0.5
vt 0.9045084714889526 0.20610737800598145
vt 0.6545084714889526 0.024471741169691086
vt 0.345491498708725 0.024471741169691086
vt 0.09549150615930557 0.20610737800598145
vt 0 0.5
vt 0.09549150615930557 0.7938926219940186
vt 0.345491498708725 0.9755282402038574
vt 0.6545084714889526 0.9755282402038574
vt 0.9045084714889526 0.7938926219940186
vt 1 0.5
vn 0 0 1
vn 0.5877852429542022 0 0.8090170011595983
vn 0.9510565161477913 0 0.3090169948284817
vn 0.9510565161477913 0 -0.3090169948284817
vn 0.5877852429542022 0 -0.8090170011595983
vn 1.2246468525851679e-16 0 -1
vn -0.5877852429542022 0 -0.8090170011595983
vn -0.9510565161477913 0 -0.3090169948284817
vn -0.9510565161477913 0 0.3090169948284817
vn -0.5877852429542022 0 0.8090170011595983
vn -2.4492937051703357e-16 0 1
vn 0 0 1
vn 0.5877852429542022 0 0.8090170011595983
vn 0.9510565161477913 0 0.3090169948284817
vn 0.9510565161477913 0 -0.3090169948284817
vn 0.5877852429542022 0 -0.8090170011595983
vn 1.2246468525851679e-16 0 -1
vn -0.5877852429542022 0 -0.8090170011595983
vn -0.9510565161477913 0 -0.3090169948284817
vn -0.9510565161477913 0 0.3090169948284817
vn -0.5877852429542022 0 0.8090170011595983
vn -2.4492937051703357e-16 0 1
vn 0 1 0
vn 0 1 0
vn 0 1 0
vn 0 1 0
vn 0 1 0
vn 0 1 0
vn 0 1 0
vn 0 1 0
vn 0 1 0
vn 0 1 0
vn 0 1 0
vn 0 1 0
vn 0 1 0
vn 0 1 0
vn 0 1 0
vn 0 1 0
vn 0 1 0
vn 0 1 0
vn 0 1 0
vn 0 1 0
vn 0 1 0
vn 0 -1 0
vn 0 -1 0
vn 0 -1 0
vn 0 -1 0
vn 0 -1 0
vn 0 -1 0
vn 0 -1 0
vn 0 -1 0
vn 0 -1 0
vn 0 -1 0
vn 0 -1 0
vn 0 -1 0
vn 0 -1 0
vn 0 -1 0
vn 0 -1 0
vn 0 -1 0
vn 0 -1 0
vn 0 -1 0
vn 0 -1 0
vn 0 -1 0
vn 0 -1 0
f 65/65/65 76/76/76 66/66/66
f 76/76/76 77/77/77 66/66/66
f 66/66/66 77/77/77 67/67/67
f 77/77/77 78/78/78 67/67/67
f 67/67/67 78/78/78 68/68/68
f 78/78/78 79/79/79 68/68/68
f 68/68/68 79/79/79 69/69/69
f 79/79/79 80/80/80 69/69/69
f 69/69/69 80/80/80 70/70/70
f 80/80/80 81/81/81 70/70/70
f 70/70/70 81/81/81 71/71/71
f 81/81/81 82/82/82 71/71/71
f 71/71/71 82/82/82 72/72/72
f 82/82/82 83/83/83 72/72/72
f 72/72/72 83/83/83 73/73/73
f 83/83/83 84/84/84 73/73/73
f 73/73/73 84/84/84 74/74/74
f 84/84/84 85/85/85 74/74/74
f 74/74/74 85/85/85 75/75/75
f 85/85/85 86/86/86 75/75/75
f 97/97/97 98/98/98 87/87/87
f 98/98/98 99/99/99 88/88/88
f 99/99/99 100/100/100 89/89/89
f 100/100/100 101/101/101 90/90/90
f 101/101/101 102/102/102 91/91/91
f 102/102/102 103/103/103 92/92/92
f 103/103/103 104/104/104 93/93/93
f 104/104/104 105/105/105 94/94/94
f 105/105/105 106/106/106 95/95/95
f 106/106/106 107/107/107 96/96/96
f 119/119/119 118/118/118 108/108/108
f 120/120/120 119/119/119 109/109/109
f 121/121/121 120/120/120 110/110/110
f 122/122/122 121/121/121 111/111/111
f 123/123/123 122/122/122 112/112/112
f 124/124/124 123/123/123 113/113/113
f 125/125/125 124/124/124 114/114/114
f 126/126/126 125/125/125 115/115/115
f 127/127/127 126/126/126 116/116/116
f 128/128/128 127/127/127 117/117/117
o handle_out
usemtl SURF_Ceramic_Mug
v 0.049923243861645455 0.08250000059604645 0.006000000052154064
v 0.049923243861645455 0.08250000059604645 -0.006000000052154064
v 0.049923243861645455 0.02750000089406967 0.006000000052154064
v 0.049923243861645455 0.02750000089406967 -0.006000000052154064
v 0.03792324375733733 0.08250000059604645 -0.006000000052154064
v 0.03792324375733733 0.08250000059604645 0.006000000052154064
v 0.03792324375733733 0.02750000089406967 -0.006000000052154064
v 0.03792324375733733 0.02750000089406967 0.006000000052154064
v 0.03792324375733733 0.08250000059604645 -0.006000000052154064
v 0.049923243861645455 0.08250000059604645 -0.006000000052154064
v 0.03792324375733733 0.08250000059604645 0.006000000052154064
v 0.049923243861645455 0.08250000059604645 0.006000000052154064
v 0.03792324375733733 0.02750000089406967 0.006000000052154064
v 0.049923243861645455 0.02750000089406967 0.006000000052154064
v 0.03792324375733733 0.02750000089406967 -0.006000000052154064
v 0.049923243861645455 0.02750000089406967 -0.006000000052154064
v 0.03792324375733733 0.08250000059604645 0.006000000052154064
v 0.049923243861645455 0.08250000059604645 0.006000000052154064
v 0.03792324375733733 0.02750000089406967 0.006000000052154064
v 0.049923243861645455 0.02750000089406967 0.006000000052154064
v 0.049923243861645455 0.08250000059604645 -0.006000000052154064
v 0.03792324375733733 0.08250000059604645 -0.006000000052154064
v 0.049923243861645455 0.02750000089406967 -0.006000000052154064
v 0.03792324375733733 0.02750000089406967 -0.006000000052154064
vt 0 1
vt 1 1
vt 0 0
vt 1 0
vt 0 1
vt 1 1
vt 0 0
vt 1 0
vt 0 1
vt 1 1
vt 0 0
vt 1 0
vt 0 1
vt 1 1
vt 0 0
vt 1 0
vt 0 1
vt 1 1
vt 0 0
vt 1 0
vt 0 1
vt 1 1
vt 0 0
vt 1 0
vn 1 0 0
vn 1 0 0
vn 1 0 0
vn 1 0 0
vn -1 0 0
vn -1 0 0
vn -1 0 0
vn -1 0 0
vn 0 1 0
vn 0 1 0
vn 0 1 0
vn 0 1 0
vn 0 -1 0
vn 0 -1 0
vn 0 -1 0
vn 0 -1 0
vn 0 0 1
vn 0 0 1
vn 0 0 1
vn 0 0 1
vn 0 0 -1
vn 0 0 -1
vn 0 0 -1
vn 0 0 -1
f 129/129/129 131/131/131 130/130/130
f 131/131/131 132/132/132 130/130/130
f 133/133/133 135/135/135 134/134/134
f 135/135/135 136/136/136 134/134/134
f 137/137/137 139/139/139 138/138/138
f 139/139/139 140/140/140 138/138/138
f 141/141/141 143/143/143 142/142/142
f 143/143/143 144/144/144 142/142/142
f 145/145/145 147/147/147 146/146/146
f 147/147/147 148/148/148 146/146/146
f 149/149/149 151/151/151 150/150/150
f 151/151/151 152/152/152 150/150/150
o handle_top
usemtl SURF_Ceramic_Mug
v 0.04692324358597398 0.08400000079721212 0.004000000189989805
v 0.04692324358597398 0.08400000079721212 -0.004000000189989805
v 0.04692324358597398 0.07200000069290399 0.004000000189989805
v 0.04692324358597398 0.07200000069290399 -0.004000000189989805
v 0.026923244033008817 0.08400000079721212 -0.004000000189989805
v 0.026923244033008817 0.08400000079721212 0.004000000189989805
v 0.026923244033008817 0.07200000069290399 -0.004000000189989805
v 0.026923244033008817 0.07200000069290399 0.004000000189989805
v 0.026923244033008817 0.08400000079721212 -0.004000000189989805
v 0.04692324358597398 0.08400000079721212 -0.004000000189989805
v 0.026923244033008817 0.08400000079721212 0.004000000189989805
v 0.04692324358597398 0.08400000079721212 0.004000000189989805
v 0.026923244033008817 0.07200000069290399 0.004000000189989805
v 0.04692324358597398 0.07200000069290399 0.004000000189989805
v 0.026923244033008817 0.07200000069290399 -0.004000000189989805
v 0.04692324358597398 0.07200000069290399 -0.004000000189989805
v 0.026923244033008817 0.08400000079721212 0.004000000189989805
v 0.04692324358597398 0.08400000079721212 0.004000000189989805
v 0.026923244033008817 0.07200000069290399 0.004000000189989805
v 0.04692324358597398 0.07200000069290399 0.004000000189989805
v 0.04692324358597398 0.08400000079721212 -0.004000000189989805
v 0.026923244033008817 0.08400000079721212 -0.004000000189989805
v 0.04692324358597398 0.07200000069290399 -0.004000000189989805
v 0.026923244033008817 0.07200000069290399 -0.004000000189989805
vt 0 1
vt 1 1
vt 0 0
vt 1 0
vt 0 1
vt 1 1
vt 0 0
vt 1 0
vt 0 1
vt 1 1
vt 0 0
vt 1 0
vt 0 1
vt 1 1
vt 0 0
vt 1 0
vt 0 1
vt 1 1
vt 0 0
vt 1 0
vt 0 1
vt 1 1
vt 0 0
vt 1 0
vn 1 0 0
vn 1 0 0
vn 1 0 0
vn 1 0 0
vn -1 0 0
vn -1 0 0
vn -1 0 0
vn -1 0 0
vn 0 1 0
vn 0 1 0
vn 0 1 0
vn 0 1 0
vn 0 -1 0
vn 0 -1 0
vn 0 -1 0
vn 0 -1 0
vn 0 0 1
vn 0 0 1
vn 0 0 1
vn 0 0 1
vn 0 0 -1
vn 0 0 -1
vn 0 0 -1
vn 0 0 -1
f 153/153/153 155/155/155 154/154/154
f 155/155/155 156/156/156 154/154/154
f 157/157/157 159/159/159 158/158/158
f 159/159/159 160/160/160 158/158/158
f 161/161/161 163/163/163 162/162/162
f 163/163/163 164/164/164 162/162/162
f 165/165/165 167/167/167 166/166/166
f 167/167/167 168/168/168 166/166/166
f 169/169/169 171/171/171 170/170/170
f 171/171/171 172/172/172 170/170/170
f 173/173/173 175/175/175 174/174/174
f 175/175/175 176/176/176 174/174/174
o handle_bot
usemtl SURF_Ceramic_Mug
v 0.04692324358597398 0.03800000079721212 0.004000000189989805
v 0.04692324358597398 0.03800000079721212 -0.004000000189989805
v 0.04692324358597398 0.026000000692903993 0.004000000189989805
v 0.04692324358597398 0.026000000692903993 -0.004000000189989805
v 0.026923244033008817 0.03800000079721212 -0.004000000189989805
v 0.026923244033008817 0.03800000079721212 0.004000000189989805
v 0.026923244033008817 0.026000000692903993 -0.004000000189989805
v 0.026923244033008817 0.026000000692903993 0.004000000189989805
v 0.026923244033008817 0.03800000079721212 -0.004000000189989805
v 0.04692324358597398 0.03800000079721212 -0.004000000189989805
v 0.026923244033008817 0.03800000079721212 0.004000000189989805
v 0.04692324358597398 0.03800000079721212 0.004000000189989805
v 0.026923244033008817 0.026000000692903993 0.004000000189989805
v 0.04692324358597398 0.026000000692903993 0.004000000189989805
v 0.026923244033008817 0.026000000692903993 -0.004000000189989805
v 0.04692324358597398 0.026000000692903993 -0.004000000189989805
v 0.026923244033008817 0.03800000079721212 0.004000000189989805
v 0.04692324358597398 0.03800000079721212 0.004000000189989805
v 0.026923244033008817 0.026000000692903993 0.004000000189989805
v 0.04692324358597398 0.026000000692903993 0.004000000189989805
v 0.04692324358597398 0.03800000079721212 -0.004000000189989805
v 0.026923244033008817 0.03800000079721212 -0.004000000189989805
v 0.04692324358597398 0.026000000692903993 -0.004000000189989805
v 0.026923244033008817 0.026000000692903993 -0.004000000189989805
vt 0 1
vt 1 1
vt 0 0
vt 1 0
vt 0 1
vt 1 1
vt 0 0
vt 1 0
vt 0 1
vt 1 1
vt 0 0
vt 1 0
vt 0 1
vt 1 1
vt 0 0
vt 1 0
vt 0 1
vt 1 1
vt 0 0
vt 1 0
vt 0 1
vt 1 1
vt 0 0
vt 1 0
vn 1 0 0
vn 1 0 0
vn 1 0 0
vn 1 0 0
vn -1 0 0
vn -1 0 0
vn -1 0 0
vn -1 0 0
vn 0 1 0
vn 0 1 0
vn 0 1 0
vn 0 1 0
vn 0 -1 0
vn 0 -1 0
vn 0 -1 0
vn 0 -1 0
vn 0 0 1
vn 0 0 1
vn 0 0 1
vn 0 0 1
vn 0 0 -1
vn 0 0 -1
vn 0 0 -1
vn 0 0 -1
f 177/177/177 179/179/179 178/178/178
f 179/179/179 180/180/180 178/178/178
f 181/181/181 183/183/183 182/182/182
f 183/183/183 184/184/184 182/182/182
f 185/185/185 187/187/187 186/186/186
f 187/187/187 188/188/188 186/186/186
f 189/189/189 191/191/191 190/190/190
f 191/191/191 192/192/192 190/190/190
f 193/193/193 195/195/195 194/194/194
f 195/195/195 196/196/196 194/194/194
f 197/197/197 199/199/199 198/198/198
f 199/199/199 200/200/200 198/198/198
