# PRP_P0_Pillow_A — Pillow
# SC_P0_BEDROOM · group B
# bounds 0.55 × 0.35 × 0.16 m · 24 tris · UV island 32 × 24 px
# 1 unit = 1 m · pivot at floor contact, X/Z centred
mtllib PRP_P0_Pillow_A.mtl
o pillow_body
usemtl SURF_Paper_Notebook
v 0.2750000059604645 0.12999999523162842 0.17499999701976776
v 0.2750000059604645 0.12999999523162842 -0.17499999701976776
v 0.2750000059604645 0 0.17499999701976776
v 0.2750000059604645 0 -0.17499999701976776
v -0.2750000059604645 0.12999999523162842 -0.17499999701976776
v -0.2750000059604645 0.12999999523162842 0.17499999701976776
v -0.2750000059604645 0 -0.17499999701976776
v -0.2750000059604645 0 0.17499999701976776
v -0.2750000059604645 0.12999999523162842 -0.17499999701976776
v 0.2750000059604645 0.12999999523162842 -0.17499999701976776
v -0.2750000059604645 0.12999999523162842 0.17499999701976776
v 0.2750000059604645 0.12999999523162842 0.17499999701976776
v -0.2750000059604645 0 0.17499999701976776
v 0.2750000059604645 0 0.17499999701976776
v -0.2750000059604645 0 -0.17499999701976776
v 0.2750000059604645 0 -0.17499999701976776
v -0.2750000059604645 0.12999999523162842 0.17499999701976776
v 0.2750000059604645 0.12999999523162842 0.17499999701976776
v -0.2750000059604645 0 0.17499999701976776
v 0.2750000059604645 0 0.17499999701976776
v 0.2750000059604645 0.12999999523162842 -0.17499999701976776
v -0.2750000059604645 0.12999999523162842 -0.17499999701976776
v 0.2750000059604645 0 -0.17499999701976776
v -0.2750000059604645 0 -0.17499999701976776
vt 0 1
vt 1 1
vt 0 0
vt 1 0
vt 0 1
vt 1 1
vt 0 0
vt 1 0
vt 0 1
vt 1 1
vt 0 0
vt 1 0
vt 0 1
vt 1 1
vt 0 0
vt 1 0
vt 0 1
vt 1 1
vt 0 0
vt 1 0
vt 0 1
vt 1 1
vt 0 0
vt 1 0
vn 1 0 0
vn 1 0 0
vn 1 0 0
vn 1 0 0
vn -1 0 0
vn -1 0 0
vn -1 0 0
vn -1 0 0
vn 0 1 0
vn 0 1 0
vn 0 1 0
vn 0 1 0
vn 0 -1 0
vn 0 -1 0
vn 0 -1 0
vn 0 -1 0
vn 0 0 1
vn 0 0 1
vn 0 0 1
vn 0 0 1
vn 0 0 -1
vn 0 0 -1
vn 0 0 -1
vn 0 0 -1
f 1/1/1 3/3/3 2/2/2
f 3/3/3 4/4/4 2/2/2
f 5/5/5 7/7/7 6/6/6
f 7/7/7 8/8/8 6/6/6
f 9/9/9 11/11/11 10/10/10
f 11/11/11 12/12/12 10/10/10
f 13/13/13 15/15/15 14/14/14
f 15/15/15 16/16/16 14/14/14
f 17/17/17 19/19/19 18/18/18
f 19/19/19 20/20/20 18/18/18
f 21/21/21 23/23/23 22/22/22
f 23/23/23 24/24/24 22/22/22
o pillow_crown
usemtl SURF_Paper_Notebook
v 0.25 0.16499999716877936 0.15000000596046448
v 0.25 0.16499999716877936 -0.15000000596046448
v 0.25 0.12499999806284903 0.15000000596046448
v 0.25 0.12499999806284903 -0.15000000596046448
v -0.25 0.16499999716877936 -0.15000000596046448
v -0.25 0.16499999716877936 0.15000000596046448
v -0.25 0.12499999806284903 -0.15000000596046448
v -0.25 0.12499999806284903 0.15000000596046448
v -0.25 0.16499999716877936 -0.15000000596046448
v 0.25 0.16499999716877936 -0.15000000596046448
v -0.25 0.16499999716877936 0.15000000596046448
v 0.25 0.16499999716877936 0.15000000596046448
v -0.25 0.12499999806284903 0.15000000596046448
v 0.25 0.12499999806284903 0.15000000596046448
v -0.25 0.12499999806284903 -0.15000000596046448
v 0.25 0.12499999806284903 -0.15000000596046448
v -0.25 0.16499999716877936 0.15000000596046448
v 0.25 0.16499999716877936 0.15000000596046448
v -0.25 0.12499999806284903 0.15000000596046448
v 0.25 0.12499999806284903 0.15000000596046448
v 0.25 0.16499999716877936 -0.15000000596046448
v -0.25 0.16499999716877936 -0.15000000596046448
v 0.25 0.12499999806284903 -0.15000000596046448
v -0.25 0.12499999806284903 -0.15000000596046448
vt 0 1
vt 1 1
vt 0 0
vt 1 0
vt 0 1
vt 1 1
vt 0 0
vt 1 0
vt 0 1
vt 1 1
vt 0 0
vt 1 0
vt 0 1
vt 1 1
vt 0 0
vt 1 0
vt 0 1
vt 1 1
vt 0 0
vt 1 0
vt 0 1
vt 1 1
vt 0 0
vt 1 0
vn 1 0 0
vn 1 0 0
vn 1 0 0
vn 1 0 0
vn -1 0 0
vn -1 0 0
vn -1 0 0
vn -1 0 0
vn 0 1 0
vn 0 1 0
vn 0 1 0
vn 0 1 0
vn 0 -1 0
vn 0 -1 0
vn 0 -1 0
vn 0 -1 0
vn 0 0 1
vn 0 0 1
vn 0 0 1
vn 0 0 1
vn 0 0 -1
vn 0 0 -1
vn 0 0 -1
vn 0 0 -1
f 25/25/25 27/27/27 26/26/26
f 27/27/27 28/28/28 26/26/26
f 29/29/29 31/31/31 30/30/30
f 31/31/31 32/32/32 30/30/30
f 33/33/33 35/35/35 34/34/34
f 35/35/35 36/36/36 34/34/34
f 37/37/37 39/39/39 38/38/38
f 39/39/39 40/40/40 38/38/38
f 41/41/41 43/43/43 42/42/42
f 43/43/43 44/44/44 42/42/42
f 45/45/45 47/47/47 46/46/46
f 47/47/47 48/48/48 46/46/46
