# PRP_P0_Clothes_Hanger_A — Clothes hanger
# SC_P0_BEDROOM · group B
# bounds 0.40 × 0.02 × 0.18 m · 60 tris · UV island 16 × 8 px
# 1 unit = 1 m · pivot at floor contact, X/Z centred
mtllib PRP_P0_Clothes_Hanger_A.mtl
o bar
usemtl SURF_Metal_Lamp
v 0.20000000298023224 0.012000000104308128 0.006000000052154064
v 0.20000000298023224 0.012000000104308128 -0.006000000052154064
v 0.20000000298023224 0 0.006000000052154064
v 0.20000000298023224 0 -0.006000000052154064
v -0.20000000298023224 0.012000000104308128 -0.006000000052154064
v -0.20000000298023224 0.012000000104308128 0.006000000052154064
v -0.20000000298023224 0 -0.006000000052154064
v -0.20000000298023224 0 0.006000000052154064
v -0.20000000298023224 0.012000000104308128 -0.006000000052154064
v 0.20000000298023224 0.012000000104308128 -0.006000000052154064
v -0.20000000298023224 0.012000000104308128 0.006000000052154064
v 0.20000000298023224 0.012000000104308128 0.006000000052154064
v -0.20000000298023224 0 0.006000000052154064
v 0.20000000298023224 0 0.006000000052154064
v -0.20000000298023224 0 -0.006000000052154064
v 0.20000000298023224 0 -0.006000000052154064
v -0.20000000298023224 0.012000000104308128 0.006000000052154064
v 0.20000000298023224 0.012000000104308128 0.006000000052154064
v -0.20000000298023224 0 0.006000000052154064
v 0.20000000298023224 0 0.006000000052154064
v 0.20000000298023224 0.012000000104308128 -0.006000000052154064
v -0.20000000298023224 0.012000000104308128 -0.006000000052154064
v 0.20000000298023224 0 -0.006000000052154064
v -0.20000000298023224 0 -0.006000000052154064
vt 0 1
vt 1 1
vt 0 0
vt 1 0
vt 0 1
vt 1 1
vt 0 0
vt 1 0
vt 0 1
vt 1 1
vt 0 0
vt 1 0
vt 0 1
vt 1 1
vt 0 0
vt 1 0
vt 0 1
vt 1 1
vt 0 0
vt 1 0
vt 0 1
vt 1 1
vt 0 0
vt 1 0
vn 1 0 0
vn 1 0 0
vn 1 0 0
vn 1 0 0
vn -1 0 0
vn -1 0 0
vn -1 0 0
vn -1 0 0
vn 0 1 0
vn 0 1 0
vn 0 1 0
vn 0 1 0
vn 0 -1 0
vn 0 -1 0
vn 0 -1 0
vn 0 -1 0
vn 0 0 1
vn 0 0 1
vn 0 0 1
vn 0 0 1
vn 0 0 -1
vn 0 0 -1
vn 0 0 -1
vn 0 0 -1
f 1/1/1 3/3/3 2/2/2
f 3/3/3 4/4/4 2/2/2
f 5/5/5 7/7/7 6/6/6
f 7/7/7 8/8/8 6/6/6
f 9/9/9 11/11/11 10/10/10
f 11/11/11 12/12/12 10/10/10
f 13/13/13 15/15/15 14/14/14
f 15/15/15 16/16/16 14/14/14
f 17/17/17 19/19/19 18/18/18
f 19/19/19 20/20/20 18/18/18
f 21/21/21 23/23/23 22/22/22
f 23/23/23 24/24/24 22/22/22
o shoulder_l
usemtl SURF_Metal_Lamp
v -0.01113766734778443 0.10225457965521666 0.004000000189989805
v -0.01113766734778443 0.10225457965521666 -0.004000000189989805
v -0.006244541868536846 0.09129751227622636 0.004000000189989805
v -0.006244541868536846 0.09129751227622636 -0.004000000189989805
v -0.19375545813146317 0.020702487828081775 -0.004000000189989805
v -0.19375545813146317 0.020702487828081775 0.004000000189989805
v -0.18886233265221558 0.009745420449091477 -0.004000000189989805
v -0.18886233265221558 0.009745420449091477 0.004000000189989805
v -0.19375545813146317 0.020702487828081775 -0.004000000189989805
v -0.01113766734778443 0.10225457965521666 -0.004000000189989805
v -0.19375545813146317 0.020702487828081775 0.004000000189989805
v -0.01113766734778443 0.10225457965521666 0.004000000189989805
v -0.18886233265221558 0.009745420449091477 0.004000000189989805
v -0.006244541868536846 0.09129751227622636 0.004000000189989805
v -0.18886233265221558 0.009745420449091477 -0.004000000189989805
v -0.006244541868536846 0.09129751227622636 -0.004000000189989805
v -0.19375545813146317 0.020702487828081775 0.004000000189989805
v -0.01113766734778443 0.10225457965521666 0.004000000189989805
v -0.18886233265221558 0.009745420449091477 0.004000000189989805
v -0.006244541868536846 0.09129751227622636 0.004000000189989805
v -0.01113766734778443 0.10225457965521666 -0.004000000189989805
v -0.19375545813146317 0.020702487828081775 -0.004000000189989805
v -0.006244541868536846 0.09129751227622636 -0.004000000189989805
v -0.18886233265221558 0.009745420449091477 -0.004000000189989805
vt 0 1
vt 1 1
vt 0 0
vt 1 0
vt 0 1
vt 1 1
vt 0 0
vt 1 0
vt 0 1
vt 1 1
vt 0 0
vt 1 0
vt 0 1
vt 1 1
vt 0 0
vt 1 0
vt 0 1
vt 1 1
vt 0 0
vt 1 0
vt 0 1
vt 1 1
vt 0 0
vt 1 0
vn 0.9130889403123083 0.40776045305957015 0
vn 0.9130889403123083 0.40776045305957015 0
vn 0.9130889403123083 0.40776045305957015 0
vn 0.9130889403123083 0.40776045305957015 0
vn -0.9130889403123083 -0.40776045305957015 0
vn -0.9130889403123083 -0.40776045305957015 0
vn -0.9130889403123083 -0.40776045305957015 0
vn -0.9130889403123083 -0.40776045305957015 0
vn -0.40776045305957015 0.9130889403123083 0
vn -0.40776045305957015 0.9130889403123083 0
vn -0.40776045305957015 0.9130889403123083 0
vn -0.40776045305957015 0.9130889403123083 0
vn 0.40776045305957015 -0.9130889403123083 0
vn 0.40776045305957015 -0.9130889403123083 0
vn 0.40776045305957015 -0.9130889403123083 0
vn 0.40776045305957015 -0.9130889403123083 0
vn 0 0 1
vn 0 0 1
vn 0 0 1
vn 0 0 1
vn 0 0 -1
vn 0 0 -1
vn 0 0 -1
vn 0 0 -1
f 25/25/25 27/27/27 26/26/26
f 27/27/27 28/28/28 26/26/26
f 29/29/29 31/31/31 30/30/30
f 31/31/31 32/32/32 30/30/30
f 33/33/33 35/35/35 34/34/34
f 35/35/35 36/36/36 34/34/34
f 37/37/37 39/39/39 38/38/38
f 39/39/39 40/40/40 38/38/38
f 41/41/41 43/43/43 42/42/42
f 43/43/43 44/44/44 42/42/42
f 45/45/45 47/47/47 46/46/46
f 47/47/47 48/48/48 46/46/46
o shoulder_r
usemtl SURF_Metal_Lamp
v 0.19375545813146317 0.020702487828081775 0.004000000189989805
v 0.19375545813146317 0.020702487828081775 -0.004000000189989805
v 0.18886233265221558 0.009745420449091477 0.004000000189989805
v 0.18886233265221558 0.009745420449091477 -0.004000000189989805
v 0.01113766734778443 0.10225457965521666 -0.004000000189989805
v 0.01113766734778443 0.10225457965521666 0.004000000189989805
v 0.006244541868536846 0.09129751227622636 -0.004000000189989805
v 0.006244541868536846 0.09129751227622636 0.004000000189989805
v 0.01113766734778443 0.10225457965521666 -0.004000000189989805
v 0.19375545813146317 0.020702487828081775 -0.004000000189989805
v 0.01113766734778443 0.10225457965521666 0.004000000189989805
v 0.19375545813146317 0.020702487828081775 0.004000000189989805
v 0.006244541868536846 0.09129751227622636 0.004000000189989805
v 0.18886233265221558 0.009745420449091477 0.004000000189989805
v 0.006244541868536846 0.09129751227622636 -0.004000000189989805
v 0.18886233265221558 0.009745420449091477 -0.004000000189989805
v 0.01113766734778443 0.10225457965521666 0.004000000189989805
v 0.19375545813146317 0.020702487828081775 0.004000000189989805
v 0.006244541868536846 0.09129751227622636 0.004000000189989805
v 0.18886233265221558 0.009745420449091477 0.004000000189989805
v 0.19375545813146317 0.020702487828081775 -0.004000000189989805
v 0.01113766734778443 0.10225457965521666 -0.004000000189989805
v 0.18886233265221558 0.009745420449091477 -0.004000000189989805
v 0.006244541868536846 0.09129751227622636 -0.004000000189989805
vt 0 1
vt 1 1
vt 0 0
vt 1 0
vt 0 1
vt 1 1
vt 0 0
vt 1 0
vt 0 1
vt 1 1
vt 0 0
vt 1 0
vt 0 1
vt 1 1
vt 0 0
vt 1 0
vt 0 1
vt 1 1
vt 0 0
vt 1 0
vt 0 1
vt 1 1
vt 0 0
vt 1 0
vn 0.9130889403123083 -0.40776045305957015 0
vn 0.9130889403123083 -0.40776045305957015 0
vn 0.9130889403123083 -0.40776045305957015 0
vn 0.9130889403123083 -0.40776045305957015 0
vn -0.9130889403123083 0.40776045305957015 0
vn -0.9130889403123083 0.40776045305957015 0
vn -0.9130889403123083 0.40776045305957015 0
vn -0.9130889403123083 0.40776045305957015 0
vn 0.40776045305957015 0.9130889403123083 0
vn 0.40776045305957015 0.9130889403123083 0
vn 0.40776045305957015 0.9130889403123083 0
vn 0.40776045305957015 0.9130889403123083 0
vn -0.40776045305957015 -0.9130889403123083 0
vn -0.40776045305957015 -0.9130889403123083 0
vn -0.40776045305957015 -0.9130889403123083 0
vn -0.40776045305957015 -0.9130889403123083 0
vn 0 0 1
vn 0 0 1
vn 0 0 1
vn 0 0 1
vn 0 0 -1
vn 0 0 -1
vn 0 0 -1
vn 0 0 -1
f 49/49/49 51/51/51 50/50/50
f 51/51/51 52/52/52 50/50/50
f 53/53/53 55/55/55 54/54/54
f 55/55/55 56/56/56 54/54/54
f 57/57/57 59/59/59 58/58/58
f 59/59/59 60/60/60 58/58/58
f 61/61/61 63/63/63 62/62/62
f 63/63/63 64/64/64 62/62/62
f 65/65/65 67/67/67 66/66/66
f 67/67/67 68/68/68 66/66/66
f 69/69/69 71/71/71 70/70/70
f 71/71/71 72/72/72 70/70/70
o hook
usemtl SURF_Metal_Lamp
v 0 0.1810000018402934 0.00800000037997961
v 0.006928203161805868 0.1810000018402934 0.004000000189989805
v 0.006928203161805868 0.1810000018402934 -0.004000000189989805
v 9.797174737963282e-19 0.1810000018402934 -0.00800000037997961
v -0.006928203161805868 0.1810000018402934 -0.004000000189989805
v -0.006928203161805868 0.1810000018402934 0.004000000189989805
v -1.9594349475926563e-18 0.1810000018402934 0.00800000037997961
v 0 0.09099999826401473 0.00800000037997961
v 0.006928203161805868 0.09099999826401473 0.004000000189989805
v 0.006928203161805868 0.09099999826401473 -0.004000000189989805
v 9.797174737963282e-19 0.09099999826401473 -0.00800000037997961
v -0.006928203161805868 0.09099999826401473 -0.004000000189989805
v -0.006928203161805868 0.09099999826401473 0.004000000189989805
v -1.9594349475926563e-18 0.09099999826401473 0.00800000037997961
v 0 0.1810000018402934 0
v 0 0.1810000018402934 0
v 0 0.1810000018402934 0
v 0 0.1810000018402934 0
v 0 0.1810000018402934 0
v 0 0.1810000018402934 0
v 0 0.1810000018402934 0.00800000037997961
v 0.006928203161805868 0.1810000018402934 0.004000000189989805
v 0.006928203161805868 0.1810000018402934 -0.004000000189989805
v 9.797174737963282e-19 0.1810000018402934 -0.00800000037997961
v -0.006928203161805868 0.1810000018402934 -0.004000000189989805
v -0.006928203161805868 0.1810000018402934 0.004000000189989805
v -1.9594349475926563e-18 0.1810000018402934 0.00800000037997961
v 0 0.09099999826401473 0
v 0 0.09099999826401473 0
v 0 0.09099999826401473 0
v 0 0.09099999826401473 0
v 0 0.09099999826401473 0
v 0 0.09099999826401473 0
v 0 0.09099999826401473 0.00800000037997961
v 0.006928203161805868 0.09099999826401473 0.004000000189989805
v 0.006928203161805868 0.09099999826401473 -0.004000000189989805
v 9.797174737963282e-19 0.09099999826401473 -0.00800000037997961
v -0.006928203161805868 0.09099999826401473 -0.004000000189989805
v -0.006928203161805868 0.09099999826401473 0.004000000189989805
v -1.9594349475926563e-18 0.09099999826401473 0.00800000037997961
vt 0 1
vt 0.1666666716337204 1
vt 0.3333333432674408 1
vt 0.5 1
vt 0.6666666865348816 1
vt 0.8333333134651184 1
vt 1 1
vt 0 0
vt 0.1666666716337204 0
vt 0.3333333432674408 0
vt 0.5 0
vt 0.6666666865348816 0
vt 0.8333333134651184 0
vt 1 0
vt 0.5 0.5
vt 0.5 0.5
vt 0.5 0.5
vt 0.5 0.5
vt 0.5 0.5
vt 0.5 0.5
vt 1 0.5
vt 0.75 0.9330127239227295
vt 0.25 0.9330127239227295
vt 0 0.5
vt 0.25 0.0669872984290123
vt 0.75 0.0669872984290123
vt 1 0.5
vt 0.5 0.5
vt 0.5 0.5
vt 0.5 0.5
vt 0.5 0.5
vt 0.5 0.5
vt 0.5 0.5
vt 1 0.5
vt 0.75 0.0669872984290123
vt 0.25 0.0669872984290123
vt 0 0.5
vt 0.25 0.9330127239227295
vt 0.75 0.9330127239227295
vt 1 0.5
vn 0 0 1
vn 0.8660253998985324 0 0.5000000067305869
vn 0.8660253998985324 0 -0.5000000067305869
vn 1.2246468525851679e-16 0 -1
vn -0.8660253998985324 0 -0.5000000067305869
vn -0.8660253998985324 0 0.5000000067305869
vn -2.4492937051703357e-16 0 1
vn 0 0 1
vn 0.8660253998985324 0 0.5000000067305869
vn 0.8660253998985324 0 -0.5000000067305869
vn 1.2246468525851679e-16 0 -1
vn -0.8660253998985324 0 -0.5000000067305869
vn -0.8660253998985324 0 0.5000000067305869
vn -2.4492937051703357e-16 0 1
vn 0 1 0
vn 0 1 0
vn 0 1 0
vn 0 1 0
vn 0 1 0
vn 0 1 0
vn 0 1 0
vn 0 1 0
vn 0 1 0
vn 0 1 0
vn 0 1 0
vn 0 1 0
vn 0 1 0
vn 0 -1 0
vn 0 -1 0
vn 0 -1 0
vn 0 -1 0
vn 0 -1 0
vn 0 -1 0
vn 0 -1 0
vn 0 -1 0
vn 0 -1 0
vn 0 -1 0
vn 0 -1 0
vn 0 -1 0
vn 0 -1 0
f 73/73/73 80/80/80 74/74/74
f 80/80/80 81/81/81 74/74/74
f 74/74/74 81/81/81 75/75/75
f 81/81/81 82/82/82 75/75/75
f 75/75/75 82/82/82 76/76/76
f 82/82/82 83/83/83 76/76/76
f 76/76/76 83/83/83 77/77/77
f 83/83/83 84/84/84 77/77/77
f 77/77/77 84/84/84 78/78/78
f 84/84/84 85/85/85 78/78/78
f 78/78/78 85/85/85 79/79/79
f 85/85/85 86/86/86 79/79/79
f 93/93/93 94/94/94 87/87/87
f 94/94/94 95/95/95 88/88/88
f 95/95/95 96/96/96 89/89/89
f 96/96/96 97/97/97 90/90/90
f 97/97/97 98/98/98 91/91/91
f 98/98/98 99/99/99 92/92/92
f 107/107/107 106/106/106 100/100/100
f 108/108/108 107/107/107 101/101/101
f 109/109/109 108/108/108 102/102/102
f 110/110/110 109/109/109 103/103/103
f 111/111/111 110/110/110 104/104/104
f 112/112/112 111/111/111 105/105/105
