# SM_P0_Rug_Rect_A — Rug
# SC_P0_BEDROOM · group A
# bounds 1.60 × 1.10 × 0.00 m · 4 tris · UV island 72 × 72 px
# 1 unit = 1 m · pivot at floor contact, X/Z centred
mtllib SM_P0_Rug_Rect_A.mtl
o rug_field
usemtl SURF_Rug_Fabric
v -0.800000011920929 1.7346970061972054e-19 -0.5500000119209291
v 0.800000011920929 1.7346970061972054e-19 -0.5500000119209291
v -0.800000011920929 2.444225404121101e-16 0.5500000119209291
v 0.800000011920929 2.444225404121101e-16 0.5500000119209291
vt 0 1
vt 1 1
vt 0 0
vt 1 0
vn 0 1 -2.2204460492503126e-16
vn 0 1 -2.2204460492503126e-16
vn 0 1 -2.2204460492503126e-16
vn 0 1 -2.2204460492503126e-16
f 1/1/1 3/3/3 2/2/2
f 3/3/3 4/4/4 2/2/2
o rug_border
usemtl SURF_Wood_Dark
v -0.75 0.004000000000000011 -0.5000000000000001
v 0.75 0.004000000000000011 -0.5000000000000001
v -0.75 0.004000000000000233 0.5000000000000001
v 0.75 0.004000000000000233 0.5000000000000001
vt 0 1
vt 1 1
vt 0 0
vt 1 0
vn 0 1 -2.2204460492503126e-16
vn 0 1 -2.2204460492503126e-16
vn 0 1 -2.2204460492503126e-16
vn 0 1 -2.2204460492503126e-16
f 5/5/5 7/7/7 6/6/6
f 7/7/7 8/8/8 6/6/6
