# SM_P0_Wall_B — Wall B — side wall
# SC_P0_BEDROOM · group A
# bounds 3.60 × 0.10 × 2.60 m · 12 tris · UV island 120 × 120 px
# 1 unit = 1 m · pivot at floor contact, X/Z centred
mtllib SM_P0_Wall_B.mtl
o wall_body
usemtl SURF_Wall_Paint
v 1.7999999523162842 2.5999999046325684 0.05000000074505806
v 1.7999999523162842 2.5999999046325684 -0.05000000074505806
v 1.7999999523162842 0 0.05000000074505806
v 1.7999999523162842 0 -0.05000000074505806
v -1.7999999523162842 2.5999999046325684 -0.05000000074505806
v -1.7999999523162842 2.5999999046325684 0.05000000074505806
v -1.7999999523162842 0 -0.05000000074505806
v -1.7999999523162842 0 0.05000000074505806
v -1.7999999523162842 2.5999999046325684 -0.05000000074505806
v 1.7999999523162842 2.5999999046325684 -0.05000000074505806
v -1.7999999523162842 2.5999999046325684 0.05000000074505806
v 1.7999999523162842 2.5999999046325684 0.05000000074505806
v -1.7999999523162842 0 0.05000000074505806
v 1.7999999523162842 0 0.05000000074505806
v -1.7999999523162842 0 -0.05000000074505806
v 1.7999999523162842 0 -0.05000000074505806
v -1.7999999523162842 2.5999999046325684 0.05000000074505806
v 1.7999999523162842 2.5999999046325684 0.05000000074505806
v -1.7999999523162842 0 0.05000000074505806
v 1.7999999523162842 0 0.05000000074505806
v 1.7999999523162842 2.5999999046325684 -0.05000000074505806
v -1.7999999523162842 2.5999999046325684 -0.05000000074505806
v 1.7999999523162842 0 -0.05000000074505806
v -1.7999999523162842 0 -0.05000000074505806
vt 0 1
vt 1 1
vt 0 0
vt 1 0
vt 0 1
vt 1 1
vt 0 0
vt 1 0
vt 0 1
vt 1 1
vt 0 0
vt 1 0
vt 0 1
vt 1 1
vt 0 0
vt 1 0
vt 0 1
vt 1 1
vt 0 0
vt 1 0
vt 0 1
vt 1 1
vt 0 0
vt 1 0
vn 1 0 0
vn 1 0 0
vn 1 0 0
vn 1 0 0
vn -1 0 0
vn -1 0 0
vn -1 0 0
vn -1 0 0
vn 0 1 0
vn 0 1 0
vn 0 1 0
vn 0 1 0
vn 0 -1 0
vn 0 -1 0
vn 0 -1 0
vn 0 -1 0
vn 0 0 1
vn 0 0 1
vn 0 0 1
vn 0 0 1
vn 0 0 -1
vn 0 0 -1
vn 0 0 -1
vn 0 0 -1
f 1/1/1 3/3/3 2/2/2
f 3/3/3 4/4/4 2/2/2
f 5/5/5 7/7/7 6/6/6
f 7/7/7 8/8/8 6/6/6
f 9/9/9 11/11/11 10/10/10
f 11/11/11 12/12/12 10/10/10
f 13/13/13 15/15/15 14/14/14
f 15/15/15 16/16/16 14/14/14
f 17/17/17 19/19/19 18/18/18
f 19/19/19 20/20/20 18/18/18
f 21/21/21 23/23/23 22/22/22
f 23/23/23 24/24/24 22/22/22
