# SM_P0_Desk_A — Desk
# SC_P0_BEDROOM · group A
# bounds 1.20 × 0.61 × 0.74 m · 116 tris · UV island 64 × 56 px
# 1 unit = 1 m · pivot at floor contact, X/Z centred
mtllib SM_P0_Desk_A.mtl
o top_slab
usemtl SURF_Wood_Furniture
v 0.6000000238418579 0.7399999935925007 0.29400001782923935
v 0.6000000238418579 0.7399999935925007 -0.30600000601261856
v 0.6000000238418579 0.6999999944865704 0.29400001782923935
v 0.6000000238418579 0.6999999944865704 -0.30600000601261856
v -0.6000000238418579 0.7399999935925007 -0.30600000601261856
v -0.6000000238418579 0.7399999935925007 0.29400001782923935
v -0.6000000238418579 0.6999999944865704 -0.30600000601261856
v -0.6000000238418579 0.6999999944865704 0.29400001782923935
v -0.6000000238418579 0.7399999935925007 -0.30600000601261856
v 0.6000000238418579 0.7399999935925007 -0.30600000601261856
v -0.6000000238418579 0.7399999935925007 0.29400001782923935
v 0.6000000238418579 0.7399999935925007 0.29400001782923935
v -0.6000000238418579 0.6999999944865704 0.29400001782923935
v 0.6000000238418579 0.6999999944865704 0.29400001782923935
v -0.6000000238418579 0.6999999944865704 -0.30600000601261856
v 0.6000000238418579 0.6999999944865704 -0.30600000601261856
v -0.6000000238418579 0.7399999935925007 0.29400001782923935
v 0.6000000238418579 0.7399999935925007 0.29400001782923935
v -0.6000000238418579 0.6999999944865704 0.29400001782923935
v 0.6000000238418579 0.6999999944865704 0.29400001782923935
v 0.6000000238418579 0.7399999935925007 -0.30600000601261856
v -0.6000000238418579 0.7399999935925007 -0.30600000601261856
v 0.6000000238418579 0.6999999944865704 -0.30600000601261856
v -0.6000000238418579 0.6999999944865704 -0.30600000601261856
vt 0 1
vt 1 1
vt 0 0
vt 1 0
vt 0 1
vt 1 1
vt 0 0
vt 1 0
vt 0 1
vt 1 1
vt 0 0
vt 1 0
vt 0 1
vt 1 1
vt 0 0
vt 1 0
vt 0 1
vt 1 1
vt 0 0
vt 1 0
vt 0 1
vt 1 1
vt 0 0
vt 1 0
vn 1 0 0
vn 1 0 0
vn 1 0 0
vn 1 0 0
vn -1 0 0
vn -1 0 0
vn -1 0 0
vn -1 0 0
vn 0 1 0
vn 0 1 0
vn 0 1 0
vn 0 1 0
vn 0 -1 0
vn 0 -1 0
vn 0 -1 0
vn 0 -1 0
vn 0 0 1
vn 0 0 1
vn 0 0 1
vn 0 0 1
vn 0 0 -1
vn 0 0 -1
vn 0 0 -1
vn 0 0 -1
f 1/1/1 3/3/3 2/2/2
f 3/3/3 4/4/4 2/2/2
f 5/5/5 7/7/7 6/6/6
f 7/7/7 8/8/8 6/6/6
f 9/9/9 11/11/11 10/10/10
f 11/11/11 12/12/12 10/10/10
f 13/13/13 15/15/15 14/14/14
f 15/15/15 16/16/16 14/14/14
f 17/17/17 19/19/19 18/18/18
f 19/19/19 20/20/20 18/18/18
f 21/21/21 23/23/23 22/22/22
f 23/23/23 24/24/24 22/22/22
o apron_back
usemtl SURF_Wood_Furniture
v 0.5699999928474426 0.6999999931454659 -0.27599999431520705
v 0.5699999928474426 0.6999999931454659 -0.2959999938681722
v 0.5699999928474426 0.6199999949336052 -0.27599999431520705
v 0.5699999928474426 0.6199999949336052 -0.2959999938681722
v -0.5699999928474426 0.6999999931454659 -0.2959999938681722
v -0.5699999928474426 0.6999999931454659 -0.27599999431520705
v -0.5699999928474426 0.6199999949336052 -0.2959999938681722
v -0.5699999928474426 0.6199999949336052 -0.27599999431520705
v -0.5699999928474426 0.6999999931454659 -0.2959999938681722
v 0.5699999928474426 0.6999999931454659 -0.2959999938681722
v -0.5699999928474426 0.6999999931454659 -0.27599999431520705
v 0.5699999928474426 0.6999999931454659 -0.27599999431520705
v -0.5699999928474426 0.6199999949336052 -0.27599999431520705
v 0.5699999928474426 0.6199999949336052 -0.27599999431520705
v -0.5699999928474426 0.6199999949336052 -0.2959999938681722
v 0.5699999928474426 0.6199999949336052 -0.2959999938681722
v -0.5699999928474426 0.6999999931454659 -0.27599999431520705
v 0.5699999928474426 0.6999999931454659 -0.27599999431520705
v -0.5699999928474426 0.6199999949336052 -0.27599999431520705
v 0.5699999928474426 0.6199999949336052 -0.27599999431520705
v 0.5699999928474426 0.6999999931454659 -0.2959999938681722
v -0.5699999928474426 0.6999999931454659 -0.2959999938681722
v 0.5699999928474426 0.6199999949336052 -0.2959999938681722
v -0.5699999928474426 0.6199999949336052 -0.2959999938681722
vt 0 1
vt 1 1
vt 0 0
vt 1 0
vt 0 1
vt 1 1
vt 0 0
vt 1 0
vt 0 1
vt 1 1
vt 0 0
vt 1 0
vt 0 1
vt 1 1
vt 0 0
vt 1 0
vt 0 1
vt 1 1
vt 0 0
vt 1 0
vt 0 1
vt 1 1
vt 0 0
vt 1 0
vn 1 0 0
vn 1 0 0
vn 1 0 0
vn 1 0 0
vn -1 0 0
vn -1 0 0
vn -1 0 0
vn -1 0 0
vn 0 1 0
vn 0 1 0
vn 0 1 0
vn 0 1 0
vn 0 -1 0
vn 0 -1 0
vn 0 -1 0
vn 0 -1 0
vn 0 0 1
vn 0 0 1
vn 0 0 1
vn 0 0 1
vn 0 0 -1
vn 0 0 -1
vn 0 0 -1
vn 0 0 -1
f 25/25/25 27/27/27 26/26/26
f 27/27/27 28/28/28 26/26/26
f 29/29/29 31/31/31 30/30/30
f 31/31/31 32/32/32 30/30/30
f 33/33/33 35/35/35 34/34/34
f 35/35/35 36/36/36 34/34/34
f 37/37/37 39/39/39 38/38/38
f 39/39/39 40/40/40 38/38/38
f 41/41/41 43/43/43 42/42/42
f 43/43/43 44/44/44 42/42/42
f 45/45/45 47/47/47 46/46/46
f 47/47/47 48/48/48 46/46/46
o leg_panel_l
usemtl SURF_Wood_Furniture
v -0.5600000003352761 0.699999988079071 0.2740000071004033
v -0.5600000003352761 0.699999988079071 -0.2859999952837825
v -0.5600000003352761 0 0.2740000071004033
v -0.5600000003352761 0 -0.2859999952837825
v -0.5899999996647238 0.699999988079071 -0.2859999952837825
v -0.5899999996647238 0.699999988079071 0.2740000071004033
v -0.5899999996647238 0 -0.2859999952837825
v -0.5899999996647238 0 0.2740000071004033
v -0.5899999996647238 0.699999988079071 -0.2859999952837825
v -0.5600000003352761 0.699999988079071 -0.2859999952837825
v -0.5899999996647238 0.699999988079071 0.2740000071004033
v -0.5600000003352761 0.699999988079071 0.2740000071004033
v -0.5899999996647238 0 0.2740000071004033
v -0.5600000003352761 0 0.2740000071004033
v -0.5899999996647238 0 -0.2859999952837825
v -0.5600000003352761 0 -0.2859999952837825
v -0.5899999996647238 0.699999988079071 0.2740000071004033
v -0.5600000003352761 0.699999988079071 0.2740000071004033
v -0.5899999996647238 0 0.2740000071004033
v -0.5600000003352761 0 0.2740000071004033
v -0.5600000003352761 0.699999988079071 -0.2859999952837825
v -0.5899999996647238 0.699999988079071 -0.2859999952837825
v -0.5600000003352761 0 -0.2859999952837825
v -0.5899999996647238 0 -0.2859999952837825
vt 0 1
vt 1 1
vt 0 0
vt 1 0
vt 0 1
vt 1 1
vt 0 0
vt 1 0
vt 0 1
vt 1 1
vt 0 0
vt 1 0
vt 0 1
vt 1 1
vt 0 0
vt 1 0
vt 0 1
vt 1 1
vt 0 0
vt 1 0
vt 0 1
vt 1 1
vt 0 0
vt 1 0
vn 1 0 0
vn 1 0 0
vn 1 0 0
vn 1 0 0
vn -1 0 0
vn -1 0 0
vn -1 0 0
vn -1 0 0
vn 0 1 0
vn 0 1 0
vn 0 1 0
vn 0 1 0
vn 0 -1 0
vn 0 -1 0
vn 0 -1 0
vn 0 -1 0
vn 0 0 1
vn 0 0 1
vn 0 0 1
vn 0 0 1
vn 0 0 -1
vn 0 0 -1
vn 0 0 -1
vn 0 0 -1
f 49/49/49 51/51/51 50/50/50
f 51/51/51 52/52/52 50/50/50
f 53/53/53 55/55/55 54/54/54
f 55/55/55 56/56/56 54/54/54
f 57/57/57 59/59/59 58/58/58
f 59/59/59 60/60/60 58/58/58
f 61/61/61 63/63/63 62/62/62
f 63/63/63 64/64/64 62/62/62
f 65/65/65 67/67/67 66/66/66
f 67/67/67 68/68/68 66/66/66
f 69/69/69 71/71/71 70/70/70
f 71/71/71 72/72/72 70/70/70
o leg_panel_r
usemtl SURF_Wood_Furniture
v 0.5899999996647238 0.699999988079071 0.2740000071004033
v 0.5899999996647238 0.699999988079071 -0.2859999952837825
v 0.5899999996647238 0 0.2740000071004033
v 0.5899999996647238 0 -0.2859999952837825
v 0.5600000003352761 0.699999988079071 -0.2859999952837825
v 0.5600000003352761 0.699999988079071 0.2740000071004033
v 0.5600000003352761 0 -0.2859999952837825
v 0.5600000003352761 0 0.2740000071004033
v 0.5600000003352761 0.699999988079071 -0.2859999952837825
v 0.5899999996647238 0.699999988079071 -0.2859999952837825
v 0.5600000003352761 0.699999988079071 0.2740000071004033
v 0.5899999996647238 0.699999988079071 0.2740000071004033
v 0.5600000003352761 0 0.2740000071004033
v 0.5899999996647238 0 0.2740000071004033
v 0.5600000003352761 0 -0.2859999952837825
v 0.5899999996647238 0 -0.2859999952837825
v 0.5600000003352761 0.699999988079071 0.2740000071004033
v 0.5899999996647238 0.699999988079071 0.2740000071004033
v 0.5600000003352761 0 0.2740000071004033
v 0.5899999996647238 0 0.2740000071004033
v 0.5899999996647238 0.699999988079071 -0.2859999952837825
v 0.5600000003352761 0.699999988079071 -0.2859999952837825
v 0.5899999996647238 0 -0.2859999952837825
v 0.5600000003352761 0 -0.2859999952837825
vt 0 1
vt 1 1
vt 0 0
vt 1 0
vt 0 1
vt 1 1
vt 0 0
vt 1 0
vt 0 1
vt 1 1
vt 0 0
vt 1 0
vt 0 1
vt 1 1
vt 0 0
vt 1 0
vt 0 1
vt 1 1
vt 0 0
vt 1 0
vt 0 1
vt 1 1
vt 0 0
vt 1 0
vn 1 0 0
vn 1 0 0
vn 1 0 0
vn 1 0 0
vn -1 0 0
vn -1 0 0
vn -1 0 0
vn -1 0 0
vn 0 1 0
vn 0 1 0
vn 0 1 0
vn 0 1 0
vn 0 -1 0
vn 0 -1 0
vn 0 -1 0
vn 0 -1 0
vn 0 0 1
vn 0 0 1
vn 0 0 1
vn 0 0 1
vn 0 0 -1
vn 0 0 -1
vn 0 0 -1
vn 0 0 -1
f 73/73/73 75/75/75 74/74/74
f 75/75/75 76/76/76 74/74/74
f 77/77/77 79/79/79 78/78/78
f 79/79/79 80/80/80 78/78/78
f 81/81/81 83/83/83 82/82/82
f 83/83/83 84/84/84 82/82/82
f 85/85/85 87/87/87 86/86/86
f 87/87/87 88/88/88 86/86/86
f 89/89/89 91/91/91 90/90/90
f 91/91/91 92/92/92 90/90/90
f 93/93/93 95/95/95 94/94/94
f 95/95/95 96/96/96 94/94/94
o drawer_box
usemtl SURF_Wood_Furniture
v -0.12000000655651094 0.6799999943375588 0.2640000059083104
v -0.12000000655651094 0.6799999943375588 -0.2359999940916896
v -0.12000000655651094 0.5399999937415123 0.2640000059083104
v -0.12000000655651094 0.5399999937415123 -0.2359999940916896
v -0.5399999934434891 0.6799999943375588 -0.2359999940916896
v -0.5399999934434891 0.6799999943375588 0.2640000059083104
v -0.5399999934434891 0.5399999937415123 -0.2359999940916896
v -0.5399999934434891 0.5399999937415123 0.2640000059083104
v -0.5399999934434891 0.6799999943375588 -0.2359999940916896
v -0.12000000655651094 0.6799999943375588 -0.2359999940916896
v -0.5399999934434891 0.6799999943375588 0.2640000059083104
v -0.12000000655651094 0.6799999943375588 0.2640000059083104
v -0.5399999934434891 0.5399999937415123 0.2640000059083104
v -0.12000000655651094 0.5399999937415123 0.2640000059083104
v -0.5399999934434891 0.5399999937415123 -0.2359999940916896
v -0.12000000655651094 0.5399999937415123 -0.2359999940916896
v -0.5399999934434891 0.6799999943375588 0.2640000059083104
v -0.12000000655651094 0.6799999943375588 0.2640000059083104
v -0.5399999934434891 0.5399999937415123 0.2640000059083104
v -0.12000000655651094 0.5399999937415123 0.2640000059083104
v -0.12000000655651094 0.6799999943375588 -0.2359999940916896
v -0.5399999934434891 0.6799999943375588 -0.2359999940916896
v -0.12000000655651094 0.5399999937415123 -0.2359999940916896
v -0.5399999934434891 0.5399999937415123 -0.2359999940916896
vt 0 1
vt 1 1
vt 0 0
vt 1 0
vt 0 1
vt 1 1
vt 0 0
vt 1 0
vt 0 1
vt 1 1
vt 0 0
vt 1 0
vt 0 1
vt 1 1
vt 0 0
vt 1 0
vt 0 1
vt 1 1
vt 0 0
vt 1 0
vt 0 1
vt 1 1
vt 0 0
vt 1 0
vn 1 0 0
vn 1 0 0
vn 1 0 0
vn 1 0 0
vn -1 0 0
vn -1 0 0
vn -1 0 0
vn -1 0 0
vn 0 1 0
vn 0 1 0
vn 0 1 0
vn 0 1 0
vn 0 -1 0
vn 0 -1 0
vn 0 -1 0
vn 0 -1 0
vn 0 0 1
vn 0 0 1
vn 0 0 1
vn 0 0 1
vn 0 0 -1
vn 0 0 -1
vn 0 0 -1
vn 0 0 -1
f 97/97/97 99/99/99 98/98/98
f 99/99/99 100/100/100 98/98/98
f 101/101/101 103/103/103 102/102/102
f 103/103/103 104/104/104 102/102/102
f 105/105/105 107/107/107 106/106/106
f 107/107/107 108/108/108 106/106/106
f 109/109/109 111/111/111 110/110/110
f 111/111/111 112/112/112 110/110/110
f 113/113/113 115/115/115 114/114/114
f 115/115/115 116/116/116 114/114/114
f 117/117/117 119/119/119 118/118/118
f 119/119/119 120/120/120 118/118/118
o drawer_front
usemtl SURF_Wood_Dark
v -0.12000000655651094 0.6799999943375588 0.28200000628829003
v -0.12000000655651094 0.6799999943375588 0.2660000055283308
v -0.12000000655651094 0.5399999937415123 0.28200000628829003
v -0.12000000655651094 0.5399999937415123 0.2660000055283308
v -0.5399999934434891 0.6799999943375588 0.2660000055283308
v -0.5399999934434891 0.6799999943375588 0.28200000628829003
v -0.5399999934434891 0.5399999937415123 0.2660000055283308
v -0.5399999934434891 0.5399999937415123 0.28200000628829003
v -0.5399999934434891 0.6799999943375588 0.2660000055283308
v -0.12000000655651094 0.6799999943375588 0.2660000055283308
v -0.5399999934434891 0.6799999943375588 0.28200000628829003
v -0.12000000655651094 0.6799999943375588 0.28200000628829003
v -0.5399999934434891 0.5399999937415123 0.28200000628829003
v -0.12000000655651094 0.5399999937415123 0.28200000628829003
v -0.5399999934434891 0.5399999937415123 0.2660000055283308
v -0.12000000655651094 0.5399999937415123 0.2660000055283308
v -0.5399999934434891 0.6799999943375588 0.28200000628829003
v -0.12000000655651094 0.6799999943375588 0.28200000628829003
v -0.5399999934434891 0.5399999937415123 0.28200000628829003
v -0.12000000655651094 0.5399999937415123 0.28200000628829003
v -0.12000000655651094 0.6799999943375588 0.2660000055283308
v -0.5399999934434891 0.6799999943375588 0.2660000055283308
v -0.12000000655651094 0.5399999937415123 0.2660000055283308
v -0.5399999934434891 0.5399999937415123 0.2660000055283308
vt 0 1
vt 1 1
vt 0 0
vt 1 0
vt 0 1
vt 1 1
vt 0 0
vt 1 0
vt 0 1
vt 1 1
vt 0 0
vt 1 0
vt 0 1
vt 1 1
vt 0 0
vt 1 0
vt 0 1
vt 1 1
vt 0 0
vt 1 0
vt 0 1
vt 1 1
vt 0 0
vt 1 0
vn 1 0 0
vn 1 0 0
vn 1 0 0
vn 1 0 0
vn -1 0 0
vn -1 0 0
vn -1 0 0
vn -1 0 0
vn 0 1 0
vn 0 1 0
vn 0 1 0
vn 0 1 0
vn 0 -1 0
vn 0 -1 0
vn 0 -1 0
vn 0 -1 0
vn 0 0 1
vn 0 0 1
vn 0 0 1
vn 0 0 1
vn 0 0 -1
vn 0 0 -1
vn 0 0 -1
vn 0 0 -1
f 121/121/121 123/123/123 122/122/122
f 123/123/123 124/124/124 122/122/122
f 125/125/125 127/127/127 126/126/126
f 127/127/127 128/128/128 126/126/126
f 129/129/129 131/131/131 130/130/130
f 131/131/131 132/132/132 130/130/130
f 133/133/133 135/135/135 134/134/134
f 135/135/135 136/136/136 134/134/134
f 137/137/137 139/139/139 138/138/138
f 139/139/139 140/140/140 138/138/138
f 141/141/141 143/143/143 142/142/142
f 143/143/143 144/144/144 142/142/142
o drawer_pull
usemtl SURF_Metal_Lamp
v -0.3800000007450581 0.6099999940395355 0.30600000601261856
v -0.3800000007450581 0.6184852749481797 0.30248528681695463
v -0.3800000007450581 0.6219999941438437 0.29400000590831044
v -0.3800000007450581 0.6184852749481797 0.28551472499966624
v -0.3800000007450581 0.6099999940395355 0.2820000058040023
v -0.3800000007450581 0.6015147131308913 0.28551472499966624
v -0.3800000007450581 0.5979999939352274 0.29400000590831044
v -0.3800000007450581 0.6015147131308913 0.30248528681695463
v -0.3800000007450581 0.6099999940395355 0.30600000601261856
v -0.27999999925494196 0.6099999940395355 0.30600000601261856
v -0.27999999925494196 0.6184852749481797 0.30248528681695463
v -0.27999999925494196 0.6219999941438437 0.29400000590831044
v -0.27999999925494196 0.6184852749481797 0.28551472499966624
v -0.27999999925494196 0.6099999940395355 0.2820000058040023
v -0.27999999925494196 0.6015147131308913 0.28551472499966624
v -0.27999999925494196 0.5979999939352274 0.29400000590831044
v -0.27999999925494196 0.6015147131308913 0.30248528681695463
v -0.27999999925494196 0.6099999940395355 0.30600000601261856
v -0.3800000007450581 0.6099999940395355 0.29400000590831044
v -0.3800000007450581 0.6099999940395355 0.29400000590831044
v -0.3800000007450581 0.6099999940395355 0.29400000590831044
v -0.3800000007450581 0.6099999940395355 0.29400000590831044
v -0.3800000007450581 0.6099999940395355 0.29400000590831044
v -0.3800000007450581 0.6099999940395355 0.29400000590831044
v -0.3800000007450581 0.6099999940395355 0.29400000590831044
v -0.3800000007450581 0.6099999940395355 0.29400000590831044
v -0.3800000007450581 0.6099999940395355 0.30600000601261856
v -0.3800000007450581 0.6184852749481797 0.30248528681695463
v -0.3800000007450581 0.6219999941438437 0.29400000590831044
v -0.3800000007450581 0.6184852749481797 0.28551472499966624
v -0.3800000007450581 0.6099999940395355 0.2820000058040023
v -0.3800000007450581 0.6015147131308913 0.28551472499966624
v -0.3800000007450581 0.5979999939352274 0.29400000590831044
v -0.3800000007450581 0.6015147131308913 0.30248528681695463
v -0.3800000007450581 0.6099999940395355 0.30600000601261856
v -0.27999999925494196 0.6099999940395355 0.29400000590831044
v -0.27999999925494196 0.6099999940395355 0.29400000590831044
v -0.27999999925494196 0.6099999940395355 0.29400000590831044
v -0.27999999925494196 0.6099999940395355 0.29400000590831044
v -0.27999999925494196 0.6099999940395355 0.29400000590831044
v -0.27999999925494196 0.6099999940395355 0.29400000590831044
v -0.27999999925494196 0.6099999940395355 0.29400000590831044
v -0.27999999925494196 0.6099999940395355 0.29400000590831044
v -0.27999999925494196 0.6099999940395355 0.30600000601261856
v -0.27999999925494196 0.6184852749481797 0.30248528681695463
v -0.27999999925494196 0.6219999941438437 0.29400000590831044
v -0.27999999925494196 0.6184852749481797 0.28551472499966624
v -0.27999999925494196 0.6099999940395355 0.2820000058040023
v -0.27999999925494196 0.6015147131308913 0.28551472499966624
v -0.27999999925494196 0.5979999939352274 0.29400000590831044
v -0.27999999925494196 0.6015147131308913 0.30248528681695463
v -0.27999999925494196 0.6099999940395355 0.30600000601261856
vt 0 1
vt 0.125 1
vt 0.25 1
vt 0.375 1
vt 0.5 1
vt 0.625 1
vt 0.75 1
vt 0.875 1
vt 1 1
vt 0 0
vt 0.125 0
vt 0.25 0
vt 0.375 0
vt 0.5 0
vt 0.625 0
vt 0.75 0
vt 0.875 0
vt 1 0
vt 0.5 0.5
vt 0.5 0.5
vt 0.5 0.5
vt 0.5 0.5
vt 0.5 0.5
vt 0.5 0.5
vt 0.5 0.5
vt 0.5 0.5
vt 1 0.5
vt 0.8535534143447876 0.8535534143447876
vt 0.5 1
vt 0.1464466154575348 0.8535534143447876
vt 0 0.5
vt 0.1464466154575348 0.1464466154575348
vt 0.5 0
vt 0.8535534143447876 0.1464466154575348
vt 1 0.5
vt 0.5 0.5
vt 0.5 0.5
vt 0.5 0.5
vt 0.5 0.5
vt 0.5 0.5
vt 0.5 0.5
vt 0.5 0.5
vt 0.5 0.5
vt 1 0.5
vt 0.8535534143447876 0.1464466154575348
vt 0.5 0
vt 0.1464466154575348 0.1464466154575348
vt 0 0.5
vt 0.1464466154575348 0.8535534143447876
vt 0.5 1
vt 0.8535534143447876 0.8535534143447876
vt 1 0.5
vn 0 0 1
vn -1.5700924586837744e-16 0.7071067811865475 0.7071067811865476
vn -2.2204460492503126e-16 1 6.12323426292584e-17
vn -1.5700924586837744e-16 0.7071067811865475 -0.7071067811865476
vn -2.7192622655495654e-32 1.2246468525851676e-16 -1
vn 1.5700924586837744e-16 -0.7071067811865475 -0.7071067811865476
vn 2.2204460492503126e-16 -1 -1.8369701465288543e-16
vn 1.5700924586837744e-16 -0.7071067811865475 0.7071067811865476
vn 5.438524531099131e-32 -2.449293705170335e-16 1
vn 0 0 1
vn -1.5700924586837744e-16 0.7071067811865475 0.7071067811865476
vn -2.2204460492503126e-16 1 6.12323426292584e-17
vn -1.5700924586837744e-16 0.7071067811865475 -0.7071067811865476
vn -2.7192622655495654e-32 1.2246468525851676e-16 -1
vn 1.5700924586837744e-16 -0.7071067811865475 -0.7071067811865476
vn 2.2204460492503126e-16 -1 -1.8369701465288543e-16
vn 1.5700924586837744e-16 -0.7071067811865475 0.7071067811865476
vn 5.438524531099131e-32 -2.449293705170335e-16 1
vn -1 -2.2204460492503126e-16 0
vn -1 -2.2204460492503126e-16 0
vn -1 -2.2204460492503126e-16 0
vn -1 -2.2204460492503126e-16 0
vn -1 -2.2204460492503126e-16 0
vn -1 -2.2204460492503126e-16 0
vn -1 -2.2204460492503126e-16 0
vn -1 -2.2204460492503126e-16 0
vn -1 -2.2204460492503126e-16 0
vn -1 -2.2204460492503126e-16 0
vn -1 -2.2204460492503126e-16 0
vn -1 -2.2204460492503126e-16 0
vn -1 -2.2204460492503126e-16 0
vn -1 -2.2204460492503126e-16 0
vn -1 -2.2204460492503126e-16 0
vn -1 -2.2204460492503126e-16 0
vn -1 -2.2204460492503126e-16 0
vn 1 2.2204460492503126e-16 0
vn 1 2.2204460492503126e-16 0
vn 1 2.2204460492503126e-16 0
vn 1 2.2204460492503126e-16 0
vn 1 2.2204460492503126e-16 0
vn 1 2.2204460492503126e-16 0
vn 1 2.2204460492503126e-16 0
vn 1 2.2204460492503126e-16 0
vn 1 2.2204460492503126e-16 0
vn 1 2.2204460492503126e-16 0
vn 1 2.2204460492503126e-16 0
vn 1 2.2204460492503126e-16 0
vn 1 2.2204460492503126e-16 0
vn 1 2.2204460492503126e-16 0
vn 1 2.2204460492503126e-16 0
vn 1 2.2204460492503126e-16 0
vn 1 2.2204460492503126e-16 0
f 145/145/145 154/154/154 146/146/146
f 154/154/154 155/155/155 146/146/146
f 146/146/146 155/155/155 147/147/147
f 155/155/155 156/156/156 147/147/147
f 147/147/147 156/156/156 148/148/148
f 156/156/156 157/157/157 148/148/148
f 148/148/148 157/157/157 149/149/149
f 157/157/157 158/158/158 149/149/149
f 149/149/149 158/158/158 150/150/150
f 158/158/158 159/159/159 150/150/150
f 150/150/150 159/159/159 151/151/151
f 159/159/159 160/160/160 151/151/151
f 151/151/151 160/160/160 152/152/152
f 160/160/160 161/161/161 152/152/152
f 152/152/152 161/161/161 153/153/153
f 161/161/161 162/162/162 153/153/153
f 171/171/171 172/172/172 163/163/163
f 172/172/172 173/173/173 164/164/164
f 173/173/173 174/174/174 165/165/165
f 174/174/174 175/175/175 166/166/166
f 175/175/175 176/176/176 167/167/167
f 176/176/176 177/177/177 168/168/168
f 177/177/177 178/178/178 169/169/169
f 178/178/178 179/179/179 170/170/170
f 189/189/189 188/188/188 180/180/180
f 190/190/190 189/189/189 181/181/181
f 191/191/191 190/190/190 182/182/182
f 192/192/192 191/191/191 183/183/183
f 193/193/193 192/192/192 184/184/184
f 194/194/194 193/193/193 185/185/185
f 195/195/195 194/194/194 186/186/186
f 196/196/196 195/195/195 187/187/187
o foot_rail
usemtl SURF_Wood_Furniture
v 0.550000011920929 0.08499999441206457 -0.2309999944269657
v 0.550000011920929 0.08499999441206457 -0.2609999937564135
v 0.550000011920929 0.03499999366700651 -0.2309999944269657
v 0.550000011920929 0.03499999366700651 -0.2609999937564135
v -0.550000011920929 0.08499999441206457 -0.2609999937564135
v -0.550000011920929 0.08499999441206457 -0.2309999944269657
v -0.550000011920929 0.03499999366700651 -0.2609999937564135
v -0.550000011920929 0.03499999366700651 -0.2309999944269657
v -0.550000011920929 0.08499999441206457 -0.2609999937564135
v 0.550000011920929 0.08499999441206457 -0.2609999937564135
v -0.550000011920929 0.08499999441206457 -0.2309999944269657
v 0.550000011920929 0.08499999441206457 -0.2309999944269657
v -0.550000011920929 0.03499999366700651 -0.2309999944269657
v 0.550000011920929 0.03499999366700651 -0.2309999944269657
v -0.550000011920929 0.03499999366700651 -0.2609999937564135
v 0.550000011920929 0.03499999366700651 -0.2609999937564135
v -0.550000011920929 0.08499999441206457 -0.2309999944269657
v 0.550000011920929 0.08499999441206457 -0.2309999944269657
v -0.550000011920929 0.03499999366700651 -0.2309999944269657
v 0.550000011920929 0.03499999366700651 -0.2309999944269657
v 0.550000011920929 0.08499999441206457 -0.2609999937564135
v -0.550000011920929 0.08499999441206457 -0.2609999937564135
v 0.550000011920929 0.03499999366700651 -0.2609999937564135
v -0.550000011920929 0.03499999366700651 -0.2609999937564135
vt 0 1
vt 1 1
vt 0 0
vt 1 0
vt 0 1
vt 1 1
vt 0 0
vt 1 0
vt 0 1
vt 1 1
vt 0 0
vt 1 0
vt 0 1
vt 1 1
vt 0 0
vt 1 0
vt 0 1
vt 1 1
vt 0 0
vt 1 0
vt 0 1
vt 1 1
vt 0 0
vt 1 0
vn 1 0 0
vn 1 0 0
vn 1 0 0
vn 1 0 0
vn -1 0 0
vn -1 0 0
vn -1 0 0
vn -1 0 0
vn 0 1 0
vn 0 1 0
vn 0 1 0
vn 0 1 0
vn 0 -1 0
vn 0 -1 0
vn 0 -1 0
vn 0 -1 0
vn 0 0 1
vn 0 0 1
vn 0 0 1
vn 0 0 1
vn 0 0 -1
vn 0 0 -1
vn 0 0 -1
vn 0 0 -1
f 197/197/197 199/199/199 198/198/198
f 199/199/199 200/200/200 198/198/198
f 201/201/201 203/203/203 202/202/202
f 203/203/203 204/204/204 202/202/202
f 205/205/205 207/207/207 206/206/206
f 207/207/207 208/208/208 206/206/206
f 209/209/209 211/211/211 210/210/210
f 211/211/211 212/212/212 210/210/210
f 213/213/213 215/215/215 214/214/214
f 215/215/215 216/216/216 214/214/214
f 217/217/217 219/219/219 218/218/218
f 219/219/219 220/220/220 218/218/218
