# SM_P0_Chair_A — Chair
# SC_P0_BEDROOM · group A
# bounds 0.45 × 0.44 × 0.92 m · 168 tris · UV island 40 × 32 px
# 1 unit = 1 m · pivot at floor contact, X/Z centred
mtllib SM_P0_Chair_A.mtl
o seat_pan
usemtl SURF_Wood_Furniture
v 0.22499999403953552 0.45749999351799486 0.2199999988079071
v 0.22499999403953552 0.45749999351799486 -0.2199999988079071
v 0.22499999403953552 0.42249999336898325 0.2199999988079071
v 0.22499999403953552 0.42249999336898325 -0.2199999988079071
v -0.22499999403953552 0.45749999351799486 -0.2199999988079071
v -0.22499999403953552 0.45749999351799486 0.2199999988079071
v -0.22499999403953552 0.42249999336898325 -0.2199999988079071
v -0.22499999403953552 0.42249999336898325 0.2199999988079071
v -0.22499999403953552 0.45749999351799486 -0.2199999988079071
v 0.22499999403953552 0.45749999351799486 -0.2199999988079071
v -0.22499999403953552 0.45749999351799486 0.2199999988079071
v 0.22499999403953552 0.45749999351799486 0.2199999988079071
v -0.22499999403953552 0.42249999336898325 0.2199999988079071
v 0.22499999403953552 0.42249999336898325 0.2199999988079071
v -0.22499999403953552 0.42249999336898325 -0.2199999988079071
v 0.22499999403953552 0.42249999336898325 -0.2199999988079071
v -0.22499999403953552 0.45749999351799486 0.2199999988079071
v 0.22499999403953552 0.45749999351799486 0.2199999988079071
v -0.22499999403953552 0.42249999336898325 0.2199999988079071
v 0.22499999403953552 0.42249999336898325 0.2199999988079071
v 0.22499999403953552 0.45749999351799486 -0.2199999988079071
v -0.22499999403953552 0.45749999351799486 -0.2199999988079071
v 0.22499999403953552 0.42249999336898325 -0.2199999988079071
v -0.22499999403953552 0.42249999336898325 -0.2199999988079071
vt 0 1
vt 1 1
vt 0 0
vt 1 0
vt 0 1
vt 1 1
vt 0 0
vt 1 0
vt 0 1
vt 1 1
vt 0 0
vt 1 0
vt 0 1
vt 1 1
vt 0 0
vt 1 0
vt 0 1
vt 1 1
vt 0 0
vt 1 0
vt 0 1
vt 1 1
vt 0 0
vt 1 0
vn 1 0 0
vn 1 0 0
vn 1 0 0
vn 1 0 0
vn -1 0 0
vn -1 0 0
vn -1 0 0
vn -1 0 0
vn 0 1 0
vn 0 1 0
vn 0 1 0
vn 0 1 0
vn 0 -1 0
vn 0 -1 0
vn 0 -1 0
vn 0 -1 0
vn 0 0 1
vn 0 0 1
vn 0 0 1
vn 0 0 1
vn 0 0 -1
vn 0 0 -1
vn 0 0 -1
vn 0 0 -1
f 1/1/1 3/3/3 2/2/2
f 3/3/3 4/4/4 2/2/2
f 5/5/5 7/7/7 6/6/6
f 7/7/7 8/8/8 6/6/6
f 9/9/9 11/11/11 10/10/10
f 11/11/11 12/12/12 10/10/10
f 13/13/13 15/15/15 14/14/14
f 15/15/15 16/16/16 14/14/14
f 17/17/17 19/19/19 18/18/18
f 19/19/19 20/20/20 18/18/18
f 21/21/21 23/23/23 22/22/22
f 23/23/23 24/24/24 22/22/22
o back_rest
usemtl SURF_Wood_Furniture
v 0.20999999344348907 0.9199999964237213 -0.18500000033527614
v 0.20999999344348907 0.9199999964237213 -0.21499999966472388
v 0.20999999344348907 0.5199999904632568 -0.18500000033527614
v 0.20999999344348907 0.5199999904632568 -0.21499999966472388
v -0.20999999344348907 0.9199999964237213 -0.21499999966472388
v -0.20999999344348907 0.9199999964237213 -0.18500000033527614
v -0.20999999344348907 0.5199999904632568 -0.21499999966472388
v -0.20999999344348907 0.5199999904632568 -0.18500000033527614
v -0.20999999344348907 0.9199999964237213 -0.21499999966472388
v 0.20999999344348907 0.9199999964237213 -0.21499999966472388
v -0.20999999344348907 0.9199999964237213 -0.18500000033527614
v 0.20999999344348907 0.9199999964237213 -0.18500000033527614
v -0.20999999344348907 0.5199999904632568 -0.18500000033527614
v 0.20999999344348907 0.5199999904632568 -0.18500000033527614
v -0.20999999344348907 0.5199999904632568 -0.21499999966472388
v 0.20999999344348907 0.5199999904632568 -0.21499999966472388
v -0.20999999344348907 0.9199999964237213 -0.18500000033527614
v 0.20999999344348907 0.9199999964237213 -0.18500000033527614
v -0.20999999344348907 0.5199999904632568 -0.18500000033527614
v 0.20999999344348907 0.5199999904632568 -0.18500000033527614
v 0.20999999344348907 0.9199999964237213 -0.21499999966472388
v -0.20999999344348907 0.9199999964237213 -0.21499999966472388
v 0.20999999344348907 0.5199999904632568 -0.21499999966472388
v -0.20999999344348907 0.5199999904632568 -0.21499999966472388
vt 0 1
vt 1 1
vt 0 0
vt 1 0
vt 0 1
vt 1 1
vt 0 0
vt 1 0
vt 0 1
vt 1 1
vt 0 0
vt 1 0
vt 0 1
vt 1 1
vt 0 0
vt 1 0
vt 0 1
vt 1 1
vt 0 0
vt 1 0
vt 0 1
vt 1 1
vt 0 0
vt 1 0
vn 1 0 0
vn 1 0 0
vn 1 0 0
vn 1 0 0
vn -1 0 0
vn -1 0 0
vn -1 0 0
vn -1 0 0
vn 0 1 0
vn 0 1 0
vn 0 1 0
vn 0 1 0
vn 0 -1 0
vn 0 -1 0
vn 0 -1 0
vn 0 -1 0
vn 0 0 1
vn 0 0 1
vn 0 0 1
vn 0 0 1
vn 0 0 -1
vn 0 0 -1
vn 0 0 -1
vn 0 0 -1
f 25/25/25 27/27/27 26/26/26
f 27/27/27 28/28/28 26/26/26
f 29/29/29 31/31/31 30/30/30
f 31/31/31 32/32/32 30/30/30
f 33/33/33 35/35/35 34/34/34
f 35/35/35 36/36/36 34/34/34
f 37/37/37 39/39/39 38/38/38
f 39/39/39 40/40/40 38/38/38
f 41/41/41 43/43/43 42/42/42
f 43/43/43 44/44/44 42/42/42
f 45/45/45 47/47/47 46/46/46
f 47/47/47 48/48/48 46/46/46
o back_post_l
usemtl SURF_Wood_Furniture
v -0.1724999999254942 0.9199999934434892 -0.1824999999254942
v -0.1724999999254942 0.9199999934434892 -0.21750000007450582
v -0.1724999999254942 0.41999999344348915 -0.1824999999254942
v -0.1724999999254942 0.41999999344348915 -0.21750000007450582
v -0.2075000000745058 0.9199999934434892 -0.21750000007450582
v -0.2075000000745058 0.9199999934434892 -0.1824999999254942
v -0.2075000000745058 0.41999999344348915 -0.21750000007450582
v -0.2075000000745058 0.41999999344348915 -0.1824999999254942
v -0.2075000000745058 0.9199999934434892 -0.21750000007450582
v -0.1724999999254942 0.9199999934434892 -0.21750000007450582
v -0.2075000000745058 0.9199999934434892 -0.1824999999254942
v -0.1724999999254942 0.9199999934434892 -0.1824999999254942
v -0.2075000000745058 0.41999999344348915 -0.1824999999254942
v -0.1724999999254942 0.41999999344348915 -0.1824999999254942
v -0.2075000000745058 0.41999999344348915 -0.21750000007450582
v -0.1724999999254942 0.41999999344348915 -0.21750000007450582
v -0.2075000000745058 0.9199999934434892 -0.1824999999254942
v -0.1724999999254942 0.9199999934434892 -0.1824999999254942
v -0.2075000000745058 0.41999999344348915 -0.1824999999254942
v -0.1724999999254942 0.41999999344348915 -0.1824999999254942
v -0.1724999999254942 0.9199999934434892 -0.21750000007450582
v -0.2075000000745058 0.9199999934434892 -0.21750000007450582
v -0.1724999999254942 0.41999999344348915 -0.21750000007450582
v -0.2075000000745058 0.41999999344348915 -0.21750000007450582
vt 0 1
vt 1 1
vt 0 0
vt 1 0
vt 0 1
vt 1 1
vt 0 0
vt 1 0
vt 0 1
vt 1 1
vt 0 0
vt 1 0
vt 0 1
vt 1 1
vt 0 0
vt 1 0
vt 0 1
vt 1 1
vt 0 0
vt 1 0
vt 0 1
vt 1 1
vt 0 0
vt 1 0
vn 1 0 0
vn 1 0 0
vn 1 0 0
vn 1 0 0
vn -1 0 0
vn -1 0 0
vn -1 0 0
vn -1 0 0
vn 0 1 0
vn 0 1 0
vn 0 1 0
vn 0 1 0
vn 0 -1 0
vn 0 -1 0
vn 0 -1 0
vn 0 -1 0
vn 0 0 1
vn 0 0 1
vn 0 0 1
vn 0 0 1
vn 0 0 -1
vn 0 0 -1
vn 0 0 -1
vn 0 0 -1
f 49/49/49 51/51/51 50/50/50
f 51/51/51 52/52/52 50/50/50
f 53/53/53 55/55/55 54/54/54
f 55/55/55 56/56/56 54/54/54
f 57/57/57 59/59/59 58/58/58
f 59/59/59 60/60/60 58/58/58
f 61/61/61 63/63/63 62/62/62
f 63/63/63 64/64/64 62/62/62
f 65/65/65 67/67/67 66/66/66
f 67/67/67 68/68/68 66/66/66
f 69/69/69 71/71/71 70/70/70
f 71/71/71 72/72/72 70/70/70
o back_post_r
usemtl SURF_Wood_Furniture
v 0.2075000000745058 0.9199999934434892 -0.1824999999254942
v 0.2075000000745058 0.9199999934434892 -0.21750000007450582
v 0.2075000000745058 0.41999999344348915 -0.1824999999254942
v 0.2075000000745058 0.41999999344348915 -0.21750000007450582
v 0.1724999999254942 0.9199999934434892 -0.21750000007450582
v 0.1724999999254942 0.9199999934434892 -0.1824999999254942
v 0.1724999999254942 0.41999999344348915 -0.21750000007450582
v 0.1724999999254942 0.41999999344348915 -0.1824999999254942
v 0.1724999999254942 0.9199999934434892 -0.21750000007450582
v 0.2075000000745058 0.9199999934434892 -0.21750000007450582
v 0.1724999999254942 0.9199999934434892 -0.1824999999254942
v 0.2075000000745058 0.9199999934434892 -0.1824999999254942
v 0.1724999999254942 0.41999999344348915 -0.1824999999254942
v 0.2075000000745058 0.41999999344348915 -0.1824999999254942
v 0.1724999999254942 0.41999999344348915 -0.21750000007450582
v 0.2075000000745058 0.41999999344348915 -0.21750000007450582
v 0.1724999999254942 0.9199999934434892 -0.1824999999254942
v 0.2075000000745058 0.9199999934434892 -0.1824999999254942
v 0.1724999999254942 0.41999999344348915 -0.1824999999254942
v 0.2075000000745058 0.41999999344348915 -0.1824999999254942
v 0.2075000000745058 0.9199999934434892 -0.21750000007450582
v 0.1724999999254942 0.9199999934434892 -0.21750000007450582
v 0.2075000000745058 0.41999999344348915 -0.21750000007450582
v 0.1724999999254942 0.41999999344348915 -0.21750000007450582
vt 0 1
vt 1 1
vt 0 0
vt 1 0
vt 0 1
vt 1 1
vt 0 0
vt 1 0
vt 0 1
vt 1 1
vt 0 0
vt 1 0
vt 0 1
vt 1 1
vt 0 0
vt 1 0
vt 0 1
vt 1 1
vt 0 0
vt 1 0
vt 0 1
vt 1 1
vt 0 0
vt 1 0
vn 1 0 0
vn 1 0 0
vn 1 0 0
vn 1 0 0
vn -1 0 0
vn -1 0 0
vn -1 0 0
vn -1 0 0
vn 0 1 0
vn 0 1 0
vn 0 1 0
vn 0 1 0
vn 0 -1 0
vn 0 -1 0
vn 0 -1 0
vn 0 -1 0
vn 0 0 1
vn 0 0 1
vn 0 0 1
vn 0 0 1
vn 0 0 -1
vn 0 0 -1
vn 0 0 -1
vn 0 0 -1
f 73/73/73 75/75/75 74/74/74
f 75/75/75 76/76/76 74/74/74
f 77/77/77 79/79/79 78/78/78
f 79/79/79 80/80/80 78/78/78
f 81/81/81 83/83/83 82/82/82
f 83/83/83 84/84/84 82/82/82
f 85/85/85 87/87/87 86/86/86
f 87/87/87 88/88/88 86/86/86
f 89/89/89 91/91/91 90/90/90
f 91/91/91 92/92/92 90/90/90
f 93/93/93 95/95/95 94/94/94
f 95/95/95 96/96/96 94/94/94
o leg_0
usemtl SURF_Wood_Furniture
v -0.19 0.41999998688697815 -0.17000000044703484
v -0.1726794918626547 0.41999998688697815 -0.18000000022351742
v -0.1726794918626547 0.41999998688697815 -0.19999999977648258
v -0.19 0.41999998688697815 -0.20999999955296517
v -0.20732050813734532 0.41999998688697815 -0.19999999977648258
v -0.20732050813734532 0.41999998688697815 -0.18000000022351742
v -0.19 0.41999998688697815 -0.17000000044703484
v -0.19 0 -0.16599999979138375
v -0.16921539098024369 0 -0.17799999989569187
v -0.16921539098024369 0 -0.20200000010430813
v -0.19 0 -0.21400000020861626
v -0.21078460901975632 0 -0.20200000010430813
v -0.21078460901975632 0 -0.17799999989569187
v -0.19 0 -0.16599999979138375
v -0.19 0.41999998688697815 -0.19
v -0.19 0.41999998688697815 -0.19
v -0.19 0.41999998688697815 -0.19
v -0.19 0.41999998688697815 -0.19
v -0.19 0.41999998688697815 -0.19
v -0.19 0.41999998688697815 -0.19
v -0.19 0.41999998688697815 -0.17000000044703484
v -0.1726794918626547 0.41999998688697815 -0.18000000022351742
v -0.1726794918626547 0.41999998688697815 -0.19999999977648258
v -0.19 0.41999998688697815 -0.20999999955296517
v -0.20732050813734532 0.41999998688697815 -0.19999999977648258
v -0.20732050813734532 0.41999998688697815 -0.18000000022351742
v -0.19 0.41999998688697815 -0.17000000044703484
v -0.19 0 -0.19
v -0.19 0 -0.19
v -0.19 0 -0.19
v -0.19 0 -0.19
v -0.19 0 -0.19
v -0.19 0 -0.19
v -0.19 0 -0.16599999979138375
v -0.16921539098024369 0 -0.17799999989569187
v -0.16921539098024369 0 -0.20200000010430813
v -0.19 0 -0.21400000020861626
v -0.21078460901975632 0 -0.20200000010430813
v -0.21078460901975632 0 -0.17799999989569187
v -0.19 0 -0.16599999979138375
vt 0 1
vt 0.1666666716337204 1
vt 0.3333333432674408 1
vt 0.5 1
vt 0.6666666865348816 1
vt 0.8333333134651184 1
vt 1 1
vt 0 0
vt 0.1666666716337204 0
vt 0.3333333432674408 0
vt 0.5 0
vt 0.6666666865348816 0
vt 0.8333333134651184 0
vt 1 0
vt 0.5 0.5
vt 0.5 0.5
vt 0.5 0.5
vt 0.5 0.5
vt 0.5 0.5
vt 0.5 0.5
vt 1 0.5
vt 0.75 0.9330127239227295
vt 0.25 0.9330127239227295
vt 0 0.5
vt 0.25 0.0669872984290123
vt 0.75 0.0669872984290123
vt 1 0.5
vt 0.5 0.5
vt 0.5 0.5
vt 0.5 0.5
vt 0.5 0.5
vt 0.5 0.5
vt 0.5 0.5
vt 1 0.5
vt 0.75 0.0669872984290123
vt 0.25 0.0669872984290123
vt 0 0.5
vt 0.25 0.9330127239227295
vt 0.75 0.9330127239227295
vt 1 0.5
vn 0 0.009523377856113631 0.9999546516088667
vn 0.8659861277144203 0.009523377962019844 0.49997733136450934
vn 0.8659861277144203 0.009523377962019844 -0.49997733136450934
vn 1.2245912792050473e-16 0.009523377856113631 -0.9999546516088667
vn -0.8659861277144203 0.009523377962019844 -0.49997733136450934
vn -0.8659861277144203 0.009523377962019844 0.49997733136450934
vn -2.4491825584100946e-16 0.009523377856113631 0.9999546516088667
vn 0 0.009523377856113631 0.9999546516088667
vn 0.8659861277144203 0.009523377962019844 0.49997733136450934
vn 0.8659861277144203 0.009523377962019844 -0.49997733136450934
vn 1.2245912792050473e-16 0.009523377856113631 -0.9999546516088667
vn -0.8659861277144203 0.009523377962019844 -0.49997733136450934
vn -0.8659861277144203 0.009523377962019844 0.49997733136450934
vn -2.4491825584100946e-16 0.009523377856113631 0.9999546516088667
vn 0 1 0
vn 0 1 0
vn 0 1 0
vn 0 1 0
vn 0 1 0
vn 0 1 0
vn 0 1 0
vn 0 1 0
vn 0 1 0
vn 0 1 0
vn 0 1 0
vn 0 1 0
vn 0 1 0
vn 0 -1 0
vn 0 -1 0
vn 0 -1 0
vn 0 -1 0
vn 0 -1 0
vn 0 -1 0
vn 0 -1 0
vn 0 -1 0
vn 0 -1 0
vn 0 -1 0
vn 0 -1 0
vn 0 -1 0
vn 0 -1 0
f 97/97/97 104/104/104 98/98/98
f 104/104/104 105/105/105 98/98/98
f 98/98/98 105/105/105 99/99/99
f 105/105/105 106/106/106 99/99/99
f 99/99/99 106/106/106 100/100/100
f 106/106/106 107/107/107 100/100/100
f 100/100/100 107/107/107 101/101/101
f 107/107/107 108/108/108 101/101/101
f 101/101/101 108/108/108 102/102/102
f 108/108/108 109/109/109 102/102/102
f 102/102/102 109/109/109 103/103/103
f 109/109/109 110/110/110 103/103/103
f 117/117/117 118/118/118 111/111/111
f 118/118/118 119/119/119 112/112/112
f 119/119/119 120/120/120 113/113/113
f 120/120/120 121/121/121 114/114/114
f 121/121/121 122/122/122 115/115/115
f 122/122/122 123/123/123 116/116/116
f 131/131/131 130/130/130 124/124/124
f 132/132/132 131/131/131 125/125/125
f 133/133/133 132/132/132 126/126/126
f 134/134/134 133/133/133 127/127/127
f 135/135/135 134/134/134 128/128/128
f 136/136/136 135/135/135 129/129/129
o leg_1
usemtl SURF_Wood_Furniture
v 0.19 0.41999998688697815 -0.17000000044703484
v 0.20732050813734532 0.41999998688697815 -0.18000000022351742
v 0.20732050813734532 0.41999998688697815 -0.19999999977648258
v 0.19 0.41999998688697815 -0.20999999955296517
v 0.1726794918626547 0.41999998688697815 -0.19999999977648258
v 0.1726794918626547 0.41999998688697815 -0.18000000022351742
v 0.19 0.41999998688697815 -0.17000000044703484
v 0.19 0 -0.16599999979138375
v 0.21078460901975632 0 -0.17799999989569187
v 0.21078460901975632 0 -0.20200000010430813
v 0.19 0 -0.21400000020861626
v 0.16921539098024369 0 -0.20200000010430813
v 0.16921539098024369 0 -0.17799999989569187
v 0.19 0 -0.16599999979138375
v 0.19 0.41999998688697815 -0.19
v 0.19 0.41999998688697815 -0.19
v 0.19 0.41999998688697815 -0.19
v 0.19 0.41999998688697815 -0.19
v 0.19 0.41999998688697815 -0.19
v 0.19 0.41999998688697815 -0.19
v 0.19 0.41999998688697815 -0.17000000044703484
v 0.20732050813734532 0.41999998688697815 -0.18000000022351742
v 0.20732050813734532 0.41999998688697815 -0.19999999977648258
v 0.19 0.41999998688697815 -0.20999999955296517
v 0.1726794918626547 0.41999998688697815 -0.19999999977648258
v 0.1726794918626547 0.41999998688697815 -0.18000000022351742
v 0.19 0.41999998688697815 -0.17000000044703484
v 0.19 0 -0.19
v 0.19 0 -0.19
v 0.19 0 -0.19
v 0.19 0 -0.19
v 0.19 0 -0.19
v 0.19 0 -0.19
v 0.19 0 -0.16599999979138375
v 0.21078460901975632 0 -0.17799999989569187
v 0.21078460901975632 0 -0.20200000010430813
v 0.19 0 -0.21400000020861626
v 0.16921539098024369 0 -0.20200000010430813
v 0.16921539098024369 0 -0.17799999989569187
v 0.19 0 -0.16599999979138375
vt 0 1
vt 0.1666666716337204 1
vt 0.3333333432674408 1
vt 0.5 1
vt 0.6666666865348816 1
vt 0.8333333134651184 1
vt 1 1
vt 0 0
vt 0.1666666716337204 0
vt 0.3333333432674408 0
vt 0.5 0
vt 0.6666666865348816 0
vt 0.8333333134651184 0
vt 1 0
vt 0.5 0.5
vt 0.5 0.5
vt 0.5 0.5
vt 0.5 0.5
vt 0.5 0.5
vt 0.5 0.5
vt 1 0.5
vt 0.75 0.9330127239227295
vt 0.25 0.9330127239227295
vt 0 0.5
vt 0.25 0.0669872984290123
vt 0.75 0.0669872984290123
vt 1 0.5
vt 0.5 0.5
vt 0.5 0.5
vt 0.5 0.5
vt 0.5 0.5
vt 0.5 0.5
vt 0.5 0.5
vt 1 0.5
vt 0.75 0.0669872984290123
vt 0.25 0.0669872984290123
vt 0 0.5
vt 0.25 0.9330127239227295
vt 0.75 0.9330127239227295
vt 1 0.5
vn 0 0.009523377856113631 0.9999546516088667
vn 0.8659861277144203 0.009523377962019844 0.49997733136450934
vn 0.8659861277144203 0.009523377962019844 -0.49997733136450934
vn 1.2245912792050473e-16 0.009523377856113631 -0.9999546516088667
vn -0.8659861277144203 0.009523377962019844 -0.49997733136450934
vn -0.8659861277144203 0.009523377962019844 0.49997733136450934
vn -2.4491825584100946e-16 0.009523377856113631 0.9999546516088667
vn 0 0.009523377856113631 0.9999546516088667
vn 0.8659861277144203 0.009523377962019844 0.49997733136450934
vn 0.8659861277144203 0.009523377962019844 -0.49997733136450934
vn 1.2245912792050473e-16 0.009523377856113631 -0.9999546516088667
vn -0.8659861277144203 0.009523377962019844 -0.49997733136450934
vn -0.8659861277144203 0.009523377962019844 0.49997733136450934
vn -2.4491825584100946e-16 0.009523377856113631 0.9999546516088667
vn 0 1 0
vn 0 1 0
vn 0 1 0
vn 0 1 0
vn 0 1 0
vn 0 1 0
vn 0 1 0
vn 0 1 0
vn 0 1 0
vn 0 1 0
vn 0 1 0
vn 0 1 0
vn 0 1 0
vn 0 -1 0
vn 0 -1 0
vn 0 -1 0
vn 0 -1 0
vn 0 -1 0
vn 0 -1 0
vn 0 -1 0
vn 0 -1 0
vn 0 -1 0
vn 0 -1 0
vn 0 -1 0
vn 0 -1 0
vn 0 -1 0
f 137/137/137 144/144/144 138/138/138
f 144/144/144 145/145/145 138/138/138
f 138/138/138 145/145/145 139/139/139
f 145/145/145 146/146/146 139/139/139
f 139/139/139 146/146/146 140/140/140
f 146/146/146 147/147/147 140/140/140
f 140/140/140 147/147/147 141/141/141
f 147/147/147 148/148/148 141/141/141
f 141/141/141 148/148/148 142/142/142
f 148/148/148 149/149/149 142/142/142
f 142/142/142 149/149/149 143/143/143
f 149/149/149 150/150/150 143/143/143
f 157/157/157 158/158/158 151/151/151
f 158/158/158 159/159/159 152/152/152
f 159/159/159 160/160/160 153/153/153
f 160/160/160 161/161/161 154/154/154
f 161/161/161 162/162/162 155/155/155
f 162/162/162 163/163/163 156/156/156
f 171/171/171 170/170/170 164/164/164
f 172/172/172 171/171/171 165/165/165
f 173/173/173 172/172/172 166/166/166
f 174/174/174 173/173/173 167/167/167
f 175/175/175 174/174/174 168/168/168
f 176/176/176 175/175/175 169/169/169
o leg_2
usemtl SURF_Wood_Furniture
v -0.19 0.41999998688697815 0.20999999955296517
v -0.1726794918626547 0.41999998688697815 0.19999999977648258
v -0.1726794918626547 0.41999998688697815 0.18000000022351742
v -0.19 0.41999998688697815 0.17000000044703484
v -0.20732050813734532 0.41999998688697815 0.18000000022351742
v -0.20732050813734532 0.41999998688697815 0.19999999977648258
v -0.19 0.41999998688697815 0.20999999955296517
v -0.19 0 0.21400000020861626
v -0.16921539098024369 0 0.20200000010430813
v -0.16921539098024369 0 0.17799999989569187
v -0.19 0 0.16599999979138375
v -0.21078460901975632 0 0.17799999989569187
v -0.21078460901975632 0 0.20200000010430813
v -0.19 0 0.21400000020861626
v -0.19 0.41999998688697815 0.19
v -0.19 0.41999998688697815 0.19
v -0.19 0.41999998688697815 0.19
v -0.19 0.41999998688697815 0.19
v -0.19 0.41999998688697815 0.19
v -0.19 0.41999998688697815 0.19
v -0.19 0.41999998688697815 0.20999999955296517
v -0.1726794918626547 0.41999998688697815 0.19999999977648258
v -0.1726794918626547 0.41999998688697815 0.18000000022351742
v -0.19 0.41999998688697815 0.17000000044703484
v -0.20732050813734532 0.41999998688697815 0.18000000022351742
v -0.20732050813734532 0.41999998688697815 0.19999999977648258
v -0.19 0.41999998688697815 0.20999999955296517
v -0.19 0 0.19
v -0.19 0 0.19
v -0.19 0 0.19
v -0.19 0 0.19
v -0.19 0 0.19
v -0.19 0 0.19
v -0.19 0 0.21400000020861626
v -0.16921539098024369 0 0.20200000010430813
v -0.16921539098024369 0 0.17799999989569187
v -0.19 0 0.16599999979138375
v -0.21078460901975632 0 0.17799999989569187
v -0.21078460901975632 0 0.20200000010430813
v -0.19 0 0.21400000020861626
vt 0 1
vt 0.1666666716337204 1
vt 0.3333333432674408 1
vt 0.5 1
vt 0.6666666865348816 1
vt 0.8333333134651184 1
vt 1 1
vt 0 0
vt 0.1666666716337204 0
vt 0.3333333432674408 0
vt 0.5 0
vt 0.6666666865348816 0
vt 0.8333333134651184 0
vt 1 0
vt 0.5 0.5
vt 0.5 0.5
vt 0.5 0.5
vt 0.5 0.5
vt 0.5 0.5
vt 0.5 0.5
vt 1 0.5
vt 0.75 0.9330127239227295
vt 0.25 0.9330127239227295
vt 0 0.5
vt 0.25 0.0669872984290123
vt 0.75 0.0669872984290123
vt 1 0.5
vt 0.5 0.5
vt 0.5 0.5
vt 0.5 0.5
vt 0.5 0.5
vt 0.5 0.5
vt 0.5 0.5
vt 1 0.5
vt 0.75 0.0669872984290123
vt 0.25 0.0669872984290123
vt 0 0.5
vt 0.25 0.9330127239227295
vt 0.75 0.9330127239227295
vt 1 0.5
vn 0 0.009523377856113631 0.9999546516088667
vn 0.8659861277144203 0.009523377962019844 0.49997733136450934
vn 0.8659861277144203 0.009523377962019844 -0.49997733136450934
vn 1.2245912792050473e-16 0.009523377856113631 -0.9999546516088667
vn -0.8659861277144203 0.009523377962019844 -0.49997733136450934
vn -0.8659861277144203 0.009523377962019844 0.49997733136450934
vn -2.4491825584100946e-16 0.009523377856113631 0.9999546516088667
vn 0 0.009523377856113631 0.9999546516088667
vn 0.8659861277144203 0.009523377962019844 0.49997733136450934
vn 0.8659861277144203 0.009523377962019844 -0.49997733136450934
vn 1.2245912792050473e-16 0.009523377856113631 -0.9999546516088667
vn -0.8659861277144203 0.009523377962019844 -0.49997733136450934
vn -0.8659861277144203 0.009523377962019844 0.49997733136450934
vn -2.4491825584100946e-16 0.009523377856113631 0.9999546516088667
vn 0 1 0
vn 0 1 0
vn 0 1 0
vn 0 1 0
vn 0 1 0
vn 0 1 0
vn 0 1 0
vn 0 1 0
vn 0 1 0
vn 0 1 0
vn 0 1 0
vn 0 1 0
vn 0 1 0
vn 0 -1 0
vn 0 -1 0
vn 0 -1 0
vn 0 -1 0
vn 0 -1 0
vn 0 -1 0
vn 0 -1 0
vn 0 -1 0
vn 0 -1 0
vn 0 -1 0
vn 0 -1 0
vn 0 -1 0
vn 0 -1 0
f 177/177/177 184/184/184 178/178/178
f 184/184/184 185/185/185 178/178/178
f 178/178/178 185/185/185 179/179/179
f 185/185/185 186/186/186 179/179/179
f 179/179/179 186/186/186 180/180/180
f 186/186/186 187/187/187 180/180/180
f 180/180/180 187/187/187 181/181/181
f 187/187/187 188/188/188 181/181/181
f 181/181/181 188/188/188 182/182/182
f 188/188/188 189/189/189 182/182/182
f 182/182/182 189/189/189 183/183/183
f 189/189/189 190/190/190 183/183/183
f 197/197/197 198/198/198 191/191/191
f 198/198/198 199/199/199 192/192/192
f 199/199/199 200/200/200 193/193/193
f 200/200/200 201/201/201 194/194/194
f 201/201/201 202/202/202 195/195/195
f 202/202/202 203/203/203 196/196/196
f 211/211/211 210/210/210 204/204/204
f 212/212/212 211/211/211 205/205/205
f 213/213/213 212/212/212 206/206/206
f 214/214/214 213/213/213 207/207/207
f 215/215/215 214/214/214 208/208/208
f 216/216/216 215/215/215 209/209/209
o leg_3
usemtl SURF_Wood_Furniture
v 0.19 0.41999998688697815 0.20999999955296517
v 0.20732050813734532 0.41999998688697815 0.19999999977648258
v 0.20732050813734532 0.41999998688697815 0.18000000022351742
v 0.19 0.41999998688697815 0.17000000044703484
v 0.1726794918626547 0.41999998688697815 0.18000000022351742
v 0.1726794918626547 0.41999998688697815 0.19999999977648258
v 0.19 0.41999998688697815 0.20999999955296517
v 0.19 0 0.21400000020861626
v 0.21078460901975632 0 0.20200000010430813
v 0.21078460901975632 0 0.17799999989569187
v 0.19 0 0.16599999979138375
v 0.16921539098024369 0 0.17799999989569187
v 0.16921539098024369 0 0.20200000010430813
v 0.19 0 0.21400000020861626
v 0.19 0.41999998688697815 0.19
v 0.19 0.41999998688697815 0.19
v 0.19 0.41999998688697815 0.19
v 0.19 0.41999998688697815 0.19
v 0.19 0.41999998688697815 0.19
v 0.19 0.41999998688697815 0.19
v 0.19 0.41999998688697815 0.20999999955296517
v 0.20732050813734532 0.41999998688697815 0.19999999977648258
v 0.20732050813734532 0.41999998688697815 0.18000000022351742
v 0.19 0.41999998688697815 0.17000000044703484
v 0.1726794918626547 0.41999998688697815 0.18000000022351742
v 0.1726794918626547 0.41999998688697815 0.19999999977648258
v 0.19 0.41999998688697815 0.20999999955296517
v 0.19 0 0.19
v 0.19 0 0.19
v 0.19 0 0.19
v 0.19 0 0.19
v 0.19 0 0.19
v 0.19 0 0.19
v 0.19 0 0.21400000020861626
v 0.21078460901975632 0 0.20200000010430813
v 0.21078460901975632 0 0.17799999989569187
v 0.19 0 0.16599999979138375
v 0.16921539098024369 0 0.17799999989569187
v 0.16921539098024369 0 0.20200000010430813
v 0.19 0 0.21400000020861626
vt 0 1
vt 0.1666666716337204 1
vt 0.3333333432674408 1
vt 0.5 1
vt 0.6666666865348816 1
vt 0.8333333134651184 1
vt 1 1
vt 0 0
vt 0.1666666716337204 0
vt 0.3333333432674408 0
vt 0.5 0
vt 0.6666666865348816 0
vt 0.8333333134651184 0
vt 1 0
vt 0.5 0.5
vt 0.5 0.5
vt 0.5 0.5
vt 0.5 0.5
vt 0.5 0.5
vt 0.5 0.5
vt 1 0.5
vt 0.75 0.9330127239227295
vt 0.25 0.9330127239227295
vt 0 0.5
vt 0.25 0.0669872984290123
vt 0.75 0.0669872984290123
vt 1 0.5
vt 0.5 0.5
vt 0.5 0.5
vt 0.5 0.5
vt 0.5 0.5
vt 0.5 0.5
vt 0.5 0.5
vt 1 0.5
vt 0.75 0.0669872984290123
vt 0.25 0.0669872984290123
vt 0 0.5
vt 0.25 0.9330127239227295
vt 0.75 0.9330127239227295
vt 1 0.5
vn 0 0.009523377856113631 0.9999546516088667
vn 0.8659861277144203 0.009523377962019844 0.49997733136450934
vn 0.8659861277144203 0.009523377962019844 -0.49997733136450934
vn 1.2245912792050473e-16 0.009523377856113631 -0.9999546516088667
vn -0.8659861277144203 0.009523377962019844 -0.49997733136450934
vn -0.8659861277144203 0.009523377962019844 0.49997733136450934
vn -2.4491825584100946e-16 0.009523377856113631 0.9999546516088667
vn 0 0.009523377856113631 0.9999546516088667
vn 0.8659861277144203 0.009523377962019844 0.49997733136450934
vn 0.8659861277144203 0.009523377962019844 -0.49997733136450934
vn 1.2245912792050473e-16 0.009523377856113631 -0.9999546516088667
vn -0.8659861277144203 0.009523377962019844 -0.49997733136450934
vn -0.8659861277144203 0.009523377962019844 0.49997733136450934
vn -2.4491825584100946e-16 0.009523377856113631 0.9999546516088667
vn 0 1 0
vn 0 1 0
vn 0 1 0
vn 0 1 0
vn 0 1 0
vn 0 1 0
vn 0 1 0
vn 0 1 0
vn 0 1 0
vn 0 1 0
vn 0 1 0
vn 0 1 0
vn 0 1 0
vn 0 -1 0
vn 0 -1 0
vn 0 -1 0
vn 0 -1 0
vn 0 -1 0
vn 0 -1 0
vn 0 -1 0
vn 0 -1 0
vn 0 -1 0
vn 0 -1 0
vn 0 -1 0
vn 0 -1 0
vn 0 -1 0
f 217/217/217 224/224/224 218/218/218
f 224/224/224 225/225/225 218/218/218
f 218/218/218 225/225/225 219/219/219
f 225/225/225 226/226/226 219/219/219
f 219/219/219 226/226/226 220/220/220
f 226/226/226 227/227/227 220/220/220
f 220/220/220 227/227/227 221/221/221
f 227/227/227 228/228/228 221/221/221
f 221/221/221 228/228/228 222/222/222
f 228/228/228 229/229/229 222/222/222
f 222/222/222 229/229/229 223/223/223
f 229/229/229 230/230/230 223/223/223
f 237/237/237 238/238/238 231/231/231
f 238/238/238 239/239/239 232/232/232
f 239/239/239 240/240/240 233/233/233
f 240/240/240 241/241/241 234/234/234
f 241/241/241 242/242/242 235/235/235
f 242/242/242 243/243/243 236/236/236
f 251/251/251 250/250/250 244/244/244
f 252/252/252 251/251/251 245/245/245
f 253/253/253 252/252/252 246/246/246
f 254/254/254 253/253/253 247/247/247
f 255/255/255 254/254/254 248/248/248
f 256/256/256 255/255/255 249/249/249
o stretcher_lr
usemtl SURF_Wood_Furniture
v 0.1899999976158142 0.15099999338388445 0.20099999994039536
v 0.1899999976158142 0.15099999338388445 0.17900000005960465
v 0.1899999976158142 0.12899999350309374 0.20099999994039536
v 0.1899999976158142 0.12899999350309374 0.17900000005960465
v -0.1899999976158142 0.15099999338388445 0.17900000005960465
v -0.1899999976158142 0.15099999338388445 0.20099999994039536
v -0.1899999976158142 0.12899999350309374 0.17900000005960465
v -0.1899999976158142 0.12899999350309374 0.20099999994039536
v -0.1899999976158142 0.15099999338388445 0.17900000005960465
v 0.1899999976158142 0.15099999338388445 0.17900000005960465
v -0.1899999976158142 0.15099999338388445 0.20099999994039536
v 0.1899999976158142 0.15099999338388445 0.20099999994039536
v -0.1899999976158142 0.12899999350309374 0.20099999994039536
v 0.1899999976158142 0.12899999350309374 0.20099999994039536
v -0.1899999976158142 0.12899999350309374 0.17900000005960465
v 0.1899999976158142 0.12899999350309374 0.17900000005960465
v -0.1899999976158142 0.15099999338388445 0.20099999994039536
v 0.1899999976158142 0.15099999338388445 0.20099999994039536
v -0.1899999976158142 0.12899999350309374 0.20099999994039536
v 0.1899999976158142 0.12899999350309374 0.20099999994039536
v 0.1899999976158142 0.15099999338388445 0.17900000005960465
v -0.1899999976158142 0.15099999338388445 0.17900000005960465
v 0.1899999976158142 0.12899999350309374 0.17900000005960465
v -0.1899999976158142 0.12899999350309374 0.17900000005960465
vt 0 1
vt 1 1
vt 0 0
vt 1 0
vt 0 1
vt 1 1
vt 0 0
vt 1 0
vt 0 1
vt 1 1
vt 0 0
vt 1 0
vt 0 1
vt 1 1
vt 0 0
vt 1 0
vt 0 1
vt 1 1
vt 0 0
vt 1 0
vt 0 1
vt 1 1
vt 0 0
vt 1 0
vn 1 0 0
vn 1 0 0
vn 1 0 0
vn 1 0 0
vn -1 0 0
vn -1 0 0
vn -1 0 0
vn -1 0 0
vn 0 1 0
vn 0 1 0
vn 0 1 0
vn 0 1 0
vn 0 -1 0
vn 0 -1 0
vn 0 -1 0
vn 0 -1 0
vn 0 0 1
vn 0 0 1
vn 0 0 1
vn 0 0 1
vn 0 0 -1
vn 0 0 -1
vn 0 0 -1
vn 0 0 -1
f 257/257/257 259/259/259 258/258/258
f 259/259/259 260/260/260 258/258/258
f 261/261/261 263/263/263 262/262/262
f 263/263/263 264/264/264 262/262/262
f 265/265/265 267/267/267 266/266/266
f 267/267/267 268/268/268 266/266/266
f 269/269/269 271/271/271 270/270/270
f 271/271/271 272/272/272 270/270/270
f 273/273/273 275/275/275 274/274/274
f 275/275/275 276/276/276 274/274/274
f 277/277/277 279/279/279 278/278/278
f 279/279/279 280/280/280 278/278/278
o stretcher_fb
usemtl SURF_Wood_Furniture
v -0.17900000005960465 0.15099999338388445 0.1899999976158142
v -0.17900000005960465 0.15099999338388445 -0.1899999976158142
v -0.17900000005960465 0.12899999350309374 0.1899999976158142
v -0.17900000005960465 0.12899999350309374 -0.1899999976158142
v -0.20099999994039536 0.15099999338388445 -0.1899999976158142
v -0.20099999994039536 0.15099999338388445 0.1899999976158142
v -0.20099999994039536 0.12899999350309374 -0.1899999976158142
v -0.20099999994039536 0.12899999350309374 0.1899999976158142
v -0.20099999994039536 0.15099999338388445 -0.1899999976158142
v -0.17900000005960465 0.15099999338388445 -0.1899999976158142
v -0.20099999994039536 0.15099999338388445 0.1899999976158142
v -0.17900000005960465 0.15099999338388445 0.1899999976158142
v -0.20099999994039536 0.12899999350309374 0.1899999976158142
v -0.17900000005960465 0.12899999350309374 0.1899999976158142
v -0.20099999994039536 0.12899999350309374 -0.1899999976158142
v -0.17900000005960465 0.12899999350309374 -0.1899999976158142
v -0.20099999994039536 0.15099999338388445 0.1899999976158142
v -0.17900000005960465 0.15099999338388445 0.1899999976158142
v -0.20099999994039536 0.12899999350309374 0.1899999976158142
v -0.17900000005960465 0.12899999350309374 0.1899999976158142
v -0.17900000005960465 0.15099999338388445 -0.1899999976158142
v -0.20099999994039536 0.15099999338388445 -0.1899999976158142
v -0.17900000005960465 0.12899999350309374 -0.1899999976158142
v -0.20099999994039536 0.12899999350309374 -0.1899999976158142
vt 0 1
vt 1 1
vt 0 0
vt 1 0
vt 0 1
vt 1 1
vt 0 0
vt 1 0
vt 0 1
vt 1 1
vt 0 0
vt 1 0
vt 0 1
vt 1 1
vt 0 0
vt 1 0
vt 0 1
vt 1 1
vt 0 0
vt 1 0
vt 0 1
vt 1 1
vt 0 0
vt 1 0
vn 1 0 0
vn 1 0 0
vn 1 0 0
vn 1 0 0
vn -1 0 0
vn -1 0 0
vn -1 0 0
vn -1 0 0
vn 0 1 0
vn 0 1 0
vn 0 1 0
vn 0 1 0
vn 0 -1 0
vn 0 -1 0
vn 0 -1 0
vn 0 -1 0
vn 0 0 1
vn 0 0 1
vn 0 0 1
vn 0 0 1
vn 0 0 -1
vn 0 0 -1
vn 0 0 -1
vn 0 0 -1
f 281/281/281 283/283/283 282/282/282
f 283/283/283 284/284/284 282/282/282
f 285/285/285 287/287/287 286/286/286
f 287/287/287 288/288/288 286/286/286
f 289/289/289 291/291/291 290/290/290
f 291/291/291 292/292/292 290/290/290
f 293/293/293 295/295/295 294/294/294
f 295/295/295 296/296/296 294/294/294
f 297/297/297 299/299/299 298/298/298
f 299/299/299 300/300/300 298/298/298
f 301/301/301 303/303/303 302/302/302
f 303/303/303 304/304/304 302/302/302
