# SM_P0_Wardrobe_A — Wardrobe
# SC_P0_BEDROOM · group A
# bounds 1.16 × 0.63 × 2.09 m · 160 tris · UV island 120 × 112 px
# 1 unit = 1 m · pivot at floor contact, X/Z centred
mtllib SM_P0_Wardrobe_A.mtl
o side_l
usemtl SURF_Wood_Furniture
v -0.5200000003352762 2.0499999752640723 0.28299999263137576
v -0.5200000003352762 2.0499999752640723 -0.2969999906793237
v -0.5200000003352762 2.2947788114180412e-8 0.28299999263137576
v -0.5200000003352762 2.2947788114180412e-8 -0.2969999906793237
v -0.5499999996647239 2.0499999752640723 -0.2969999906793237
v -0.5499999996647239 2.0499999752640723 0.28299999263137576
v -0.5499999996647239 2.2947788114180412e-8 -0.2969999906793237
v -0.5499999996647239 2.2947788114180412e-8 0.28299999263137576
v -0.5499999996647239 2.0499999752640723 -0.2969999906793237
v -0.5200000003352762 2.0499999752640723 -0.2969999906793237
v -0.5499999996647239 2.0499999752640723 0.28299999263137576
v -0.5200000003352762 2.0499999752640723 0.28299999263137576
v -0.5499999996647239 2.2947788114180412e-8 0.28299999263137576
v -0.5200000003352762 2.2947788114180412e-8 0.28299999263137576
v -0.5499999996647239 2.2947788114180412e-8 -0.2969999906793237
v -0.5200000003352762 2.2947788114180412e-8 -0.2969999906793237
v -0.5499999996647239 2.0499999752640723 0.28299999263137576
v -0.5200000003352762 2.0499999752640723 0.28299999263137576
v -0.5499999996647239 2.2947788114180412e-8 0.28299999263137576
v -0.5200000003352762 2.2947788114180412e-8 0.28299999263137576
v -0.5200000003352762 2.0499999752640723 -0.2969999906793237
v -0.5499999996647239 2.0499999752640723 -0.2969999906793237
v -0.5200000003352762 2.2947788114180412e-8 -0.2969999906793237
v -0.5499999996647239 2.2947788114180412e-8 -0.2969999906793237
vt 0 1
vt 1 1
vt 0 0
vt 1 0
vt 0 1
vt 1 1
vt 0 0
vt 1 0
vt 0 1
vt 1 1
vt 0 0
vt 1 0
vt 0 1
vt 1 1
vt 0 0
vt 1 0
vt 0 1
vt 1 1
vt 0 0
vt 1 0
vt 0 1
vt 1 1
vt 0 0
vt 1 0
vn 1 0 0
vn 1 0 0
vn 1 0 0
vn 1 0 0
vn -1 0 0
vn -1 0 0
vn -1 0 0
vn -1 0 0
vn 0 1 0
vn 0 1 0
vn 0 1 0
vn 0 1 0
vn 0 -1 0
vn 0 -1 0
vn 0 -1 0
vn 0 -1 0
vn 0 0 1
vn 0 0 1
vn 0 0 1
vn 0 0 1
vn 0 0 -1
vn 0 0 -1
vn 0 0 -1
vn 0 0 -1
f 1/1/1 3/3/3 2/2/2
f 3/3/3 4/4/4 2/2/2
f 5/5/5 7/7/7 6/6/6
f 7/7/7 8/8/8 6/6/6
f 9/9/9 11/11/11 10/10/10
f 11/11/11 12/12/12 10/10/10
f 13/13/13 15/15/15 14/14/14
f 15/15/15 16/16/16 14/14/14
f 17/17/17 19/19/19 18/18/18
f 19/19/19 20/20/20 18/18/18
f 21/21/21 23/23/23 22/22/22
f 23/23/23 24/24/24 22/22/22
o side_r
usemtl SURF_Wood_Furniture
v 0.5499999996647239 2.0499999752640723 0.28299999263137576
v 0.5499999996647239 2.0499999752640723 -0.2969999906793237
v 0.5499999996647239 2.2947788114180412e-8 0.28299999263137576
v 0.5499999996647239 2.2947788114180412e-8 -0.2969999906793237
v 0.5200000003352762 2.0499999752640723 -0.2969999906793237
v 0.5200000003352762 2.0499999752640723 0.28299999263137576
v 0.5200000003352762 2.2947788114180412e-8 -0.2969999906793237
v 0.5200000003352762 2.2947788114180412e-8 0.28299999263137576
v 0.5200000003352762 2.0499999752640723 -0.2969999906793237
v 0.5499999996647239 2.0499999752640723 -0.2969999906793237
v 0.5200000003352762 2.0499999752640723 0.28299999263137576
v 0.5499999996647239 2.0499999752640723 0.28299999263137576
v 0.5200000003352762 2.2947788114180412e-8 0.28299999263137576
v 0.5499999996647239 2.2947788114180412e-8 0.28299999263137576
v 0.5200000003352762 2.2947788114180412e-8 -0.2969999906793237
v 0.5499999996647239 2.2947788114180412e-8 -0.2969999906793237
v 0.5200000003352762 2.0499999752640723 0.28299999263137576
v 0.5499999996647239 2.0499999752640723 0.28299999263137576
v 0.5200000003352762 2.2947788114180412e-8 0.28299999263137576
v 0.5499999996647239 2.2947788114180412e-8 0.28299999263137576
v 0.5499999996647239 2.0499999752640723 -0.2969999906793237
v 0.5200000003352762 2.0499999752640723 -0.2969999906793237
v 0.5499999996647239 2.2947788114180412e-8 -0.2969999906793237
v 0.5200000003352762 2.2947788114180412e-8 -0.2969999906793237
vt 0 1
vt 1 1
vt 0 0
vt 1 0
vt 0 1
vt 1 1
vt 0 0
vt 1 0
vt 0 1
vt 1 1
vt 0 0
vt 1 0
vt 0 1
vt 1 1
vt 0 0
vt 1 0
vt 0 1
vt 1 1
vt 0 0
vt 1 0
vt 0 1
vt 1 1
vt 0 0
vt 1 0
vn 1 0 0
vn 1 0 0
vn 1 0 0
vn 1 0 0
vn -1 0 0
vn -1 0 0
vn -1 0 0
vn -1 0 0
vn 0 1 0
vn 0 1 0
vn 0 1 0
vn 0 1 0
vn 0 -1 0
vn 0 -1 0
vn 0 -1 0
vn 0 -1 0
vn 0 0 1
vn 0 0 1
vn 0 0 1
vn 0 0 1
vn 0 0 -1
vn 0 0 -1
vn 0 0 -1
vn 0 0 -1
f 25/25/25 27/27/27 26/26/26
f 27/27/27 28/28/28 26/26/26
f 29/29/29 31/31/31 30/30/30
f 31/31/31 32/32/32 30/30/30
f 33/33/33 35/35/35 34/34/34
f 35/35/35 36/36/36 34/34/34
f 37/37/37 39/39/39 38/38/38
f 39/39/39 40/40/40 38/38/38
f 41/41/41 43/43/43 42/42/42
f 43/43/43 44/44/44 42/42/42
f 45/45/45 47/47/47 46/46/46
f 47/47/47 48/48/48 46/46/46
o top
usemtl SURF_Wood_Furniture
v 0.5350000262260437 2.0499999986588953 0.2680000069364905
v 0.5350000262260437 2.0499999986588953 -0.28200000498443845
v 0.5350000262260437 2.009999999552965 0.2680000069364905
v 0.5350000262260437 2.009999999552965 -0.28200000498443845
v -0.5350000262260437 2.0499999986588953 -0.28200000498443845
v -0.5350000262260437 2.0499999986588953 0.2680000069364905
v -0.5350000262260437 2.009999999552965 -0.28200000498443845
v -0.5350000262260437 2.009999999552965 0.2680000069364905
v -0.5350000262260437 2.0499999986588953 -0.28200000498443845
v 0.5350000262260437 2.0499999986588953 -0.28200000498443845
v -0.5350000262260437 2.0499999986588953 0.2680000069364905
v 0.5350000262260437 2.0499999986588953 0.2680000069364905
v -0.5350000262260437 2.009999999552965 0.2680000069364905
v 0.5350000262260437 2.009999999552965 0.2680000069364905
v -0.5350000262260437 2.009999999552965 -0.28200000498443845
v 0.5350000262260437 2.009999999552965 -0.28200000498443845
v -0.5350000262260437 2.0499999986588953 0.2680000069364905
v 0.5350000262260437 2.0499999986588953 0.2680000069364905
v -0.5350000262260437 2.009999999552965 0.2680000069364905
v 0.5350000262260437 2.009999999552965 0.2680000069364905
v 0.5350000262260437 2.0499999986588953 -0.28200000498443845
v -0.5350000262260437 2.0499999986588953 -0.28200000498443845
v 0.5350000262260437 2.009999999552965 -0.28200000498443845
v -0.5350000262260437 2.009999999552965 -0.28200000498443845
vt 0 1
vt 1 1
vt 0 0
vt 1 0
vt 0 1
vt 1 1
vt 0 0
vt 1 0
vt 0 1
vt 1 1
vt 0 0
vt 1 0
vt 0 1
vt 1 1
vt 0 0
vt 1 0
vt 0 1
vt 1 1
vt 0 0
vt 1 0
vt 0 1
vt 1 1
vt 0 0
vt 1 0
vn 1 0 0
vn 1 0 0
vn 1 0 0
vn 1 0 0
vn -1 0 0
vn -1 0 0
vn -1 0 0
vn -1 0 0
vn 0 1 0
vn 0 1 0
vn 0 1 0
vn 0 1 0
vn 0 -1 0
vn 0 -1 0
vn 0 -1 0
vn 0 -1 0
vn 0 0 1
vn 0 0 1
vn 0 0 1
vn 0 0 1
vn 0 0 -1
vn 0 0 -1
vn 0 0 -1
vn 0 0 -1
f 49/49/49 51/51/51 50/50/50
f 51/51/51 52/52/52 50/50/50
f 53/53/53 55/55/55 54/54/54
f 55/55/55 56/56/56 54/54/54
f 57/57/57 59/59/59 58/58/58
f 59/59/59 60/60/60 58/58/58
f 61/61/61 63/63/63 62/62/62
f 63/63/63 64/64/64 62/62/62
f 65/65/65 67/67/67 66/66/66
f 67/67/67 68/68/68 66/66/66
f 69/69/69 71/71/71 70/70/70
f 71/71/71 72/72/72 70/70/70
o cornice
usemtl SURF_Wood_Furniture
v 0.5799999833106995 2.094999999478459 0.3030000033602118
v 0.5799999833106995 2.094999999478459 -0.31700000140815976
v 0.5799999833106995 2.044999998733401 0.3030000033602118
v 0.5799999833106995 2.044999998733401 -0.31700000140815976
v -0.5799999833106995 2.094999999478459 -0.31700000140815976
v -0.5799999833106995 2.094999999478459 0.3030000033602118
v -0.5799999833106995 2.044999998733401 -0.31700000140815976
v -0.5799999833106995 2.044999998733401 0.3030000033602118
v -0.5799999833106995 2.094999999478459 -0.31700000140815976
v 0.5799999833106995 2.094999999478459 -0.31700000140815976
v -0.5799999833106995 2.094999999478459 0.3030000033602118
v 0.5799999833106995 2.094999999478459 0.3030000033602118
v -0.5799999833106995 2.044999998733401 0.3030000033602118
v 0.5799999833106995 2.044999998733401 0.3030000033602118
v -0.5799999833106995 2.044999998733401 -0.31700000140815976
v 0.5799999833106995 2.044999998733401 -0.31700000140815976
v -0.5799999833106995 2.094999999478459 0.3030000033602118
v 0.5799999833106995 2.094999999478459 0.3030000033602118
v -0.5799999833106995 2.044999998733401 0.3030000033602118
v 0.5799999833106995 2.044999998733401 0.3030000033602118
v 0.5799999833106995 2.094999999478459 -0.31700000140815976
v -0.5799999833106995 2.094999999478459 -0.31700000140815976
v 0.5799999833106995 2.044999998733401 -0.31700000140815976
v -0.5799999833106995 2.044999998733401 -0.31700000140815976
vt 0 1
vt 1 1
vt 0 0
vt 1 0
vt 0 1
vt 1 1
vt 0 0
vt 1 0
vt 0 1
vt 1 1
vt 0 0
vt 1 0
vt 0 1
vt 1 1
vt 0 0
vt 1 0
vt 0 1
vt 1 1
vt 0 0
vt 1 0
vt 0 1
vt 1 1
vt 0 0
vt 1 0
vn 1 0 0
vn 1 0 0
vn 1 0 0
vn 1 0 0
vn -1 0 0
vn -1 0 0
vn -1 0 0
vn -1 0 0
vn 0 1 0
vn 0 1 0
vn 0 1 0
vn 0 1 0
vn 0 -1 0
vn 0 -1 0
vn 0 -1 0
vn 0 -1 0
vn 0 0 1
vn 0 0 1
vn 0 0 1
vn 0 0 1
vn 0 0 -1
vn 0 0 -1
vn 0 0 -1
vn 0 0 -1
f 73/73/73 75/75/75 74/74/74
f 75/75/75 76/76/76 74/74/74
f 77/77/77 79/79/79 78/78/78
f 79/79/79 80/80/80 78/78/78
f 81/81/81 83/83/83 82/82/82
f 83/83/83 84/84/84 82/82/82
f 85/85/85 87/87/87 86/86/86
f 87/87/87 88/88/88 86/86/86
f 89/89/89 91/91/91 90/90/90
f 91/91/91 92/92/92 90/90/90
f 93/93/93 95/95/95 94/94/94
f 95/95/95 96/96/96 94/94/94
o back_panel
usemtl SURF_Wood_Dark
v 0.5199999809265137 2.025000022947788 -0.2849999989718198
v 0.5199999809265137 2.025000022947788 -0.29699999907612795
v 0.5199999809265137 0.07499997526407243 -0.2849999989718198
v 0.5199999809265137 0.07499997526407243 -0.29699999907612795
v -0.5199999809265137 2.025000022947788 -0.29699999907612795
v -0.5199999809265137 2.025000022947788 -0.2849999989718198
v -0.5199999809265137 0.07499997526407243 -0.29699999907612795
v -0.5199999809265137 0.07499997526407243 -0.2849999989718198
v -0.5199999809265137 2.025000022947788 -0.29699999907612795
v 0.5199999809265137 2.025000022947788 -0.29699999907612795
v -0.5199999809265137 2.025000022947788 -0.2849999989718198
v 0.5199999809265137 2.025000022947788 -0.2849999989718198
v -0.5199999809265137 0.07499997526407243 -0.2849999989718198
v 0.5199999809265137 0.07499997526407243 -0.2849999989718198
v -0.5199999809265137 0.07499997526407243 -0.29699999907612795
v 0.5199999809265137 0.07499997526407243 -0.29699999907612795
v -0.5199999809265137 2.025000022947788 -0.2849999989718198
v 0.5199999809265137 2.025000022947788 -0.2849999989718198
v -0.5199999809265137 0.07499997526407243 -0.2849999989718198
v 0.5199999809265137 0.07499997526407243 -0.2849999989718198
v 0.5199999809265137 2.025000022947788 -0.29699999907612795
v -0.5199999809265137 2.025000022947788 -0.29699999907612795
v 0.5199999809265137 0.07499997526407243 -0.29699999907612795
v -0.5199999809265137 0.07499997526407243 -0.29699999907612795
vt 0 1
vt 1 1
vt 0 0
vt 1 0
vt 0 1
vt 1 1
vt 0 0
vt 1 0
vt 0 1
vt 1 1
vt 0 0
vt 1 0
vt 0 1
vt 1 1
vt 0 0
vt 1 0
vt 0 1
vt 1 1
vt 0 0
vt 1 0
vt 0 1
vt 1 1
vt 0 0
vt 1 0
vn 1 0 0
vn 1 0 0
vn 1 0 0
vn 1 0 0
vn -1 0 0
vn -1 0 0
vn -1 0 0
vn -1 0 0
vn 0 1 0
vn 0 1 0
vn 0 1 0
vn 0 1 0
vn 0 -1 0
vn 0 -1 0
vn 0 -1 0
vn 0 -1 0
vn 0 0 1
vn 0 0 1
vn 0 0 1
vn 0 0 1
vn 0 0 -1
vn 0 0 -1
vn 0 0 -1
vn 0 0 -1
f 97/97/97 99/99/99 98/98/98
f 99/99/99 100/100/100 98/98/98
f 101/101/101 103/103/103 102/102/102
f 103/103/103 104/104/104 102/102/102
f 105/105/105 107/107/107 106/106/106
f 107/107/107 108/108/108 106/106/106
f 109/109/109 111/111/111 110/110/110
f 111/111/111 112/112/112 110/110/110
f 113/113/113 115/115/115 114/114/114
f 115/115/115 116/116/116 114/114/114
f 117/117/117 119/119/119 118/118/118
f 119/119/119 120/120/120 118/118/118
o door_l
usemtl SURF_Wood_Furniture
v -9.536743172944284e-9 1.9799999871850014 0.29050000105053186
v -9.536743172944284e-9 1.9799999871850014 0.25550000090152025
v -9.536743172944284e-9 0.08000001102685927 0.29050000105053186
v -9.536743172944284e-9 0.08000001102685927 0.25550000090152025
v -0.5199999904632568 1.9799999871850014 0.25550000090152025
v -0.5199999904632568 1.9799999871850014 0.29050000105053186
v -0.5199999904632568 0.08000001102685927 0.25550000090152025
v -0.5199999904632568 0.08000001102685927 0.29050000105053186
v -0.5199999904632568 1.9799999871850014 0.25550000090152025
v -9.536743172944284e-9 1.9799999871850014 0.25550000090152025
v -0.5199999904632568 1.9799999871850014 0.29050000105053186
v -9.536743172944284e-9 1.9799999871850014 0.29050000105053186
v -0.5199999904632568 0.08000001102685927 0.29050000105053186
v -9.536743172944284e-9 0.08000001102685927 0.29050000105053186
v -0.5199999904632568 0.08000001102685927 0.25550000090152025
v -9.536743172944284e-9 0.08000001102685927 0.25550000090152025
v -0.5199999904632568 1.9799999871850014 0.29050000105053186
v -9.536743172944284e-9 1.9799999871850014 0.29050000105053186
v -0.5199999904632568 0.08000001102685927 0.29050000105053186
v -9.536743172944284e-9 0.08000001102685927 0.29050000105053186
v -9.536743172944284e-9 1.9799999871850014 0.25550000090152025
v -0.5199999904632568 1.9799999871850014 0.25550000090152025
v -9.536743172944284e-9 0.08000001102685927 0.25550000090152025
v -0.5199999904632568 0.08000001102685927 0.25550000090152025
vt 0 1
vt 1 1
vt 0 0
vt 1 0
vt 0 1
vt 1 1
vt 0 0
vt 1 0
vt 0 1
vt 1 1
vt 0 0
vt 1 0
vt 0 1
vt 1 1
vt 0 0
vt 1 0
vt 0 1
vt 1 1
vt 0 0
vt 1 0
vt 0 1
vt 1 1
vt 0 0
vt 1 0
vn 1 0 0
vn 1 0 0
vn 1 0 0
vn 1 0 0
vn -1 0 0
vn -1 0 0
vn -1 0 0
vn -1 0 0
vn 0 1 0
vn 0 1 0
vn 0 1 0
vn 0 1 0
vn 0 -1 0
vn 0 -1 0
vn 0 -1 0
vn 0 -1 0
vn 0 0 1
vn 0 0 1
vn 0 0 1
vn 0 0 1
vn 0 0 -1
vn 0 0 -1
vn 0 0 -1
vn 0 0 -1
f 121/121/121 123/123/123 122/122/122
f 123/123/123 124/124/124 122/122/122
f 125/125/125 127/127/127 126/126/126
f 127/127/127 128/128/128 126/126/126
f 129/129/129 131/131/131 130/130/130
f 131/131/131 132/132/132 130/130/130
f 133/133/133 135/135/135 134/134/134
f 135/135/135 136/136/136 134/134/134
f 137/137/137 139/139/139 138/138/138
f 139/139/139 140/140/140 138/138/138
f 141/141/141 143/143/143 142/142/142
f 143/143/143 144/144/144 142/142/142
o door_r
usemtl SURF_Wood_Furniture
v 0.5199999904632568 1.9799999871850014 0.29050000105053186
v 0.5199999904632568 1.9799999871850014 0.25550000090152025
v 0.5199999904632568 0.08000001102685927 0.29050000105053186
v 0.5199999904632568 0.08000001102685927 0.25550000090152025
v 9.536743172944284e-9 1.9799999871850014 0.25550000090152025
v 9.536743172944284e-9 1.9799999871850014 0.29050000105053186
v 9.536743172944284e-9 0.08000001102685927 0.25550000090152025
v 9.536743172944284e-9 0.08000001102685927 0.29050000105053186
v 9.536743172944284e-9 1.9799999871850014 0.25550000090152025
v 0.5199999904632568 1.9799999871850014 0.25550000090152025
v 9.536743172944284e-9 1.9799999871850014 0.29050000105053186
v 0.5199999904632568 1.9799999871850014 0.29050000105053186
v 9.536743172944284e-9 0.08000001102685927 0.29050000105053186
v 0.5199999904632568 0.08000001102685927 0.29050000105053186
v 9.536743172944284e-9 0.08000001102685927 0.25550000090152025
v 0.5199999904632568 0.08000001102685927 0.25550000090152025
v 9.536743172944284e-9 1.9799999871850014 0.29050000105053186
v 0.5199999904632568 1.9799999871850014 0.29050000105053186
v 9.536743172944284e-9 0.08000001102685927 0.29050000105053186
v 0.5199999904632568 0.08000001102685927 0.29050000105053186
v 0.5199999904632568 1.9799999871850014 0.25550000090152025
v 9.536743172944284e-9 1.9799999871850014 0.25550000090152025
v 0.5199999904632568 0.08000001102685927 0.25550000090152025
v 9.536743172944284e-9 0.08000001102685927 0.25550000090152025
vt 0 1
vt 1 1
vt 0 0
vt 1 0
vt 0 1
vt 1 1
vt 0 0
vt 1 0
vt 0 1
vt 1 1
vt 0 0
vt 1 0
vt 0 1
vt 1 1
vt 0 0
vt 1 0
vt 0 1
vt 1 1
vt 0 0
vt 1 0
vt 0 1
vt 1 1
vt 0 0
vt 1 0
vn 1 0 0
vn 1 0 0
vn 1 0 0
vn 1 0 0
vn -1 0 0
vn -1 0 0
vn -1 0 0
vn -1 0 0
vn 0 1 0
vn 0 1 0
vn 0 1 0
vn 0 1 0
vn 0 -1 0
vn 0 -1 0
vn 0 -1 0
vn 0 -1 0
vn 0 0 1
vn 0 0 1
vn 0 0 1
vn 0 0 1
vn 0 0 -1
vn 0 0 -1
vn 0 0 -1
vn 0 0 -1
f 145/145/145 147/147/147 146/146/146
f 147/147/147 148/148/148 146/146/146
f 149/149/149 151/151/151 150/150/150
f 151/151/151 152/152/152 150/150/150
f 153/153/153 155/155/155 154/154/154
f 155/155/155 156/156/156 154/154/154
f 157/157/157 159/159/159 158/158/158
f 159/159/159 160/160/160 158/158/158
f 161/161/161 163/163/163 162/162/162
f 163/163/163 164/164/164 162/162/162
f 165/165/165 167/167/167 166/166/166
f 167/167/167 168/168/168 166/166/166
o handle_l
usemtl SURF_Metal_Lamp
v -0.05 1.1099999977648258 0.31700000140815976
v -0.040100504830479625 1.1099999977648258 0.31289949614554646
v -0.03599999956786633 1.1099999977648258 0.3030000009760261
v -0.040100504830479625 1.1099999977648258 0.2931005058065057
v -0.05 1.1099999977648258 0.2890000005438924
v -0.05989949516952038 1.1099999977648258 0.2931005058065057
v -0.06400000043213368 1.1099999977648258 0.3030000009760261
v -0.05989949516952038 1.1099999977648258 0.31289949614554646
v -0.05 1.1099999977648258 0.31700000140815976
v -0.05 0.9900000004470348 0.31700000140815976
v -0.040100504830479625 0.9900000004470348 0.31289949614554646
v -0.03599999956786633 0.9900000004470348 0.3030000009760261
v -0.040100504830479625 0.9900000004470348 0.2931005058065057
v -0.05 0.9900000004470348 0.2890000005438924
v -0.05989949516952038 0.9900000004470348 0.2931005058065057
v -0.06400000043213368 0.9900000004470348 0.3030000009760261
v -0.05989949516952038 0.9900000004470348 0.31289949614554646
v -0.05 0.9900000004470348 0.31700000140815976
v -0.05 1.1099999977648258 0.3030000009760261
v -0.05 1.1099999977648258 0.3030000009760261
v -0.05 1.1099999977648258 0.3030000009760261
v -0.05 1.1099999977648258 0.3030000009760261
v -0.05 1.1099999977648258 0.3030000009760261
v -0.05 1.1099999977648258 0.3030000009760261
v -0.05 1.1099999977648258 0.3030000009760261
v -0.05 1.1099999977648258 0.3030000009760261
v -0.05 1.1099999977648258 0.31700000140815976
v -0.040100504830479625 1.1099999977648258 0.31289949614554646
v -0.03599999956786633 1.1099999977648258 0.3030000009760261
v -0.040100504830479625 1.1099999977648258 0.2931005058065057
v -0.05 1.1099999977648258 0.2890000005438924
v -0.05989949516952038 1.1099999977648258 0.2931005058065057
v -0.06400000043213368 1.1099999977648258 0.3030000009760261
v -0.05989949516952038 1.1099999977648258 0.31289949614554646
v -0.05 1.1099999977648258 0.31700000140815976
v -0.05 0.9900000004470348 0.3030000009760261
v -0.05 0.9900000004470348 0.3030000009760261
v -0.05 0.9900000004470348 0.3030000009760261
v -0.05 0.9900000004470348 0.3030000009760261
v -0.05 0.9900000004470348 0.3030000009760261
v -0.05 0.9900000004470348 0.3030000009760261
v -0.05 0.9900000004470348 0.3030000009760261
v -0.05 0.9900000004470348 0.3030000009760261
v -0.05 0.9900000004470348 0.31700000140815976
v -0.040100504830479625 0.9900000004470348 0.31289949614554646
v -0.03599999956786633 0.9900000004470348 0.3030000009760261
v -0.040100504830479625 0.9900000004470348 0.2931005058065057
v -0.05 0.9900000004470348 0.2890000005438924
v -0.05989949516952038 0.9900000004470348 0.2931005058065057
v -0.06400000043213368 0.9900000004470348 0.3030000009760261
v -0.05989949516952038 0.9900000004470348 0.31289949614554646
v -0.05 0.9900000004470348 0.31700000140815976
vt 0 1
vt 0.125 1
vt 0.25 1
vt 0.375 1
vt 0.5 1
vt 0.625 1
vt 0.75 1
vt 0.875 1
vt 1 1
vt 0 0
vt 0.125 0
vt 0.25 0
vt 0.375 0
vt 0.5 0
vt 0.625 0
vt 0.75 0
vt 0.875 0
vt 1 0
vt 0.5 0.5
vt 0.5 0.5
vt 0.5 0.5
vt 0.5 0.5
vt 0.5 0.5
vt 0.5 0.5
vt 0.5 0.5
vt 0.5 0.5
vt 1 0.5
vt 0.8535534143447876 0.8535534143447876
vt 0.5 1
vt 0.1464466154575348 0.8535534143447876
vt 0 0.5
vt 0.1464466154575348 0.1464466154575348
vt 0.5 0
vt 0.8535534143447876 0.1464466154575348
vt 1 0.5
vt 0.5 0.5
vt 0.5 0.5
vt 0.5 0.5
vt 0.5 0.5
vt 0.5 0.5
vt 0.5 0.5
vt 0.5 0.5
vt 0.5 0.5
vt 1 0.5
vt 0.8535534143447876 0.1464466154575348
vt 0.5 0
vt 0.1464466154575348 0.1464466154575348
vt 0 0.5
vt 0.1464466154575348 0.8535534143447876
vt 0.5 1
vt 0.8535534143447876 0.8535534143447876
vt 1 0.5
vn 0 0 1
vn 0.7071067811865476 0 0.7071067811865476
vn 1 0 6.123234262925839e-17
vn 0.7071067811865476 0 -0.7071067811865476
vn 1.2246468525851679e-16 0 -1
vn -0.7071067811865476 0 -0.7071067811865476
vn -1 0 -1.8369701465288538e-16
vn -0.7071067811865476 0 0.7071067811865476
vn -2.4492937051703357e-16 0 1
vn 0 0 1
vn 0.7071067811865476 0 0.7071067811865476
vn 1 0 6.123234262925839e-17
vn 0.7071067811865476 0 -0.7071067811865476
vn 1.2246468525851679e-16 0 -1
vn -0.7071067811865476 0 -0.7071067811865476
vn -1 0 -1.8369701465288538e-16
vn -0.7071067811865476 0 0.7071067811865476
vn -2.4492937051703357e-16 0 1
vn 0 1 0
vn 0 1 0
vn 0 1 0
vn 0 1 0
vn 0 1 0
vn 0 1 0
vn 0 1 0
vn 0 1 0
vn 0 1 0
vn 0 1 0
vn 0 1 0
vn 0 1 0
vn 0 1 0
vn 0 1 0
vn 0 1 0
vn 0 1 0
vn 0 1 0
vn 0 -1 0
vn 0 -1 0
vn 0 -1 0
vn 0 -1 0
vn 0 -1 0
vn 0 -1 0
vn 0 -1 0
vn 0 -1 0
vn 0 -1 0
vn 0 -1 0
vn 0 -1 0
vn 0 -1 0
vn 0 -1 0
vn 0 -1 0
vn 0 -1 0
vn 0 -1 0
vn 0 -1 0
f 169/169/169 178/178/178 170/170/170
f 178/178/178 179/179/179 170/170/170
f 170/170/170 179/179/179 171/171/171
f 179/179/179 180/180/180 171/171/171
f 171/171/171 180/180/180 172/172/172
f 180/180/180 181/181/181 172/172/172
f 172/172/172 181/181/181 173/173/173
f 181/181/181 182/182/182 173/173/173
f 173/173/173 182/182/182 174/174/174
f 182/182/182 183/183/183 174/174/174
f 174/174/174 183/183/183 175/175/175
f 183/183/183 184/184/184 175/175/175
f 175/175/175 184/184/184 176/176/176
f 184/184/184 185/185/185 176/176/176
f 176/176/176 185/185/185 177/177/177
f 185/185/185 186/186/186 177/177/177
f 195/195/195 196/196/196 187/187/187
f 196/196/196 197/197/197 188/188/188
f 197/197/197 198/198/198 189/189/189
f 198/198/198 199/199/199 190/190/190
f 199/199/199 200/200/200 191/191/191
f 200/200/200 201/201/201 192/192/192
f 201/201/201 202/202/202 193/193/193
f 202/202/202 203/203/203 194/194/194
f 213/213/213 212/212/212 204/204/204
f 214/214/214 213/213/213 205/205/205
f 215/215/215 214/214/214 206/206/206
f 216/216/216 215/215/215 207/207/207
f 217/217/217 216/216/216 208/208/208
f 218/218/218 217/217/217 209/209/209
f 219/219/219 218/218/218 210/210/210
f 220/220/220 219/219/219 211/211/211
o handle_r
usemtl SURF_Metal_Lamp
v 0.05 1.1099999977648258 0.31700000140815976
v 0.05989949516952038 1.1099999977648258 0.31289949614554646
v 0.06400000043213368 1.1099999977648258 0.3030000009760261
v 0.05989949516952038 1.1099999977648258 0.2931005058065057
v 0.05 1.1099999977648258 0.2890000005438924
v 0.040100504830479625 1.1099999977648258 0.2931005058065057
v 0.03599999956786633 1.1099999977648258 0.3030000009760261
v 0.040100504830479625 1.1099999977648258 0.31289949614554646
v 0.05 1.1099999977648258 0.31700000140815976
v 0.05 0.9900000004470348 0.31700000140815976
v 0.05989949516952038 0.9900000004470348 0.31289949614554646
v 0.06400000043213368 0.9900000004470348 0.3030000009760261
v 0.05989949516952038 0.9900000004470348 0.2931005058065057
v 0.05 0.9900000004470348 0.2890000005438924
v 0.040100504830479625 0.9900000004470348 0.2931005058065057
v 0.03599999956786633 0.9900000004470348 0.3030000009760261
v 0.040100504830479625 0.9900000004470348 0.31289949614554646
v 0.05 0.9900000004470348 0.31700000140815976
v 0.05 1.1099999977648258 0.3030000009760261
v 0.05 1.1099999977648258 0.3030000009760261
v 0.05 1.1099999977648258 0.3030000009760261
v 0.05 1.1099999977648258 0.3030000009760261
v 0.05 1.1099999977648258 0.3030000009760261
v 0.05 1.1099999977648258 0.3030000009760261
v 0.05 1.1099999977648258 0.3030000009760261
v 0.05 1.1099999977648258 0.3030000009760261
v 0.05 1.1099999977648258 0.31700000140815976
v 0.05989949516952038 1.1099999977648258 0.31289949614554646
v 0.06400000043213368 1.1099999977648258 0.3030000009760261
v 0.05989949516952038 1.1099999977648258 0.2931005058065057
v 0.05 1.1099999977648258 0.2890000005438924
v 0.040100504830479625 1.1099999977648258 0.2931005058065057
v 0.03599999956786633 1.1099999977648258 0.3030000009760261
v 0.040100504830479625 1.1099999977648258 0.31289949614554646
v 0.05 1.1099999977648258 0.31700000140815976
v 0.05 0.9900000004470348 0.3030000009760261
v 0.05 0.9900000004470348 0.3030000009760261
v 0.05 0.9900000004470348 0.3030000009760261
v 0.05 0.9900000004470348 0.3030000009760261
v 0.05 0.9900000004470348 0.3030000009760261
v 0.05 0.9900000004470348 0.3030000009760261
v 0.05 0.9900000004470348 0.3030000009760261
v 0.05 0.9900000004470348 0.3030000009760261
v 0.05 0.9900000004470348 0.31700000140815976
v 0.05989949516952038 0.9900000004470348 0.31289949614554646
v 0.06400000043213368 0.9900000004470348 0.3030000009760261
v 0.05989949516952038 0.9900000004470348 0.2931005058065057
v 0.05 0.9900000004470348 0.2890000005438924
v 0.040100504830479625 0.9900000004470348 0.2931005058065057
v 0.03599999956786633 0.9900000004470348 0.3030000009760261
v 0.040100504830479625 0.9900000004470348 0.31289949614554646
v 0.05 0.9900000004470348 0.31700000140815976
vt 0 1
vt 0.125 1
vt 0.25 1
vt 0.375 1
vt 0.5 1
vt 0.625 1
vt 0.75 1
vt 0.875 1
vt 1 1
vt 0 0
vt 0.125 0
vt 0.25 0
vt 0.375 0
vt 0.5 0
vt 0.625 0
vt 0.75 0
vt 0.875 0
vt 1 0
vt 0.5 0.5
vt 0.5 0.5
vt 0.5 0.5
vt 0.5 0.5
vt 0.5 0.5
vt 0.5 0.5
vt 0.5 0.5
vt 0.5 0.5
vt 1 0.5
vt 0.8535534143447876 0.8535534143447876
vt 0.5 1
vt 0.1464466154575348 0.8535534143447876
vt 0 0.5
vt 0.1464466154575348 0.1464466154575348
vt 0.5 0
vt 0.8535534143447876 0.1464466154575348
vt 1 0.5
vt 0.5 0.5
vt 0.5 0.5
vt 0.5 0.5
vt 0.5 0.5
vt 0.5 0.5
vt 0.5 0.5
vt 0.5 0.5
vt 0.5 0.5
vt 1 0.5
vt 0.8535534143447876 0.1464466154575348
vt 0.5 0
vt 0.1464466154575348 0.1464466154575348
vt 0 0.5
vt 0.1464466154575348 0.8535534143447876
vt 0.5 1
vt 0.8535534143447876 0.8535534143447876
vt 1 0.5
vn 0 0 1
vn 0.7071067811865476 0 0.7071067811865476
vn 1 0 6.123234262925839e-17
vn 0.7071067811865476 0 -0.7071067811865476
vn 1.2246468525851679e-16 0 -1
vn -0.7071067811865476 0 -0.7071067811865476
vn -1 0 -1.8369701465288538e-16
vn -0.7071067811865476 0 0.7071067811865476
vn -2.4492937051703357e-16 0 1
vn 0 0 1
vn 0.7071067811865476 0 0.7071067811865476
vn 1 0 6.123234262925839e-17
vn 0.7071067811865476 0 -0.7071067811865476
vn 1.2246468525851679e-16 0 -1
vn -0.7071067811865476 0 -0.7071067811865476
vn -1 0 -1.8369701465288538e-16
vn -0.7071067811865476 0 0.7071067811865476
vn -2.4492937051703357e-16 0 1
vn 0 1 0
vn 0 1 0
vn 0 1 0
vn 0 1 0
vn 0 1 0
vn 0 1 0
vn 0 1 0
vn 0 1 0
vn 0 1 0
vn 0 1 0
vn 0 1 0
vn 0 1 0
vn 0 1 0
vn 0 1 0
vn 0 1 0
vn 0 1 0
vn 0 1 0
vn 0 -1 0
vn 0 -1 0
vn 0 -1 0
vn 0 -1 0
vn 0 -1 0
vn 0 -1 0
vn 0 -1 0
vn 0 -1 0
vn 0 -1 0
vn 0 -1 0
vn 0 -1 0
vn 0 -1 0
vn 0 -1 0
vn 0 -1 0
vn 0 -1 0
vn 0 -1 0
vn 0 -1 0
f 221/221/221 230/230/230 222/222/222
f 230/230/230 231/231/231 222/222/222
f 222/222/222 231/231/231 223/223/223
f 231/231/231 232/232/232 223/223/223
f 223/223/223 232/232/232 224/224/224
f 232/232/232 233/233/233 224/224/224
f 224/224/224 233/233/233 225/225/225
f 233/233/233 234/234/234 225/225/225
f 225/225/225 234/234/234 226/226/226
f 234/234/234 235/235/235 226/226/226
f 226/226/226 235/235/235 227/227/227
f 235/235/235 236/236/236 227/227/227
f 227/227/227 236/236/236 228/228/228
f 236/236/236 237/237/237 228/228/228
f 228/228/228 237/237/237 229/229/229
f 237/237/237 238/238/238 229/229/229
f 247/247/247 248/248/248 239/239/239
f 248/248/248 249/249/249 240/240/240
f 249/249/249 250/250/250 241/241/241
f 250/250/250 251/251/251 242/242/242
f 251/251/251 252/252/252 243/243/243
f 252/252/252 253/253/253 244/244/244
f 253/253/253 254/254/254 245/245/245
f 254/254/254 255/255/255 246/246/246
f 265/265/265 264/264/264 256/256/256
f 266/266/266 265/265/265 257/257/257
f 267/267/267 266/266/266 258/258/258
f 268/268/268 267/267/267 259/259/259
f 269/269/269 268/268/268 260/260/260
f 270/270/270 269/269/269 261/261/261
f 271/271/271 270/270/270 262/262/262
f 272/272/272 271/271/271 263/263/263
o plinth
usemtl SURF_Wood_Dark
v 0.5299999713897705 0.07999999821186066 0.2630000117048621
v 0.5299999713897705 0.07999999821186066 -0.27700000975281003
v 0.5299999713897705 0 0.2630000117048621
v 0.5299999713897705 0 -0.27700000975281003
v -0.5299999713897705 0.07999999821186066 -0.27700000975281003
v -0.5299999713897705 0.07999999821186066 0.2630000117048621
v -0.5299999713897705 0 -0.27700000975281003
v -0.5299999713897705 0 0.2630000117048621
v -0.5299999713897705 0.07999999821186066 -0.27700000975281003
v 0.5299999713897705 0.07999999821186066 -0.27700000975281003
v -0.5299999713897705 0.07999999821186066 0.2630000117048621
v 0.5299999713897705 0.07999999821186066 0.2630000117048621
v -0.5299999713897705 0 0.2630000117048621
v 0.5299999713897705 0 0.2630000117048621
v -0.5299999713897705 0 -0.27700000975281003
v 0.5299999713897705 0 -0.27700000975281003
v -0.5299999713897705 0.07999999821186066 0.2630000117048621
v 0.5299999713897705 0.07999999821186066 0.2630000117048621
v -0.5299999713897705 0 0.2630000117048621
v 0.5299999713897705 0 0.2630000117048621
v 0.5299999713897705 0.07999999821186066 -0.27700000975281003
v -0.5299999713897705 0.07999999821186066 -0.27700000975281003
v 0.5299999713897705 0 -0.27700000975281003
v -0.5299999713897705 0 -0.27700000975281003
vt 0 1
vt 1 1
vt 0 0
vt 1 0
vt 0 1
vt 1 1
vt 0 0
vt 1 0
vt 0 1
vt 1 1
vt 0 0
vt 1 0
vt 0 1
vt 1 1
vt 0 0
vt 1 0
vt 0 1
vt 1 1
vt 0 0
vt 1 0
vt 0 1
vt 1 1
vt 0 0
vt 1 0
vn 1 0 0
vn 1 0 0
vn 1 0 0
vn 1 0 0
vn -1 0 0
vn -1 0 0
vn -1 0 0
vn -1 0 0
vn 0 1 0
vn 0 1 0
vn 0 1 0
vn 0 1 0
vn 0 -1 0
vn 0 -1 0
vn 0 -1 0
vn 0 -1 0
vn 0 0 1
vn 0 0 1
vn 0 0 1
vn 0 0 1
vn 0 0 -1
vn 0 0 -1
vn 0 0 -1
vn 0 0 -1
f 273/273/273 275/275/275 274/274/274
f 275/275/275 276/276/276 274/274/274
f 277/277/277 279/279/279 278/278/278
f 279/279/279 280/280/280 278/278/278
f 281/281/281 283/283/283 282/282/282
f 283/283/283 284/284/284 282/282/282
f 285/285/285 287/287/287 286/286/286
f 287/287/287 288/288/288 286/286/286
f 289/289/289 291/291/291 290/290/290
f 291/291/291 292/292/292 290/290/290
f 293/293/293 295/295/295 294/294/294
f 295/295/295 296/296/296 294/294/294
