# SM_P0_Ceiling_Lamp_A — Ceiling lamp
# SC_P0_BEDROOM · group A
# bounds 0.29 × 0.30 × 0.25 m · 108 tris · UV island 24 × 16 px
# 1 unit = 1 m · pivot at floor contact, X/Z centred
mtllib SM_P0_Ceiling_Lamp_A.mtl
o rose_plate
usemtl SURF_Wall_Paint
v 0.05999999865889549 0.24500000014901163 0.05999999865889549
v 0.05999999865889549 0.24500000014901163 -0.05999999865889549
v 0.05999999865889549 0.22500000059604647 0.05999999865889549
v 0.05999999865889549 0.22500000059604647 -0.05999999865889549
v -0.05999999865889549 0.24500000014901163 -0.05999999865889549
v -0.05999999865889549 0.24500000014901163 0.05999999865889549
v -0.05999999865889549 0.22500000059604647 -0.05999999865889549
v -0.05999999865889549 0.22500000059604647 0.05999999865889549
v -0.05999999865889549 0.24500000014901163 -0.05999999865889549
v 0.05999999865889549 0.24500000014901163 -0.05999999865889549
v -0.05999999865889549 0.24500000014901163 0.05999999865889549
v 0.05999999865889549 0.24500000014901163 0.05999999865889549
v -0.05999999865889549 0.22500000059604647 0.05999999865889549
v 0.05999999865889549 0.22500000059604647 0.05999999865889549
v -0.05999999865889549 0.22500000059604647 -0.05999999865889549
v 0.05999999865889549 0.22500000059604647 -0.05999999865889549
v -0.05999999865889549 0.24500000014901163 0.05999999865889549
v 0.05999999865889549 0.24500000014901163 0.05999999865889549
v -0.05999999865889549 0.22500000059604647 0.05999999865889549
v 0.05999999865889549 0.22500000059604647 0.05999999865889549
v 0.05999999865889549 0.24500000014901163 -0.05999999865889549
v -0.05999999865889549 0.24500000014901163 -0.05999999865889549
v 0.05999999865889549 0.22500000059604647 -0.05999999865889549
v -0.05999999865889549 0.22500000059604647 -0.05999999865889549
vt 0 1
vt 1 1
vt 0 0
vt 1 0
vt 0 1
vt 1 1
vt 0 0
vt 1 0
vt 0 1
vt 1 1
vt 0 0
vt 1 0
vt 0 1
vt 1 1
vt 0 0
vt 1 0
vt 0 1
vt 1 1
vt 0 0
vt 1 0
vt 0 1
vt 1 1
vt 0 0
vt 1 0
vn 1 0 0
vn 1 0 0
vn 1 0 0
vn 1 0 0
vn -1 0 0
vn -1 0 0
vn -1 0 0
vn -1 0 0
vn 0 1 0
vn 0 1 0
vn 0 1 0
vn 0 1 0
vn 0 -1 0
vn 0 -1 0
vn 0 -1 0
vn 0 -1 0
vn 0 0 1
vn 0 0 1
vn 0 0 1
vn 0 0 1
vn 0 0 -1
vn 0 0 -1
vn 0 0 -1
vn 0 0 -1
f 1/1/1 3/3/3 2/2/2
f 3/3/3 4/4/4 2/2/2
f 5/5/5 7/7/7 6/6/6
f 7/7/7 8/8/8 6/6/6
f 9/9/9 11/11/11 10/10/10
f 11/11/11 12/12/12 10/10/10
f 13/13/13 15/15/15 14/14/14
f 15/15/15 16/16/16 14/14/14
f 17/17/17 19/19/19 18/18/18
f 19/19/19 20/20/20 18/18/18
f 21/21/21 23/23/23 22/22/22
f 23/23/23 24/24/24 22/22/22
o cord
usemtl SURF_Plastic_Matte
v 0 0.22500000186264515 0.006000000052154064
v 0.005196152254939079 0.22500000186264515 0.003000000026077032
v 0.005196152254939079 0.22500000186264515 -0.003000000026077032
v 7.347880536484578e-19 0.22500000186264515 -0.006000000052154064
v -0.005196152254939079 0.22500000186264515 -0.003000000026077032
v -0.005196152254939079 0.22500000186264515 0.003000000026077032
v -1.4695761072969157e-18 0.22500000186264515 0.006000000052154064
v 0 0.024999998882412916 0.006000000052154064
v 0.005196152254939079 0.024999998882412916 0.003000000026077032
v 0.005196152254939079 0.024999998882412916 -0.003000000026077032
v 7.347880536484578e-19 0.024999998882412916 -0.006000000052154064
v -0.005196152254939079 0.024999998882412916 -0.003000000026077032
v -0.005196152254939079 0.024999998882412916 0.003000000026077032
v -1.4695761072969157e-18 0.024999998882412916 0.006000000052154064
v 0 0.22500000186264515 0
v 0 0.22500000186264515 0
v 0 0.22500000186264515 0
v 0 0.22500000186264515 0
v 0 0.22500000186264515 0
v 0 0.22500000186264515 0
v 0 0.22500000186264515 0.006000000052154064
v 0.005196152254939079 0.22500000186264515 0.003000000026077032
v 0.005196152254939079 0.22500000186264515 -0.003000000026077032
v 7.347880536484578e-19 0.22500000186264515 -0.006000000052154064
v -0.005196152254939079 0.22500000186264515 -0.003000000026077032
v -0.005196152254939079 0.22500000186264515 0.003000000026077032
v -1.4695761072969157e-18 0.22500000186264515 0.006000000052154064
v 0 0.024999998882412916 0
v 0 0.024999998882412916 0
v 0 0.024999998882412916 0
v 0 0.024999998882412916 0
v 0 0.024999998882412916 0
v 0 0.024999998882412916 0
v 0 0.024999998882412916 0.006000000052154064
v 0.005196152254939079 0.024999998882412916 0.003000000026077032
v 0.005196152254939079 0.024999998882412916 -0.003000000026077032
v 7.347880536484578e-19 0.024999998882412916 -0.006000000052154064
v -0.005196152254939079 0.024999998882412916 -0.003000000026077032
v -0.005196152254939079 0.024999998882412916 0.003000000026077032
v -1.4695761072969157e-18 0.024999998882412916 0.006000000052154064
vt 0 1
vt 0.1666666716337204 1
vt 0.3333333432674408 1
vt 0.5 1
vt 0.6666666865348816 1
vt 0.8333333134651184 1
vt 1 1
vt 0 0
vt 0.1666666716337204 0
vt 0.3333333432674408 0
vt 0.5 0
vt 0.6666666865348816 0
vt 0.8333333134651184 0
vt 1 0
vt 0.5 0.5
vt 0.5 0.5
vt 0.5 0.5
vt 0.5 0.5
vt 0.5 0.5
vt 0.5 0.5
vt 1 0.5
vt 0.75 0.9330127239227295
vt 0.25 0.9330127239227295
vt 0 0.5
vt 0.25 0.0669872984290123
vt 0.75 0.0669872984290123
vt 1 0.5
vt 0.5 0.5
vt 0.5 0.5
vt 0.5 0.5
vt 0.5 0.5
vt 0.5 0.5
vt 0.5 0.5
vt 1 0.5
vt 0.75 0.0669872984290123
vt 0.25 0.0669872984290123
vt 0 0.5
vt 0.25 0.9330127239227295
vt 0.75 0.9330127239227295
vt 1 0.5
vn 0 0 1
vn 0.8660253998985324 0 0.5000000067305869
vn 0.8660253998985324 0 -0.5000000067305869
vn 1.2246468525851679e-16 0 -1
vn -0.8660253998985324 0 -0.5000000067305869
vn -0.8660253998985324 0 0.5000000067305869
vn -2.4492937051703357e-16 0 1
vn 0 0 1
vn 0.8660253998985324 0 0.5000000067305869
vn 0.8660253998985324 0 -0.5000000067305869
vn 1.2246468525851679e-16 0 -1
vn -0.8660253998985324 0 -0.5000000067305869
vn -0.8660253998985324 0 0.5000000067305869
vn -2.4492937051703357e-16 0 1
vn 0 1 0
vn 0 1 0
vn 0 1 0
vn 0 1 0
vn 0 1 0
vn 0 1 0
vn 0 1 0
vn 0 1 0
vn 0 1 0
vn 0 1 0
vn 0 1 0
vn 0 1 0
vn 0 1 0
vn 0 -1 0
vn 0 -1 0
vn 0 -1 0
vn 0 -1 0
vn 0 -1 0
vn 0 -1 0
vn 0 -1 0
vn 0 -1 0
vn 0 -1 0
vn 0 -1 0
vn 0 -1 0
vn 0 -1 0
vn 0 -1 0
f 25/25/25 32/32/32 26/26/26
f 32/32/32 33/33/33 26/26/26
f 26/26/26 33/33/33 27/27/27
f 33/33/33 34/34/34 27/27/27
f 27/27/27 34/34/34 28/28/28
f 34/34/34 35/35/35 28/28/28
f 28/28/28 35/35/35 29/29/29
f 35/35/35 36/36/36 29/29/29
f 29/29/29 36/36/36 30/30/30
f 36/36/36 37/37/37 30/30/30
f 30/30/30 37/37/37 31/31/31
f 37/37/37 38/38/38 31/31/31
f 45/45/45 46/46/46 39/39/39
f 46/46/46 47/47/47 40/40/40
f 47/47/47 48/48/48 41/41/41
f 48/48/48 49/49/49 42/42/42
f 49/49/49 50/50/50 43/43/43
f 50/50/50 51/51/51 44/44/44
f 59/59/59 58/58/58 52/52/52
f 60/60/60 59/59/59 53/53/53
f 61/61/61 60/60/60 54/54/54
f 62/62/62 61/61/61 55/55/55
f 63/63/63 62/62/62 56/56/56
f 64/64/64 63/63/63 57/57/57
o shade
usemtl SURF_Metal_Lamp
v 0 0.11500000007450581 0.15000000596046448
v 0.08816778659820557 0.11500000007450581 0.12135254591703415
v 0.14265847206115723 0.11500000007450581 0.04635255038738251
v 0.14265847206115723 0.11500000007450581 -0.04635255038738251
v 0.08816778659820557 0.11500000007450581 -0.12135254591703415
v 1.8369702788777518e-17 0.11500000007450581 -0.15000000596046448
v -0.08816778659820557 0.11500000007450581 -0.12135254591703415
v -0.14265847206115723 0.11500000007450581 -0.04635255038738251
v -0.14265847206115723 0.11500000007450581 0.04635255038738251
v -0.08816778659820557 0.11500000007450581 0.12135254591703415
v -3.6739405577555036e-17 0.11500000007450581 0.15000000596046448
v 0 0.005000000670552257 0.09000000357627869
v 0.05290067195892334 0.005000000670552257 0.07281152904033661
v 0.08559508621692657 0.005000000670552257 0.027811529114842415
v 0.08559508621692657 0.005000000670552257 -0.027811529114842415
v 0.05290067195892334 0.005000000670552257 -0.07281152904033661
v 1.102182101152202e-17 0.005000000670552257 -0.09000000357627869
v -0.05290067195892334 0.005000000670552257 -0.07281152904033661
v -0.08559508621692657 0.005000000670552257 -0.027811529114842415
v -0.08559508621692657 0.005000000670552257 0.027811529114842415
v -0.05290067195892334 0.005000000670552257 0.07281152904033661
v -2.204364202304404e-17 0.005000000670552257 0.09000000357627869
v 0 0.11500000007450581 0
v 0 0.11500000007450581 0
v 0 0.11500000007450581 0
v 0 0.11500000007450581 0
v 0 0.11500000007450581 0
v 0 0.11500000007450581 0
v 0 0.11500000007450581 0
v 0 0.11500000007450581 0
v 0 0.11500000007450581 0
v 0 0.11500000007450581 0
v 0 0.11500000007450581 0.15000000596046448
v 0.08816778659820557 0.11500000007450581 0.12135254591703415
v 0.14265847206115723 0.11500000007450581 0.04635255038738251
v 0.14265847206115723 0.11500000007450581 -0.04635255038738251
v 0.08816778659820557 0.11500000007450581 -0.12135254591703415
v 1.8369702788777518e-17 0.11500000007450581 -0.15000000596046448
v -0.08816778659820557 0.11500000007450581 -0.12135254591703415
v -0.14265847206115723 0.11500000007450581 -0.04635255038738251
v -0.14265847206115723 0.11500000007450581 0.04635255038738251
v -0.08816778659820557 0.11500000007450581 0.12135254591703415
v -3.6739405577555036e-17 0.11500000007450581 0.15000000596046448
v 0 0.005000000670552257 0
v 0 0.005000000670552257 0
v 0 0.005000000670552257 0
v 0 0.005000000670552257 0
v 0 0.005000000670552257 0
v 0 0.005000000670552257 0
v 0 0.005000000670552257 0
v 0 0.005000000670552257 0
v 0 0.005000000670552257 0
v 0 0.005000000670552257 0
v 0 0.005000000670552257 0.09000000357627869
v 0.05290067195892334 0.005000000670552257 0.07281152904033661
v 0.08559508621692657 0.005000000670552257 0.027811529114842415
v 0.08559508621692657 0.005000000670552257 -0.027811529114842415
v 0.05290067195892334 0.005000000670552257 -0.07281152904033661
v 1.102182101152202e-17 0.005000000670552257 -0.09000000357627869
v -0.05290067195892334 0.005000000670552257 -0.07281152904033661
v -0.08559508621692657 0.005000000670552257 -0.027811529114842415
v -0.08559508621692657 0.005000000670552257 0.027811529114842415
v -0.05290067195892334 0.005000000670552257 0.07281152904033661
v -2.204364202304404e-17 0.005000000670552257 0.09000000357627869
vt 0 1
vt 0.10000000149011612 1
vt 0.20000000298023224 1
vt 0.30000001192092896 1
vt 0.4000000059604645 1
vt 0.5 1
vt 0.6000000238418579 1
vt 0.699999988079071 1
vt 0.800000011920929 1
vt 0.8999999761581421 1
vt 1 1
vt 0 0
vt 0.10000000149011612 0
vt 0.20000000298023224 0
vt 0.30000001192092896 0
vt 0.4000000059604645 0
vt 0.5 0
vt 0.6000000238418579 0
vt 0.699999988079071 0
vt 0.800000011920929 0
vt 0.8999999761581421 0
vt 1 0
vt 0.5 0.5
vt 0.5 0.5
vt 0.5 0.5
vt 0.5 0.5
vt 0.5 0.5
vt 0.5 0.5
vt 0.5 0.5
vt 0.5 0.5
vt 0.5 0.5
vt 0.5 0.5
vt 1 0.5
vt 0.9045084714889526 0.7938926219940186
vt 0.6545084714889526 0.9755282402038574
vt 0.345491498708725 0.9755282402038574
vt 0.09549150615930557 0.7938926219940186
vt 0 0.5
vt 0.09549150615930557 0.20610737800598145
vt 0.345491498708725 0.024471741169691086
vt 0.6545084714889526 0.024471741169691086
vt 0.9045084714889526 0.20610737800598145
vt 1 0.5
vt 0.5 0.5
vt 0.5 0.5
vt 0.5 0.5
vt 0.5 0.5
vt 0.5 0.5
vt 0.5 0.5
vt 0.5 0.5
vt 0.5 0.5
vt 0.5 0.5
vt 0.5 0.5
vt 1 0.5
vt 0.9045084714889526 0.20610737800598145
vt 0.6545084714889526 0.024471741169691086
vt 0.345491498708725 0.024471741169691086
vt 0.09549150615930557 0.20610737800598145
vt 0 0.5
vt 0.09549150615930557 0.7938926219940186
vt 0.345491498708725 0.9755282402038574
vt 0.6545084714889526 0.9755282402038574
vt 0.9045084714889526 0.7938926219940186
vt 1 0.5
vn 0 -0.47885211606414774 0.8778955808869798
vn 0.5160140938850528 -0.47885211816312445 0.7102324294501603
vn 0.8349283195457193 -0.47885211487023366 0.2712846352170832
vn 0.8349283195457193 -0.47885211487023366 -0.2712846352170832
vn 0.5160140938850528 -0.47885211816312445 -0.7102324294501603
vn 1.0751119713272892e-16 -0.47885211606414774 -0.8778955808869798
vn -0.5160140938850528 -0.47885211816312445 -0.7102324294501603
vn -0.8349283195457193 -0.47885211487023366 -0.2712846352170832
vn -0.8349283195457193 -0.47885211487023366 0.2712846352170832
vn -0.5160140938850528 -0.47885211816312445 0.7102324294501603
vn -2.1502239426545784e-16 -0.47885211606414774 0.8778955808869798
vn 0 -0.47885211606414774 0.8778955808869798
vn 0.5160140938850528 -0.47885211816312445 0.7102324294501603
vn 0.8349283195457193 -0.47885211487023366 0.2712846352170832
vn 0.8349283195457193 -0.47885211487023366 -0.2712846352170832
vn 0.5160140938850528 -0.47885211816312445 -0.7102324294501603
vn 1.0751119713272892e-16 -0.47885211606414774 -0.8778955808869798
vn -0.5160140938850528 -0.47885211816312445 -0.7102324294501603
vn -0.8349283195457193 -0.47885211487023366 -0.2712846352170832
vn -0.8349283195457193 -0.47885211487023366 0.2712846352170832
vn -0.5160140938850528 -0.47885211816312445 0.7102324294501603
vn -2.1502239426545784e-16 -0.47885211606414774 0.8778955808869798
vn 0 1 0
vn 0 1 0
vn 0 1 0
vn 0 1 0
vn 0 1 0
vn 0 1 0
vn 0 1 0
vn 0 1 0
vn 0 1 0
vn 0 1 0
vn 0 1 0
vn 0 1 0
vn 0 1 0
vn 0 1 0
vn 0 1 0
vn 0 1 0
vn 0 1 0
vn 0 1 0
vn 0 1 0
vn 0 1 0
vn 0 1 0
vn 0 -1 0
vn 0 -1 0
vn 0 -1 0
vn 0 -1 0
vn 0 -1 0
vn 0 -1 0
vn 0 -1 0
vn 0 -1 0
vn 0 -1 0
vn 0 -1 0
vn 0 -1 0
vn 0 -1 0
vn 0 -1 0
vn 0 -1 0
vn 0 -1 0
vn 0 -1 0
vn 0 -1 0
vn 0 -1 0
vn 0 -1 0
vn 0 -1 0
vn 0 -1 0
f 65/65/65 76/76/76 66/66/66
f 76/76/76 77/77/77 66/66/66
f 66/66/66 77/77/77 67/67/67
f 77/77/77 78/78/78 67/67/67
f 67/67/67 78/78/78 68/68/68
f 78/78/78 79/79/79 68/68/68
f 68/68/68 79/79/79 69/69/69
f 79/79/79 80/80/80 69/69/69
f 69/69/69 80/80/80 70/70/70
f 80/80/80 81/81/81 70/70/70
f 70/70/70 81/81/81 71/71/71
f 81/81/81 82/82/82 71/71/71
f 71/71/71 82/82/82 72/72/72
f 82/82/82 83/83/83 72/72/72
f 72/72/72 83/83/83 73/73/73
f 83/83/83 84/84/84 73/73/73
f 73/73/73 84/84/84 74/74/74
f 84/84/84 85/85/85 74/74/74
f 74/74/74 85/85/85 75/75/75
f 85/85/85 86/86/86 75/75/75
f 97/97/97 98/98/98 87/87/87
f 98/98/98 99/99/99 88/88/88
f 99/99/99 100/100/100 89/89/89
f 100/100/100 101/101/101 90/90/90
f 101/101/101 102/102/102 91/91/91
f 102/102/102 103/103/103 92/92/92
f 103/103/103 104/104/104 93/93/93
f 104/104/104 105/105/105 94/94/94
f 105/105/105 106/106/106 95/95/95
f 106/106/106 107/107/107 96/96/96
f 119/119/119 118/118/118 108/108/108
f 120/120/120 119/119/119 109/109/109
f 121/121/121 120/120/120 110/110/110
f 122/122/122 121/121/121 111/111/111
f 123/123/123 122/122/122 112/112/112
f 124/124/124 123/123/123 113/113/113
f 125/125/125 124/124/124 114/114/114
f 126/126/126 125/125/125 115/115/115
f 127/127/127 126/126/126 116/116/116
f 128/128/128 127/127/127 117/117/117
o bulb
usemtl SURF_Emissive_Screen
v 0 0.05000000074505806 0.03500000014901161
v 0.02474873699247837 0.05000000074505806 0.02474873699247837
v 0.03500000014901161 0.05000000074505806 2.1431319093059825e-18
v 0.02474873699247837 0.05000000074505806 -0.02474873699247837
v 4.286263818611965e-18 0.05000000074505806 -0.03500000014901161
v -0.02474873699247837 0.05000000074505806 -0.02474873699247837
v -0.03500000014901161 0.05000000074505806 -6.4293957279179475e-18
v -0.02474873699247837 0.05000000074505806 0.02474873699247837
v -8.57252763722393e-18 0.05000000074505806 0.03500000014901161
v 0 0 0.03500000014901161
v 0.02474873699247837 0 0.02474873699247837
v 0.03500000014901161 0 2.1431319093059825e-18
v 0.02474873699247837 0 -0.02474873699247837
v 4.286263818611965e-18 0 -0.03500000014901161
v -0.02474873699247837 0 -0.02474873699247837
v -0.03500000014901161 0 -6.4293957279179475e-18
v -0.02474873699247837 0 0.02474873699247837
v -8.57252763722393e-18 0 0.03500000014901161
v 0 0.05000000074505806 0
v 0 0.05000000074505806 0
v 0 0.05000000074505806 0
v 0 0.05000000074505806 0
v 0 0.05000000074505806 0
v 0 0.05000000074505806 0
v 0 0.05000000074505806 0
v 0 0.05000000074505806 0
v 0 0.05000000074505806 0.03500000014901161
v 0.02474873699247837 0.05000000074505806 0.02474873699247837
v 0.03500000014901161 0.05000000074505806 2.1431319093059825e-18
v 0.02474873699247837 0.05000000074505806 -0.02474873699247837
v 4.286263818611965e-18 0.05000000074505806 -0.03500000014901161
v -0.02474873699247837 0.05000000074505806 -0.02474873699247837
v -0.03500000014901161 0.05000000074505806 -6.4293957279179475e-18
v -0.02474873699247837 0.05000000074505806 0.02474873699247837
v -8.57252763722393e-18 0.05000000074505806 0.03500000014901161
v 0 0 0
v 0 0 0
v 0 0 0
v 0 0 0
v 0 0 0
v 0 0 0
v 0 0 0
v 0 0 0
v 0 0 0.03500000014901161
v 0.02474873699247837 0 0.02474873699247837
v 0.03500000014901161 0 2.1431319093059825e-18
v 0.02474873699247837 0 -0.02474873699247837
v 4.286263818611965e-18 0 -0.03500000014901161
v -0.02474873699247837 0 -0.02474873699247837
v -0.03500000014901161 0 -6.4293957279179475e-18
v -0.02474873699247837 0 0.02474873699247837
v -8.57252763722393e-18 0 0.03500000014901161
vt 0 1
vt 0.125 1
vt 0.25 1
vt 0.375 1
vt 0.5 1
vt 0.625 1
vt 0.75 1
vt 0.875 1
vt 1 1
vt 0 0
vt 0.125 0
vt 0.25 0
vt 0.375 0
vt 0.5 0
vt 0.625 0
vt 0.75 0
vt 0.875 0
vt 1 0
vt 0.5 0.5
vt 0.5 0.5
vt 0.5 0.5
vt 0.5 0.5
vt 0.5 0.5
vt 0.5 0.5
vt 0.5 0.5
vt 0.5 0.5
vt 1 0.5
vt 0.8535534143447876 0.8535534143447876
vt 0.5 1
vt 0.1464466154575348 0.8535534143447876
vt 0 0.5
vt 0.1464466154575348 0.1464466154575348
vt 0.5 0
vt 0.8535534143447876 0.1464466154575348
vt 1 0.5
vt 0.5 0.5
vt 0.5 0.5
vt 0.5 0.5
vt 0.5 0.5
vt 0.5 0.5
vt 0.5 0.5
vt 0.5 0.5
vt 0.5 0.5
vt 1 0.5
vt 0.8535534143447876 0.1464466154575348
vt 0.5 0
vt 0.1464466154575348 0.1464466154575348
vt 0 0.5
vt 0.1464466154575348 0.8535534143447876
vt 0.5 1
vt 0.8535534143447876 0.8535534143447876
vt 1 0.5
vn 0 0 1
vn 0.7071067811865476 0 0.7071067811865476
vn 1 0 6.123234262925839e-17
vn 0.7071067811865476 0 -0.7071067811865476
vn 1.2246468525851679e-16 0 -1
vn -0.7071067811865476 0 -0.7071067811865476
vn -1 0 -1.8369701465288538e-16
vn -0.7071067811865476 0 0.7071067811865476
vn -2.4492937051703357e-16 0 1
vn 0 0 1
vn 0.7071067811865476 0 0.7071067811865476
vn 1 0 6.123234262925839e-17
vn 0.7071067811865476 0 -0.7071067811865476
vn 1.2246468525851679e-16 0 -1
vn -0.7071067811865476 0 -0.7071067811865476
vn -1 0 -1.8369701465288538e-16
vn -0.7071067811865476 0 0.7071067811865476
vn -2.4492937051703357e-16 0 1
vn 0 1 0
vn 0 1 0
vn 0 1 0
vn 0 1 0
vn 0 1 0
vn 0 1 0
vn 0 1 0
vn 0 1 0
vn 0 1 0
vn 0 1 0
vn 0 1 0
vn 0 1 0
vn 0 1 0
vn 0 1 0
vn 0 1 0
vn 0 1 0
vn 0 1 0
vn 0 -1 0
vn 0 -1 0
vn 0 -1 0
vn 0 -1 0
vn 0 -1 0
vn 0 -1 0
vn 0 -1 0
vn 0 -1 0
vn 0 -1 0
vn 0 -1 0
vn 0 -1 0
vn 0 -1 0
vn 0 -1 0
vn 0 -1 0
vn 0 -1 0
vn 0 -1 0
vn 0 -1 0
f 129/129/129 138/138/138 130/130/130
f 138/138/138 139/139/139 130/130/130
f 130/130/130 139/139/139 131/131/131
f 139/139/139 140/140/140 131/131/131
f 131/131/131 140/140/140 132/132/132
f 140/140/140 141/141/141 132/132/132
f 132/132/132 141/141/141 133/133/133
f 141/141/141 142/142/142 133/133/133
f 133/133/133 142/142/142 134/134/134
f 142/142/142 143/143/143 134/134/134
f 134/134/134 143/143/143 135/135/135
f 143/143/143 144/144/144 135/135/135
f 135/135/135 144/144/144 136/136/136
f 144/144/144 145/145/145 136/136/136
f 136/136/136 145/145/145 137/137/137
f 145/145/145 146/146/146 137/137/137
f 155/155/155 156/156/156 147/147/147
f 156/156/156 157/157/157 148/148/148
f 157/157/157 158/158/158 149/149/149
f 158/158/158 159/159/159 150/150/150
f 159/159/159 160/160/160 151/151/151
f 160/160/160 161/161/161 152/152/152
f 161/161/161 162/162/162 153/153/153
f 162/162/162 163/163/163 154/154/154
f 173/173/173 172/172/172 164/164/164
f 174/174/174 173/173/173 165/165/165
f 175/175/175 174/174/174 166/166/166
f 176/176/176 175/175/175 167/167/167
f 177/177/177 176/176/176 168/168/168
f 178/178/178 177/177/177 169/169/169
f 179/179/179 178/178/178 170/170/170
f 180/180/180 179/179/179 171/171/171
