# PRP_P1_Manhole_A — Manhole cover
# SC_P1_WALK · group B
# bounds 0.70 × 0.70 × 0.04 m · 128 tris · UV island 40 × 40 px
# 1 unit = 1 m · pivot at floor contact, X/Z centred
mtllib PRP_P1_Manhole_A.mtl
o frame_ring
usemtl SURF_Metal_Fence
v 0 0.019999999552965164 0.3499999940395355
v 0.17499999701976776 0.019999999552965164 0.30310890078544617
v 0.30310890078544617 0.019999999552965164 0.17499999701976776
v 0.3499999940395355 0.019999999552965164 2.1431318265879212e-17
v 0.30310890078544617 0.019999999552965164 -0.17499999701976776
v 0.17499999701976776 0.019999999552965164 -0.30310890078544617
v 4.2862636531758425e-17 0.019999999552965164 -0.3499999940395355
v -0.17499999701976776 0.019999999552965164 -0.30310890078544617
v -0.30310890078544617 0.019999999552965164 -0.17499999701976776
v -0.3499999940395355 0.019999999552965164 -6.429395645199886e-17
v -0.30310890078544617 0.019999999552965164 0.17499999701976776
v -0.17499999701976776 0.019999999552965164 0.30310890078544617
v -8.572527306351685e-17 0.019999999552965164 0.3499999940395355
v 0 0 0.3499999940395355
v 0.17499999701976776 0 0.30310890078544617
v 0.30310890078544617 0 0.17499999701976776
v 0.3499999940395355 0 2.1431318265879212e-17
v 0.30310890078544617 0 -0.17499999701976776
v 0.17499999701976776 0 -0.30310890078544617
v 4.2862636531758425e-17 0 -0.3499999940395355
v -0.17499999701976776 0 -0.30310890078544617
v -0.30310890078544617 0 -0.17499999701976776
v -0.3499999940395355 0 -6.429395645199886e-17
v -0.30310890078544617 0 0.17499999701976776
v -0.17499999701976776 0 0.30310890078544617
v -8.572527306351685e-17 0 0.3499999940395355
v 0 0.019999999552965164 0
v 0 0.019999999552965164 0
v 0 0.019999999552965164 0
v 0 0.019999999552965164 0
v 0 0.019999999552965164 0
v 0 0.019999999552965164 0
v 0 0.019999999552965164 0
v 0 0.019999999552965164 0
v 0 0.019999999552965164 0
v 0 0.019999999552965164 0
v 0 0.019999999552965164 0
v 0 0.019999999552965164 0
v 0 0.019999999552965164 0.3499999940395355
v 0.17499999701976776 0.019999999552965164 0.30310890078544617
v 0.30310890078544617 0.019999999552965164 0.17499999701976776
v 0.3499999940395355 0.019999999552965164 2.1431318265879212e-17
v 0.30310890078544617 0.019999999552965164 -0.17499999701976776
v 0.17499999701976776 0.019999999552965164 -0.30310890078544617
v 4.2862636531758425e-17 0.019999999552965164 -0.3499999940395355
v -0.17499999701976776 0.019999999552965164 -0.30310890078544617
v -0.30310890078544617 0.019999999552965164 -0.17499999701976776
v -0.3499999940395355 0.019999999552965164 -6.429395645199886e-17
v -0.30310890078544617 0.019999999552965164 0.17499999701976776
v -0.17499999701976776 0.019999999552965164 0.30310890078544617
v -8.572527306351685e-17 0.019999999552965164 0.3499999940395355
v 0 0 0
v 0 0 0
v 0 0 0
v 0 0 0
v 0 0 0
v 0 0 0
v 0 0 0
v 0 0 0
v 0 0 0
v 0 0 0
v 0 0 0
v 0 0 0
v 0 0 0.3499999940395355
v 0.17499999701976776 0 0.30310890078544617
v 0.30310890078544617 0 0.17499999701976776
v 0.3499999940395355 0 2.1431318265879212e-17
v 0.30310890078544617 0 -0.17499999701976776
v 0.17499999701976776 0 -0.30310890078544617
v 4.2862636531758425e-17 0 -0.3499999940395355
v -0.17499999701976776 0 -0.30310890078544617
v -0.30310890078544617 0 -0.17499999701976776
v -0.3499999940395355 0 -6.429395645199886e-17
v -0.30310890078544617 0 0.17499999701976776
v -0.17499999701976776 0 0.30310890078544617
v -8.572527306351685e-17 0 0.3499999940395355
vt 0 1
vt 0.0833333358168602 1
vt 0.1666666716337204 1
vt 0.25 1
vt 0.3333333432674408 1
vt 0.4166666567325592 1
vt 0.5 1
vt 0.5833333134651184 1
vt 0.6666666865348816 1
vt 0.75 1
vt 0.8333333134651184 1
vt 0.9166666865348816 1
vt 1 1
vt 0 0
vt 0.0833333358168602 0
vt 0.1666666716337204 0
vt 0.25 0
vt 0.3333333432674408 0
vt 0.4166666567325592 0
vt 0.5 0
vt 0.5833333134651184 0
vt 0.6666666865348816 0
vt 0.75 0
vt 0.8333333134651184 0
vt 0.9166666865348816 0
vt 1 0
vt 0.5 0.5
vt 0.5 0.5
vt 0.5 0.5
vt 0.5 0.5
vt 0.5 0.5
vt 0.5 0.5
vt 0.5 0.5
vt 0.5 0.5
vt 0.5 0.5
vt 0.5 0.5
vt 0.5 0.5
vt 0.5 0.5
vt 1 0.5
vt 0.9330127239227295 0.75
vt 0.75 0.9330127239227295
vt 0.5 1
vt 0.25 0.9330127239227295
vt 0.0669872984290123 0.75
vt 0 0.5
vt 0.0669872984290123 0.25
vt 0.25 0.0669872984290123
vt 0.5 0
vt 0.75 0.0669872984290123
vt 0.9330127239227295 0.25
vt 1 0.5
vt 0.5 0.5
vt 0.5 0.5
vt 0.5 0.5
vt 0.5 0.5
vt 0.5 0.5
vt 0.5 0.5
vt 0.5 0.5
vt 0.5 0.5
vt 0.5 0.5
vt 0.5 0.5
vt 0.5 0.5
vt 0.5 0.5
vt 1 0.5
vt 0.9330127239227295 0.25
vt 0.75 0.0669872984290123
vt 0.5 0
vt 0.25 0.0669872984290123
vt 0.0669872984290123 0.25
vt 0 0.5
vt 0.0669872984290123 0.75
vt 0.25 0.9330127239227295
vt 0.5 1
vt 0.75 0.9330127239227295
vt 0.9330127239227295 0.75
vt 1 0.5
vn 0 0 1
vn 0.5000000067305869 0 0.8660253998985324
vn 0.8660253998985324 0 0.5000000067305869
vn 1 0 6.123234262925839e-17
vn 0.8660253998985324 0 -0.5000000067305869
vn 0.5000000067305869 0 -0.8660253998985324
vn 1.2246468525851679e-16 0 -1
vn -0.5000000067305869 0 -0.8660253998985324
vn -0.8660253998985324 0 -0.5000000067305869
vn -1 0 -1.8369701465288538e-16
vn -0.8660253998985324 0 0.5000000067305869
vn -0.5000000067305869 0 0.8660253998985324
vn -2.4492937051703357e-16 0 1
vn 0 0 1
vn 0.5000000067305869 0 0.8660253998985324
vn 0.8660253998985324 0 0.5000000067305869
vn 1 0 6.123234262925839e-17
vn 0.8660253998985324 0 -0.5000000067305869
vn 0.5000000067305869 0 -0.8660253998985324
vn 1.2246468525851679e-16 0 -1
vn -0.5000000067305869 0 -0.8660253998985324
vn -0.8660253998985324 0 -0.5000000067305869
vn -1 0 -1.8369701465288538e-16
vn -0.8660253998985324 0 0.5000000067305869
vn -0.5000000067305869 0 0.8660253998985324
vn -2.4492937051703357e-16 0 1
vn 0 1 0
vn 0 1 0
vn 0 1 0
vn 0 1 0
vn 0 1 0
vn 0 1 0
vn 0 1 0
vn 0 1 0
vn 0 1 0
vn 0 1 0
vn 0 1 0
vn 0 1 0
vn 0 1 0
vn 0 1 0
vn 0 1 0
vn 0 1 0
vn 0 1 0
vn 0 1 0
vn 0 1 0
vn 0 1 0
vn 0 1 0
vn 0 1 0
vn 0 1 0
vn 0 1 0
vn 0 1 0
vn 0 -1 0
vn 0 -1 0
vn 0 -1 0
vn 0 -1 0
vn 0 -1 0
vn 0 -1 0
vn 0 -1 0
vn 0 -1 0
vn 0 -1 0
vn 0 -1 0
vn 0 -1 0
vn 0 -1 0
vn 0 -1 0
vn 0 -1 0
vn 0 -1 0
vn 0 -1 0
vn 0 -1 0
vn 0 -1 0
vn 0 -1 0
vn 0 -1 0
vn 0 -1 0
vn 0 -1 0
vn 0 -1 0
vn 0 -1 0
vn 0 -1 0
f 1/1/1 14/14/14 2/2/2
f 14/14/14 15/15/15 2/2/2
f 2/2/2 15/15/15 3/3/3
f 15/15/15 16/16/16 3/3/3
f 3/3/3 16/16/16 4/4/4
f 16/16/16 17/17/17 4/4/4
f 4/4/4 17/17/17 5/5/5
f 17/17/17 18/18/18 5/5/5
f 5/5/5 18/18/18 6/6/6
f 18/18/18 19/19/19 6/6/6
f 6/6/6 19/19/19 7/7/7
f 19/19/19 20/20/20 7/7/7
f 7/7/7 20/20/20 8/8/8
f 20/20/20 21/21/21 8/8/8
f 8/8/8 21/21/21 9/9/9
f 21/21/21 22/22/22 9/9/9
f 9/9/9 22/22/22 10/10/10
f 22/22/22 23/23/23 10/10/10
f 10/10/10 23/23/23 11/11/11
f 23/23/23 24/24/24 11/11/11
f 11/11/11 24/24/24 12/12/12
f 24/24/24 25/25/25 12/12/12
f 12/12/12 25/25/25 13/13/13
f 25/25/25 26/26/26 13/13/13
f 39/39/39 40/40/40 27/27/27
f 40/40/40 41/41/41 28/28/28
f 41/41/41 42/42/42 29/29/29
f 42/42/42 43/43/43 30/30/30
f 43/43/43 44/44/44 31/31/31
f 44/44/44 45/45/45 32/32/32
f 45/45/45 46/46/46 33/33/33
f 46/46/46 47/47/47 34/34/34
f 47/47/47 48/48/48 35/35/35
f 48/48/48 49/49/49 36/36/36
f 49/49/49 50/50/50 37/37/37
f 50/50/50 51/51/51 38/38/38
f 65/65/65 64/64/64 52/52/52
f 66/66/66 65/65/65 53/53/53
f 67/67/67 66/66/66 54/54/54
f 68/68/68 67/67/67 55/55/55
f 69/69/69 68/68/68 56/56/56
f 70/70/70 69/69/69 57/57/57
f 71/71/71 70/70/70 58/58/58
f 72/72/72 71/71/71 59/59/59
f 73/73/73 72/72/72 60/60/60
f 74/74/74 73/73/73 61/61/61
f 75/75/75 74/74/74 62/62/62
f 76/76/76 75/75/75 63/63/63
o cover
usemtl SURF_Metal_Fence
v 0 0.029999999552965166 0.3100000023841858
v 0.1550000011920929 0.029999999552965166 0.26846787333488464
v 0.26846787333488464 0.029999999552965166 0.1550000011920929
v 0.3100000023841858 0.029999999552965166 1.8982024891581122e-17
v 0.26846787333488464 0.029999999552965166 -0.1550000011920929
v 0.1550000011920929 0.029999999552965166 -0.26846787333488464
v 3.7964049783162243e-17 0.029999999552965166 -0.3100000023841858
v -0.1550000011920929 0.029999999552965166 -0.26846787333488464
v -0.26846787333488464 0.029999999552965166 -0.1550000011920929
v -0.3100000023841858 0.029999999552965166 -5.694607798346582e-17
v -0.26846787333488464 0.029999999552965166 0.1550000011920929
v -0.1550000011920929 0.029999999552965166 0.26846787333488464
v -7.592809956632449e-17 0.029999999552965166 0.3100000023841858
v 0 0.010000000000000002 0.3100000023841858
v 0.1550000011920929 0.010000000000000002 0.26846787333488464
v 0.26846787333488464 0.010000000000000002 0.1550000011920929
v 0.3100000023841858 0.010000000000000002 1.8982024891581122e-17
v 0.26846787333488464 0.010000000000000002 -0.1550000011920929
v 0.1550000011920929 0.010000000000000002 -0.26846787333488464
v 3.7964049783162243e-17 0.010000000000000002 -0.3100000023841858
v -0.1550000011920929 0.010000000000000002 -0.26846787333488464
v -0.26846787333488464 0.010000000000000002 -0.1550000011920929
v -0.3100000023841858 0.010000000000000002 -5.694607798346582e-17
v -0.26846787333488464 0.010000000000000002 0.1550000011920929
v -0.1550000011920929 0.010000000000000002 0.26846787333488464
v -7.592809956632449e-17 0.010000000000000002 0.3100000023841858
v 0 0.029999999552965166 0
v 0 0.029999999552965166 0
v 0 0.029999999552965166 0
v 0 0.029999999552965166 0
v 0 0.029999999552965166 0
v 0 0.029999999552965166 0
v 0 0.029999999552965166 0
v 0 0.029999999552965166 0
v 0 0.029999999552965166 0
v 0 0.029999999552965166 0
v 0 0.029999999552965166 0
v 0 0.029999999552965166 0
v 0 0.029999999552965166 0.3100000023841858
v 0.1550000011920929 0.029999999552965166 0.26846787333488464
v 0.26846787333488464 0.029999999552965166 0.1550000011920929
v 0.3100000023841858 0.029999999552965166 1.8982024891581122e-17
v 0.26846787333488464 0.029999999552965166 -0.1550000011920929
v 0.1550000011920929 0.029999999552965166 -0.26846787333488464
v 3.7964049783162243e-17 0.029999999552965166 -0.3100000023841858
v -0.1550000011920929 0.029999999552965166 -0.26846787333488464
v -0.26846787333488464 0.029999999552965166 -0.1550000011920929
v -0.3100000023841858 0.029999999552965166 -5.694607798346582e-17
v -0.26846787333488464 0.029999999552965166 0.1550000011920929
v -0.1550000011920929 0.029999999552965166 0.26846787333488464
v -7.592809956632449e-17 0.029999999552965166 0.3100000023841858
v 0 0.010000000000000002 0
v 0 0.010000000000000002 0
v 0 0.010000000000000002 0
v 0 0.010000000000000002 0
v 0 0.010000000000000002 0
v 0 0.010000000000000002 0
v 0 0.010000000000000002 0
v 0 0.010000000000000002 0
v 0 0.010000000000000002 0
v 0 0.010000000000000002 0
v 0 0.010000000000000002 0
v 0 0.010000000000000002 0
v 0 0.010000000000000002 0.3100000023841858
v 0.1550000011920929 0.010000000000000002 0.26846787333488464
v 0.26846787333488464 0.010000000000000002 0.1550000011920929
v 0.3100000023841858 0.010000000000000002 1.8982024891581122e-17
v 0.26846787333488464 0.010000000000000002 -0.1550000011920929
v 0.1550000011920929 0.010000000000000002 -0.26846787333488464
v 3.7964049783162243e-17 0.010000000000000002 -0.3100000023841858
v -0.1550000011920929 0.010000000000000002 -0.26846787333488464
v -0.26846787333488464 0.010000000000000002 -0.1550000011920929
v -0.3100000023841858 0.010000000000000002 -5.694607798346582e-17
v -0.26846787333488464 0.010000000000000002 0.1550000011920929
v -0.1550000011920929 0.010000000000000002 0.26846787333488464
v -7.592809956632449e-17 0.010000000000000002 0.3100000023841858
vt 0 1
vt 0.0833333358168602 1
vt 0.1666666716337204 1
vt 0.25 1
vt 0.3333333432674408 1
vt 0.4166666567325592 1
vt 0.5 1
vt 0.5833333134651184 1
vt 0.6666666865348816 1
vt 0.75 1
vt 0.8333333134651184 1
vt 0.9166666865348816 1
vt 1 1
vt 0 0
vt 0.0833333358168602 0
vt 0.1666666716337204 0
vt 0.25 0
vt 0.3333333432674408 0
vt 0.4166666567325592 0
vt 0.5 0
vt 0.5833333134651184 0
vt 0.6666666865348816 0
vt 0.75 0
vt 0.8333333134651184 0
vt 0.9166666865348816 0
vt 1 0
vt 0.5 0.5
vt 0.5 0.5
vt 0.5 0.5
vt 0.5 0.5
vt 0.5 0.5
vt 0.5 0.5
vt 0.5 0.5
vt 0.5 0.5
vt 0.5 0.5
vt 0.5 0.5
vt 0.5 0.5
vt 0.5 0.5
vt 1 0.5
vt 0.9330127239227295 0.75
vt 0.75 0.9330127239227295
vt 0.5 1
vt 0.25 0.9330127239227295
vt 0.0669872984290123 0.75
vt 0 0.5
vt 0.0669872984290123 0.25
vt 0.25 0.0669872984290123
vt 0.5 0
vt 0.75 0.0669872984290123
vt 0.9330127239227295 0.25
vt 1 0.5
vt 0.5 0.5
vt 0.5 0.5
vt 0.5 0.5
vt 0.5 0.5
vt 0.5 0.5
vt 0.5 0.5
vt 0.5 0.5
vt 0.5 0.5
vt 0.5 0.5
vt 0.5 0.5
vt 0.5 0.5
vt 0.5 0.5
vt 1 0.5
vt 0.9330127239227295 0.25
vt 0.75 0.0669872984290123
vt 0.5 0
vt 0.25 0.0669872984290123
vt 0.0669872984290123 0.25
vt 0 0.5
vt 0.0669872984290123 0.75
vt 0.25 0.9330127239227295
vt 0.5 1
vt 0.75 0.9330127239227295
vt 0.9330127239227295 0.75
vt 1 0.5
vn 0 0 1
vn 0.5000000067305869 0 0.8660253998985324
vn 0.8660253998985324 0 0.5000000067305869
vn 1 0 6.123234262925839e-17
vn 0.8660253998985324 0 -0.5000000067305869
vn 0.5000000067305869 0 -0.8660253998985324
vn 1.2246468525851679e-16 0 -1
vn -0.5000000067305869 0 -0.8660253998985324
vn -0.8660253998985324 0 -0.5000000067305869
vn -1 0 -1.8369701465288538e-16
vn -0.8660253998985324 0 0.5000000067305869
vn -0.5000000067305869 0 0.8660253998985324
vn -2.4492937051703357e-16 0 1
vn 0 0 1
vn 0.5000000067305869 0 0.8660253998985324
vn 0.8660253998985324 0 0.5000000067305869
vn 1 0 6.123234262925839e-17
vn 0.8660253998985324 0 -0.5000000067305869
vn 0.5000000067305869 0 -0.8660253998985324
vn 1.2246468525851679e-16 0 -1
vn -0.5000000067305869 0 -0.8660253998985324
vn -0.8660253998985324 0 -0.5000000067305869
vn -1 0 -1.8369701465288538e-16
vn -0.8660253998985324 0 0.5000000067305869
vn -0.5000000067305869 0 0.8660253998985324
vn -2.4492937051703357e-16 0 1
vn 0 1 0
vn 0 1 0
vn 0 1 0
vn 0 1 0
vn 0 1 0
vn 0 1 0
vn 0 1 0
vn 0 1 0
vn 0 1 0
vn 0 1 0
vn 0 1 0
vn 0 1 0
vn 0 1 0
vn 0 1 0
vn 0 1 0
vn 0 1 0
vn 0 1 0
vn 0 1 0
vn 0 1 0
vn 0 1 0
vn 0 1 0
vn 0 1 0
vn 0 1 0
vn 0 1 0
vn 0 1 0
vn 0 -1 0
vn 0 -1 0
vn 0 -1 0
vn 0 -1 0
vn 0 -1 0
vn 0 -1 0
vn 0 -1 0
vn 0 -1 0
vn 0 -1 0
vn 0 -1 0
vn 0 -1 0
vn 0 -1 0
vn 0 -1 0
vn 0 -1 0
vn 0 -1 0
vn 0 -1 0
vn 0 -1 0
vn 0 -1 0
vn 0 -1 0
vn 0 -1 0
vn 0 -1 0
vn 0 -1 0
vn 0 -1 0
vn 0 -1 0
vn 0 -1 0
f 77/77/77 90/90/90 78/78/78
f 90/90/90 91/91/91 78/78/78
f 78/78/78 91/91/91 79/79/79
f 91/91/91 92/92/92 79/79/79
f 79/79/79 92/92/92 80/80/80
f 92/92/92 93/93/93 80/80/80
f 80/80/80 93/93/93 81/81/81
f 93/93/93 94/94/94 81/81/81
f 81/81/81 94/94/94 82/82/82
f 94/94/94 95/95/95 82/82/82
f 82/82/82 95/95/95 83/83/83
f 95/95/95 96/96/96 83/83/83
f 83/83/83 96/96/96 84/84/84
f 96/96/96 97/97/97 84/84/84
f 84/84/84 97/97/97 85/85/85
f 97/97/97 98/98/98 85/85/85
f 85/85/85 98/98/98 86/86/86
f 98/98/98 99/99/99 86/86/86
f 86/86/86 99/99/99 87/87/87
f 99/99/99 100/100/100 87/87/87
f 87/87/87 100/100/100 88/88/88
f 100/100/100 101/101/101 88/88/88
f 88/88/88 101/101/101 89/89/89
f 101/101/101 102/102/102 89/89/89
f 115/115/115 116/116/116 103/103/103
f 116/116/116 117/117/117 104/104/104
f 117/117/117 118/118/118 105/105/105
f 118/118/118 119/119/119 106/106/106
f 119/119/119 120/120/120 107/107/107
f 120/120/120 121/121/121 108/108/108
f 121/121/121 122/122/122 109/109/109
f 122/122/122 123/123/123 110/110/110
f 123/123/123 124/124/124 111/111/111
f 124/124/124 125/125/125 112/112/112
f 125/125/125 126/126/126 113/113/113
f 126/126/126 127/127/127 114/114/114
f 141/141/141 140/140/140 128/128/128
f 142/142/142 141/141/141 129/129/129
f 143/143/143 142/142/142 130/130/130
f 144/144/144 143/143/143 131/131/131
f 145/145/145 144/144/144 132/132/132
f 146/146/146 145/145/145 133/133/133
f 147/147/147 146/146/146 134/134/134
f 148/148/148 147/147/147 135/135/135
f 149/149/149 148/148/148 136/136/136
f 150/150/150 149/149/149 137/137/137
f 151/151/151 150/150/150 138/138/138
f 152/152/152 151/151/151 139/139/139
o cover_boss
usemtl SURF_Metal_Fence
v 0 0.035999999966472386 0.10000000149011612
v 0.0707106813788414 0.035999999966472386 0.0707106813788414
v 0.10000000149011612 0.035999999966472386 6.123233849335533e-18
v 0.0707106813788414 0.035999999966472386 -0.0707106813788414
v 1.2246467698671066e-17 0.035999999966472386 -0.10000000149011612
v -0.0707106813788414 0.035999999966472386 -0.0707106813788414
v -0.10000000149011612 0.035999999966472386 -1.8369702788777518e-17
v -0.0707106813788414 0.035999999966472386 0.0707106813788414
v -2.4492935397342132e-17 0.035999999966472386 0.10000000149011612
v 0 0.027999999586492776 0.10000000149011612
v 0.0707106813788414 0.027999999586492776 0.0707106813788414
v 0.10000000149011612 0.027999999586492776 6.123233849335533e-18
v 0.0707106813788414 0.027999999586492776 -0.0707106813788414
v 1.2246467698671066e-17 0.027999999586492776 -0.10000000149011612
v -0.0707106813788414 0.027999999586492776 -0.0707106813788414
v -0.10000000149011612 0.027999999586492776 -1.8369702788777518e-17
v -0.0707106813788414 0.027999999586492776 0.0707106813788414
v -2.4492935397342132e-17 0.027999999586492776 0.10000000149011612
v 0 0.035999999966472386 0
v 0 0.035999999966472386 0
v 0 0.035999999966472386 0
v 0 0.035999999966472386 0
v 0 0.035999999966472386 0
v 0 0.035999999966472386 0
v 0 0.035999999966472386 0
v 0 0.035999999966472386 0
v 0 0.035999999966472386 0.10000000149011612
v 0.0707106813788414 0.035999999966472386 0.0707106813788414
v 0.10000000149011612 0.035999999966472386 6.123233849335533e-18
v 0.0707106813788414 0.035999999966472386 -0.0707106813788414
v 1.2246467698671066e-17 0.035999999966472386 -0.10000000149011612
v -0.0707106813788414 0.035999999966472386 -0.0707106813788414
v -0.10000000149011612 0.035999999966472386 -1.8369702788777518e-17
v -0.0707106813788414 0.035999999966472386 0.0707106813788414
v -2.4492935397342132e-17 0.035999999966472386 0.10000000149011612
v 0 0.027999999586492776 0
v 0 0.027999999586492776 0
v 0 0.027999999586492776 0
v 0 0.027999999586492776 0
v 0 0.027999999586492776 0
v 0 0.027999999586492776 0
v 0 0.027999999586492776 0
v 0 0.027999999586492776 0
v 0 0.027999999586492776 0.10000000149011612
v 0.0707106813788414 0.027999999586492776 0.0707106813788414
v 0.10000000149011612 0.027999999586492776 6.123233849335533e-18
v 0.0707106813788414 0.027999999586492776 -0.0707106813788414
v 1.2246467698671066e-17 0.027999999586492776 -0.10000000149011612
v -0.0707106813788414 0.027999999586492776 -0.0707106813788414
v -0.10000000149011612 0.027999999586492776 -1.8369702788777518e-17
v -0.0707106813788414 0.027999999586492776 0.0707106813788414
v -2.4492935397342132e-17 0.027999999586492776 0.10000000149011612
vt 0 1
vt 0.125 1
vt 0.25 1
vt 0.375 1
vt 0.5 1
vt 0.625 1
vt 0.75 1
vt 0.875 1
vt 1 1
vt 0 0
vt 0.125 0
vt 0.25 0
vt 0.375 0
vt 0.5 0
vt 0.625 0
vt 0.75 0
vt 0.875 0
vt 1 0
vt 0.5 0.5
vt 0.5 0.5
vt 0.5 0.5
vt 0.5 0.5
vt 0.5 0.5
vt 0.5 0.5
vt 0.5 0.5
vt 0.5 0.5
vt 1 0.5
vt 0.8535534143447876 0.8535534143447876
vt 0.5 1
vt 0.1464466154575348 0.8535534143447876
vt 0 0.5
vt 0.1464466154575348 0.1464466154575348
vt 0.5 0
vt 0.8535534143447876 0.1464466154575348
vt 1 0.5
vt 0.5 0.5
vt 0.5 0.5
vt 0.5 0.5
vt 0.5 0.5
vt 0.5 0.5
vt 0.5 0.5
vt 0.5 0.5
vt 0.5 0.5
vt 1 0.5
vt 0.8535534143447876 0.1464466154575348
vt 0.5 0
vt 0.1464466154575348 0.1464466154575348
vt 0 0.5
vt 0.1464466154575348 0.8535534143447876
vt 0.5 1
vt 0.8535534143447876 0.8535534143447876
vt 1 0.5
vn 0 0 1
vn 0.7071067811865476 0 0.7071067811865476
vn 1 0 6.123234262925839e-17
vn 0.7071067811865476 0 -0.7071067811865476
vn 1.2246468525851679e-16 0 -1
vn -0.7071067811865476 0 -0.7071067811865476
vn -1 0 -1.8369701465288538e-16
vn -0.7071067811865476 0 0.7071067811865476
vn -2.4492937051703357e-16 0 1
vn 0 0 1
vn 0.7071067811865476 0 0.7071067811865476
vn 1 0 6.123234262925839e-17
vn 0.7071067811865476 0 -0.7071067811865476
vn 1.2246468525851679e-16 0 -1
vn -0.7071067811865476 0 -0.7071067811865476
vn -1 0 -1.8369701465288538e-16
vn -0.7071067811865476 0 0.7071067811865476
vn -2.4492937051703357e-16 0 1
vn 0 1 0
vn 0 1 0
vn 0 1 0
vn 0 1 0
vn 0 1 0
vn 0 1 0
vn 0 1 0
vn 0 1 0
vn 0 1 0
vn 0 1 0
vn 0 1 0
vn 0 1 0
vn 0 1 0
vn 0 1 0
vn 0 1 0
vn 0 1 0
vn 0 1 0
vn 0 -1 0
vn 0 -1 0
vn 0 -1 0
vn 0 -1 0
vn 0 -1 0
vn 0 -1 0
vn 0 -1 0
vn 0 -1 0
vn 0 -1 0
vn 0 -1 0
vn 0 -1 0
vn 0 -1 0
vn 0 -1 0
vn 0 -1 0
vn 0 -1 0
vn 0 -1 0
vn 0 -1 0
f 153/153/153 162/162/162 154/154/154
f 162/162/162 163/163/163 154/154/154
f 154/154/154 163/163/163 155/155/155
f 163/163/163 164/164/164 155/155/155
f 155/155/155 164/164/164 156/156/156
f 164/164/164 165/165/165 156/156/156
f 156/156/156 165/165/165 157/157/157
f 165/165/165 166/166/166 157/157/157
f 157/157/157 166/166/166 158/158/158
f 166/166/166 167/167/167 158/158/158
f 158/158/158 167/167/167 159/159/159
f 167/167/167 168/168/168 159/159/159
f 159/159/159 168/168/168 160/160/160
f 168/168/168 169/169/169 160/160/160
f 160/160/160 169/169/169 161/161/161
f 169/169/169 170/170/170 161/161/161
f 179/179/179 180/180/180 171/171/171
f 180/180/180 181/181/181 172/172/172
f 181/181/181 182/182/182 173/173/173
f 182/182/182 183/183/183 174/174/174
f 183/183/183 184/184/184 175/175/175
f 184/184/184 185/185/185 176/176/176
f 185/185/185 186/186/186 177/177/177
f 186/186/186 187/187/187 178/178/178
f 197/197/197 196/196/196 188/188/188
f 198/198/198 197/197/197 189/189/189
f 199/199/199 198/198/198 190/190/190
f 200/200/200 199/199/199 191/191/191
f 201/201/201 200/200/200 192/192/192
f 202/202/202 201/201/201 193/193/193
f 203/203/203 202/202/202 194/194/194
f 204/204/204 203/203/203 195/195/195
