# PRP_P1_Road_Sign_School_A — Road sign — school zone ★
# SC_P1_WALK · group B
# bounds 0.93 × 0.18 × 2.37 m · 80 tris · UV island 80 × 40 px
# 1 unit = 1 m · pivot at floor contact, X/Z centred
mtllib PRP_P1_Road_Sign_School_A.mtl
o post
usemtl SURF_Metal_Fence
v 0 2.200000047683716 0.03999999910593033
v 0.02828427031636238 2.200000047683716 0.02828427031636238
v 0.03999999910593033 2.200000047683716 2.449293581093244e-18
v 0.02828427031636238 2.200000047683716 -0.02828427031636238
v 4.898587162186488e-18 2.200000047683716 -0.03999999910593033
v -0.02828427031636238 2.200000047683716 -0.02828427031636238
v -0.03999999910593033 2.200000047683716 -7.347880950074885e-18
v -0.02828427031636238 2.200000047683716 0.02828427031636238
v -9.797174324372975e-18 2.200000047683716 0.03999999910593033
v 0 0 0.04500000178813934
v 0.03181980550289154 0 0.03181980550289154
v 0.04500000178813934 0 2.755455252880505e-18
v 0.03181980550289154 0 -0.03181980550289154
v 5.51091050576101e-18 0 -0.04500000178813934
v -0.03181980550289154 0 -0.03181980550289154
v -0.04500000178813934 0 -8.266365758641515e-18
v -0.03181980550289154 0 0.03181980550289154
v -1.102182101152202e-17 0 0.04500000178813934
v 0 2.200000047683716 0
v 0 2.200000047683716 0
v 0 2.200000047683716 0
v 0 2.200000047683716 0
v 0 2.200000047683716 0
v 0 2.200000047683716 0
v 0 2.200000047683716 0
v 0 2.200000047683716 0
v 0 2.200000047683716 0.03999999910593033
v 0.02828427031636238 2.200000047683716 0.02828427031636238
v 0.03999999910593033 2.200000047683716 2.449293581093244e-18
v 0.02828427031636238 2.200000047683716 -0.02828427031636238
v 4.898587162186488e-18 2.200000047683716 -0.03999999910593033
v -0.02828427031636238 2.200000047683716 -0.02828427031636238
v -0.03999999910593033 2.200000047683716 -7.347880950074885e-18
v -0.02828427031636238 2.200000047683716 0.02828427031636238
v -9.797174324372975e-18 2.200000047683716 0.03999999910593033
v 0 0 0
v 0 0 0
v 0 0 0
v 0 0 0
v 0 0 0
v 0 0 0
v 0 0 0
v 0 0 0
v 0 0 0.04500000178813934
v 0.03181980550289154 0 0.03181980550289154
v 0.04500000178813934 0 2.755455252880505e-18
v 0.03181980550289154 0 -0.03181980550289154
v 5.51091050576101e-18 0 -0.04500000178813934
v -0.03181980550289154 0 -0.03181980550289154
v -0.04500000178813934 0 -8.266365758641515e-18
v -0.03181980550289154 0 0.03181980550289154
v -1.102182101152202e-17 0 0.04500000178813934
vt 0 1
vt 0.125 1
vt 0.25 1
vt 0.375 1
vt 0.5 1
vt 0.625 1
vt 0.75 1
vt 0.875 1
vt 1 1
vt 0 0
vt 0.125 0
vt 0.25 0
vt 0.375 0
vt 0.5 0
vt 0.625 0
vt 0.75 0
vt 0.875 0
vt 1 0
vt 0.5 0.5
vt 0.5 0.5
vt 0.5 0.5
vt 0.5 0.5
vt 0.5 0.5
vt 0.5 0.5
vt 0.5 0.5
vt 0.5 0.5
vt 1 0.5
vt 0.8535534143447876 0.8535534143447876
vt 0.5 1
vt 0.1464466154575348 0.8535534143447876
vt 0 0.5
vt 0.1464466154575348 0.1464466154575348
vt 0.5 0
vt 0.8535534143447876 0.1464466154575348
vt 1 0.5
vt 0.5 0.5
vt 0.5 0.5
vt 0.5 0.5
vt 0.5 0.5
vt 0.5 0.5
vt 0.5 0.5
vt 0.5 0.5
vt 0.5 0.5
vt 1 0.5
vt 0.8535534143447876 0.1464466154575348
vt 0.5 0
vt 0.1464466154575348 0.1464466154575348
vt 0 0.5
vt 0.1464466154575348 0.8535534143447876
vt 0.5 1
vt 0.8535534143447876 0.8535534143447876
vt 1 0.5
vn 0 0.0022727213353709295 0.9999974173655308
vn 0.7071049549882634 0.002272721296565352 0.7071049549882634
vn 0.9999974173655308 0.0022727213353709295 6.123218260829946e-17
vn 0.7071049549882634 0.002272721296565352 -0.7071049549882634
vn 1.2246436521659892e-16 0.0022727213353709295 -0.9999974173655308
vn -0.7071049549882634 0.002272721296565352 -0.7071049549882634
vn -0.9999974173655308 0.0022727213353709295 -1.836965478248984e-16
vn -0.7071049549882634 0.002272721296565352 0.7071049549882634
vn -2.4492873043319784e-16 0.0022727213353709295 0.9999974173655308
vn 0 0.0022727213353709295 0.9999974173655308
vn 0.7071049549882634 0.002272721296565352 0.7071049549882634
vn 0.9999974173655308 0.0022727213353709295 6.123218260829946e-17
vn 0.7071049549882634 0.002272721296565352 -0.7071049549882634
vn 1.2246436521659892e-16 0.0022727213353709295 -0.9999974173655308
vn -0.7071049549882634 0.002272721296565352 -0.7071049549882634
vn -0.9999974173655308 0.0022727213353709295 -1.836965478248984e-16
vn -0.7071049549882634 0.002272721296565352 0.7071049549882634
vn -2.4492873043319784e-16 0.0022727213353709295 0.9999974173655308
vn 0 1 0
vn 0 1 0
vn 0 1 0
vn 0 1 0
vn 0 1 0
vn 0 1 0
vn 0 1 0
vn 0 1 0
vn 0 1 0
vn 0 1 0
vn 0 1 0
vn 0 1 0
vn 0 1 0
vn 0 1 0
vn 0 1 0
vn 0 1 0
vn 0 1 0
vn 0 -1 0
vn 0 -1 0
vn 0 -1 0
vn 0 -1 0
vn 0 -1 0
vn 0 -1 0
vn 0 -1 0
vn 0 -1 0
vn 0 -1 0
vn 0 -1 0
vn 0 -1 0
vn 0 -1 0
vn 0 -1 0
vn 0 -1 0
vn 0 -1 0
vn 0 -1 0
vn 0 -1 0
f 1/1/1 10/10/10 2/2/2
f 10/10/10 11/11/11 2/2/2
f 2/2/2 11/11/11 3/3/3
f 11/11/11 12/12/12 3/3/3
f 3/3/3 12/12/12 4/4/4
f 12/12/12 13/13/13 4/4/4
f 4/4/4 13/13/13 5/5/5
f 13/13/13 14/14/14 5/5/5
f 5/5/5 14/14/14 6/6/6
f 14/14/14 15/15/15 6/6/6
f 6/6/6 15/15/15 7/7/7
f 15/15/15 16/16/16 7/7/7
f 7/7/7 16/16/16 8/8/8
f 16/16/16 17/17/17 8/8/8
f 8/8/8 17/17/17 9/9/9
f 17/17/17 18/18/18 9/9/9
f 27/27/27 28/28/28 19/19/19
f 28/28/28 29/29/29 20/20/20
f 29/29/29 30/30/30 21/21/21
f 30/30/30 31/31/31 22/22/22
f 31/31/31 32/32/32 23/23/23
f 32/32/32 33/33/33 24/24/24
f 33/33/33 34/34/34 25/25/25
f 34/34/34 35/35/35 26/26/26
f 45/45/45 44/44/44 36/36/36
f 46/46/46 45/45/45 37/37/37
f 47/47/47 46/46/46 38/38/38
f 48/48/48 47/47/47 39/39/39
f 49/49/49 48/48/48 40/40/40
f 50/50/50 49/49/49 41/41/41
f 51/51/51 50/50/50 42/42/42
f 52/52/52 51/51/51 43/43/43
o plate
usemtl SURF_Paper_Newsprint
v 0.00016892642526269985 2.3242640757823656 0.014999999664723873
v 0.00016892642526269985 2.3242640757823656 -0.014999999664723873
v 0.42426405194050776 1.899831097416595 0.014999999664723873
v 0.42426405194050776 1.899831097416595 -0.014999999664723873
v -0.42426405194050776 1.9001689502671204 -0.014999999664723873
v -0.42426405194050776 1.9001689502671204 0.014999999664723873
v -0.00016892642526269985 1.4757359719013499 -0.014999999664723873
v -0.00016892642526269985 1.4757359719013499 0.014999999664723873
v -0.42426405194050776 1.9001689502671204 -0.014999999664723873
v 0.00016892642526269985 2.3242640757823656 -0.014999999664723873
v -0.42426405194050776 1.9001689502671204 0.014999999664723873
v 0.00016892642526269985 2.3242640757823656 0.014999999664723873
v -0.00016892642526269985 1.4757359719013499 0.014999999664723873
v 0.42426405194050776 1.899831097416595 0.014999999664723873
v -0.00016892642526269985 1.4757359719013499 -0.014999999664723873
v 0.42426405194050776 1.899831097416595 -0.014999999664723873
v -0.42426405194050776 1.9001689502671204 0.014999999664723873
v 0.00016892642526269985 2.3242640757823656 0.014999999664723873
v -0.00016892642526269985 1.4757359719013499 0.014999999664723873
v 0.42426405194050776 1.899831097416595 0.014999999664723873
v 0.00016892642526269985 2.3242640757823656 -0.014999999664723873
v -0.42426405194050776 1.9001689502671204 -0.014999999664723873
v 0.42426405194050776 1.899831097416595 -0.014999999664723873
v -0.00016892642526269985 1.4757359719013499 -0.014999999664723873
vt 0 1
vt 1 1
vt 0 0
vt 1 0
vt 0 1
vt 1 1
vt 0 0
vt 1 0
vt 0 1
vt 1 1
vt 0 0
vt 1 0
vt 0 1
vt 1 1
vt 0 0
vt 1 0
vt 0 1
vt 1 1
vt 0 0
vt 1 0
vt 0 1
vt 1 1
vt 0 0
vt 1 0
vn 0.7073882691671998 0.706825181105366 0
vn 0.7073882691671998 0.706825181105366 0
vn 0.7073882691671998 0.706825181105366 0
vn 0.7073882691671998 0.706825181105366 0
vn -0.7073882691671998 -0.706825181105366 0
vn -0.7073882691671998 -0.706825181105366 0
vn -0.7073882691671998 -0.706825181105366 0
vn -0.7073882691671998 -0.706825181105366 0
vn -0.706825181105366 0.7073882691671998 0
vn -0.706825181105366 0.7073882691671998 0
vn -0.706825181105366 0.7073882691671998 0
vn -0.706825181105366 0.7073882691671998 0
vn 0.706825181105366 -0.7073882691671998 0
vn 0.706825181105366 -0.7073882691671998 0
vn 0.706825181105366 -0.7073882691671998 0
vn 0.706825181105366 -0.7073882691671998 0
vn 0 0 1
vn 0 0 1
vn 0 0 1
vn 0 0 1
vn 0 0 -1
vn 0 0 -1
vn 0 0 -1
vn 0 0 -1
f 53/53/53 55/55/55 54/54/54
f 55/55/55 56/56/56 54/54/54
f 57/57/57 59/59/59 58/58/58
f 59/59/59 60/60/60 58/58/58
f 61/61/61 63/63/63 62/62/62
f 63/63/63 64/64/64 62/62/62
f 65/65/65 67/67/67 66/66/66
f 67/67/67 68/68/68 66/66/66
f 69/69/69 71/71/71 70/70/70
f 71/71/71 72/72/72 70/70/70
f 73/73/73 75/75/75 74/74/74
f 75/75/75 76/76/76 74/74/74
o plate_border
usemtl SURF_Metal_Fence
v 0.00018581906778894486 2.366690480976416 -0.004500000167638064
v 0.00018581906778894486 2.366690480976416 -0.019499999832361937
v 0.4666904571345586 1.8998142047740687 -0.004500000167638064
v 0.4666904571345586 1.8998142047740687 -0.019499999832361937
v -0.4666904571345586 1.9001858429096468 -0.019499999832361937
v -0.4666904571345586 1.9001858429096468 -0.004500000167638064
v -0.00018581906778894486 1.4333095667072993 -0.019499999832361937
v -0.00018581906778894486 1.4333095667072993 -0.004500000167638064
v -0.4666904571345586 1.9001858429096468 -0.019499999832361937
v 0.00018581906778894486 2.366690480976416 -0.019499999832361937
v -0.4666904571345586 1.9001858429096468 -0.004500000167638064
v 0.00018581906778894486 2.366690480976416 -0.004500000167638064
v -0.00018581906778894486 1.4333095667072993 -0.004500000167638064
v 0.4666904571345586 1.8998142047740687 -0.004500000167638064
v -0.00018581906778894486 1.4333095667072993 -0.019499999832361937
v 0.4666904571345586 1.8998142047740687 -0.019499999832361937
v -0.4666904571345586 1.9001858429096468 -0.004500000167638064
v 0.00018581906778894486 2.366690480976416 -0.004500000167638064
v -0.00018581906778894486 1.4333095667072993 -0.004500000167638064
v 0.4666904571345586 1.8998142047740687 -0.004500000167638064
v 0.00018581906778894486 2.366690480976416 -0.019499999832361937
v -0.4666904571345586 1.9001858429096468 -0.019499999832361937
v 0.4666904571345586 1.8998142047740687 -0.019499999832361937
v -0.00018581906778894486 1.4333095667072993 -0.019499999832361937
vt 0 1
vt 1 1
vt 0 0
vt 1 0
vt 0 1
vt 1 1
vt 0 0
vt 1 0
vt 0 1
vt 1 1
vt 0 0
vt 1 0
vt 0 1
vt 1 1
vt 0 0
vt 1 0
vt 0 1
vt 1 1
vt 0 0
vt 1 0
vt 0 1
vt 1 1
vt 0 0
vt 1 0
vn 0.7073882691671998 0.706825181105366 0
vn 0.7073882691671998 0.706825181105366 0
vn 0.7073882691671998 0.706825181105366 0
vn 0.7073882691671998 0.706825181105366 0
vn -0.7073882691671998 -0.706825181105366 0
vn -0.7073882691671998 -0.706825181105366 0
vn -0.7073882691671998 -0.706825181105366 0
vn -0.7073882691671998 -0.706825181105366 0
vn -0.706825181105366 0.7073882691671998 0
vn -0.706825181105366 0.7073882691671998 0
vn -0.706825181105366 0.7073882691671998 0
vn -0.706825181105366 0.7073882691671998 0
vn 0.706825181105366 -0.7073882691671998 0
vn 0.706825181105366 -0.7073882691671998 0
vn 0.706825181105366 -0.7073882691671998 0
vn 0.706825181105366 -0.7073882691671998 0
vn 0 0 1
vn 0 0 1
vn 0 0 1
vn 0 0 1
vn 0 0 -1
vn 0 0 -1
vn 0 0 -1
vn 0 0 -1
f 77/77/77 79/79/79 78/78/78
f 79/79/79 80/80/80 78/78/78
f 81/81/81 83/83/83 82/82/82
f 83/83/83 84/84/84 82/82/82
f 85/85/85 87/87/87 86/86/86
f 87/87/87 88/88/88 86/86/86
f 89/89/89 91/91/91 90/90/90
f 91/91/91 92/92/92 90/90/90
f 93/93/93 95/95/95 94/94/94
f 95/95/95 96/96/96 94/94/94
f 97/97/97 99/99/99 98/98/98
f 99/99/99 100/100/100 98/98/98
o sub_plate
usemtl SURF_Paper_Newsprint
v 0.25 1.5300000220537184 0.010999999940395355
v 0.25 1.5300000220537184 -0.010999999940395355
v 0.25 1.3700000256299971 0.010999999940395355
v 0.25 1.3700000256299971 -0.010999999940395355
v -0.25 1.5300000220537184 -0.010999999940395355
v -0.25 1.5300000220537184 0.010999999940395355
v -0.25 1.3700000256299971 -0.010999999940395355
v -0.25 1.3700000256299971 0.010999999940395355
v -0.25 1.5300000220537184 -0.010999999940395355
v 0.25 1.5300000220537184 -0.010999999940395355
v -0.25 1.5300000220537184 0.010999999940395355
v 0.25 1.5300000220537184 0.010999999940395355
v -0.25 1.3700000256299971 0.010999999940395355
v 0.25 1.3700000256299971 0.010999999940395355
v -0.25 1.3700000256299971 -0.010999999940395355
v 0.25 1.3700000256299971 -0.010999999940395355
v -0.25 1.5300000220537184 0.010999999940395355
v 0.25 1.5300000220537184 0.010999999940395355
v -0.25 1.3700000256299971 0.010999999940395355
v 0.25 1.3700000256299971 0.010999999940395355
v 0.25 1.5300000220537184 -0.010999999940395355
v -0.25 1.5300000220537184 -0.010999999940395355
v 0.25 1.3700000256299971 -0.010999999940395355
v -0.25 1.3700000256299971 -0.010999999940395355
vt 0 1
vt 1 1
vt 0 0
vt 1 0
vt 0 1
vt 1 1
vt 0 0
vt 1 0
vt 0 1
vt 1 1
vt 0 0
vt 1 0
vt 0 1
vt 1 1
vt 0 0
vt 1 0
vt 0 1
vt 1 1
vt 0 0
vt 1 0
vt 0 1
vt 1 1
vt 0 0
vt 1 0
vn 1 0 0
vn 1 0 0
vn 1 0 0
vn 1 0 0
vn -1 0 0
vn -1 0 0
vn -1 0 0
vn -1 0 0
vn 0 1 0
vn 0 1 0
vn 0 1 0
vn 0 1 0
vn 0 -1 0
vn 0 -1 0
vn 0 -1 0
vn 0 -1 0
vn 0 0 1
vn 0 0 1
vn 0 0 1
vn 0 0 1
vn 0 0 -1
vn 0 0 -1
vn 0 0 -1
vn 0 0 -1
f 101/101/101 103/103/103 102/102/102
f 103/103/103 104/104/104 102/102/102
f 105/105/105 107/107/107 106/106/106
f 107/107/107 108/108/108 106/106/106
f 109/109/109 111/111/111 110/110/110
f 111/111/111 112/112/112 110/110/110
f 113/113/113 115/115/115 114/114/114
f 115/115/115 116/116/116 114/114/114
f 117/117/117 119/119/119 118/118/118
f 119/119/119 120/120/120 118/118/118
f 121/121/121 123/123/123 122/122/122
f 123/123/123 124/124/124 122/122/122
o foot_plate
usemtl SURF_Concrete_Struct
v 0.09000000357627869 0.05000002421438685 0.09000000357627869
v 0.09000000357627869 0.05000002421438685 -0.09000000357627869
v 0.09000000357627869 2.3469328792879995e-8 0.09000000357627869
v 0.09000000357627869 2.3469328792879995e-8 -0.09000000357627869
v -0.09000000357627869 0.05000002421438685 -0.09000000357627869
v -0.09000000357627869 0.05000002421438685 0.09000000357627869
v -0.09000000357627869 2.3469328792879995e-8 -0.09000000357627869
v -0.09000000357627869 2.3469328792879995e-8 0.09000000357627869
v -0.09000000357627869 0.05000002421438685 -0.09000000357627869
v 0.09000000357627869 0.05000002421438685 -0.09000000357627869
v -0.09000000357627869 0.05000002421438685 0.09000000357627869
v 0.09000000357627869 0.05000002421438685 0.09000000357627869
v -0.09000000357627869 2.3469328792879995e-8 0.09000000357627869
v 0.09000000357627869 2.3469328792879995e-8 0.09000000357627869
v -0.09000000357627869 2.3469328792879995e-8 -0.09000000357627869
v 0.09000000357627869 2.3469328792879995e-8 -0.09000000357627869
v -0.09000000357627869 0.05000002421438685 0.09000000357627869
v 0.09000000357627869 0.05000002421438685 0.09000000357627869
v -0.09000000357627869 2.3469328792879995e-8 0.09000000357627869
v 0.09000000357627869 2.3469328792879995e-8 0.09000000357627869
v 0.09000000357627869 0.05000002421438685 -0.09000000357627869
v -0.09000000357627869 0.05000002421438685 -0.09000000357627869
v 0.09000000357627869 2.3469328792879995e-8 -0.09000000357627869
v -0.09000000357627869 2.3469328792879995e-8 -0.09000000357627869
vt 0 1
vt 1 1
vt 0 0
vt 1 0
vt 0 1
vt 1 1
vt 0 0
vt 1 0
vt 0 1
vt 1 1
vt 0 0
vt 1 0
vt 0 1
vt 1 1
vt 0 0
vt 1 0
vt 0 1
vt 1 1
vt 0 0
vt 1 0
vt 0 1
vt 1 1
vt 0 0
vt 1 0
vn 1 0 0
vn 1 0 0
vn 1 0 0
vn 1 0 0
vn -1 0 0
vn -1 0 0
vn -1 0 0
vn -1 0 0
vn 0 1 0
vn 0 1 0
vn 0 1 0
vn 0 1 0
vn 0 -1 0
vn 0 -1 0
vn 0 -1 0
vn 0 -1 0
vn 0 0 1
vn 0 0 1
vn 0 0 1
vn 0 0 1
vn 0 0 -1
vn 0 0 -1
vn 0 0 -1
vn 0 0 -1
f 125/125/125 127/127/127 126/126/126
f 127/127/127 128/128/128 126/126/126
f 129/129/129 131/131/131 130/130/130
f 131/131/131 132/132/132 130/130/130
f 133/133/133 135/135/135 134/134/134
f 135/135/135 136/136/136 134/134/134
f 137/137/137 139/139/139 138/138/138
f 139/139/139 140/140/140 138/138/138
f 141/141/141 143/143/143 142/142/142
f 143/143/143 144/144/144 142/142/142
f 145/145/145 147/147/147 146/146/146
f 147/147/147 148/148/148 146/146/146
