# PRP_P1_Poster_Card_A — Poster card
# SC_P1_WALK · group B
# bounds 0.51 × 0.01 × 0.72 m · 4 tris · UV island 24 × 24 px
# 1 unit = 1 m · pivot at floor contact, X/Z centred
mtllib PRP_P1_Poster_Card_A.mtl
o poster_face
usemtl SURF_Paper_Newsprint
v -0.2544683981550209 0.699999988079071 -0.003
v 0.24553160184497907 0.699999988079071 -0.003
v -0.2544683981550209 0 -0.003
v 0.24553160184497907 0 -0.003
vt 0 1
vt 1 1
vt 0 0
vt 1 0
vn 0 0 1
vn 0 0 1
vn 0 0 1
vn 0 0 1
f 1/1/1 3/3/3 2/2/2
f 3/3/3 4/4/4 2/2/2
o corner_curl
usemtl SURF_Paper_Newsprint
v 0.13659480553493725 0.6990698569740309 0.003
v 0.2346014647794744 0.7189367903495774 0.003
v 0.15646173891048376 0.6010631977294938 0.003
v 0.2544683981550209 0.6209301311050403 0.003
vt 0 1
vt 1 1
vt 0 0
vt 1 0
vn 0 0 1
vn 0 0 1
vn 0 0 1
vn 0 0 1
f 5/5/5 7/7/7 6/6/6
f 7/7/7 8/8/8 6/6/6
