# PRP_P1_Bicycle_A — Bicycle
# SC_P1_WALK · group B
# bounds 1.34 × 0.64 × 0.97 m · 212 tris · UV island 56 × 48 px
# 1 unit = 1 m · pivot at floor contact, X/Z centred
mtllib PRP_P1_Bicycle_A.mtl
o wheel_front
usemtl SURF_Rubber_Tyre
v 0.48999999992549426 0.3199999928474427 0.3199999928474426
v 0.4899999999254942 0.47999998927116405 0.277128130197525
v 0.4899999999254942 0.5971281230449678 0.1599999964237213
v 0.4899999999254942 0.6399999856948854 1.959434864874595e-17
v 0.4899999999254942 0.5971281230449678 -0.1599999964237213
v 0.4899999999254942 0.47999998927116405 -0.277128130197525
v 0.48999999992549426 0.31999999284744274 -0.3199999928474426
v 0.4899999999254943 0.15999999642372134 -0.277128130197525
v 0.4899999999254943 0.0428718626499176 -0.1599999964237213
v 0.4899999999254943 0 -5.878304760059908e-17
v 0.4899999999254943 0.0428718626499176 0.1599999964237213
v 0.4899999999254943 0.15999999642372134 0.277128130197525
v 0.48999999992549426 0.3199999928474426 0.3199999928474426
v 0.5299999990314246 0.3199999928474427 0.3199999928474426
v 0.5299999990314246 0.47999998927116405 0.277128130197525
v 0.5299999990314245 0.5971281230449678 0.1599999964237213
v 0.5299999990314245 0.6399999856948854 1.959434864874595e-17
v 0.5299999990314245 0.5971281230449678 -0.1599999964237213
v 0.5299999990314246 0.47999998927116405 -0.277128130197525
v 0.5299999990314246 0.31999999284744274 -0.3199999928474426
v 0.5299999990314246 0.15999999642372134 -0.277128130197525
v 0.5299999990314247 0.0428718626499176 -0.1599999964237213
v 0.5299999990314247 0 -5.878304760059908e-17
v 0.5299999990314247 0.0428718626499176 0.1599999964237213
v 0.5299999990314246 0.15999999642372134 0.277128130197525
v 0.5299999990314246 0.3199999928474426 0.3199999928474426
v 0.48999999992549426 0.3199999928474427 0
v 0.48999999992549426 0.3199999928474427 0
v 0.48999999992549426 0.3199999928474427 0
v 0.48999999992549426 0.3199999928474427 0
v 0.48999999992549426 0.3199999928474427 0
v 0.48999999992549426 0.3199999928474427 0
v 0.48999999992549426 0.3199999928474427 0
v 0.48999999992549426 0.3199999928474427 0
v 0.48999999992549426 0.3199999928474427 0
v 0.48999999992549426 0.3199999928474427 0
v 0.48999999992549426 0.3199999928474427 0
v 0.48999999992549426 0.3199999928474427 0
v 0.48999999992549426 0.3199999928474427 0.3199999928474426
v 0.4899999999254942 0.47999998927116405 0.277128130197525
v 0.4899999999254942 0.5971281230449678 0.1599999964237213
v 0.4899999999254942 0.6399999856948854 1.959434864874595e-17
v 0.4899999999254942 0.5971281230449678 -0.1599999964237213
v 0.4899999999254942 0.47999998927116405 -0.277128130197525
v 0.48999999992549426 0.31999999284744274 -0.3199999928474426
v 0.4899999999254943 0.15999999642372134 -0.277128130197525
v 0.4899999999254943 0.0428718626499176 -0.1599999964237213
v 0.4899999999254943 0 -5.878304760059908e-17
v 0.4899999999254943 0.0428718626499176 0.1599999964237213
v 0.4899999999254943 0.15999999642372134 0.277128130197525
v 0.48999999992549426 0.3199999928474426 0.3199999928474426
v 0.5299999990314246 0.3199999928474427 0
v 0.5299999990314246 0.3199999928474427 0
v 0.5299999990314246 0.3199999928474427 0
v 0.5299999990314246 0.3199999928474427 0
v 0.5299999990314246 0.3199999928474427 0
v 0.5299999990314246 0.3199999928474427 0
v 0.5299999990314246 0.3199999928474427 0
v 0.5299999990314246 0.3199999928474427 0
v 0.5299999990314246 0.3199999928474427 0
v 0.5299999990314246 0.3199999928474427 0
v 0.5299999990314246 0.3199999928474427 0
v 0.5299999990314246 0.3199999928474427 0
v 0.5299999990314246 0.3199999928474427 0.3199999928474426
v 0.5299999990314246 0.47999998927116405 0.277128130197525
v 0.5299999990314245 0.5971281230449678 0.1599999964237213
v 0.5299999990314245 0.6399999856948854 1.959434864874595e-17
v 0.5299999990314245 0.5971281230449678 -0.1599999964237213
v 0.5299999990314246 0.47999998927116405 -0.277128130197525
v 0.5299999990314246 0.31999999284744274 -0.3199999928474426
v 0.5299999990314246 0.15999999642372134 -0.277128130197525
v 0.5299999990314247 0.0428718626499176 -0.1599999964237213
v 0.5299999990314247 0 -5.878304760059908e-17
v 0.5299999990314247 0.0428718626499176 0.1599999964237213
v 0.5299999990314246 0.15999999642372134 0.277128130197525
v 0.5299999990314246 0.3199999928474426 0.3199999928474426
vt 0 1
vt 0.0833333358168602 1
vt 0.1666666716337204 1
vt 0.25 1
vt 0.3333333432674408 1
vt 0.4166666567325592 1
vt 0.5 1
vt 0.5833333134651184 1
vt 0.6666666865348816 1
vt 0.75 1
vt 0.8333333134651184 1
vt 0.9166666865348816 1
vt 1 1
vt 0 0
vt 0.0833333358168602 0
vt 0.1666666716337204 0
vt 0.25 0
vt 0.3333333432674408 0
vt 0.4166666567325592 0
vt 0.5 0
vt 0.5833333134651184 0
vt 0.6666666865348816 0
vt 0.75 0
vt 0.8333333134651184 0
vt 0.9166666865348816 0
vt 1 0
vt 0.5 0.5
vt 0.5 0.5
vt 0.5 0.5
vt 0.5 0.5
vt 0.5 0.5
vt 0.5 0.5
vt 0.5 0.5
vt 0.5 0.5
vt 0.5 0.5
vt 0.5 0.5
vt 0.5 0.5
vt 0.5 0.5
vt 1 0.5
vt 0.9330127239227295 0.75
vt 0.75 0.9330127239227295
vt 0.5 1
vt 0.25 0.9330127239227295
vt 0.0669872984290123 0.75
vt 0 0.5
vt 0.0669872984290123 0.25
vt 0.25 0.0669872984290123
vt 0.5 0
vt 0.75 0.0669872984290123
vt 0.9330127239227295 0.25
vt 1 0.5
vt 0.5 0.5
vt 0.5 0.5
vt 0.5 0.5
vt 0.5 0.5
vt 0.5 0.5
vt 0.5 0.5
vt 0.5 0.5
vt 0.5 0.5
vt 0.5 0.5
vt 0.5 0.5
vt 0.5 0.5
vt 0.5 0.5
vt 1 0.5
vt 0.9330127239227295 0.25
vt 0.75 0.0669872984290123
vt 0.5 0
vt 0.25 0.0669872984290123
vt 0.0669872984290123 0.25
vt 0 0.5
vt 0.0669872984290123 0.75
vt 0.25 0.9330127239227295
vt 0.5 1
vt 0.75 0.9330127239227295
vt 0.9330127239227295 0.75
vt 1 0.5
vn 0 0 1
vn -1.110223039570061e-16 0.5000000067305868 0.8660253998985324
vn -1.9229626777551184e-16 0.8660253998985323 0.500000006730587
vn -2.2204460492503126e-16 1 6.12323426292584e-17
vn -1.9229626777551184e-16 0.8660253998985323 -0.500000006730587
vn -1.110223039570061e-16 0.5000000067305868 -0.8660253998985324
vn -2.7192622655495654e-32 1.2246468525851676e-16 -1
vn 1.110223039570061e-16 -0.5000000067305868 -0.8660253998985324
vn 1.9229626777551184e-16 -0.8660253998985323 -0.500000006730587
vn 2.2204460492503126e-16 -1 -1.8369701465288543e-16
vn 1.9229626777551184e-16 -0.8660253998985323 0.500000006730587
vn 1.110223039570061e-16 -0.5000000067305868 0.8660253998985324
vn 5.438524531099131e-32 -2.449293705170335e-16 1
vn 0 0 1
vn -1.110223039570061e-16 0.5000000067305868 0.8660253998985324
vn -1.9229626777551184e-16 0.8660253998985323 0.500000006730587
vn -2.2204460492503126e-16 1 6.12323426292584e-17
vn -1.9229626777551184e-16 0.8660253998985323 -0.500000006730587
vn -1.110223039570061e-16 0.5000000067305868 -0.8660253998985324
vn -2.7192622655495654e-32 1.2246468525851676e-16 -1
vn 1.110223039570061e-16 -0.5000000067305868 -0.8660253998985324
vn 1.9229626777551184e-16 -0.8660253998985323 -0.500000006730587
vn 2.2204460492503126e-16 -1 -1.8369701465288543e-16
vn 1.9229626777551184e-16 -0.8660253998985323 0.500000006730587
vn 1.110223039570061e-16 -0.5000000067305868 0.8660253998985324
vn 5.438524531099131e-32 -2.449293705170335e-16 1
vn -1 -2.2204460492503126e-16 0
vn -1 -2.2204460492503126e-16 0
vn -1 -2.2204460492503126e-16 0
vn -1 -2.2204460492503126e-16 0
vn -1 -2.2204460492503126e-16 0
vn -1 -2.2204460492503126e-16 0
vn -1 -2.2204460492503126e-16 0
vn -1 -2.2204460492503126e-16 0
vn -1 -2.2204460492503126e-16 0
vn -1 -2.2204460492503126e-16 0
vn -1 -2.2204460492503126e-16 0
vn -1 -2.2204460492503126e-16 0
vn -1 -2.2204460492503126e-16 0
vn -1 -2.2204460492503126e-16 0
vn -1 -2.2204460492503126e-16 0
vn -1 -2.2204460492503126e-16 0
vn -1 -2.2204460492503126e-16 0
vn -1 -2.2204460492503126e-16 0
vn -1 -2.2204460492503126e-16 0
vn -1 -2.2204460492503126e-16 0
vn -1 -2.2204460492503126e-16 0
vn -1 -2.2204460492503126e-16 0
vn -1 -2.2204460492503126e-16 0
vn -1 -2.2204460492503126e-16 0
vn -1 -2.2204460492503126e-16 0
vn 1 2.2204460492503126e-16 0
vn 1 2.2204460492503126e-16 0
vn 1 2.2204460492503126e-16 0
vn 1 2.2204460492503126e-16 0
vn 1 2.2204460492503126e-16 0
vn 1 2.2204460492503126e-16 0
vn 1 2.2204460492503126e-16 0
vn 1 2.2204460492503126e-16 0
vn 1 2.2204460492503126e-16 0
vn 1 2.2204460492503126e-16 0
vn 1 2.2204460492503126e-16 0
vn 1 2.2204460492503126e-16 0
vn 1 2.2204460492503126e-16 0
vn 1 2.2204460492503126e-16 0
vn 1 2.2204460492503126e-16 0
vn 1 2.2204460492503126e-16 0
vn 1 2.2204460492503126e-16 0
vn 1 2.2204460492503126e-16 0
vn 1 2.2204460492503126e-16 0
vn 1 2.2204460492503126e-16 0
vn 1 2.2204460492503126e-16 0
vn 1 2.2204460492503126e-16 0
vn 1 2.2204460492503126e-16 0
vn 1 2.2204460492503126e-16 0
vn 1 2.2204460492503126e-16 0
f 1/1/1 14/14/14 2/2/2
f 14/14/14 15/15/15 2/2/2
f 2/2/2 15/15/15 3/3/3
f 15/15/15 16/16/16 3/3/3
f 3/3/3 16/16/16 4/4/4
f 16/16/16 17/17/17 4/4/4
f 4/4/4 17/17/17 5/5/5
f 17/17/17 18/18/18 5/5/5
f 5/5/5 18/18/18 6/6/6
f 18/18/18 19/19/19 6/6/6
f 6/6/6 19/19/19 7/7/7
f 19/19/19 20/20/20 7/7/7
f 7/7/7 20/20/20 8/8/8
f 20/20/20 21/21/21 8/8/8
f 8/8/8 21/21/21 9/9/9
f 21/21/21 22/22/22 9/9/9
f 9/9/9 22/22/22 10/10/10
f 22/22/22 23/23/23 10/10/10
f 10/10/10 23/23/23 11/11/11
f 23/23/23 24/24/24 11/11/11
f 11/11/11 24/24/24 12/12/12
f 24/24/24 25/25/25 12/12/12
f 12/12/12 25/25/25 13/13/13
f 25/25/25 26/26/26 13/13/13
f 39/39/39 40/40/40 27/27/27
f 40/40/40 41/41/41 28/28/28
f 41/41/41 42/42/42 29/29/29
f 42/42/42 43/43/43 30/30/30
f 43/43/43 44/44/44 31/31/31
f 44/44/44 45/45/45 32/32/32
f 45/45/45 46/46/46 33/33/33
f 46/46/46 47/47/47 34/34/34
f 47/47/47 48/48/48 35/35/35
f 48/48/48 49/49/49 36/36/36
f 49/49/49 50/50/50 37/37/37
f 50/50/50 51/51/51 38/38/38
f 65/65/65 64/64/64 52/52/52
f 66/66/66 65/65/65 53/53/53
f 67/67/67 66/66/66 54/54/54
f 68/68/68 67/67/67 55/55/55
f 69/69/69 68/68/68 56/56/56
f 70/70/70 69/69/69 57/57/57
f 71/71/71 70/70/70 58/58/58
f 72/72/72 71/71/71 59/59/59
f 73/73/73 72/72/72 60/60/60
f 74/74/74 73/73/73 61/61/61
f 75/75/75 74/74/74 62/62/62
f 76/76/76 75/75/75 63/63/63
o wheel_rear
usemtl SURF_Rubber_Tyre
v -0.6700000000745057 0.3199999928474427 0.3199999928474426
v -0.6700000000745057 0.47999998927116405 0.277128130197525
v -0.6700000000745058 0.5971281230449678 0.1599999964237213
v -0.6700000000745058 0.6399999856948854 1.959434864874595e-17
v -0.6700000000745058 0.5971281230449678 -0.1599999964237213
v -0.6700000000745057 0.47999998927116405 -0.277128130197525
v -0.6700000000745057 0.31999999284744274 -0.3199999928474426
v -0.6700000000745057 0.15999999642372134 -0.277128130197525
v -0.6700000000745056 0.0428718626499176 -0.1599999964237213
v -0.6700000000745056 0 -5.878304760059908e-17
v -0.6700000000745056 0.0428718626499176 0.1599999964237213
v -0.6700000000745057 0.15999999642372134 0.277128130197525
v -0.6700000000745057 0.3199999928474426 0.3199999928474426
v -0.6300000009685753 0.3199999928474427 0.3199999928474426
v -0.6300000009685753 0.47999998927116405 0.277128130197525
v -0.6300000009685754 0.5971281230449678 0.1599999964237213
v -0.6300000009685754 0.6399999856948854 1.959434864874595e-17
v -0.6300000009685754 0.5971281230449678 -0.1599999964237213
v -0.6300000009685753 0.47999998927116405 -0.277128130197525
v -0.6300000009685753 0.31999999284744274 -0.3199999928474426
v -0.6300000009685753 0.15999999642372134 -0.277128130197525
v -0.6300000009685752 0.0428718626499176 -0.1599999964237213
v -0.6300000009685752 0 -5.878304760059908e-17
v -0.6300000009685752 0.0428718626499176 0.1599999964237213
v -0.6300000009685753 0.15999999642372134 0.277128130197525
v -0.6300000009685753 0.3199999928474426 0.3199999928474426
v -0.6700000000745057 0.3199999928474427 0
v -0.6700000000745057 0.3199999928474427 0
v -0.6700000000745057 0.3199999928474427 0
v -0.6700000000745057 0.3199999928474427 0
v -0.6700000000745057 0.3199999928474427 0
v -0.6700000000745057 0.3199999928474427 0
v -0.6700000000745057 0.3199999928474427 0
v -0.6700000000745057 0.3199999928474427 0
v -0.6700000000745057 0.3199999928474427 0
v -0.6700000000745057 0.3199999928474427 0
v -0.6700000000745057 0.3199999928474427 0
v -0.6700000000745057 0.3199999928474427 0
v -0.6700000000745057 0.3199999928474427 0.3199999928474426
v -0.6700000000745057 0.47999998927116405 0.277128130197525
v -0.6700000000745058 0.5971281230449678 0.1599999964237213
v -0.6700000000745058 0.6399999856948854 1.959434864874595e-17
v -0.6700000000745058 0.5971281230449678 -0.1599999964237213
v -0.6700000000745057 0.47999998927116405 -0.277128130197525
v -0.6700000000745057 0.31999999284744274 -0.3199999928474426
v -0.6700000000745057 0.15999999642372134 -0.277128130197525
v -0.6700000000745056 0.0428718626499176 -0.1599999964237213
v -0.6700000000745056 0 -5.878304760059908e-17
v -0.6700000000745056 0.0428718626499176 0.1599999964237213
v -0.6700000000745057 0.15999999642372134 0.277128130197525
v -0.6700000000745057 0.3199999928474426 0.3199999928474426
v -0.6300000009685753 0.3199999928474427 0
v -0.6300000009685753 0.3199999928474427 0
v -0.6300000009685753 0.3199999928474427 0
v -0.6300000009685753 0.3199999928474427 0
v -0.6300000009685753 0.3199999928474427 0
v -0.6300000009685753 0.3199999928474427 0
v -0.6300000009685753 0.3199999928474427 0
v -0.6300000009685753 0.3199999928474427 0
v -0.6300000009685753 0.3199999928474427 0
v -0.6300000009685753 0.3199999928474427 0
v -0.6300000009685753 0.3199999928474427 0
v -0.6300000009685753 0.3199999928474427 0
v -0.6300000009685753 0.3199999928474427 0.3199999928474426
v -0.6300000009685753 0.47999998927116405 0.277128130197525
v -0.6300000009685754 0.5971281230449678 0.1599999964237213
v -0.6300000009685754 0.6399999856948854 1.959434864874595e-17
v -0.6300000009685754 0.5971281230449678 -0.1599999964237213
v -0.6300000009685753 0.47999998927116405 -0.277128130197525
v -0.6300000009685753 0.31999999284744274 -0.3199999928474426
v -0.6300000009685753 0.15999999642372134 -0.277128130197525
v -0.6300000009685752 0.0428718626499176 -0.1599999964237213
v -0.6300000009685752 0 -5.878304760059908e-17
v -0.6300000009685752 0.0428718626499176 0.1599999964237213
v -0.6300000009685753 0.15999999642372134 0.277128130197525
v -0.6300000009685753 0.3199999928474426 0.3199999928474426
vt 0 1
vt 0.0833333358168602 1
vt 0.1666666716337204 1
vt 0.25 1
vt 0.3333333432674408 1
vt 0.4166666567325592 1
vt 0.5 1
vt 0.5833333134651184 1
vt 0.6666666865348816 1
vt 0.75 1
vt 0.8333333134651184 1
vt 0.9166666865348816 1
vt 1 1
vt 0 0
vt 0.0833333358168602 0
vt 0.1666666716337204 0
vt 0.25 0
vt 0.3333333432674408 0
vt 0.4166666567325592 0
vt 0.5 0
vt 0.5833333134651184 0
vt 0.6666666865348816 0
vt 0.75 0
vt 0.8333333134651184 0
vt 0.9166666865348816 0
vt 1 0
vt 0.5 0.5
vt 0.5 0.5
vt 0.5 0.5
vt 0.5 0.5
vt 0.5 0.5
vt 0.5 0.5
vt 0.5 0.5
vt 0.5 0.5
vt 0.5 0.5
vt 0.5 0.5
vt 0.5 0.5
vt 0.5 0.5
vt 1 0.5
vt 0.9330127239227295 0.75
vt 0.75 0.9330127239227295
vt 0.5 1
vt 0.25 0.9330127239227295
vt 0.0669872984290123 0.75
vt 0 0.5
vt 0.0669872984290123 0.25
vt 0.25 0.0669872984290123
vt 0.5 0
vt 0.75 0.0669872984290123
vt 0.9330127239227295 0.25
vt 1 0.5
vt 0.5 0.5
vt 0.5 0.5
vt 0.5 0.5
vt 0.5 0.5
vt 0.5 0.5
vt 0.5 0.5
vt 0.5 0.5
vt 0.5 0.5
vt 0.5 0.5
vt 0.5 0.5
vt 0.5 0.5
vt 0.5 0.5
vt 1 0.5
vt 0.9330127239227295 0.25
vt 0.75 0.0669872984290123
vt 0.5 0
vt 0.25 0.0669872984290123
vt 0.0669872984290123 0.25
vt 0 0.5
vt 0.0669872984290123 0.75
vt 0.25 0.9330127239227295
vt 0.5 1
vt 0.75 0.9330127239227295
vt 0.9330127239227295 0.75
vt 1 0.5
vn 0 0 1
vn -1.110223039570061e-16 0.5000000067305868 0.8660253998985324
vn -1.9229626777551184e-16 0.8660253998985323 0.500000006730587
vn -2.2204460492503126e-16 1 6.12323426292584e-17
vn -1.9229626777551184e-16 0.8660253998985323 -0.500000006730587
vn -1.110223039570061e-16 0.5000000067305868 -0.8660253998985324
vn -2.7192622655495654e-32 1.2246468525851676e-16 -1
vn 1.110223039570061e-16 -0.5000000067305868 -0.8660253998985324
vn 1.9229626777551184e-16 -0.8660253998985323 -0.500000006730587
vn 2.2204460492503126e-16 -1 -1.8369701465288543e-16
vn 1.9229626777551184e-16 -0.8660253998985323 0.500000006730587
vn 1.110223039570061e-16 -0.5000000067305868 0.8660253998985324
vn 5.438524531099131e-32 -2.449293705170335e-16 1
vn 0 0 1
vn -1.110223039570061e-16 0.5000000067305868 0.8660253998985324
vn -1.9229626777551184e-16 0.8660253998985323 0.500000006730587
vn -2.2204460492503126e-16 1 6.12323426292584e-17
vn -1.9229626777551184e-16 0.8660253998985323 -0.500000006730587
vn -1.110223039570061e-16 0.5000000067305868 -0.8660253998985324
vn -2.7192622655495654e-32 1.2246468525851676e-16 -1
vn 1.110223039570061e-16 -0.5000000067305868 -0.8660253998985324
vn 1.9229626777551184e-16 -0.8660253998985323 -0.500000006730587
vn 2.2204460492503126e-16 -1 -1.8369701465288543e-16
vn 1.9229626777551184e-16 -0.8660253998985323 0.500000006730587
vn 1.110223039570061e-16 -0.5000000067305868 0.8660253998985324
vn 5.438524531099131e-32 -2.449293705170335e-16 1
vn -1 -2.2204460492503126e-16 0
vn -1 -2.2204460492503126e-16 0
vn -1 -2.2204460492503126e-16 0
vn -1 -2.2204460492503126e-16 0
vn -1 -2.2204460492503126e-16 0
vn -1 -2.2204460492503126e-16 0
vn -1 -2.2204460492503126e-16 0
vn -1 -2.2204460492503126e-16 0
vn -1 -2.2204460492503126e-16 0
vn -1 -2.2204460492503126e-16 0
vn -1 -2.2204460492503126e-16 0
vn -1 -2.2204460492503126e-16 0
vn -1 -2.2204460492503126e-16 0
vn -1 -2.2204460492503126e-16 0
vn -1 -2.2204460492503126e-16 0
vn -1 -2.2204460492503126e-16 0
vn -1 -2.2204460492503126e-16 0
vn -1 -2.2204460492503126e-16 0
vn -1 -2.2204460492503126e-16 0
vn -1 -2.2204460492503126e-16 0
vn -1 -2.2204460492503126e-16 0
vn -1 -2.2204460492503126e-16 0
vn -1 -2.2204460492503126e-16 0
vn -1 -2.2204460492503126e-16 0
vn -1 -2.2204460492503126e-16 0
vn 1 2.2204460492503126e-16 0
vn 1 2.2204460492503126e-16 0
vn 1 2.2204460492503126e-16 0
vn 1 2.2204460492503126e-16 0
vn 1 2.2204460492503126e-16 0
vn 1 2.2204460492503126e-16 0
vn 1 2.2204460492503126e-16 0
vn 1 2.2204460492503126e-16 0
vn 1 2.2204460492503126e-16 0
vn 1 2.2204460492503126e-16 0
vn 1 2.2204460492503126e-16 0
vn 1 2.2204460492503126e-16 0
vn 1 2.2204460492503126e-16 0
vn 1 2.2204460492503126e-16 0
vn 1 2.2204460492503126e-16 0
vn 1 2.2204460492503126e-16 0
vn 1 2.2204460492503126e-16 0
vn 1 2.2204460492503126e-16 0
vn 1 2.2204460492503126e-16 0
vn 1 2.2204460492503126e-16 0
vn 1 2.2204460492503126e-16 0
vn 1 2.2204460492503126e-16 0
vn 1 2.2204460492503126e-16 0
vn 1 2.2204460492503126e-16 0
vn 1 2.2204460492503126e-16 0
f 77/77/77 90/90/90 78/78/78
f 90/90/90 91/91/91 78/78/78
f 78/78/78 91/91/91 79/79/79
f 91/91/91 92/92/92 79/79/79
f 79/79/79 92/92/92 80/80/80
f 92/92/92 93/93/93 80/80/80
f 80/80/80 93/93/93 81/81/81
f 93/93/93 94/94/94 81/81/81
f 81/81/81 94/94/94 82/82/82
f 94/94/94 95/95/95 82/82/82
f 82/82/82 95/95/95 83/83/83
f 95/95/95 96/96/96 83/83/83
f 83/83/83 96/96/96 84/84/84
f 96/96/96 97/97/97 84/84/84
f 84/84/84 97/97/97 85/85/85
f 97/97/97 98/98/98 85/85/85
f 85/85/85 98/98/98 86/86/86
f 98/98/98 99/99/99 86/86/86
f 86/86/86 99/99/99 87/87/87
f 99/99/99 100/100/100 87/87/87
f 87/87/87 100/100/100 88/88/88
f 100/100/100 101/101/101 88/88/88
f 88/88/88 101/101/101 89/89/89
f 101/101/101 102/102/102 89/89/89
f 115/115/115 116/116/116 103/103/103
f 116/116/116 117/117/117 104/104/104
f 117/117/117 118/118/118 105/105/105
f 118/118/118 119/119/119 106/106/106
f 119/119/119 120/120/120 107/107/107
f 120/120/120 121/121/121 108/108/108
f 121/121/121 122/122/122 109/109/109
f 122/122/122 123/123/123 110/110/110
f 123/123/123 124/124/124 111/111/111
f 124/124/124 125/125/125 112/112/112
f 125/125/125 126/126/126 113/113/113
f 126/126/126 127/127/127 114/114/114
f 141/141/141 140/140/140 128/128/128
f 142/142/142 141/141/141 129/129/129
f 143/143/143 142/142/142 130/130/130
f 144/144/144 143/143/143 131/131/131
f 145/145/145 144/144/144 132/132/132
f 146/146/146 145/145/145 133/133/133
f 147/147/147 146/146/146 134/134/134
f 148/148/148 147/147/147 135/135/135
f 149/149/149 148/148/148 136/136/136
f 150/150/150 149/149/149 137/137/137
f 151/151/151 150/150/150 138/138/138
f 152/152/152 151/151/151 139/139/139
o frame_down
usemtl SURF_Metal_Fence
v 0.14674240146705433 0.349752708039068 0.019999999552965164
v 0.14674240146705433 0.349752708039068 -0.019999999552965164
v 0.127565380351526 0.31464940634807304 0.019999999552965164
v 0.127565380351526 0.31464940634807304 -0.019999999552965164
v -0.46756538139460724 0.6853505793468123 -0.019999999552965164
v -0.46756538139460724 0.6853505793468123 0.019999999552965164
v -0.48674240251013556 0.6502472776558174 -0.019999999552965164
v -0.48674240251013556 0.6502472776558174 0.019999999552965164
v -0.46756538139460724 0.6853505793468123 -0.019999999552965164
v 0.14674240146705433 0.349752708039068 -0.019999999552965164
v -0.46756538139460724 0.6853505793468123 0.019999999552965164
v 0.14674240146705433 0.349752708039068 0.019999999552965164
v -0.48674240251013556 0.6502472776558174 0.019999999552965164
v 0.127565380351526 0.31464940634807304 0.019999999552965164
v -0.48674240251013556 0.6502472776558174 -0.019999999552965164
v 0.127565380351526 0.31464940634807304 -0.019999999552965164
v -0.46756538139460724 0.6853505793468123 0.019999999552965164
v 0.14674240146705433 0.349752708039068 0.019999999552965164
v -0.48674240251013556 0.6502472776558174 0.019999999552965164
v 0.127565380351526 0.31464940634807304 0.019999999552965164
v 0.14674240146705433 0.349752708039068 -0.019999999552965164
v -0.46756538139460724 0.6853505793468123 -0.019999999552965164
v 0.127565380351526 0.31464940634807304 -0.019999999552965164
v -0.48674240251013556 0.6502472776558174 -0.019999999552965164
vt 0 1
vt 1 1
vt 0 0
vt 1 0
vt 0 1
vt 1 1
vt 0 0
vt 1 0
vt 0 1
vt 1 1
vt 0 0
vt 1 0
vt 0 1
vt 1 1
vt 0 0
vt 1 0
vt 0 1
vt 1 1
vt 0 0
vt 1 0
vt 0 1
vt 1 1
vt 0 0
vt 1 0
vn 0.8775825618903728 -0.479425538604203 0
vn 0.8775825618903728 -0.479425538604203 0
vn 0.8775825618903728 -0.479425538604203 0
vn 0.8775825618903728 -0.479425538604203 0
vn -0.8775825618903728 0.479425538604203 0
vn -0.8775825618903728 0.479425538604203 0
vn -0.8775825618903728 0.479425538604203 0
vn -0.8775825618903728 0.479425538604203 0
vn 0.479425538604203 0.8775825618903728 0
vn 0.479425538604203 0.8775825618903728 0
vn 0.479425538604203 0.8775825618903728 0
vn 0.479425538604203 0.8775825618903728 0
vn -0.479425538604203 -0.8775825618903728 0
vn -0.479425538604203 -0.8775825618903728 0
vn -0.479425538604203 -0.8775825618903728 0
vn -0.479425538604203 -0.8775825618903728 0
vn 0 0 1
vn 0 0 1
vn 0 0 1
vn 0 0 1
vn 0 0 -1
vn 0 0 -1
vn 0 0 -1
vn 0 0 -1
f 153/153/153 155/155/155 154/154/154
f 155/155/155 156/156/156 154/154/154
f 157/157/157 159/159/159 158/158/158
f 159/159/159 160/160/160 158/158/158
f 161/161/161 163/163/163 162/162/162
f 163/163/163 164/164/164 162/162/162
f 165/165/165 167/167/167 166/166/166
f 167/167/167 168/168/168 166/166/166
f 169/169/169 171/171/171 170/170/170
f 171/171/171 172/172/172 170/170/170
f 173/173/173 175/175/175 174/174/174
f 175/175/175 176/176/176 174/174/174
o frame_top
usemtl SURF_Metal_Fence
v 0.08000000186264519 0.7374999929219485 0.017500000074505806
v 0.08000000186264519 0.7374999929219485 -0.017500000074505806
v 0.08000000186264519 0.7024999927729368 0.017500000074505806
v 0.08000000186264519 0.7024999927729368 -0.017500000074505806
v -0.5400000029057264 0.7374999929219485 -0.017500000074505806
v -0.5400000029057264 0.7374999929219485 0.017500000074505806
v -0.5400000029057264 0.7024999927729368 -0.017500000074505806
v -0.5400000029057264 0.7024999927729368 0.017500000074505806
v -0.5400000029057264 0.7374999929219485 -0.017500000074505806
v 0.08000000186264519 0.7374999929219485 -0.017500000074505806
v -0.5400000029057264 0.7374999929219485 0.017500000074505806
v 0.08000000186264519 0.7374999929219485 0.017500000074505806
v -0.5400000029057264 0.7024999927729368 0.017500000074505806
v 0.08000000186264519 0.7024999927729368 0.017500000074505806
v -0.5400000029057264 0.7024999927729368 -0.017500000074505806
v 0.08000000186264519 0.7024999927729368 -0.017500000074505806
v -0.5400000029057264 0.7374999929219485 0.017500000074505806
v 0.08000000186264519 0.7374999929219485 0.017500000074505806
v -0.5400000029057264 0.7024999927729368 0.017500000074505806
v 0.08000000186264519 0.7024999927729368 0.017500000074505806
v 0.08000000186264519 0.7374999929219485 -0.017500000074505806
v -0.5400000029057264 0.7374999929219485 -0.017500000074505806
v 0.08000000186264519 0.7024999927729368 -0.017500000074505806
v -0.5400000029057264 0.7024999927729368 -0.017500000074505806
vt 0 1
vt 1 1
vt 0 0
vt 1 0
vt 0 1
vt 1 1
vt 0 0
vt 1 0
vt 0 1
vt 1 1
vt 0 0
vt 1 0
vt 0 1
vt 1 1
vt 0 0
vt 1 0
vt 0 1
vt 1 1
vt 0 0
vt 1 0
vt 0 1
vt 1 1
vt 0 0
vt 1 0
vn 1 0 0
vn 1 0 0
vn 1 0 0
vn 1 0 0
vn -1 0 0
vn -1 0 0
vn -1 0 0
vn -1 0 0
vn 0 1 0
vn 0 1 0
vn 0 1 0
vn 0 1 0
vn 0 -1 0
vn 0 -1 0
vn 0 -1 0
vn 0 -1 0
vn 0 0 1
vn 0 0 1
vn 0 0 1
vn 0 0 1
vn 0 0 -1
vn 0 0 -1
vn 0 0 -1
vn 0 0 -1
f 177/177/177 179/179/179 178/178/178
f 179/179/179 180/180/180 178/178/178
f 181/181/181 183/183/183 182/182/182
f 183/183/183 184/184/184 182/182/182
f 185/185/185 187/187/187 186/186/186
f 187/187/187 188/188/188 186/186/186
f 189/189/189 191/191/191 190/190/190
f 191/191/191 192/192/192 190/190/190
f 193/193/193 195/195/195 194/194/194
f 195/195/195 196/196/196 194/194/194
f 197/197/197 199/199/199 198/198/198
f 199/199/199 200/200/200 198/198/198
o frame_seat
usemtl SURF_Metal_Fence
v -0.48612904232430515 0.8003493257256337 0.013000000268220901
v -0.48612904232430515 0.8003493257256337 -0.013000000268220901
v -0.41451721188687607 0.4068118427462197 0.013000000268220901
v -0.41451721188687607 0.4068118427462197 -0.013000000268220901
v -0.5254827891562052 0.7931881429486656 -0.013000000268220901
v -0.5254827891562052 0.7931881429486656 0.013000000268220901
v -0.4538709587187761 0.39965065996925164 -0.013000000268220901
v -0.4538709587187761 0.39965065996925164 0.013000000268220901
v -0.5254827891562052 0.7931881429486656 -0.013000000268220901
v -0.48612904232430515 0.8003493257256337 -0.013000000268220901
v -0.5254827891562052 0.7931881429486656 0.013000000268220901
v -0.48612904232430515 0.8003493257256337 0.013000000268220901
v -0.4538709587187761 0.39965065996925164 0.013000000268220901
v -0.41451721188687607 0.4068118427462197 0.013000000268220901
v -0.4538709587187761 0.39965065996925164 -0.013000000268220901
v -0.41451721188687607 0.4068118427462197 -0.013000000268220901
v -0.5254827891562052 0.7931881429486656 0.013000000268220901
v -0.48612904232430515 0.8003493257256337 0.013000000268220901
v -0.4538709587187761 0.39965065996925164 0.013000000268220901
v -0.41451721188687607 0.4068118427462197 0.013000000268220901
v -0.48612904232430515 0.8003493257256337 -0.013000000268220901
v -0.5254827891562052 0.7931881429486656 -0.013000000268220901
v -0.41451721188687607 0.4068118427462197 -0.013000000268220901
v -0.4538709587187761 0.39965065996925164 -0.013000000268220901
vt 0 1
vt 1 1
vt 0 0
vt 1 0
vt 0 1
vt 1 1
vt 0 0
vt 1 0
vt 0 1
vt 1 1
vt 0 0
vt 1 0
vt 0 1
vt 1 1
vt 0 0
vt 1 0
vt 0 1
vt 1 1
vt 0 0
vt 1 0
vt 0 1
vt 1 1
vt 0 0
vt 1 0
vn 0.9838436927881214 0.17902957342582415 0
vn 0.9838436927881214 0.17902957342582415 0
vn 0.9838436927881214 0.17902957342582415 0
vn 0.9838436927881214 0.17902957342582415 0
vn -0.9838436927881214 -0.17902957342582415 0
vn -0.9838436927881214 -0.17902957342582415 0
vn -0.9838436927881214 -0.17902957342582415 0
vn -0.9838436927881214 -0.17902957342582415 0
vn -0.17902957342582415 0.9838436927881214 0
vn -0.17902957342582415 0.9838436927881214 0
vn -0.17902957342582415 0.9838436927881214 0
vn -0.17902957342582415 0.9838436927881214 0
vn 0.17902957342582415 -0.9838436927881214 0
vn 0.17902957342582415 -0.9838436927881214 0
vn 0.17902957342582415 -0.9838436927881214 0
vn 0.17902957342582415 -0.9838436927881214 0
vn 0 0 1
vn 0 0 1
vn 0 0 1
vn 0 0 1
vn 0 0 -1
vn 0 0 -1
vn 0 0 -1
vn 0 0 -1
f 201/201/201 203/203/203 202/202/202
f 203/203/203 204/204/204 202/202/202
f 205/205/205 207/207/207 206/206/206
f 207/207/207 208/208/208 206/206/206
f 209/209/209 211/211/211 210/210/210
f 211/211/211 212/212/212 210/210/210
f 213/213/213 215/215/215 214/214/214
f 215/215/215 216/216/216 214/214/214
f 217/217/217 219/219/219 218/218/218
f 219/219/219 220/220/220 218/218/218
f 221/221/221 223/223/223 222/222/222
f 223/223/223 224/224/224 222/222/222
o fork
usemtl SURF_Metal_Fence
v 0.5369669562966979 0.9053764282369186 0.019999999552965164
v 0.5369669562966979 0.9053764282369186 -0.019999999552965164
v 0.4627453872067356 0.289835069273441 0.019999999552965164
v 0.4627453872067356 0.289835069273441 -0.019999999552965164
v 0.4972546117501833 0.9101649164214443 -0.019999999552965164
v 0.4972546117501833 0.9101649164214443 0.019999999552965164
v 0.423033042660221 0.2946235574579667 -0.019999999552965164
v 0.423033042660221 0.2946235574579667 0.019999999552965164
v 0.4972546117501833 0.9101649164214443 -0.019999999552965164
v 0.5369669562966979 0.9053764282369186 -0.019999999552965164
v 0.4972546117501833 0.9101649164214443 0.019999999552965164
v 0.5369669562966979 0.9053764282369186 0.019999999552965164
v 0.423033042660221 0.2946235574579667 0.019999999552965164
v 0.4627453872067356 0.289835069273441 0.019999999552965164
v 0.423033042660221 0.2946235574579667 -0.019999999552965164
v 0.4627453872067356 0.289835069273441 -0.019999999552965164
v 0.4972546117501833 0.9101649164214443 0.019999999552965164
v 0.5369669562966979 0.9053764282369186 0.019999999552965164
v 0.423033042660221 0.2946235574579667 0.019999999552965164
v 0.4627453872067356 0.289835069273441 0.019999999552965164
v 0.5369669562966979 0.9053764282369186 -0.019999999552965164
v 0.4972546117501833 0.9101649164214443 -0.019999999552965164
v 0.4627453872067356 0.289835069273441 -0.019999999552965164
v 0.423033042660221 0.2946235574579667 -0.019999999552965164
vt 0 1
vt 1 1
vt 0 0
vt 1 0
vt 0 1
vt 1 1
vt 0 0
vt 1 0
vt 0 1
vt 1 1
vt 0 0
vt 1 0
vt 0 1
vt 1 1
vt 0 0
vt 1 0
vt 0 1
vt 1 1
vt 0 0
vt 1 0
vt 0 1
vt 1 1
vt 0 0
vt 1 0
vn 0.9928086358538663 -0.11971220728891936 0
vn 0.9928086358538663 -0.11971220728891936 0
vn 0.9928086358538663 -0.11971220728891936 0
vn 0.9928086358538663 -0.11971220728891936 0
vn -0.9928086358538663 0.11971220728891936 0
vn -0.9928086358538663 0.11971220728891936 0
vn -0.9928086358538663 0.11971220728891936 0
vn -0.9928086358538663 0.11971220728891936 0
vn 0.11971220728891936 0.9928086358538663 0
vn 0.11971220728891936 0.9928086358538663 0
vn 0.11971220728891936 0.9928086358538663 0
vn 0.11971220728891936 0.9928086358538663 0
vn -0.11971220728891936 -0.9928086358538663 0
vn -0.11971220728891936 -0.9928086358538663 0
vn -0.11971220728891936 -0.9928086358538663 0
vn -0.11971220728891936 -0.9928086358538663 0
vn 0 0 1
vn 0 0 1
vn 0 0 1
vn 0 0 1
vn 0 0 -1
vn 0 0 -1
vn 0 0 -1
vn 0 0 -1
f 225/225/225 227/227/227 226/226/226
f 227/227/227 228/228/228 226/226/226
f 229/229/229 231/231/231 230/230/230
f 231/231/231 232/232/232 230/230/230
f 233/233/233 235/235/235 234/234/234
f 235/235/235 236/236/236 234/234/234
f 237/237/237 239/239/239 238/238/238
f 239/239/239 240/240/240 238/238/238
f 241/241/241 243/243/243 242/242/242
f 243/243/243 244/244/244 242/242/242
f 245/245/245 247/247/247 246/246/246
f 247/247/247 248/248/248 246/246/246
o handlebar
usemtl SURF_Metal_Fence
v 0.44999999903142457 0.9699999924004078 0.2199999988079071
v 0.44999999903142457 0.9699999924004078 -0.2199999988079071
v 0.44999999903142457 0.9299999932944775 0.2199999988079071
v 0.44999999903142457 0.9299999932944775 -0.2199999988079071
v 0.40999999992549424 0.9699999924004078 -0.2199999988079071
v 0.40999999992549424 0.9699999924004078 0.2199999988079071
v 0.40999999992549424 0.9299999932944775 -0.2199999988079071
v 0.40999999992549424 0.9299999932944775 0.2199999988079071
v 0.40999999992549424 0.9699999924004078 -0.2199999988079071
v 0.44999999903142457 0.9699999924004078 -0.2199999988079071
v 0.40999999992549424 0.9699999924004078 0.2199999988079071
v 0.44999999903142457 0.9699999924004078 0.2199999988079071
v 0.40999999992549424 0.9299999932944775 0.2199999988079071
v 0.44999999903142457 0.9299999932944775 0.2199999988079071
v 0.40999999992549424 0.9299999932944775 -0.2199999988079071
v 0.44999999903142457 0.9299999932944775 -0.2199999988079071
v 0.40999999992549424 0.9699999924004078 0.2199999988079071
v 0.44999999903142457 0.9699999924004078 0.2199999988079071
v 0.40999999992549424 0.9299999932944775 0.2199999988079071
v 0.44999999903142457 0.9299999932944775 0.2199999988079071
v 0.44999999903142457 0.9699999924004078 -0.2199999988079071
v 0.40999999992549424 0.9699999924004078 -0.2199999988079071
v 0.44999999903142457 0.9299999932944775 -0.2199999988079071
v 0.40999999992549424 0.9299999932944775 -0.2199999988079071
vt 0 1
vt 1 1
vt 0 0
vt 1 0
vt 0 1
vt 1 1
vt 0 0
vt 1 0
vt 0 1
vt 1 1
vt 0 0
vt 1 0
vt 0 1
vt 1 1
vt 0 0
vt 1 0
vt 0 1
vt 1 1
vt 0 0
vt 1 0
vt 0 1
vt 1 1
vt 0 0
vt 1 0
vn 1 0 0
vn 1 0 0
vn 1 0 0
vn 1 0 0
vn -1 0 0
vn -1 0 0
vn -1 0 0
vn -1 0 0
vn 0 1 0
vn 0 1 0
vn 0 1 0
vn 0 1 0
vn 0 -1 0
vn 0 -1 0
vn 0 -1 0
vn 0 -1 0
vn 0 0 1
vn 0 0 1
vn 0 0 1
vn 0 0 1
vn 0 0 -1
vn 0 0 -1
vn 0 0 -1
vn 0 0 -1
f 249/249/249 251/251/251 250/250/250
f 251/251/251 252/252/252 250/250/250
f 253/253/253 255/255/255 254/254/254
f 255/255/255 256/256/256 254/254/254
f 257/257/257 259/259/259 258/258/258
f 259/259/259 260/260/260 258/258/258
f 261/261/261 263/263/263 262/262/262
f 263/263/263 264/264/264 262/262/262
f 265/265/265 267/267/267 266/266/266
f 267/267/267 268/268/268 266/266/266
f 269/269/269 271/271/271 270/270/270
f 271/271/271 272/272/272 270/270/270
o saddle
usemtl SURF_Plastic_Matte
v -0.40000000111758705 0.8899999921768904 0.05000000074505806
v -0.40000000111758705 0.8899999921768904 -0.05000000074505806
v -0.40000000111758705 0.8299999935179949 0.05000000074505806
v -0.40000000111758705 0.8299999935179949 -0.05000000074505806
v -0.6199999999254941 0.8899999921768904 -0.05000000074505806
v -0.6199999999254941 0.8899999921768904 0.05000000074505806
v -0.6199999999254941 0.8299999935179949 -0.05000000074505806
v -0.6199999999254941 0.8299999935179949 0.05000000074505806
v -0.6199999999254941 0.8899999921768904 -0.05000000074505806
v -0.40000000111758705 0.8899999921768904 -0.05000000074505806
v -0.6199999999254941 0.8899999921768904 0.05000000074505806
v -0.40000000111758705 0.8899999921768904 0.05000000074505806
v -0.6199999999254941 0.8299999935179949 0.05000000074505806
v -0.40000000111758705 0.8299999935179949 0.05000000074505806
v -0.6199999999254941 0.8299999935179949 -0.05000000074505806
v -0.40000000111758705 0.8299999935179949 -0.05000000074505806
v -0.6199999999254941 0.8899999921768904 0.05000000074505806
v -0.40000000111758705 0.8899999921768904 0.05000000074505806
v -0.6199999999254941 0.8299999935179949 0.05000000074505806
v -0.40000000111758705 0.8299999935179949 0.05000000074505806
v -0.40000000111758705 0.8899999921768904 -0.05000000074505806
v -0.6199999999254941 0.8899999921768904 -0.05000000074505806
v -0.40000000111758705 0.8299999935179949 -0.05000000074505806
v -0.6199999999254941 0.8299999935179949 -0.05000000074505806
vt 0 1
vt 1 1
vt 0 0
vt 1 0
vt 0 1
vt 1 1
vt 0 0
vt 1 0
vt 0 1
vt 1 1
vt 0 0
vt 1 0
vt 0 1
vt 1 1
vt 0 0
vt 1 0
vt 0 1
vt 1 1
vt 0 0
vt 1 0
vt 0 1
vt 1 1
vt 0 0
vt 1 0
vn 1 0 0
vn 1 0 0
vn 1 0 0
vn 1 0 0
vn -1 0 0
vn -1 0 0
vn -1 0 0
vn -1 0 0
vn 0 1 0
vn 0 1 0
vn 0 1 0
vn 0 1 0
vn 0 -1 0
vn 0 -1 0
vn 0 -1 0
vn 0 -1 0
vn 0 0 1
vn 0 0 1
vn 0 0 1
vn 0 0 1
vn 0 0 -1
vn 0 0 -1
vn 0 0 -1
vn 0 0 -1
f 273/273/273 275/275/275 274/274/274
f 275/275/275 276/276/276 274/274/274
f 277/277/277 279/279/279 278/278/278
f 279/279/279 280/280/280 278/278/278
f 281/281/281 283/283/283 282/282/282
f 283/283/283 284/284/284 282/282/282
f 285/285/285 287/287/287 286/286/286
f 287/287/287 288/288/288 286/286/286
f 289/289/289 291/291/291 290/290/290
f 291/291/291 292/292/292 290/290/290
f 293/293/293 295/295/295 294/294/294
f 295/295/295 296/296/296 294/294/294
o basket
usemtl SURF_Metal_Fence
v 0.6700000000745059 0.9199999943375587 0.10999999940395355
v 0.6700000000745059 0.9199999943375587 -0.10999999940395355
v 0.6700000000745059 0.7199999913573265 0.10999999940395355
v 0.6700000000745059 0.7199999913573265 -0.10999999940395355
v 0.389999998882413 0.9199999943375587 -0.10999999940395355
v 0.389999998882413 0.9199999943375587 0.10999999940395355
v 0.389999998882413 0.7199999913573265 -0.10999999940395355
v 0.389999998882413 0.7199999913573265 0.10999999940395355
v 0.389999998882413 0.9199999943375587 -0.10999999940395355
v 0.6700000000745059 0.9199999943375587 -0.10999999940395355
v 0.389999998882413 0.9199999943375587 0.10999999940395355
v 0.6700000000745059 0.9199999943375587 0.10999999940395355
v 0.389999998882413 0.7199999913573265 0.10999999940395355
v 0.6700000000745059 0.7199999913573265 0.10999999940395355
v 0.389999998882413 0.7199999913573265 -0.10999999940395355
v 0.6700000000745059 0.7199999913573265 -0.10999999940395355
v 0.389999998882413 0.9199999943375587 0.10999999940395355
v 0.6700000000745059 0.9199999943375587 0.10999999940395355
v 0.389999998882413 0.7199999913573265 0.10999999940395355
v 0.6700000000745059 0.7199999913573265 0.10999999940395355
v 0.6700000000745059 0.9199999943375587 -0.10999999940395355
v 0.389999998882413 0.9199999943375587 -0.10999999940395355
v 0.6700000000745059 0.7199999913573265 -0.10999999940395355
v 0.389999998882413 0.7199999913573265 -0.10999999940395355
vt 0 1
vt 1 1
vt 0 0
vt 1 0
vt 0 1
vt 1 1
vt 0 0
vt 1 0
vt 0 1
vt 1 1
vt 0 0
vt 1 0
vt 0 1
vt 1 1
vt 0 0
vt 1 0
vt 0 1
vt 1 1
vt 0 0
vt 1 0
vt 0 1
vt 1 1
vt 0 0
vt 1 0
vn 1 0 0
vn 1 0 0
vn 1 0 0
vn 1 0 0
vn -1 0 0
vn -1 0 0
vn -1 0 0
vn -1 0 0
vn 0 1 0
vn 0 1 0
vn 0 1 0
vn 0 1 0
vn 0 -1 0
vn 0 -1 0
vn 0 -1 0
vn 0 -1 0
vn 0 0 1
vn 0 0 1
vn 0 0 1
vn 0 0 1
vn 0 0 -1
vn 0 0 -1
vn 0 0 -1
vn 0 0 -1
f 297/297/297 299/299/299 298/298/298
f 299/299/299 300/300/300 298/298/298
f 301/301/301 303/303/303 302/302/302
f 303/303/303 304/304/304 302/302/302
f 305/305/305 307/307/307 306/306/306
f 307/307/307 308/308/308 306/306/306
f 309/309/309 311/311/311 310/310/310
f 311/311/311 312/312/312 310/310/310
f 313/313/313 315/315/315 314/314/314
f 315/315/315 316/316/316 314/314/314
f 317/317/317 319/319/319 318/318/318
f 319/319/319 320/320/320 318/318/318
o crank
usemtl SURF_Metal_Fence
v -0.14500000018626447 0.2799999928474427 0.13000000029802322
v -0.14500000018626447 0.32949746683239944 0.10949747398495674
v -0.1450000001862645 0.3499999931454659 0.060000000000000005
v -0.14500000018626447 0.32949746683239944 0.010502526015043256
v -0.14500000018626447 0.2799999928474427 -0.010000000298023226
v -0.14500000018626447 0.23050251886248596 0.010502526015043256
v -0.14500000018626447 0.20999999254941948 0.059999999999999984
v -0.14500000018626447 0.23050251886248596 0.10949747398495674
v -0.14500000018626447 0.2799999928474427 0.13000000029802322
v -0.11500000085681672 0.2799999928474427 0.13000000029802322
v -0.11500000085681672 0.32949746683239944 0.10949747398495674
v -0.11500000085681673 0.3499999931454659 0.060000000000000005
v -0.11500000085681672 0.32949746683239944 0.010502526015043256
v -0.11500000085681672 0.2799999928474427 -0.010000000298023226
v -0.1150000008568167 0.23050251886248596 0.010502526015043256
v -0.1150000008568167 0.20999999254941948 0.059999999999999984
v -0.1150000008568167 0.23050251886248596 0.10949747398495674
v -0.11500000085681672 0.2799999928474427 0.13000000029802322
v -0.14500000018626447 0.2799999928474427 0.06
v -0.14500000018626447 0.2799999928474427 0.06
v -0.14500000018626447 0.2799999928474427 0.06
v -0.14500000018626447 0.2799999928474427 0.06
v -0.14500000018626447 0.2799999928474427 0.06
v -0.14500000018626447 0.2799999928474427 0.06
v -0.14500000018626447 0.2799999928474427 0.06
v -0.14500000018626447 0.2799999928474427 0.06
v -0.14500000018626447 0.2799999928474427 0.13000000029802322
v -0.14500000018626447 0.32949746683239944 0.10949747398495674
v -0.1450000001862645 0.3499999931454659 0.060000000000000005
v -0.14500000018626447 0.32949746683239944 0.010502526015043256
v -0.14500000018626447 0.2799999928474427 -0.010000000298023226
v -0.14500000018626447 0.23050251886248596 0.010502526015043256
v -0.14500000018626447 0.20999999254941948 0.059999999999999984
v -0.14500000018626447 0.23050251886248596 0.10949747398495674
v -0.14500000018626447 0.2799999928474427 0.13000000029802322
v -0.11500000085681672 0.2799999928474427 0.06
v -0.11500000085681672 0.2799999928474427 0.06
v -0.11500000085681672 0.2799999928474427 0.06
v -0.11500000085681672 0.2799999928474427 0.06
v -0.11500000085681672 0.2799999928474427 0.06
v -0.11500000085681672 0.2799999928474427 0.06
v -0.11500000085681672 0.2799999928474427 0.06
v -0.11500000085681672 0.2799999928474427 0.06
v -0.11500000085681672 0.2799999928474427 0.13000000029802322
v -0.11500000085681672 0.32949746683239944 0.10949747398495674
v -0.11500000085681673 0.3499999931454659 0.060000000000000005
v -0.11500000085681672 0.32949746683239944 0.010502526015043256
v -0.11500000085681672 0.2799999928474427 -0.010000000298023226
v -0.1150000008568167 0.23050251886248596 0.010502526015043256
v -0.1150000008568167 0.20999999254941948 0.059999999999999984
v -0.1150000008568167 0.23050251886248596 0.10949747398495674
v -0.11500000085681672 0.2799999928474427 0.13000000029802322
vt 0 1
vt 0.125 1
vt 0.25 1
vt 0.375 1
vt 0.5 1
vt 0.625 1
vt 0.75 1
vt 0.875 1
vt 1 1
vt 0 0
vt 0.125 0
vt 0.25 0
vt 0.375 0
vt 0.5 0
vt 0.625 0
vt 0.75 0
vt 0.875 0
vt 1 0
vt 0.5 0.5
vt 0.5 0.5
vt 0.5 0.5
vt 0.5 0.5
vt 0.5 0.5
vt 0.5 0.5
vt 0.5 0.5
vt 0.5 0.5
vt 1 0.5
vt 0.8535534143447876 0.8535534143447876
vt 0.5 1
vt 0.1464466154575348 0.8535534143447876
vt 0 0.5
vt 0.1464466154575348 0.1464466154575348
vt 0.5 0
vt 0.8535534143447876 0.1464466154575348
vt 1 0.5
vt 0.5 0.5
vt 0.5 0.5
vt 0.5 0.5
vt 0.5 0.5
vt 0.5 0.5
vt 0.5 0.5
vt 0.5 0.5
vt 0.5 0.5
vt 1 0.5
vt 0.8535534143447876 0.1464466154575348
vt 0.5 0
vt 0.1464466154575348 0.1464466154575348
vt 0 0.5
vt 0.1464466154575348 0.8535534143447876
vt 0.5 1
vt 0.8535534143447876 0.8535534143447876
vt 1 0.5
vn 0 0 1
vn -1.5700924586837744e-16 0.7071067811865475 0.7071067811865476
vn -2.2204460492503126e-16 1 6.12323426292584e-17
vn -1.5700924586837744e-16 0.7071067811865475 -0.7071067811865476
vn -2.7192622655495654e-32 1.2246468525851676e-16 -1
vn 1.5700924586837744e-16 -0.7071067811865475 -0.7071067811865476
vn 2.2204460492503126e-16 -1 -1.8369701465288543e-16
vn 1.5700924586837744e-16 -0.7071067811865475 0.7071067811865476
vn 5.438524531099131e-32 -2.449293705170335e-16 1
vn 0 0 1
vn -1.5700924586837744e-16 0.7071067811865475 0.7071067811865476
vn -2.2204460492503126e-16 1 6.12323426292584e-17
vn -1.5700924586837744e-16 0.7071067811865475 -0.7071067811865476
vn -2.7192622655495654e-32 1.2246468525851676e-16 -1
vn 1.5700924586837744e-16 -0.7071067811865475 -0.7071067811865476
vn 2.2204460492503126e-16 -1 -1.8369701465288543e-16
vn 1.5700924586837744e-16 -0.7071067811865475 0.7071067811865476
vn 5.438524531099131e-32 -2.449293705170335e-16 1
vn -1 -2.2204460492503126e-16 0
vn -1 -2.2204460492503126e-16 0
vn -1 -2.2204460492503126e-16 0
vn -1 -2.2204460492503126e-16 0
vn -1 -2.2204460492503126e-16 0
vn -1 -2.2204460492503126e-16 0
vn -1 -2.2204460492503126e-16 0
vn -1 -2.2204460492503126e-16 0
vn -1 -2.2204460492503126e-16 0
vn -1 -2.2204460492503126e-16 0
vn -1 -2.2204460492503126e-16 0
vn -1 -2.2204460492503126e-16 0
vn -1 -2.2204460492503126e-16 0
vn -1 -2.2204460492503126e-16 0
vn -1 -2.2204460492503126e-16 0
vn -1 -2.2204460492503126e-16 0
vn -1 -2.2204460492503126e-16 0
vn 1 2.2204460492503126e-16 0
vn 1 2.2204460492503126e-16 0
vn 1 2.2204460492503126e-16 0
vn 1 2.2204460492503126e-16 0
vn 1 2.2204460492503126e-16 0
vn 1 2.2204460492503126e-16 0
vn 1 2.2204460492503126e-16 0
vn 1 2.2204460492503126e-16 0
vn 1 2.2204460492503126e-16 0
vn 1 2.2204460492503126e-16 0
vn 1 2.2204460492503126e-16 0
vn 1 2.2204460492503126e-16 0
vn 1 2.2204460492503126e-16 0
vn 1 2.2204460492503126e-16 0
vn 1 2.2204460492503126e-16 0
vn 1 2.2204460492503126e-16 0
vn 1 2.2204460492503126e-16 0
f 321/321/321 330/330/330 322/322/322
f 330/330/330 331/331/331 322/322/322
f 322/322/322 331/331/331 323/323/323
f 331/331/331 332/332/332 323/323/323
f 323/323/323 332/332/332 324/324/324
f 332/332/332 333/333/333 324/324/324
f 324/324/324 333/333/333 325/325/325
f 333/333/333 334/334/334 325/325/325
f 325/325/325 334/334/334 326/326/326
f 334/334/334 335/335/335 326/326/326
f 326/326/326 335/335/335 327/327/327
f 335/335/335 336/336/336 327/327/327
f 327/327/327 336/336/336 328/328/328
f 336/336/336 337/337/337 328/328/328
f 328/328/328 337/337/337 329/329/329
f 337/337/337 338/338/338 329/329/329
f 347/347/347 348/348/348 339/339/339
f 348/348/348 349/349/349 340/340/340
f 349/349/349 350/350/350 341/341/341
f 350/350/350 351/351/351 342/342/342
f 351/351/351 352/352/352 343/343/343
f 352/352/352 353/353/353 344/344/344
f 353/353/353 354/354/354 345/345/345
f 354/354/354 355/355/355 346/346/346
f 365/365/365 364/364/364 356/356/356
f 366/366/366 365/365/365 357/357/357
f 367/367/367 366/366/366 358/358/358
f 368/368/368 367/367/367 359/359/359
f 369/369/369 368/368/368 360/360/360
f 370/370/370 369/369/369 361/361/361
f 371/371/371 370/370/370 362/362/362
f 372/372/372 371/371/371 363/363/363
