# PRP_P1_Traffic_Mirror_A — Traffic mirror
# SC_P1_WALK · group B
# bounds 0.74 × 0.20 × 2.64 m · 152 tris · UV island 88 × 32 px
# 1 unit = 1 m · pivot at floor contact, X/Z centred
mtllib PRP_P1_Traffic_Mirror_A.mtl
o post
usemtl SURF_Metal_Fence
v -0.2700000010430813 2.4000000953674316 0.05000000074505806
v -0.2346446603536606 2.4000000953674316 0.0353553406894207
v -0.22000000029802325 2.4000000953674316 3.0616169246677665e-18
v -0.2346446603536606 2.4000000953674316 -0.0353553406894207
v -0.2700000010430813 2.4000000953674316 -0.05000000074505806
v -0.305355341732502 2.4000000953674316 -0.0353553406894207
v -0.32000000178813937 2.4000000953674316 -9.184851394388759e-18
v -0.305355341732502 2.4000000953674316 0.0353553406894207
v -0.2700000010430813 2.4000000953674316 0.05000000074505806
v -0.2700000010430813 0 0.05999999865889549
v -0.22757359370589259 0 0.04242640733718872
v -0.2100000023841858 0 3.673940475037442e-18
v -0.22757359370589259 0 -0.04242640733718872
v -0.2700000010430813 0 -0.05999999865889549
v -0.31242640838027 0 -0.04242640733718872
v -0.3299999997019768 0 -1.102182101152202e-17
v -0.31242640838027 0 0.04242640733718872
v -0.2700000010430813 0 0.05999999865889549
v -0.2700000010430813 2.4000000953674316 0
v -0.2700000010430813 2.4000000953674316 0
v -0.2700000010430813 2.4000000953674316 0
v -0.2700000010430813 2.4000000953674316 0
v -0.2700000010430813 2.4000000953674316 0
v -0.2700000010430813 2.4000000953674316 0
v -0.2700000010430813 2.4000000953674316 0
v -0.2700000010430813 2.4000000953674316 0
v -0.2700000010430813 2.4000000953674316 0.05000000074505806
v -0.2346446603536606 2.4000000953674316 0.0353553406894207
v -0.22000000029802325 2.4000000953674316 3.0616169246677665e-18
v -0.2346446603536606 2.4000000953674316 -0.0353553406894207
v -0.2700000010430813 2.4000000953674316 -0.05000000074505806
v -0.305355341732502 2.4000000953674316 -0.0353553406894207
v -0.32000000178813937 2.4000000953674316 -9.184851394388759e-18
v -0.305355341732502 2.4000000953674316 0.0353553406894207
v -0.2700000010430813 2.4000000953674316 0.05000000074505806
v -0.2700000010430813 0 0
v -0.2700000010430813 0 0
v -0.2700000010430813 0 0
v -0.2700000010430813 0 0
v -0.2700000010430813 0 0
v -0.2700000010430813 0 0
v -0.2700000010430813 0 0
v -0.2700000010430813 0 0
v -0.2700000010430813 0 0.05999999865889549
v -0.22757359370589259 0 0.04242640733718872
v -0.2100000023841858 0 3.673940475037442e-18
v -0.22757359370589259 0 -0.04242640733718872
v -0.2700000010430813 0 -0.05999999865889549
v -0.31242640838027 0 -0.04242640733718872
v -0.3299999997019768 0 -1.102182101152202e-17
v -0.31242640838027 0 0.04242640733718872
v -0.2700000010430813 0 0.05999999865889549
vt 0 1
vt 0.125 1
vt 0.25 1
vt 0.375 1
vt 0.5 1
vt 0.625 1
vt 0.75 1
vt 0.875 1
vt 1 1
vt 0 0
vt 0.125 0
vt 0.25 0
vt 0.375 0
vt 0.5 0
vt 0.625 0
vt 0.75 0
vt 0.875 0
vt 1 0
vt 0.5 0.5
vt 0.5 0.5
vt 0.5 0.5
vt 0.5 0.5
vt 0.5 0.5
vt 0.5 0.5
vt 0.5 0.5
vt 0.5 0.5
vt 1 0.5
vt 0.8535534143447876 0.8535534143447876
vt 0.5 1
vt 0.1464466154575348 0.8535534143447876
vt 0 0.5
vt 0.1464466154575348 0.1464466154575348
vt 0.5 0
vt 0.8535534143447876 0.1464466154575348
vt 1 0.5
vt 0.5 0.5
vt 0.5 0.5
vt 0.5 0.5
vt 0.5 0.5
vt 0.5 0.5
vt 0.5 0.5
vt 0.5 0.5
vt 0.5 0.5
vt 1 0.5
vt 0.8535534143447876 0.1464466154575348
vt 0.5 0
vt 0.1464466154575348 0.1464466154575348
vt 0 0.5
vt 0.1464466154575348 0.8535534143447876
vt 0.5 1
vt 0.8535534143447876 0.8535534143447876
vt 1 0.5
vn 0 0.0041666306533738665 0.9999913195568242
vn 0.70710064318635 0.004166630641236273 0.70710064318635
vn 0.9999913195568242 0.0041666306533738665 6.123180795322723e-17
vn 0.70710064318635 0.004166630641236273 -0.70710064318635
vn 1.2246361590645446e-16 0.0041666306533738665 -0.9999913195568242
vn -0.70710064318635 0.004166630641236273 -0.70710064318635
vn -0.9999913195568242 0.0041666306533738665 -1.8369543047712673e-16
vn -0.70710064318635 0.004166630641236273 0.70710064318635
vn -2.4492723181290893e-16 0.0041666306533738665 0.9999913195568242
vn 0 0.0041666306533738665 0.9999913195568242
vn 0.70710064318635 0.004166630641236273 0.70710064318635
vn 0.9999913195568242 0.0041666306533738665 6.123180795322723e-17
vn 0.70710064318635 0.004166630641236273 -0.70710064318635
vn 1.2246361590645446e-16 0.0041666306533738665 -0.9999913195568242
vn -0.70710064318635 0.004166630641236273 -0.70710064318635
vn -0.9999913195568242 0.0041666306533738665 -1.8369543047712673e-16
vn -0.70710064318635 0.004166630641236273 0.70710064318635
vn -2.4492723181290893e-16 0.0041666306533738665 0.9999913195568242
vn 0 1 0
vn 0 1 0
vn 0 1 0
vn 0 1 0
vn 0 1 0
vn 0 1 0
vn 0 1 0
vn 0 1 0
vn 0 1 0
vn 0 1 0
vn 0 1 0
vn 0 1 0
vn 0 1 0
vn 0 1 0
vn 0 1 0
vn 0 1 0
vn 0 1 0
vn 0 -1 0
vn 0 -1 0
vn 0 -1 0
vn 0 -1 0
vn 0 -1 0
vn 0 -1 0
vn 0 -1 0
vn 0 -1 0
vn 0 -1 0
vn 0 -1 0
vn 0 -1 0
vn 0 -1 0
vn 0 -1 0
vn 0 -1 0
vn 0 -1 0
vn 0 -1 0
vn 0 -1 0
f 1/1/1 10/10/10 2/2/2
f 10/10/10 11/11/11 2/2/2
f 2/2/2 11/11/11 3/3/3
f 11/11/11 12/12/12 3/3/3
f 3/3/3 12/12/12 4/4/4
f 12/12/12 13/13/13 4/4/4
f 4/4/4 13/13/13 5/5/5
f 13/13/13 14/14/14 5/5/5
f 5/5/5 14/14/14 6/6/6
f 14/14/14 15/15/15 6/6/6
f 6/6/6 15/15/15 7/7/7
f 15/15/15 16/16/16 7/7/7
f 7/7/7 16/16/16 8/8/8
f 16/16/16 17/17/17 8/8/8
f 8/8/8 17/17/17 9/9/9
f 17/17/17 18/18/18 9/9/9
f 27/27/27 28/28/28 19/19/19
f 28/28/28 29/29/29 20/20/20
f 29/29/29 30/30/30 21/21/21
f 30/30/30 31/31/31 22/22/22
f 31/31/31 32/32/32 23/23/23
f 32/32/32 33/33/33 24/24/24
f 33/33/33 34/34/34 25/25/25
f 34/34/34 35/35/35 26/26/26
f 45/45/45 44/44/44 36/36/36
f 46/46/46 45/45/45 37/37/37
f 47/47/47 46/46/46 38/38/38
f 48/48/48 47/47/47 39/39/39
f 49/49/49 48/48/48 40/40/40
f 50/50/50 49/49/49 41/41/41
f 51/51/51 50/50/50 42/42/42
f 52/52/52 51/51/51 43/43/43
o bracket
usemtl SURF_Metal_Fence
v -0.05000000163912777 2.3250000480562445 0.02500000037252903
v -0.05000000163912777 2.3250000480562445 -0.02500000037252903
v -0.05000000163912777 2.2750000473111864 0.02500000037252903
v -0.05000000163912777 2.2750000473111864 -0.02500000037252903
v -0.27000000044703487 2.3250000480562445 -0.02500000037252903
v -0.27000000044703487 2.3250000480562445 0.02500000037252903
v -0.27000000044703487 2.2750000473111864 -0.02500000037252903
v -0.27000000044703487 2.2750000473111864 0.02500000037252903
v -0.27000000044703487 2.3250000480562445 -0.02500000037252903
v -0.05000000163912777 2.3250000480562445 -0.02500000037252903
v -0.27000000044703487 2.3250000480562445 0.02500000037252903
v -0.05000000163912777 2.3250000480562445 0.02500000037252903
v -0.27000000044703487 2.2750000473111864 0.02500000037252903
v -0.05000000163912777 2.2750000473111864 0.02500000037252903
v -0.27000000044703487 2.2750000473111864 -0.02500000037252903
v -0.05000000163912777 2.2750000473111864 -0.02500000037252903
v -0.27000000044703487 2.3250000480562445 0.02500000037252903
v -0.05000000163912777 2.3250000480562445 0.02500000037252903
v -0.27000000044703487 2.2750000473111864 0.02500000037252903
v -0.05000000163912777 2.2750000473111864 0.02500000037252903
v -0.05000000163912777 2.3250000480562445 -0.02500000037252903
v -0.27000000044703487 2.3250000480562445 -0.02500000037252903
v -0.05000000163912777 2.2750000473111864 -0.02500000037252903
v -0.27000000044703487 2.2750000473111864 -0.02500000037252903
vt 0 1
vt 1 1
vt 0 0
vt 1 0
vt 0 1
vt 1 1
vt 0 0
vt 1 0
vt 0 1
vt 1 1
vt 0 0
vt 1 0
vt 0 1
vt 1 1
vt 0 0
vt 1 0
vt 0 1
vt 1 1
vt 0 0
vt 1 0
vt 0 1
vt 1 1
vt 0 0
vt 1 0
vn 1 0 0
vn 1 0 0
vn 1 0 0
vn 1 0 0
vn -1 0 0
vn -1 0 0
vn -1 0 0
vn -1 0 0
vn 0 1 0
vn 0 1 0
vn 0 1 0
vn 0 1 0
vn 0 -1 0
vn 0 -1 0
vn 0 -1 0
vn 0 -1 0
vn 0 0 1
vn 0 0 1
vn 0 0 1
vn 0 0 1
vn 0 0 -1
vn 0 0 -1
vn 0 0 -1
vn 0 0 -1
f 53/53/53 55/55/55 54/54/54
f 55/55/55 56/56/56 54/54/54
f 57/57/57 59/59/59 58/58/58
f 59/59/59 60/60/60 58/58/58
f 61/61/61 63/63/63 62/62/62
f 63/63/63 64/64/64 62/62/62
f 65/65/65 67/67/67 66/66/66
f 67/67/67 68/68/68 66/66/66
f 69/69/69 71/71/71 70/70/70
f 71/71/71 72/72/72 70/70/70
f 73/73/73 75/75/75 74/74/74
f 75/75/75 76/76/76 74/74/74
o mirror_back
usemtl SURF_Metal_Fence
v 0.029999998956918683 1.9600000441074368 0.029999999329447677
v 0.20000000074505803 2.0055514037609097 0.029999999329447687
v 0.32444864287972447 2.130000045895576 0.029999999329447715
v 0.37000000253319737 2.3000000476837155 0.029999999329447753
v 0.32444864287972447 2.470000049471855 0.02999999932944779
v 0.20000000074505803 2.5944486916065213 0.02999999932944782
v 0.029999998956918725 2.640000051259994 0.02999999932944783
v -0.14000000283122066 2.5944486916065213 0.02999999932944782
v -0.2644486449658871 2.470000049471855 0.02999999932944779
v -0.31000000461936 2.3000000476837155 0.029999999329447753
v -0.2644486449658871 2.130000045895576 0.029999999329447715
v -0.14000000283122066 2.0055514037609097 0.029999999329447687
v 0.0299999989569186 1.9600000441074368 0.029999999329447677
v 0.029999998956918683 1.9600000441074368 -0.02999999932944783
v 0.20000000074505803 2.0055514037609097 -0.02999999932944782
v 0.32444864287972447 2.130000045895576 -0.02999999932944779
v 0.37000000253319737 2.3000000476837155 -0.029999999329447753
v 0.32444864287972447 2.470000049471855 -0.029999999329447715
v 0.20000000074505803 2.5944486916065213 -0.029999999329447687
v 0.029999998956918725 2.640000051259994 -0.029999999329447677
v -0.14000000283122066 2.5944486916065213 -0.029999999329447687
v -0.2644486449658871 2.470000049471855 -0.029999999329447715
v -0.31000000461936 2.3000000476837155 -0.029999999329447753
v -0.2644486449658871 2.130000045895576 -0.02999999932944779
v -0.14000000283122066 2.0055514037609097 -0.02999999932944782
v 0.0299999989569186 1.9600000441074368 -0.02999999932944783
v 0.029999998956918683 2.3000000476837155 0.029999999329447753
v 0.029999998956918683 2.3000000476837155 0.029999999329447753
v 0.029999998956918683 2.3000000476837155 0.029999999329447753
v 0.029999998956918683 2.3000000476837155 0.029999999329447753
v 0.029999998956918683 2.3000000476837155 0.029999999329447753
v 0.029999998956918683 2.3000000476837155 0.029999999329447753
v 0.029999998956918683 2.3000000476837155 0.029999999329447753
v 0.029999998956918683 2.3000000476837155 0.029999999329447753
v 0.029999998956918683 2.3000000476837155 0.029999999329447753
v 0.029999998956918683 2.3000000476837155 0.029999999329447753
v 0.029999998956918683 2.3000000476837155 0.029999999329447753
v 0.029999998956918683 2.3000000476837155 0.029999999329447753
v 0.029999998956918683 1.9600000441074368 0.029999999329447677
v 0.20000000074505803 2.0055514037609097 0.029999999329447687
v 0.32444864287972447 2.130000045895576 0.029999999329447715
v 0.37000000253319737 2.3000000476837155 0.029999999329447753
v 0.32444864287972447 2.470000049471855 0.02999999932944779
v 0.20000000074505803 2.5944486916065213 0.02999999932944782
v 0.029999998956918725 2.640000051259994 0.02999999932944783
v -0.14000000283122066 2.5944486916065213 0.02999999932944782
v -0.2644486449658871 2.470000049471855 0.02999999932944779
v -0.31000000461936 2.3000000476837155 0.029999999329447753
v -0.2644486449658871 2.130000045895576 0.029999999329447715
v -0.14000000283122066 2.0055514037609097 0.029999999329447687
v 0.0299999989569186 1.9600000441074368 0.029999999329447677
v 0.029999998956918683 2.3000000476837155 -0.029999999329447753
v 0.029999998956918683 2.3000000476837155 -0.029999999329447753
v 0.029999998956918683 2.3000000476837155 -0.029999999329447753
v 0.029999998956918683 2.3000000476837155 -0.029999999329447753
v 0.029999998956918683 2.3000000476837155 -0.029999999329447753
v 0.029999998956918683 2.3000000476837155 -0.029999999329447753
v 0.029999998956918683 2.3000000476837155 -0.029999999329447753
v 0.029999998956918683 2.3000000476837155 -0.029999999329447753
v 0.029999998956918683 2.3000000476837155 -0.029999999329447753
v 0.029999998956918683 2.3000000476837155 -0.029999999329447753
v 0.029999998956918683 2.3000000476837155 -0.029999999329447753
v 0.029999998956918683 2.3000000476837155 -0.029999999329447753
v 0.029999998956918683 1.9600000441074368 -0.02999999932944783
v 0.20000000074505803 2.0055514037609097 -0.02999999932944782
v 0.32444864287972447 2.130000045895576 -0.02999999932944779
v 0.37000000253319737 2.3000000476837155 -0.029999999329447753
v 0.32444864287972447 2.470000049471855 -0.029999999329447715
v 0.20000000074505803 2.5944486916065213 -0.029999999329447687
v 0.029999998956918725 2.640000051259994 -0.029999999329447677
v -0.14000000283122066 2.5944486916065213 -0.029999999329447687
v -0.2644486449658871 2.470000049471855 -0.029999999329447715
v -0.31000000461936 2.3000000476837155 -0.029999999329447753
v -0.2644486449658871 2.130000045895576 -0.02999999932944779
v -0.14000000283122066 2.0055514037609097 -0.02999999932944782
v 0.0299999989569186 1.9600000441074368 -0.02999999932944783
vt 0 1
vt 0.0833333358168602 1
vt 0.1666666716337204 1
vt 0.25 1
vt 0.3333333432674408 1
vt 0.4166666567325592 1
vt 0.5 1
vt 0.5833333134651184 1
vt 0.6666666865348816 1
vt 0.75 1
vt 0.8333333134651184 1
vt 0.9166666865348816 1
vt 1 1
vt 0 0
vt 0.0833333358168602 0
vt 0.1666666716337204 0
vt 0.25 0
vt 0.3333333432674408 0
vt 0.4166666567325592 0
vt 0.5 0
vt 0.5833333134651184 0
vt 0.6666666865348816 0
vt 0.75 0
vt 0.8333333134651184 0
vt 0.9166666865348816 0
vt 1 0
vt 0.5 0.5
vt 0.5 0.5
vt 0.5 0.5
vt 0.5 0.5
vt 0.5 0.5
vt 0.5 0.5
vt 0.5 0.5
vt 0.5 0.5
vt 0.5 0.5
vt 0.5 0.5
vt 0.5 0.5
vt 0.5 0.5
vt 1 0.5
vt 0.9330127239227295 0.75
vt 0.75 0.9330127239227295
vt 0.5 1
vt 0.25 0.9330127239227295
vt 0.0669872984290123 0.75
vt 0 0.5
vt 0.0669872984290123 0.25
vt 0.25 0.0669872984290123
vt 0.5 0
vt 0.75 0.0669872984290123
vt 0.9330127239227295 0.25
vt 1 0.5
vt 0.5 0.5
vt 0.5 0.5
vt 0.5 0.5
vt 0.5 0.5
vt 0.5 0.5
vt 0.5 0.5
vt 0.5 0.5
vt 0.5 0.5
vt 0.5 0.5
vt 0.5 0.5
vt 0.5 0.5
vt 0.5 0.5
vt 1 0.5
vt 0.9330127239227295 0.25
vt 0.75 0.0669872984290123
vt 0.5 0
vt 0.25 0.0669872984290123
vt 0.0669872984290123 0.25
vt 0 0.5
vt 0.0669872984290123 0.75
vt 0.25 0.9330127239227295
vt 0.5 1
vt 0.75 0.9330127239227295
vt 0.9330127239227295 0.75
vt 1 0.5
vn 0 -1 -2.2204460492503126e-16
vn 0.500000006730587 -0.8660253998985323 -1.9229626777551184e-16
vn 0.8660253998985324 -0.5000000067305868 -1.110223039570061e-16
vn 1 -6.123234262925838e-17 -1.3596311327747827e-32
vn 0.8660253998985324 0.5000000067305868 1.110223039570061e-16
vn 0.500000006730587 0.8660253998985323 1.9229626777551184e-16
vn 1.224646852585168e-16 1 2.2204460492503126e-16
vn -0.500000006730587 0.8660253998985323 1.9229626777551184e-16
vn -0.8660253998985324 0.5000000067305868 1.110223039570061e-16
vn -1 1.8369701465288533e-16 4.0788931044507604e-32
vn -0.8660253998985324 -0.5000000067305868 -1.110223039570061e-16
vn -0.500000006730587 -0.8660253998985323 -1.9229626777551184e-16
vn -2.449293705170336e-16 -1 -2.2204460492503126e-16
vn 0 -1 -2.2204460492503126e-16
vn 0.500000006730587 -0.8660253998985323 -1.9229626777551184e-16
vn 0.8660253998985324 -0.5000000067305868 -1.110223039570061e-16
vn 1 -6.123234262925838e-17 -1.3596311327747827e-32
vn 0.8660253998985324 0.5000000067305868 1.110223039570061e-16
vn 0.500000006730587 0.8660253998985323 1.9229626777551184e-16
vn 1.224646852585168e-16 1 2.2204460492503126e-16
vn -0.500000006730587 0.8660253998985323 1.9229626777551184e-16
vn -0.8660253998985324 0.5000000067305868 1.110223039570061e-16
vn -1 1.8369701465288533e-16 4.0788931044507604e-32
vn -0.8660253998985324 -0.5000000067305868 -1.110223039570061e-16
vn -0.500000006730587 -0.8660253998985323 -1.9229626777551184e-16
vn -2.449293705170336e-16 -1 -2.2204460492503126e-16
vn 0 -2.2204460492503126e-16 1
vn 0 -2.2204460492503126e-16 1
vn 0 -2.2204460492503126e-16 1
vn 0 -2.2204460492503126e-16 1
vn 0 -2.2204460492503126e-16 1
vn 0 -2.2204460492503126e-16 1
vn 0 -2.2204460492503126e-16 1
vn 0 -2.2204460492503126e-16 1
vn 0 -2.2204460492503126e-16 1
vn 0 -2.2204460492503126e-16 1
vn 0 -2.2204460492503126e-16 1
vn 0 -2.2204460492503126e-16 1
vn 0 -2.2204460492503126e-16 1
vn 0 -2.2204460492503126e-16 1
vn 0 -2.2204460492503126e-16 1
vn 0 -2.2204460492503126e-16 1
vn 0 -2.2204460492503126e-16 1
vn 0 -2.2204460492503126e-16 1
vn 0 -2.2204460492503126e-16 1
vn 0 -2.2204460492503126e-16 1
vn 0 -2.2204460492503126e-16 1
vn 0 -2.2204460492503126e-16 1
vn 0 -2.2204460492503126e-16 1
vn 0 -2.2204460492503126e-16 1
vn 0 -2.2204460492503126e-16 1
vn 0 2.2204460492503126e-16 -1
vn 0 2.2204460492503126e-16 -1
vn 0 2.2204460492503126e-16 -1
vn 0 2.2204460492503126e-16 -1
vn 0 2.2204460492503126e-16 -1
vn 0 2.2204460492503126e-16 -1
vn 0 2.2204460492503126e-16 -1
vn 0 2.2204460492503126e-16 -1
vn 0 2.2204460492503126e-16 -1
vn 0 2.2204460492503126e-16 -1
vn 0 2.2204460492503126e-16 -1
vn 0 2.2204460492503126e-16 -1
vn 0 2.2204460492503126e-16 -1
vn 0 2.2204460492503126e-16 -1
vn 0 2.2204460492503126e-16 -1
vn 0 2.2204460492503126e-16 -1
vn 0 2.2204460492503126e-16 -1
vn 0 2.2204460492503126e-16 -1
vn 0 2.2204460492503126e-16 -1
vn 0 2.2204460492503126e-16 -1
vn 0 2.2204460492503126e-16 -1
vn 0 2.2204460492503126e-16 -1
vn 0 2.2204460492503126e-16 -1
vn 0 2.2204460492503126e-16 -1
vn 0 2.2204460492503126e-16 -1
f 77/77/77 90/90/90 78/78/78
f 90/90/90 91/91/91 78/78/78
f 78/78/78 91/91/91 79/79/79
f 91/91/91 92/92/92 79/79/79
f 79/79/79 92/92/92 80/80/80
f 92/92/92 93/93/93 80/80/80
f 80/80/80 93/93/93 81/81/81
f 93/93/93 94/94/94 81/81/81
f 81/81/81 94/94/94 82/82/82
f 94/94/94 95/95/95 82/82/82
f 82/82/82 95/95/95 83/83/83
f 95/95/95 96/96/96 83/83/83
f 83/83/83 96/96/96 84/84/84
f 96/96/96 97/97/97 84/84/84
f 84/84/84 97/97/97 85/85/85
f 97/97/97 98/98/98 85/85/85
f 85/85/85 98/98/98 86/86/86
f 98/98/98 99/99/99 86/86/86
f 86/86/86 99/99/99 87/87/87
f 99/99/99 100/100/100 87/87/87
f 87/87/87 100/100/100 88/88/88
f 100/100/100 101/101/101 88/88/88
f 88/88/88 101/101/101 89/89/89
f 101/101/101 102/102/102 89/89/89
f 115/115/115 116/116/116 103/103/103
f 116/116/116 117/117/117 104/104/104
f 117/117/117 118/118/118 105/105/105
f 118/118/118 119/119/119 106/106/106
f 119/119/119 120/120/120 107/107/107
f 120/120/120 121/121/121 108/108/108
f 121/121/121 122/122/122 109/109/109
f 122/122/122 123/123/123 110/110/110
f 123/123/123 124/124/124 111/111/111
f 124/124/124 125/125/125 112/112/112
f 125/125/125 126/126/126 113/113/113
f 126/126/126 127/127/127 114/114/114
f 141/141/141 140/140/140 128/128/128
f 142/142/142 141/141/141 129/129/129
f 143/143/143 142/142/142 130/130/130
f 144/144/144 143/143/143 131/131/131
f 145/145/145 144/144/144 132/132/132
f 146/146/146 145/145/145 133/133/133
f 147/147/147 146/146/146 134/134/134
f 148/148/148 147/147/147 135/135/135
f 149/149/149 148/148/148 136/136/136
f 150/150/150 149/149/149 137/137/137
f 151/151/151 150/150/150 138/138/138
f 152/152/152 151/151/151 139/139/139
o mirror_face
usemtl SURF_Metal_Fence
v 0.029999998956918683 2.0000000357627865 0.05499999977648252
v 0.18000000491738316 2.040192431211471 0.054999999776482525
v 0.28980761542916295 2.150000041723251 0.05499999977648255
v 0.33000001087784764 2.3000000476837155 0.05499999977648258
v 0.28980761542916295 2.45000005364418 0.054999999776482615
v 0.18000000491738316 2.5598076641559597 0.054999999776482636
v 0.02999999895691872 2.6000000596046444 0.05499999977648265
v -0.1200000070035458 2.5598076641559597 0.054999999776482636
v -0.22980761751532558 2.45000005364418 0.054999999776482615
v -0.27000001296401027 2.3000000476837155 0.05499999977648258
v -0.22980761751532558 2.150000041723251 0.05499999977648255
v -0.1200000070035458 2.040192431211471 0.054999999776482525
v 0.02999999895691861 2.0000000357627865 0.05499999977648252
v 0.029999998956918683 2.0000000357627865 0.03500000022351735
v 0.18000000491738316 2.040192431211471 0.03500000022351736
v 0.28980761542916295 2.150000041723251 0.03500000022351738
v 0.33000001087784764 2.3000000476837155 0.035000000223517416
v 0.28980761542916295 2.45000005364418 0.035000000223517444
v 0.18000000491738316 2.5598076641559597 0.03500000022351747
v 0.02999999895691872 2.6000000596046444 0.03500000022351748
v -0.1200000070035458 2.5598076641559597 0.03500000022351747
v -0.22980761751532558 2.45000005364418 0.035000000223517444
v -0.27000001296401027 2.3000000476837155 0.035000000223517416
v -0.22980761751532558 2.150000041723251 0.03500000022351738
v -0.1200000070035458 2.040192431211471 0.03500000022351736
v 0.02999999895691861 2.0000000357627865 0.03500000022351735
v 0.029999998956918683 2.3000000476837155 0.05499999977648258
v 0.029999998956918683 2.3000000476837155 0.05499999977648258
v 0.029999998956918683 2.3000000476837155 0.05499999977648258
v 0.029999998956918683 2.3000000476837155 0.05499999977648258
v 0.029999998956918683 2.3000000476837155 0.05499999977648258
v 0.029999998956918683 2.3000000476837155 0.05499999977648258
v 0.029999998956918683 2.3000000476837155 0.05499999977648258
v 0.029999998956918683 2.3000000476837155 0.05499999977648258
v 0.029999998956918683 2.3000000476837155 0.05499999977648258
v 0.029999998956918683 2.3000000476837155 0.05499999977648258
v 0.029999998956918683 2.3000000476837155 0.05499999977648258
v 0.029999998956918683 2.3000000476837155 0.05499999977648258
v 0.029999998956918683 2.0000000357627865 0.05499999977648252
v 0.18000000491738316 2.040192431211471 0.054999999776482525
v 0.28980761542916295 2.150000041723251 0.05499999977648255
v 0.33000001087784764 2.3000000476837155 0.05499999977648258
v 0.28980761542916295 2.45000005364418 0.054999999776482615
v 0.18000000491738316 2.5598076641559597 0.054999999776482636
v 0.02999999895691872 2.6000000596046444 0.05499999977648265
v -0.1200000070035458 2.5598076641559597 0.054999999776482636
v -0.22980761751532558 2.45000005364418 0.054999999776482615
v -0.27000001296401027 2.3000000476837155 0.05499999977648258
v -0.22980761751532558 2.150000041723251 0.05499999977648255
v -0.1200000070035458 2.040192431211471 0.054999999776482525
v 0.02999999895691861 2.0000000357627865 0.05499999977648252
v 0.029999998956918683 2.3000000476837155 0.035000000223517416
v 0.029999998956918683 2.3000000476837155 0.035000000223517416
v 0.029999998956918683 2.3000000476837155 0.035000000223517416
v 0.029999998956918683 2.3000000476837155 0.035000000223517416
v 0.029999998956918683 2.3000000476837155 0.035000000223517416
v 0.029999998956918683 2.3000000476837155 0.035000000223517416
v 0.029999998956918683 2.3000000476837155 0.035000000223517416
v 0.029999998956918683 2.3000000476837155 0.035000000223517416
v 0.029999998956918683 2.3000000476837155 0.035000000223517416
v 0.029999998956918683 2.3000000476837155 0.035000000223517416
v 0.029999998956918683 2.3000000476837155 0.035000000223517416
v 0.029999998956918683 2.3000000476837155 0.035000000223517416
v 0.029999998956918683 2.0000000357627865 0.03500000022351735
v 0.18000000491738316 2.040192431211471 0.03500000022351736
v 0.28980761542916295 2.150000041723251 0.03500000022351738
v 0.33000001087784764 2.3000000476837155 0.035000000223517416
v 0.28980761542916295 2.45000005364418 0.035000000223517444
v 0.18000000491738316 2.5598076641559597 0.03500000022351747
v 0.02999999895691872 2.6000000596046444 0.03500000022351748
v -0.1200000070035458 2.5598076641559597 0.03500000022351747
v -0.22980761751532558 2.45000005364418 0.035000000223517444
v -0.27000001296401027 2.3000000476837155 0.035000000223517416
v -0.22980761751532558 2.150000041723251 0.03500000022351738
v -0.1200000070035458 2.040192431211471 0.03500000022351736
v 0.02999999895691861 2.0000000357627865 0.03500000022351735
vt 0 1
vt 0.0833333358168602 1
vt 0.1666666716337204 1
vt 0.25 1
vt 0.3333333432674408 1
vt 0.4166666567325592 1
vt 0.5 1
vt 0.5833333134651184 1
vt 0.6666666865348816 1
vt 0.75 1
vt 0.8333333134651184 1
vt 0.9166666865348816 1
vt 1 1
vt 0 0
vt 0.0833333358168602 0
vt 0.1666666716337204 0
vt 0.25 0
vt 0.3333333432674408 0
vt 0.4166666567325592 0
vt 0.5 0
vt 0.5833333134651184 0
vt 0.6666666865348816 0
vt 0.75 0
vt 0.8333333134651184 0
vt 0.9166666865348816 0
vt 1 0
vt 0.5 0.5
vt 0.5 0.5
vt 0.5 0.5
vt 0.5 0.5
vt 0.5 0.5
vt 0.5 0.5
vt 0.5 0.5
vt 0.5 0.5
vt 0.5 0.5
vt 0.5 0.5
vt 0.5 0.5
vt 0.5 0.5
vt 1 0.5
vt 0.9330127239227295 0.75
vt 0.75 0.9330127239227295
vt 0.5 1
vt 0.25 0.9330127239227295
vt 0.0669872984290123 0.75
vt 0 0.5
vt 0.0669872984290123 0.25
vt 0.25 0.0669872984290123
vt 0.5 0
vt 0.75 0.0669872984290123
vt 0.9330127239227295 0.25
vt 1 0.5
vt 0.5 0.5
vt 0.5 0.5
vt 0.5 0.5
vt 0.5 0.5
vt 0.5 0.5
vt 0.5 0.5
vt 0.5 0.5
vt 0.5 0.5
vt 0.5 0.5
vt 0.5 0.5
vt 0.5 0.5
vt 0.5 0.5
vt 1 0.5
vt 0.9330127239227295 0.25
vt 0.75 0.0669872984290123
vt 0.5 0
vt 0.25 0.0669872984290123
vt 0.0669872984290123 0.25
vt 0 0.5
vt 0.0669872984290123 0.75
vt 0.25 0.9330127239227295
vt 0.5 1
vt 0.75 0.9330127239227295
vt 0.9330127239227295 0.75
vt 1 0.5
vn 0 -1 -2.2204460492503126e-16
vn 0.500000006730587 -0.8660253998985323 -1.9229626777551184e-16
vn 0.8660253998985324 -0.5000000067305868 -1.110223039570061e-16
vn 1 -6.123234262925838e-17 -1.3596311327747827e-32
vn 0.8660253998985324 0.5000000067305868 1.110223039570061e-16
vn 0.500000006730587 0.8660253998985323 1.9229626777551184e-16
vn 1.224646852585168e-16 1 2.2204460492503126e-16
vn -0.500000006730587 0.8660253998985323 1.9229626777551184e-16
vn -0.8660253998985324 0.5000000067305868 1.110223039570061e-16
vn -1 1.8369701465288533e-16 4.0788931044507604e-32
vn -0.8660253998985324 -0.5000000067305868 -1.110223039570061e-16
vn -0.500000006730587 -0.8660253998985323 -1.9229626777551184e-16
vn -2.449293705170336e-16 -1 -2.2204460492503126e-16
vn 0 -1 -2.2204460492503126e-16
vn 0.500000006730587 -0.8660253998985323 -1.9229626777551184e-16
vn 0.8660253998985324 -0.5000000067305868 -1.110223039570061e-16
vn 1 -6.123234262925838e-17 -1.3596311327747827e-32
vn 0.8660253998985324 0.5000000067305868 1.110223039570061e-16
vn 0.500000006730587 0.8660253998985323 1.9229626777551184e-16
vn 1.224646852585168e-16 1 2.2204460492503126e-16
vn -0.500000006730587 0.8660253998985323 1.9229626777551184e-16
vn -0.8660253998985324 0.5000000067305868 1.110223039570061e-16
vn -1 1.8369701465288533e-16 4.0788931044507604e-32
vn -0.8660253998985324 -0.5000000067305868 -1.110223039570061e-16
vn -0.500000006730587 -0.8660253998985323 -1.9229626777551184e-16
vn -2.449293705170336e-16 -1 -2.2204460492503126e-16
vn 0 -2.2204460492503126e-16 1
vn 0 -2.2204460492503126e-16 1
vn 0 -2.2204460492503126e-16 1
vn 0 -2.2204460492503126e-16 1
vn 0 -2.2204460492503126e-16 1
vn 0 -2.2204460492503126e-16 1
vn 0 -2.2204460492503126e-16 1
vn 0 -2.2204460492503126e-16 1
vn 0 -2.2204460492503126e-16 1
vn 0 -2.2204460492503126e-16 1
vn 0 -2.2204460492503126e-16 1
vn 0 -2.2204460492503126e-16 1
vn 0 -2.2204460492503126e-16 1
vn 0 -2.2204460492503126e-16 1
vn 0 -2.2204460492503126e-16 1
vn 0 -2.2204460492503126e-16 1
vn 0 -2.2204460492503126e-16 1
vn 0 -2.2204460492503126e-16 1
vn 0 -2.2204460492503126e-16 1
vn 0 -2.2204460492503126e-16 1
vn 0 -2.2204460492503126e-16 1
vn 0 -2.2204460492503126e-16 1
vn 0 -2.2204460492503126e-16 1
vn 0 -2.2204460492503126e-16 1
vn 0 -2.2204460492503126e-16 1
vn 0 2.2204460492503126e-16 -1
vn 0 2.2204460492503126e-16 -1
vn 0 2.2204460492503126e-16 -1
vn 0 2.2204460492503126e-16 -1
vn 0 2.2204460492503126e-16 -1
vn 0 2.2204460492503126e-16 -1
vn 0 2.2204460492503126e-16 -1
vn 0 2.2204460492503126e-16 -1
vn 0 2.2204460492503126e-16 -1
vn 0 2.2204460492503126e-16 -1
vn 0 2.2204460492503126e-16 -1
vn 0 2.2204460492503126e-16 -1
vn 0 2.2204460492503126e-16 -1
vn 0 2.2204460492503126e-16 -1
vn 0 2.2204460492503126e-16 -1
vn 0 2.2204460492503126e-16 -1
vn 0 2.2204460492503126e-16 -1
vn 0 2.2204460492503126e-16 -1
vn 0 2.2204460492503126e-16 -1
vn 0 2.2204460492503126e-16 -1
vn 0 2.2204460492503126e-16 -1
vn 0 2.2204460492503126e-16 -1
vn 0 2.2204460492503126e-16 -1
vn 0 2.2204460492503126e-16 -1
vn 0 2.2204460492503126e-16 -1
f 153/153/153 166/166/166 154/154/154
f 166/166/166 167/167/167 154/154/154
f 154/154/154 167/167/167 155/155/155
f 167/167/167 168/168/168 155/155/155
f 155/155/155 168/168/168 156/156/156
f 168/168/168 169/169/169 156/156/156
f 156/156/156 169/169/169 157/157/157
f 169/169/169 170/170/170 157/157/157
f 157/157/157 170/170/170 158/158/158
f 170/170/170 171/171/171 158/158/158
f 158/158/158 171/171/171 159/159/159
f 171/171/171 172/172/172 159/159/159
f 159/159/159 172/172/172 160/160/160
f 172/172/172 173/173/173 160/160/160
f 160/160/160 173/173/173 161/161/161
f 173/173/173 174/174/174 161/161/161
f 161/161/161 174/174/174 162/162/162
f 174/174/174 175/175/175 162/162/162
f 162/162/162 175/175/175 163/163/163
f 175/175/175 176/176/176 163/163/163
f 163/163/163 176/176/176 164/164/164
f 176/176/176 177/177/177 164/164/164
f 164/164/164 177/177/177 165/165/165
f 177/177/177 178/178/178 165/165/165
f 191/191/191 192/192/192 179/179/179
f 192/192/192 193/193/193 180/180/180
f 193/193/193 194/194/194 181/181/181
f 194/194/194 195/195/195 182/182/182
f 195/195/195 196/196/196 183/183/183
f 196/196/196 197/197/197 184/184/184
f 197/197/197 198/198/198 185/185/185
f 198/198/198 199/199/199 186/186/186
f 199/199/199 200/200/200 187/187/187
f 200/200/200 201/201/201 188/188/188
f 201/201/201 202/202/202 189/189/189
f 202/202/202 203/203/203 190/190/190
f 217/217/217 216/216/216 204/204/204
f 218/218/218 217/217/217 205/205/205
f 219/219/219 218/218/218 206/206/206
f 220/220/220 219/219/219 207/207/207
f 221/221/221 220/220/220 208/208/208
f 222/222/222 221/221/221 209/209/209
f 223/223/223 222/222/222 210/210/210
f 224/224/224 223/223/223 211/211/211
f 225/225/225 224/224/224 212/212/212
f 226/226/226 225/225/225 213/213/213
f 227/227/227 226/226/226 214/214/214
f 228/228/228 227/227/227 215/215/215
o foot_plate
usemtl SURF_Concrete_Struct
v -0.1699999995529652 0.050000048056244896 0.10000000149011612
v -0.1699999995529652 0.050000048056244896 -0.10000000149011612
v -0.1699999995529652 4.731118683626301e-8 0.10000000149011612
v -0.1699999995529652 4.731118683626301e-8 -0.10000000149011612
v -0.3700000025331974 0.050000048056244896 -0.10000000149011612
v -0.3700000025331974 0.050000048056244896 0.10000000149011612
v -0.3700000025331974 4.731118683626301e-8 -0.10000000149011612
v -0.3700000025331974 4.731118683626301e-8 0.10000000149011612
v -0.3700000025331974 0.050000048056244896 -0.10000000149011612
v -0.1699999995529652 0.050000048056244896 -0.10000000149011612
v -0.3700000025331974 0.050000048056244896 0.10000000149011612
v -0.1699999995529652 0.050000048056244896 0.10000000149011612
v -0.3700000025331974 4.731118683626301e-8 0.10000000149011612
v -0.1699999995529652 4.731118683626301e-8 0.10000000149011612
v -0.3700000025331974 4.731118683626301e-8 -0.10000000149011612
v -0.1699999995529652 4.731118683626301e-8 -0.10000000149011612
v -0.3700000025331974 0.050000048056244896 0.10000000149011612
v -0.1699999995529652 0.050000048056244896 0.10000000149011612
v -0.3700000025331974 4.731118683626301e-8 0.10000000149011612
v -0.1699999995529652 4.731118683626301e-8 0.10000000149011612
v -0.1699999995529652 0.050000048056244896 -0.10000000149011612
v -0.3700000025331974 0.050000048056244896 -0.10000000149011612
v -0.1699999995529652 4.731118683626301e-8 -0.10000000149011612
v -0.3700000025331974 4.731118683626301e-8 -0.10000000149011612
vt 0 1
vt 1 1
vt 0 0
vt 1 0
vt 0 1
vt 1 1
vt 0 0
vt 1 0
vt 0 1
vt 1 1
vt 0 0
vt 1 0
vt 0 1
vt 1 1
vt 0 0
vt 1 0
vt 0 1
vt 1 1
vt 0 0
vt 1 0
vt 0 1
vt 1 1
vt 0 0
vt 1 0
vn 1 0 0
vn 1 0 0
vn 1 0 0
vn 1 0 0
vn -1 0 0
vn -1 0 0
vn -1 0 0
vn -1 0 0
vn 0 1 0
vn 0 1 0
vn 0 1 0
vn 0 1 0
vn 0 -1 0
vn 0 -1 0
vn 0 -1 0
vn 0 -1 0
vn 0 0 1
vn 0 0 1
vn 0 0 1
vn 0 0 1
vn 0 0 -1
vn 0 0 -1
vn 0 0 -1
vn 0 0 -1
f 229/229/229 231/231/231 230/230/230
f 231/231/231 232/232/232 230/230/230
f 233/233/233 235/235/235 234/234/234
f 235/235/235 236/236/236 234/234/234
f 237/237/237 239/239/239 238/238/238
f 239/239/239 240/240/240 238/238/238
f 241/241/241 243/243/243 242/242/242
f 243/243/243 244/244/244 242/242/242
f 245/245/245 247/247/247 246/246/246
f 247/247/247 248/248/248 246/246/246
f 249/249/249 251/251/251 250/250/250
f 251/251/251 252/252/252 250/250/250
