# PRP_P1_Crate_Stack_A — Crate stack
# SC_P1_WALK · group B
# bounds 0.63 × 0.44 × 0.66 m · 48 tris · UV island 48 × 40 px
# 1 unit = 1 m · pivot at floor contact, X/Z centred
mtllib PRP_P1_Crate_Stack_A.mtl
o crate_lower
usemtl SURF_Storefront_Wood
v 0.28741544817575343 0.3400000035762787 0.17917409479250065
v 0.28741544817575343 0.3400000035762787 -0.22082591116796382
v 0.28741544817575343 0 0.17917409479250065
v 0.28741544817575343 0 -0.22082591116796382
v -0.3125845756661045 0.3400000035762787 -0.22082591116796382
v -0.3125845756661045 0.3400000035762787 0.17917409479250065
v -0.3125845756661045 0 -0.22082591116796382
v -0.3125845756661045 0 0.17917409479250065
v -0.3125845756661045 0.3400000035762787 -0.22082591116796382
v 0.28741544817575343 0.3400000035762787 -0.22082591116796382
v -0.3125845756661045 0.3400000035762787 0.17917409479250065
v 0.28741544817575343 0.3400000035762787 0.17917409479250065
v -0.3125845756661045 0 0.17917409479250065
v 0.28741544817575343 0 0.17917409479250065
v -0.3125845756661045 0 -0.22082591116796382
v 0.28741544817575343 0 -0.22082591116796382
v -0.3125845756661045 0.3400000035762787 0.17917409479250065
v 0.28741544817575343 0.3400000035762787 0.17917409479250065
v -0.3125845756661045 0 0.17917409479250065
v 0.28741544817575343 0 0.17917409479250065
v 0.28741544817575343 0.3400000035762787 -0.22082591116796382
v -0.3125845756661045 0.3400000035762787 -0.22082591116796382
v 0.28741544817575343 0 -0.22082591116796382
v -0.3125845756661045 0 -0.22082591116796382
vt 0 1
vt 1 1
vt 0 0
vt 1 0
vt 0 1
vt 1 1
vt 0 0
vt 1 0
vt 0 1
vt 1 1
vt 0 0
vt 1 0
vt 0 1
vt 1 1
vt 0 0
vt 1 0
vt 0 1
vt 1 1
vt 0 0
vt 1 0
vt 0 1
vt 1 1
vt 0 0
vt 1 0
vn 1 0 0
vn 1 0 0
vn 1 0 0
vn 1 0 0
vn -1 0 0
vn -1 0 0
vn -1 0 0
vn -1 0 0
vn 0 1 0
vn 0 1 0
vn 0 1 0
vn 0 1 0
vn 0 -1 0
vn 0 -1 0
vn 0 -1 0
vn 0 -1 0
vn 0 0 1
vn 0 0 1
vn 0 0 1
vn 0 0 1
vn 0 0 -1
vn 0 0 -1
vn 0 0 -1
vn 0 0 -1
f 1/1/1 3/3/3 2/2/2
f 3/3/3 4/4/4 2/2/2
f 5/5/5 7/7/7 6/6/6
f 7/7/7 8/8/8 6/6/6
f 9/9/9 11/11/11 10/10/10
f 11/11/11 12/12/12 10/10/10
f 13/13/13 15/15/15 14/14/14
f 15/15/15 16/16/16 14/14/14
f 17/17/17 19/19/19 18/18/18
f 19/19/19 20/20/20 18/18/18
f 21/21/21 23/23/23 22/22/22
f 23/23/23 24/24/24 22/22/22
o crate_upper
usemtl SURF_Storefront_Wood
v 0.31258457566610454 0.6599999982118606 0.14992283409428073
v 0.2682910583983721 0.6599999982118606 -0.2174163659057303
v 0.31258457566610454 0.340000005364418 0.14992283409428073
v 0.2682910583983721 0.340000005364418 -0.2174163659057303
v -0.27775370315645553 0.6599999982118606 -0.15157465046974392
v -0.2334601858887231 0.6599999982118606 0.2157645495302671
v -0.27775370315645553 0.340000005364418 -0.15157465046974392
v -0.2334601858887231 0.340000005364418 0.2157645495302671
v -0.27775370315645553 0.6599999982118606 -0.15157465046974392
v 0.2682910583983721 0.6599999982118606 -0.2174163659057303
v -0.2334601858887231 0.6599999982118606 0.2157645495302671
v 0.31258457566610454 0.6599999982118606 0.14992283409428073
v -0.2334601858887231 0.340000005364418 0.2157645495302671
v 0.31258457566610454 0.340000005364418 0.14992283409428073
v -0.27775370315645553 0.340000005364418 -0.15157465046974392
v 0.2682910583983721 0.340000005364418 -0.2174163659057303
v -0.2334601858887231 0.6599999982118606 0.2157645495302671
v 0.31258457566610454 0.6599999982118606 0.14992283409428073
v -0.2334601858887231 0.340000005364418 0.2157645495302671
v 0.31258457566610454 0.340000005364418 0.14992283409428073
v 0.2682910583983721 0.6599999982118606 -0.2174163659057303
v -0.27775370315645553 0.6599999982118606 -0.15157465046974392
v 0.2682910583983721 0.340000005364418 -0.2174163659057303
v -0.27775370315645553 0.340000005364418 -0.15157465046974392
vt 0 1
vt 1 1
vt 0 0
vt 1 0
vt 0 1
vt 1 1
vt 0 0
vt 1 0
vt 0 1
vt 1 1
vt 0 0
vt 1 0
vt 0 1
vt 1 1
vt 0 0
vt 1 0
vt 0 1
vt 1 1
vt 0 0
vt 1 0
vt 0 1
vt 1 1
vt 0 0
vt 1 0
vn 0.9928086358538663 0 -0.11971220728891936
vn 0.9928086358538663 0 -0.11971220728891936
vn 0.9928086358538663 0 -0.11971220728891936
vn 0.9928086358538663 0 -0.11971220728891936
vn -0.9928086358538663 0 0.11971220728891936
vn -0.9928086358538663 0 0.11971220728891936
vn -0.9928086358538663 0 0.11971220728891936
vn -0.9928086358538663 0 0.11971220728891936
vn 0 1 0
vn 0 1 0
vn 0 1 0
vn 0 1 0
vn 0 -1 0
vn 0 -1 0
vn 0 -1 0
vn 0 -1 0
vn 0.11971220728891936 0 0.9928086358538663
vn 0.11971220728891936 0 0.9928086358538663
vn 0.11971220728891936 0 0.9928086358538663
vn 0.11971220728891936 0 0.9928086358538663
vn -0.11971220728891936 0 -0.9928086358538663
vn -0.11971220728891936 0 -0.9928086358538663
vn -0.11971220728891936 0 -0.9928086358538663
vn -0.11971220728891936 0 -0.9928086358538663
f 25/25/25 27/27/27 26/26/26
f 27/27/27 28/28/28 26/26/26
f 29/29/29 31/31/31 30/30/30
f 31/31/31 32/32/32 30/30/30
f 33/33/33 35/35/35 34/34/34
f 35/35/35 36/36/36 34/34/34
f 37/37/37 39/39/39 38/38/38
f 39/39/39 40/40/40 38/38/38
f 41/41/41 43/43/43 42/42/42
f 43/43/43 44/44/44 42/42/42
f 45/45/45 47/47/47 46/46/46
f 47/47/47 48/48/48 46/46/46
o slat_gap_l
usemtl SURF_Wood_Dark
v 0.2774154279101742 0.25500000145286317 0.189174091588751
v 0.2774154279101742 0.25500000145286317 0.16917409203578584
v 0.2774154279101742 0.22500000212341545 0.189174091588751
v 0.2774154279101742 0.22500000212341545 0.16917409203578584
v -0.30258455540052526 0.25500000145286317 0.16917409203578584
v -0.30258455540052526 0.25500000145286317 0.189174091588751
v -0.30258455540052526 0.22500000212341545 0.16917409203578584
v -0.30258455540052526 0.22500000212341545 0.189174091588751
v -0.30258455540052526 0.25500000145286317 0.16917409203578584
v 0.2774154279101742 0.25500000145286317 0.16917409203578584
v -0.30258455540052526 0.25500000145286317 0.189174091588751
v 0.2774154279101742 0.25500000145286317 0.189174091588751
v -0.30258455540052526 0.22500000212341545 0.189174091588751
v 0.2774154279101742 0.22500000212341545 0.189174091588751
v -0.30258455540052526 0.22500000212341545 0.16917409203578584
v 0.2774154279101742 0.22500000212341545 0.16917409203578584
v -0.30258455540052526 0.25500000145286317 0.189174091588751
v 0.2774154279101742 0.25500000145286317 0.189174091588751
v -0.30258455540052526 0.22500000212341545 0.189174091588751
v 0.2774154279101742 0.22500000212341545 0.189174091588751
v 0.2774154279101742 0.25500000145286317 0.16917409203578584
v -0.30258455540052526 0.25500000145286317 0.16917409203578584
v 0.2774154279101742 0.22500000212341545 0.16917409203578584
v -0.30258455540052526 0.22500000212341545 0.16917409203578584
vt 0 1
vt 1 1
vt 0 0
vt 1 0
vt 0 1
vt 1 1
vt 0 0
vt 1 0
vt 0 1
vt 1 1
vt 0 0
vt 1 0
vt 0 1
vt 1 1
vt 0 0
vt 1 0
vt 0 1
vt 1 1
vt 0 0
vt 1 0
vt 0 1
vt 1 1
vt 0 0
vt 1 0
vn 1 0 0
vn 1 0 0
vn 1 0 0
vn 1 0 0
vn -1 0 0
vn -1 0 0
vn -1 0 0
vn -1 0 0
vn 0 1 0
vn 0 1 0
vn 0 1 0
vn 0 1 0
vn 0 -1 0
vn 0 -1 0
vn 0 -1 0
vn 0 -1 0
vn 0 0 1
vn 0 0 1
vn 0 0 1
vn 0 0 1
vn 0 0 -1
vn 0 0 -1
vn 0 0 -1
vn 0 0 -1
f 49/49/49 51/51/51 50/50/50
f 51/51/51 52/52/52 50/50/50
f 53/53/53 55/55/55 54/54/54
f 55/55/55 56/56/56 54/54/54
f 57/57/57 59/59/59 58/58/58
f 59/59/59 60/60/60 58/58/58
f 61/61/61 63/63/63 62/62/62
f 63/63/63 64/64/64 62/62/62
f 65/65/65 67/67/67 66/66/66
f 67/67/67 68/68/68 66/66/66
f 69/69/69 71/71/71 70/70/70
f 71/71/71 72/72/72 70/70/70
o slat_gap_u
usemtl SURF_Wood_Dark
v 0.28170683259998897 0.5750000014528632 0.1573784447298303
v 0.2793125885077261 0.5750000014528632 0.137522272456573
v 0.28170683259998897 0.5450000021234155 0.1573784447298303
v 0.2793125885077261 0.5450000021234155 0.137522272456573
v -0.24687596009034005 0.5750000014528632 0.20096973889470654
v -0.2444817159980772 0.5750000014528632 0.22082591116796385
v -0.24687596009034005 0.5450000021234155 0.20096973889470654
v -0.2444817159980772 0.5450000021234155 0.22082591116796385
v -0.24687596009034005 0.5750000014528632 0.20096973889470654
v 0.2793125885077261 0.5750000014528632 0.137522272456573
v -0.2444817159980772 0.5750000014528632 0.22082591116796385
v 0.28170683259998897 0.5750000014528632 0.1573784447298303
v -0.2444817159980772 0.5450000021234155 0.22082591116796385
v 0.28170683259998897 0.5450000021234155 0.1573784447298303
v -0.24687596009034005 0.5450000021234155 0.20096973889470654
v 0.2793125885077261 0.5450000021234155 0.137522272456573
v -0.2444817159980772 0.5750000014528632 0.22082591116796385
v 0.28170683259998897 0.5750000014528632 0.1573784447298303
v -0.2444817159980772 0.5450000021234155 0.22082591116796385
v 0.28170683259998897 0.5450000021234155 0.1573784447298303
v 0.2793125885077261 0.5750000014528632 0.137522272456573
v -0.24687596009034005 0.5750000014528632 0.20096973889470654
v 0.2793125885077261 0.5450000021234155 0.137522272456573
v -0.24687596009034005 0.5450000021234155 0.20096973889470654
vt 0 1
vt 1 1
vt 0 0
vt 1 0
vt 0 1
vt 1 1
vt 0 0
vt 1 0
vt 0 1
vt 1 1
vt 0 0
vt 1 0
vt 0 1
vt 1 1
vt 0 0
vt 1 0
vt 0 1
vt 1 1
vt 0 0
vt 1 0
vt 0 1
vt 1 1
vt 0 0
vt 1 0
vn 0.9928086358538663 0 -0.11971220728891936
vn 0.9928086358538663 0 -0.11971220728891936
vn 0.9928086358538663 0 -0.11971220728891936
vn 0.9928086358538663 0 -0.11971220728891936
vn -0.9928086358538663 0 0.11971220728891936
vn -0.9928086358538663 0 0.11971220728891936
vn -0.9928086358538663 0 0.11971220728891936
vn -0.9928086358538663 0 0.11971220728891936
vn 0 1 0
vn 0 1 0
vn 0 1 0
vn 0 1 0
vn 0 -1 0
vn 0 -1 0
vn 0 -1 0
vn 0 -1 0
vn 0.11971220728891936 0 0.9928086358538663
vn 0.11971220728891936 0 0.9928086358538663
vn 0.11971220728891936 0 0.9928086358538663
vn 0.11971220728891936 0 0.9928086358538663
vn -0.11971220728891936 0 -0.9928086358538663
vn -0.11971220728891936 0 -0.9928086358538663
vn -0.11971220728891936 0 -0.9928086358538663
vn -0.11971220728891936 0 -0.9928086358538663
f 73/73/73 75/75/75 74/74/74
f 75/75/75 76/76/76 74/74/74
f 77/77/77 79/79/79 78/78/78
f 79/79/79 80/80/80 78/78/78
f 81/81/81 83/83/83 82/82/82
f 83/83/83 84/84/84 82/82/82
f 85/85/85 87/87/87 86/86/86
f 87/87/87 88/88/88 86/86/86
f 89/89/89 91/91/91 90/90/90
f 91/91/91 92/92/92 90/90/90
f 93/93/93 95/95/95 94/94/94
f 95/95/95 96/96/96 94/94/94
