# PRP_P1_Mailbox_A — Mailbox
# SC_P1_WALK · group B
# bounds 0.47 × 0.38 × 1.36 m · 72 tris · UV island 48 × 32 px
# 1 unit = 1 m · pivot at floor contact, X/Z centred
mtllib PRP_P1_Mailbox_A.mtl
o post
usemtl SURF_Metal_Fence
v 0.03999999910593033 0.8999999874085188 0.037500000409781936
v 0.03999999910593033 0.8999999874085188 -0.04249999780207872
v 0.03999999910593033 1.125037674132301e-8 0.037500000409781936
v 0.03999999910593033 1.125037674132301e-8 -0.04249999780207872
v -0.03999999910593033 0.8999999874085188 -0.04249999780207872
v -0.03999999910593033 0.8999999874085188 0.037500000409781936
v -0.03999999910593033 1.125037674132301e-8 -0.04249999780207872
v -0.03999999910593033 1.125037674132301e-8 0.037500000409781936
v -0.03999999910593033 0.8999999874085188 -0.04249999780207872
v 0.03999999910593033 0.8999999874085188 -0.04249999780207872
v -0.03999999910593033 0.8999999874085188 0.037500000409781936
v 0.03999999910593033 0.8999999874085188 0.037500000409781936
v -0.03999999910593033 1.125037674132301e-8 0.037500000409781936
v 0.03999999910593033 1.125037674132301e-8 0.037500000409781936
v -0.03999999910593033 1.125037674132301e-8 -0.04249999780207872
v 0.03999999910593033 1.125037674132301e-8 -0.04249999780207872
v -0.03999999910593033 0.8999999874085188 0.037500000409781936
v 0.03999999910593033 0.8999999874085188 0.037500000409781936
v -0.03999999910593033 1.125037674132301e-8 0.037500000409781936
v 0.03999999910593033 1.125037674132301e-8 0.037500000409781936
v 0.03999999910593033 0.8999999874085188 -0.04249999780207872
v -0.03999999910593033 0.8999999874085188 -0.04249999780207872
v 0.03999999910593033 1.125037674132301e-8 -0.04249999780207872
v -0.03999999910593033 1.125037674132301e-8 -0.04249999780207872
vt 0 1
vt 1 1
vt 0 0
vt 1 0
vt 0 1
vt 1 1
vt 0 0
vt 1 0
vt 0 1
vt 1 1
vt 0 0
vt 1 0
vt 0 1
vt 1 1
vt 0 0
vt 1 0
vt 0 1
vt 1 1
vt 0 0
vt 1 0
vt 0 1
vt 1 1
vt 0 0
vt 1 0
vn 1 0 0
vn 1 0 0
vn 1 0 0
vn 1 0 0
vn -1 0 0
vn -1 0 0
vn -1 0 0
vn -1 0 0
vn 0 1 0
vn 0 1 0
vn 0 1 0
vn 0 1 0
vn 0 -1 0
vn 0 -1 0
vn 0 -1 0
vn 0 -1 0
vn 0 0 1
vn 0 0 1
vn 0 0 1
vn 0 0 1
vn 0 0 -1
vn 0 0 -1
vn 0 0 -1
vn 0 0 -1
f 1/1/1 3/3/3 2/2/2
f 3/3/3 4/4/4 2/2/2
f 5/5/5 7/7/7 6/6/6
f 7/7/7 8/8/8 6/6/6
f 9/9/9 11/11/11 10/10/10
f 11/11/11 12/12/12 10/10/10
f 13/13/13 15/15/15 14/14/14
f 15/15/15 16/16/16 14/14/14
f 17/17/17 19/19/19 18/18/18
f 19/19/19 20/20/20 18/18/18
f 21/21/21 23/23/23 22/22/22
f 23/23/23 24/24/24 22/22/22
o body
usemtl SURF_Metal_Fence
v 0.22499999403953552 1.30000000230968 0.17249999832361937
v 0.22499999403953552 1.30000000230968 -0.17749999571591615
v 0.22499999403953552 0.8999999963492156 0.17249999832361937
v 0.22499999403953552 0.8999999963492156 -0.17749999571591615
v -0.22499999403953552 1.30000000230968 -0.17749999571591615
v -0.22499999403953552 1.30000000230968 0.17249999832361937
v -0.22499999403953552 0.8999999963492156 -0.17749999571591615
v -0.22499999403953552 0.8999999963492156 0.17249999832361937
v -0.22499999403953552 1.30000000230968 -0.17749999571591615
v 0.22499999403953552 1.30000000230968 -0.17749999571591615
v -0.22499999403953552 1.30000000230968 0.17249999832361937
v 0.22499999403953552 1.30000000230968 0.17249999832361937
v -0.22499999403953552 0.8999999963492156 0.17249999832361937
v 0.22499999403953552 0.8999999963492156 0.17249999832361937
v -0.22499999403953552 0.8999999963492156 -0.17749999571591615
v 0.22499999403953552 0.8999999963492156 -0.17749999571591615
v -0.22499999403953552 1.30000000230968 0.17249999832361937
v 0.22499999403953552 1.30000000230968 0.17249999832361937
v -0.22499999403953552 0.8999999963492156 0.17249999832361937
v 0.22499999403953552 0.8999999963492156 0.17249999832361937
v 0.22499999403953552 1.30000000230968 -0.17749999571591615
v -0.22499999403953552 1.30000000230968 -0.17749999571591615
v 0.22499999403953552 0.8999999963492156 -0.17749999571591615
v -0.22499999403953552 0.8999999963492156 -0.17749999571591615
vt 0 1
vt 1 1
vt 0 0
vt 1 0
vt 0 1
vt 1 1
vt 0 0
vt 1 0
vt 0 1
vt 1 1
vt 0 0
vt 1 0
vt 0 1
vt 1 1
vt 0 0
vt 1 0
vt 0 1
vt 1 1
vt 0 0
vt 1 0
vt 0 1
vt 1 1
vt 0 0
vt 1 0
vn 1 0 0
vn 1 0 0
vn 1 0 0
vn 1 0 0
vn -1 0 0
vn -1 0 0
vn -1 0 0
vn -1 0 0
vn 0 1 0
vn 0 1 0
vn 0 1 0
vn 0 1 0
vn 0 -1 0
vn 0 -1 0
vn 0 -1 0
vn 0 -1 0
vn 0 0 1
vn 0 0 1
vn 0 0 1
vn 0 0 1
vn 0 0 -1
vn 0 0 -1
vn 0 0 -1
vn 0 0 -1
f 25/25/25 27/27/27 26/26/26
f 27/27/27 28/28/28 26/26/26
f 29/29/29 31/31/31 30/30/30
f 31/31/31 32/32/32 30/30/30
f 33/33/33 35/35/35 34/34/34
f 35/35/35 36/36/36 34/34/34
f 37/37/37 39/39/39 38/38/38
f 39/39/39 40/40/40 38/38/38
f 41/41/41 43/43/43 42/42/42
f 43/43/43 44/44/44 42/42/42
f 45/45/45 47/47/47 46/46/46
f 47/47/47 48/48/48 46/46/46
o lid
usemtl SURF_Metal_Fence
v 0.23499999940395355 1.3599999986588955 0.1825000036880374
v 0.23499999940395355 1.3599999986588955 -0.18750000108033418
v 0.23499999940395355 1.3 0.1825000036880374
v 0.23499999940395355 1.3 -0.18750000108033418
v -0.23499999940395355 1.3599999986588955 -0.18750000108033418
v -0.23499999940395355 1.3599999986588955 0.1825000036880374
v -0.23499999940395355 1.3 -0.18750000108033418
v -0.23499999940395355 1.3 0.1825000036880374
v -0.23499999940395355 1.3599999986588955 -0.18750000108033418
v 0.23499999940395355 1.3599999986588955 -0.18750000108033418
v -0.23499999940395355 1.3599999986588955 0.1825000036880374
v 0.23499999940395355 1.3599999986588955 0.1825000036880374
v -0.23499999940395355 1.3 0.1825000036880374
v 0.23499999940395355 1.3 0.1825000036880374
v -0.23499999940395355 1.3 -0.18750000108033418
v 0.23499999940395355 1.3 -0.18750000108033418
v -0.23499999940395355 1.3599999986588955 0.1825000036880374
v 0.23499999940395355 1.3599999986588955 0.1825000036880374
v -0.23499999940395355 1.3 0.1825000036880374
v 0.23499999940395355 1.3 0.1825000036880374
v 0.23499999940395355 1.3599999986588955 -0.18750000108033418
v -0.23499999940395355 1.3599999986588955 -0.18750000108033418
v 0.23499999940395355 1.3 -0.18750000108033418
v -0.23499999940395355 1.3 -0.18750000108033418
vt 0 1
vt 1 1
vt 0 0
vt 1 0
vt 0 1
vt 1 1
vt 0 0
vt 1 0
vt 0 1
vt 1 1
vt 0 0
vt 1 0
vt 0 1
vt 1 1
vt 0 0
vt 1 0
vt 0 1
vt 1 1
vt 0 0
vt 1 0
vt 0 1
vt 1 1
vt 0 0
vt 1 0
vn 1 0 0
vn 1 0 0
vn 1 0 0
vn 1 0 0
vn -1 0 0
vn -1 0 0
vn -1 0 0
vn -1 0 0
vn 0 1 0
vn 0 1 0
vn 0 1 0
vn 0 1 0
vn 0 -1 0
vn 0 -1 0
vn 0 -1 0
vn 0 -1 0
vn 0 0 1
vn 0 0 1
vn 0 0 1
vn 0 0 1
vn 0 0 -1
vn 0 0 -1
vn 0 0 -1
vn 0 0 -1
f 49/49/49 51/51/51 50/50/50
f 51/51/51 52/52/52 50/50/50
f 53/53/53 55/55/55 54/54/54
f 55/55/55 56/56/56 54/54/54
f 57/57/57 59/59/59 58/58/58
f 59/59/59 60/60/60 58/58/58
f 61/61/61 63/63/63 62/62/62
f 63/63/63 64/64/64 62/62/62
f 65/65/65 67/67/67 66/66/66
f 67/67/67 68/68/68 66/66/66
f 69/69/69 71/71/71 70/70/70
f 71/71/71 72/72/72 70/70/70
o slot
usemtl SURF_Wood_Dark
v 0.15000000596046448 1.2349999989941716 0.18750000108033418
v 0.15000000596046448 1.2349999989941716 0.16750000152736902
v 0.15000000596046448 1.2049999996647238 0.18750000108033418
v 0.15000000596046448 1.2049999996647238 0.16750000152736902
v -0.15000000596046448 1.2349999989941716 0.16750000152736902
v -0.15000000596046448 1.2349999989941716 0.18750000108033418
v -0.15000000596046448 1.2049999996647238 0.16750000152736902
v -0.15000000596046448 1.2049999996647238 0.18750000108033418
v -0.15000000596046448 1.2349999989941716 0.16750000152736902
v 0.15000000596046448 1.2349999989941716 0.16750000152736902
v -0.15000000596046448 1.2349999989941716 0.18750000108033418
v 0.15000000596046448 1.2349999989941716 0.18750000108033418
v -0.15000000596046448 1.2049999996647238 0.18750000108033418
v 0.15000000596046448 1.2049999996647238 0.18750000108033418
v -0.15000000596046448 1.2049999996647238 0.16750000152736902
v 0.15000000596046448 1.2049999996647238 0.16750000152736902
v -0.15000000596046448 1.2349999989941716 0.18750000108033418
v 0.15000000596046448 1.2349999989941716 0.18750000108033418
v -0.15000000596046448 1.2049999996647238 0.18750000108033418
v 0.15000000596046448 1.2049999996647238 0.18750000108033418
v 0.15000000596046448 1.2349999989941716 0.16750000152736902
v -0.15000000596046448 1.2349999989941716 0.16750000152736902
v 0.15000000596046448 1.2049999996647238 0.16750000152736902
v -0.15000000596046448 1.2049999996647238 0.16750000152736902
vt 0 1
vt 1 1
vt 0 0
vt 1 0
vt 0 1
vt 1 1
vt 0 0
vt 1 0
vt 0 1
vt 1 1
vt 0 0
vt 1 0
vt 0 1
vt 1 1
vt 0 0
vt 1 0
vt 0 1
vt 1 1
vt 0 0
vt 1 0
vt 0 1
vt 1 1
vt 0 0
vt 1 0
vn 1 0 0
vn 1 0 0
vn 1 0 0
vn 1 0 0
vn -1 0 0
vn -1 0 0
vn -1 0 0
vn -1 0 0
vn 0 1 0
vn 0 1 0
vn 0 1 0
vn 0 1 0
vn 0 -1 0
vn 0 -1 0
vn 0 -1 0
vn 0 -1 0
vn 0 0 1
vn 0 0 1
vn 0 0 1
vn 0 0 1
vn 0 0 -1
vn 0 0 -1
vn 0 0 -1
vn 0 0 -1
f 73/73/73 75/75/75 74/74/74
f 75/75/75 76/76/76 74/74/74
f 77/77/77 79/79/79 78/78/78
f 79/79/79 80/80/80 78/78/78
f 81/81/81 83/83/83 82/82/82
f 83/83/83 84/84/84 82/82/82
f 85/85/85 87/87/87 86/86/86
f 87/87/87 88/88/88 86/86/86
f 89/89/89 91/91/91 90/90/90
f 91/91/91 92/92/92 90/90/90
f 93/93/93 95/95/95 94/94/94
f 95/95/95 96/96/96 94/94/94
o plate
usemtl SURF_Paper_Newsprint
v 0.10000000149011612 1.0700000000745058 0.1825000011920929
v 0.10000000149011612 1.0700000000745058 0.1725000014156103
v 0.10000000149011612 0.9699999985843897 0.1825000011920929
v 0.10000000149011612 0.9699999985843897 0.1725000014156103
v -0.10000000149011612 1.0700000000745058 0.1725000014156103
v -0.10000000149011612 1.0700000000745058 0.1825000011920929
v -0.10000000149011612 0.9699999985843897 0.1725000014156103
v -0.10000000149011612 0.9699999985843897 0.1825000011920929
v -0.10000000149011612 1.0700000000745058 0.1725000014156103
v 0.10000000149011612 1.0700000000745058 0.1725000014156103
v -0.10000000149011612 1.0700000000745058 0.1825000011920929
v 0.10000000149011612 1.0700000000745058 0.1825000011920929
v -0.10000000149011612 0.9699999985843897 0.1825000011920929
v 0.10000000149011612 0.9699999985843897 0.1825000011920929
v -0.10000000149011612 0.9699999985843897 0.1725000014156103
v 0.10000000149011612 0.9699999985843897 0.1725000014156103
v -0.10000000149011612 1.0700000000745058 0.1825000011920929
v 0.10000000149011612 1.0700000000745058 0.1825000011920929
v -0.10000000149011612 0.9699999985843897 0.1825000011920929
v 0.10000000149011612 0.9699999985843897 0.1825000011920929
v 0.10000000149011612 1.0700000000745058 0.1725000014156103
v -0.10000000149011612 1.0700000000745058 0.1725000014156103
v 0.10000000149011612 0.9699999985843897 0.1725000014156103
v -0.10000000149011612 0.9699999985843897 0.1725000014156103
vt 0 1
vt 1 1
vt 0 0
vt 1 0
vt 0 1
vt 1 1
vt 0 0
vt 1 0
vt 0 1
vt 1 1
vt 0 0
vt 1 0
vt 0 1
vt 1 1
vt 0 0
vt 1 0
vt 0 1
vt 1 1
vt 0 0
vt 1 0
vt 0 1
vt 1 1
vt 0 0
vt 1 0
vn 1 0 0
vn 1 0 0
vn 1 0 0
vn 1 0 0
vn -1 0 0
vn -1 0 0
vn -1 0 0
vn -1 0 0
vn 0 1 0
vn 0 1 0
vn 0 1 0
vn 0 1 0
vn 0 -1 0
vn 0 -1 0
vn 0 -1 0
vn 0 -1 0
vn 0 0 1
vn 0 0 1
vn 0 0 1
vn 0 0 1
vn 0 0 -1
vn 0 0 -1
vn 0 0 -1
vn 0 0 -1
f 97/97/97 99/99/99 98/98/98
f 99/99/99 100/100/100 98/98/98
f 101/101/101 103/103/103 102/102/102
f 103/103/103 104/104/104 102/102/102
f 105/105/105 107/107/107 106/106/106
f 107/107/107 108/108/108 106/106/106
f 109/109/109 111/111/111 110/110/110
f 111/111/111 112/112/112 110/110/110
f 113/113/113 115/115/115 114/114/114
f 115/115/115 116/116/116 114/114/114
f 117/117/117 119/119/119 118/118/118
f 119/119/119 120/120/120 118/118/118
o base
usemtl SURF_Concrete_Struct
v 0.10000000149011612 0.05999999865889549 0.09750000279396773
v 0.10000000149011612 0.05999999865889549 -0.10250000018626451
v 0.10000000149011612 0 0.09750000279396773
v 0.10000000149011612 0 -0.10250000018626451
v -0.10000000149011612 0.05999999865889549 -0.10250000018626451
v -0.10000000149011612 0.05999999865889549 0.09750000279396773
v -0.10000000149011612 0 -0.10250000018626451
v -0.10000000149011612 0 0.09750000279396773
v -0.10000000149011612 0.05999999865889549 -0.10250000018626451
v 0.10000000149011612 0.05999999865889549 -0.10250000018626451
v -0.10000000149011612 0.05999999865889549 0.09750000279396773
v 0.10000000149011612 0.05999999865889549 0.09750000279396773
v -0.10000000149011612 0 0.09750000279396773
v 0.10000000149011612 0 0.09750000279396773
v -0.10000000149011612 0 -0.10250000018626451
v 0.10000000149011612 0 -0.10250000018626451
v -0.10000000149011612 0.05999999865889549 0.09750000279396773
v 0.10000000149011612 0.05999999865889549 0.09750000279396773
v -0.10000000149011612 0 0.09750000279396773
v 0.10000000149011612 0 0.09750000279396773
v 0.10000000149011612 0.05999999865889549 -0.10250000018626451
v -0.10000000149011612 0.05999999865889549 -0.10250000018626451
v 0.10000000149011612 0 -0.10250000018626451
v -0.10000000149011612 0 -0.10250000018626451
vt 0 1
vt 1 1
vt 0 0
vt 1 0
vt 0 1
vt 1 1
vt 0 0
vt 1 0
vt 0 1
vt 1 1
vt 0 0
vt 1 0
vt 0 1
vt 1 1
vt 0 0
vt 1 0
vt 0 1
vt 1 1
vt 0 0
vt 1 0
vt 0 1
vt 1 1
vt 0 0
vt 1 0
vn 1 0 0
vn 1 0 0
vn 1 0 0
vn 1 0 0
vn -1 0 0
vn -1 0 0
vn -1 0 0
vn -1 0 0
vn 0 1 0
vn 0 1 0
vn 0 1 0
vn 0 1 0
vn 0 -1 0
vn 0 -1 0
vn 0 -1 0
vn 0 -1 0
vn 0 0 1
vn 0 0 1
vn 0 0 1
vn 0 0 1
vn 0 0 -1
vn 0 0 -1
vn 0 0 -1
vn 0 0 -1
f 121/121/121 123/123/123 122/122/122
f 123/123/123 124/124/124 122/122/122
f 125/125/125 127/127/127 126/126/126
f 127/127/127 128/128/128 126/126/126
f 129/129/129 131/131/131 130/130/130
f 131/131/131 132/132/132 130/130/130
f 133/133/133 135/135/135 134/134/134
f 135/135/135 136/136/136 134/134/134
f 137/137/137 139/139/139 138/138/138
f 139/139/139 140/140/140 138/138/138
f 141/141/141 143/143/143 142/142/142
f 143/143/143 144/144/144 142/142/142
