# PRP_P1_AC_Unit_A — AC unit
# SC_P1_WALK · group B
# bounds 0.80 × 0.39 × 0.55 m · 96 tris · UV island 48 × 40 px
# 1 unit = 1 m · pivot at floor contact, X/Z centred
mtllib PRP_P1_AC_Unit_A.mtl
o body
usemtl SURF_Metal_Fence
v 0.4000000059604645 0.550000011920929 0.12750000666826963
v 0.4000000059604645 0.550000011920929 -0.17250000525265932
v 0.4000000059604645 0 0.12750000666826963
v 0.4000000059604645 0 -0.17250000525265932
v -0.4000000059604645 0.550000011920929 -0.17250000525265932
v -0.4000000059604645 0.550000011920929 0.12750000666826963
v -0.4000000059604645 0 -0.17250000525265932
v -0.4000000059604645 0 0.12750000666826963
v -0.4000000059604645 0.550000011920929 -0.17250000525265932
v 0.4000000059604645 0.550000011920929 -0.17250000525265932
v -0.4000000059604645 0.550000011920929 0.12750000666826963
v 0.4000000059604645 0.550000011920929 0.12750000666826963
v -0.4000000059604645 0 0.12750000666826963
v 0.4000000059604645 0 0.12750000666826963
v -0.4000000059604645 0 -0.17250000525265932
v 0.4000000059604645 0 -0.17250000525265932
v -0.4000000059604645 0.550000011920929 0.12750000666826963
v 0.4000000059604645 0.550000011920929 0.12750000666826963
v -0.4000000059604645 0 0.12750000666826963
v 0.4000000059604645 0 0.12750000666826963
v 0.4000000059604645 0.550000011920929 -0.17250000525265932
v -0.4000000059604645 0.550000011920929 -0.17250000525265932
v 0.4000000059604645 0 -0.17250000525265932
v -0.4000000059604645 0 -0.17250000525265932
vt 0 1
vt 1 1
vt 0 0
vt 1 0
vt 0 1
vt 1 1
vt 0 0
vt 1 0
vt 0 1
vt 1 1
vt 0 0
vt 1 0
vt 0 1
vt 1 1
vt 0 0
vt 1 0
vt 0 1
vt 1 1
vt 0 0
vt 1 0
vt 0 1
vt 1 1
vt 0 0
vt 1 0
vn 1 0 0
vn 1 0 0
vn 1 0 0
vn 1 0 0
vn -1 0 0
vn -1 0 0
vn -1 0 0
vn -1 0 0
vn 0 1 0
vn 0 1 0
vn 0 1 0
vn 0 1 0
vn 0 -1 0
vn 0 -1 0
vn 0 -1 0
vn 0 -1 0
vn 0 0 1
vn 0 0 1
vn 0 0 1
vn 0 0 1
vn 0 0 -1
vn 0 0 -1
vn 0 0 -1
vn 0 0 -1
f 1/1/1 3/3/3 2/2/2
f 3/3/3 4/4/4 2/2/2
f 5/5/5 7/7/7 6/6/6
f 7/7/7 8/8/8 6/6/6
f 9/9/9 11/11/11 10/10/10
f 11/11/11 12/12/12 10/10/10
f 13/13/13 15/15/15 14/14/14
f 15/15/15 16/16/16 14/14/14
f 17/17/17 19/19/19 18/18/18
f 19/19/19 20/20/20 18/18/18
f 21/21/21 23/23/23 22/22/22
f 23/23/23 24/24/24 22/22/22
o fan_ring
usemtl SURF_Metal_Fence
v 0 0.08000000298023219 0.15750000026077027
v 0.10000000149011612 0.10679492831230161 0.1575000002607703
v 0.17320507764816284 0.18000000447034833 0.1575000002607703
v 0.20000000298023224 0.2800000059604645 0.15750000026077032
v 0.17320507764816284 0.3800000074505806 0.15750000026077035
v 0.10000000149011612 0.4532050836086273 0.15750000026077038
v 2.4492935397342132e-17 0.4800000089406968 0.15750000026077038
v -0.10000000149011612 0.4532050836086273 0.15750000026077038
v -0.17320507764816284 0.3800000074505806 0.15750000026077035
v -0.20000000298023224 0.28000000596046454 0.15750000026077032
v -0.17320507764816284 0.18000000447034833 0.1575000002607703
v -0.10000000149011612 0.10679492831230161 0.1575000002607703
v -4.8985870794684264e-17 0.08000000298023219 0.15750000026077027
v 0 0.08000000298023219 0.11750000115483994
v 0.10000000149011612 0.10679492831230161 0.11750000115483995
v 0.17320507764816284 0.18000000447034833 0.11750000115483997
v 0.20000000298023224 0.2800000059604645 0.11750000115484
v 0.17320507764816284 0.3800000074505806 0.11750000115484001
v 0.10000000149011612 0.4532050836086273 0.11750000115484002
v 2.4492935397342132e-17 0.4800000089406968 0.11750000115484004
v -0.10000000149011612 0.4532050836086273 0.11750000115484002
v -0.17320507764816284 0.3800000074505806 0.11750000115484001
v -0.20000000298023224 0.28000000596046454 0.11750000115484
v -0.17320507764816284 0.18000000447034833 0.11750000115483997
v -0.10000000149011612 0.10679492831230161 0.11750000115483995
v -4.8985870794684264e-17 0.08000000298023219 0.11750000115483994
v 0 0.2800000059604645 0.15750000026077032
v 0 0.2800000059604645 0.15750000026077032
v 0 0.2800000059604645 0.15750000026077032
v 0 0.2800000059604645 0.15750000026077032
v 0 0.2800000059604645 0.15750000026077032
v 0 0.2800000059604645 0.15750000026077032
v 0 0.2800000059604645 0.15750000026077032
v 0 0.2800000059604645 0.15750000026077032
v 0 0.2800000059604645 0.15750000026077032
v 0 0.2800000059604645 0.15750000026077032
v 0 0.2800000059604645 0.15750000026077032
v 0 0.2800000059604645 0.15750000026077032
v 0 0.08000000298023219 0.15750000026077027
v 0.10000000149011612 0.10679492831230161 0.1575000002607703
v 0.17320507764816284 0.18000000447034833 0.1575000002607703
v 0.20000000298023224 0.2800000059604645 0.15750000026077032
v 0.17320507764816284 0.3800000074505806 0.15750000026077035
v 0.10000000149011612 0.4532050836086273 0.15750000026077038
v 2.4492935397342132e-17 0.4800000089406968 0.15750000026077038
v -0.10000000149011612 0.4532050836086273 0.15750000026077038
v -0.17320507764816284 0.3800000074505806 0.15750000026077035
v -0.20000000298023224 0.28000000596046454 0.15750000026077032
v -0.17320507764816284 0.18000000447034833 0.1575000002607703
v -0.10000000149011612 0.10679492831230161 0.1575000002607703
v -4.8985870794684264e-17 0.08000000298023219 0.15750000026077027
v 0 0.2800000059604645 0.11750000115484
v 0 0.2800000059604645 0.11750000115484
v 0 0.2800000059604645 0.11750000115484
v 0 0.2800000059604645 0.11750000115484
v 0 0.2800000059604645 0.11750000115484
v 0 0.2800000059604645 0.11750000115484
v 0 0.2800000059604645 0.11750000115484
v 0 0.2800000059604645 0.11750000115484
v 0 0.2800000059604645 0.11750000115484
v 0 0.2800000059604645 0.11750000115484
v 0 0.2800000059604645 0.11750000115484
v 0 0.2800000059604645 0.11750000115484
v 0 0.08000000298023219 0.11750000115483994
v 0.10000000149011612 0.10679492831230161 0.11750000115483995
v 0.17320507764816284 0.18000000447034833 0.11750000115483997
v 0.20000000298023224 0.2800000059604645 0.11750000115484
v 0.17320507764816284 0.3800000074505806 0.11750000115484001
v 0.10000000149011612 0.4532050836086273 0.11750000115484002
v 2.4492935397342132e-17 0.4800000089406968 0.11750000115484004
v -0.10000000149011612 0.4532050836086273 0.11750000115484002
v -0.17320507764816284 0.3800000074505806 0.11750000115484001
v -0.20000000298023224 0.28000000596046454 0.11750000115484
v -0.17320507764816284 0.18000000447034833 0.11750000115483997
v -0.10000000149011612 0.10679492831230161 0.11750000115483995
v -4.8985870794684264e-17 0.08000000298023219 0.11750000115483994
vt 0 1
vt 0.0833333358168602 1
vt 0.1666666716337204 1
vt 0.25 1
vt 0.3333333432674408 1
vt 0.4166666567325592 1
vt 0.5 1
vt 0.5833333134651184 1
vt 0.6666666865348816 1
vt 0.75 1
vt 0.8333333134651184 1
vt 0.9166666865348816 1
vt 1 1
vt 0 0
vt 0.0833333358168602 0
vt 0.1666666716337204 0
vt 0.25 0
vt 0.3333333432674408 0
vt 0.4166666567325592 0
vt 0.5 0
vt 0.5833333134651184 0
vt 0.6666666865348816 0
vt 0.75 0
vt 0.8333333134651184 0
vt 0.9166666865348816 0
vt 1 0
vt 0.5 0.5
vt 0.5 0.5
vt 0.5 0.5
vt 0.5 0.5
vt 0.5 0.5
vt 0.5 0.5
vt 0.5 0.5
vt 0.5 0.5
vt 0.5 0.5
vt 0.5 0.5
vt 0.5 0.5
vt 0.5 0.5
vt 1 0.5
vt 0.9330127239227295 0.75
vt 0.75 0.9330127239227295
vt 0.5 1
vt 0.25 0.9330127239227295
vt 0.0669872984290123 0.75
vt 0 0.5
vt 0.0669872984290123 0.25
vt 0.25 0.0669872984290123
vt 0.5 0
vt 0.75 0.0669872984290123
vt 0.9330127239227295 0.25
vt 1 0.5
vt 0.5 0.5
vt 0.5 0.5
vt 0.5 0.5
vt 0.5 0.5
vt 0.5 0.5
vt 0.5 0.5
vt 0.5 0.5
vt 0.5 0.5
vt 0.5 0.5
vt 0.5 0.5
vt 0.5 0.5
vt 0.5 0.5
vt 1 0.5
vt 0.9330127239227295 0.25
vt 0.75 0.0669872984290123
vt 0.5 0
vt 0.25 0.0669872984290123
vt 0.0669872984290123 0.25
vt 0 0.5
vt 0.0669872984290123 0.75
vt 0.25 0.9330127239227295
vt 0.5 1
vt 0.75 0.9330127239227295
vt 0.9330127239227295 0.75
vt 1 0.5
vn 0 -1 -2.2204460492503126e-16
vn 0.500000006730587 -0.8660253998985323 -1.9229626777551184e-16
vn 0.8660253998985324 -0.5000000067305868 -1.110223039570061e-16
vn 1 -6.123234262925838e-17 -1.3596311327747827e-32
vn 0.8660253998985324 0.5000000067305868 1.110223039570061e-16
vn 0.500000006730587 0.8660253998985323 1.9229626777551184e-16
vn 1.224646852585168e-16 1 2.2204460492503126e-16
vn -0.500000006730587 0.8660253998985323 1.9229626777551184e-16
vn -0.8660253998985324 0.5000000067305868 1.110223039570061e-16
vn -1 1.8369701465288533e-16 4.0788931044507604e-32
vn -0.8660253998985324 -0.5000000067305868 -1.110223039570061e-16
vn -0.500000006730587 -0.8660253998985323 -1.9229626777551184e-16
vn -2.449293705170336e-16 -1 -2.2204460492503126e-16
vn 0 -1 -2.2204460492503126e-16
vn 0.500000006730587 -0.8660253998985323 -1.9229626777551184e-16
vn 0.8660253998985324 -0.5000000067305868 -1.110223039570061e-16
vn 1 -6.123234262925838e-17 -1.3596311327747827e-32
vn 0.8660253998985324 0.5000000067305868 1.110223039570061e-16
vn 0.500000006730587 0.8660253998985323 1.9229626777551184e-16
vn 1.224646852585168e-16 1 2.2204460492503126e-16
vn -0.500000006730587 0.8660253998985323 1.9229626777551184e-16
vn -0.8660253998985324 0.5000000067305868 1.110223039570061e-16
vn -1 1.8369701465288533e-16 4.0788931044507604e-32
vn -0.8660253998985324 -0.5000000067305868 -1.110223039570061e-16
vn -0.500000006730587 -0.8660253998985323 -1.9229626777551184e-16
vn -2.449293705170336e-16 -1 -2.2204460492503126e-16
vn 0 -2.2204460492503126e-16 1
vn 0 -2.2204460492503126e-16 1
vn 0 -2.2204460492503126e-16 1
vn 0 -2.2204460492503126e-16 1
vn 0 -2.2204460492503126e-16 1
vn 0 -2.2204460492503126e-16 1
vn 0 -2.2204460492503126e-16 1
vn 0 -2.2204460492503126e-16 1
vn 0 -2.2204460492503126e-16 1
vn 0 -2.2204460492503126e-16 1
vn 0 -2.2204460492503126e-16 1
vn 0 -2.2204460492503126e-16 1
vn 0 -2.2204460492503126e-16 1
vn 0 -2.2204460492503126e-16 1
vn 0 -2.2204460492503126e-16 1
vn 0 -2.2204460492503126e-16 1
vn 0 -2.2204460492503126e-16 1
vn 0 -2.2204460492503126e-16 1
vn 0 -2.2204460492503126e-16 1
vn 0 -2.2204460492503126e-16 1
vn 0 -2.2204460492503126e-16 1
vn 0 -2.2204460492503126e-16 1
vn 0 -2.2204460492503126e-16 1
vn 0 -2.2204460492503126e-16 1
vn 0 -2.2204460492503126e-16 1
vn 0 2.2204460492503126e-16 -1
vn 0 2.2204460492503126e-16 -1
vn 0 2.2204460492503126e-16 -1
vn 0 2.2204460492503126e-16 -1
vn 0 2.2204460492503126e-16 -1
vn 0 2.2204460492503126e-16 -1
vn 0 2.2204460492503126e-16 -1
vn 0 2.2204460492503126e-16 -1
vn 0 2.2204460492503126e-16 -1
vn 0 2.2204460492503126e-16 -1
vn 0 2.2204460492503126e-16 -1
vn 0 2.2204460492503126e-16 -1
vn 0 2.2204460492503126e-16 -1
vn 0 2.2204460492503126e-16 -1
vn 0 2.2204460492503126e-16 -1
vn 0 2.2204460492503126e-16 -1
vn 0 2.2204460492503126e-16 -1
vn 0 2.2204460492503126e-16 -1
vn 0 2.2204460492503126e-16 -1
vn 0 2.2204460492503126e-16 -1
vn 0 2.2204460492503126e-16 -1
vn 0 2.2204460492503126e-16 -1
vn 0 2.2204460492503126e-16 -1
vn 0 2.2204460492503126e-16 -1
vn 0 2.2204460492503126e-16 -1
f 25/25/25 38/38/38 26/26/26
f 38/38/38 39/39/39 26/26/26
f 26/26/26 39/39/39 27/27/27
f 39/39/39 40/40/40 27/27/27
f 27/27/27 40/40/40 28/28/28
f 40/40/40 41/41/41 28/28/28
f 28/28/28 41/41/41 29/29/29
f 41/41/41 42/42/42 29/29/29
f 29/29/29 42/42/42 30/30/30
f 42/42/42 43/43/43 30/30/30
f 30/30/30 43/43/43 31/31/31
f 43/43/43 44/44/44 31/31/31
f 31/31/31 44/44/44 32/32/32
f 44/44/44 45/45/45 32/32/32
f 32/32/32 45/45/45 33/33/33
f 45/45/45 46/46/46 33/33/33
f 33/33/33 46/46/46 34/34/34
f 46/46/46 47/47/47 34/34/34
f 34/34/34 47/47/47 35/35/35
f 47/47/47 48/48/48 35/35/35
f 35/35/35 48/48/48 36/36/36
f 48/48/48 49/49/49 36/36/36
f 36/36/36 49/49/49 37/37/37
f 49/49/49 50/50/50 37/37/37
f 63/63/63 64/64/64 51/51/51
f 64/64/64 65/65/65 52/52/52
f 65/65/65 66/66/66 53/53/53
f 66/66/66 67/67/67 54/54/54
f 67/67/67 68/68/68 55/55/55
f 68/68/68 69/69/69 56/56/56
f 69/69/69 70/70/70 57/57/57
f 70/70/70 71/71/71 58/58/58
f 71/71/71 72/72/72 59/59/59
f 72/72/72 73/73/73 60/60/60
f 73/73/73 74/74/74 61/61/61
f 74/74/74 75/75/75 62/62/62
f 89/89/89 88/88/88 76/76/76
f 90/90/90 89/89/89 77/77/77
f 91/91/91 90/90/90 78/78/78
f 92/92/92 91/91/91 79/79/79
f 93/93/93 92/92/92 80/80/80
f 94/94/94 93/93/93 81/81/81
f 95/95/95 94/94/94 82/82/82
f 96/96/96 95/95/95 83/83/83
f 97/97/97 96/96/96 84/84/84
f 98/98/98 97/97/97 85/85/85
f 99/99/99 98/98/98 86/86/86
f 100/100/100 99/99/99 87/87/87
o fan_hub
usemtl SURF_Wood_Dark
v 0.03999999910593033 0.3200000050663948 0.1925000010803342
v 0.03999999910593033 0.3200000050663948 0.14250000033527613
v 0.03999999910593033 0.24000000685453415 0.1925000010803342
v 0.03999999910593033 0.24000000685453415 0.14250000033527613
v -0.03999999910593033 0.3200000050663948 0.14250000033527613
v -0.03999999910593033 0.3200000050663948 0.1925000010803342
v -0.03999999910593033 0.24000000685453415 0.14250000033527613
v -0.03999999910593033 0.24000000685453415 0.1925000010803342
v -0.03999999910593033 0.3200000050663948 0.14250000033527613
v 0.03999999910593033 0.3200000050663948 0.14250000033527613
v -0.03999999910593033 0.3200000050663948 0.1925000010803342
v 0.03999999910593033 0.3200000050663948 0.1925000010803342
v -0.03999999910593033 0.24000000685453415 0.1925000010803342
v 0.03999999910593033 0.24000000685453415 0.1925000010803342
v -0.03999999910593033 0.24000000685453415 0.14250000033527613
v 0.03999999910593033 0.24000000685453415 0.14250000033527613
v -0.03999999910593033 0.3200000050663948 0.1925000010803342
v 0.03999999910593033 0.3200000050663948 0.1925000010803342
v -0.03999999910593033 0.24000000685453415 0.1925000010803342
v 0.03999999910593033 0.24000000685453415 0.1925000010803342
v 0.03999999910593033 0.3200000050663948 0.14250000033527613
v -0.03999999910593033 0.3200000050663948 0.14250000033527613
v 0.03999999910593033 0.24000000685453415 0.14250000033527613
v -0.03999999910593033 0.24000000685453415 0.14250000033527613
vt 0 1
vt 1 1
vt 0 0
vt 1 0
vt 0 1
vt 1 1
vt 0 0
vt 1 0
vt 0 1
vt 1 1
vt 0 0
vt 1 0
vt 0 1
vt 1 1
vt 0 0
vt 1 0
vt 0 1
vt 1 1
vt 0 0
vt 1 0
vt 0 1
vt 1 1
vt 0 0
vt 1 0
vn 1 0 0
vn 1 0 0
vn 1 0 0
vn 1 0 0
vn -1 0 0
vn -1 0 0
vn -1 0 0
vn -1 0 0
vn 0 1 0
vn 0 1 0
vn 0 1 0
vn 0 1 0
vn 0 -1 0
vn 0 -1 0
vn 0 -1 0
vn 0 -1 0
vn 0 0 1
vn 0 0 1
vn 0 0 1
vn 0 0 1
vn 0 0 -1
vn 0 0 -1
vn 0 0 -1
vn 0 0 -1
f 101/101/101 103/103/103 102/102/102
f 103/103/103 104/104/104 102/102/102
f 105/105/105 107/107/107 106/106/106
f 107/107/107 108/108/108 106/106/106
f 109/109/109 111/111/111 110/110/110
f 111/111/111 112/112/112 110/110/110
f 113/113/113 115/115/115 114/114/114
f 115/115/115 116/116/116 114/114/114
f 117/117/117 119/119/119 118/118/118
f 119/119/119 120/120/120 118/118/118
f 121/121/121 123/123/123 122/122/122
f 123/123/123 124/124/124 122/122/122
o bracket_l
usemtl SURF_Metal_Fence
v -0.33000000067055224 0.11000000670552251 0.1475000024959445
v -0.33000000067055224 0.11000000670552251 -0.1925000010803342
v -0.33000000067055224 0.010000005215406393 0.1475000024959445
v -0.33000000067055224 0.010000005215406393 -0.1925000010803342
v -0.38999999932944773 0.11000000670552251 -0.1925000010803342
v -0.38999999932944773 0.11000000670552251 0.1475000024959445
v -0.38999999932944773 0.010000005215406393 -0.1925000010803342
v -0.38999999932944773 0.010000005215406393 0.1475000024959445
v -0.38999999932944773 0.11000000670552251 -0.1925000010803342
v -0.33000000067055224 0.11000000670552251 -0.1925000010803342
v -0.38999999932944773 0.11000000670552251 0.1475000024959445
v -0.33000000067055224 0.11000000670552251 0.1475000024959445
v -0.38999999932944773 0.010000005215406393 0.1475000024959445
v -0.33000000067055224 0.010000005215406393 0.1475000024959445
v -0.38999999932944773 0.010000005215406393 -0.1925000010803342
v -0.33000000067055224 0.010000005215406393 -0.1925000010803342
v -0.38999999932944773 0.11000000670552251 0.1475000024959445
v -0.33000000067055224 0.11000000670552251 0.1475000024959445
v -0.38999999932944773 0.010000005215406393 0.1475000024959445
v -0.33000000067055224 0.010000005215406393 0.1475000024959445
v -0.33000000067055224 0.11000000670552251 -0.1925000010803342
v -0.38999999932944773 0.11000000670552251 -0.1925000010803342
v -0.33000000067055224 0.010000005215406393 -0.1925000010803342
v -0.38999999932944773 0.010000005215406393 -0.1925000010803342
vt 0 1
vt 1 1
vt 0 0
vt 1 0
vt 0 1
vt 1 1
vt 0 0
vt 1 0
vt 0 1
vt 1 1
vt 0 0
vt 1 0
vt 0 1
vt 1 1
vt 0 0
vt 1 0
vt 0 1
vt 1 1
vt 0 0
vt 1 0
vt 0 1
vt 1 1
vt 0 0
vt 1 0
vn 1 0 0
vn 1 0 0
vn 1 0 0
vn 1 0 0
vn -1 0 0
vn -1 0 0
vn -1 0 0
vn -1 0 0
vn 0 1 0
vn 0 1 0
vn 0 1 0
vn 0 1 0
vn 0 -1 0
vn 0 -1 0
vn 0 -1 0
vn 0 -1 0
vn 0 0 1
vn 0 0 1
vn 0 0 1
vn 0 0 1
vn 0 0 -1
vn 0 0 -1
vn 0 0 -1
vn 0 0 -1
f 125/125/125 127/127/127 126/126/126
f 127/127/127 128/128/128 126/126/126
f 129/129/129 131/131/131 130/130/130
f 131/131/131 132/132/132 130/130/130
f 133/133/133 135/135/135 134/134/134
f 135/135/135 136/136/136 134/134/134
f 137/137/137 139/139/139 138/138/138
f 139/139/139 140/140/140 138/138/138
f 141/141/141 143/143/143 142/142/142
f 143/143/143 144/144/144 142/142/142
f 145/145/145 147/147/147 146/146/146
f 147/147/147 148/148/148 146/146/146
o bracket_r
usemtl SURF_Metal_Fence
v 0.38999999932944773 0.11000000670552251 0.1475000024959445
v 0.38999999932944773 0.11000000670552251 -0.1925000010803342
v 0.38999999932944773 0.010000005215406393 0.1475000024959445
v 0.38999999932944773 0.010000005215406393 -0.1925000010803342
v 0.33000000067055224 0.11000000670552251 -0.1925000010803342
v 0.33000000067055224 0.11000000670552251 0.1475000024959445
v 0.33000000067055224 0.010000005215406393 -0.1925000010803342
v 0.33000000067055224 0.010000005215406393 0.1475000024959445
v 0.33000000067055224 0.11000000670552251 -0.1925000010803342
v 0.38999999932944773 0.11000000670552251 -0.1925000010803342
v 0.33000000067055224 0.11000000670552251 0.1475000024959445
v 0.38999999932944773 0.11000000670552251 0.1475000024959445
v 0.33000000067055224 0.010000005215406393 0.1475000024959445
v 0.38999999932944773 0.010000005215406393 0.1475000024959445
v 0.33000000067055224 0.010000005215406393 -0.1925000010803342
v 0.38999999932944773 0.010000005215406393 -0.1925000010803342
v 0.33000000067055224 0.11000000670552251 0.1475000024959445
v 0.38999999932944773 0.11000000670552251 0.1475000024959445
v 0.33000000067055224 0.010000005215406393 0.1475000024959445
v 0.38999999932944773 0.010000005215406393 0.1475000024959445
v 0.38999999932944773 0.11000000670552251 -0.1925000010803342
v 0.33000000067055224 0.11000000670552251 -0.1925000010803342
v 0.38999999932944773 0.010000005215406393 -0.1925000010803342
v 0.33000000067055224 0.010000005215406393 -0.1925000010803342
vt 0 1
vt 1 1
vt 0 0
vt 1 0
vt 0 1
vt 1 1
vt 0 0
vt 1 0
vt 0 1
vt 1 1
vt 0 0
vt 1 0
vt 0 1
vt 1 1
vt 0 0
vt 1 0
vt 0 1
vt 1 1
vt 0 0
vt 1 0
vt 0 1
vt 1 1
vt 0 0
vt 1 0
vn 1 0 0
vn 1 0 0
vn 1 0 0
vn 1 0 0
vn -1 0 0
vn -1 0 0
vn -1 0 0
vn -1 0 0
vn 0 1 0
vn 0 1 0
vn 0 1 0
vn 0 1 0
vn 0 -1 0
vn 0 -1 0
vn 0 -1 0
vn 0 -1 0
vn 0 0 1
vn 0 0 1
vn 0 0 1
vn 0 0 1
vn 0 0 -1
vn 0 0 -1
vn 0 0 -1
vn 0 0 -1
f 149/149/149 151/151/151 150/150/150
f 151/151/151 152/152/152 150/150/150
f 153/153/153 155/155/155 154/154/154
f 155/155/155 156/156/156 154/154/154
f 157/157/157 159/159/159 158/158/158
f 159/159/159 160/160/160 158/158/158
f 161/161/161 163/163/163 162/162/162
f 163/163/163 164/164/164 162/162/162
f 165/165/165 167/167/167 166/166/166
f 167/167/167 168/168/168 166/166/166
f 169/169/169 171/171/171 170/170/170
f 171/171/171 172/172/172 170/170/170
