# PRP_P1_Puddle_Decal_A — Puddle decal
# SC_P1_WALK · group B
# bounds 1.23 × 0.95 × 0.00 m · 4 tris · UV island 56 × 48 px
# 1 unit = 1 m · pivot at floor contact, X/Z centred
mtllib PRP_P1_Puddle_Decal_A.mtl
o puddle_core
usemtl SURF_Asphalt_Wet
v -0.6141239205034528 -1.7346970061972054e-19 -0.4238668856928904
v 0.585876127180263 -1.7346970061972054e-19 -0.4238668856928904
v -0.6141239205034528 1.9966666943795254e-16 0.47613309046525193
v 0.585876127180263 1.9966666943795254e-16 0.47613309046525193
vt 0 1
vt 1 1
vt 0 0
vt 1 0
vn 0 1 -2.2204460492503126e-16
vn 0 1 -2.2204460492503126e-16
vn 0 1 -2.2204460492503126e-16
vn 0 1 -2.2204460492503126e-16
f 1/1/1 3/3/3 2/2/2
f 3/3/3 4/4/4 2/2/2
o puddle_edge
usemtl SURF_Asphalt_Wet
v -0.20237171382664268 0.0040000000000001 -0.2692689493251895
v 0.4663638171727831 0.0040000000000001 -0.4761330904652519
v -0.05461161049597288 0.0040000000000001 0.20839929523761344
v 0.6141239205034529 0.0040000000000001 0.0015351540975510891
vt 0 1
vt 1 1
vt 0 0
vt 1 0
vn 0 1 0
vn 0 1 0
vn 0 1 0
vn 0 1 0
f 5/5/5 7/7/7 6/6/6
f 7/7/7 8/8/8 6/6/6
