# SM_P1_Storefront_Awning_A — Storefront awning
# SC_P1_WALK · group A
# bounds 4.60 × 1.23 × 0.48 m · 48 tris · UV island 152 × 88 px
# 1 unit = 1 m · pivot at floor contact, X/Z centred
mtllib SM_P1_Storefront_Awning_A.mtl
o canopy
usemtl SURF_Storefront_Wood
v 2.299999952316284 0.22193599791196145 0.5812011331950299
v 2.299999952316284 0.43677149455974573 -0.5994113450640389
v 2.299999952316284 0.14322850424816136 0.5668787676410937
v 2.299999952316284 0.35806400089594564 -0.6137337106179751
v -2.299999952316284 0.43677149455974573 -0.5994113450640389
v -2.299999952316284 0.22193599791196145 0.5812011331950299
v -2.299999952316284 0.35806400089594564 -0.6137337106179751
v -2.299999952316284 0.14322850424816136 0.5668787676410937
v -2.299999952316284 0.43677149455974573 -0.5994113450640389
v 2.299999952316284 0.43677149455974573 -0.5994113450640389
v -2.299999952316284 0.22193599791196145 0.5812011331950299
v 2.299999952316284 0.22193599791196145 0.5812011331950299
v -2.299999952316284 0.14322850424816136 0.5668787676410937
v 2.299999952316284 0.14322850424816136 0.5668787676410937
v -2.299999952316284 0.35806400089594564 -0.6137337106179751
v 2.299999952316284 0.35806400089594564 -0.6137337106179751
v -2.299999952316284 0.22193599791196145 0.5812011331950299
v 2.299999952316284 0.22193599791196145 0.5812011331950299
v -2.299999952316284 0.14322850424816136 0.5668787676410937
v 2.299999952316284 0.14322850424816136 0.5668787676410937
v 2.299999952316284 0.43677149455974573 -0.5994113450640389
v -2.299999952316284 0.43677149455974573 -0.5994113450640389
v 2.299999952316284 0.35806400089594564 -0.6137337106179751
v -2.299999952316284 0.35806400089594564 -0.6137337106179751
vt 0 1
vt 1 1
vt 0 0
vt 1 0
vt 0 1
vt 1 1
vt 0 0
vt 1 0
vt 0 1
vt 1 1
vt 0 0
vt 1 0
vt 0 1
vt 1 1
vt 0 0
vt 1 0
vt 0 1
vt 1 1
vt 0 0
vt 1 0
vt 0 1
vt 1 1
vt 0 0
vt 1 0
vn 1 0 0
vn 1 0 0
vn 1 0 0
vn 1 0 0
vn -1 0 0
vn -1 0 0
vn -1 0 0
vn -1 0 0
vn 0 0.9838436927881214 0.17902957342582415
vn 0 0.9838436927881214 0.17902957342582415
vn 0 0.9838436927881214 0.17902957342582415
vn 0 0.9838436927881214 0.17902957342582415
vn 0 -0.9838436927881214 -0.17902957342582415
vn 0 -0.9838436927881214 -0.17902957342582415
vn 0 -0.9838436927881214 -0.17902957342582415
vn 0 -0.9838436927881214 -0.17902957342582415
vn 0 -0.17902957342582415 0.9838436927881214
vn 0 -0.17902957342582415 0.9838436927881214
vn 0 -0.17902957342582415 0.9838436927881214
vn 0 -0.17902957342582415 0.9838436927881214
vn 0 0.17902957342582415 -0.9838436927881214
vn 0 0.17902957342582415 -0.9838436927881214
vn 0 0.17902957342582415 -0.9838436927881214
vn 0 0.17902957342582415 -0.9838436927881214
f 1/1/1 3/3/3 2/2/2
f 3/3/3 4/4/4 2/2/2
f 5/5/5 7/7/7 6/6/6
f 7/7/7 8/8/8 6/6/6
f 9/9/9 11/11/11 10/10/10
f 11/11/11 12/12/12 10/10/10
f 13/13/13 15/15/15 14/14/14
f 15/15/15 16/16/16 14/14/14
f 17/17/17 19/19/19 18/18/18
f 19/19/19 20/20/20 18/18/18
f 21/21/21 23/23/23 22/22/22
f 23/23/23 24/24/24 22/22/22
o valance
usemtl SURF_Storefront_Wood
v 2.299999952316284 0.2199999988079071 0.6137337106179751
v 2.299999952316284 0.2199999988079071 0.5537337119590796
v 2.299999952316284 0 0.6137337106179751
v 2.299999952316284 0 0.5537337119590796
v -2.299999952316284 0.2199999988079071 0.5537337119590796
v -2.299999952316284 0.2199999988079071 0.6137337106179751
v -2.299999952316284 0 0.5537337119590796
v -2.299999952316284 0 0.6137337106179751
v -2.299999952316284 0.2199999988079071 0.5537337119590796
v 2.299999952316284 0.2199999988079071 0.5537337119590796
v -2.299999952316284 0.2199999988079071 0.6137337106179751
v 2.299999952316284 0.2199999988079071 0.6137337106179751
v -2.299999952316284 0 0.6137337106179751
v 2.299999952316284 0 0.6137337106179751
v -2.299999952316284 0 0.5537337119590796
v 2.299999952316284 0 0.5537337119590796
v -2.299999952316284 0.2199999988079071 0.6137337106179751
v 2.299999952316284 0.2199999988079071 0.6137337106179751
v -2.299999952316284 0 0.6137337106179751
v 2.299999952316284 0 0.6137337106179751
v 2.299999952316284 0.2199999988079071 0.5537337119590796
v -2.299999952316284 0.2199999988079071 0.5537337119590796
v 2.299999952316284 0 0.5537337119590796
v -2.299999952316284 0 0.5537337119590796
vt 0 1
vt 1 1
vt 0 0
vt 1 0
vt 0 1
vt 1 1
vt 0 0
vt 1 0
vt 0 1
vt 1 1
vt 0 0
vt 1 0
vt 0 1
vt 1 1
vt 0 0
vt 1 0
vt 0 1
vt 1 1
vt 0 0
vt 1 0
vt 0 1
vt 1 1
vt 0 0
vt 1 0
vn 1 0 0
vn 1 0 0
vn 1 0 0
vn 1 0 0
vn -1 0 0
vn -1 0 0
vn -1 0 0
vn -1 0 0
vn 0 1 0
vn 0 1 0
vn 0 1 0
vn 0 1 0
vn 0 -1 0
vn 0 -1 0
vn 0 -1 0
vn 0 -1 0
vn 0 0 1
vn 0 0 1
vn 0 0 1
vn 0 0 1
vn 0 0 -1
vn 0 0 -1
vn 0 0 -1
vn 0 0 -1
f 25/25/25 27/27/27 26/26/26
f 27/27/27 28/28/28 26/26/26
f 29/29/29 31/31/31 30/30/30
f 31/31/31 32/32/32 30/30/30
f 33/33/33 35/35/35 34/34/34
f 35/35/35 36/36/36 34/34/34
f 37/37/37 39/39/39 38/38/38
f 39/39/39 40/40/40 38/38/38
f 41/41/41 43/43/43 42/42/42
f 43/43/43 44/44/44 42/42/42
f 45/45/45 47/47/47 46/46/46
f 47/47/47 48/48/48 46/46/46
o arm_l
usemtl SURF_Metal_Fence
v -2.074999999627471 0.27075894249106724 0.5588387760883141
v -2.074999999627471 0.4784332416892666 -0.5824198747065806
v -2.074999999627471 0.22156675711864052 0.5498872972836354
v -2.074999999627471 0.42924105631683984 -0.5913713535112594
v -2.125000000372529 0.4784332416892666 -0.5824198747065806
v -2.125000000372529 0.27075894249106724 0.5588387760883141
v -2.125000000372529 0.42924105631683984 -0.5913713535112594
v -2.125000000372529 0.22156675711864052 0.5498872972836354
v -2.125000000372529 0.4784332416892666 -0.5824198747065806
v -2.074999999627471 0.4784332416892666 -0.5824198747065806
v -2.125000000372529 0.27075894249106724 0.5588387760883141
v -2.074999999627471 0.27075894249106724 0.5588387760883141
v -2.125000000372529 0.22156675711864052 0.5498872972836354
v -2.074999999627471 0.22156675711864052 0.5498872972836354
v -2.125000000372529 0.42924105631683984 -0.5913713535112594
v -2.074999999627471 0.42924105631683984 -0.5913713535112594
v -2.125000000372529 0.27075894249106724 0.5588387760883141
v -2.074999999627471 0.27075894249106724 0.5588387760883141
v -2.125000000372529 0.22156675711864052 0.5498872972836354
v -2.074999999627471 0.22156675711864052 0.5498872972836354
v -2.074999999627471 0.4784332416892666 -0.5824198747065806
v -2.125000000372529 0.4784332416892666 -0.5824198747065806
v -2.074999999627471 0.42924105631683984 -0.5913713535112594
v -2.125000000372529 0.42924105631683984 -0.5913713535112594
vt 0 1
vt 1 1
vt 0 0
vt 1 0
vt 0 1
vt 1 1
vt 0 0
vt 1 0
vt 0 1
vt 1 1
vt 0 0
vt 1 0
vt 0 1
vt 1 1
vt 0 0
vt 1 0
vt 0 1
vt 1 1
vt 0 0
vt 1 0
vt 0 1
vt 1 1
vt 0 0
vt 1 0
vn 1 0 0
vn 1 0 0
vn 1 0 0
vn 1 0 0
vn -1 0 0
vn -1 0 0
vn -1 0 0
vn -1 0 0
vn 0 0.9838436927881214 0.17902957342582415
vn 0 0.9838436927881214 0.17902957342582415
vn 0 0.9838436927881214 0.17902957342582415
vn 0 0.9838436927881214 0.17902957342582415
vn 0 -0.9838436927881214 -0.17902957342582415
vn 0 -0.9838436927881214 -0.17902957342582415
vn 0 -0.9838436927881214 -0.17902957342582415
vn 0 -0.9838436927881214 -0.17902957342582415
vn 0 -0.17902957342582415 0.9838436927881214
vn 0 -0.17902957342582415 0.9838436927881214
vn 0 -0.17902957342582415 0.9838436927881214
vn 0 -0.17902957342582415 0.9838436927881214
vn 0 0.17902957342582415 -0.9838436927881214
vn 0 0.17902957342582415 -0.9838436927881214
vn 0 0.17902957342582415 -0.9838436927881214
vn 0 0.17902957342582415 -0.9838436927881214
f 49/49/49 51/51/51 50/50/50
f 51/51/51 52/52/52 50/50/50
f 53/53/53 55/55/55 54/54/54
f 55/55/55 56/56/56 54/54/54
f 57/57/57 59/59/59 58/58/58
f 59/59/59 60/60/60 58/58/58
f 61/61/61 63/63/63 62/62/62
f 63/63/63 64/64/64 62/62/62
f 65/65/65 67/67/67 66/66/66
f 67/67/67 68/68/68 66/66/66
f 69/69/69 71/71/71 70/70/70
f 71/71/71 72/72/72 70/70/70
o arm_r
usemtl SURF_Metal_Fence
v 2.125000000372529 0.27075894249106724 0.5588387760883141
v 2.125000000372529 0.4784332416892666 -0.5824198747065806
v 2.125000000372529 0.22156675711864052 0.5498872972836354
v 2.125000000372529 0.42924105631683984 -0.5913713535112594
v 2.074999999627471 0.4784332416892666 -0.5824198747065806
v 2.074999999627471 0.27075894249106724 0.5588387760883141
v 2.074999999627471 0.42924105631683984 -0.5913713535112594
v 2.074999999627471 0.22156675711864052 0.5498872972836354
v 2.074999999627471 0.4784332416892666 -0.5824198747065806
v 2.125000000372529 0.4784332416892666 -0.5824198747065806
v 2.074999999627471 0.27075894249106724 0.5588387760883141
v 2.125000000372529 0.27075894249106724 0.5588387760883141
v 2.074999999627471 0.22156675711864052 0.5498872972836354
v 2.125000000372529 0.22156675711864052 0.5498872972836354
v 2.074999999627471 0.42924105631683984 -0.5913713535112594
v 2.125000000372529 0.42924105631683984 -0.5913713535112594
v 2.074999999627471 0.27075894249106724 0.5588387760883141
v 2.125000000372529 0.27075894249106724 0.5588387760883141
v 2.074999999627471 0.22156675711864052 0.5498872972836354
v 2.125000000372529 0.22156675711864052 0.5498872972836354
v 2.125000000372529 0.4784332416892666 -0.5824198747065806
v 2.074999999627471 0.4784332416892666 -0.5824198747065806
v 2.125000000372529 0.42924105631683984 -0.5913713535112594
v 2.074999999627471 0.42924105631683984 -0.5913713535112594
vt 0 1
vt 1 1
vt 0 0
vt 1 0
vt 0 1
vt 1 1
vt 0 0
vt 1 0
vt 0 1
vt 1 1
vt 0 0
vt 1 0
vt 0 1
vt 1 1
vt 0 0
vt 1 0
vt 0 1
vt 1 1
vt 0 0
vt 1 0
vt 0 1
vt 1 1
vt 0 0
vt 1 0
vn 1 0 0
vn 1 0 0
vn 1 0 0
vn 1 0 0
vn -1 0 0
vn -1 0 0
vn -1 0 0
vn -1 0 0
vn 0 0.9838436927881214 0.17902957342582415
vn 0 0.9838436927881214 0.17902957342582415
vn 0 0.9838436927881214 0.17902957342582415
vn 0 0.9838436927881214 0.17902957342582415
vn 0 -0.9838436927881214 -0.17902957342582415
vn 0 -0.9838436927881214 -0.17902957342582415
vn 0 -0.9838436927881214 -0.17902957342582415
vn 0 -0.9838436927881214 -0.17902957342582415
vn 0 -0.17902957342582415 0.9838436927881214
vn 0 -0.17902957342582415 0.9838436927881214
vn 0 -0.17902957342582415 0.9838436927881214
vn 0 -0.17902957342582415 0.9838436927881214
vn 0 0.17902957342582415 -0.9838436927881214
vn 0 0.17902957342582415 -0.9838436927881214
vn 0 0.17902957342582415 -0.9838436927881214
vn 0 0.17902957342582415 -0.9838436927881214
f 73/73/73 75/75/75 74/74/74
f 75/75/75 76/76/76 74/74/74
f 77/77/77 79/79/79 78/78/78
f 79/79/79 80/80/80 78/78/78
f 81/81/81 83/83/83 82/82/82
f 83/83/83 84/84/84 82/82/82
f 85/85/85 87/87/87 86/86/86
f 87/87/87 88/88/88 86/86/86
f 89/89/89 91/91/91 90/90/90
f 91/91/91 92/92/92 90/90/90
f 93/93/93 95/95/95 94/94/94
f 95/95/95 96/96/96 94/94/94
