# SM_P1_Bush_Planter_A — Bush + planter
# SC_P1_WALK · group A
# bounds 0.86 × 0.66 × 0.76 m · 60 tris · UV island 72 × 64 px
# 1 unit = 1 m · pivot at floor contact, X/Z centred
mtllib SM_P1_Bush_Planter_A.mtl
o planter_body
usemtl SURF_Concrete_Struct
v 0.4000000059604645 0.3499999940395355 0.30000001192092896
v 0.4000000059604645 0.3499999940395355 -0.30000001192092896
v 0.4000000059604645 0 0.30000001192092896
v 0.4000000059604645 0 -0.30000001192092896
v -0.4000000059604645 0.3499999940395355 -0.30000001192092896
v -0.4000000059604645 0.3499999940395355 0.30000001192092896
v -0.4000000059604645 0 -0.30000001192092896
v -0.4000000059604645 0 0.30000001192092896
v -0.4000000059604645 0.3499999940395355 -0.30000001192092896
v 0.4000000059604645 0.3499999940395355 -0.30000001192092896
v -0.4000000059604645 0.3499999940395355 0.30000001192092896
v 0.4000000059604645 0.3499999940395355 0.30000001192092896
v -0.4000000059604645 0 0.30000001192092896
v 0.4000000059604645 0 0.30000001192092896
v -0.4000000059604645 0 -0.30000001192092896
v 0.4000000059604645 0 -0.30000001192092896
v -0.4000000059604645 0.3499999940395355 0.30000001192092896
v 0.4000000059604645 0.3499999940395355 0.30000001192092896
v -0.4000000059604645 0 0.30000001192092896
v 0.4000000059604645 0 0.30000001192092896
v 0.4000000059604645 0.3499999940395355 -0.30000001192092896
v -0.4000000059604645 0.3499999940395355 -0.30000001192092896
v 0.4000000059604645 0 -0.30000001192092896
v -0.4000000059604645 0 -0.30000001192092896
vt 0 1
vt 1 1
vt 0 0
vt 1 0
vt 0 1
vt 1 1
vt 0 0
vt 1 0
vt 0 1
vt 1 1
vt 0 0
vt 1 0
vt 0 1
vt 1 1
vt 0 0
vt 1 0
vt 0 1
vt 1 1
vt 0 0
vt 1 0
vt 0 1
vt 1 1
vt 0 0
vt 1 0
vn 1 0 0
vn 1 0 0
vn 1 0 0
vn 1 0 0
vn -1 0 0
vn -1 0 0
vn -1 0 0
vn -1 0 0
vn 0 1 0
vn 0 1 0
vn 0 1 0
vn 0 1 0
vn 0 -1 0
vn 0 -1 0
vn 0 -1 0
vn 0 -1 0
vn 0 0 1
vn 0 0 1
vn 0 0 1
vn 0 0 1
vn 0 0 -1
vn 0 0 -1
vn 0 0 -1
vn 0 0 -1
f 1/1/1 3/3/3 2/2/2
f 3/3/3 4/4/4 2/2/2
f 5/5/5 7/7/7 6/6/6
f 7/7/7 8/8/8 6/6/6
f 9/9/9 11/11/11 10/10/10
f 11/11/11 12/12/12 10/10/10
f 13/13/13 15/15/15 14/14/14
f 15/15/15 16/16/16 14/14/14
f 17/17/17 19/19/19 18/18/18
f 19/19/19 20/20/20 18/18/18
f 21/21/21 23/23/23 22/22/22
f 23/23/23 24/24/24 22/22/22
o planter_rim
usemtl SURF_Concrete_Struct
v 0.4300000071525574 0.3999999973922968 0.33000001311302185
v 0.4300000071525574 0.3999999973922968 -0.33000001311302185
v 0.4300000071525574 0.34999999664723874 0.33000001311302185
v 0.4300000071525574 0.34999999664723874 -0.33000001311302185
v -0.4300000071525574 0.3999999973922968 -0.33000001311302185
v -0.4300000071525574 0.3999999973922968 0.33000001311302185
v -0.4300000071525574 0.34999999664723874 -0.33000001311302185
v -0.4300000071525574 0.34999999664723874 0.33000001311302185
v -0.4300000071525574 0.3999999973922968 -0.33000001311302185
v 0.4300000071525574 0.3999999973922968 -0.33000001311302185
v -0.4300000071525574 0.3999999973922968 0.33000001311302185
v 0.4300000071525574 0.3999999973922968 0.33000001311302185
v -0.4300000071525574 0.34999999664723874 0.33000001311302185
v 0.4300000071525574 0.34999999664723874 0.33000001311302185
v -0.4300000071525574 0.34999999664723874 -0.33000001311302185
v 0.4300000071525574 0.34999999664723874 -0.33000001311302185
v -0.4300000071525574 0.3999999973922968 0.33000001311302185
v 0.4300000071525574 0.3999999973922968 0.33000001311302185
v -0.4300000071525574 0.34999999664723874 0.33000001311302185
v 0.4300000071525574 0.34999999664723874 0.33000001311302185
v 0.4300000071525574 0.3999999973922968 -0.33000001311302185
v -0.4300000071525574 0.3999999973922968 -0.33000001311302185
v 0.4300000071525574 0.34999999664723874 -0.33000001311302185
v -0.4300000071525574 0.34999999664723874 -0.33000001311302185
vt 0 1
vt 1 1
vt 0 0
vt 1 0
vt 0 1
vt 1 1
vt 0 0
vt 1 0
vt 0 1
vt 1 1
vt 0 0
vt 1 0
vt 0 1
vt 1 1
vt 0 0
vt 1 0
vt 0 1
vt 1 1
vt 0 0
vt 1 0
vt 0 1
vt 1 1
vt 0 0
vt 1 0
vn 1 0 0
vn 1 0 0
vn 1 0 0
vn 1 0 0
vn -1 0 0
vn -1 0 0
vn -1 0 0
vn -1 0 0
vn 0 1 0
vn 0 1 0
vn 0 1 0
vn 0 1 0
vn 0 -1 0
vn 0 -1 0
vn 0 -1 0
vn 0 -1 0
vn 0 0 1
vn 0 0 1
vn 0 0 1
vn 0 0 1
vn 0 0 -1
vn 0 0 -1
vn 0 0 -1
vn 0 0 -1
f 25/25/25 27/27/27 26/26/26
f 27/27/27 28/28/28 26/26/26
f 29/29/29 31/31/31 30/30/30
f 31/31/31 32/32/32 30/30/30
f 33/33/33 35/35/35 34/34/34
f 35/35/35 36/36/36 34/34/34
f 37/37/37 39/39/39 38/38/38
f 39/39/39 40/40/40 38/38/38
f 41/41/41 43/43/43 42/42/42
f 43/43/43 44/44/44 42/42/42
f 45/45/45 47/47/47 46/46/46
f 47/47/47 48/48/48 46/46/46
o soil
usemtl SURF_Wood_Dark
v 0.36000001430511475 0.40499999668449166 0.25999999046325684
v 0.36000001430511475 0.40499999668449166 -0.25999999046325684
v 0.36000001430511475 0.3749999973550439 0.25999999046325684
v 0.36000001430511475 0.3749999973550439 -0.25999999046325684
v -0.36000001430511475 0.40499999668449166 -0.25999999046325684
v -0.36000001430511475 0.40499999668449166 0.25999999046325684
v -0.36000001430511475 0.3749999973550439 -0.25999999046325684
v -0.36000001430511475 0.3749999973550439 0.25999999046325684
v -0.36000001430511475 0.40499999668449166 -0.25999999046325684
v 0.36000001430511475 0.40499999668449166 -0.25999999046325684
v -0.36000001430511475 0.40499999668449166 0.25999999046325684
v 0.36000001430511475 0.40499999668449166 0.25999999046325684
v -0.36000001430511475 0.3749999973550439 0.25999999046325684
v 0.36000001430511475 0.3749999973550439 0.25999999046325684
v -0.36000001430511475 0.3749999973550439 -0.25999999046325684
v 0.36000001430511475 0.3749999973550439 -0.25999999046325684
v -0.36000001430511475 0.40499999668449166 0.25999999046325684
v 0.36000001430511475 0.40499999668449166 0.25999999046325684
v -0.36000001430511475 0.3749999973550439 0.25999999046325684
v 0.36000001430511475 0.3749999973550439 0.25999999046325684
v 0.36000001430511475 0.40499999668449166 -0.25999999046325684
v -0.36000001430511475 0.40499999668449166 -0.25999999046325684
v 0.36000001430511475 0.3749999973550439 -0.25999999046325684
v -0.36000001430511475 0.3749999973550439 -0.25999999046325684
vt 0 1
vt 1 1
vt 0 0
vt 1 0
vt 0 1
vt 1 1
vt 0 0
vt 1 0
vt 0 1
vt 1 1
vt 0 0
vt 1 0
vt 0 1
vt 1 1
vt 0 0
vt 1 0
vt 0 1
vt 1 1
vt 0 0
vt 1 0
vt 0 1
vt 1 1
vt 0 0
vt 1 0
vn 1 0 0
vn 1 0 0
vn 1 0 0
vn 1 0 0
vn -1 0 0
vn -1 0 0
vn -1 0 0
vn -1 0 0
vn 0 1 0
vn 0 1 0
vn 0 1 0
vn 0 1 0
vn 0 -1 0
vn 0 -1 0
vn 0 -1 0
vn 0 -1 0
vn 0 0 1
vn 0 0 1
vn 0 0 1
vn 0 0 1
vn 0 0 -1
vn 0 0 -1
vn 0 0 -1
vn 0 0 -1
f 49/49/49 51/51/51 50/50/50
f 51/51/51 52/52/52 50/50/50
f 53/53/53 55/55/55 54/54/54
f 55/55/55 56/56/56 54/54/54
f 57/57/57 59/59/59 58/58/58
f 59/59/59 60/60/60 58/58/58
f 61/61/61 63/63/63 62/62/62
f 63/63/63 64/64/64 62/62/62
f 65/65/65 67/67/67 66/66/66
f 67/67/67 68/68/68 66/66/66
f 69/69/69 71/71/71 70/70/70
f 71/71/71 72/72/72 70/70/70
o bush_a
usemtl SURF_Foliage_Tree
v 0.2400000011920929 0.7000000029802322 0.2199999988079071
v 0.2400000011920929 0.7000000029802322 -0.2199999988079071
v 0.2400000011920929 0.3999999910593033 0.2199999988079071
v 0.2400000011920929 0.3999999910593033 -0.2199999988079071
v -0.3200000011920929 0.7000000029802322 -0.2199999988079071
v -0.3200000011920929 0.7000000029802322 0.2199999988079071
v -0.3200000011920929 0.3999999910593033 -0.2199999988079071
v -0.3200000011920929 0.3999999910593033 0.2199999988079071
v -0.3200000011920929 0.7000000029802322 -0.2199999988079071
v 0.2400000011920929 0.7000000029802322 -0.2199999988079071
v -0.3200000011920929 0.7000000029802322 0.2199999988079071
v 0.2400000011920929 0.7000000029802322 0.2199999988079071
v -0.3200000011920929 0.3999999910593033 0.2199999988079071
v 0.2400000011920929 0.3999999910593033 0.2199999988079071
v -0.3200000011920929 0.3999999910593033 -0.2199999988079071
v 0.2400000011920929 0.3999999910593033 -0.2199999988079071
v -0.3200000011920929 0.7000000029802322 0.2199999988079071
v 0.2400000011920929 0.7000000029802322 0.2199999988079071
v -0.3200000011920929 0.3999999910593033 0.2199999988079071
v 0.2400000011920929 0.3999999910593033 0.2199999988079071
v 0.2400000011920929 0.7000000029802322 -0.2199999988079071
v -0.3200000011920929 0.7000000029802322 -0.2199999988079071
v 0.2400000011920929 0.3999999910593033 -0.2199999988079071
v -0.3200000011920929 0.3999999910593033 -0.2199999988079071
vt 0 1
vt 1 1
vt 0 0
vt 1 0
vt 0 1
vt 1 1
vt 0 0
vt 1 0
vt 0 1
vt 1 1
vt 0 0
vt 1 0
vt 0 1
vt 1 1
vt 0 0
vt 1 0
vt 0 1
vt 1 1
vt 0 0
vt 1 0
vt 0 1
vt 1 1
vt 0 0
vt 1 0
vn 1 0 0
vn 1 0 0
vn 1 0 0
vn 1 0 0
vn -1 0 0
vn -1 0 0
vn -1 0 0
vn -1 0 0
vn 0 1 0
vn 0 1 0
vn 0 1 0
vn 0 1 0
vn 0 -1 0
vn 0 -1 0
vn 0 -1 0
vn 0 -1 0
vn 0 0 1
vn 0 0 1
vn 0 0 1
vn 0 0 1
vn 0 0 -1
vn 0 0 -1
vn 0 0 -1
vn 0 0 -1
f 73/73/73 75/75/75 74/74/74
f 75/75/75 76/76/76 74/74/74
f 77/77/77 79/79/79 78/78/78
f 79/79/79 80/80/80 78/78/78
f 81/81/81 83/83/83 82/82/82
f 83/83/83 84/84/84 82/82/82
f 85/85/85 87/87/87 86/86/86
f 87/87/87 88/88/88 86/86/86
f 89/89/89 91/91/91 90/90/90
f 91/91/91 92/92/92 90/90/90
f 93/93/93 95/95/95 94/94/94
f 95/95/95 96/96/96 94/94/94
o bush_b
usemtl SURF_Foliage_Tree
v 0.3499999934434891 0.7599999922513963 0.23000000178813934
v 0.3499999934434891 0.7599999922513963 -0.11000000178813935
v 0.3499999934434891 0.5000000017881394 0.23000000178813934
v 0.3499999934434891 0.5000000017881394 -0.11000000178813935
v -0.06999999344348906 0.7599999922513963 -0.11000000178813935
v -0.06999999344348906 0.7599999922513963 0.23000000178813934
v -0.06999999344348906 0.5000000017881394 -0.11000000178813935
v -0.06999999344348906 0.5000000017881394 0.23000000178813934
v -0.06999999344348906 0.7599999922513963 -0.11000000178813935
v 0.3499999934434891 0.7599999922513963 -0.11000000178813935
v -0.06999999344348906 0.7599999922513963 0.23000000178813934
v 0.3499999934434891 0.7599999922513963 0.23000000178813934
v -0.06999999344348906 0.5000000017881394 0.23000000178813934
v 0.3499999934434891 0.5000000017881394 0.23000000178813934
v -0.06999999344348906 0.5000000017881394 -0.11000000178813935
v 0.3499999934434891 0.5000000017881394 -0.11000000178813935
v -0.06999999344348906 0.7599999922513963 0.23000000178813934
v 0.3499999934434891 0.7599999922513963 0.23000000178813934
v -0.06999999344348906 0.5000000017881394 0.23000000178813934
v 0.3499999934434891 0.5000000017881394 0.23000000178813934
v 0.3499999934434891 0.7599999922513963 -0.11000000178813935
v -0.06999999344348906 0.7599999922513963 -0.11000000178813935
v 0.3499999934434891 0.5000000017881394 -0.11000000178813935
v -0.06999999344348906 0.5000000017881394 -0.11000000178813935
vt 0 1
vt 1 1
vt 0 0
vt 1 0
vt 0 1
vt 1 1
vt 0 0
vt 1 0
vt 0 1
vt 1 1
vt 0 0
vt 1 0
vt 0 1
vt 1 1
vt 0 0
vt 1 0
vt 0 1
vt 1 1
vt 0 0
vt 1 0
vt 0 1
vt 1 1
vt 0 0
vt 1 0
vn 1 0 0
vn 1 0 0
vn 1 0 0
vn 1 0 0
vn -1 0 0
vn -1 0 0
vn -1 0 0
vn -1 0 0
vn 0 1 0
vn 0 1 0
vn 0 1 0
vn 0 1 0
vn 0 -1 0
vn 0 -1 0
vn 0 -1 0
vn 0 -1 0
vn 0 0 1
vn 0 0 1
vn 0 0 1
vn 0 0 1
vn 0 0 -1
vn 0 0 -1
vn 0 0 -1
vn 0 0 -1
f 97/97/97 99/99/99 98/98/98
f 99/99/99 100/100/100 98/98/98
f 101/101/101 103/103/103 102/102/102
f 103/103/103 104/104/104 102/102/102
f 105/105/105 107/107/107 106/106/106
f 107/107/107 108/108/108 106/106/106
f 109/109/109 111/111/111 110/110/110
f 111/111/111 112/112/112 110/110/110
f 113/113/113 115/115/115 114/114/114
f 115/115/115 116/116/116 114/114/114
f 117/117/117 119/119/119 118/118/118
f 119/119/119 120/120/120 118/118/118
