# SM_P1_Pole_Crossarm_A — Pole crossarm
# SC_P1_WALK · group A
# bounds 1.60 × 0.12 × 0.47 m · 120 tris · UV island 56 × 24 px
# 1 unit = 1 m · pivot at floor contact, X/Z centred
mtllib SM_P1_Pole_Crossarm_A.mtl
o arm_body
usemtl SURF_Wood_Dark
v 0.800000011920929 0.38618386166435503 0.05999999865889549
v 0.800000011920929 0.38618386166435503 -0.05999999865889549
v 0.800000011920929 0.2861838601742389 0.05999999865889549
v 0.800000011920929 0.2861838601742389 -0.05999999865889549
v -0.800000011920929 0.38618386166435503 -0.05999999865889549
v -0.800000011920929 0.38618386166435503 0.05999999865889549
v -0.800000011920929 0.2861838601742389 -0.05999999865889549
v -0.800000011920929 0.2861838601742389 0.05999999865889549
v -0.800000011920929 0.38618386166435503 -0.05999999865889549
v 0.800000011920929 0.38618386166435503 -0.05999999865889549
v -0.800000011920929 0.38618386166435503 0.05999999865889549
v 0.800000011920929 0.38618386166435503 0.05999999865889549
v -0.800000011920929 0.2861838601742389 0.05999999865889549
v 0.800000011920929 0.2861838601742389 0.05999999865889549
v -0.800000011920929 0.2861838601742389 -0.05999999865889549
v 0.800000011920929 0.2861838601742389 -0.05999999865889549
v -0.800000011920929 0.38618386166435503 0.05999999865889549
v 0.800000011920929 0.38618386166435503 0.05999999865889549
v -0.800000011920929 0.2861838601742389 0.05999999865889549
v 0.800000011920929 0.2861838601742389 0.05999999865889549
v 0.800000011920929 0.38618386166435503 -0.05999999865889549
v -0.800000011920929 0.38618386166435503 -0.05999999865889549
v 0.800000011920929 0.2861838601742389 -0.05999999865889549
v -0.800000011920929 0.2861838601742389 -0.05999999865889549
vt 0 1
vt 1 1
vt 0 0
vt 1 0
vt 0 1
vt 1 1
vt 0 0
vt 1 0
vt 0 1
vt 1 1
vt 0 0
vt 1 0
vt 0 1
vt 1 1
vt 0 0
vt 1 0
vt 0 1
vt 1 1
vt 0 0
vt 1 0
vt 0 1
vt 1 1
vt 0 0
vt 1 0
vn 1 0 0
vn 1 0 0
vn 1 0 0
vn 1 0 0
vn -1 0 0
vn -1 0 0
vn -1 0 0
vn -1 0 0
vn 0 1 0
vn 0 1 0
vn 0 1 0
vn 0 1 0
vn 0 -1 0
vn 0 -1 0
vn 0 -1 0
vn 0 -1 0
vn 0 0 1
vn 0 0 1
vn 0 0 1
vn 0 0 1
vn 0 0 -1
vn 0 0 -1
vn 0 0 -1
vn 0 0 -1
f 1/1/1 3/3/3 2/2/2
f 3/3/3 4/4/4 2/2/2
f 5/5/5 7/7/7 6/6/6
f 7/7/7 8/8/8 6/6/6
f 9/9/9 11/11/11 10/10/10
f 11/11/11 12/12/12 10/10/10
f 13/13/13 15/15/15 14/14/14
f 15/15/15 16/16/16 14/14/14
f 17/17/17 19/19/19 18/18/18
f 19/19/19 20/20/20 18/18/18
f 21/21/21 23/23/23 22/22/22
f 23/23/23 24/24/24 22/22/22
o brace
usemtl SURF_Wood_Dark
v 0.20501287463594697 0.29236772183859394 0.029999999329447746
v 0.20501287463594697 0.29236772183859394 -0.029999999329447746
v 0.2337784063092394 0.2397127693021015 0.029999999329447746
v 0.2337784063092394 0.2397127693021015 -0.029999999329447746
v -0.2337784063092394 0.05265495253649244 -0.029999999329447746
v -0.2337784063092394 0.05265495253649244 0.029999999329447746
v -0.20501287463594697 0 -0.029999999329447746
v -0.20501287463594697 0 0.029999999329447746
v -0.2337784063092394 0.05265495253649244 -0.029999999329447746
v 0.20501287463594697 0.29236772183859394 -0.029999999329447746
v -0.2337784063092394 0.05265495253649244 0.029999999329447746
v 0.20501287463594697 0.29236772183859394 0.029999999329447746
v -0.20501287463594697 0 0.029999999329447746
v 0.2337784063092394 0.2397127693021015 0.029999999329447746
v -0.20501287463594697 0 -0.029999999329447746
v 0.2337784063092394 0.2397127693021015 -0.029999999329447746
v -0.2337784063092394 0.05265495253649244 0.029999999329447746
v 0.20501287463594697 0.29236772183859394 0.029999999329447746
v -0.20501287463594697 0 0.029999999329447746
v 0.2337784063092394 0.2397127693021015 0.029999999329447746
v 0.20501287463594697 0.29236772183859394 -0.029999999329447746
v -0.2337784063092394 0.05265495253649244 -0.029999999329447746
v 0.2337784063092394 0.2397127693021015 -0.029999999329447746
v -0.20501287463594697 0 -0.029999999329447746
vt 0 1
vt 1 1
vt 0 0
vt 1 0
vt 0 1
vt 1 1
vt 0 0
vt 1 0
vt 0 1
vt 1 1
vt 0 0
vt 1 0
vt 0 1
vt 1 1
vt 0 0
vt 1 0
vt 0 1
vt 1 1
vt 0 0
vt 1 0
vt 0 1
vt 1 1
vt 0 0
vt 1 0
vn 0.8775825618903728 0.479425538604203 0
vn 0.8775825618903728 0.479425538604203 0
vn 0.8775825618903728 0.479425538604203 0
vn 0.8775825618903728 0.479425538604203 0
vn -0.8775825618903728 -0.479425538604203 0
vn -0.8775825618903728 -0.479425538604203 0
vn -0.8775825618903728 -0.479425538604203 0
vn -0.8775825618903728 -0.479425538604203 0
vn -0.479425538604203 0.8775825618903728 0
vn -0.479425538604203 0.8775825618903728 0
vn -0.479425538604203 0.8775825618903728 0
vn -0.479425538604203 0.8775825618903728 0
vn 0.479425538604203 -0.8775825618903728 0
vn 0.479425538604203 -0.8775825618903728 0
vn 0.479425538604203 -0.8775825618903728 0
vn 0.479425538604203 -0.8775825618903728 0
vn 0 0 1
vn 0 0 1
vn 0 0 1
vn 0 0 1
vn 0 0 -1
vn 0 0 -1
vn 0 0 -1
vn 0 0 -1
f 25/25/25 27/27/27 26/26/26
f 27/27/27 28/28/28 26/26/26
f 29/29/29 31/31/31 30/30/30
f 31/31/31 32/32/32 30/30/30
f 33/33/33 35/35/35 34/34/34
f 35/35/35 36/36/36 34/34/34
f 37/37/37 39/39/39 38/38/38
f 39/39/39 40/40/40 38/38/38
f 41/41/41 43/43/43 42/42/42
f 43/43/43 44/44/44 42/42/42
f 45/45/45 47/47/47 46/46/46
f 47/47/47 48/48/48 46/46/46
o insulator_0
usemtl SURF_Glass_Std
v -0.6 0.47118386270743634 0.03500000014901161
v -0.5696891102939844 0.47118386270743634 0.017500000074505806
v -0.5696891102939844 0.47118386270743634 -0.017500000074505806
v -0.6 0.47118386270743634 -0.03500000014901161
v -0.6303108897060156 0.47118386270743634 -0.017500000074505806
v -0.6303108897060156 0.47118386270743634 0.017500000074505806
v -0.6 0.47118386270743634 0.03500000014901161
v -0.6 0.38118385913115765 0.03500000014901161
v -0.5696891102939844 0.38118385913115765 0.017500000074505806
v -0.5696891102939844 0.38118385913115765 -0.017500000074505806
v -0.6 0.38118385913115765 -0.03500000014901161
v -0.6303108897060156 0.38118385913115765 -0.017500000074505806
v -0.6303108897060156 0.38118385913115765 0.017500000074505806
v -0.6 0.38118385913115765 0.03500000014901161
v -0.6 0.47118386270743634 0
v -0.6 0.47118386270743634 0
v -0.6 0.47118386270743634 0
v -0.6 0.47118386270743634 0
v -0.6 0.47118386270743634 0
v -0.6 0.47118386270743634 0
v -0.6 0.47118386270743634 0.03500000014901161
v -0.5696891102939844 0.47118386270743634 0.017500000074505806
v -0.5696891102939844 0.47118386270743634 -0.017500000074505806
v -0.6 0.47118386270743634 -0.03500000014901161
v -0.6303108897060156 0.47118386270743634 -0.017500000074505806
v -0.6303108897060156 0.47118386270743634 0.017500000074505806
v -0.6 0.47118386270743634 0.03500000014901161
v -0.6 0.38118385913115765 0
v -0.6 0.38118385913115765 0
v -0.6 0.38118385913115765 0
v -0.6 0.38118385913115765 0
v -0.6 0.38118385913115765 0
v -0.6 0.38118385913115765 0
v -0.6 0.38118385913115765 0.03500000014901161
v -0.5696891102939844 0.38118385913115765 0.017500000074505806
v -0.5696891102939844 0.38118385913115765 -0.017500000074505806
v -0.6 0.38118385913115765 -0.03500000014901161
v -0.6303108897060156 0.38118385913115765 -0.017500000074505806
v -0.6303108897060156 0.38118385913115765 0.017500000074505806
v -0.6 0.38118385913115765 0.03500000014901161
vt 0 1
vt 0.1666666716337204 1
vt 0.3333333432674408 1
vt 0.5 1
vt 0.6666666865348816 1
vt 0.8333333134651184 1
vt 1 1
vt 0 0
vt 0.1666666716337204 0
vt 0.3333333432674408 0
vt 0.5 0
vt 0.6666666865348816 0
vt 0.8333333134651184 0
vt 1 0
vt 0.5 0.5
vt 0.5 0.5
vt 0.5 0.5
vt 0.5 0.5
vt 0.5 0.5
vt 0.5 0.5
vt 1 0.5
vt 0.75 0.9330127239227295
vt 0.25 0.9330127239227295
vt 0 0.5
vt 0.25 0.0669872984290123
vt 0.75 0.0669872984290123
vt 1 0.5
vt 0.5 0.5
vt 0.5 0.5
vt 0.5 0.5
vt 0.5 0.5
vt 0.5 0.5
vt 0.5 0.5
vt 1 0.5
vt 0.75 0.0669872984290123
vt 0.25 0.0669872984290123
vt 0 0.5
vt 0.25 0.9330127239227295
vt 0.75 0.9330127239227295
vt 1 0.5
vn 0 0 1
vn 0.8660253998985324 0 0.5000000067305869
vn 0.8660253998985324 0 -0.5000000067305869
vn 1.2246468525851679e-16 0 -1
vn -0.8660253998985324 0 -0.5000000067305869
vn -0.8660253998985324 0 0.5000000067305869
vn -2.4492937051703357e-16 0 1
vn 0 0 1
vn 0.8660253998985324 0 0.5000000067305869
vn 0.8660253998985324 0 -0.5000000067305869
vn 1.2246468525851679e-16 0 -1
vn -0.8660253998985324 0 -0.5000000067305869
vn -0.8660253998985324 0 0.5000000067305869
vn -2.4492937051703357e-16 0 1
vn 0 1 0
vn 0 1 0
vn 0 1 0
vn 0 1 0
vn 0 1 0
vn 0 1 0
vn 0 1 0
vn 0 1 0
vn 0 1 0
vn 0 1 0
vn 0 1 0
vn 0 1 0
vn 0 1 0
vn 0 -1 0
vn 0 -1 0
vn 0 -1 0
vn 0 -1 0
vn 0 -1 0
vn 0 -1 0
vn 0 -1 0
vn 0 -1 0
vn 0 -1 0
vn 0 -1 0
vn 0 -1 0
vn 0 -1 0
vn 0 -1 0
f 49/49/49 56/56/56 50/50/50
f 56/56/56 57/57/57 50/50/50
f 50/50/50 57/57/57 51/51/51
f 57/57/57 58/58/58 51/51/51
f 51/51/51 58/58/58 52/52/52
f 58/58/58 59/59/59 52/52/52
f 52/52/52 59/59/59 53/53/53
f 59/59/59 60/60/60 53/53/53
f 53/53/53 60/60/60 54/54/54
f 60/60/60 61/61/61 54/54/54
f 54/54/54 61/61/61 55/55/55
f 61/61/61 62/62/62 55/55/55
f 69/69/69 70/70/70 63/63/63
f 70/70/70 71/71/71 64/64/64
f 71/71/71 72/72/72 65/65/65
f 72/72/72 73/73/73 66/66/66
f 73/73/73 74/74/74 67/67/67
f 74/74/74 75/75/75 68/68/68
f 83/83/83 82/82/82 76/76/76
f 84/84/84 83/83/83 77/77/77
f 85/85/85 84/84/84 78/78/78
f 86/86/86 85/85/85 79/79/79
f 87/87/87 86/86/86 80/80/80
f 88/88/88 87/87/87 81/81/81
o insulator_1
usemtl SURF_Glass_Std
v -0.19999999999999996 0.47118386270743634 0.03500000014901161
v -0.16968911029398437 0.47118386270743634 0.017500000074505806
v -0.16968911029398437 0.47118386270743634 -0.017500000074505806
v -0.19999999999999996 0.47118386270743634 -0.03500000014901161
v -0.23031088970601554 0.47118386270743634 -0.017500000074505806
v -0.23031088970601554 0.47118386270743634 0.017500000074505806
v -0.19999999999999996 0.47118386270743634 0.03500000014901161
v -0.19999999999999996 0.38118385913115765 0.03500000014901161
v -0.16968911029398437 0.38118385913115765 0.017500000074505806
v -0.16968911029398437 0.38118385913115765 -0.017500000074505806
v -0.19999999999999996 0.38118385913115765 -0.03500000014901161
v -0.23031088970601554 0.38118385913115765 -0.017500000074505806
v -0.23031088970601554 0.38118385913115765 0.017500000074505806
v -0.19999999999999996 0.38118385913115765 0.03500000014901161
v -0.19999999999999996 0.47118386270743634 0
v -0.19999999999999996 0.47118386270743634 0
v -0.19999999999999996 0.47118386270743634 0
v -0.19999999999999996 0.47118386270743634 0
v -0.19999999999999996 0.47118386270743634 0
v -0.19999999999999996 0.47118386270743634 0
v -0.19999999999999996 0.47118386270743634 0.03500000014901161
v -0.16968911029398437 0.47118386270743634 0.017500000074505806
v -0.16968911029398437 0.47118386270743634 -0.017500000074505806
v -0.19999999999999996 0.47118386270743634 -0.03500000014901161
v -0.23031088970601554 0.47118386270743634 -0.017500000074505806
v -0.23031088970601554 0.47118386270743634 0.017500000074505806
v -0.19999999999999996 0.47118386270743634 0.03500000014901161
v -0.19999999999999996 0.38118385913115765 0
v -0.19999999999999996 0.38118385913115765 0
v -0.19999999999999996 0.38118385913115765 0
v -0.19999999999999996 0.38118385913115765 0
v -0.19999999999999996 0.38118385913115765 0
v -0.19999999999999996 0.38118385913115765 0
v -0.19999999999999996 0.38118385913115765 0.03500000014901161
v -0.16968911029398437 0.38118385913115765 0.017500000074505806
v -0.16968911029398437 0.38118385913115765 -0.017500000074505806
v -0.19999999999999996 0.38118385913115765 -0.03500000014901161
v -0.23031088970601554 0.38118385913115765 -0.017500000074505806
v -0.23031088970601554 0.38118385913115765 0.017500000074505806
v -0.19999999999999996 0.38118385913115765 0.03500000014901161
vt 0 1
vt 0.1666666716337204 1
vt 0.3333333432674408 1
vt 0.5 1
vt 0.6666666865348816 1
vt 0.8333333134651184 1
vt 1 1
vt 0 0
vt 0.1666666716337204 0
vt 0.3333333432674408 0
vt 0.5 0
vt 0.6666666865348816 0
vt 0.8333333134651184 0
vt 1 0
vt 0.5 0.5
vt 0.5 0.5
vt 0.5 0.5
vt 0.5 0.5
vt 0.5 0.5
vt 0.5 0.5
vt 1 0.5
vt 0.75 0.9330127239227295
vt 0.25 0.9330127239227295
vt 0 0.5
vt 0.25 0.0669872984290123
vt 0.75 0.0669872984290123
vt 1 0.5
vt 0.5 0.5
vt 0.5 0.5
vt 0.5 0.5
vt 0.5 0.5
vt 0.5 0.5
vt 0.5 0.5
vt 1 0.5
vt 0.75 0.0669872984290123
vt 0.25 0.0669872984290123
vt 0 0.5
vt 0.25 0.9330127239227295
vt 0.75 0.9330127239227295
vt 1 0.5
vn 0 0 1
vn 0.8660253998985324 0 0.5000000067305869
vn 0.8660253998985324 0 -0.5000000067305869
vn 1.2246468525851679e-16 0 -1
vn -0.8660253998985324 0 -0.5000000067305869
vn -0.8660253998985324 0 0.5000000067305869
vn -2.4492937051703357e-16 0 1
vn 0 0 1
vn 0.8660253998985324 0 0.5000000067305869
vn 0.8660253998985324 0 -0.5000000067305869
vn 1.2246468525851679e-16 0 -1
vn -0.8660253998985324 0 -0.5000000067305869
vn -0.8660253998985324 0 0.5000000067305869
vn -2.4492937051703357e-16 0 1
vn 0 1 0
vn 0 1 0
vn 0 1 0
vn 0 1 0
vn 0 1 0
vn 0 1 0
vn 0 1 0
vn 0 1 0
vn 0 1 0
vn 0 1 0
vn 0 1 0
vn 0 1 0
vn 0 1 0
vn 0 -1 0
vn 0 -1 0
vn 0 -1 0
vn 0 -1 0
vn 0 -1 0
vn 0 -1 0
vn 0 -1 0
vn 0 -1 0
vn 0 -1 0
vn 0 -1 0
vn 0 -1 0
vn 0 -1 0
vn 0 -1 0
f 89/89/89 96/96/96 90/90/90
f 96/96/96 97/97/97 90/90/90
f 90/90/90 97/97/97 91/91/91
f 97/97/97 98/98/98 91/91/91
f 91/91/91 98/98/98 92/92/92
f 98/98/98 99/99/99 92/92/92
f 92/92/92 99/99/99 93/93/93
f 99/99/99 100/100/100 93/93/93
f 93/93/93 100/100/100 94/94/94
f 100/100/100 101/101/101 94/94/94
f 94/94/94 101/101/101 95/95/95
f 101/101/101 102/102/102 95/95/95
f 109/109/109 110/110/110 103/103/103
f 110/110/110 111/111/111 104/104/104
f 111/111/111 112/112/112 105/105/105
f 112/112/112 113/113/113 106/106/106
f 113/113/113 114/114/114 107/107/107
f 114/114/114 115/115/115 108/108/108
f 123/123/123 122/122/122 116/116/116
f 124/124/124 123/123/123 117/117/117
f 125/125/125 124/124/124 118/118/118
f 126/126/126 125/125/125 119/119/119
f 127/127/127 126/126/126 120/120/120
f 128/128/128 127/127/127 121/121/121
o insulator_2
usemtl SURF_Glass_Std
v 0.20000000000000007 0.47118386270743634 0.03500000014901161
v 0.23031088970601565 0.47118386270743634 0.017500000074505806
v 0.23031088970601565 0.47118386270743634 -0.017500000074505806
v 0.20000000000000007 0.47118386270743634 -0.03500000014901161
v 0.16968911029398448 0.47118386270743634 -0.017500000074505806
v 0.16968911029398448 0.47118386270743634 0.017500000074505806
v 0.20000000000000007 0.47118386270743634 0.03500000014901161
v 0.20000000000000007 0.38118385913115765 0.03500000014901161
v 0.23031088970601565 0.38118385913115765 0.017500000074505806
v 0.23031088970601565 0.38118385913115765 -0.017500000074505806
v 0.20000000000000007 0.38118385913115765 -0.03500000014901161
v 0.16968911029398448 0.38118385913115765 -0.017500000074505806
v 0.16968911029398448 0.38118385913115765 0.017500000074505806
v 0.20000000000000007 0.38118385913115765 0.03500000014901161
v 0.20000000000000007 0.47118386270743634 0
v 0.20000000000000007 0.47118386270743634 0
v 0.20000000000000007 0.47118386270743634 0
v 0.20000000000000007 0.47118386270743634 0
v 0.20000000000000007 0.47118386270743634 0
v 0.20000000000000007 0.47118386270743634 0
v 0.20000000000000007 0.47118386270743634 0.03500000014901161
v 0.23031088970601565 0.47118386270743634 0.017500000074505806
v 0.23031088970601565 0.47118386270743634 -0.017500000074505806
v 0.20000000000000007 0.47118386270743634 -0.03500000014901161
v 0.16968911029398448 0.47118386270743634 -0.017500000074505806
v 0.16968911029398448 0.47118386270743634 0.017500000074505806
v 0.20000000000000007 0.47118386270743634 0.03500000014901161
v 0.20000000000000007 0.38118385913115765 0
v 0.20000000000000007 0.38118385913115765 0
v 0.20000000000000007 0.38118385913115765 0
v 0.20000000000000007 0.38118385913115765 0
v 0.20000000000000007 0.38118385913115765 0
v 0.20000000000000007 0.38118385913115765 0
v 0.20000000000000007 0.38118385913115765 0.03500000014901161
v 0.23031088970601565 0.38118385913115765 0.017500000074505806
v 0.23031088970601565 0.38118385913115765 -0.017500000074505806
v 0.20000000000000007 0.38118385913115765 -0.03500000014901161
v 0.16968911029398448 0.38118385913115765 -0.017500000074505806
v 0.16968911029398448 0.38118385913115765 0.017500000074505806
v 0.20000000000000007 0.38118385913115765 0.03500000014901161
vt 0 1
vt 0.1666666716337204 1
vt 0.3333333432674408 1
vt 0.5 1
vt 0.6666666865348816 1
vt 0.8333333134651184 1
vt 1 1
vt 0 0
vt 0.1666666716337204 0
vt 0.3333333432674408 0
vt 0.5 0
vt 0.6666666865348816 0
vt 0.8333333134651184 0
vt 1 0
vt 0.5 0.5
vt 0.5 0.5
vt 0.5 0.5
vt 0.5 0.5
vt 0.5 0.5
vt 0.5 0.5
vt 1 0.5
vt 0.75 0.9330127239227295
vt 0.25 0.9330127239227295
vt 0 0.5
vt 0.25 0.0669872984290123
vt 0.75 0.0669872984290123
vt 1 0.5
vt 0.5 0.5
vt 0.5 0.5
vt 0.5 0.5
vt 0.5 0.5
vt 0.5 0.5
vt 0.5 0.5
vt 1 0.5
vt 0.75 0.0669872984290123
vt 0.25 0.0669872984290123
vt 0 0.5
vt 0.25 0.9330127239227295
vt 0.75 0.9330127239227295
vt 1 0.5
vn 0 0 1
vn 0.8660253998985324 0 0.5000000067305869
vn 0.8660253998985324 0 -0.5000000067305869
vn 1.2246468525851679e-16 0 -1
vn -0.8660253998985324 0 -0.5000000067305869
vn -0.8660253998985324 0 0.5000000067305869
vn -2.4492937051703357e-16 0 1
vn 0 0 1
vn 0.8660253998985324 0 0.5000000067305869
vn 0.8660253998985324 0 -0.5000000067305869
vn 1.2246468525851679e-16 0 -1
vn -0.8660253998985324 0 -0.5000000067305869
vn -0.8660253998985324 0 0.5000000067305869
vn -2.4492937051703357e-16 0 1
vn 0 1 0
vn 0 1 0
vn 0 1 0
vn 0 1 0
vn 0 1 0
vn 0 1 0
vn 0 1 0
vn 0 1 0
vn 0 1 0
vn 0 1 0
vn 0 1 0
vn 0 1 0
vn 0 1 0
vn 0 -1 0
vn 0 -1 0
vn 0 -1 0
vn 0 -1 0
vn 0 -1 0
vn 0 -1 0
vn 0 -1 0
vn 0 -1 0
vn 0 -1 0
vn 0 -1 0
vn 0 -1 0
vn 0 -1 0
vn 0 -1 0
f 129/129/129 136/136/136 130/130/130
f 136/136/136 137/137/137 130/130/130
f 130/130/130 137/137/137 131/131/131
f 137/137/137 138/138/138 131/131/131
f 131/131/131 138/138/138 132/132/132
f 138/138/138 139/139/139 132/132/132
f 132/132/132 139/139/139 133/133/133
f 139/139/139 140/140/140 133/133/133
f 133/133/133 140/140/140 134/134/134
f 140/140/140 141/141/141 134/134/134
f 134/134/134 141/141/141 135/135/135
f 141/141/141 142/142/142 135/135/135
f 149/149/149 150/150/150 143/143/143
f 150/150/150 151/151/151 144/144/144
f 151/151/151 152/152/152 145/145/145
f 152/152/152 153/153/153 146/146/146
f 153/153/153 154/154/154 147/147/147
f 154/154/154 155/155/155 148/148/148
f 163/163/163 162/162/162 156/156/156
f 164/164/164 163/163/163 157/157/157
f 165/165/165 164/164/164 158/158/158
f 166/166/166 165/165/165 159/159/159
f 167/167/167 166/166/166 160/160/160
f 168/168/168 167/167/167 161/161/161
o insulator_3
usemtl SURF_Glass_Std
v 0.6000000000000002 0.47118386270743634 0.03500000014901161
v 0.6303108897060158 0.47118386270743634 0.017500000074505806
v 0.6303108897060158 0.47118386270743634 -0.017500000074505806
v 0.6000000000000002 0.47118386270743634 -0.03500000014901161
v 0.5696891102939846 0.47118386270743634 -0.017500000074505806
v 0.5696891102939846 0.47118386270743634 0.017500000074505806
v 0.6000000000000002 0.47118386270743634 0.03500000014901161
v 0.6000000000000002 0.38118385913115765 0.03500000014901161
v 0.6303108897060158 0.38118385913115765 0.017500000074505806
v 0.6303108897060158 0.38118385913115765 -0.017500000074505806
v 0.6000000000000002 0.38118385913115765 -0.03500000014901161
v 0.5696891102939846 0.38118385913115765 -0.017500000074505806
v 0.5696891102939846 0.38118385913115765 0.017500000074505806
v 0.6000000000000002 0.38118385913115765 0.03500000014901161
v 0.6000000000000002 0.47118386270743634 0
v 0.6000000000000002 0.47118386270743634 0
v 0.6000000000000002 0.47118386270743634 0
v 0.6000000000000002 0.47118386270743634 0
v 0.6000000000000002 0.47118386270743634 0
v 0.6000000000000002 0.47118386270743634 0
v 0.6000000000000002 0.47118386270743634 0.03500000014901161
v 0.6303108897060158 0.47118386270743634 0.017500000074505806
v 0.6303108897060158 0.47118386270743634 -0.017500000074505806
v 0.6000000000000002 0.47118386270743634 -0.03500000014901161
v 0.5696891102939846 0.47118386270743634 -0.017500000074505806
v 0.5696891102939846 0.47118386270743634 0.017500000074505806
v 0.6000000000000002 0.47118386270743634 0.03500000014901161
v 0.6000000000000002 0.38118385913115765 0
v 0.6000000000000002 0.38118385913115765 0
v 0.6000000000000002 0.38118385913115765 0
v 0.6000000000000002 0.38118385913115765 0
v 0.6000000000000002 0.38118385913115765 0
v 0.6000000000000002 0.38118385913115765 0
v 0.6000000000000002 0.38118385913115765 0.03500000014901161
v 0.6303108897060158 0.38118385913115765 0.017500000074505806
v 0.6303108897060158 0.38118385913115765 -0.017500000074505806
v 0.6000000000000002 0.38118385913115765 -0.03500000014901161
v 0.5696891102939846 0.38118385913115765 -0.017500000074505806
v 0.5696891102939846 0.38118385913115765 0.017500000074505806
v 0.6000000000000002 0.38118385913115765 0.03500000014901161
vt 0 1
vt 0.1666666716337204 1
vt 0.3333333432674408 1
vt 0.5 1
vt 0.6666666865348816 1
vt 0.8333333134651184 1
vt 1 1
vt 0 0
vt 0.1666666716337204 0
vt 0.3333333432674408 0
vt 0.5 0
vt 0.6666666865348816 0
vt 0.8333333134651184 0
vt 1 0
vt 0.5 0.5
vt 0.5 0.5
vt 0.5 0.5
vt 0.5 0.5
vt 0.5 0.5
vt 0.5 0.5
vt 1 0.5
vt 0.75 0.9330127239227295
vt 0.25 0.9330127239227295
vt 0 0.5
vt 0.25 0.0669872984290123
vt 0.75 0.0669872984290123
vt 1 0.5
vt 0.5 0.5
vt 0.5 0.5
vt 0.5 0.5
vt 0.5 0.5
vt 0.5 0.5
vt 0.5 0.5
vt 1 0.5
vt 0.75 0.0669872984290123
vt 0.25 0.0669872984290123
vt 0 0.5
vt 0.25 0.9330127239227295
vt 0.75 0.9330127239227295
vt 1 0.5
vn 0 0 1
vn 0.8660253998985324 0 0.5000000067305869
vn 0.8660253998985324 0 -0.5000000067305869
vn 1.2246468525851679e-16 0 -1
vn -0.8660253998985324 0 -0.5000000067305869
vn -0.8660253998985324 0 0.5000000067305869
vn -2.4492937051703357e-16 0 1
vn 0 0 1
vn 0.8660253998985324 0 0.5000000067305869
vn 0.8660253998985324 0 -0.5000000067305869
vn 1.2246468525851679e-16 0 -1
vn -0.8660253998985324 0 -0.5000000067305869
vn -0.8660253998985324 0 0.5000000067305869
vn -2.4492937051703357e-16 0 1
vn 0 1 0
vn 0 1 0
vn 0 1 0
vn 0 1 0
vn 0 1 0
vn 0 1 0
vn 0 1 0
vn 0 1 0
vn 0 1 0
vn 0 1 0
vn 0 1 0
vn 0 1 0
vn 0 1 0
vn 0 -1 0
vn 0 -1 0
vn 0 -1 0
vn 0 -1 0
vn 0 -1 0
vn 0 -1 0
vn 0 -1 0
vn 0 -1 0
vn 0 -1 0
vn 0 -1 0
vn 0 -1 0
vn 0 -1 0
vn 0 -1 0
f 169/169/169 176/176/176 170/170/170
f 176/176/176 177/177/177 170/170/170
f 170/170/170 177/177/177 171/171/171
f 177/177/177 178/178/178 171/171/171
f 171/171/171 178/178/178 172/172/172
f 178/178/178 179/179/179 172/172/172
f 172/172/172 179/179/179 173/173/173
f 179/179/179 180/180/180 173/173/173
f 173/173/173 180/180/180 174/174/174
f 180/180/180 181/181/181 174/174/174
f 174/174/174 181/181/181 175/175/175
f 181/181/181 182/182/182 175/175/175
f 189/189/189 190/190/190 183/183/183
f 190/190/190 191/191/191 184/184/184
f 191/191/191 192/192/192 185/185/185
f 192/192/192 193/193/193 186/186/186
f 193/193/193 194/194/194 187/187/187
f 194/194/194 195/195/195 188/188/188
f 203/203/203 202/202/202 196/196/196
f 204/204/204 203/203/203 197/197/197
f 205/205/205 204/204/204 198/198/198
f 206/206/206 205/205/205 199/199/199
f 207/207/207 206/206/206 200/200/200
f 208/208/208 207/207/207 201/201/201
