# SM_P1_House_Door_A — House door
# SC_P1_WALK · group A
# bounds 1.00 × 0.35 × 2.00 m · 68 tris · UV island 72 × 64 px
# 1 unit = 1 m · pivot at floor contact, X/Z centred
mtllib SM_P1_House_Door_A.mtl
o leaf
usemtl SURF_Storefront_Wood
v 0.44999998807907104 2.0000000007450582 -0.09500000432133676
v 0.44999998807907104 2.0000000007450582 -0.17500000253319742
v 0.44999998807907104 7.450580152834618e-10 -0.09500000432133676
v 0.44999998807907104 7.450580152834618e-10 -0.17500000253319742
v -0.44999998807907104 2.0000000007450582 -0.17500000253319742
v -0.44999998807907104 2.0000000007450582 -0.09500000432133676
v -0.44999998807907104 7.450580152834618e-10 -0.17500000253319742
v -0.44999998807907104 7.450580152834618e-10 -0.09500000432133676
v -0.44999998807907104 2.0000000007450582 -0.17500000253319742
v 0.44999998807907104 2.0000000007450582 -0.17500000253319742
v -0.44999998807907104 2.0000000007450582 -0.09500000432133676
v 0.44999998807907104 2.0000000007450582 -0.09500000432133676
v -0.44999998807907104 7.450580152834618e-10 -0.09500000432133676
v 0.44999998807907104 7.450580152834618e-10 -0.09500000432133676
v -0.44999998807907104 7.450580152834618e-10 -0.17500000253319742
v 0.44999998807907104 7.450580152834618e-10 -0.17500000253319742
v -0.44999998807907104 2.0000000007450582 -0.09500000432133676
v 0.44999998807907104 2.0000000007450582 -0.09500000432133676
v -0.44999998807907104 7.450580152834618e-10 -0.09500000432133676
v 0.44999998807907104 7.450580152834618e-10 -0.09500000432133676
v 0.44999998807907104 2.0000000007450582 -0.17500000253319742
v -0.44999998807907104 2.0000000007450582 -0.17500000253319742
v 0.44999998807907104 7.450580152834618e-10 -0.17500000253319742
v -0.44999998807907104 7.450580152834618e-10 -0.17500000253319742
vt 0 1
vt 1 1
vt 0 0
vt 1 0
vt 0 1
vt 1 1
vt 0 0
vt 1 0
vt 0 1
vt 1 1
vt 0 0
vt 1 0
vt 0 1
vt 1 1
vt 0 0
vt 1 0
vt 0 1
vt 1 1
vt 0 0
vt 1 0
vt 0 1
vt 1 1
vt 0 0
vt 1 0
vn 1 0 0
vn 1 0 0
vn 1 0 0
vn 1 0 0
vn -1 0 0
vn -1 0 0
vn -1 0 0
vn -1 0 0
vn 0 1 0
vn 0 1 0
vn 0 1 0
vn 0 1 0
vn 0 -1 0
vn 0 -1 0
vn 0 -1 0
vn 0 -1 0
vn 0 0 1
vn 0 0 1
vn 0 0 1
vn 0 0 1
vn 0 0 -1
vn 0 0 -1
vn 0 0 -1
vn 0 0 -1
f 1/1/1 3/3/3 2/2/2
f 3/3/3 4/4/4 2/2/2
f 5/5/5 7/7/7 6/6/6
f 7/7/7 8/8/8 6/6/6
f 9/9/9 11/11/11 10/10/10
f 11/11/11 12/12/12 10/10/10
f 13/13/13 15/15/15 14/14/14
f 15/15/15 16/16/16 14/14/14
f 17/17/17 19/19/19 18/18/18
f 19/19/19 20/20/20 18/18/18
f 21/21/21 23/23/23 22/22/22
f 23/23/23 24/24/24 22/22/22
o panel
usemtl SURF_Wood_Dark
v 0.3100000023841858 1.750000012665987 -0.0750000036507845
v 0.3100000023841858 1.750000012665987 -0.09500000320374967
v 0.3100000023841858 0.649999988824129 -0.0750000036507845
v 0.3100000023841858 0.649999988824129 -0.09500000320374967
v -0.3100000023841858 1.750000012665987 -0.09500000320374967
v -0.3100000023841858 1.750000012665987 -0.0750000036507845
v -0.3100000023841858 0.649999988824129 -0.09500000320374967
v -0.3100000023841858 0.649999988824129 -0.0750000036507845
v -0.3100000023841858 1.750000012665987 -0.09500000320374967
v 0.3100000023841858 1.750000012665987 -0.09500000320374967
v -0.3100000023841858 1.750000012665987 -0.0750000036507845
v 0.3100000023841858 1.750000012665987 -0.0750000036507845
v -0.3100000023841858 0.649999988824129 -0.0750000036507845
v 0.3100000023841858 0.649999988824129 -0.0750000036507845
v -0.3100000023841858 0.649999988824129 -0.09500000320374967
v 0.3100000023841858 0.649999988824129 -0.09500000320374967
v -0.3100000023841858 1.750000012665987 -0.0750000036507845
v 0.3100000023841858 1.750000012665987 -0.0750000036507845
v -0.3100000023841858 0.649999988824129 -0.0750000036507845
v 0.3100000023841858 0.649999988824129 -0.0750000036507845
v 0.3100000023841858 1.750000012665987 -0.09500000320374967
v -0.3100000023841858 1.750000012665987 -0.09500000320374967
v 0.3100000023841858 0.649999988824129 -0.09500000320374967
v -0.3100000023841858 0.649999988824129 -0.09500000320374967
vt 0 1
vt 1 1
vt 0 0
vt 1 0
vt 0 1
vt 1 1
vt 0 0
vt 1 0
vt 0 1
vt 1 1
vt 0 0
vt 1 0
vt 0 1
vt 1 1
vt 0 0
vt 1 0
vt 0 1
vt 1 1
vt 0 0
vt 1 0
vt 0 1
vt 1 1
vt 0 0
vt 1 0
vn 1 0 0
vn 1 0 0
vn 1 0 0
vn 1 0 0
vn -1 0 0
vn -1 0 0
vn -1 0 0
vn -1 0 0
vn 0 1 0
vn 0 1 0
vn 0 1 0
vn 0 1 0
vn 0 -1 0
vn 0 -1 0
vn 0 -1 0
vn 0 -1 0
vn 0 0 1
vn 0 0 1
vn 0 0 1
vn 0 0 1
vn 0 0 -1
vn 0 0 -1
vn 0 0 -1
vn 0 0 -1
f 25/25/25 27/27/27 26/26/26
f 27/27/27 28/28/28 26/26/26
f 29/29/29 31/31/31 30/30/30
f 31/31/31 32/32/32 30/30/30
f 33/33/33 35/35/35 34/34/34
f 35/35/35 36/36/36 34/34/34
f 37/37/37 39/39/39 38/38/38
f 39/39/39 40/40/40 38/38/38
f 41/41/41 43/43/43 42/42/42
f 43/43/43 44/44/44 42/42/42
f 45/45/45 47/47/47 46/46/46
f 47/47/47 48/48/48 46/46/46
o step
usemtl SURF_Concrete_Struct
v 0.5 0.10000000149011612 0.1750000025331974
v 0.5 0.10000000149011612 -0.12500000938773156
v 0.5 0 0.1750000025331974
v 0.5 0 -0.12500000938773156
v -0.5 0.10000000149011612 -0.12500000938773156
v -0.5 0.10000000149011612 0.1750000025331974
v -0.5 0 -0.12500000938773156
v -0.5 0 0.1750000025331974
v -0.5 0.10000000149011612 -0.12500000938773156
v 0.5 0.10000000149011612 -0.12500000938773156
v -0.5 0.10000000149011612 0.1750000025331974
v 0.5 0.10000000149011612 0.1750000025331974
v -0.5 0 0.1750000025331974
v 0.5 0 0.1750000025331974
v -0.5 0 -0.12500000938773156
v 0.5 0 -0.12500000938773156
v -0.5 0.10000000149011612 0.1750000025331974
v 0.5 0.10000000149011612 0.1750000025331974
v -0.5 0 0.1750000025331974
v 0.5 0 0.1750000025331974
v 0.5 0.10000000149011612 -0.12500000938773156
v -0.5 0.10000000149011612 -0.12500000938773156
v 0.5 0 -0.12500000938773156
v -0.5 0 -0.12500000938773156
vt 0 1
vt 1 1
vt 0 0
vt 1 0
vt 0 1
vt 1 1
vt 0 0
vt 1 0
vt 0 1
vt 1 1
vt 0 0
vt 1 0
vt 0 1
vt 1 1
vt 0 0
vt 1 0
vt 0 1
vt 1 1
vt 0 0
vt 1 0
vt 0 1
vt 1 1
vt 0 0
vt 1 0
vn 1 0 0
vn 1 0 0
vn 1 0 0
vn 1 0 0
vn -1 0 0
vn -1 0 0
vn -1 0 0
vn -1 0 0
vn 0 1 0
vn 0 1 0
vn 0 1 0
vn 0 1 0
vn 0 -1 0
vn 0 -1 0
vn 0 -1 0
vn 0 -1 0
vn 0 0 1
vn 0 0 1
vn 0 0 1
vn 0 0 1
vn 0 0 -1
vn 0 0 -1
vn 0 0 -1
vn 0 0 -1
f 49/49/49 51/51/51 50/50/50
f 51/51/51 52/52/52 50/50/50
f 53/53/53 55/55/55 54/54/54
f 55/55/55 56/56/56 54/54/54
f 57/57/57 59/59/59 58/58/58
f 59/59/59 60/60/60 58/58/58
f 61/61/61 63/63/63 62/62/62
f 63/63/63 64/64/64 62/62/62
f 65/65/65 67/67/67 66/66/66
f 67/67/67 68/68/68 66/66/66
f 69/69/69 71/71/71 70/70/70
f 71/71/71 72/72/72 70/70/70
o handle
usemtl SURF_Metal_Fence
v 0.28999999925494196 1.020000000745058 -0.035000003874301924
v 0.28999999925494196 1.0341421359032392 -0.0408578682690859
v 0.28999999925494196 1.0400000002980232 -0.05500000342726709
v 0.28999999925494196 1.0341421359032392 -0.06914213858544828
v 0.28999999925494196 1.020000000745058 -0.07500000298023225
v 0.28999999925494196 1.0058578655868768 -0.06914213858544828
v 0.28999999925494196 1.0000000011920929 -0.055000003427267095
v 0.28999999925494196 1.0058578655868768 -0.0408578682690859
v 0.28999999925494196 1.020000000745058 -0.035000003874301924
v 0.3900000007450581 1.020000000745058 -0.035000003874301924
v 0.3900000007450581 1.0341421359032392 -0.0408578682690859
v 0.3900000007450581 1.0400000002980232 -0.05500000342726709
v 0.3900000007450581 1.0341421359032392 -0.06914213858544828
v 0.3900000007450581 1.020000000745058 -0.07500000298023225
v 0.3900000007450581 1.0058578655868768 -0.06914213858544828
v 0.3900000007450581 1.0000000011920929 -0.055000003427267095
v 0.3900000007450581 1.0058578655868768 -0.0408578682690859
v 0.3900000007450581 1.020000000745058 -0.035000003874301924
v 0.28999999925494196 1.020000000745058 -0.05500000342726709
v 0.28999999925494196 1.020000000745058 -0.05500000342726709
v 0.28999999925494196 1.020000000745058 -0.05500000342726709
v 0.28999999925494196 1.020000000745058 -0.05500000342726709
v 0.28999999925494196 1.020000000745058 -0.05500000342726709
v 0.28999999925494196 1.020000000745058 -0.05500000342726709
v 0.28999999925494196 1.020000000745058 -0.05500000342726709
v 0.28999999925494196 1.020000000745058 -0.05500000342726709
v 0.28999999925494196 1.020000000745058 -0.035000003874301924
v 0.28999999925494196 1.0341421359032392 -0.0408578682690859
v 0.28999999925494196 1.0400000002980232 -0.05500000342726709
v 0.28999999925494196 1.0341421359032392 -0.06914213858544828
v 0.28999999925494196 1.020000000745058 -0.07500000298023225
v 0.28999999925494196 1.0058578655868768 -0.06914213858544828
v 0.28999999925494196 1.0000000011920929 -0.055000003427267095
v 0.28999999925494196 1.0058578655868768 -0.0408578682690859
v 0.28999999925494196 1.020000000745058 -0.035000003874301924
v 0.3900000007450581 1.020000000745058 -0.05500000342726709
v 0.3900000007450581 1.020000000745058 -0.05500000342726709
v 0.3900000007450581 1.020000000745058 -0.05500000342726709
v 0.3900000007450581 1.020000000745058 -0.05500000342726709
v 0.3900000007450581 1.020000000745058 -0.05500000342726709
v 0.3900000007450581 1.020000000745058 -0.05500000342726709
v 0.3900000007450581 1.020000000745058 -0.05500000342726709
v 0.3900000007450581 1.020000000745058 -0.05500000342726709
v 0.3900000007450581 1.020000000745058 -0.035000003874301924
v 0.3900000007450581 1.0341421359032392 -0.0408578682690859
v 0.3900000007450581 1.0400000002980232 -0.05500000342726709
v 0.3900000007450581 1.0341421359032392 -0.06914213858544828
v 0.3900000007450581 1.020000000745058 -0.07500000298023225
v 0.3900000007450581 1.0058578655868768 -0.06914213858544828
v 0.3900000007450581 1.0000000011920929 -0.055000003427267095
v 0.3900000007450581 1.0058578655868768 -0.0408578682690859
v 0.3900000007450581 1.020000000745058 -0.035000003874301924
vt 0 1
vt 0.125 1
vt 0.25 1
vt 0.375 1
vt 0.5 1
vt 0.625 1
vt 0.75 1
vt 0.875 1
vt 1 1
vt 0 0
vt 0.125 0
vt 0.25 0
vt 0.375 0
vt 0.5 0
vt 0.625 0
vt 0.75 0
vt 0.875 0
vt 1 0
vt 0.5 0.5
vt 0.5 0.5
vt 0.5 0.5
vt 0.5 0.5
vt 0.5 0.5
vt 0.5 0.5
vt 0.5 0.5
vt 0.5 0.5
vt 1 0.5
vt 0.8535534143447876 0.8535534143447876
vt 0.5 1
vt 0.1464466154575348 0.8535534143447876
vt 0 0.5
vt 0.1464466154575348 0.1464466154575348
vt 0.5 0
vt 0.8535534143447876 0.1464466154575348
vt 1 0.5
vt 0.5 0.5
vt 0.5 0.5
vt 0.5 0.5
vt 0.5 0.5
vt 0.5 0.5
vt 0.5 0.5
vt 0.5 0.5
vt 0.5 0.5
vt 1 0.5
vt 0.8535534143447876 0.1464466154575348
vt 0.5 0
vt 0.1464466154575348 0.1464466154575348
vt 0 0.5
vt 0.1464466154575348 0.8535534143447876
vt 0.5 1
vt 0.8535534143447876 0.8535534143447876
vt 1 0.5
vn 0 0 1
vn -1.5700924586837744e-16 0.7071067811865475 0.7071067811865476
vn -2.2204460492503126e-16 1 6.12323426292584e-17
vn -1.5700924586837744e-16 0.7071067811865475 -0.7071067811865476
vn -2.7192622655495654e-32 1.2246468525851676e-16 -1
vn 1.5700924586837744e-16 -0.7071067811865475 -0.7071067811865476
vn 2.2204460492503126e-16 -1 -1.8369701465288543e-16
vn 1.5700924586837744e-16 -0.7071067811865475 0.7071067811865476
vn 5.438524531099131e-32 -2.449293705170335e-16 1
vn 0 0 1
vn -1.5700924586837744e-16 0.7071067811865475 0.7071067811865476
vn -2.2204460492503126e-16 1 6.12323426292584e-17
vn -1.5700924586837744e-16 0.7071067811865475 -0.7071067811865476
vn -2.7192622655495654e-32 1.2246468525851676e-16 -1
vn 1.5700924586837744e-16 -0.7071067811865475 -0.7071067811865476
vn 2.2204460492503126e-16 -1 -1.8369701465288543e-16
vn 1.5700924586837744e-16 -0.7071067811865475 0.7071067811865476
vn 5.438524531099131e-32 -2.449293705170335e-16 1
vn -1 -2.2204460492503126e-16 0
vn -1 -2.2204460492503126e-16 0
vn -1 -2.2204460492503126e-16 0
vn -1 -2.2204460492503126e-16 0
vn -1 -2.2204460492503126e-16 0
vn -1 -2.2204460492503126e-16 0
vn -1 -2.2204460492503126e-16 0
vn -1 -2.2204460492503126e-16 0
vn -1 -2.2204460492503126e-16 0
vn -1 -2.2204460492503126e-16 0
vn -1 -2.2204460492503126e-16 0
vn -1 -2.2204460492503126e-16 0
vn -1 -2.2204460492503126e-16 0
vn -1 -2.2204460492503126e-16 0
vn -1 -2.2204460492503126e-16 0
vn -1 -2.2204460492503126e-16 0
vn -1 -2.2204460492503126e-16 0
vn 1 2.2204460492503126e-16 0
vn 1 2.2204460492503126e-16 0
vn 1 2.2204460492503126e-16 0
vn 1 2.2204460492503126e-16 0
vn 1 2.2204460492503126e-16 0
vn 1 2.2204460492503126e-16 0
vn 1 2.2204460492503126e-16 0
vn 1 2.2204460492503126e-16 0
vn 1 2.2204460492503126e-16 0
vn 1 2.2204460492503126e-16 0
vn 1 2.2204460492503126e-16 0
vn 1 2.2204460492503126e-16 0
vn 1 2.2204460492503126e-16 0
vn 1 2.2204460492503126e-16 0
vn 1 2.2204460492503126e-16 0
vn 1 2.2204460492503126e-16 0
vn 1 2.2204460492503126e-16 0
f 73/73/73 82/82/82 74/74/74
f 82/82/82 83/83/83 74/74/74
f 74/74/74 83/83/83 75/75/75
f 83/83/83 84/84/84 75/75/75
f 75/75/75 84/84/84 76/76/76
f 84/84/84 85/85/85 76/76/76
f 76/76/76 85/85/85 77/77/77
f 85/85/85 86/86/86 77/77/77
f 77/77/77 86/86/86 78/78/78
f 86/86/86 87/87/87 78/78/78
f 78/78/78 87/87/87 79/79/79
f 87/87/87 88/88/88 79/79/79
f 79/79/79 88/88/88 80/80/80
f 88/88/88 89/89/89 80/80/80
f 80/80/80 89/89/89 81/81/81
f 89/89/89 90/90/90 81/81/81
f 99/99/99 100/100/100 91/91/91
f 100/100/100 101/101/101 92/92/92
f 101/101/101 102/102/102 93/93/93
f 102/102/102 103/103/103 94/94/94
f 103/103/103 104/104/104 95/95/95
f 104/104/104 105/105/105 96/96/96
f 105/105/105 106/106/106 97/97/97
f 106/106/106 107/107/107 98/98/98
f 117/117/117 116/116/116 108/108/108
f 118/118/118 117/117/117 109/109/109
f 119/119/119 118/118/118 110/110/110
f 120/120/120 119/119/119 111/111/111
f 121/121/121 120/120/120 112/112/112
f 122/122/122 121/121/121 113/113/113
f 123/123/123 122/122/122 114/114/114
f 124/124/124 123/123/123 115/115/115
