# SM_P1_Bollard_Kit_A — Bollard
# SC_P1_WALK · group A
# bounds 0.24 × 0.24 × 0.71 m · 128 tris · UV island 24 × 24 px
# 1 unit = 1 m · pivot at floor contact, X/Z centred
mtllib SM_P1_Bollard_Kit_A.mtl
o base_ring
usemtl SURF_Concrete_Struct
v 0 0.05999999865889549 0.10000000149011612
v 0.0707106813788414 0.05999999865889549 0.0707106813788414
v 0.10000000149011612 0.05999999865889549 6.123233849335533e-18
v 0.0707106813788414 0.05999999865889549 -0.0707106813788414
v 1.2246467698671066e-17 0.05999999865889549 -0.10000000149011612
v -0.0707106813788414 0.05999999865889549 -0.0707106813788414
v -0.10000000149011612 0.05999999865889549 -1.8369702788777518e-17
v -0.0707106813788414 0.05999999865889549 0.0707106813788414
v -2.4492935397342132e-17 0.05999999865889549 0.10000000149011612
v 0 0 0.11999999731779099
v 0.08485281467437744 0 0.08485281467437744
v 0.11999999731779099 0 7.347880950074885e-18
v 0.08485281467437744 0 -0.08485281467437744
v 1.469576190014977e-17 0 -0.11999999731779099
v -0.08485281467437744 0 -0.08485281467437744
v -0.11999999731779099 0 -2.204364202304404e-17
v -0.08485281467437744 0 0.08485281467437744
v -2.939152380029954e-17 0 0.11999999731779099
v 0 0.05999999865889549 0
v 0 0.05999999865889549 0
v 0 0.05999999865889549 0
v 0 0.05999999865889549 0
v 0 0.05999999865889549 0
v 0 0.05999999865889549 0
v 0 0.05999999865889549 0
v 0 0.05999999865889549 0
v 0 0.05999999865889549 0.10000000149011612
v 0.0707106813788414 0.05999999865889549 0.0707106813788414
v 0.10000000149011612 0.05999999865889549 6.123233849335533e-18
v 0.0707106813788414 0.05999999865889549 -0.0707106813788414
v 1.2246467698671066e-17 0.05999999865889549 -0.10000000149011612
v -0.0707106813788414 0.05999999865889549 -0.0707106813788414
v -0.10000000149011612 0.05999999865889549 -1.8369702788777518e-17
v -0.0707106813788414 0.05999999865889549 0.0707106813788414
v -2.4492935397342132e-17 0.05999999865889549 0.10000000149011612
v 0 0 0
v 0 0 0
v 0 0 0
v 0 0 0
v 0 0 0
v 0 0 0
v 0 0 0
v 0 0 0
v 0 0 0.11999999731779099
v 0.08485281467437744 0 0.08485281467437744
v 0.11999999731779099 0 7.347880950074885e-18
v 0.08485281467437744 0 -0.08485281467437744
v 1.469576190014977e-17 0 -0.11999999731779099
v -0.08485281467437744 0 -0.08485281467437744
v -0.11999999731779099 0 -2.204364202304404e-17
v -0.08485281467437744 0 0.08485281467437744
v -2.939152380029954e-17 0 0.11999999731779099
vt 0 1
vt 0.125 1
vt 0.25 1
vt 0.375 1
vt 0.5 1
vt 0.625 1
vt 0.75 1
vt 0.875 1
vt 1 1
vt 0 0
vt 0.125 0
vt 0.25 0
vt 0.375 0
vt 0.5 0
vt 0.625 0
vt 0.75 0
vt 0.875 0
vt 1 0
vt 0.5 0.5
vt 0.5 0.5
vt 0.5 0.5
vt 0.5 0.5
vt 0.5 0.5
vt 0.5 0.5
vt 0.5 0.5
vt 0.5 0.5
vt 1 0.5
vt 0.8535534143447876 0.8535534143447876
vt 0.5 1
vt 0.1464466154575348 0.8535534143447876
vt 0 0.5
vt 0.1464466154575348 0.1464466154575348
vt 0.5 0
vt 0.8535534143447876 0.1464466154575348
vt 1 0.5
vt 0.5 0.5
vt 0.5 0.5
vt 0.5 0.5
vt 0.5 0.5
vt 0.5 0.5
vt 0.5 0.5
vt 0.5 0.5
vt 0.5 0.5
vt 1 0.5
vt 0.8535534143447876 0.1464466154575348
vt 0.5 0
vt 0.1464466154575348 0.1464466154575348
vt 0 0.5
vt 0.1464466154575348 0.8535534143447876
vt 0.5 1
vt 0.8535534143447876 0.8535534143447876
vt 1 0.5
vn 0 0.31622775707614137 0.9486833010307459
vn 0.6708203958778536 0.3162277548675313 0.6708203958778536
vn 0.9486833010307459 0.31622775707614137 5.809009398849666e-17
vn 0.6708203958778536 0.3162277548675313 -0.6708203958778536
vn 1.1618018797699331e-16 0.31622775707614137 -0.9486833010307459
vn -0.6708203958778536 0.3162277548675313 -0.6708203958778536
vn -0.9486833010307459 0.31622775707614137 -1.7427028858293473e-16
vn -0.6708203958778536 0.3162277548675313 0.6708203958778536
vn -2.3236037595398663e-16 0.31622775707614137 0.9486833010307459
vn 0 0.31622775707614137 0.9486833010307459
vn 0.6708203958778536 0.3162277548675313 0.6708203958778536
vn 0.9486833010307459 0.31622775707614137 5.809009398849666e-17
vn 0.6708203958778536 0.3162277548675313 -0.6708203958778536
vn 1.1618018797699331e-16 0.31622775707614137 -0.9486833010307459
vn -0.6708203958778536 0.3162277548675313 -0.6708203958778536
vn -0.9486833010307459 0.31622775707614137 -1.7427028858293473e-16
vn -0.6708203958778536 0.3162277548675313 0.6708203958778536
vn -2.3236037595398663e-16 0.31622775707614137 0.9486833010307459
vn 0 1 0
vn 0 1 0
vn 0 1 0
vn 0 1 0
vn 0 1 0
vn 0 1 0
vn 0 1 0
vn 0 1 0
vn 0 1 0
vn 0 1 0
vn 0 1 0
vn 0 1 0
vn 0 1 0
vn 0 1 0
vn 0 1 0
vn 0 1 0
vn 0 1 0
vn 0 -1 0
vn 0 -1 0
vn 0 -1 0
vn 0 -1 0
vn 0 -1 0
vn 0 -1 0
vn 0 -1 0
vn 0 -1 0
vn 0 -1 0
vn 0 -1 0
vn 0 -1 0
vn 0 -1 0
vn 0 -1 0
vn 0 -1 0
vn 0 -1 0
vn 0 -1 0
vn 0 -1 0
f 1/1/1 10/10/10 2/2/2
f 10/10/10 11/11/11 2/2/2
f 2/2/2 11/11/11 3/3/3
f 11/11/11 12/12/12 3/3/3
f 3/3/3 12/12/12 4/4/4
f 12/12/12 13/13/13 4/4/4
f 4/4/4 13/13/13 5/5/5
f 13/13/13 14/14/14 5/5/5
f 5/5/5 14/14/14 6/6/6
f 14/14/14 15/15/15 6/6/6
f 6/6/6 15/15/15 7/7/7
f 15/15/15 16/16/16 7/7/7
f 7/7/7 16/16/16 8/8/8
f 16/16/16 17/17/17 8/8/8
f 8/8/8 17/17/17 9/9/9
f 17/17/17 18/18/18 9/9/9
f 27/27/27 28/28/28 19/19/19
f 28/28/28 29/29/29 20/20/20
f 29/29/29 30/30/30 21/21/21
f 30/30/30 31/31/31 22/22/22
f 31/31/31 32/32/32 23/23/23
f 32/32/32 33/33/33 24/24/24
f 33/33/33 34/34/34 25/25/25
f 34/34/34 35/35/35 26/26/26
f 45/45/45 44/44/44 36/36/36
f 46/46/46 45/45/45 37/37/37
f 47/47/47 46/46/46 38/38/38
f 48/48/48 47/47/47 39/39/39
f 49/49/49 48/48/48 40/40/40
f 50/50/50 49/49/49 41/41/41
f 51/51/51 50/50/50 42/42/42
f 52/52/52 51/51/51 43/43/43
o shaft
usemtl SURF_Metal_Fence
v 0 0.6600000112503767 0.054999999701976776
v 0.03889087215065956 0.6600000112503767 0.03889087215065956
v 0.054999999701976776 0.6600000112503767 3.367778596455028e-18
v 0.03889087215065956 0.6600000112503767 -0.03889087215065956
v 6.735557192910056e-18 0.6600000112503767 -0.054999999701976776
v -0.03889087215065956 0.6600000112503767 -0.03889087215065956
v -0.054999999701976776 0.6600000112503767 -1.010333620295539e-17
v -0.03889087215065956 0.6600000112503767 0.03889087215065956
v -1.3471114385820111e-17 0.6600000112503767 0.054999999701976776
v 0 0.05999998740851875 0.05999999865889549
v 0.04242640733718872 0.05999998740851875 0.04242640733718872
v 0.05999999865889549 0.05999998740851875 3.673940475037442e-18
v 0.04242640733718872 0.05999998740851875 -0.04242640733718872
v 7.347880950074885e-18 0.05999998740851875 -0.05999999865889549
v -0.04242640733718872 0.05999998740851875 -0.04242640733718872
v -0.05999999865889549 0.05999998740851875 -1.102182101152202e-17
v -0.04242640733718872 0.05999998740851875 0.04242640733718872
v -1.469576190014977e-17 0.05999998740851875 0.05999999865889549
v 0 0.6600000112503767 0
v 0 0.6600000112503767 0
v 0 0.6600000112503767 0
v 0 0.6600000112503767 0
v 0 0.6600000112503767 0
v 0 0.6600000112503767 0
v 0 0.6600000112503767 0
v 0 0.6600000112503767 0
v 0 0.6600000112503767 0.054999999701976776
v 0.03889087215065956 0.6600000112503767 0.03889087215065956
v 0.054999999701976776 0.6600000112503767 3.367778596455028e-18
v 0.03889087215065956 0.6600000112503767 -0.03889087215065956
v 6.735557192910056e-18 0.6600000112503767 -0.054999999701976776
v -0.03889087215065956 0.6600000112503767 -0.03889087215065956
v -0.054999999701976776 0.6600000112503767 -1.010333620295539e-17
v -0.03889087215065956 0.6600000112503767 0.03889087215065956
v -1.3471114385820111e-17 0.6600000112503767 0.054999999701976776
v 0 0.05999998740851875 0
v 0 0.05999998740851875 0
v 0 0.05999998740851875 0
v 0 0.05999998740851875 0
v 0 0.05999998740851875 0
v 0 0.05999998740851875 0
v 0 0.05999998740851875 0
v 0 0.05999998740851875 0
v 0 0.05999998740851875 0.05999999865889549
v 0.04242640733718872 0.05999998740851875 0.04242640733718872
v 0.05999999865889549 0.05999998740851875 3.673940475037442e-18
v 0.04242640733718872 0.05999998740851875 -0.04242640733718872
v 7.347880950074885e-18 0.05999998740851875 -0.05999999865889549
v -0.04242640733718872 0.05999998740851875 -0.04242640733718872
v -0.05999999865889549 0.05999998740851875 -1.102182101152202e-17
v -0.04242640733718872 0.05999998740851875 0.04242640733718872
v -1.469576190014977e-17 0.05999998740851875 0.05999999865889549
vt 0 1
vt 0.125 1
vt 0.25 1
vt 0.375 1
vt 0.5 1
vt 0.625 1
vt 0.75 1
vt 0.875 1
vt 1 1
vt 0 0
vt 0.125 0
vt 0.25 0
vt 0.375 0
vt 0.5 0
vt 0.625 0
vt 0.75 0
vt 0.875 0
vt 1 0
vt 0.5 0.5
vt 0.5 0.5
vt 0.5 0.5
vt 0.5 0.5
vt 0.5 0.5
vt 0.5 0.5
vt 0.5 0.5
vt 0.5 0.5
vt 1 0.5
vt 0.8535534143447876 0.8535534143447876
vt 0.5 1
vt 0.1464466154575348 0.8535534143447876
vt 0 0.5
vt 0.1464466154575348 0.1464466154575348
vt 0.5 0
vt 0.8535534143447876 0.1464466154575348
vt 1 0.5
vt 0.5 0.5
vt 0.5 0.5
vt 0.5 0.5
vt 0.5 0.5
vt 0.5 0.5
vt 0.5 0.5
vt 0.5 0.5
vt 0.5 0.5
vt 1 0.5
vt 0.8535534143447876 0.1464466154575348
vt 0.5 0
vt 0.1464466154575348 0.1464466154575348
vt 0 0.5
vt 0.1464466154575348 0.8535534143447876
vt 0.5 1
vt 0.8535534143447876 0.8535534143447876
vt 1 0.5
vn 0 0.00833304436905419 0.9999652795830178
vn 0.7070822301444204 0.008333044340802316 0.7070822301444204
vn 0.9999652795830178 0.00833304436905419 6.123021359330567e-17
vn 0.7070822301444204 0.008333044340802316 -0.7070822301444204
vn 1.2246042718661134e-16 0.00833304436905419 -0.9999652795830178
vn -0.7070822301444204 0.008333044340802316 -0.7070822301444204
vn -0.9999652795830178 0.00833304436905419 -1.8369064077991701e-16
vn -0.7070822301444204 0.008333044340802316 0.7070822301444204
vn -2.449208543732227e-16 0.00833304436905419 0.9999652795830178
vn 0 0.00833304436905419 0.9999652795830178
vn 0.7070822301444204 0.008333044340802316 0.7070822301444204
vn 0.9999652795830178 0.00833304436905419 6.123021359330567e-17
vn 0.7070822301444204 0.008333044340802316 -0.7070822301444204
vn 1.2246042718661134e-16 0.00833304436905419 -0.9999652795830178
vn -0.7070822301444204 0.008333044340802316 -0.7070822301444204
vn -0.9999652795830178 0.00833304436905419 -1.8369064077991701e-16
vn -0.7070822301444204 0.008333044340802316 0.7070822301444204
vn -2.449208543732227e-16 0.00833304436905419 0.9999652795830178
vn 0 1 0
vn 0 1 0
vn 0 1 0
vn 0 1 0
vn 0 1 0
vn 0 1 0
vn 0 1 0
vn 0 1 0
vn 0 1 0
vn 0 1 0
vn 0 1 0
vn 0 1 0
vn 0 1 0
vn 0 1 0
vn 0 1 0
vn 0 1 0
vn 0 1 0
vn 0 -1 0
vn 0 -1 0
vn 0 -1 0
vn 0 -1 0
vn 0 -1 0
vn 0 -1 0
vn 0 -1 0
vn 0 -1 0
vn 0 -1 0
vn 0 -1 0
vn 0 -1 0
vn 0 -1 0
vn 0 -1 0
vn 0 -1 0
vn 0 -1 0
vn 0 -1 0
vn 0 -1 0
f 53/53/53 62/62/62 54/54/54
f 62/62/62 63/63/63 54/54/54
f 54/54/54 63/63/63 55/55/55
f 63/63/63 64/64/64 55/55/55
f 55/55/55 64/64/64 56/56/56
f 64/64/64 65/65/65 56/56/56
f 56/56/56 65/65/65 57/57/57
f 65/65/65 66/66/66 57/57/57
f 57/57/57 66/66/66 58/58/58
f 66/66/66 67/67/67 58/58/58
f 58/58/58 67/67/67 59/59/59
f 67/67/67 68/68/68 59/59/59
f 59/59/59 68/68/68 60/60/60
f 68/68/68 69/69/69 60/60/60
f 60/60/60 69/69/69 61/61/61
f 69/69/69 70/70/70 61/61/61
f 79/79/79 80/80/80 71/71/71
f 80/80/80 81/81/81 72/72/72
f 81/81/81 82/82/82 73/73/73
f 82/82/82 83/83/83 74/74/74
f 83/83/83 84/84/84 75/75/75
f 84/84/84 85/85/85 76/76/76
f 85/85/85 86/86/86 77/77/77
f 86/86/86 87/87/87 78/78/78
f 97/97/97 96/96/96 88/88/88
f 98/98/98 97/97/97 89/89/89
f 99/99/99 98/98/98 90/90/90
f 100/100/100 99/99/99 91/91/91
f 101/101/101 100/100/100 92/92/92
f 102/102/102 101/101/101 93/93/93
f 103/103/103 102/102/102 94/94/94
f 104/104/104 103/103/103 95/95/95
o cap
usemtl SURF_Metal_Fence
v 0 0.7099999997019768 0.05999999865889549
v 0.04242640733718872 0.7099999997019768 0.04242640733718872
v 0.05999999865889549 0.7099999997019768 3.673940475037442e-18
v 0.04242640733718872 0.7099999997019768 -0.04242640733718872
v 7.347880950074885e-18 0.7099999997019768 -0.05999999865889549
v -0.04242640733718872 0.7099999997019768 -0.04242640733718872
v -0.05999999865889549 0.7099999997019768 -1.102182101152202e-17
v -0.04242640733718872 0.7099999997019768 0.04242640733718872
v -1.469576190014977e-17 0.7099999997019768 0.05999999865889549
v 0 0.6599999989569187 0.054999999701976776
v 0.03889087215065956 0.6599999989569187 0.03889087215065956
v 0.054999999701976776 0.6599999989569187 3.367778596455028e-18
v 0.03889087215065956 0.6599999989569187 -0.03889087215065956
v 6.735557192910056e-18 0.6599999989569187 -0.054999999701976776
v -0.03889087215065956 0.6599999989569187 -0.03889087215065956
v -0.054999999701976776 0.6599999989569187 -1.010333620295539e-17
v -0.03889087215065956 0.6599999989569187 0.03889087215065956
v -1.3471114385820111e-17 0.6599999989569187 0.054999999701976776
v 0 0.7099999997019768 0
v 0 0.7099999997019768 0
v 0 0.7099999997019768 0
v 0 0.7099999997019768 0
v 0 0.7099999997019768 0
v 0 0.7099999997019768 0
v 0 0.7099999997019768 0
v 0 0.7099999997019768 0
v 0 0.7099999997019768 0.05999999865889549
v 0.04242640733718872 0.7099999997019768 0.04242640733718872
v 0.05999999865889549 0.7099999997019768 3.673940475037442e-18
v 0.04242640733718872 0.7099999997019768 -0.04242640733718872
v 7.347880950074885e-18 0.7099999997019768 -0.05999999865889549
v -0.04242640733718872 0.7099999997019768 -0.04242640733718872
v -0.05999999865889549 0.7099999997019768 -1.102182101152202e-17
v -0.04242640733718872 0.7099999997019768 0.04242640733718872
v -1.469576190014977e-17 0.7099999997019768 0.05999999865889549
v 0 0.6599999989569187 0
v 0 0.6599999989569187 0
v 0 0.6599999989569187 0
v 0 0.6599999989569187 0
v 0 0.6599999989569187 0
v 0 0.6599999989569187 0
v 0 0.6599999989569187 0
v 0 0.6599999989569187 0
v 0 0.6599999989569187 0.054999999701976776
v 0.03889087215065956 0.6599999989569187 0.03889087215065956
v 0.054999999701976776 0.6599999989569187 3.367778596455028e-18
v 0.03889087215065956 0.6599999989569187 -0.03889087215065956
v 6.735557192910056e-18 0.6599999989569187 -0.054999999701976776
v -0.03889087215065956 0.6599999989569187 -0.03889087215065956
v -0.054999999701976776 0.6599999989569187 -1.010333620295539e-17
v -0.03889087215065956 0.6599999989569187 0.03889087215065956
v -1.3471114385820111e-17 0.6599999989569187 0.054999999701976776
vt 0 1
vt 0.125 1
vt 0.25 1
vt 0.375 1
vt 0.5 1
vt 0.625 1
vt 0.75 1
vt 0.875 1
vt 1 1
vt 0 0
vt 0.125 0
vt 0.25 0
vt 0.375 0
vt 0.5 0
vt 0.625 0
vt 0.75 0
vt 0.875 0
vt 1 0
vt 0.5 0.5
vt 0.5 0.5
vt 0.5 0.5
vt 0.5 0.5
vt 0.5 0.5
vt 0.5 0.5
vt 0.5 0.5
vt 0.5 0.5
vt 1 0.5
vt 0.8535534143447876 0.8535534143447876
vt 0.5 1
vt 0.1464466154575348 0.8535534143447876
vt 0 0.5
vt 0.1464466154575348 0.1464466154575348
vt 0.5 0
vt 0.8535534143447876 0.1464466154575348
vt 1 0.5
vt 0.5 0.5
vt 0.5 0.5
vt 0.5 0.5
vt 0.5 0.5
vt 0.5 0.5
vt 0.5 0.5
vt 0.5 0.5
vt 0.5 0.5
vt 1 0.5
vt 0.8535534143447876 0.1464466154575348
vt 0.5 0
vt 0.1464466154575348 0.1464466154575348
vt 0 0.5
vt 0.1464466154575348 0.8535534143447876
vt 0.5 1
vt 0.8535534143447876 0.8535534143447876
vt 1 0.5
vn 0 -0.09950371754563643 0.9950371903575255
vn 0.7035975447884568 -0.09950371819842259 0.7035975447884568
vn 0.9950371903575255 -0.09950371754563643 6.09284558524896e-17
vn 0.7035975447884568 -0.09950371819842259 -0.7035975447884568
vn 1.218569117049792e-16 -0.09950371754563643 -0.9950371903575255
vn -0.7035975447884568 -0.09950371819842259 -0.7035975447884568
vn -0.9950371903575255 -0.09950371754563643 -1.8278536755746884e-16
vn -0.7035975447884568 -0.09950371819842259 0.7035975447884568
vn -2.437138234099584e-16 -0.09950371754563643 0.9950371903575255
vn 0 -0.09950371754563643 0.9950371903575255
vn 0.7035975447884568 -0.09950371819842259 0.7035975447884568
vn 0.9950371903575255 -0.09950371754563643 6.09284558524896e-17
vn 0.7035975447884568 -0.09950371819842259 -0.7035975447884568
vn 1.218569117049792e-16 -0.09950371754563643 -0.9950371903575255
vn -0.7035975447884568 -0.09950371819842259 -0.7035975447884568
vn -0.9950371903575255 -0.09950371754563643 -1.8278536755746884e-16
vn -0.7035975447884568 -0.09950371819842259 0.7035975447884568
vn -2.437138234099584e-16 -0.09950371754563643 0.9950371903575255
vn 0 1 0
vn 0 1 0
vn 0 1 0
vn 0 1 0
vn 0 1 0
vn 0 1 0
vn 0 1 0
vn 0 1 0
vn 0 1 0
vn 0 1 0
vn 0 1 0
vn 0 1 0
vn 0 1 0
vn 0 1 0
vn 0 1 0
vn 0 1 0
vn 0 1 0
vn 0 -1 0
vn 0 -1 0
vn 0 -1 0
vn 0 -1 0
vn 0 -1 0
vn 0 -1 0
vn 0 -1 0
vn 0 -1 0
vn 0 -1 0
vn 0 -1 0
vn 0 -1 0
vn 0 -1 0
vn 0 -1 0
vn 0 -1 0
vn 0 -1 0
vn 0 -1 0
vn 0 -1 0
f 105/105/105 114/114/114 106/106/106
f 114/114/114 115/115/115 106/106/106
f 106/106/106 115/115/115 107/107/107
f 115/115/115 116/116/116 107/107/107
f 107/107/107 116/116/116 108/108/108
f 116/116/116 117/117/117 108/108/108
f 108/108/108 117/117/117 109/109/109
f 117/117/117 118/118/118 109/109/109
f 109/109/109 118/118/118 110/110/110
f 118/118/118 119/119/119 110/110/110
f 110/110/110 119/119/119 111/111/111
f 119/119/119 120/120/120 111/111/111
f 111/111/111 120/120/120 112/112/112
f 120/120/120 121/121/121 112/112/112
f 112/112/112 121/121/121 113/113/113
f 121/121/121 122/122/122 113/113/113
f 131/131/131 132/132/132 123/123/123
f 132/132/132 133/133/133 124/124/124
f 133/133/133 134/134/134 125/125/125
f 134/134/134 135/135/135 126/126/126
f 135/135/135 136/136/136 127/127/127
f 136/136/136 137/137/137 128/128/128
f 137/137/137 138/138/138 129/129/129
f 138/138/138 139/139/139 130/130/130
f 149/149/149 148/148/148 140/140/140
f 150/150/150 149/149/149 141/141/141
f 151/151/151 150/150/150 142/142/142
f 152/152/152 151/151/151 143/143/143
f 153/153/153 152/152/152 144/144/144
f 154/154/154 153/153/153 145/145/145
f 155/155/155 154/154/154 146/146/146
f 156/156/156 155/155/155 147/147/147
o band
usemtl SURF_Paper_Newsprint
v 0 0.5849999997019768 0.06199999898672104
v 0.043840620666742325 0.5849999997019768 0.043840620666742325
v 0.06199999898672104 0.5849999997019768 3.796404978316224e-18
v 0.043840620666742325 0.5849999997019768 -0.043840620666742325
v 7.592809956632449e-18 0.5849999997019768 -0.06199999898672104
v -0.043840620666742325 0.5849999997019768 -0.043840620666742325
v -0.06199999898672104 0.5849999997019768 -1.1389214934948673e-17
v -0.043840620666742325 0.5849999997019768 0.043840620666742325
v -1.5185619913264897e-17 0.5849999997019768 0.06199999898672104
v 0 0.5349999989569187 0.06199999898672104
v 0.043840620666742325 0.5349999989569187 0.043840620666742325
v 0.06199999898672104 0.5349999989569187 3.796404978316224e-18
v 0.043840620666742325 0.5349999989569187 -0.043840620666742325
v 7.592809956632449e-18 0.5349999989569187 -0.06199999898672104
v -0.043840620666742325 0.5349999989569187 -0.043840620666742325
v -0.06199999898672104 0.5349999989569187 -1.1389214934948673e-17
v -0.043840620666742325 0.5349999989569187 0.043840620666742325
v -1.5185619913264897e-17 0.5349999989569187 0.06199999898672104
v 0 0.5849999997019768 0
v 0 0.5849999997019768 0
v 0 0.5849999997019768 0
v 0 0.5849999997019768 0
v 0 0.5849999997019768 0
v 0 0.5849999997019768 0
v 0 0.5849999997019768 0
v 0 0.5849999997019768 0
v 0 0.5849999997019768 0.06199999898672104
v 0.043840620666742325 0.5849999997019768 0.043840620666742325
v 0.06199999898672104 0.5849999997019768 3.796404978316224e-18
v 0.043840620666742325 0.5849999997019768 -0.043840620666742325
v 7.592809956632449e-18 0.5849999997019768 -0.06199999898672104
v -0.043840620666742325 0.5849999997019768 -0.043840620666742325
v -0.06199999898672104 0.5849999997019768 -1.1389214934948673e-17
v -0.043840620666742325 0.5849999997019768 0.043840620666742325
v -1.5185619913264897e-17 0.5849999997019768 0.06199999898672104
v 0 0.5349999989569187 0
v 0 0.5349999989569187 0
v 0 0.5349999989569187 0
v 0 0.5349999989569187 0
v 0 0.5349999989569187 0
v 0 0.5349999989569187 0
v 0 0.5349999989569187 0
v 0 0.5349999989569187 0
v 0 0.5349999989569187 0.06199999898672104
v 0.043840620666742325 0.5349999989569187 0.043840620666742325
v 0.06199999898672104 0.5349999989569187 3.796404978316224e-18
v 0.043840620666742325 0.5349999989569187 -0.043840620666742325
v 7.592809956632449e-18 0.5349999989569187 -0.06199999898672104
v -0.043840620666742325 0.5349999989569187 -0.043840620666742325
v -0.06199999898672104 0.5349999989569187 -1.1389214934948673e-17
v -0.043840620666742325 0.5349999989569187 0.043840620666742325
v -1.5185619913264897e-17 0.5349999989569187 0.06199999898672104
vt 0 1
vt 0.125 1
vt 0.25 1
vt 0.375 1
vt 0.5 1
vt 0.625 1
vt 0.75 1
vt 0.875 1
vt 1 1
vt 0 0
vt 0.125 0
vt 0.25 0
vt 0.375 0
vt 0.5 0
vt 0.625 0
vt 0.75 0
vt 0.875 0
vt 1 0
vt 0.5 0.5
vt 0.5 0.5
vt 0.5 0.5
vt 0.5 0.5
vt 0.5 0.5
vt 0.5 0.5
vt 0.5 0.5
vt 0.5 0.5
vt 1 0.5
vt 0.8535534143447876 0.8535534143447876
vt 0.5 1
vt 0.1464466154575348 0.8535534143447876
vt 0 0.5
vt 0.1464466154575348 0.1464466154575348
vt 0.5 0
vt 0.8535534143447876 0.1464466154575348
vt 1 0.5
vt 0.5 0.5
vt 0.5 0.5
vt 0.5 0.5
vt 0.5 0.5
vt 0.5 0.5
vt 0.5 0.5
vt 0.5 0.5
vt 0.5 0.5
vt 1 0.5
vt 0.8535534143447876 0.1464466154575348
vt 0.5 0
vt 0.1464466154575348 0.1464466154575348
vt 0 0.5
vt 0.1464466154575348 0.8535534143447876
vt 0.5 1
vt 0.8535534143447876 0.8535534143447876
vt 1 0.5
vn 0 0 1
vn 0.7071067811865476 0 0.7071067811865476
vn 1 0 6.123234262925839e-17
vn 0.7071067811865476 0 -0.7071067811865476
vn 1.2246468525851679e-16 0 -1
vn -0.7071067811865476 0 -0.7071067811865476
vn -1 0 -1.8369701465288538e-16
vn -0.7071067811865476 0 0.7071067811865476
vn -2.4492937051703357e-16 0 1
vn 0 0 1
vn 0.7071067811865476 0 0.7071067811865476
vn 1 0 6.123234262925839e-17
vn 0.7071067811865476 0 -0.7071067811865476
vn 1.2246468525851679e-16 0 -1
vn -0.7071067811865476 0 -0.7071067811865476
vn -1 0 -1.8369701465288538e-16
vn -0.7071067811865476 0 0.7071067811865476
vn -2.4492937051703357e-16 0 1
vn 0 1 0
vn 0 1 0
vn 0 1 0
vn 0 1 0
vn 0 1 0
vn 0 1 0
vn 0 1 0
vn 0 1 0
vn 0 1 0
vn 0 1 0
vn 0 1 0
vn 0 1 0
vn 0 1 0
vn 0 1 0
vn 0 1 0
vn 0 1 0
vn 0 1 0
vn 0 -1 0
vn 0 -1 0
vn 0 -1 0
vn 0 -1 0
vn 0 -1 0
vn 0 -1 0
vn 0 -1 0
vn 0 -1 0
vn 0 -1 0
vn 0 -1 0
vn 0 -1 0
vn 0 -1 0
vn 0 -1 0
vn 0 -1 0
vn 0 -1 0
vn 0 -1 0
vn 0 -1 0
f 157/157/157 166/166/166 158/158/158
f 166/166/166 167/167/167 158/158/158
f 158/158/158 167/167/167 159/159/159
f 167/167/167 168/168/168 159/159/159
f 159/159/159 168/168/168 160/160/160
f 168/168/168 169/169/169 160/160/160
f 160/160/160 169/169/169 161/161/161
f 169/169/169 170/170/170 161/161/161
f 161/161/161 170/170/170 162/162/162
f 170/170/170 171/171/171 162/162/162
f 162/162/162 171/171/171 163/163/163
f 171/171/171 172/172/172 163/163/163
f 163/163/163 172/172/172 164/164/164
f 172/172/172 173/173/173 164/164/164
f 164/164/164 173/173/173 165/165/165
f 173/173/173 174/174/174 165/165/165
f 183/183/183 184/184/184 175/175/175
f 184/184/184 185/185/185 176/176/176
f 185/185/185 186/186/186 177/177/177
f 186/186/186 187/187/187 178/178/178
f 187/187/187 188/188/188 179/179/179
f 188/188/188 189/189/189 180/180/180
f 189/189/189 190/190/190 181/181/181
f 190/190/190 191/191/191 182/182/182
f 201/201/201 200/200/200 192/192/192
f 202/202/202 201/201/201 193/193/193
f 203/203/203 202/202/202 194/194/194
f 204/204/204 203/203/203 195/195/195
f 205/205/205 204/204/204 196/196/196
f 206/206/206 205/205/205 197/197/197
f 207/207/207 206/206/206 198/198/198
f 208/208/208 207/207/207 199/199/199
