# SM_P1_Crosswalk_Deck_A — Crosswalk deck
# SC_P1_WALK · group A
# bounds 3.70 × 3.00 × 0.00 m · 10 tris · UV island 120 × 104 px
# 1 unit = 1 m · pivot at floor contact, X/Z centred
mtllib SM_P1_Crosswalk_Deck_A.mtl
o stripe_0
usemtl SURF_Paper_Newsprint
v -1.85 0 -1.5000000000000004
v -1.35 0 -1.5000000000000004
v -1.85 6.661338147750939e-16 1.5000000000000004
v -1.35 6.661338147750939e-16 1.5000000000000004
vt 0 1
vt 1 1
vt 0 0
vt 1 0
vn 0 1 -2.2204460492503126e-16
vn 0 1 -2.2204460492503126e-16
vn 0 1 -2.2204460492503126e-16
vn 0 1 -2.2204460492503126e-16
f 1/1/1 3/3/3 2/2/2
f 3/3/3 4/4/4 2/2/2
o stripe_1
usemtl SURF_Paper_Newsprint
v -1.05 0 -1.5000000000000004
v -0.55 0 -1.5000000000000004
v -1.05 6.661338147750939e-16 1.5000000000000004
v -0.55 6.661338147750939e-16 1.5000000000000004
vt 0 1
vt 1 1
vt 0 0
vt 1 0
vn 0 1 -2.2204460492503126e-16
vn 0 1 -2.2204460492503126e-16
vn 0 1 -2.2204460492503126e-16
vn 0 1 -2.2204460492503126e-16
f 5/5/5 7/7/7 6/6/6
f 7/7/7 8/8/8 6/6/6
o stripe_2
usemtl SURF_Paper_Newsprint
v -0.25 0 -1.5000000000000004
v 0.25 0 -1.5000000000000004
v -0.25 6.661338147750939e-16 1.5000000000000004
v 0.25 6.661338147750939e-16 1.5000000000000004
vt 0 1
vt 1 1
vt 0 0
vt 1 0
vn 0 1 -2.2204460492503126e-16
vn 0 1 -2.2204460492503126e-16
vn 0 1 -2.2204460492503126e-16
vn 0 1 -2.2204460492503126e-16
f 9/9/9 11/11/11 10/10/10
f 11/11/11 12/12/12 10/10/10
o stripe_3
usemtl SURF_Paper_Newsprint
v 0.5500000000000003 0 -1.5000000000000004
v 1.0500000000000003 0 -1.5000000000000004
v 0.5500000000000003 6.661338147750939e-16 1.5000000000000004
v 1.0500000000000003 6.661338147750939e-16 1.5000000000000004
vt 0 1
vt 1 1
vt 0 0
vt 1 0
vn 0 1 -2.2204460492503126e-16
vn 0 1 -2.2204460492503126e-16
vn 0 1 -2.2204460492503126e-16
vn 0 1 -2.2204460492503126e-16
f 13/13/13 15/15/15 14/14/14
f 15/15/15 16/16/16 14/14/14
o stripe_4
usemtl SURF_Paper_Newsprint
v 1.35 0 -1.5000000000000004
v 1.85 0 -1.5000000000000004
v 1.35 6.661338147750939e-16 1.5000000000000004
v 1.85 6.661338147750939e-16 1.5000000000000004
vt 0 1
vt 1 1
vt 0 0
vt 1 0
vn 0 1 -2.2204460492503126e-16
vn 0 1 -2.2204460492503126e-16
vn 0 1 -2.2204460492503126e-16
vn 0 1 -2.2204460492503126e-16
f 17/17/17 19/19/19 18/18/18
f 19/19/19 20/20/20 18/18/18
