# SM_P1_Tree_Small_A — Tree — small
# SC_P1_WALK · group A
# bounds 1.40 × 1.30 × 2.65 m · 48 tris · UV island 96 × 96 px
# 1 unit = 1 m · pivot at floor contact, X/Z centred
mtllib SM_P1_Tree_Small_A.mtl
o trunk
usemtl SURF_Wood_Dark
v 0 1.399999976158142 0.07999999821186066
v 0.06928203254938126 1.399999976158142 0.03999999910593033
v 0.06928203254938126 1.399999976158142 -0.03999999910593033
v 9.797174324372975e-18 1.399999976158142 -0.07999999821186066
v -0.06928203254938126 1.399999976158142 -0.03999999910593033
v -0.06928203254938126 1.399999976158142 0.03999999910593033
v -1.959434864874595e-17 1.399999976158142 0.07999999821186066
v 0 0 0.12999999523162842
v 0.11258330196142197 0 0.06499999761581421
v 0.11258330196142197 0 -0.06499999761581421
v 1.5920407760118202e-17 0 -0.12999999523162842
v -0.11258330196142197 0 -0.06499999761581421
v -0.11258330196142197 0 0.06499999761581421
v -3.1840815520236404e-17 0 0.12999999523162842
v 0 1.399999976158142 0
v 0 1.399999976158142 0
v 0 1.399999976158142 0
v 0 1.399999976158142 0
v 0 1.399999976158142 0
v 0 1.399999976158142 0
v 0 1.399999976158142 0.07999999821186066
v 0.06928203254938126 1.399999976158142 0.03999999910593033
v 0.06928203254938126 1.399999976158142 -0.03999999910593033
v 9.797174324372975e-18 1.399999976158142 -0.07999999821186066
v -0.06928203254938126 1.399999976158142 -0.03999999910593033
v -0.06928203254938126 1.399999976158142 0.03999999910593033
v -1.959434864874595e-17 1.399999976158142 0.07999999821186066
v 0 0 0
v 0 0 0
v 0 0 0
v 0 0 0
v 0 0 0
v 0 0 0
v 0 0 0.12999999523162842
v 0.11258330196142197 0 0.06499999761581421
v 0.11258330196142197 0 -0.06499999761581421
v 1.5920407760118202e-17 0 -0.12999999523162842
v -0.11258330196142197 0 -0.06499999761581421
v -0.11258330196142197 0 0.06499999761581421
v -3.1840815520236404e-17 0 0.12999999523162842
vt 0 1
vt 0.1666666716337204 1
vt 0.3333333432674408 1
vt 0.5 1
vt 0.6666666865348816 1
vt 0.8333333134651184 1
vt 1 1
vt 0 0
vt 0.1666666716337204 0
vt 0.3333333432674408 0
vt 0.5 0
vt 0.6666666865348816 0
vt 0.8333333134651184 0
vt 1 0
vt 0.5 0.5
vt 0.5 0.5
vt 0.5 0.5
vt 0.5 0.5
vt 0.5 0.5
vt 0.5 0.5
vt 1 0.5
vt 0.75 0.9330127239227295
vt 0.25 0.9330127239227295
vt 0 0.5
vt 0.25 0.0669872984290123
vt 0.75 0.0669872984290123
vt 1 0.5
vt 0.5 0.5
vt 0.5 0.5
vt 0.5 0.5
vt 0.5 0.5
vt 0.5 0.5
vt 0.5 0.5
vt 1 0.5
vt 0.75 0.0669872984290123
vt 0.25 0.0669872984290123
vt 0 0.5
vt 0.25 0.9330127239227295
vt 0.75 0.9330127239227295
vt 1 0.5
vn 0 0.03569153051241249 0.9993628543475497
vn 0.8654736277022479 0.03569152949830648 0.4996814129762907
vn 0.8654736277022479 0.03569152949830648 -0.4996814129762907
vn 1.2238665577728646e-16 0.03569153051241249 -0.9993628543475497
vn -0.8654736277022479 0.03569152949830648 -0.4996814129762907
vn -0.8654736277022479 0.03569152949830648 0.4996814129762907
vn -2.447733115545729e-16 0.03569153051241249 0.9993628543475497
vn 0 0.03569153051241249 0.9993628543475497
vn 0.8654736277022479 0.03569152949830648 0.4996814129762907
vn 0.8654736277022479 0.03569152949830648 -0.4996814129762907
vn 1.2238665577728646e-16 0.03569153051241249 -0.9993628543475497
vn -0.8654736277022479 0.03569152949830648 -0.4996814129762907
vn -0.8654736277022479 0.03569152949830648 0.4996814129762907
vn -2.447733115545729e-16 0.03569153051241249 0.9993628543475497
vn 0 1 0
vn 0 1 0
vn 0 1 0
vn 0 1 0
vn 0 1 0
vn 0 1 0
vn 0 1 0
vn 0 1 0
vn 0 1 0
vn 0 1 0
vn 0 1 0
vn 0 1 0
vn 0 1 0
vn 0 -1 0
vn 0 -1 0
vn 0 -1 0
vn 0 -1 0
vn 0 -1 0
vn 0 -1 0
vn 0 -1 0
vn 0 -1 0
vn 0 -1 0
vn 0 -1 0
vn 0 -1 0
vn 0 -1 0
vn 0 -1 0
f 1/1/1 8/8/8 2/2/2
f 8/8/8 9/9/9 2/2/2
f 2/2/2 9/9/9 3/3/3
f 9/9/9 10/10/10 3/3/3
f 3/3/3 10/10/10 4/4/4
f 10/10/10 11/11/11 4/4/4
f 4/4/4 11/11/11 5/5/5
f 11/11/11 12/12/12 5/5/5
f 5/5/5 12/12/12 6/6/6
f 12/12/12 13/13/13 6/6/6
f 6/6/6 13/13/13 7/7/7
f 13/13/13 14/14/14 7/7/7
f 21/21/21 22/22/22 15/15/15
f 22/22/22 23/23/23 16/16/16
f 23/23/23 24/24/24 17/17/17
f 24/24/24 25/25/25 18/18/18
f 25/25/25 26/26/26 19/19/19
f 26/26/26 27/27/27 20/20/20
f 35/35/35 34/34/34 28/28/28
f 36/36/36 35/35/35 29/29/29
f 37/37/37 36/36/36 30/30/30
f 38/38/38 37/37/37 31/31/31
f 39/39/39 38/38/38 32/32/32
f 40/40/40 39/39/39 33/33/33
o canopy_low
usemtl SURF_Foliage_Tree
v 0.699999988079071 2.0999999821186064 0.6499999761581421
v 0.699999988079071 2.0999999821186064 -0.6499999761581421
v 0.699999988079071 1.3999999940395356 0.6499999761581421
v 0.699999988079071 1.3999999940395356 -0.6499999761581421
v -0.699999988079071 2.0999999821186064 -0.6499999761581421
v -0.699999988079071 2.0999999821186064 0.6499999761581421
v -0.699999988079071 1.3999999940395356 -0.6499999761581421
v -0.699999988079071 1.3999999940395356 0.6499999761581421
v -0.699999988079071 2.0999999821186064 -0.6499999761581421
v 0.699999988079071 2.0999999821186064 -0.6499999761581421
v -0.699999988079071 2.0999999821186064 0.6499999761581421
v 0.699999988079071 2.0999999821186064 0.6499999761581421
v -0.699999988079071 1.3999999940395356 0.6499999761581421
v 0.699999988079071 1.3999999940395356 0.6499999761581421
v -0.699999988079071 1.3999999940395356 -0.6499999761581421
v 0.699999988079071 1.3999999940395356 -0.6499999761581421
v -0.699999988079071 2.0999999821186064 0.6499999761581421
v 0.699999988079071 2.0999999821186064 0.6499999761581421
v -0.699999988079071 1.3999999940395356 0.6499999761581421
v 0.699999988079071 1.3999999940395356 0.6499999761581421
v 0.699999988079071 2.0999999821186064 -0.6499999761581421
v -0.699999988079071 2.0999999821186064 -0.6499999761581421
v 0.699999988079071 1.3999999940395356 -0.6499999761581421
v -0.699999988079071 1.3999999940395356 -0.6499999761581421
vt 0 1
vt 1 1
vt 0 0
vt 1 0
vt 0 1
vt 1 1
vt 0 0
vt 1 0
vt 0 1
vt 1 1
vt 0 0
vt 1 0
vt 0 1
vt 1 1
vt 0 0
vt 1 0
vt 0 1
vt 1 1
vt 0 0
vt 1 0
vt 0 1
vt 1 1
vt 0 0
vt 1 0
vn 1 0 0
vn 1 0 0
vn 1 0 0
vn 1 0 0
vn -1 0 0
vn -1 0 0
vn -1 0 0
vn -1 0 0
vn 0 1 0
vn 0 1 0
vn 0 1 0
vn 0 1 0
vn 0 -1 0
vn 0 -1 0
vn 0 -1 0
vn 0 -1 0
vn 0 0 1
vn 0 0 1
vn 0 0 1
vn 0 0 1
vn 0 0 -1
vn 0 0 -1
vn 0 0 -1
vn 0 0 -1
f 41/41/41 43/43/43 42/42/42
f 43/43/43 44/44/44 42/42/42
f 45/45/45 47/47/47 46/46/46
f 47/47/47 48/48/48 46/46/46
f 49/49/49 51/51/51 50/50/50
f 51/51/51 52/52/52 50/50/50
f 53/53/53 55/55/55 54/54/54
f 55/55/55 56/56/56 54/54/54
f 57/57/57 59/59/59 58/58/58
f 59/59/59 60/60/60 58/58/58
f 61/61/61 63/63/63 62/62/62
f 63/63/63 64/64/64 62/62/62
o canopy_top
usemtl SURF_Foliage_Tree
v 0.6 2.6500000000000004 0.39999998807907106
v 0.6 2.6500000000000004 -0.49999998807907103
v 0.6 2.0499999761581424 0.39999998807907106
v 0.6 2.0499999761581424 -0.49999998807907103
v -0.4 2.6500000000000004 -0.49999998807907103
v -0.4 2.6500000000000004 0.39999998807907106
v -0.4 2.0499999761581424 -0.49999998807907103
v -0.4 2.0499999761581424 0.39999998807907106
v -0.4 2.6500000000000004 -0.49999998807907103
v 0.6 2.6500000000000004 -0.49999998807907103
v -0.4 2.6500000000000004 0.39999998807907106
v 0.6 2.6500000000000004 0.39999998807907106
v -0.4 2.0499999761581424 0.39999998807907106
v 0.6 2.0499999761581424 0.39999998807907106
v -0.4 2.0499999761581424 -0.49999998807907103
v 0.6 2.0499999761581424 -0.49999998807907103
v -0.4 2.6500000000000004 0.39999998807907106
v 0.6 2.6500000000000004 0.39999998807907106
v -0.4 2.0499999761581424 0.39999998807907106
v 0.6 2.0499999761581424 0.39999998807907106
v 0.6 2.6500000000000004 -0.49999998807907103
v -0.4 2.6500000000000004 -0.49999998807907103
v 0.6 2.0499999761581424 -0.49999998807907103
v -0.4 2.0499999761581424 -0.49999998807907103
vt 0 1
vt 1 1
vt 0 0
vt 1 0
vt 0 1
vt 1 1
vt 0 0
vt 1 0
vt 0 1
vt 1 1
vt 0 0
vt 1 0
vt 0 1
vt 1 1
vt 0 0
vt 1 0
vt 0 1
vt 1 1
vt 0 0
vt 1 0
vt 0 1
vt 1 1
vt 0 0
vt 1 0
vn 1 0 0
vn 1 0 0
vn 1 0 0
vn 1 0 0
vn -1 0 0
vn -1 0 0
vn -1 0 0
vn -1 0 0
vn 0 1 0
vn 0 1 0
vn 0 1 0
vn 0 1 0
vn 0 -1 0
vn 0 -1 0
vn 0 -1 0
vn 0 -1 0
vn 0 0 1
vn 0 0 1
vn 0 0 1
vn 0 0 1
vn 0 0 -1
vn 0 0 -1
vn 0 0 -1
vn 0 0 -1
f 65/65/65 67/67/67 66/66/66
f 67/67/67 68/68/68 66/66/66
f 69/69/69 71/71/71 70/70/70
f 71/71/71 72/72/72 70/70/70
f 73/73/73 75/75/75 74/74/74
f 75/75/75 76/76/76 74/74/74
f 77/77/77 79/79/79 78/78/78
f 79/79/79 80/80/80 78/78/78
f 81/81/81 83/83/83 82/82/82
f 83/83/83 84/84/84 82/82/82
f 85/85/85 87/87/87 86/86/86
f 87/87/87 88/88/88 86/86/86
