# Blender 5.2.0 LTS
# www.blender.org
mtllib SM_K_SchWall.mtl
o SM_K_SchWall
v -1.000000 0.000000 0.100000
v -1.000000 0.140000 0.100000
v -1.000000 0.000000 -0.160000
v -1.000000 0.140000 -0.160000
v 1.000000 0.000000 0.100000
v 1.000000 0.140000 0.100000
v 1.000000 0.000000 -0.160000
v 1.000000 0.140000 -0.160000
v -1.000000 0.000000 0.100000
v -1.000000 1.000000 0.100000
v -1.000000 0.000000 -0.100000
v -1.000000 1.000000 -0.100000
v 1.000000 0.000000 0.100000
v 1.000000 1.000000 0.100000
v 1.000000 0.000000 -0.100000
v 1.000000 1.000000 -0.100000
v -1.000000 0.975000 0.100000
v -1.000000 1.025000 0.100000
v -1.000000 0.975000 -0.180000
v -1.000000 1.025000 -0.180000
v 1.000000 0.975000 0.100000
v 1.000000 1.025000 0.100000
v 1.000000 0.975000 -0.180000
v 1.000000 1.025000 -0.180000
v -1.000000 1.000000 0.100000
v -1.000000 3.500000 0.100000
v -1.000000 1.000000 -0.100000
v -1.000000 3.500000 -0.100000
v 1.000000 1.000000 0.100000
v 1.000000 3.500000 0.100000
v 1.000000 1.000000 -0.100000
v 1.000000 3.500000 -0.100000
v -1.000000 2.370000 0.100000
v -1.000000 2.430000 0.100000
v -1.000000 2.370000 -0.200000
v -1.000000 2.430000 -0.200000
v 1.000000 2.370000 0.100000
v 1.000000 2.430000 0.100000
v 1.000000 2.370000 -0.200000
v 1.000000 2.430000 -0.200000
v -1.000000 3.500000 0.100000
v -1.000000 3.600000 0.100000
v -1.000000 3.500000 -0.180000
v -1.000000 3.600000 -0.180000
v 1.000000 3.500000 0.100000
v 1.000000 3.600000 0.100000
v 1.000000 3.500000 -0.180000
v 1.000000 3.600000 -0.180000
vn -1.0000 -0.0000 -0.0000
vn -0.0000 -0.0000 -1.0000
vn 1.0000 -0.0000 -0.0000
vn -0.0000 -0.0000 1.0000
vn -0.0000 -1.0000 -0.0000
vn -0.0000 1.0000 -0.0000
vt 0.350000 -1.300000
vt 0.350000 -1.160000
vt 0.610000 -1.160000
vt 0.610000 -1.300000
vt -0.500000 -1.300000
vt -0.500000 -1.160000
vt 1.500000 -1.160000
vt 1.500000 -1.300000
vt -0.500000 0.610000
vt 1.500000 0.610000
vt 1.500000 0.350000
vt -0.500000 0.350000
vt 0.350000 -1.300000
vt 0.350000 -0.300000
vt 0.550000 -0.300000
vt 0.550000 -1.300000
vt -0.500000 -0.300000
vt 1.500000 -0.300000
vt -0.500000 0.550000
vt 1.500000 0.550000
vt 1.500000 0.350000
vt -0.500000 0.350000
vt 0.350000 -0.325000
vt 0.350000 -0.275000
vt 0.630000 -0.275000
vt 0.630000 -0.325000
vt -0.500000 -0.325000
vt -0.500000 -0.275000
vt 1.500000 -0.275000
vt 1.500000 -0.325000
vt -0.500000 0.630000
vt 1.500000 0.630000
vt 0.350000 2.200000
vt 0.550000 2.200000
vt -0.500000 2.200000
vt 1.500000 2.200000
vt 0.350000 1.070000
vt 0.350000 1.130000
vt 0.650000 1.130000
vt 0.650000 1.070000
vt -0.500000 1.070000
vt -0.500000 1.130000
vt 1.500000 1.130000
vt 1.500000 1.070000
vt -0.500000 0.650000
vt 1.500000 0.650000
vt 0.350000 2.300000
vt 0.630000 2.300000
vt 0.630000 2.200000
vt -0.500000 2.300000
vt 1.500000 2.300000
s 0
usemtl SURF_Wood_Dark
f 1/1/1 2/2/1 4/3/1 3/4/1
f 3/5/2 4/6/2 8/7/2 7/8/2
f 7/4/3 8/3/3 6/2/3 5/1/3
f 5/8/4 6/7/4 2/6/4 1/5/4
f 3/9/5 7/10/5 5/11/5 1/12/5
f 8/10/6 4/9/6 2/12/6 6/11/6
f 9/13/1 10/14/1 12/15/1 11/16/1
f 11/5/2 12/17/2 16/18/2 15/8/2
f 15/16/3 16/15/3 14/14/3 13/13/3
f 13/8/4 14/18/4 10/17/4 9/5/4
f 11/19/5 15/20/5 13/21/5 9/22/5
f 16/20/6 12/19/6 10/22/6 14/21/6
f 17/23/1 18/24/1 20/25/1 19/26/1
f 19/27/2 20/28/2 24/29/2 23/30/2
f 23/26/3 24/25/3 22/24/3 21/23/3
f 21/30/4 22/29/4 18/28/4 17/27/4
f 19/31/5 23/32/5 21/21/5 17/22/5
f 24/32/6 20/31/6 18/22/6 22/21/6
f 33/37/1 34/38/1 36/39/1 35/40/1
f 35/41/2 36/42/2 40/43/2 39/44/2
f 39/40/3 40/39/3 38/38/3 37/37/3
f 37/44/4 38/43/4 34/42/4 33/41/4
f 35/45/5 39/46/5 37/21/5 33/22/5
f 40/46/6 36/45/6 34/22/6 38/21/6
usemtl SURF_Plaster_Wall
f 25/14/1 26/33/1 28/34/1 27/15/1
f 27/17/2 28/35/2 32/36/2 31/18/2
f 31/15/3 32/34/3 30/33/3 29/14/3
f 29/18/4 30/36/4 26/35/4 25/17/4
f 27/19/5 31/20/5 29/21/5 25/22/5
f 32/20/6 28/19/6 26/22/6 30/21/6
f 41/33/1 42/47/1 44/48/1 43/49/1
f 43/35/2 44/50/2 48/51/2 47/36/2
f 47/49/3 48/48/3 46/47/3 45/33/3
f 45/36/4 46/51/4 42/50/4 41/35/4
f 43/31/5 47/32/5 45/21/5 41/22/5
f 48/32/6 44/31/6 42/22/6 46/21/6
