# Blender 5.2.0 LTS
# www.blender.org
mtllib SM_K_Locker.mtl
o SM_K_Locker
v -0.900000 0.000000 0.220000
v -0.900000 0.120000 0.220000
v -0.900000 0.000000 -0.220000
v -0.900000 0.120000 -0.220000
v 0.900000 0.000000 0.220000
v 0.900000 0.120000 0.220000
v 0.900000 0.000000 -0.220000
v 0.900000 0.120000 -0.220000
v -0.890000 0.120000 0.200000
v -0.890000 1.880000 0.200000
v -0.890000 0.120000 -0.200000
v -0.890000 1.880000 -0.200000
v 0.890000 0.120000 0.200000
v 0.890000 1.880000 0.200000
v 0.890000 0.120000 -0.200000
v 0.890000 1.880000 -0.200000
v -0.880000 0.150000 -0.200000
v -0.880000 0.950000 -0.200000
v -0.880000 0.150000 -0.230000
v -0.880000 0.950000 -0.230000
v -0.320000 0.150000 -0.200000
v -0.320000 0.950000 -0.200000
v -0.320000 0.150000 -0.230000
v -0.320000 0.950000 -0.230000
v -0.770000 0.815000 -0.225000
v -0.770000 0.845000 -0.225000
v -0.770000 0.815000 -0.245000
v -0.770000 0.845000 -0.245000
v -0.430000 0.815000 -0.225000
v -0.430000 0.845000 -0.225000
v -0.430000 0.815000 -0.245000
v -0.430000 0.845000 -0.245000
v -0.770000 0.755000 -0.225000
v -0.770000 0.785000 -0.225000
v -0.770000 0.755000 -0.245000
v -0.770000 0.785000 -0.245000
v -0.430000 0.755000 -0.225000
v -0.430000 0.785000 -0.225000
v -0.430000 0.755000 -0.245000
v -0.430000 0.785000 -0.245000
v -0.405000 0.420000 -0.225000
v -0.405000 0.580000 -0.225000
v -0.405000 0.420000 -0.265000
v -0.405000 0.580000 -0.265000
v -0.355000 0.420000 -0.225000
v -0.355000 0.580000 -0.225000
v -0.355000 0.420000 -0.265000
v -0.355000 0.580000 -0.265000
v -0.880000 1.020000 -0.200000
v -0.880000 1.820000 -0.200000
v -0.880000 1.020000 -0.230000
v -0.880000 1.820000 -0.230000
v -0.320000 1.020000 -0.200000
v -0.320000 1.820000 -0.200000
v -0.320000 1.020000 -0.230000
v -0.320000 1.820000 -0.230000
v -0.770000 1.685000 -0.225000
v -0.770000 1.715000 -0.225000
v -0.770000 1.685000 -0.245000
v -0.770000 1.715000 -0.245000
v -0.430000 1.685000 -0.225000
v -0.430000 1.715000 -0.225000
v -0.430000 1.685000 -0.245000
v -0.430000 1.715000 -0.245000
v -0.770000 1.625000 -0.225000
v -0.770000 1.655000 -0.225000
v -0.770000 1.625000 -0.245000
v -0.770000 1.655000 -0.245000
v -0.430000 1.625000 -0.225000
v -0.430000 1.655000 -0.225000
v -0.430000 1.625000 -0.245000
v -0.430000 1.655000 -0.245000
v -0.405000 1.290000 -0.225000
v -0.405000 1.450000 -0.225000
v -0.405000 1.290000 -0.265000
v -0.405000 1.450000 -0.265000
v -0.355000 1.290000 -0.225000
v -0.355000 1.450000 -0.225000
v -0.355000 1.290000 -0.265000
v -0.355000 1.450000 -0.265000
v -0.280000 0.150000 -0.200000
v -0.280000 0.950000 -0.200000
v -0.280000 0.150000 -0.230000
v -0.280000 0.950000 -0.230000
v 0.280000 0.150000 -0.200000
v 0.280000 0.950000 -0.200000
v 0.280000 0.150000 -0.230000
v 0.280000 0.950000 -0.230000
v -0.170000 0.815000 -0.225000
v -0.170000 0.845000 -0.225000
v -0.170000 0.815000 -0.245000
v -0.170000 0.845000 -0.245000
v 0.170000 0.815000 -0.225000
v 0.170000 0.845000 -0.225000
v 0.170000 0.815000 -0.245000
v 0.170000 0.845000 -0.245000
v -0.170000 0.755000 -0.225000
v -0.170000 0.785000 -0.225000
v -0.170000 0.755000 -0.245000
v -0.170000 0.785000 -0.245000
v 0.170000 0.755000 -0.225000
v 0.170000 0.785000 -0.225000
v 0.170000 0.755000 -0.245000
v 0.170000 0.785000 -0.245000
v 0.195000 0.420000 -0.225000
v 0.195000 0.580000 -0.225000
v 0.195000 0.420000 -0.265000
v 0.195000 0.580000 -0.265000
v 0.245000 0.420000 -0.225000
v 0.245000 0.580000 -0.225000
v 0.245000 0.420000 -0.265000
v 0.245000 0.580000 -0.265000
v -0.280000 1.020000 -0.200000
v -0.280000 1.820000 -0.200000
v -0.280000 1.020000 -0.230000
v -0.280000 1.820000 -0.230000
v 0.280000 1.020000 -0.200000
v 0.280000 1.820000 -0.200000
v 0.280000 1.020000 -0.230000
v 0.280000 1.820000 -0.230000
v -0.170000 1.685000 -0.225000
v -0.170000 1.715000 -0.225000
v -0.170000 1.685000 -0.245000
v -0.170000 1.715000 -0.245000
v 0.170000 1.685000 -0.225000
v 0.170000 1.715000 -0.225000
v 0.170000 1.685000 -0.245000
v 0.170000 1.715000 -0.245000
v -0.170000 1.625000 -0.225000
v -0.170000 1.655000 -0.225000
v -0.170000 1.625000 -0.245000
v -0.170000 1.655000 -0.245000
v 0.170000 1.625000 -0.225000
v 0.170000 1.655000 -0.225000
v 0.170000 1.625000 -0.245000
v 0.170000 1.655000 -0.245000
v 0.195000 1.290000 -0.225000
v 0.195000 1.450000 -0.225000
v 0.195000 1.290000 -0.265000
v 0.195000 1.450000 -0.265000
v 0.245000 1.290000 -0.225000
v 0.245000 1.450000 -0.225000
v 0.245000 1.290000 -0.265000
v 0.245000 1.450000 -0.265000
v 0.320000 0.150000 -0.200000
v 0.320000 0.950000 -0.200000
v 0.320000 0.150000 -0.230000
v 0.320000 0.950000 -0.230000
v 0.880000 0.150000 -0.200000
v 0.880000 0.950000 -0.200000
v 0.880000 0.150000 -0.230000
v 0.880000 0.950000 -0.230000
v 0.430000 0.815000 -0.225000
v 0.430000 0.845000 -0.225000
v 0.430000 0.815000 -0.245000
v 0.430000 0.845000 -0.245000
v 0.770000 0.815000 -0.225000
v 0.770000 0.845000 -0.225000
v 0.770000 0.815000 -0.245000
v 0.770000 0.845000 -0.245000
v 0.430000 0.755000 -0.225000
v 0.430000 0.785000 -0.225000
v 0.430000 0.755000 -0.245000
v 0.430000 0.785000 -0.245000
v 0.770000 0.755000 -0.225000
v 0.770000 0.785000 -0.225000
v 0.770000 0.755000 -0.245000
v 0.770000 0.785000 -0.245000
v 0.795000 0.420000 -0.225000
v 0.795000 0.580000 -0.225000
v 0.795000 0.420000 -0.265000
v 0.795000 0.580000 -0.265000
v 0.845000 0.420000 -0.225000
v 0.845000 0.580000 -0.225000
v 0.845000 0.420000 -0.265000
v 0.845000 0.580000 -0.265000
v 0.320000 1.020000 -0.200000
v 0.320000 1.820000 -0.200000
v 0.320000 1.020000 -0.230000
v 0.320000 1.820000 -0.230000
v 0.880000 1.020000 -0.200000
v 0.880000 1.820000 -0.200000
v 0.880000 1.020000 -0.230000
v 0.880000 1.820000 -0.230000
v 0.430000 1.685000 -0.225000
v 0.430000 1.715000 -0.225000
v 0.430000 1.685000 -0.245000
v 0.430000 1.715000 -0.245000
v 0.770000 1.685000 -0.225000
v 0.770000 1.715000 -0.225000
v 0.770000 1.685000 -0.245000
v 0.770000 1.715000 -0.245000
v 0.430000 1.625000 -0.225000
v 0.430000 1.655000 -0.225000
v 0.430000 1.625000 -0.245000
v 0.430000 1.655000 -0.245000
v 0.770000 1.625000 -0.225000
v 0.770000 1.655000 -0.225000
v 0.770000 1.625000 -0.245000
v 0.770000 1.655000 -0.245000
v 0.795000 1.290000 -0.225000
v 0.795000 1.450000 -0.225000
v 0.795000 1.290000 -0.265000
v 0.795000 1.450000 -0.265000
v 0.845000 1.290000 -0.225000
v 0.845000 1.450000 -0.225000
v 0.845000 1.290000 -0.265000
v 0.845000 1.450000 -0.265000
vn -1.0000 -0.0000 -0.0000
vn -0.0000 -0.0000 -1.0000
vn 1.0000 -0.0000 -0.0000
vn -0.0000 -0.0000 1.0000
vn -0.0000 -1.0000 -0.0000
vn -0.0000 1.0000 -0.0000
vt 0.257500 -0.440000
vt 0.257500 -0.320000
vt 0.697500 -0.320000
vt 0.697500 -0.440000
vt -0.400000 -0.440000
vt -0.400000 -0.320000
vt 1.400000 -0.320000
vt 1.400000 -0.440000
vt -0.400000 0.697500
vt 1.400000 0.697500
vt 1.400000 0.257500
vt -0.400000 0.257500
vt 0.277500 -0.320000
vt 0.277500 1.440000
vt 0.677500 1.440000
vt 0.677500 -0.320000
vt -0.390000 -0.320000
vt -0.390000 1.440000
vt 1.390000 1.440000
vt 1.390000 -0.320000
vt -0.390000 0.677500
vt 1.390000 0.677500
vt 1.390000 0.277500
vt -0.390000 0.277500
vt 0.677500 -0.290000
vt 0.677500 0.510000
vt 0.707500 0.510000
vt 0.707500 -0.290000
vt -0.380000 -0.290000
vt -0.380000 0.510000
vt 0.180000 0.510000
vt 0.180000 -0.290000
vt -0.380000 0.707500
vt 0.180000 0.707500
vt 0.180000 0.677500
vt -0.380000 0.677500
vt 0.702500 0.375000
vt 0.702500 0.405000
vt 0.722500 0.405000
vt 0.722500 0.375000
vt -0.270000 0.375000
vt -0.270000 0.405000
vt 0.070000 0.405000
vt 0.070000 0.375000
vt -0.270000 0.722500
vt 0.070000 0.722500
vt 0.070000 0.702500
vt -0.270000 0.702500
vt 0.702500 0.315000
vt 0.702500 0.345000
vt 0.722500 0.345000
vt 0.722500 0.315000
vt -0.270000 0.315000
vt -0.270000 0.345000
vt 0.070000 0.345000
vt 0.070000 0.315000
vt 0.702500 -0.020000
vt 0.702500 0.140000
vt 0.742500 0.140000
vt 0.742500 -0.020000
vt 0.095000 -0.020000
vt 0.095000 0.140000
vt 0.145000 0.140000
vt 0.145000 -0.020000
vt 0.095000 0.742500
vt 0.145000 0.742500
vt 0.145000 0.702500
vt 0.095000 0.702500
vt 0.677500 0.580000
vt 0.677500 1.380000
vt 0.707500 1.380000
vt 0.707500 0.580000
vt -0.380000 0.580000
vt -0.380000 1.380000
vt 0.180000 1.380000
vt 0.180000 0.580000
vt 0.702500 1.245000
vt 0.702500 1.275000
vt 0.722500 1.275000
vt 0.722500 1.245000
vt -0.270000 1.245000
vt -0.270000 1.275000
vt 0.070000 1.275000
vt 0.070000 1.245000
vt 0.702500 1.185000
vt 0.702500 1.215000
vt 0.722500 1.215000
vt 0.722500 1.185000
vt -0.270000 1.185000
vt -0.270000 1.215000
vt 0.070000 1.215000
vt 0.070000 1.185000
vt 0.702500 0.850000
vt 0.702500 1.010000
vt 0.742500 1.010000
vt 0.742500 0.850000
vt 0.095000 0.850000
vt 0.095000 1.010000
vt 0.145000 1.010000
vt 0.145000 0.850000
vt 0.220000 -0.290000
vt 0.220000 0.510000
vt 0.780000 0.510000
vt 0.780000 -0.290000
vt 0.220000 0.707500
vt 0.780000 0.707500
vt 0.780000 0.677500
vt 0.220000 0.677500
vt 0.330000 0.375000
vt 0.330000 0.405000
vt 0.670000 0.405000
vt 0.670000 0.375000
vt 0.330000 0.722500
vt 0.670000 0.722500
vt 0.670000 0.702500
vt 0.330000 0.702500
vt 0.330000 0.315000
vt 0.330000 0.345000
vt 0.670000 0.345000
vt 0.670000 0.315000
vt 0.695000 -0.020000
vt 0.695000 0.140000
vt 0.745000 0.140000
vt 0.745000 -0.020000
vt 0.695000 0.742500
vt 0.745000 0.742500
vt 0.745000 0.702500
vt 0.695000 0.702500
vt 0.220000 0.580000
vt 0.220000 1.380000
vt 0.780000 1.380000
vt 0.780000 0.580000
vt 0.330000 1.245000
vt 0.330000 1.275000
vt 0.670000 1.275000
vt 0.670000 1.245000
vt 0.330000 1.185000
vt 0.330000 1.215000
vt 0.670000 1.215000
vt 0.670000 1.185000
vt 0.695000 0.850000
vt 0.695000 1.010000
vt 0.745000 1.010000
vt 0.745000 0.850000
vt 0.820000 -0.290000
vt 0.820000 0.510000
vt 1.380000 0.510000
vt 1.380000 -0.290000
vt 0.820000 0.707500
vt 1.380000 0.707500
vt 1.380000 0.677500
vt 0.820000 0.677500
vt 0.930000 0.375000
vt 0.930000 0.405000
vt 1.270000 0.405000
vt 1.270000 0.375000
vt 0.930000 0.722500
vt 1.270000 0.722500
vt 1.270000 0.702500
vt 0.930000 0.702500
vt 0.930000 0.315000
vt 0.930000 0.345000
vt 1.270000 0.345000
vt 1.270000 0.315000
vt 1.295000 -0.020000
vt 1.295000 0.140000
vt 1.345000 0.140000
vt 1.345000 -0.020000
vt 1.295000 0.742500
vt 1.345000 0.742500
vt 1.345000 0.702500
vt 1.295000 0.702500
vt 0.820000 0.580000
vt 0.820000 1.380000
vt 1.380000 1.380000
vt 1.380000 0.580000
vt 0.930000 1.245000
vt 0.930000 1.275000
vt 1.270000 1.275000
vt 1.270000 1.245000
vt 0.930000 1.185000
vt 0.930000 1.215000
vt 1.270000 1.215000
vt 1.270000 1.185000
vt 1.295000 0.850000
vt 1.295000 1.010000
vt 1.345000 1.010000
vt 1.345000 0.850000
s 0
usemtl SURF_Concrete_Struct
f 1/1/1 2/2/1 4/3/1 3/4/1
f 3/5/2 4/6/2 8/7/2 7/8/2
f 7/4/3 8/3/3 6/2/3 5/1/3
f 5/8/4 6/7/4 2/6/4 1/5/4
f 3/9/5 7/10/5 5/11/5 1/12/5
f 8/10/6 4/9/6 2/12/6 6/11/6
usemtl SURF_Metal_Fence
f 9/13/1 10/14/1 12/15/1 11/16/1
f 11/17/2 12/18/2 16/19/2 15/20/2
f 15/16/3 16/15/3 14/14/3 13/13/3
f 13/20/4 14/19/4 10/18/4 9/17/4
f 11/21/5 15/22/5 13/23/5 9/24/5
f 16/22/6 12/21/6 10/24/6 14/23/6
f 17/25/1 18/26/1 20/27/1 19/28/1
f 19/29/2 20/30/2 24/31/2 23/32/2
f 23/28/3 24/27/3 22/26/3 21/25/3
f 21/32/4 22/31/4 18/30/4 17/29/4
f 19/33/5 23/34/5 21/35/5 17/36/5
f 24/34/6 20/33/6 18/36/6 22/35/6
f 49/69/1 50/70/1 52/71/1 51/72/1
f 51/73/2 52/74/2 56/75/2 55/76/2
f 55/72/3 56/71/3 54/70/3 53/69/3
f 53/76/4 54/75/4 50/74/4 49/73/4
f 51/33/5 55/34/5 53/35/5 49/36/5
f 56/34/6 52/33/6 50/36/6 54/35/6
f 81/25/1 82/26/1 84/27/1 83/28/1
f 83/101/2 84/102/2 88/103/2 87/104/2
f 87/28/3 88/27/3 86/26/3 85/25/3
f 85/104/4 86/103/4 82/102/4 81/101/4
f 83/105/5 87/106/5 85/107/5 81/108/5
f 88/106/6 84/105/6 82/108/6 86/107/6
f 113/69/1 114/70/1 116/71/1 115/72/1
f 115/129/2 116/130/2 120/131/2 119/132/2
f 119/72/3 120/71/3 118/70/3 117/69/3
f 117/132/4 118/131/4 114/130/4 113/129/4
f 115/105/5 119/106/5 117/107/5 113/108/5
f 120/106/6 116/105/6 114/108/6 118/107/6
f 145/25/1 146/26/1 148/27/1 147/28/1
f 147/145/2 148/146/2 152/147/2 151/148/2
f 151/28/3 152/27/3 150/26/3 149/25/3
f 149/148/4 150/147/4 146/146/4 145/145/4
f 147/149/5 151/150/5 149/151/5 145/152/5
f 152/150/6 148/149/6 146/152/6 150/151/6
f 177/69/1 178/70/1 180/71/1 179/72/1
f 179/173/2 180/174/2 184/175/2 183/176/2
f 183/72/3 184/71/3 182/70/3 181/69/3
f 181/176/4 182/175/4 178/174/4 177/173/4
f 179/149/5 183/150/5 181/151/5 177/152/5
f 184/150/6 180/149/6 178/152/6 182/151/6
usemtl SURF_Wood_Dark
f 25/37/1 26/38/1 28/39/1 27/40/1
f 27/41/2 28/42/2 32/43/2 31/44/2
f 31/40/3 32/39/3 30/38/3 29/37/3
f 29/44/4 30/43/4 26/42/4 25/41/4
f 27/45/5 31/46/5 29/47/5 25/48/5
f 32/46/6 28/45/6 26/48/6 30/47/6
f 33/49/1 34/50/1 36/51/1 35/52/1
f 35/53/2 36/54/2 40/55/2 39/56/2
f 39/52/3 40/51/3 38/50/3 37/49/3
f 37/56/4 38/55/4 34/54/4 33/53/4
f 35/45/5 39/46/5 37/47/5 33/48/5
f 40/46/6 36/45/6 34/48/6 38/47/6
f 57/77/1 58/78/1 60/79/1 59/80/1
f 59/81/2 60/82/2 64/83/2 63/84/2
f 63/80/3 64/79/3 62/78/3 61/77/3
f 61/84/4 62/83/4 58/82/4 57/81/4
f 59/45/5 63/46/5 61/47/5 57/48/5
f 64/46/6 60/45/6 58/48/6 62/47/6
f 65/85/1 66/86/1 68/87/1 67/88/1
f 67/89/2 68/90/2 72/91/2 71/92/2
f 71/88/3 72/87/3 70/86/3 69/85/3
f 69/92/4 70/91/4 66/90/4 65/89/4
f 67/45/5 71/46/5 69/47/5 65/48/5
f 72/46/6 68/45/6 66/48/6 70/47/6
f 89/37/1 90/38/1 92/39/1 91/40/1
f 91/109/2 92/110/2 96/111/2 95/112/2
f 95/40/3 96/39/3 94/38/3 93/37/3
f 93/112/4 94/111/4 90/110/4 89/109/4
f 91/113/5 95/114/5 93/115/5 89/116/5
f 96/114/6 92/113/6 90/116/6 94/115/6
f 97/49/1 98/50/1 100/51/1 99/52/1
f 99/117/2 100/118/2 104/119/2 103/120/2
f 103/52/3 104/51/3 102/50/3 101/49/3
f 101/120/4 102/119/4 98/118/4 97/117/4
f 99/113/5 103/114/5 101/115/5 97/116/5
f 104/114/6 100/113/6 98/116/6 102/115/6
f 121/77/1 122/78/1 124/79/1 123/80/1
f 123/133/2 124/134/2 128/135/2 127/136/2
f 127/80/3 128/79/3 126/78/3 125/77/3
f 125/136/4 126/135/4 122/134/4 121/133/4
f 123/113/5 127/114/5 125/115/5 121/116/5
f 128/114/6 124/113/6 122/116/6 126/115/6
f 129/85/1 130/86/1 132/87/1 131/88/1
f 131/137/2 132/138/2 136/139/2 135/140/2
f 135/88/3 136/87/3 134/86/3 133/85/3
f 133/140/4 134/139/4 130/138/4 129/137/4
f 131/113/5 135/114/5 133/115/5 129/116/5
f 136/114/6 132/113/6 130/116/6 134/115/6
f 153/37/1 154/38/1 156/39/1 155/40/1
f 155/153/2 156/154/2 160/155/2 159/156/2
f 159/40/3 160/39/3 158/38/3 157/37/3
f 157/156/4 158/155/4 154/154/4 153/153/4
f 155/157/5 159/158/5 157/159/5 153/160/5
f 160/158/6 156/157/6 154/160/6 158/159/6
f 161/49/1 162/50/1 164/51/1 163/52/1
f 163/161/2 164/162/2 168/163/2 167/164/2
f 167/52/3 168/51/3 166/50/3 165/49/3
f 165/164/4 166/163/4 162/162/4 161/161/4
f 163/157/5 167/158/5 165/159/5 161/160/5
f 168/158/6 164/157/6 162/160/6 166/159/6
f 185/77/1 186/78/1 188/79/1 187/80/1
f 187/177/2 188/178/2 192/179/2 191/180/2
f 191/80/3 192/79/3 190/78/3 189/77/3
f 189/180/4 190/179/4 186/178/4 185/177/4
f 187/157/5 191/158/5 189/159/5 185/160/5
f 192/158/6 188/157/6 186/160/6 190/159/6
f 193/85/1 194/86/1 196/87/1 195/88/1
f 195/181/2 196/182/2 200/183/2 199/184/2
f 199/88/3 200/87/3 198/86/3 197/85/3
f 197/184/4 198/183/4 194/182/4 193/181/4
f 195/157/5 199/158/5 197/159/5 193/160/5
f 200/158/6 196/157/6 194/160/6 198/159/6
usemtl SURF_Steel_Sign
f 41/57/1 42/58/1 44/59/1 43/60/1
f 43/61/2 44/62/2 48/63/2 47/64/2
f 47/60/3 48/59/3 46/58/3 45/57/3
f 45/64/4 46/63/4 42/62/4 41/61/4
f 43/65/5 47/66/5 45/67/5 41/68/5
f 48/66/6 44/65/6 42/68/6 46/67/6
f 73/93/1 74/94/1 76/95/1 75/96/1
f 75/97/2 76/98/2 80/99/2 79/100/2
f 79/96/3 80/95/3 78/94/3 77/93/3
f 77/100/4 78/99/4 74/98/4 73/97/4
f 75/65/5 79/66/5 77/67/5 73/68/5
f 80/66/6 76/65/6 74/68/6 78/67/6
f 105/57/1 106/58/1 108/59/1 107/60/1
f 107/121/2 108/122/2 112/123/2 111/124/2
f 111/60/3 112/59/3 110/58/3 109/57/3
f 109/124/4 110/123/4 106/122/4 105/121/4
f 107/125/5 111/126/5 109/127/5 105/128/5
f 112/126/6 108/125/6 106/128/6 110/127/6
f 137/93/1 138/94/1 140/95/1 139/96/1
f 139/141/2 140/142/2 144/143/2 143/144/2
f 143/96/3 144/95/3 142/94/3 141/93/3
f 141/144/4 142/143/4 138/142/4 137/141/4
f 139/125/5 143/126/5 141/127/5 137/128/5
f 144/126/6 140/125/6 138/128/6 142/127/6
f 169/57/1 170/58/1 172/59/1 171/60/1
f 171/165/2 172/166/2 176/167/2 175/168/2
f 175/60/3 176/59/3 174/58/3 173/57/3
f 173/168/4 174/167/4 170/166/4 169/165/4
f 171/169/5 175/170/5 173/171/5 169/172/5
f 176/170/6 172/169/6 170/172/6 174/171/6
f 201/93/1 202/94/1 204/95/1 203/96/1
f 203/185/2 204/186/2 208/187/2 207/188/2
f 207/96/3 208/95/3 206/94/3 205/93/3
f 205/188/4 206/187/4 202/186/4 201/185/4
f 203/169/5 207/170/5 205/171/5 201/172/5
f 208/170/6 204/169/6 202/172/6 206/171/6
