# Blender 5.2.0 LTS
# www.blender.org
mtllib SM_K_FireCabinet.mtl
o SM_K_FireCabinet
v -0.188000 0.000000 0.113000
v -0.188000 0.012000 0.125000
v -0.200000 0.012000 0.113000
v -0.188000 0.888000 0.125000
v -0.188000 0.900000 0.113000
v -0.200000 0.888000 0.113000
v -0.188000 0.000000 -0.113000
v -0.200000 0.012000 -0.113000
v -0.188000 0.012000 -0.125000
v -0.188000 0.900000 -0.113000
v -0.188000 0.888000 -0.125000
v -0.200000 0.888000 -0.113000
v 0.188000 0.000000 0.113000
v 0.200000 0.012000 0.113000
v 0.188000 0.012000 0.125000
v 0.188000 0.900000 0.113000
v 0.188000 0.888000 0.125000
v 0.200000 0.888000 0.113000
v 0.188000 0.000000 -0.113000
v 0.188000 0.012000 -0.125000
v 0.200000 0.012000 -0.113000
v 0.188000 0.900000 -0.113000
v 0.200000 0.888000 -0.113000
v 0.188000 0.888000 -0.125000
v -0.160000 0.090000 -0.105000
v -0.160000 0.810000 -0.105000
v -0.160000 0.090000 -0.125000
v -0.160000 0.810000 -0.125000
v 0.160000 0.090000 -0.105000
v 0.160000 0.810000 -0.105000
v 0.160000 0.090000 -0.125000
v 0.160000 0.810000 -0.125000
v -0.180000 0.800000 -0.095000
v -0.180000 0.860000 -0.095000
v -0.180000 0.800000 -0.145000
v -0.180000 0.860000 -0.145000
v 0.180000 0.800000 -0.095000
v 0.180000 0.860000 -0.095000
v 0.180000 0.800000 -0.145000
v 0.180000 0.860000 -0.145000
v -0.180000 0.040000 -0.095000
v -0.180000 0.100000 -0.095000
v -0.180000 0.040000 -0.145000
v -0.180000 0.100000 -0.145000
v 0.180000 0.040000 -0.095000
v 0.180000 0.100000 -0.095000
v 0.180000 0.040000 -0.145000
v 0.180000 0.100000 -0.145000
v -0.195000 0.050000 -0.095000
v -0.195000 0.850000 -0.095000
v -0.195000 0.050000 -0.145000
v -0.195000 0.850000 -0.145000
v -0.145000 0.050000 -0.095000
v -0.145000 0.850000 -0.095000
v -0.145000 0.050000 -0.145000
v -0.145000 0.850000 -0.145000
v 0.145000 0.050000 -0.095000
v 0.145000 0.850000 -0.095000
v 0.145000 0.050000 -0.145000
v 0.145000 0.850000 -0.145000
v 0.195000 0.050000 -0.095000
v 0.195000 0.850000 -0.095000
v 0.195000 0.050000 -0.145000
v 0.195000 0.850000 -0.145000
v -0.120000 0.750000 -0.125000
v -0.120000 0.850000 -0.125000
v -0.120000 0.750000 -0.145000
v -0.120000 0.850000 -0.145000
v 0.120000 0.750000 -0.125000
v 0.120000 0.850000 -0.125000
v 0.120000 0.750000 -0.145000
v 0.120000 0.850000 -0.145000
v 0.085000 0.370000 -0.115000
v 0.085000 0.530000 -0.115000
v 0.085000 0.370000 -0.165000
v 0.085000 0.530000 -0.165000
v 0.115000 0.370000 -0.115000
v 0.115000 0.530000 -0.115000
v 0.115000 0.370000 -0.165000
v 0.115000 0.530000 -0.165000
vn -0.5774 -0.5774 0.5773
vn -0.5773 0.5774 0.5774
vn -0.5774 -0.5774 -0.5774
vn -0.5773 0.5774 -0.5774
vn 0.5774 -0.5774 0.5774
vn 0.5773 0.5774 0.5774
vn 0.5774 -0.5774 -0.5773
vn 0.5773 0.5774 -0.5774
vn -0.7071 -0.7071 -0.0000
vn -0.7071 -0.0000 0.7071
vn -0.7071 0.7071 -0.0000
vn -0.7071 -0.0000 -0.7071
vn -0.0000 -0.7071 -0.7071
vn -0.0000 0.7071 -0.7071
vn 0.7071 -0.0000 -0.7071
vn 0.7071 -0.7071 -0.0000
vn 0.7071 0.7071 -0.0000
vn 0.7071 -0.0000 0.7071
vn -0.0000 -0.7071 0.7071
vn -0.0000 0.7071 0.7071
vn -0.0000 -1.0000 -0.0000
vn -1.0000 -0.0000 -0.0000
vn -0.0000 -0.0000 1.0000
vn -0.0000 1.0000 -0.0000
vn -0.0000 -0.0000 -1.0000
vn 1.0000 -0.0000 -0.0000
vt 0.367000 0.050000
vt 0.355000 0.062000
vt 0.367000 0.062000
vt 0.355000 0.938000
vt 0.367000 0.950000
vt 0.367000 0.938000
vt 0.593000 0.050000
vt 0.593000 0.062000
vt 0.605000 0.062000
vt 0.593000 0.950000
vt 0.605000 0.938000
vt 0.593000 0.938000
vt 0.688000 0.593000
vt 0.312000 0.593000
vt 0.312000 0.605000
vt 0.688000 0.605000
vt 0.312000 0.950000
vt 0.688000 0.950000
vt 0.688000 0.938000
vt 0.312000 0.938000
vt 0.312000 0.367000
vt 0.688000 0.367000
vt 0.688000 0.355000
vt 0.312000 0.355000
vt 0.688000 0.062000
vt 0.312000 0.062000
vt 0.585000 0.140000
vt 0.585000 0.860000
vt 0.605000 0.860000
vt 0.605000 0.140000
vt 0.340000 0.140000
vt 0.340000 0.860000
vt 0.660000 0.860000
vt 0.660000 0.140000
vt 0.340000 0.605000
vt 0.660000 0.605000
vt 0.660000 0.585000
vt 0.340000 0.585000
vt 0.575000 0.850000
vt 0.575000 0.910000
vt 0.625000 0.910000
vt 0.625000 0.850000
vt 0.320000 0.850000
vt 0.320000 0.910000
vt 0.680000 0.910000
vt 0.680000 0.850000
vt 0.320000 0.625000
vt 0.680000 0.625000
vt 0.680000 0.575000
vt 0.320000 0.575000
vt 0.575000 0.090000
vt 0.575000 0.150000
vt 0.625000 0.150000
vt 0.625000 0.090000
vt 0.320000 0.090000
vt 0.320000 0.150000
vt 0.680000 0.150000
vt 0.680000 0.090000
vt 0.575000 0.100000
vt 0.575000 0.900000
vt 0.625000 0.900000
vt 0.625000 0.100000
vt 0.305000 0.100000
vt 0.305000 0.900000
vt 0.355000 0.900000
vt 0.355000 0.100000
vt 0.305000 0.625000
vt 0.355000 0.625000
vt 0.355000 0.575000
vt 0.305000 0.575000
vt 0.645000 0.100000
vt 0.645000 0.900000
vt 0.695000 0.900000
vt 0.695000 0.100000
vt 0.645000 0.625000
vt 0.695000 0.625000
vt 0.695000 0.575000
vt 0.645000 0.575000
vt 0.605000 0.800000
vt 0.605000 0.900000
vt 0.625000 0.800000
vt 0.380000 0.800000
vt 0.380000 0.900000
vt 0.620000 0.900000
vt 0.620000 0.800000
vt 0.380000 0.625000
vt 0.620000 0.625000
vt 0.620000 0.605000
vt 0.380000 0.605000
vt 0.595000 0.420000
vt 0.595000 0.580000
vt 0.645000 0.580000
vt 0.645000 0.420000
vt 0.585000 0.420000
vt 0.585000 0.580000
vt 0.615000 0.580000
vt 0.615000 0.420000
vt 0.585000 0.645000
vt 0.615000 0.645000
vt 0.615000 0.595000
vt 0.585000 0.595000
s 0
usemtl SURF_Crimson_Core
f 1/1/1 2/2/1 3/3/1
f 4/4/2 5/5/2 6/6/2
f 7/7/3 8/8/3 9/9/3
f 10/10/4 11/11/4 12/12/4
f 13/1/5 14/3/5 15/2/5
f 16/5/6 17/4/6 18/6/6
f 19/7/7 20/9/7 21/8/7
f 22/10/8 23/12/8 24/11/8
f 7/7/9 1/1/9 3/3/9 8/8/9
f 2/2/10 4/4/10 6/6/10 3/3/10
f 5/5/11 10/10/11 12/12/11 6/6/11
f 11/11/12 9/9/12 8/8/12 12/12/12
f 19/13/13 7/14/13 9/15/13 20/16/13
f 10/17/14 22/18/14 24/19/14 11/20/14
f 23/12/15 21/8/15 20/9/15 24/11/15
f 13/1/16 19/7/16 21/8/16 14/3/16
f 22/10/17 16/5/17 18/6/17 23/12/17
f 17/4/18 15/2/18 14/3/18 18/6/18
f 1/21/19 13/22/19 15/23/19 2/24/19
f 16/18/20 5/17/20 4/20/20 17/19/20
f 7/14/21 19/13/21 13/22/21 1/21/21
f 3/3/22 6/6/22 12/12/22 8/8/22
f 15/25/23 17/19/23 4/20/23 2/26/23
f 22/13/24 10/14/24 5/21/24 16/22/24
f 9/26/25 11/20/25 24/19/25 20/25/25
f 21/8/26 23/12/26 18/6/26 14/3/26
f 33/39/22 34/40/22 36/41/22 35/42/22
f 35/43/25 36/44/25 40/45/25 39/46/25
f 39/42/26 40/41/26 38/40/26 37/39/26
f 37/46/23 38/45/23 34/44/23 33/43/23
f 35/47/21 39/48/21 37/49/21 33/50/21
f 40/48/24 36/47/24 34/50/24 38/49/24
f 41/51/22 42/52/22 44/53/22 43/54/22
f 43/55/25 44/56/25 48/57/25 47/58/25
f 47/54/26 48/53/26 46/52/26 45/51/26
f 45/58/23 46/57/23 42/56/23 41/55/23
f 43/47/21 47/48/21 45/49/21 41/50/21
f 48/48/24 44/47/24 42/50/24 46/49/24
f 49/59/22 50/60/22 52/61/22 51/62/22
f 51/63/25 52/64/25 56/65/25 55/66/25
f 55/62/26 56/61/26 54/60/26 53/59/26
f 53/66/23 54/65/23 50/64/23 49/63/23
f 51/67/21 55/68/21 53/69/21 49/70/21
f 56/68/24 52/67/24 50/70/24 54/69/24
f 57/59/22 58/60/22 60/61/22 59/62/22
f 59/71/25 60/72/25 64/73/25 63/74/25
f 63/62/26 64/61/26 62/60/26 61/59/26
f 61/74/23 62/73/23 58/72/23 57/71/23
f 59/75/21 63/76/21 61/77/21 57/78/21
f 64/76/24 60/75/24 58/78/24 62/77/24
usemtl SURF_Glass_Std
f 25/27/22 26/28/22 28/29/22 27/30/22
f 27/31/25 28/32/25 32/33/25 31/34/25
f 31/30/26 32/29/26 30/28/26 29/27/26
f 29/34/23 30/33/23 26/32/23 25/31/23
f 27/35/21 31/36/21 29/37/21 25/38/21
f 32/36/24 28/35/24 26/38/24 30/37/24
usemtl SURF_Steel_Sign
f 65/79/22 66/80/22 68/61/22 67/81/22
f 67/82/25 68/83/25 72/84/25 71/85/25
f 71/81/26 72/61/26 70/80/26 69/79/26
f 69/85/23 70/84/23 66/83/23 65/82/23
f 67/86/21 71/87/21 69/88/21 65/89/21
f 72/87/24 68/86/24 66/89/24 70/88/24
usemtl SURF_Metal_Fence
f 73/90/22 74/91/22 76/92/22 75/93/22
f 75/94/25 76/95/25 80/96/25 79/97/25
f 79/93/26 80/92/26 78/91/26 77/90/26
f 77/97/23 78/96/23 74/95/23 73/94/23
f 75/98/21 79/99/21 77/100/21 73/101/21
f 80/99/24 76/98/24 74/101/24 78/100/24
