# Blender 5.2.0 LTS
# www.blender.org
mtllib SM_K_Stairs.mtl
o SM_K_Stairs
v -1.000000 0.025000 0.000000
v -1.000000 0.250000 0.000000
v -1.000000 0.025000 -0.300000
v -1.000000 0.250000 -0.300000
v 1.000000 0.025000 0.000000
v 1.000000 0.250000 0.000000
v 1.000000 0.025000 -0.300000
v 1.000000 0.250000 -0.300000
v -1.000000 0.025000 -0.300000
v -1.000000 0.475000 -0.300000
v -1.000000 0.025000 -0.600000
v -1.000000 0.475000 -0.600000
v 1.000000 0.025000 -0.300000
v 1.000000 0.475000 -0.300000
v 1.000000 0.025000 -0.600000
v 1.000000 0.475000 -0.600000
v -1.000000 0.025000 -0.600000
v -1.000000 0.700000 -0.600000
v -1.000000 0.025000 -0.900000
v -1.000000 0.700000 -0.900000
v 1.000000 0.025000 -0.600000
v 1.000000 0.700000 -0.600000
v 1.000000 0.025000 -0.900000
v 1.000000 0.700000 -0.900000
v -1.000000 0.025000 -0.900000
v -1.000000 0.925000 -0.900000
v -1.000000 0.025000 -1.200000
v -1.000000 0.925000 -1.200000
v 1.000000 0.025000 -0.900000
v 1.000000 0.925000 -0.900000
v 1.000000 0.025000 -1.200000
v 1.000000 0.925000 -1.200000
v -1.000000 0.025000 -1.200000
v -1.000000 1.150000 -1.200000
v -1.000000 0.025000 -1.500000
v -1.000000 1.150000 -1.500000
v 1.000000 0.025000 -1.200000
v 1.000000 1.150000 -1.200000
v 1.000000 0.025000 -1.500000
v 1.000000 1.150000 -1.500000
v -1.000000 0.025000 -1.500000
v -1.000000 1.375000 -1.500000
v -1.000000 0.025000 -1.800000
v -1.000000 1.375000 -1.800000
v 1.000000 0.025000 -1.500000
v 1.000000 1.375000 -1.500000
v 1.000000 0.025000 -1.800000
v 1.000000 1.375000 -1.800000
v -1.000000 0.025000 -1.800000
v -1.000000 1.600000 -1.800000
v -1.000000 0.025000 -2.100000
v -1.000000 1.600000 -2.100000
v 1.000000 0.025000 -1.800000
v 1.000000 1.600000 -1.800000
v 1.000000 0.025000 -2.100000
v 1.000000 1.600000 -2.100000
v -1.000000 0.025000 -2.100000
v -1.000000 1.825000 -2.100000
v -1.000000 0.025000 -2.400000
v -1.000000 1.825000 -2.400000
v 1.000000 0.025000 -2.100000
v 1.000000 1.825000 -2.100000
v 1.000000 0.025000 -2.400000
v 1.000000 1.825000 -2.400000
v -1.000000 1.725000 -2.400000
v -1.000000 1.825000 -2.400000
v -1.000000 1.725000 -2.900000
v -1.000000 1.825000 -2.900000
v 1.000000 1.725000 -2.400000
v 1.000000 1.825000 -2.400000
v 1.000000 1.725000 -2.900000
v 1.000000 1.825000 -2.900000
v 0.920000 1.257000 1.299000
v 0.920000 1.313000 1.341000
v 0.920000 3.057000 -1.101000
v 0.920000 3.113000 -1.059000
v 0.980000 1.257000 1.299000
v 0.980000 1.313000 1.341000
v 0.980000 3.057000 -1.101000
v 0.980000 3.113000 -1.059000
v 0.925000 0.000000 0.025000
v 0.925000 0.950000 0.025000
v 0.925000 0.000000 -0.025000
v 0.925000 0.950000 -0.025000
v 0.975000 0.000000 0.025000
v 0.975000 0.950000 0.025000
v 0.975000 0.000000 -0.025000
v 0.975000 0.950000 -0.025000
v 0.925000 0.450000 -0.575000
v 0.925000 1.400000 -0.575000
v 0.925000 0.450000 -0.625000
v 0.925000 1.400000 -0.625000
v 0.975000 0.450000 -0.575000
v 0.975000 1.400000 -0.575000
v 0.975000 0.450000 -0.625000
v 0.975000 1.400000 -0.625000
v 0.925000 0.900000 -1.175000
v 0.925000 1.850000 -1.175000
v 0.925000 0.900000 -1.225000
v 0.925000 1.850000 -1.225000
v 0.975000 0.900000 -1.175000
v 0.975000 1.850000 -1.175000
v 0.975000 0.900000 -1.225000
v 0.975000 1.850000 -1.225000
v 0.925000 1.350000 -1.775000
v 0.925000 2.300000 -1.775000
v 0.925000 1.350000 -1.825000
v 0.925000 2.300000 -1.825000
v 0.975000 1.350000 -1.775000
v 0.975000 2.300000 -1.775000
v 0.975000 1.350000 -1.825000
v 0.975000 2.300000 -1.825000
v 0.925000 1.800000 -2.375000
v 0.925000 2.750000 -2.375000
v 0.925000 1.800000 -2.425000
v 0.925000 2.750000 -2.425000
v 0.975000 1.800000 -2.375000
v 0.975000 2.750000 -2.375000
v 0.975000 1.800000 -2.425000
v 0.975000 2.750000 -2.425000
vn -1.0000 -0.0000 -0.0000
vn -0.0000 -0.0000 -1.0000
vn 1.0000 -0.0000 -0.0000
vn -0.0000 -0.0000 1.0000
vn -0.0000 -1.0000 -0.0000
vn -0.0000 1.0000 -0.0000
vn -0.0000 0.6000 -0.8000
vn -0.0000 -0.6000 0.8000
vn -0.0000 -0.8000 -0.6000
vn -0.0000 0.8000 0.6000
vt -0.279500 -1.031500
vt -0.279500 -0.806500
vt 0.020500 -0.806500
vt 0.020500 -1.031500
vt -0.500000 -1.031500
vt -0.500000 -0.806500
vt 1.500000 -0.806500
vt 1.500000 -1.031500
vt -0.500000 0.020500
vt 1.500000 0.020500
vt 1.500000 -0.279500
vt -0.500000 -0.279500
vt 0.020500 -1.031500
vt 0.020500 -0.581500
vt 0.320500 -0.581500
vt 0.320500 -1.031500
vt -0.500000 -0.581500
vt 1.500000 -0.581500
vt -0.500000 0.320500
vt 1.500000 0.320500
vt 1.500000 0.020500
vt -0.500000 0.020500
vt 0.320500 -0.356500
vt 0.620500 -0.356500
vt 0.620500 -1.031500
vt -0.500000 -0.356500
vt 1.500000 -0.356500
vt -0.500000 0.620500
vt 1.500000 0.620500
vt 0.620500 -0.131500
vt 0.920500 -0.131500
vt 0.920500 -1.031500
vt -0.500000 -0.131500
vt 1.500000 -0.131500
vt -0.500000 0.920500
vt 1.500000 0.920500
vt 0.920500 -1.031500
vt 0.920500 0.093500
vt 1.220500 0.093500
vt 1.220500 -1.031500
vt -0.500000 0.093500
vt 1.500000 0.093500
vt -0.500000 1.220500
vt 1.500000 1.220500
vt 1.500000 0.920500
vt -0.500000 0.920500
vt 1.220500 0.318500
vt 1.520500 0.318500
vt 1.520500 -1.031500
vt -0.500000 0.318500
vt 1.500000 0.318500
vt -0.500000 1.520500
vt 1.500000 1.520500
vt 1.520500 0.543500
vt 1.820500 0.543500
vt 1.820500 -1.031500
vt -0.500000 0.543500
vt 1.500000 0.543500
vt -0.500000 1.820500
vt 1.500000 1.820500
vt 1.820500 -1.031500
vt 1.820500 0.768500
vt 2.120500 0.768500
vt 2.120500 -1.031500
vt -0.500000 0.768500
vt 1.500000 0.768500
vt -0.500000 2.120500
vt 1.500000 2.120500
vt 1.500000 1.820500
vt -0.500000 1.820500
vt 2.120500 0.668500
vt 2.620500 0.768500
vt 2.620500 0.668500
vt -0.500000 0.668500
vt 1.500000 0.668500
vt -0.500000 2.620500
vt 1.500000 2.620500
vt -1.578500 0.200500
vt -1.620500 0.256500
vt 0.779500 2.056500
vt 0.821500 2.000500
vt 1.420000 2.000500
vt 1.420000 2.056500
vt 1.480000 2.056500
vt 1.480000 2.000500
vt 1.480000 0.200500
vt 1.480000 0.256500
vt 1.420000 0.256500
vt 1.420000 0.200500
vt 1.420000 0.821500
vt 1.480000 0.821500
vt 1.480000 -1.578500
vt 1.420000 -1.578500
vt 1.480000 0.779500
vt 1.420000 0.779500
vt 1.420000 -1.620500
vt 1.480000 -1.620500
vt -0.304500 -1.056500
vt -0.304500 -0.106500
vt -0.254500 -0.106500
vt -0.254500 -1.056500
vt 1.425000 -1.056500
vt 1.425000 -0.106500
vt 1.475000 -0.106500
vt 1.475000 -1.056500
vt 1.425000 -0.254500
vt 1.475000 -0.254500
vt 1.475000 -0.304500
vt 1.425000 -0.304500
vt 0.295500 -0.606500
vt 0.295500 0.343500
vt 0.345500 0.343500
vt 0.345500 -0.606500
vt 1.425000 -0.606500
vt 1.425000 0.343500
vt 1.475000 0.343500
vt 1.475000 -0.606500
vt 1.425000 0.345500
vt 1.475000 0.345500
vt 1.475000 0.295500
vt 1.425000 0.295500
vt 0.895500 -0.156500
vt 0.895500 0.793500
vt 0.945500 0.793500
vt 0.945500 -0.156500
vt 1.425000 -0.156500
vt 1.425000 0.793500
vt 1.475000 0.793500
vt 1.475000 -0.156500
vt 1.425000 0.945500
vt 1.475000 0.945500
vt 1.475000 0.895500
vt 1.425000 0.895500
vt 1.495500 0.293500
vt 1.495500 1.243500
vt 1.545500 1.243500
vt 1.545500 0.293500
vt 1.425000 0.293500
vt 1.425000 1.243500
vt 1.475000 1.243500
vt 1.475000 0.293500
vt 1.425000 1.545500
vt 1.475000 1.545500
vt 1.475000 1.495500
vt 1.425000 1.495500
vt 2.095500 0.743500
vt 2.095500 1.693500
vt 2.145500 1.693500
vt 2.145500 0.743500
vt 1.425000 0.743500
vt 1.425000 1.693500
vt 1.475000 1.693500
vt 1.475000 0.743500
vt 1.425000 2.145500
vt 1.475000 2.145500
vt 1.475000 2.095500
vt 1.425000 2.095500
s 0
usemtl SURF_Concrete_Struct
f 1/1/1 2/2/1 4/3/1 3/4/1
f 3/5/2 4/6/2 8/7/2 7/8/2
f 7/4/3 8/3/3 6/2/3 5/1/3
f 5/8/4 6/7/4 2/6/4 1/5/4
f 3/9/5 7/10/5 5/11/5 1/12/5
f 8/10/6 4/9/6 2/12/6 6/11/6
f 9/13/1 10/14/1 12/15/1 11/16/1
f 11/5/2 12/17/2 16/18/2 15/8/2
f 15/16/3 16/15/3 14/14/3 13/13/3
f 13/8/4 14/18/4 10/17/4 9/5/4
f 11/19/5 15/20/5 13/21/5 9/22/5
f 16/20/6 12/19/6 10/22/6 14/21/6
f 17/16/1 18/23/1 20/24/1 19/25/1
f 19/5/2 20/26/2 24/27/2 23/8/2
f 23/25/3 24/24/3 22/23/3 21/16/3
f 21/8/4 22/27/4 18/26/4 17/5/4
f 19/28/5 23/29/5 21/20/5 17/19/5
f 24/29/6 20/28/6 18/19/6 22/20/6
f 25/25/1 26/30/1 28/31/1 27/32/1
f 27/5/2 28/33/2 32/34/2 31/8/2
f 31/32/3 32/31/3 30/30/3 29/25/3
f 29/8/4 30/34/4 26/33/4 25/5/4
f 27/35/5 31/36/5 29/29/5 25/28/5
f 32/36/6 28/35/6 26/28/6 30/29/6
f 33/37/1 34/38/1 36/39/1 35/40/1
f 35/5/2 36/41/2 40/42/2 39/8/2
f 39/40/3 40/39/3 38/38/3 37/37/3
f 37/8/4 38/42/4 34/41/4 33/5/4
f 35/43/5 39/44/5 37/45/5 33/46/5
f 40/44/6 36/43/6 34/46/6 38/45/6
f 41/40/1 42/47/1 44/48/1 43/49/1
f 43/5/2 44/50/2 48/51/2 47/8/2
f 47/49/3 48/48/3 46/47/3 45/40/3
f 45/8/4 46/51/4 42/50/4 41/5/4
f 43/52/5 47/53/5 45/44/5 41/43/5
f 48/53/6 44/52/6 42/43/6 46/44/6
f 49/49/1 50/54/1 52/55/1 51/56/1
f 51/5/2 52/57/2 56/58/2 55/8/2
f 55/56/3 56/55/3 54/54/3 53/49/3
f 53/8/4 54/58/4 50/57/4 49/5/4
f 51/59/5 55/60/5 53/53/5 49/52/5
f 56/60/6 52/59/6 50/52/6 54/53/6
f 57/61/1 58/62/1 60/63/1 59/64/1
f 59/5/2 60/65/2 64/66/2 63/8/2
f 63/64/3 64/63/3 62/62/3 61/61/3
f 61/8/4 62/66/4 58/65/4 57/5/4
f 59/67/5 63/68/5 61/69/5 57/70/5
f 64/68/6 60/67/6 58/70/6 62/69/6
f 65/71/1 66/63/1 68/72/1 67/73/1
f 67/74/2 68/65/2 72/66/2 71/75/2
f 71/73/3 72/72/3 70/63/3 69/71/3
f 69/75/4 70/66/4 66/65/4 65/74/4
f 67/76/5 71/77/5 69/68/5 65/67/5
f 72/77/6 68/76/6 66/67/6 70/68/6
usemtl SURF_Metal_Fence
f 73/78/1 74/79/1 76/80/1 75/81/1
f 75/82/7 76/83/7 80/84/7 79/85/7
f 79/81/3 80/80/3 78/79/3 77/78/3
f 77/86/8 78/87/8 74/88/8 73/89/8
f 75/90/9 79/91/9 77/92/9 73/93/9
f 80/94/10 76/95/10 74/96/10 78/97/10
f 81/98/1 82/99/1 84/100/1 83/101/1
f 83/102/2 84/103/2 88/104/2 87/105/2
f 87/101/3 88/100/3 86/99/3 85/98/3
f 85/105/4 86/104/4 82/103/4 81/102/4
f 83/106/5 87/107/5 85/108/5 81/109/5
f 88/107/6 84/106/6 82/109/6 86/108/6
f 89/110/1 90/111/1 92/112/1 91/113/1
f 91/114/2 92/115/2 96/116/2 95/117/2
f 95/113/3 96/112/3 94/111/3 93/110/3
f 93/117/4 94/116/4 90/115/4 89/114/4
f 91/118/5 95/119/5 93/120/5 89/121/5
f 96/119/6 92/118/6 90/121/6 94/120/6
f 97/122/1 98/123/1 100/124/1 99/125/1
f 99/126/2 100/127/2 104/128/2 103/129/2
f 103/125/3 104/124/3 102/123/3 101/122/3
f 101/129/4 102/128/4 98/127/4 97/126/4
f 99/130/5 103/131/5 101/132/5 97/133/5
f 104/131/6 100/130/6 98/133/6 102/132/6
f 105/134/1 106/135/1 108/136/1 107/137/1
f 107/138/2 108/139/2 112/140/2 111/141/2
f 111/137/3 112/136/3 110/135/3 109/134/3
f 109/141/4 110/140/4 106/139/4 105/138/4
f 107/142/5 111/143/5 109/144/5 105/145/5
f 112/143/6 108/142/6 106/145/6 110/144/6
f 113/146/1 114/147/1 116/148/1 115/149/1
f 115/150/2 116/151/2 120/152/2 119/153/2
f 119/149/3 120/148/3 118/147/3 117/146/3
f 117/153/4 118/152/4 114/151/4 113/150/4
f 115/154/5 119/155/5 117/156/5 113/157/5
f 120/155/6 116/154/6 114/157/6 118/156/6
