# Blender 5.2.0 LTS
# www.blender.org
mtllib SM_K_ClassroomDoor.mtl
o SM_K_ClassroomDoor
v -0.980000 0.035000 0.080000
v -0.980000 0.055000 0.100000
v -1.000000 0.055000 0.080000
v -0.980000 3.615000 0.100000
v -0.980000 3.635000 0.080000
v -1.000000 3.615000 0.080000
v -0.980000 0.035000 -0.080000
v -1.000000 0.055000 -0.080000
v -0.980000 0.055000 -0.100000
v -0.980000 3.635000 -0.080000
v -0.980000 3.615000 -0.100000
v -1.000000 3.615000 -0.080000
v 0.980000 0.035000 0.080000
v 1.000000 0.055000 0.080000
v 0.980000 0.055000 0.100000
v 0.980000 3.635000 0.080000
v 0.980000 3.615000 0.100000
v 1.000000 3.615000 0.080000
v 1.000000 0.055000 -0.080000
v 0.980000 0.035000 -0.080000
v 0.980000 0.055000 -0.100000
v 0.980000 3.635000 -0.080000
v 1.000000 3.615000 -0.080000
v 0.980000 3.615000 -0.100000
v -0.680000 2.135000 -0.080000
v -0.700000 2.115000 -0.080000
v -0.720000 2.155000 -0.100000
v -0.720000 0.035000 -0.080000
v -0.720000 0.055000 -0.100000
v -0.700000 0.055000 -0.080000
v 0.700000 2.115000 -0.080000
v 0.680000 2.135000 -0.080000
v 0.720000 2.155000 -0.100000
v 0.720000 0.035000 -0.080000
v 0.700000 0.055000 -0.080000
v 0.720000 0.055000 -0.100000
v 0.700000 2.115000 0.080000
v 0.720000 2.155000 0.100000
v 0.680000 2.135000 0.080000
v -0.720000 0.035000 0.080000
v -0.700000 0.055000 0.080000
v -0.720000 0.055000 0.100000
v -0.700000 2.115000 0.080000
v -0.680000 2.135000 0.080000
v -0.720000 2.155000 0.100000
v 0.700000 0.055000 0.080000
v 0.720000 0.035000 0.080000
v 0.720000 0.055000 0.100000
v -1.000000 0.035000 -0.070000
v -1.000000 0.935000 -0.070000
v -1.000000 0.035000 -0.110000
v -1.000000 0.935000 -0.110000
v -0.700000 0.035000 -0.070000
v -0.700000 0.935000 -0.070000
v -0.700000 0.035000 -0.110000
v -0.700000 0.935000 -0.110000
v 0.700000 0.035000 -0.070000
v 0.700000 0.935000 -0.070000
v 0.700000 0.035000 -0.110000
v 0.700000 0.935000 -0.110000
v 1.000000 0.035000 -0.070000
v 1.000000 0.935000 -0.070000
v 1.000000 0.035000 -0.110000
v 1.000000 0.935000 -0.110000
v -0.735000 0.000000 -0.060000
v -0.735000 2.170000 -0.060000
v -0.735000 0.000000 -0.160000
v -0.735000 2.170000 -0.160000
v -0.665000 0.000000 -0.060000
v -0.665000 2.170000 -0.060000
v -0.665000 0.000000 -0.160000
v -0.665000 2.170000 -0.160000
v 0.665000 0.000000 -0.060000
v 0.665000 2.170000 -0.060000
v 0.665000 0.000000 -0.160000
v 0.665000 2.170000 -0.160000
v 0.735000 0.000000 -0.060000
v 0.735000 2.170000 -0.060000
v 0.735000 0.000000 -0.160000
v 0.735000 2.170000 -0.160000
v -0.770000 2.100000 -0.060000
v -0.770000 2.170000 -0.060000
v -0.770000 2.100000 -0.160000
v -0.770000 2.170000 -0.160000
v 0.770000 2.100000 -0.060000
v 0.770000 2.170000 -0.060000
v 0.770000 2.100000 -0.160000
v 0.770000 2.170000 -0.160000
v -0.700000 0.065000 0.005000
v -0.700000 2.105000 0.005000
v -0.700000 0.065000 -0.045000
v -0.700000 2.105000 -0.045000
v 0.040000 0.065000 0.005000
v 0.040000 2.105000 0.005000
v 0.040000 0.065000 -0.045000
v 0.040000 2.105000 -0.045000
v -0.040000 0.065000 0.005000
v -0.040000 2.105000 0.005000
v -0.040000 0.065000 -0.045000
v -0.040000 2.105000 -0.045000
v 0.700000 0.065000 0.005000
v 0.700000 2.105000 0.005000
v 0.700000 0.065000 -0.045000
v 0.700000 2.105000 -0.045000
v -0.540000 1.310000 -0.035000
v -0.540000 1.860000 -0.035000
v -0.540000 1.310000 -0.065000
v -0.540000 1.860000 -0.065000
v -0.120000 1.310000 -0.035000
v -0.120000 1.860000 -0.035000
v -0.120000 1.310000 -0.065000
v -0.120000 1.860000 -0.065000
v 0.120000 1.310000 -0.035000
v 0.120000 1.860000 -0.035000
v 0.120000 1.310000 -0.065000
v 0.120000 1.860000 -0.065000
v 0.540000 1.310000 -0.035000
v 0.540000 1.860000 -0.035000
v 0.540000 1.310000 -0.065000
v 0.540000 1.860000 -0.065000
v -0.580000 1.860000 -0.020000
v -0.580000 1.910000 -0.020000
v -0.580000 1.860000 -0.060000
v -0.580000 1.910000 -0.060000
v -0.080000 1.860000 -0.020000
v -0.080000 1.910000 -0.020000
v -0.080000 1.860000 -0.060000
v -0.080000 1.910000 -0.060000
v 0.080000 1.860000 -0.020000
v 0.080000 1.910000 -0.020000
v 0.080000 1.860000 -0.060000
v 0.080000 1.910000 -0.060000
v 0.580000 1.860000 -0.020000
v 0.580000 1.910000 -0.020000
v 0.580000 1.860000 -0.060000
v 0.580000 1.910000 -0.060000
v -0.580000 1.260000 -0.020000
v -0.580000 1.310000 -0.020000
v -0.580000 1.260000 -0.060000
v -0.580000 1.310000 -0.060000
v -0.080000 1.260000 -0.020000
v -0.080000 1.310000 -0.020000
v -0.080000 1.260000 -0.060000
v -0.080000 1.310000 -0.060000
v 0.080000 1.260000 -0.020000
v 0.080000 1.310000 -0.020000
v 0.080000 1.260000 -0.060000
v 0.080000 1.310000 -0.060000
v 0.580000 1.260000 -0.020000
v 0.580000 1.310000 -0.020000
v 0.580000 1.260000 -0.060000
v 0.580000 1.310000 -0.060000
v -0.370000 2.390000 -0.090000
v -0.370000 2.780000 -0.090000
v -0.370000 2.390000 -0.150000
v -0.370000 2.780000 -0.150000
v 0.370000 2.390000 -0.090000
v 0.370000 2.780000 -0.090000
v 0.370000 2.390000 -0.150000
v 0.370000 2.780000 -0.150000
v -0.330000 2.430000 -0.130000
v -0.330000 2.740000 -0.130000
v -0.330000 2.430000 -0.170000
v -0.330000 2.740000 -0.170000
v 0.330000 2.430000 -0.130000
v 0.330000 2.740000 -0.130000
v 0.330000 2.430000 -0.170000
v 0.330000 2.740000 -0.170000
vn -0.5774 -0.5774 0.5773
vn -0.5774 0.5773 0.5773
vn -0.5774 -0.5774 -0.5773
vn -0.5774 0.5773 -0.5773
vn 0.5774 -0.5774 0.5773
vn 0.5774 0.5773 0.5773
vn 0.5774 -0.5774 -0.5773
vn 0.5774 0.5773 -0.5773
vn 0.3015 -0.3015 -0.9045
vn -0.3015 -0.3015 -0.9045
vn -0.3015 -0.3015 0.9045
vn 0.3015 -0.3015 0.9045
vn -0.7071 -0.7071 -0.0000
vn -0.7071 -0.0000 0.7071
vn -0.7071 0.7071 -0.0000
vn -0.7071 -0.0000 -0.7071
vn -0.0000 -0.7071 -0.7071
vn -0.0000 0.7071 -0.7071
vn 0.7071 -0.0000 -0.7071
vn 0.7071 -0.7071 -0.0000
vn 0.7071 0.7071 -0.0000
vn 0.7071 -0.0000 0.7071
vn -0.0000 -0.7071 0.7071
vn -0.0000 0.7071 0.7071
vn -0.0000 -1.0000 -0.0000
vn -1.0000 -0.0000 -0.0000
vn -0.0000 -0.0000 1.0000
vn -0.0000 1.0000 -0.0000
vn -0.0000 -0.0000 -1.0000
vn 1.0000 -0.0000 -0.0000
vt 0.385000 -1.282500
vt 0.365000 -1.262500
vt 0.385000 -1.262500
vt -0.480000 0.365000
vt -0.480000 0.385000
vt -0.500000 0.385000
vt 0.545000 -1.282500
vt 0.545000 -1.262500
vt 0.565000 -1.262500
vt -0.480000 0.545000
vt -0.480000 0.565000
vt -0.500000 0.545000
vt 1.480000 0.385000
vt 1.480000 0.365000
vt 1.500000 0.385000
vt 1.480000 0.545000
vt 1.500000 0.545000
vt 1.480000 0.565000
vt -0.180000 0.817500
vt -0.200000 0.797500
vt -0.220000 0.837500
vt 1.200000 0.797500
vt 1.180000 0.817500
vt 1.220000 0.837500
vt 0.365000 2.297500
vt 0.385000 2.297500
vt 0.545000 2.297500
vt 0.565000 2.297500
vt -0.220000 0.565000
vt -0.220000 0.545000
vt 1.220000 0.545000
vt 1.220000 0.565000
vt 0.565000 0.837500
vt 0.545000 0.797500
vt 1.180000 0.545000
vt -0.180000 0.545000
vt 0.385000 0.797500
vt 0.365000 0.837500
vt 1.220000 0.365000
vt 1.220000 0.385000
vt -0.220000 0.385000
vt -0.220000 0.365000
vt -0.180000 0.385000
vt 1.180000 0.385000
vt -0.200000 0.385000
vt -0.200000 0.545000
vt 1.200000 0.545000
vt 1.200000 0.385000
vt 1.220000 -1.262500
vt 1.480000 -1.262500
vt 1.480000 2.297500
vt -0.480000 2.297500
vt -0.480000 -1.262500
vt -0.220000 -1.262500
vt 0.535000 -1.282500
vt 0.535000 -0.382500
vt 0.575000 -0.382500
vt 0.575000 -1.282500
vt -0.500000 -1.282500
vt -0.500000 -0.382500
vt -0.200000 -0.382500
vt -0.200000 -1.282500
vt -0.500000 0.575000
vt -0.200000 0.575000
vt -0.200000 0.535000
vt -0.500000 0.535000
vt 1.200000 -1.282500
vt 1.200000 -0.382500
vt 1.500000 -0.382500
vt 1.500000 -1.282500
vt 1.200000 0.575000
vt 1.500000 0.575000
vt 1.500000 0.535000
vt 1.200000 0.535000
vt 0.525000 -1.317500
vt 0.525000 0.852500
vt 0.625000 0.852500
vt 0.625000 -1.317500
vt -0.235000 -1.317500
vt -0.235000 0.852500
vt -0.165000 0.852500
vt -0.165000 -1.317500
vt -0.235000 0.625000
vt -0.165000 0.625000
vt -0.165000 0.525000
vt -0.235000 0.525000
vt 1.165000 -1.317500
vt 1.165000 0.852500
vt 1.235000 0.852500
vt 1.235000 -1.317500
vt 1.165000 0.625000
vt 1.235000 0.625000
vt 1.235000 0.525000
vt 1.165000 0.525000
vt 0.525000 0.782500
vt 0.625000 0.782500
vt -0.270000 0.782500
vt -0.270000 0.852500
vt 1.270000 0.852500
vt 1.270000 0.782500
vt -0.270000 0.625000
vt 1.270000 0.625000
vt 1.270000 0.525000
vt -0.270000 0.525000
vt 0.460000 -1.252500
vt 0.460000 0.787500
vt 0.510000 0.787500
vt 0.510000 -1.252500
vt -0.200000 -1.252500
vt -0.200000 0.787500
vt 0.540000 0.787500
vt 0.540000 -1.252500
vt -0.200000 0.510000
vt 0.540000 0.510000
vt 0.540000 0.460000
vt -0.200000 0.460000
vt 1.200000 0.787500
vt 1.200000 -1.252500
vt 0.460000 0.510000
vt 1.200000 0.510000
vt 1.200000 0.460000
vt 0.460000 0.460000
vt 0.500000 -0.007500
vt 0.500000 0.542500
vt 0.530000 0.542500
vt 0.530000 -0.007500
vt -0.040000 -0.007500
vt -0.040000 0.542500
vt 0.380000 0.542500
vt 0.380000 -0.007500
vt -0.040000 0.530000
vt 0.380000 0.530000
vt 0.380000 0.500000
vt -0.040000 0.500000
vt 0.620000 -0.007500
vt 0.620000 0.542500
vt 1.040000 0.542500
vt 1.040000 -0.007500
vt 0.620000 0.530000
vt 1.040000 0.530000
vt 1.040000 0.500000
vt 0.620000 0.500000
vt 0.485000 0.542500
vt 0.485000 0.592500
vt 0.525000 0.592500
vt 0.525000 0.542500
vt -0.080000 0.542500
vt -0.080000 0.592500
vt 0.420000 0.592500
vt 0.420000 0.542500
vt -0.080000 0.525000
vt 0.420000 0.525000
vt 0.420000 0.485000
vt -0.080000 0.485000
vt 0.580000 0.542500
vt 0.580000 0.592500
vt 1.080000 0.592500
vt 1.080000 0.542500
vt 0.580000 0.525000
vt 1.080000 0.525000
vt 1.080000 0.485000
vt 0.580000 0.485000
vt 0.485000 -0.057500
vt 0.485000 -0.007500
vt 0.525000 -0.007500
vt 0.525000 -0.057500
vt -0.080000 -0.057500
vt -0.080000 -0.007500
vt 0.420000 -0.007500
vt 0.420000 -0.057500
vt 0.580000 -0.057500
vt 0.580000 -0.007500
vt 1.080000 -0.007500
vt 1.080000 -0.057500
vt 0.555000 1.072500
vt 0.555000 1.462500
vt 0.615000 1.462500
vt 0.615000 1.072500
vt 0.130000 1.072500
vt 0.130000 1.462500
vt 0.870000 1.462500
vt 0.870000 1.072500
vt 0.130000 0.615000
vt 0.870000 0.615000
vt 0.870000 0.555000
vt 0.130000 0.555000
vt 0.595000 1.112500
vt 0.595000 1.422500
vt 0.635000 1.422500
vt 0.635000 1.112500
vt 0.170000 1.112500
vt 0.170000 1.422500
vt 0.830000 1.422500
vt 0.830000 1.112500
vt 0.170000 0.635000
vt 0.830000 0.635000
vt 0.830000 0.595000
vt 0.170000 0.595000
s 0
usemtl SURF_Plaster_Wall
f 1/1/1 2/2/1 3/3/1
f 4/4/2 5/5/2 6/6/2
f 7/7/3 8/8/3 9/9/3
f 10/10/4 11/11/4 12/12/4
f 13/1/5 14/3/5 15/2/5
f 16/13/6 17/14/6 18/15/6
f 19/8/7 20/7/7 21/9/7
f 22/16/8 23/17/8 24/18/8
f 25/19/9 26/20/9 27/21/9
f 28/7/7 29/9/7 30/8/7
f 31/22/10 32/23/10 33/24/10
f 34/7/3 35/8/3 36/9/3
f 37/22/11 38/24/11 39/23/11
f 40/1/5 41/3/5 42/2/5
f 43/20/12 44/19/12 45/21/12
f 46/3/1 47/1/1 48/2/1
f 3/3/13 8/8/13 7/7/13 1/1/13
f 2/2/14 4/25/14 6/26/14 3/3/14
f 5/5/15 10/10/15 12/12/15 6/6/15
f 8/8/16 12/27/16 11/28/16 9/9/16
f 9/11/17 29/29/17 28/30/17 7/10/17
f 10/10/18 22/16/18 24/18/18 11/11/18
f 21/9/19 24/28/19 23/27/19 19/8/19
f 20/16/17 34/31/17 36/32/17 21/18/17
f 33/33/16 36/9/16 35/8/16 31/34/16
f 27/29/17 33/32/17 32/35/17 25/36/17
f 26/34/19 30/8/19 29/9/19 27/33/19
f 13/1/20 20/7/20 19/8/20 14/3/20
f 18/15/21 23/17/21 22/16/21 16/13/21
f 14/3/22 18/26/22 17/25/22 15/2/22
f 37/37/14 46/3/14 48/2/14 38/38/14
f 15/14/23 48/39/23 47/40/23 13/13/23
f 4/4/24 17/14/24 16/13/24 5/5/24
f 1/5/23 40/41/23 42/42/23 2/4/23
f 41/3/22 43/37/22 45/38/22 42/2/22
f 38/39/23 45/42/23 44/43/23 39/44/23
f 34/7/13 47/1/13 46/3/13 35/8/13
f 30/8/20 41/3/20 40/1/20 28/7/20
f 25/36/20 44/43/20 43/45/20 26/46/20
f 31/47/13 37/48/13 39/44/13 32/35/13
f 1/5/25 7/10/25 28/30/25 40/41/25
f 3/3/26 6/26/26 12/27/26 8/8/26
f 48/49/27 15/50/27 17/51/27 4/52/27 2/53/27 42/54/27 45/21/27 38/24/27
f 22/16/28 10/10/28 5/5/28 16/13/28
f 9/53/29 11/52/29 24/51/29 21/50/29 36/49/29 33/24/29 27/21/29 29/54/29
f 20/16/25 13/13/25 47/40/25 34/31/25
f 19/8/30 23/27/30 18/26/30 14/3/30
f 25/36/25 32/35/25 39/44/25 44/43/25
f 30/8/30 26/34/30 43/37/30 41/3/30
f 37/37/26 31/34/26 35/8/26 46/3/26
usemtl SURF_Wood_Dark
f 49/55/26 50/56/26 52/57/26 51/58/26
f 51/59/29 52/60/29 56/61/29 55/62/29
f 55/58/30 56/57/30 54/56/30 53/55/30
f 53/62/27 54/61/27 50/60/27 49/59/27
f 51/63/25 55/64/25 53/65/25 49/66/25
f 56/64/28 52/63/28 50/66/28 54/65/28
f 57/55/26 58/56/26 60/57/26 59/58/26
f 59/67/29 60/68/29 64/69/29 63/70/29
f 63/58/30 64/57/30 62/56/30 61/55/30
f 61/70/27 62/69/27 58/68/27 57/67/27
f 59/71/25 63/72/25 61/73/25 57/74/25
f 64/72/28 60/71/28 58/74/28 62/73/28
f 65/75/26 66/76/26 68/77/26 67/78/26
f 67/79/29 68/80/29 72/81/29 71/82/29
f 71/78/30 72/77/30 70/76/30 69/75/30
f 69/82/27 70/81/27 66/80/27 65/79/27
f 67/83/25 71/84/25 69/85/25 65/86/25
f 72/84/28 68/83/28 66/86/28 70/85/28
f 73/75/26 74/76/26 76/77/26 75/78/26
f 75/87/29 76/88/29 80/89/29 79/90/29
f 79/78/30 80/77/30 78/76/30 77/75/30
f 77/90/27 78/89/27 74/88/27 73/87/27
f 75/91/25 79/92/25 77/93/25 73/94/25
f 80/92/28 76/91/28 74/94/28 78/93/28
f 81/95/26 82/76/26 84/77/26 83/96/26
f 83/97/29 84/98/29 88/99/29 87/100/29
f 87/96/30 88/77/30 86/76/30 85/95/30
f 85/100/27 86/99/27 82/98/27 81/97/27
f 83/101/25 87/102/25 85/103/25 81/104/25
f 88/102/28 84/101/28 82/104/28 86/103/28
f 121/143/26 122/144/26 124/145/26 123/146/26
f 123/147/29 124/148/29 128/149/29 127/150/29
f 127/146/30 128/145/30 126/144/30 125/143/30
f 125/150/27 126/149/27 122/148/27 121/147/27
f 123/151/25 127/152/25 125/153/25 121/154/25
f 128/152/28 124/151/28 122/154/28 126/153/28
f 129/143/26 130/144/26 132/145/26 131/146/26
f 131/155/29 132/156/29 136/157/29 135/158/29
f 135/146/30 136/145/30 134/144/30 133/143/30
f 133/158/27 134/157/27 130/156/27 129/155/27
f 131/159/25 135/160/25 133/161/25 129/162/25
f 136/160/28 132/159/28 130/162/28 134/161/28
f 137/163/26 138/164/26 140/165/26 139/166/26
f 139/167/29 140/168/29 144/169/29 143/170/29
f 143/166/30 144/165/30 142/164/30 141/163/30
f 141/170/27 142/169/27 138/168/27 137/167/27
f 139/151/25 143/152/25 141/153/25 137/154/25
f 144/152/28 140/151/28 138/154/28 142/153/28
f 145/163/26 146/164/26 148/165/26 147/166/26
f 147/171/29 148/172/29 152/173/29 151/174/29
f 151/166/30 152/165/30 150/164/30 149/163/30
f 149/174/27 150/173/27 146/172/27 145/171/27
f 147/159/25 151/160/25 149/161/25 145/162/25
f 152/160/28 148/159/28 146/162/28 150/161/28
f 153/175/26 154/176/26 156/177/26 155/178/26
f 155/179/29 156/180/29 160/181/29 159/182/29
f 159/178/30 160/177/30 158/176/30 157/175/30
f 157/182/27 158/181/27 154/180/27 153/179/27
f 155/183/25 159/184/25 157/185/25 153/186/25
f 160/184/28 156/183/28 154/186/28 158/185/28
usemtl SURF_Wood_Furniture
f 89/105/26 90/106/26 92/107/26 91/108/26
f 91/109/29 92/110/29 96/111/29 95/112/29
f 95/108/30 96/107/30 94/106/30 93/105/30
f 93/112/27 94/111/27 90/110/27 89/109/27
f 91/113/25 95/114/25 93/115/25 89/116/25
f 96/114/28 92/113/28 90/116/28 94/115/28
f 97/105/26 98/106/26 100/107/26 99/108/26
f 99/105/29 100/106/29 104/117/29 103/118/29
f 103/108/30 104/107/30 102/106/30 101/105/30
f 101/118/27 102/117/27 98/106/27 97/105/27
f 99/119/25 103/120/25 101/121/25 97/122/25
f 104/120/28 100/119/28 98/122/28 102/121/28
usemtl SURF_Glass_Std
f 105/123/26 106/124/26 108/125/26 107/126/26
f 107/127/29 108/128/29 112/129/29 111/130/29
f 111/126/30 112/125/30 110/124/30 109/123/30
f 109/130/27 110/129/27 106/128/27 105/127/27
f 107/131/25 111/132/25 109/133/25 105/134/25
f 112/132/28 108/131/28 106/134/28 110/133/28
f 113/123/26 114/124/26 116/125/26 115/126/26
f 115/135/29 116/136/29 120/137/29 119/138/29
f 119/126/30 120/125/30 118/124/30 117/123/30
f 117/138/27 118/137/27 114/136/27 113/135/27
f 115/139/25 119/140/25 117/141/25 113/142/25
f 120/140/28 116/139/28 114/142/28 118/141/28
usemtl SURF_Emissive_Screen
f 161/187/26 162/188/26 164/189/26 163/190/26
f 163/191/29 164/192/29 168/193/29 167/194/29
f 167/190/30 168/189/30 166/188/30 165/187/30
f 165/194/27 166/193/27 162/192/27 161/191/27
f 163/195/25 167/196/25 165/197/25 161/198/25
f 168/196/28 164/195/28 162/198/28 166/197/28
