# Blender 5.2.0 LTS
# www.blender.org
mtllib SM_K_Clock.mtl
o SM_K_Clock
v 0.000000 0.440000 -0.027500
v 0.000000 0.440000 0.027500
v 0.067984 0.429232 -0.027500
v 0.067984 0.429232 0.027500
v 0.129313 0.397984 -0.027500
v 0.129313 0.397984 0.027500
v 0.177984 0.349313 -0.027500
v 0.177984 0.349313 0.027500
v 0.209232 0.287984 -0.027500
v 0.209232 0.287984 0.027500
v 0.220000 0.220000 -0.027500
v 0.220000 0.220000 0.027500
v 0.209232 0.152016 -0.027500
v 0.209232 0.152016 0.027500
v 0.177984 0.090687 -0.027500
v 0.177984 0.090687 0.027500
v 0.129313 0.042016 -0.027500
v 0.129313 0.042016 0.027500
v 0.067984 0.010768 -0.027500
v 0.067984 0.010768 0.027500
v 0.000000 0.000000 -0.027500
v 0.000000 0.000000 0.027500
v -0.067984 0.010768 -0.027500
v -0.067984 0.010768 0.027500
v -0.129313 0.042016 -0.027500
v -0.129313 0.042016 0.027500
v -0.177984 0.090687 -0.027500
v -0.177984 0.090687 0.027500
v -0.209232 0.152016 -0.027500
v -0.209232 0.152016 0.027500
v -0.220000 0.220000 -0.027500
v -0.220000 0.220000 0.027500
v -0.209232 0.287984 -0.027500
v -0.209232 0.287984 0.027500
v -0.177984 0.349313 -0.027500
v -0.177984 0.349313 0.027500
v -0.129313 0.397984 -0.027500
v -0.129313 0.397984 0.027500
v -0.067984 0.429232 -0.027500
v -0.067984 0.429232 0.027500
v 0.000000 0.410000 -0.030000
v 0.000000 0.410000 0.000000
v 0.058713 0.400701 -0.030000
v 0.058713 0.400701 0.000000
v 0.111679 0.373713 -0.030000
v 0.111679 0.373713 0.000000
v 0.153713 0.331679 -0.030000
v 0.153713 0.331679 0.000000
v 0.180701 0.278713 -0.030000
v 0.180701 0.278713 0.000000
v 0.190000 0.220000 -0.030000
v 0.190000 0.220000 0.000000
v 0.180701 0.161287 -0.030000
v 0.180701 0.161287 -0.000000
v 0.153713 0.108321 -0.030000
v 0.153713 0.108321 -0.000000
v 0.111679 0.066287 -0.030000
v 0.111679 0.066287 -0.000000
v 0.058713 0.039299 -0.030000
v 0.058713 0.039299 -0.000000
v 0.000000 0.030000 -0.030000
v 0.000000 0.030000 -0.000000
v -0.058713 0.039299 -0.030000
v -0.058713 0.039299 -0.000000
v -0.111679 0.066287 -0.030000
v -0.111679 0.066287 -0.000000
v -0.153713 0.108321 -0.030000
v -0.153713 0.108321 -0.000000
v -0.180701 0.161287 -0.030000
v -0.180701 0.161287 -0.000000
v -0.190000 0.220000 -0.030000
v -0.190000 0.220000 0.000000
v -0.180701 0.278713 -0.030000
v -0.180701 0.278713 0.000000
v -0.153713 0.331679 -0.030000
v -0.153713 0.331679 0.000000
v -0.111679 0.373713 -0.030000
v -0.111679 0.373713 0.000000
v -0.058713 0.400701 -0.030000
v -0.058713 0.400701 0.000000
v -0.011000 0.215000 -0.035000
v -0.011000 0.325000 -0.035000
v -0.011000 0.215000 -0.055000
v -0.011000 0.325000 -0.055000
v 0.011000 0.215000 -0.035000
v 0.011000 0.325000 -0.035000
v 0.011000 0.215000 -0.055000
v 0.011000 0.325000 -0.055000
v 0.126437 0.195440 -0.035000
v 0.139056 0.213462 -0.035000
v 0.126437 0.195440 -0.055000
v 0.139056 0.213462 -0.055000
v 0.257502 0.103668 -0.035000
v 0.270121 0.121690 -0.035000
v 0.257502 0.103668 -0.055000
v 0.270121 0.121690 -0.055000
vn 0.1564 0.9877 -0.0000
vn 0.4540 0.8910 -0.0000
vn 0.7071 0.7071 -0.0000
vn 0.8910 0.4540 -0.0000
vn 0.9877 0.1564 -0.0000
vn 0.9877 -0.1564 -0.0000
vn 0.8910 -0.4540 -0.0000
vn 0.7071 -0.7071 -0.0000
vn 0.4540 -0.8910 -0.0000
vn 0.1564 -0.9877 -0.0000
vn -0.1564 -0.9877 -0.0000
vn -0.4540 -0.8910 -0.0000
vn -0.7071 -0.7071 -0.0000
vn -0.8910 -0.4540 -0.0000
vn -0.9877 -0.1564 -0.0000
vn -0.9877 0.1564 -0.0000
vn -0.8910 0.4540 -0.0000
vn -0.7071 0.7071 -0.0000
vn -0.0000 -0.0000 1.0000
vn -0.4540 0.8910 -0.0000
vn -0.1564 0.9877 -0.0000
vn -0.0000 -0.0000 -1.0000
vn -1.0000 -0.0000 -0.0000
vn 1.0000 -0.0000 -0.0000
vn -0.0000 -1.0000 -0.0000
vn -0.0000 1.0000 -0.0000
vn -0.8192 0.5736 -0.0000
vn 0.8192 -0.5736 -0.0000
vn -0.5736 -0.8192 -0.0000
vn 0.5736 0.8192 -0.0000
vt 0.474940 0.513750
vt 0.474940 0.458750
vt 0.542924 0.458750
vt 0.542924 0.513750
vt 0.604253 0.458750
vt 0.604253 0.513750
vt 0.652923 0.458750
vt 0.652923 0.513750
vt 0.513750 0.629313
vt 0.458750 0.629313
vt 0.458750 0.567984
vt 0.513750 0.567984
vt 0.458750 0.500000
vt 0.513750 0.500000
vt 0.458750 0.432016
vt 0.513750 0.432016
vt 0.458750 0.370687
vt 0.513750 0.370687
vt 0.406956 0.458750
vt 0.406956 0.513750
vt 0.345627 0.458750
vt 0.345627 0.513750
vt 0.296956 0.458750
vt 0.296956 0.513750
vt 0.542924 0.709232
vt 0.474940 0.720000
vt 0.406956 0.709232
vt 0.345627 0.677984
vt 0.296956 0.629313
vt 0.265707 0.567984
vt 0.254940 0.500000
vt 0.265707 0.432016
vt 0.296956 0.370687
vt 0.345627 0.322016
vt 0.406956 0.290768
vt 0.474940 0.280000
vt 0.542924 0.290768
vt 0.604253 0.322016
vt 0.652923 0.370687
vt 0.684172 0.432016
vt 0.694940 0.500000
vt 0.684172 0.567984
vt 0.652923 0.629313
vt 0.604253 0.677984
vt 0.474940 0.516250
vt 0.474940 0.486250
vt 0.533653 0.486250
vt 0.533653 0.516250
vt 0.586619 0.486250
vt 0.586619 0.516250
vt 0.628653 0.486250
vt 0.628653 0.516250
vt 0.516250 0.611679
vt 0.486250 0.611679
vt 0.486250 0.558713
vt 0.516250 0.558713
vt 0.486250 0.500000
vt 0.516250 0.500000
vt 0.486250 0.441287
vt 0.516250 0.441287
vt 0.486250 0.388321
vt 0.516250 0.388321
vt 0.586619 0.486250
vt 0.533653 0.486250
vt 0.474940 0.486250
vt 0.416227 0.486250
vt 0.416227 0.516250
vt 0.363261 0.486250
vt 0.363261 0.516250
vt 0.321227 0.486250
vt 0.321227 0.516250
vt 0.363261 0.486250
vt 0.533653 0.680701
vt 0.474940 0.690000
vt 0.416227 0.680701
vt 0.363261 0.653713
vt 0.321227 0.611679
vt 0.294239 0.558713
vt 0.284940 0.500000
vt 0.294239 0.441287
vt 0.321227 0.388321
vt 0.363261 0.346287
vt 0.416227 0.319299
vt 0.474940 0.310000
vt 0.533653 0.319299
vt 0.586619 0.346287
vt 0.628653 0.388321
vt 0.655640 0.441287
vt 0.664940 0.500000
vt 0.655640 0.558713
vt 0.628653 0.611679
vt 0.586619 0.653713
vt 0.416227 0.486250
vt 0.521250 0.495000
vt 0.521250 0.605000
vt 0.541250 0.605000
vt 0.541250 0.495000
vt 0.463940 0.495000
vt 0.463940 0.605000
vt 0.485940 0.605000
vt 0.485940 0.495000
vt 0.463940 0.541250
vt 0.485940 0.541250
vt 0.485940 0.521250
vt 0.463940 0.521250
vt 0.521250 0.475440
vt 0.521250 0.493462
vt 0.541250 0.493462
vt 0.541250 0.475440
vt 0.601377 0.475440
vt 0.613996 0.493462
vt 0.745060 0.401690
vt 0.732442 0.383668
vt 0.541250 0.383668
vt 0.541250 0.401690
vt 0.521250 0.401690
vt 0.521250 0.383668
vt 0.601377 0.541250
vt 0.732442 0.541250
vt 0.732442 0.521250
vt 0.601377 0.521250
vt 0.745060 0.541250
vt 0.613996 0.541250
vt 0.613996 0.521250
vt 0.745060 0.521250
s 0
usemtl SURF_Metal_Fence
f 1/1/1 2/2/1 4/3/1 3/4/1
f 3/4/2 4/3/2 6/5/2 5/6/2
f 5/6/3 6/5/3 8/7/3 7/8/3
f 7/9/4 8/10/4 10/11/4 9/12/4
f 9/12/5 10/11/5 12/13/5 11/14/5
f 11/14/6 12/13/6 14/15/6 13/16/6
f 13/16/7 14/15/7 16/17/7 15/18/7
f 15/8/8 16/7/8 18/5/8 17/6/8
f 17/6/9 18/5/9 20/3/9 19/4/9
f 19/4/10 20/3/10 22/2/10 21/1/10
f 21/1/11 22/2/11 24/19/11 23/20/11
f 23/20/12 24/19/12 26/21/12 25/22/12
f 25/22/13 26/21/13 28/23/13 27/24/13
f 27/18/14 28/17/14 30/15/14 29/16/14
f 29/16/15 30/15/15 32/13/15 31/14/15
f 31/14/16 32/13/16 34/11/16 33/12/16
f 33/12/17 34/11/17 36/10/17 35/9/17
f 35/24/18 36/23/18 38/21/18 37/22/18
f 4/25/19 2/26/19 40/27/19 38/28/19 36/29/19 34/30/19 32/31/19 30/32/19 28/33/19 26/34/19 24/35/19 22/36/19 20/37/19 18/38/19 16/39/19 14/40/19 12/41/19 10/42/19 8/43/19 6/44/19
f 37/22/20 38/21/20 40/19/20 39/20/20
f 39/20/21 40/19/21 2/2/21 1/1/21
f 1/26/22 3/25/22 5/44/22 7/43/22 9/42/22 11/41/22 13/40/22 15/39/22 17/38/22 19/37/22 21/36/22 23/35/22 25/34/22 27/33/22 29/32/22 31/31/22 33/30/22 35/29/22 37/28/22 39/27/22
usemtl SURF_Paper_Newsprint
f 41/45/1 42/46/1 44/47/1 43/48/1
f 43/48/2 44/47/2 46/49/2 45/50/2
f 45/50/3 46/49/3 48/51/3 47/52/3
f 47/53/4 48/54/4 50/55/4 49/56/4
f 49/56/5 50/55/5 52/57/5 51/58/5
f 51/58/6 52/57/6 54/59/6 53/60/6
f 53/60/7 54/59/7 56/61/7 55/62/7
f 55/52/8 56/51/8 58/63/8 57/50/8
f 57/50/9 58/63/9 60/64/9 59/48/9
f 59/48/10 60/64/10 62/65/10 61/45/10
f 61/45/11 62/65/11 64/66/11 63/67/11
f 63/67/12 64/66/12 66/68/12 65/69/12
f 65/69/13 66/68/13 68/70/13 67/71/13
f 67/62/14 68/61/14 70/59/14 69/60/14
f 69/60/15 70/59/15 72/57/15 71/58/15
f 71/58/16 72/57/16 74/55/16 73/56/16
f 73/56/17 74/55/17 76/54/17 75/53/17
f 75/71/18 76/70/18 78/72/18 77/69/18
f 44/73/19 42/74/19 80/75/19 78/76/19 76/77/19 74/78/19 72/79/19 70/80/19 68/81/19 66/82/19 64/83/19 62/84/19 60/85/19 58/86/19 56/87/19 54/88/19 52/89/19 50/90/19 48/91/19 46/92/19
f 77/69/20 78/72/20 80/93/20 79/67/20
f 79/67/21 80/93/21 42/46/21 41/45/21
f 41/74/22 43/73/22 45/92/22 47/91/22 49/90/22 51/89/22 53/88/22 55/87/22 57/86/22 59/85/22 61/84/22 63/83/22 65/82/22 67/81/22 69/80/22 71/79/22 73/78/22 75/77/22 77/76/22 79/75/22
usemtl SURF_Wood_Dark
f 81/94/23 82/95/23 84/96/23 83/97/23
f 83/98/22 84/99/22 88/100/22 87/101/22
f 87/97/24 88/96/24 86/95/24 85/94/24
f 85/101/19 86/100/19 82/99/19 81/98/19
f 83/102/25 87/103/25 85/104/25 81/105/25
f 88/103/26 84/102/26 82/105/26 86/104/26
f 89/106/27 90/107/27 92/108/27 91/109/27
f 91/110/22 92/111/22 96/112/22 95/113/22
f 95/114/28 96/115/28 94/116/28 93/117/28
f 93/113/19 94/112/19 90/111/19 89/110/19
f 91/118/29 95/119/29 93/120/29 89/121/29
f 96/122/30 92/123/30 90/124/30 94/125/30
