# Blender 5.2.0 LTS
# www.blender.org
mtllib SM_K_CeilingLight.mtl
o SM_K_CeilingLight
v -0.590000 0.032500 0.140000
v -0.590000 0.042500 0.150000
v -0.600000 0.042500 0.140000
v -0.590000 0.112500 0.150000
v -0.590000 0.122500 0.140000
v -0.600000 0.112500 0.140000
v -0.590000 0.032500 -0.140000
v -0.600000 0.042500 -0.140000
v -0.590000 0.042500 -0.150000
v -0.590000 0.122500 -0.140000
v -0.590000 0.112500 -0.150000
v -0.600000 0.112500 -0.140000
v 0.590000 0.032500 0.140000
v 0.600000 0.042500 0.140000
v 0.590000 0.042500 0.150000
v 0.590000 0.122500 0.140000
v 0.590000 0.112500 0.150000
v 0.600000 0.112500 0.140000
v 0.590000 0.032500 -0.140000
v 0.590000 0.042500 -0.150000
v 0.600000 0.042500 -0.140000
v 0.590000 0.122500 -0.140000
v 0.600000 0.112500 -0.140000
v 0.590000 0.112500 -0.150000
v -0.620000 0.032500 0.160000
v -0.620000 0.122500 0.160000
v -0.620000 0.032500 -0.160000
v -0.620000 0.122500 -0.160000
v -0.580000 0.032500 0.160000
v -0.580000 0.122500 0.160000
v -0.580000 0.032500 -0.160000
v -0.580000 0.122500 -0.160000
v 0.580000 0.032500 0.160000
v 0.580000 0.122500 0.160000
v 0.580000 0.032500 -0.160000
v 0.580000 0.122500 -0.160000
v 0.620000 0.032500 0.160000
v 0.620000 0.122500 0.160000
v 0.620000 0.032500 -0.160000
v 0.620000 0.122500 -0.160000
v -0.530000 0.000000 0.110000
v -0.530000 0.045000 0.110000
v -0.530000 0.000000 -0.110000
v -0.530000 0.045000 -0.110000
v 0.530000 0.000000 0.110000
v 0.530000 0.045000 0.110000
v 0.530000 0.000000 -0.110000
v 0.530000 0.045000 -0.110000
v -0.450000 0.107500 0.050000
v -0.450000 0.137500 0.050000
v -0.450000 0.107500 -0.050000
v -0.450000 0.137500 -0.050000
v -0.350000 0.107500 0.050000
v -0.350000 0.137500 0.050000
v -0.350000 0.107500 -0.050000
v -0.350000 0.137500 -0.050000
v 0.350000 0.107500 0.050000
v 0.350000 0.137500 0.050000
v 0.350000 0.107500 -0.050000
v 0.350000 0.137500 -0.050000
v 0.450000 0.107500 0.050000
v 0.450000 0.137500 0.050000
v 0.450000 0.107500 -0.050000
v 0.450000 0.137500 -0.050000
vn -0.5774 -0.5774 0.5773
vn -0.5773 0.5774 0.5773
vn -0.5774 -0.5774 -0.5773
vn -0.5773 0.5774 -0.5773
vn 0.5774 -0.5774 0.5773
vn 0.5773 0.5774 0.5773
vn 0.5774 -0.5774 -0.5773
vn 0.5773 0.5774 -0.5773
vn -0.7071 -0.7071 -0.0000
vn -0.7071 -0.0000 0.7071
vn -0.7071 0.7071 -0.0000
vn -0.7071 -0.0000 -0.7071
vn -0.0000 -0.7071 -0.7071
vn -0.0000 0.7071 -0.7071
vn 0.7071 -0.0000 -0.7071
vn 0.7071 -0.7071 -0.0000
vn 0.7071 0.7071 -0.0000
vn 0.7071 -0.0000 0.7071
vn -0.0000 -0.7071 0.7071
vn -0.0000 0.7071 0.7071
vn -0.0000 -1.0000 -0.0000
vn -1.0000 -0.0000 -0.0000
vn -0.0000 -0.0000 1.0000
vn -0.0000 1.0000 -0.0000
vn -0.0000 -0.0000 -1.0000
vn 1.0000 -0.0000 -0.0000
vt 0.360000 0.463750
vt 0.350000 0.473750
vt 0.360000 0.473750
vt -0.090000 0.350000
vt -0.090000 0.360000
vt -0.100000 0.360000
vt 0.640000 0.463750
vt 0.640000 0.473750
vt 0.650000 0.473750
vt -0.090000 0.640000
vt -0.090000 0.650000
vt -0.100000 0.640000
vt 1.090000 0.360000
vt 1.090000 0.350000
vt 1.100000 0.360000
vt 1.090000 0.640000
vt 1.100000 0.640000
vt 1.090000 0.650000
vt 0.350000 0.543750
vt 0.360000 0.543750
vt 0.650000 0.543750
vt 0.640000 0.543750
vt 1.090000 0.473750
vt 1.090000 0.543750
vt -0.090000 0.543750
vt -0.090000 0.473750
vt 0.340000 0.463750
vt 0.340000 0.553750
vt 0.660000 0.553750
vt 0.660000 0.463750
vt -0.120000 0.463750
vt -0.120000 0.553750
vt -0.080000 0.553750
vt -0.080000 0.463750
vt -0.120000 0.660000
vt -0.080000 0.660000
vt -0.080000 0.340000
vt -0.120000 0.340000
vt 1.080000 0.463750
vt 1.080000 0.553750
vt 1.120000 0.553750
vt 1.120000 0.463750
vt 1.080000 0.660000
vt 1.120000 0.660000
vt 1.120000 0.340000
vt 1.080000 0.340000
vt 0.390000 0.431250
vt 0.390000 0.476250
vt 0.610000 0.476250
vt 0.610000 0.431250
vt -0.030000 0.431250
vt -0.030000 0.476250
vt 1.030000 0.476250
vt 1.030000 0.431250
vt -0.030000 0.610000
vt 1.030000 0.610000
vt 1.030000 0.390000
vt -0.030000 0.390000
vt 0.450000 0.538750
vt 0.450000 0.568750
vt 0.550000 0.568750
vt 0.550000 0.538750
vt 0.050000 0.538750
vt 0.050000 0.568750
vt 0.150000 0.568750
vt 0.150000 0.538750
vt 0.050000 0.550000
vt 0.150000 0.550000
vt 0.150000 0.450000
vt 0.050000 0.450000
vt 0.850000 0.538750
vt 0.850000 0.568750
vt 0.950000 0.568750
vt 0.950000 0.538750
vt 0.850000 0.550000
vt 0.950000 0.550000
vt 0.950000 0.450000
vt 0.850000 0.450000
s 0
usemtl SURF_Metal_Fence
f 1/1/1 2/2/1 3/3/1
f 4/4/2 5/5/2 6/6/2
f 7/7/3 8/8/3 9/9/3
f 10/10/4 11/11/4 12/12/4
f 13/1/5 14/3/5 15/2/5
f 16/13/6 17/14/6 18/15/6
f 19/7/7 20/9/7 21/8/7
f 22/16/8 23/17/8 24/18/8
f 7/7/9 1/1/9 3/3/9 8/8/9
f 2/2/10 4/19/10 6/20/10 3/3/10
f 5/5/11 10/10/11 12/12/11 6/6/11
f 11/21/12 9/9/12 8/8/12 12/22/12
f 19/16/13 7/10/13 9/11/13 20/18/13
f 10/10/14 22/16/14 24/18/14 11/11/14
f 23/22/15 21/8/15 20/9/15 24/21/15
f 13/1/16 19/7/16 21/8/16 14/3/16
f 22/16/17 16/13/17 18/15/17 23/17/17
f 17/19/18 15/2/18 14/3/18 18/20/18
f 1/5/19 13/13/19 15/14/19 2/4/19
f 16/13/20 5/5/20 4/4/20 17/14/20
f 7/10/21 19/16/21 13/13/21 1/5/21
f 3/3/22 6/20/22 12/22/22 8/8/22
f 15/23/23 17/24/23 4/25/23 2/26/23
f 22/16/24 10/10/24 5/5/24 16/13/24
f 9/26/25 11/25/25 24/24/25 20/23/25
f 21/8/26 23/22/26 18/20/26 14/3/26
f 25/27/22 26/28/22 28/29/22 27/30/22
f 27/31/25 28/32/25 32/33/25 31/34/25
f 31/30/26 32/29/26 30/28/26 29/27/26
f 29/34/23 30/33/23 26/32/23 25/31/23
f 27/35/21 31/36/21 29/37/21 25/38/21
f 32/36/24 28/35/24 26/38/24 30/37/24
f 33/27/22 34/28/22 36/29/22 35/30/22
f 35/39/25 36/40/25 40/41/25 39/42/25
f 39/30/26 40/29/26 38/28/26 37/27/26
f 37/42/23 38/41/23 34/40/23 33/39/23
f 35/43/21 39/44/21 37/45/21 33/46/21
f 40/44/24 36/43/24 34/46/24 38/45/24
f 49/59/22 50/60/22 52/61/22 51/62/22
f 51/63/25 52/64/25 56/65/25 55/66/25
f 55/62/26 56/61/26 54/60/26 53/59/26
f 53/66/23 54/65/23 50/64/23 49/63/23
f 51/67/21 55/68/21 53/69/21 49/70/21
f 56/68/24 52/67/24 50/70/24 54/69/24
f 57/59/22 58/60/22 60/61/22 59/62/22
f 59/71/25 60/72/25 64/73/25 63/74/25
f 63/62/26 64/61/26 62/60/26 61/59/26
f 61/74/23 62/73/23 58/72/23 57/71/23
f 59/75/21 63/76/21 61/77/21 57/78/21
f 64/76/24 60/75/24 58/78/24 62/77/24
usemtl SURF_Emissive_Screen
f 41/47/22 42/48/22 44/49/22 43/50/22
f 43/51/25 44/52/25 48/53/25 47/54/25
f 47/50/26 48/49/26 46/48/26 45/47/26
f 45/54/23 46/53/23 42/52/23 41/51/23
f 43/55/21 47/56/21 45/57/21 41/58/21
f 48/56/24 44/55/24 42/58/24 46/57/24
