# Blender 5.2.0 LTS
# www.blender.org
mtllib SM_K_NoticeBoard.mtl
o SM_K_NoticeBoard
v -0.660000 0.040000 0.015000
v -0.660000 0.960000 0.015000
v -0.660000 0.040000 -0.015000
v -0.660000 0.960000 -0.015000
v 0.660000 0.040000 0.015000
v 0.660000 0.960000 0.015000
v 0.660000 0.040000 -0.015000
v 0.660000 0.960000 -0.015000
v -0.700000 0.940000 0.035000
v -0.700000 1.000000 0.035000
v -0.700000 0.940000 -0.035000
v -0.700000 1.000000 -0.035000
v 0.700000 0.940000 0.035000
v 0.700000 1.000000 0.035000
v 0.700000 0.940000 -0.035000
v 0.700000 1.000000 -0.035000
v -0.700000 0.000000 0.035000
v -0.700000 0.060000 0.035000
v -0.700000 0.000000 -0.035000
v -0.700000 0.060000 -0.035000
v 0.700000 0.000000 0.035000
v 0.700000 0.060000 0.035000
v 0.700000 0.000000 -0.035000
v 0.700000 0.060000 -0.035000
v -0.700000 0.000000 0.035000
v -0.700000 1.000000 0.035000
v -0.700000 0.000000 -0.035000
v -0.700000 1.000000 -0.035000
v -0.640000 0.000000 0.035000
v -0.640000 1.000000 0.035000
v -0.640000 0.000000 -0.035000
v -0.640000 1.000000 -0.035000
v 0.640000 0.000000 0.035000
v 0.640000 1.000000 0.035000
v 0.640000 0.000000 -0.035000
v 0.640000 1.000000 -0.035000
v 0.700000 0.000000 0.035000
v 0.700000 1.000000 0.035000
v 0.700000 0.000000 -0.035000
v 0.700000 1.000000 -0.035000
v -0.550000 0.570000 -0.030000
v -0.550000 0.870000 -0.030000
v -0.550000 0.570000 -0.040000
v -0.550000 0.870000 -0.040000
v -0.290000 0.570000 -0.030000
v -0.290000 0.870000 -0.030000
v -0.290000 0.570000 -0.040000
v -0.290000 0.870000 -0.040000
v -0.050000 0.670000 -0.030000
v -0.050000 0.890000 -0.030000
v -0.050000 0.670000 -0.040000
v -0.050000 0.890000 -0.040000
v 0.250000 0.670000 -0.030000
v 0.250000 0.890000 -0.030000
v 0.250000 0.670000 -0.040000
v 0.250000 0.890000 -0.040000
v 0.320000 0.410000 -0.030000
v 0.320000 0.690000 -0.030000
v 0.320000 0.410000 -0.040000
v 0.320000 0.690000 -0.040000
v 0.560000 0.410000 -0.030000
v 0.560000 0.690000 -0.030000
v 0.560000 0.410000 -0.040000
v 0.560000 0.690000 -0.040000
v -0.440000 0.220000 -0.030000
v -0.440000 0.460000 -0.030000
v -0.440000 0.220000 -0.040000
v -0.440000 0.460000 -0.040000
v -0.160000 0.220000 -0.030000
v -0.160000 0.460000 -0.030000
v -0.160000 0.220000 -0.040000
v -0.160000 0.460000 -0.040000
v 0.150000 0.130000 -0.030000
v 0.150000 0.430000 -0.030000
v 0.150000 0.130000 -0.040000
v 0.150000 0.430000 -0.040000
v 0.410000 0.130000 -0.030000
v 0.410000 0.430000 -0.030000
v 0.410000 0.130000 -0.040000
v 0.410000 0.430000 -0.040000
vn -1.0000 -0.0000 -0.0000
vn -0.0000 -0.0000 -1.0000
vn 1.0000 -0.0000 -0.0000
vn -0.0000 -0.0000 1.0000
vn -0.0000 -1.0000 -0.0000
vn -0.0000 1.0000 -0.0000
vt 0.482500 0.040000
vt 0.482500 0.960000
vt 0.512500 0.960000
vt 0.512500 0.040000
vt -0.160000 0.040000
vt -0.160000 0.960000
vt 1.160000 0.960000
vt 1.160000 0.040000
vt -0.160000 0.512500
vt 1.160000 0.512500
vt 1.160000 0.482500
vt -0.160000 0.482500
vt 0.462500 0.940000
vt 0.462500 1.000000
vt 0.532500 1.000000
vt 0.532500 0.940000
vt -0.200000 0.940000
vt -0.200000 1.000000
vt 1.200000 1.000000
vt 1.200000 0.940000
vt -0.200000 0.532500
vt 1.200000 0.532500
vt 1.200000 0.462500
vt -0.200000 0.462500
vt 0.462500 0.000000
vt 0.462500 0.060000
vt 0.532500 0.060000
vt 0.532500 0.000000
vt -0.200000 0.000000
vt -0.200000 0.060000
vt 1.200000 0.060000
vt 1.200000 0.000000
vt -0.140000 1.000000
vt -0.140000 0.000000
vt -0.140000 0.532500
vt -0.140000 0.462500
vt 1.140000 0.000000
vt 1.140000 1.000000
vt 1.140000 0.532500
vt 1.140000 0.462500
vt 0.527500 0.570000
vt 0.527500 0.870000
vt 0.537500 0.870000
vt 0.537500 0.570000
vt -0.050000 0.570000
vt -0.050000 0.870000
vt 0.210000 0.870000
vt 0.210000 0.570000
vt -0.050000 0.537500
vt 0.210000 0.537500
vt 0.210000 0.527500
vt -0.050000 0.527500
vt 0.527500 0.670000
vt 0.527500 0.890000
vt 0.537500 0.890000
vt 0.537500 0.670000
vt 0.450000 0.670000
vt 0.450000 0.890000
vt 0.750000 0.890000
vt 0.750000 0.670000
vt 0.450000 0.537500
vt 0.750000 0.537500
vt 0.750000 0.527500
vt 0.450000 0.527500
vt 0.527500 0.410000
vt 0.527500 0.690000
vt 0.537500 0.690000
vt 0.537500 0.410000
vt 0.820000 0.410000
vt 0.820000 0.690000
vt 1.060000 0.690000
vt 1.060000 0.410000
vt 0.820000 0.537500
vt 1.060000 0.537500
vt 1.060000 0.527500
vt 0.820000 0.527500
vt 0.527500 0.220000
vt 0.527500 0.460000
vt 0.537500 0.460000
vt 0.537500 0.220000
vt 0.060000 0.220000
vt 0.060000 0.460000
vt 0.340000 0.460000
vt 0.340000 0.220000
vt 0.060000 0.537500
vt 0.340000 0.537500
vt 0.340000 0.527500
vt 0.060000 0.527500
vt 0.527500 0.130000
vt 0.527500 0.430000
vt 0.537500 0.430000
vt 0.537500 0.130000
vt 0.650000 0.130000
vt 0.650000 0.430000
vt 0.910000 0.430000
vt 0.910000 0.130000
vt 0.650000 0.537500
vt 0.910000 0.537500
vt 0.910000 0.527500
vt 0.650000 0.527500
s 0
usemtl SURF_Plaster_Wall
f 1/1/1 2/2/1 4/3/1 3/4/1
f 3/5/2 4/6/2 8/7/2 7/8/2
f 7/4/3 8/3/3 6/2/3 5/1/3
f 5/8/4 6/7/4 2/6/4 1/5/4
f 3/9/5 7/10/5 5/11/5 1/12/5
f 8/10/6 4/9/6 2/12/6 6/11/6
usemtl SURF_Wood_Furniture
f 9/13/1 10/14/1 12/15/1 11/16/1
f 11/17/2 12/18/2 16/19/2 15/20/2
f 15/16/3 16/15/3 14/14/3 13/13/3
f 13/20/4 14/19/4 10/18/4 9/17/4
f 11/21/5 15/22/5 13/23/5 9/24/5
f 16/22/6 12/21/6 10/24/6 14/23/6
f 17/25/1 18/26/1 20/27/1 19/28/1
f 19/29/2 20/30/2 24/31/2 23/32/2
f 23/28/3 24/27/3 22/26/3 21/25/3
f 21/32/4 22/31/4 18/30/4 17/29/4
f 19/21/5 23/22/5 21/23/5 17/24/5
f 24/22/6 20/21/6 18/24/6 22/23/6
f 25/25/1 26/14/1 28/15/1 27/28/1
f 27/29/2 28/18/2 32/33/2 31/34/2
f 31/28/3 32/15/3 30/14/3 29/25/3
f 29/34/4 30/33/4 26/18/4 25/29/4
f 27/21/5 31/35/5 29/36/5 25/24/5
f 32/35/6 28/21/6 26/24/6 30/36/6
f 33/25/1 34/14/1 36/15/1 35/28/1
f 35/37/2 36/38/2 40/19/2 39/32/2
f 39/28/3 40/15/3 38/14/3 37/25/3
f 37/32/4 38/19/4 34/38/4 33/37/4
f 35/39/5 39/22/5 37/23/5 33/40/5
f 40/22/6 36/39/6 34/40/6 38/23/6
usemtl SURF_Paper_Newsprint
f 41/41/1 42/42/1 44/43/1 43/44/1
f 43/45/2 44/46/2 48/47/2 47/48/2
f 47/44/3 48/43/3 46/42/3 45/41/3
f 45/48/4 46/47/4 42/46/4 41/45/4
f 43/49/5 47/50/5 45/51/5 41/52/5
f 48/50/6 44/49/6 42/52/6 46/51/6
f 49/53/1 50/54/1 52/55/1 51/56/1
f 51/57/2 52/58/2 56/59/2 55/60/2
f 55/56/3 56/55/3 54/54/3 53/53/3
f 53/60/4 54/59/4 50/58/4 49/57/4
f 51/61/5 55/62/5 53/63/5 49/64/5
f 56/62/6 52/61/6 50/64/6 54/63/6
f 57/65/1 58/66/1 60/67/1 59/68/1
f 59/69/2 60/70/2 64/71/2 63/72/2
f 63/68/3 64/67/3 62/66/3 61/65/3
f 61/72/4 62/71/4 58/70/4 57/69/4
f 59/73/5 63/74/5 61/75/5 57/76/5
f 64/74/6 60/73/6 58/76/6 62/75/6
f 65/77/1 66/78/1 68/79/1 67/80/1
f 67/81/2 68/82/2 72/83/2 71/84/2
f 71/80/3 72/79/3 70/78/3 69/77/3
f 69/84/4 70/83/4 66/82/4 65/81/4
f 67/85/5 71/86/5 69/87/5 65/88/5
f 72/86/6 68/85/6 66/88/6 70/87/6
f 73/89/1 74/90/1 76/91/1 75/92/1
f 75/93/2 76/94/2 80/95/2 79/96/2
f 79/92/3 80/91/3 78/90/3 77/89/3
f 77/96/4 78/95/4 74/94/4 73/93/4
f 75/97/5 79/98/5 77/99/5 73/100/5
f 80/98/6 76/97/6 74/100/6 78/99/6
