# Blender 5.2.0 LTS
# www.blender.org
mtllib SM_K_SchWindowWall.mtl
o SM_K_SchWindowWall
v -1.000000 0.000000 0.100000
v -1.000000 0.900000 0.100000
v -1.000000 0.000000 -0.100000
v -1.000000 0.900000 -0.100000
v 1.000000 0.000000 0.100000
v 1.000000 0.900000 0.100000
v 1.000000 0.000000 -0.100000
v 1.000000 0.900000 -0.100000
v -1.000000 3.200000 0.100000
v -1.000000 3.600000 0.100000
v -1.000000 3.200000 -0.100000
v -1.000000 3.600000 -0.100000
v 1.000000 3.200000 0.100000
v 1.000000 3.600000 0.100000
v 1.000000 3.200000 -0.100000
v 1.000000 3.600000 -0.100000
v -1.000000 0.900000 0.100000
v -1.000000 3.200000 0.100000
v -1.000000 0.900000 -0.100000
v -1.000000 3.200000 -0.100000
v -0.900000 0.900000 0.100000
v -0.900000 3.200000 0.100000
v -0.900000 0.900000 -0.100000
v -0.900000 3.200000 -0.100000
v 0.900000 0.900000 0.100000
v 0.900000 3.200000 0.100000
v 0.900000 0.900000 -0.100000
v 0.900000 3.200000 -0.100000
v 1.000000 0.900000 0.100000
v 1.000000 3.200000 0.100000
v 1.000000 0.900000 -0.100000
v 1.000000 3.200000 -0.100000
v -0.900000 0.900000 0.030000
v -0.900000 3.200000 0.030000
v -0.900000 0.900000 -0.030000
v -0.900000 3.200000 -0.030000
v 0.900000 0.900000 0.030000
v 0.900000 3.200000 0.030000
v 0.900000 0.900000 -0.030000
v 0.900000 3.200000 -0.030000
v -0.930000 0.900000 0.020000
v -0.930000 3.200000 0.020000
v -0.930000 0.900000 -0.100000
v -0.930000 3.200000 -0.100000
v -0.870000 0.900000 0.020000
v -0.870000 3.200000 0.020000
v -0.870000 0.900000 -0.100000
v -0.870000 3.200000 -0.100000
v -0.330000 0.900000 0.020000
v -0.330000 3.200000 0.020000
v -0.330000 0.900000 -0.100000
v -0.330000 3.200000 -0.100000
v -0.270000 0.900000 0.020000
v -0.270000 3.200000 0.020000
v -0.270000 0.900000 -0.100000
v -0.270000 3.200000 -0.100000
v 0.270000 0.900000 0.020000
v 0.270000 3.200000 0.020000
v 0.270000 0.900000 -0.100000
v 0.270000 3.200000 -0.100000
v 0.330000 0.900000 0.020000
v 0.330000 3.200000 0.020000
v 0.330000 0.900000 -0.100000
v 0.330000 3.200000 -0.100000
v 0.870000 0.900000 0.020000
v 0.870000 3.200000 0.020000
v 0.870000 0.900000 -0.100000
v 0.870000 3.200000 -0.100000
v 0.930000 0.900000 0.020000
v 0.930000 3.200000 0.020000
v 0.930000 0.900000 -0.100000
v 0.930000 3.200000 -0.100000
v -0.930000 0.870000 0.020000
v -0.930000 0.930000 0.020000
v -0.930000 0.870000 -0.100000
v -0.930000 0.930000 -0.100000
v 0.930000 0.870000 0.020000
v 0.930000 0.930000 0.020000
v 0.930000 0.870000 -0.100000
v 0.930000 0.930000 -0.100000
v -0.930000 2.020000 0.020000
v -0.930000 2.080000 0.020000
v -0.930000 2.020000 -0.100000
v -0.930000 2.080000 -0.100000
v 0.930000 2.020000 0.020000
v 0.930000 2.080000 0.020000
v 0.930000 2.020000 -0.100000
v 0.930000 2.080000 -0.100000
v -0.930000 3.170000 0.020000
v -0.930000 3.230000 0.020000
v -0.930000 3.170000 -0.100000
v -0.930000 3.230000 -0.100000
v 0.930000 3.170000 0.020000
v 0.930000 3.230000 0.020000
v 0.930000 3.170000 -0.100000
v 0.930000 3.230000 -0.100000
vn -1.0000 -0.0000 -0.0000
vn -0.0000 -0.0000 -1.0000
vn 1.0000 -0.0000 -0.0000
vn -0.0000 -0.0000 1.0000
vn -0.0000 -1.0000 -0.0000
vn -0.0000 1.0000 -0.0000
vt 0.400000 -1.300000
vt 0.400000 -0.400000
vt 0.600000 -0.400000
vt 0.600000 -1.300000
vt -0.500000 -1.300000
vt -0.500000 -0.400000
vt 1.500000 -0.400000
vt 1.500000 -1.300000
vt -0.500000 0.600000
vt 1.500000 0.600000
vt 1.500000 0.400000
vt -0.500000 0.400000
vt 0.400000 1.900000
vt 0.400000 2.300000
vt 0.600000 2.300000
vt 0.600000 1.900000
vt -0.500000 1.900000
vt -0.500000 2.300000
vt 1.500000 2.300000
vt 1.500000 1.900000
vt 0.400000 1.900000
vt 0.600000 1.900000
vt -0.500000 1.900000
vt -0.400000 1.900000
vt -0.400000 -0.400000
vt -0.400000 0.600000
vt -0.400000 0.400000
vt 1.400000 -0.400000
vt 1.400000 1.900000
vt 1.500000 1.900000
vt 1.400000 0.600000
vt 1.400000 0.400000
vt 0.470000 -0.400000
vt 0.470000 1.900000
vt 0.530000 1.900000
vt 0.530000 -0.400000
vt -0.400000 0.530000
vt 1.400000 0.530000
vt 1.400000 0.470000
vt -0.400000 0.470000
vt 0.480000 -0.400000
vt 0.480000 1.900000
vt -0.430000 -0.400000
vt -0.430000 1.900000
vt -0.370000 1.900000
vt -0.370000 -0.400000
vt -0.430000 0.600000
vt -0.370000 0.600000
vt -0.370000 0.480000
vt -0.430000 0.480000
vt 0.170000 -0.400000
vt 0.170000 1.900000
vt 0.230000 1.900000
vt 0.230000 -0.400000
vt 0.170000 0.600000
vt 0.230000 0.600000
vt 0.230000 0.480000
vt 0.170000 0.480000
vt 0.770000 -0.400000
vt 0.770000 1.900000
vt 0.830000 1.900000
vt 0.830000 -0.400000
vt 0.770000 0.600000
vt 0.830000 0.600000
vt 0.830000 0.480000
vt 0.770000 0.480000
vt 1.370000 -0.400000
vt 1.370000 1.900000
vt 1.430000 1.900000
vt 1.430000 -0.400000
vt 1.370000 0.600000
vt 1.430000 0.600000
vt 1.430000 0.480000
vt 1.370000 0.480000
vt 0.480000 -0.430000
vt 0.480000 -0.370000
vt 0.600000 -0.370000
vt 0.600000 -0.430000
vt -0.430000 -0.430000
vt -0.430000 -0.370000
vt 1.430000 -0.370000
vt 1.430000 -0.430000
vt -0.430000 0.600000
vt 1.430000 0.600000
vt 1.430000 0.480000
vt -0.430000 0.480000
vt 0.480000 0.720000
vt 0.480000 0.780000
vt 0.600000 0.780000
vt 0.600000 0.720000
vt -0.430000 0.720000
vt -0.430000 0.780000
vt 1.430000 0.780000
vt 1.430000 0.720000
vt 0.480000 1.870000
vt 0.480000 1.930000
vt 0.600000 1.930000
vt 0.600000 1.870000
vt -0.430000 1.870000
vt -0.430000 1.930000
vt 1.430000 1.930000
vt 1.430000 1.870000
s 0
usemtl SURF_Concrete_Struct
f 1/1/1 2/2/1 4/3/1 3/4/1
f 3/5/2 4/6/2 8/7/2 7/8/2
f 7/4/3 8/3/3 6/2/3 5/1/3
f 5/8/4 6/7/4 2/6/4 1/5/4
f 3/9/5 7/10/5 5/11/5 1/12/5
f 8/10/6 4/9/6 2/12/6 6/11/6
usemtl SURF_Plaster_Wall
f 9/13/1 10/14/1 12/15/1 11/16/1
f 11/17/2 12/18/2 16/19/2 15/20/2
f 15/16/3 16/15/3 14/14/3 13/13/3
f 13/20/4 14/19/4 10/18/4 9/17/4
f 11/9/5 15/10/5 13/11/5 9/12/5
f 16/10/6 12/9/6 10/12/6 14/11/6
usemtl SURF_Wood_Dark
f 17/2/1 18/21/1 20/22/1 19/3/1
f 19/6/2 20/23/2 24/24/2 23/25/2
f 23/3/3 24/22/3 22/21/3 21/2/3
f 21/25/4 22/24/4 18/23/4 17/6/4
f 19/9/5 23/26/5 21/27/5 17/12/5
f 24/26/6 20/9/6 18/12/6 22/27/6
f 25/2/1 26/21/1 28/22/1 27/3/1
f 27/28/2 28/29/2 32/30/2 31/7/2
f 31/3/3 32/22/3 30/21/3 29/2/3
f 29/7/4 30/30/4 26/29/4 25/28/4
f 27/31/5 31/10/5 29/11/5 25/32/5
f 32/10/6 28/31/6 26/32/6 30/11/6
f 41/41/1 42/42/1 44/22/1 43/3/1
f 43/43/2 44/44/2 48/45/2 47/46/2
f 47/3/3 48/22/3 46/42/3 45/41/3
f 45/46/4 46/45/4 42/44/4 41/43/4
f 43/47/5 47/48/5 45/49/5 41/50/5
f 48/48/6 44/47/6 42/50/6 46/49/6
f 49/41/1 50/42/1 52/22/1 51/3/1
f 51/51/2 52/52/2 56/53/2 55/54/2
f 55/3/3 56/22/3 54/42/3 53/41/3
f 53/54/4 54/53/4 50/52/4 49/51/4
f 51/55/5 55/56/5 53/57/5 49/58/5
f 56/56/6 52/55/6 50/58/6 54/57/6
f 57/41/1 58/42/1 60/22/1 59/3/1
f 59/59/2 60/60/2 64/61/2 63/62/2
f 63/3/3 64/22/3 62/42/3 61/41/3
f 61/62/4 62/61/4 58/60/4 57/59/4
f 59/63/5 63/64/5 61/65/5 57/66/5
f 64/64/6 60/63/6 58/66/6 62/65/6
f 65/41/1 66/42/1 68/22/1 67/3/1
f 67/67/2 68/68/2 72/69/2 71/70/2
f 71/3/3 72/22/3 70/42/3 69/41/3
f 69/70/4 70/69/4 66/68/4 65/67/4
f 67/71/5 71/72/5 69/73/5 65/74/5
f 72/72/6 68/71/6 66/74/6 70/73/6
f 73/75/1 74/76/1 76/77/1 75/78/1
f 75/79/2 76/80/2 80/81/2 79/82/2
f 79/78/3 80/77/3 78/76/3 77/75/3
f 77/82/4 78/81/4 74/80/4 73/79/4
f 75/83/5 79/84/5 77/85/5 73/86/5
f 80/84/6 76/83/6 74/86/6 78/85/6
f 81/87/1 82/88/1 84/89/1 83/90/1
f 83/91/2 84/92/2 88/93/2 87/94/2
f 87/90/3 88/89/3 86/88/3 85/87/3
f 85/94/4 86/93/4 82/92/4 81/91/4
f 83/83/5 87/84/5 85/85/5 81/86/5
f 88/84/6 84/83/6 82/86/6 86/85/6
f 89/95/1 90/96/1 92/97/1 91/98/1
f 91/99/2 92/100/2 96/101/2 95/102/2
f 95/98/3 96/97/3 94/96/3 93/95/3
f 93/102/4 94/101/4 90/100/4 89/99/4
f 91/83/5 95/84/5 93/85/5 89/86/5
f 96/84/6 92/83/6 90/86/6 94/85/6
usemtl SURF_Glass_Window
f 33/33/1 34/34/1 36/35/1 35/36/1
f 35/25/2 36/24/2 40/29/2 39/28/2
f 39/36/3 40/35/3 38/34/3 37/33/3
f 37/28/4 38/29/4 34/24/4 33/25/4
f 35/37/5 39/38/5 37/39/5 33/40/5
f 40/38/6 36/37/6 34/40/6 38/39/6
