# Blender 5.2.0 LTS
# www.blender.org
mtllib SM_K_SchPillar.mtl
o SM_K_SchPillar
v -0.175000 0.000000 0.175000
v -0.175000 3.600000 0.175000
v -0.175000 0.000000 -0.175000
v -0.175000 3.600000 -0.175000
v 0.175000 0.000000 0.175000
v 0.175000 3.600000 0.175000
v 0.175000 0.000000 -0.175000
v 0.175000 3.600000 -0.175000
v -0.240000 0.000000 0.240000
v -0.240000 0.150000 0.240000
v -0.240000 0.000000 -0.240000
v -0.240000 0.150000 -0.240000
v 0.240000 0.000000 0.240000
v 0.240000 0.150000 0.240000
v 0.240000 0.000000 -0.240000
v 0.240000 0.150000 -0.240000
v -0.250000 3.450000 0.250000
v -0.250000 3.600000 0.250000
v -0.250000 3.450000 -0.250000
v -0.250000 3.600000 -0.250000
v 0.250000 3.450000 0.250000
v 0.250000 3.600000 0.250000
v 0.250000 3.450000 -0.250000
v 0.250000 3.600000 -0.250000
vn -1.0000 -0.0000 -0.0000
vn -0.0000 -0.0000 -1.0000
vn 1.0000 -0.0000 -0.0000
vn -0.0000 -0.0000 1.0000
vn -0.0000 -1.0000 -0.0000
vn -0.0000 1.0000 -0.0000
vt 0.325000 -1.300000
vt 0.325000 2.300000
vt 0.675000 2.300000
vt 0.675000 -1.300000
vt 0.325000 0.675000
vt 0.675000 0.675000
vt 0.675000 0.325000
vt 0.325000 0.325000
vt 0.260000 -1.300000
vt 0.260000 -1.150000
vt 0.740000 -1.150000
vt 0.740000 -1.300000
vt 0.260000 0.740000
vt 0.740000 0.740000
vt 0.740000 0.260000
vt 0.260000 0.260000
vt 0.250000 2.150000
vt 0.250000 2.300000
vt 0.750000 2.300000
vt 0.750000 2.150000
vt 0.250000 0.750000
vt 0.750000 0.750000
vt 0.750000 0.250000
vt 0.250000 0.250000
s 0
usemtl SURF_Concrete_Struct
f 1/1/1 2/2/1 4/3/1 3/4/1
f 3/1/2 4/2/2 8/3/2 7/4/2
f 7/4/3 8/3/3 6/2/3 5/1/3
f 5/4/4 6/3/4 2/2/4 1/1/4
f 3/5/5 7/6/5 5/7/5 1/8/5
f 8/6/6 4/5/6 2/8/6 6/7/6
f 9/9/1 10/10/1 12/11/1 11/12/1
f 11/9/2 12/10/2 16/11/2 15/12/2
f 15/12/3 16/11/3 14/10/3 13/9/3
f 13/12/4 14/11/4 10/10/4 9/9/4
f 11/13/5 15/14/5 13/15/5 9/16/5
f 16/14/6 12/13/6 10/16/6 14/15/6
f 17/17/1 18/18/1 20/19/1 19/20/1
f 19/17/2 20/18/2 24/19/2 23/20/2
f 23/20/3 24/19/3 22/18/3 21/17/3
f 21/20/4 22/19/4 18/18/4 17/17/4
f 19/21/5 23/22/5 21/23/5 17/24/5
f 24/22/6 20/21/6 18/24/6 22/23/6
