# Blender 5.2.0 LTS
# www.blender.org
mtllib SM_K_ClinicDoor.mtl
o SM_K_ClinicDoor
v -0.980000 0.035000 0.080000
v -0.980000 0.055000 0.100000
v -1.000000 0.055000 0.080000
v -0.980000 3.615000 0.100000
v -0.980000 3.635000 0.080000
v -1.000000 3.615000 0.080000
v -0.980000 0.035000 -0.080000
v -1.000000 0.055000 -0.080000
v -0.980000 0.055000 -0.100000
v -0.980000 3.635000 -0.080000
v -0.980000 3.615000 -0.100000
v -1.000000 3.615000 -0.080000
v 0.980000 0.035000 0.080000
v 1.000000 0.055000 0.080000
v 0.980000 0.055000 0.100000
v 0.980000 3.635000 0.080000
v 0.980000 3.615000 0.100000
v 1.000000 3.615000 0.080000
v 1.000000 0.055000 -0.080000
v 0.980000 0.035000 -0.080000
v 0.980000 0.055000 -0.100000
v 0.980000 3.635000 -0.080000
v 1.000000 3.615000 -0.080000
v 0.980000 3.615000 -0.100000
v -0.480000 2.135000 -0.080000
v -0.500000 2.115000 -0.080000
v -0.520000 2.155000 -0.100000
v -0.520000 0.035000 -0.080000
v -0.520000 0.055000 -0.100000
v -0.500000 0.055000 -0.080000
v 0.500000 2.115000 -0.080000
v 0.480000 2.135000 -0.080000
v 0.520000 2.155000 -0.100000
v 0.520000 0.035000 -0.080000
v 0.500000 0.055000 -0.080000
v 0.520000 0.055000 -0.100000
v 0.500000 2.115000 0.080000
v 0.520000 2.155000 0.100000
v 0.480000 2.135000 0.080000
v -0.520000 0.035000 0.080000
v -0.500000 0.055000 0.080000
v -0.520000 0.055000 0.100000
v -0.500000 2.115000 0.080000
v -0.480000 2.135000 0.080000
v -0.520000 2.155000 0.100000
v 0.500000 0.055000 0.080000
v 0.520000 0.035000 0.080000
v 0.520000 0.055000 0.100000
v -1.000000 0.035000 -0.070000
v -1.000000 0.935000 -0.070000
v -1.000000 0.035000 -0.110000
v -1.000000 0.935000 -0.110000
v -0.500000 0.035000 -0.070000
v -0.500000 0.935000 -0.070000
v -0.500000 0.035000 -0.110000
v -0.500000 0.935000 -0.110000
v 0.500000 0.035000 -0.070000
v 0.500000 0.935000 -0.070000
v 0.500000 0.035000 -0.110000
v 0.500000 0.935000 -0.110000
v 1.000000 0.035000 -0.070000
v 1.000000 0.935000 -0.070000
v 1.000000 0.035000 -0.110000
v 1.000000 0.935000 -0.110000
v -0.535000 0.000000 -0.060000
v -0.535000 2.170000 -0.060000
v -0.535000 0.000000 -0.160000
v -0.535000 2.170000 -0.160000
v -0.465000 0.000000 -0.060000
v -0.465000 2.170000 -0.060000
v -0.465000 0.000000 -0.160000
v -0.465000 2.170000 -0.160000
v 0.465000 0.000000 -0.060000
v 0.465000 2.170000 -0.060000
v 0.465000 0.000000 -0.160000
v 0.465000 2.170000 -0.160000
v 0.535000 0.000000 -0.060000
v 0.535000 2.170000 -0.060000
v 0.535000 0.000000 -0.160000
v 0.535000 2.170000 -0.160000
v -0.570000 2.100000 -0.060000
v -0.570000 2.170000 -0.060000
v -0.570000 2.100000 -0.160000
v -0.570000 2.170000 -0.160000
v 0.570000 2.100000 -0.060000
v 0.570000 2.170000 -0.060000
v 0.570000 2.100000 -0.160000
v 0.570000 2.170000 -0.160000
v -0.470000 0.065000 0.005000
v -0.470000 2.105000 0.005000
v -0.470000 0.065000 -0.045000
v -0.470000 2.105000 -0.045000
v 0.470000 0.065000 0.005000
v 0.470000 2.105000 0.005000
v 0.470000 0.065000 -0.045000
v 0.470000 2.105000 -0.045000
v -0.250000 1.310000 -0.035000
v -0.250000 1.860000 -0.035000
v -0.250000 1.310000 -0.065000
v -0.250000 1.860000 -0.065000
v 0.250000 1.310000 -0.035000
v 0.250000 1.860000 -0.035000
v 0.250000 1.310000 -0.065000
v 0.250000 1.860000 -0.065000
v -0.290000 1.860000 -0.020000
v -0.290000 1.910000 -0.020000
v -0.290000 1.860000 -0.060000
v -0.290000 1.910000 -0.060000
v 0.290000 1.860000 -0.020000
v 0.290000 1.910000 -0.020000
v 0.290000 1.860000 -0.060000
v 0.290000 1.910000 -0.060000
v -0.290000 1.260000 -0.020000
v -0.290000 1.310000 -0.020000
v -0.290000 1.260000 -0.060000
v -0.290000 1.310000 -0.060000
v 0.290000 1.260000 -0.020000
v 0.290000 1.310000 -0.020000
v 0.290000 1.260000 -0.060000
v 0.290000 1.310000 -0.060000
v 0.315000 0.965000 -0.020000
v 0.315000 1.105000 -0.020000
v 0.315000 0.965000 -0.100000
v 0.315000 1.105000 -0.100000
v 0.365000 0.965000 -0.020000
v 0.365000 1.105000 -0.020000
v 0.365000 0.965000 -0.100000
v 0.365000 1.105000 -0.100000
v -0.220000 2.315000 -0.095000
v -0.220000 2.755000 -0.095000
v -0.220000 2.315000 -0.145000
v -0.220000 2.755000 -0.145000
v 0.220000 2.315000 -0.095000
v 0.220000 2.755000 -0.095000
v 0.220000 2.315000 -0.145000
v 0.220000 2.755000 -0.145000
v -0.050000 2.385000 -0.130000
v -0.050000 2.685000 -0.130000
v -0.050000 2.385000 -0.170000
v -0.050000 2.685000 -0.170000
v 0.050000 2.385000 -0.130000
v 0.050000 2.685000 -0.130000
v 0.050000 2.385000 -0.170000
v 0.050000 2.685000 -0.170000
v -0.150000 2.485000 -0.130000
v -0.150000 2.585000 -0.130000
v -0.150000 2.485000 -0.170000
v -0.150000 2.585000 -0.170000
v 0.150000 2.485000 -0.130000
v 0.150000 2.585000 -0.130000
v 0.150000 2.485000 -0.170000
v 0.150000 2.585000 -0.170000
vn -0.5774 -0.5774 0.5773
vn -0.5774 0.5773 0.5773
vn -0.5774 -0.5774 -0.5773
vn -0.5774 0.5773 -0.5773
vn 0.5774 -0.5774 0.5773
vn 0.5774 0.5773 0.5773
vn 0.5774 -0.5774 -0.5773
vn 0.5774 0.5773 -0.5773
vn 0.3015 -0.3015 -0.9045
vn -0.3015 -0.3015 -0.9045
vn -0.3015 -0.3015 0.9045
vn 0.3015 -0.3015 0.9045
vn -0.7071 -0.7071 -0.0000
vn -0.7071 -0.0000 0.7071
vn -0.7071 0.7071 -0.0000
vn -0.7071 -0.0000 -0.7071
vn -0.0000 -0.7071 -0.7071
vn -0.0000 0.7071 -0.7071
vn 0.7071 -0.0000 -0.7071
vn 0.7071 -0.7071 -0.0000
vn 0.7071 0.7071 -0.0000
vn 0.7071 -0.0000 0.7071
vn -0.0000 -0.7071 0.7071
vn -0.0000 0.7071 0.7071
vn -0.0000 -1.0000 -0.0000
vn -1.0000 -0.0000 -0.0000
vn -0.0000 -0.0000 1.0000
vn -0.0000 1.0000 -0.0000
vn -0.0000 -0.0000 -1.0000
vn 1.0000 -0.0000 -0.0000
vt 0.385000 -1.282500
vt 0.365000 -1.262500
vt 0.385000 -1.262500
vt -0.480000 0.365000
vt -0.480000 0.385000
vt -0.500000 0.385000
vt 0.545000 -1.282500
vt 0.545000 -1.262500
vt 0.565000 -1.262500
vt -0.480000 0.545000
vt -0.480000 0.565000
vt -0.500000 0.545000
vt 1.480000 0.385000
vt 1.480000 0.365000
vt 1.500000 0.385000
vt 1.480000 0.545000
vt 1.500000 0.545000
vt 1.480000 0.565000
vt 0.020000 0.817500
vt 0.000000 0.797500
vt -0.020000 0.837500
vt 1.000000 0.797500
vt 0.980000 0.817500
vt 1.020000 0.837500
vt 0.365000 2.297500
vt 0.385000 2.297500
vt 0.545000 2.297500
vt 0.565000 2.297500
vt -0.020000 0.565000
vt -0.020000 0.545000
vt 1.020000 0.545000
vt 1.020000 0.565000
vt 0.565000 0.837500
vt 0.545000 0.797500
vt 0.980000 0.545000
vt 0.020000 0.545000
vt 0.385000 0.797500
vt 0.365000 0.837500
vt 1.020000 0.365000
vt 1.020000 0.385000
vt -0.020000 0.385000
vt -0.020000 0.365000
vt 0.020000 0.385000
vt 0.980000 0.385000
vt 0.000000 0.385000
vt 0.000000 0.545000
vt 1.000000 0.545000
vt 1.000000 0.385000
vt 1.020000 -1.262500
vt 1.480000 -1.262500
vt 1.480000 2.297500
vt -0.480000 2.297500
vt -0.480000 -1.262500
vt -0.020000 -1.262500
vt 0.535000 -1.282500
vt 0.535000 -0.382500
vt 0.575000 -0.382500
vt 0.575000 -1.282500
vt -0.500000 -1.282500
vt -0.500000 -0.382500
vt 0.000000 -0.382500
vt 0.000000 -1.282500
vt -0.500000 0.575000
vt 0.000000 0.575000
vt 0.000000 0.535000
vt -0.500000 0.535000
vt 1.000000 -1.282500
vt 1.000000 -0.382500
vt 1.500000 -0.382500
vt 1.500000 -1.282500
vt 1.000000 0.575000
vt 1.500000 0.575000
vt 1.500000 0.535000
vt 1.000000 0.535000
vt 0.525000 -1.317500
vt 0.525000 0.852500
vt 0.625000 0.852500
vt 0.625000 -1.317500
vt -0.035000 -1.317500
vt -0.035000 0.852500
vt 0.035000 0.852500
vt 0.035000 -1.317500
vt -0.035000 0.625000
vt 0.035000 0.625000
vt 0.035000 0.525000
vt -0.035000 0.525000
vt 0.965000 -1.317500
vt 0.965000 0.852500
vt 1.035000 0.852500
vt 1.035000 -1.317500
vt 0.965000 0.625000
vt 1.035000 0.625000
vt 1.035000 0.525000
vt 0.965000 0.525000
vt 0.525000 0.782500
vt 0.625000 0.782500
vt -0.070000 0.782500
vt -0.070000 0.852500
vt 1.070000 0.852500
vt 1.070000 0.782500
vt -0.070000 0.625000
vt 1.070000 0.625000
vt 1.070000 0.525000
vt -0.070000 0.525000
vt 0.460000 -1.252500
vt 0.460000 0.787500
vt 0.510000 0.787500
vt 0.510000 -1.252500
vt 0.030000 -1.252500
vt 0.030000 0.787500
vt 0.970000 0.787500
vt 0.970000 -1.252500
vt 0.030000 0.510000
vt 0.970000 0.510000
vt 0.970000 0.460000
vt 0.030000 0.460000
vt 0.500000 -0.007500
vt 0.500000 0.542500
vt 0.530000 0.542500
vt 0.530000 -0.007500
vt 0.250000 -0.007500
vt 0.250000 0.542500
vt 0.750000 0.542500
vt 0.750000 -0.007500
vt 0.250000 0.530000
vt 0.750000 0.530000
vt 0.750000 0.500000
vt 0.250000 0.500000
vt 0.485000 0.542500
vt 0.485000 0.592500
vt 0.525000 0.592500
vt 0.525000 0.542500
vt 0.210000 0.542500
vt 0.210000 0.592500
vt 0.790000 0.592500
vt 0.790000 0.542500
vt 0.210000 0.525000
vt 0.790000 0.525000
vt 0.790000 0.485000
vt 0.210000 0.485000
vt 0.485000 -0.057500
vt 0.485000 -0.007500
vt 0.525000 -0.007500
vt 0.525000 -0.057500
vt 0.210000 -0.057500
vt 0.210000 -0.007500
vt 0.790000 -0.007500
vt 0.790000 -0.057500
vt 0.485000 -0.352500
vt 0.485000 -0.212500
vt 0.565000 -0.212500
vt 0.565000 -0.352500
vt 0.815000 -0.352500
vt 0.815000 -0.212500
vt 0.865000 -0.212500
vt 0.865000 -0.352500
vt 0.815000 0.565000
vt 0.865000 0.565000
vt 0.865000 0.485000
vt 0.815000 0.485000
vt 0.560000 0.997500
vt 0.560000 1.437500
vt 0.610000 1.437500
vt 0.610000 0.997500
vt 0.280000 0.997500
vt 0.280000 1.437500
vt 0.720000 1.437500
vt 0.720000 0.997500
vt 0.280000 0.610000
vt 0.720000 0.610000
vt 0.720000 0.560000
vt 0.280000 0.560000
vt 0.595000 1.067500
vt 0.595000 1.367500
vt 0.635000 1.367500
vt 0.635000 1.067500
vt 0.450000 1.067500
vt 0.450000 1.367500
vt 0.550000 1.367500
vt 0.550000 1.067500
vt 0.450000 0.635000
vt 0.550000 0.635000
vt 0.550000 0.595000
vt 0.450000 0.595000
vt 0.595000 1.167500
vt 0.595000 1.267500
vt 0.635000 1.267500
vt 0.635000 1.167500
vt 0.350000 1.167500
vt 0.350000 1.267500
vt 0.650000 1.267500
vt 0.650000 1.167500
vt 0.350000 0.635000
vt 0.650000 0.635000
vt 0.650000 0.595000
vt 0.350000 0.595000
s 0
usemtl SURF_Plaster_Wall
f 1/1/1 2/2/1 3/3/1
f 4/4/2 5/5/2 6/6/2
f 7/7/3 8/8/3 9/9/3
f 10/10/4 11/11/4 12/12/4
f 13/1/5 14/3/5 15/2/5
f 16/13/6 17/14/6 18/15/6
f 19/8/7 20/7/7 21/9/7
f 22/16/8 23/17/8 24/18/8
f 25/19/9 26/20/9 27/21/9
f 28/7/7 29/9/7 30/8/7
f 31/22/10 32/23/10 33/24/10
f 34/7/3 35/8/3 36/9/3
f 37/22/11 38/24/11 39/23/11
f 40/1/5 41/3/5 42/2/5
f 43/20/12 44/19/12 45/21/12
f 46/3/1 47/1/1 48/2/1
f 3/3/13 8/8/13 7/7/13 1/1/13
f 2/2/14 4/25/14 6/26/14 3/3/14
f 5/5/15 10/10/15 12/12/15 6/6/15
f 8/8/16 12/27/16 11/28/16 9/9/16
f 9/11/17 29/29/17 28/30/17 7/10/17
f 10/10/18 22/16/18 24/18/18 11/11/18
f 21/9/19 24/28/19 23/27/19 19/8/19
f 20/16/17 34/31/17 36/32/17 21/18/17
f 33/33/16 36/9/16 35/8/16 31/34/16
f 27/29/17 33/32/17 32/35/17 25/36/17
f 26/34/19 30/8/19 29/9/19 27/33/19
f 13/1/20 20/7/20 19/8/20 14/3/20
f 18/15/21 23/17/21 22/16/21 16/13/21
f 14/3/22 18/26/22 17/25/22 15/2/22
f 37/37/14 46/3/14 48/2/14 38/38/14
f 15/14/23 48/39/23 47/40/23 13/13/23
f 4/4/24 17/14/24 16/13/24 5/5/24
f 1/5/23 40/41/23 42/42/23 2/4/23
f 41/3/22 43/37/22 45/38/22 42/2/22
f 38/39/23 45/42/23 44/43/23 39/44/23
f 34/7/13 47/1/13 46/3/13 35/8/13
f 30/8/20 41/3/20 40/1/20 28/7/20
f 25/36/20 44/43/20 43/45/20 26/46/20
f 31/47/13 37/48/13 39/44/13 32/35/13
f 1/5/25 7/10/25 28/30/25 40/41/25
f 3/3/26 6/26/26 12/27/26 8/8/26
f 48/49/27 15/50/27 17/51/27 4/52/27 2/53/27 42/54/27 45/21/27 38/24/27
f 22/16/28 10/10/28 5/5/28 16/13/28
f 9/53/29 11/52/29 24/51/29 21/50/29 36/49/29 33/24/29 27/21/29 29/54/29
f 20/16/25 13/13/25 47/40/25 34/31/25
f 19/8/30 23/27/30 18/26/30 14/3/30
f 25/36/25 32/35/25 39/44/25 44/43/25
f 41/3/30 30/8/30 26/34/30 43/37/30
f 37/37/26 31/34/26 35/8/26 46/3/26
usemtl SURF_Wood_Dark
f 49/55/26 50/56/26 52/57/26 51/58/26
f 51/59/29 52/60/29 56/61/29 55/62/29
f 55/58/30 56/57/30 54/56/30 53/55/30
f 53/62/27 54/61/27 50/60/27 49/59/27
f 51/63/25 55/64/25 53/65/25 49/66/25
f 56/64/28 52/63/28 50/66/28 54/65/28
f 57/55/26 58/56/26 60/57/26 59/58/26
f 59/67/29 60/68/29 64/69/29 63/70/29
f 63/58/30 64/57/30 62/56/30 61/55/30
f 61/70/27 62/69/27 58/68/27 57/67/27
f 59/71/25 63/72/25 61/73/25 57/74/25
f 64/72/28 60/71/28 58/74/28 62/73/28
f 65/75/26 66/76/26 68/77/26 67/78/26
f 67/79/29 68/80/29 72/81/29 71/82/29
f 71/78/30 72/77/30 70/76/30 69/75/30
f 69/82/27 70/81/27 66/80/27 65/79/27
f 67/83/25 71/84/25 69/85/25 65/86/25
f 72/84/28 68/83/28 66/86/28 70/85/28
f 73/75/26 74/76/26 76/77/26 75/78/26
f 75/87/29 76/88/29 80/89/29 79/90/29
f 79/78/30 80/77/30 78/76/30 77/75/30
f 77/90/27 78/89/27 74/88/27 73/87/27
f 75/91/25 79/92/25 77/93/25 73/94/25
f 80/92/28 76/91/28 74/94/28 78/93/28
f 81/95/26 82/76/26 84/77/26 83/96/26
f 83/97/29 84/98/29 88/99/29 87/100/29
f 87/96/30 88/77/30 86/76/30 85/95/30
f 85/100/27 86/99/27 82/98/27 81/97/27
f 83/101/25 87/102/25 85/103/25 81/104/25
f 88/102/28 84/101/28 82/104/28 86/103/28
f 105/129/26 106/130/26 108/131/26 107/132/26
f 107/133/29 108/134/29 112/135/29 111/136/29
f 111/132/30 112/131/30 110/130/30 109/129/30
f 109/136/27 110/135/27 106/134/27 105/133/27
f 107/137/25 111/138/25 109/139/25 105/140/25
f 112/138/28 108/137/28 106/140/28 110/139/28
f 113/141/26 114/142/26 116/143/26 115/144/26
f 115/145/29 116/146/29 120/147/29 119/148/29
f 119/144/30 120/143/30 118/142/30 117/141/30
f 117/148/27 118/147/27 114/146/27 113/145/27
f 115/137/25 119/138/25 117/139/25 113/140/25
f 120/138/28 116/137/28 114/140/28 118/139/28
usemtl SURF_Wood_Furniture
f 89/105/26 90/106/26 92/107/26 91/108/26
f 91/109/29 92/110/29 96/111/29 95/112/29
f 95/108/30 96/107/30 94/106/30 93/105/30
f 93/112/27 94/111/27 90/110/27 89/109/27
f 91/113/25 95/114/25 93/115/25 89/116/25
f 96/114/28 92/113/28 90/116/28 94/115/28
usemtl SURF_Glass_Std
f 97/117/26 98/118/26 100/119/26 99/120/26
f 99/121/29 100/122/29 104/123/29 103/124/29
f 103/120/30 104/119/30 102/118/30 101/117/30
f 101/124/27 102/123/27 98/122/27 97/121/27
f 99/125/25 103/126/25 101/127/25 97/128/25
f 104/126/28 100/125/28 98/128/28 102/127/28
usemtl SURF_Metal_Fence
f 121/149/26 122/150/26 124/151/26 123/152/26
f 123/153/29 124/154/29 128/155/29 127/156/29
f 127/152/30 128/151/30 126/150/30 125/149/30
f 125/156/27 126/155/27 122/154/27 121/153/27
f 123/157/25 127/158/25 125/159/25 121/160/25
f 128/158/28 124/157/28 122/160/28 126/159/28
usemtl SURF_Steel_Sign
f 129/161/26 130/162/26 132/163/26 131/164/26
f 131/165/29 132/166/29 136/167/29 135/168/29
f 135/164/30 136/163/30 134/162/30 133/161/30
f 133/168/27 134/167/27 130/166/27 129/165/27
f 131/169/25 135/170/25 133/171/25 129/172/25
f 136/170/28 132/169/28 130/172/28 134/171/28
usemtl SURF_Crimson_Core
f 137/173/26 138/174/26 140/175/26 139/176/26
f 139/177/29 140/178/29 144/179/29 143/180/29
f 143/176/30 144/175/30 142/174/30 141/173/30
f 141/180/27 142/179/27 138/178/27 137/177/27
f 139/181/25 143/182/25 141/183/25 137/184/25
f 144/182/28 140/181/28 138/184/28 142/183/28
f 145/185/26 146/186/26 148/187/26 147/188/26
f 147/189/29 148/190/29 152/191/29 151/192/29
f 151/188/30 152/187/30 150/186/30 149/185/30
f 149/192/27 150/191/27 146/190/27 145/189/27
f 147/193/25 151/194/25 149/195/25 145/196/25
f 152/194/28 148/193/28 146/196/28 150/195/28
