# Blender 5.2.0 LTS
# www.blender.org
mtllib SM_K_ShoeCubby.mtl
o SM_K_ShoeCubby
v -0.800000 0.000000 0.175000
v -0.800000 1.600000 0.175000
v -0.800000 0.000000 0.145000
v -0.800000 1.600000 0.145000
v 0.800000 0.000000 0.175000
v 0.800000 1.600000 0.175000
v 0.800000 0.000000 0.145000
v 0.800000 1.600000 0.145000
v -0.800000 0.000000 0.175000
v -0.800000 0.040000 0.175000
v -0.800000 0.000000 -0.175000
v -0.800000 0.040000 -0.175000
v 0.800000 0.000000 0.175000
v 0.800000 0.040000 0.175000
v 0.800000 0.000000 -0.175000
v 0.800000 0.040000 -0.175000
v -0.800000 0.513333 0.175000
v -0.800000 0.553333 0.175000
v -0.800000 0.513333 -0.175000
v -0.800000 0.553333 -0.175000
v 0.800000 0.513333 0.175000
v 0.800000 0.553333 0.175000
v 0.800000 0.513333 -0.175000
v 0.800000 0.553333 -0.175000
v -0.800000 1.046667 0.175000
v -0.800000 1.086667 0.175000
v -0.800000 1.046667 -0.175000
v -0.800000 1.086667 -0.175000
v 0.800000 1.046667 0.175000
v 0.800000 1.086667 0.175000
v 0.800000 1.046667 -0.175000
v 0.800000 1.086667 -0.175000
v -0.800000 1.560000 0.175000
v -0.800000 1.600000 0.175000
v -0.800000 1.560000 -0.175000
v -0.800000 1.600000 -0.175000
v 0.800000 1.560000 0.175000
v 0.800000 1.600000 0.175000
v 0.800000 1.560000 -0.175000
v 0.800000 1.600000 -0.175000
v -0.820000 0.000000 0.175000
v -0.820000 1.600000 0.175000
v -0.820000 0.000000 -0.175000
v -0.820000 1.600000 -0.175000
v -0.780000 0.000000 0.175000
v -0.780000 1.600000 0.175000
v -0.780000 0.000000 -0.175000
v -0.780000 1.600000 -0.175000
v -0.420000 0.000000 0.175000
v -0.420000 1.600000 0.175000
v -0.420000 0.000000 -0.175000
v -0.420000 1.600000 -0.175000
v -0.380000 0.000000 0.175000
v -0.380000 1.600000 0.175000
v -0.380000 0.000000 -0.175000
v -0.380000 1.600000 -0.175000
v -0.020000 0.000000 0.175000
v -0.020000 1.600000 0.175000
v -0.020000 0.000000 -0.175000
v -0.020000 1.600000 -0.175000
v 0.020000 0.000000 0.175000
v 0.020000 1.600000 0.175000
v 0.020000 0.000000 -0.175000
v 0.020000 1.600000 -0.175000
v 0.380000 0.000000 0.175000
v 0.380000 1.600000 0.175000
v 0.380000 0.000000 -0.175000
v 0.380000 1.600000 -0.175000
v 0.420000 0.000000 0.175000
v 0.420000 1.600000 0.175000
v 0.420000 0.000000 -0.175000
v 0.420000 1.600000 -0.175000
v 0.780000 0.000000 0.175000
v 0.780000 1.600000 0.175000
v 0.780000 0.000000 -0.175000
v 0.780000 1.600000 -0.175000
v 0.820000 0.000000 0.175000
v 0.820000 1.600000 0.175000
v 0.820000 0.000000 -0.175000
v 0.820000 1.600000 -0.175000
v -0.850000 1.595000 0.195000
v -0.850000 1.645000 0.195000
v -0.850000 1.595000 -0.215000
v -0.850000 1.645000 -0.215000
v 0.850000 1.595000 0.195000
v 0.850000 1.645000 0.195000
v 0.850000 1.595000 -0.215000
v 0.850000 1.645000 -0.215000
vn -1.0000 -0.0000 -0.0000
vn -0.0000 -0.0000 -1.0000
vn 1.0000 -0.0000 -0.0000
vn -0.0000 -0.0000 1.0000
vn -0.0000 -1.0000 -0.0000
vn -0.0000 1.0000 -0.0000
vt 0.315000 -0.322500
vt 0.315000 1.277500
vt 0.345000 1.277500
vt 0.345000 -0.322500
vt -0.300000 -0.322500
vt -0.300000 1.277500
vt 1.300000 1.277500
vt 1.300000 -0.322500
vt -0.300000 0.345000
vt 1.300000 0.345000
vt 1.300000 0.315000
vt -0.300000 0.315000
vt 0.315000 -0.282500
vt 0.665000 -0.282500
vt 0.665000 -0.322500
vt -0.300000 -0.282500
vt 1.300000 -0.282500
vt -0.300000 0.665000
vt 1.300000 0.665000
vt 0.315000 0.190833
vt 0.315000 0.230833
vt 0.665000 0.230833
vt 0.665000 0.190833
vt -0.300000 0.190833
vt -0.300000 0.230833
vt 1.300000 0.230833
vt 1.300000 0.190833
vt 0.315000 0.724167
vt 0.315000 0.764167
vt 0.665000 0.764167
vt 0.665000 0.724167
vt -0.300000 0.724167
vt -0.300000 0.764167
vt 1.300000 0.764167
vt 1.300000 0.724167
vt 0.315000 1.237500
vt 0.665000 1.277500
vt 0.665000 1.237500
vt -0.300000 1.237500
vt 1.300000 1.237500
vt -0.320000 -0.322500
vt -0.320000 1.277500
vt -0.280000 1.277500
vt -0.280000 -0.322500
vt -0.320000 0.665000
vt -0.280000 0.665000
vt -0.280000 0.315000
vt -0.320000 0.315000
vt 0.080000 -0.322500
vt 0.080000 1.277500
vt 0.120000 1.277500
vt 0.120000 -0.322500
vt 0.080000 0.665000
vt 0.120000 0.665000
vt 0.120000 0.315000
vt 0.080000 0.315000
vt 0.480000 -0.322500
vt 0.480000 1.277500
vt 0.520000 1.277500
vt 0.520000 -0.322500
vt 0.480000 0.665000
vt 0.520000 0.665000
vt 0.520000 0.315000
vt 0.480000 0.315000
vt 0.880000 -0.322500
vt 0.880000 1.277500
vt 0.920000 1.277500
vt 0.920000 -0.322500
vt 0.880000 0.665000
vt 0.920000 0.665000
vt 0.920000 0.315000
vt 0.880000 0.315000
vt 1.280000 -0.322500
vt 1.280000 1.277500
vt 1.320000 1.277500
vt 1.320000 -0.322500
vt 1.280000 0.665000
vt 1.320000 0.665000
vt 1.320000 0.315000
vt 1.280000 0.315000
vt 0.295000 1.272500
vt 0.295000 1.322500
vt 0.705000 1.322500
vt 0.705000 1.272500
vt -0.350000 1.272500
vt -0.350000 1.322500
vt 1.350000 1.322500
vt 1.350000 1.272500
vt -0.350000 0.705000
vt 1.350000 0.705000
vt 1.350000 0.295000
vt -0.350000 0.295000
s 0
usemtl SURF_Wood_Dark
f 1/1/1 2/2/1 4/3/1 3/4/1
f 3/5/2 4/6/2 8/7/2 7/8/2
f 7/4/3 8/3/3 6/2/3 5/1/3
f 5/8/4 6/7/4 2/6/4 1/5/4
f 3/9/5 7/10/5 5/11/5 1/12/5
f 8/10/6 4/9/6 2/12/6 6/11/6
f 81/81/1 82/82/1 84/83/1 83/84/1
f 83/85/2 84/86/2 88/87/2 87/88/2
f 87/84/3 88/83/3 86/82/3 85/81/3
f 85/88/4 86/87/4 82/86/4 81/85/4
f 83/89/5 87/90/5 85/91/5 81/92/5
f 88/90/6 84/89/6 82/92/6 86/91/6
usemtl SURF_Metal_Fence
f 9/1/1 10/13/1 12/14/1 11/15/1
f 11/5/2 12/16/2 16/17/2 15/8/2
f 15/15/3 16/14/3 14/13/3 13/1/3
f 13/8/4 14/17/4 10/16/4 9/5/4
f 11/18/5 15/19/5 13/11/5 9/12/5
f 16/19/6 12/18/6 10/12/6 14/11/6
f 17/20/1 18/21/1 20/22/1 19/23/1
f 19/24/2 20/25/2 24/26/2 23/27/2
f 23/23/3 24/22/3 22/21/3 21/20/3
f 21/27/4 22/26/4 18/25/4 17/24/4
f 19/18/5 23/19/5 21/11/5 17/12/5
f 24/19/6 20/18/6 18/12/6 22/11/6
f 25/28/1 26/29/1 28/30/1 27/31/1
f 27/32/2 28/33/2 32/34/2 31/35/2
f 31/31/3 32/30/3 30/29/3 29/28/3
f 29/35/4 30/34/4 26/33/4 25/32/4
f 27/18/5 31/19/5 29/11/5 25/12/5
f 32/19/6 28/18/6 26/12/6 30/11/6
f 33/36/1 34/2/1 36/37/1 35/38/1
f 35/39/2 36/6/2 40/7/2 39/40/2
f 39/38/3 40/37/3 38/2/3 37/36/3
f 37/40/4 38/7/4 34/6/4 33/39/4
f 35/18/5 39/19/5 37/11/5 33/12/5
f 40/19/6 36/18/6 34/12/6 38/11/6
f 41/1/1 42/2/1 44/37/1 43/15/1
f 43/41/2 44/42/2 48/43/2 47/44/2
f 47/15/3 48/37/3 46/2/3 45/1/3
f 45/44/4 46/43/4 42/42/4 41/41/4
f 43/45/5 47/46/5 45/47/5 41/48/5
f 48/46/6 44/45/6 42/48/6 46/47/6
f 49/1/1 50/2/1 52/37/1 51/15/1
f 51/49/2 52/50/2 56/51/2 55/52/2
f 55/15/3 56/37/3 54/2/3 53/1/3
f 53/52/4 54/51/4 50/50/4 49/49/4
f 51/53/5 55/54/5 53/55/5 49/56/5
f 56/54/6 52/53/6 50/56/6 54/55/6
f 57/1/1 58/2/1 60/37/1 59/15/1
f 59/57/2 60/58/2 64/59/2 63/60/2
f 63/15/3 64/37/3 62/2/3 61/1/3
f 61/60/4 62/59/4 58/58/4 57/57/4
f 59/61/5 63/62/5 61/63/5 57/64/5
f 64/62/6 60/61/6 58/64/6 62/63/6
f 65/1/1 66/2/1 68/37/1 67/15/1
f 67/65/2 68/66/2 72/67/2 71/68/2
f 71/15/3 72/37/3 70/2/3 69/1/3
f 69/68/4 70/67/4 66/66/4 65/65/4
f 67/69/5 71/70/5 69/71/5 65/72/5
f 72/70/6 68/69/6 66/72/6 70/71/6
f 73/1/1 74/2/1 76/37/1 75/15/1
f 75/73/2 76/74/2 80/75/2 79/76/2
f 79/15/3 80/37/3 78/2/3 77/1/3
f 77/76/4 78/75/4 74/74/4 73/73/4
f 75/77/5 79/78/5 77/79/5 73/80/5
f 80/78/6 76/77/6 74/80/6 78/79/6
